<svg id="Capa_1" data-name="Capa 1" xmlns="http://www.w3.org/2000/svg" xmlns:xlink="http://www.w3.org/1999/xlink" viewBox="0 0 800 400"><defs><style>.cls-1{fill:#fff;}.cls-1,.cls-2{fill-rule:evenodd;}.cls-2{fill:#ccc;}.cls-3{mask:url(#mask);}</style><mask id="mask" x="724.23" y="154.68" width="23.77" height="121.15" maskUnits="userSpaceOnUse"><g id="mask0"><path class="cls-1" d="M724.23,154.68H748V275.83H724.23Z"/></g></mask></defs><path class="cls-2" d="M161.94,252.18a30.23,30.23,0,0,1-19.28,6.41,58.65,58.65,0,0,1-26.28-6.28Q95,241.92,95,218.24V197.56a43.46,43.46,0,0,0,12.11,5,101.93,101.93,0,0,0,14.54,2.86l15.54,2q14,1.86,21,5.84,11.93,6.71,11.92,21.38Q170.08,245.77,161.94,252.18Zm-54.13-69.45Q99,181.59,96,175.31q-1.71-3.44-1.71-9.89,0-13.18,9.33-19.14t26.73-5.95q20.08,0,28.5,10.91,4.71,6,6.13,17.94h24q-.7-28.35-18.33-39.46t-40.87-11.1q-27,0-43.79,10.28t-16.69,32V249a11.33,11.33,0,0,1-1.64,6.43c-1.1,1.62-3.41,2.42-6.93,2.42-1.14,0-2.43-.07-3.86-.21s-2.94-.36-4.56-.64v19a70.43,70.43,0,0,0,9.14,2.14,65.83,65.83,0,0,0,8.56.43q13.29,0,19.28-9.42,3.15-5,4.43-14.14,7.86,10.28,22.57,17.85a69.75,69.75,0,0,0,32.42,7.57q21.28,0,34.78-12.91t13.49-32.31q0-21.25-13.28-32.95T148.8,187.86Z"/><path class="cls-2" d="M576.09,275.87H567a14.63,14.63,0,0,1-14.63-14.63V202.53c0-14.33-11-26.68-25.3-27.39a26.68,26.68,0,0,0-28,26.61v74.12H475.27v-73c0-27.43,21.46-50.65,48.88-51.47a50.48,50.48,0,0,1,51.94,50.39Z"/><path class="cls-2" d="M700.47,275.87h-9.14a14.63,14.63,0,0,1-14.63-14.63V202.53c0-14.33-11-26.68-25.3-27.39a26.68,26.68,0,0,0-28,26.61v74.12H599.65v-73c0-27.43,21.46-50.65,48.88-51.47a50.48,50.48,0,0,1,51.94,50.39Z"/><path class="cls-2" d="M400,175.11a25.66,25.66,0,0,0-25.63,25.63v29.07A25.66,25.66,0,0,0,400,255.44h2a25.66,25.66,0,0,0,25.63-25.63V200.74a25.66,25.66,0,0,0-25.63-25.63Zm2,104.1h-2a49.45,49.45,0,0,1-49.39-49.4V200.74A49.45,49.45,0,0,1,400,151.34h2a49.45,49.45,0,0,1,49.39,49.4v29.07A49.45,49.45,0,0,1,402.05,279.21Z"/><g class="cls-3"><path class="cls-2" d="M733.37,275.83h-9.14V154.68H748V261.21A14.62,14.62,0,0,1,733.37,275.83Z"/></g><path class="cls-2" d="M318,154.63A14.63,14.63,0,0,0,304,165l-25.82,84.31A8.32,8.32,0,0,1,266.13,254a9.84,9.84,0,0,1-4.78-6L235.9,165a14.62,14.62,0,0,0-14-10.35h-14l30.67,100.15c3.61,11.8,13.21,21.08,25.32,23.44a31.9,31.9,0,0,0,37.07-22l31.12-101.61Z"/></svg>