<svg width="197" height="47" viewBox="0 0 197 47" fill="none" xmlns="http://www.w3.org/2000/svg">
<path fill-rule="evenodd" clip-rule="evenodd" d="M30.9262 38.6559C29.3962 39.8609 27.5842 40.4639 25.4892 40.4639C22.9402 40.4639 20.4702 39.8739 18.0802 38.6939C14.0532 36.7379 12.0402 33.5349 12.0402 29.0859V23.2559C12.9252 23.8219 14.0632 24.2929 15.4562 24.6699C16.8492 25.0479 18.2162 25.3159 19.5552 25.4759L23.9352 26.0399C26.5612 26.3879 28.5352 26.9369 29.8592 27.6869C32.1012 28.9459 33.2212 30.9559 33.2212 33.7139C33.2212 35.8019 32.4562 37.4499 30.9262 38.6559ZM15.6642 19.0739C13.9992 18.8599 12.8852 18.1639 12.3222 16.9839C12.0002 16.3379 11.8392 15.4079 11.8392 14.1949C11.8392 11.7169 12.7172 9.91685 14.4712 8.79885C16.2262 7.67985 18.7382 7.12085 22.0062 7.12085C25.7832 7.12085 28.4632 8.14585 30.0442 10.1969C30.9282 11.3309 31.5032 13.0159 31.7712 15.2559H38.5362C38.4032 9.92485 36.6792 6.21685 33.3682 4.12985C30.0572 2.04385 26.2162 1.00085 21.8452 1.00085C16.7782 1.00085 12.6622 1.96685 9.49724 3.89885C6.36024 5.83285 4.79224 8.83985 4.79224 12.9209V37.7669C4.79224 38.5189 4.63724 39.1229 4.32824 39.5789C4.02024 40.0339 3.36924 40.2609 2.37624 40.2609C2.05324 40.2609 1.69124 40.2419 1.28824 40.2019C0.885244 40.1609 0.457244 40.1009 0.000244141 40.0209V45.3759C1.12724 45.6979 1.98724 45.8989 2.57724 45.9799C3.16824 46.0599 3.97324 46.0999 4.99324 46.0999C7.48924 46.0999 9.30124 45.2149 10.4292 43.4429C11.0202 42.5049 11.4362 41.1759 11.6772 39.4579C13.1552 41.3899 15.2752 43.0679 18.0402 44.4909C20.8052 45.9129 23.8522 46.6239 27.1812 46.6239C31.1812 46.6239 34.4492 45.4109 36.9862 42.9839C39.5232 40.5579 40.7922 37.5209 40.7922 33.8749C40.7922 29.8809 39.5432 26.7829 37.0472 24.5849C34.5502 22.3859 31.2752 21.0319 27.2212 20.5219L15.6642 19.0739Z" fill="white"/>
<path opacity="0.709333" fill-rule="evenodd" clip-rule="evenodd" d="M147.694 45.3345H145.117C142.84 45.3345 140.993 43.4885 140.993 41.2115V24.6565C140.993 20.6165 137.895 17.1345 133.859 16.9355C129.545 16.7225 125.967 20.1715 125.967 24.4385V45.3345H119.267V24.7415C119.267 17.0075 125.319 10.4615 133.05 10.2315C141.083 9.99346 147.694 16.4585 147.694 24.4385V45.3345Z" fill="#444444"/>
<path opacity="0.709333" fill-rule="evenodd" clip-rule="evenodd" d="M182.763 45.3345H180.186C177.909 45.3345 176.062 43.4885 176.062 41.2115V24.6565C176.062 20.6165 172.964 17.1345 168.928 16.9355C164.614 16.7225 161.036 20.1715 161.036 24.4385V45.3345H154.336V24.7415C154.336 17.0075 160.388 10.4615 168.119 10.2315C176.152 9.99346 182.763 16.4585 182.763 24.4385V45.3345Z" fill="#444444"/>
<path opacity="0.709333" fill-rule="evenodd" clip-rule="evenodd" d="M98.0503 16.9263C94.0663 16.9263 90.8233 20.1683 90.8233 24.1533V32.3483C90.8233 36.3333 94.0663 39.5753 98.0503 39.5753H98.6243C102.608 39.5753 105.85 36.3333 105.85 32.3483V24.1533C105.85 20.1683 102.608 16.9263 98.6243 16.9263H98.0503ZM98.6243 46.2763H98.0503C90.3713 46.2763 84.1233 40.0283 84.1233 32.3483V24.1533C84.1233 16.4733 90.3713 10.2253 98.0503 10.2253H98.6243C106.303 10.2253 112.55 16.4733 112.55 24.1533V32.3483C112.55 40.0283 106.303 46.2763 98.6243 46.2763Z" fill="#444444"/>
<g opacity="0.709333">
<mask id="mask0" mask-type="alpha" maskUnits="userSpaceOnUse" x="189" y="11" width="8" height="35">
<path fill-rule="evenodd" clip-rule="evenodd" d="M189.463 11.1667H196.164V45.3257H189.463V11.1667Z" fill="white"/>
</mask>
<g mask="url(#mask0)">
<path fill-rule="evenodd" clip-rule="evenodd" d="M192.04 45.3257H189.463V11.1667H196.164V41.2027C196.164 43.4797 194.317 45.3257 192.04 45.3257Z" fill="#444444"/>
</g>
</g>
<g opacity="0.709333">
<mask id="mask1" mask-type="alpha" maskUnits="userSpaceOnUse" x="189" y="1" width="8" height="7">
<path fill-rule="evenodd" clip-rule="evenodd" d="M189.463 1.17688H196.164V7.87788H189.463V1.17688Z" fill="white"/>
</mask>
<g mask="url(#mask1)">
<path fill-rule="evenodd" clip-rule="evenodd" d="M189.463 4.52688C189.463 6.37788 190.963 7.87788 192.814 7.87788C194.664 7.87788 196.164 6.37788 196.164 4.52688C196.164 2.67588 194.664 1.17688 192.814 1.17688C190.963 1.17688 189.463 2.67588 189.463 4.52688Z" fill="#444444"/>
</g>
</g>
<path opacity="0.709333" fill-rule="evenodd" clip-rule="evenodd" d="M74.9337 11.1538C73.1217 11.1538 71.5217 12.3378 70.9907 14.0698L63.7097 37.8408C63.2967 39.1908 61.7627 39.9288 60.3007 39.1758C59.6387 38.8358 59.1717 38.2068 58.9537 37.4948L51.7797 14.0698C51.2487 12.3378 49.6487 11.1538 47.8367 11.1538H43.8787L52.5267 39.3888C53.5447 42.7158 56.2497 45.3328 59.6637 45.9998C64.3887 46.9228 68.7737 44.1908 70.1177 39.8018L78.8917 11.1538H74.9337Z" fill="#444444"/>
</svg>
