<?xml version="1.0" encoding="utf-8"?>
<!-- Generator: Adobe Illustrator 26.0.0, SVG Export Plug-In . SVG Version: 6.00 Build 0)  -->
<svg version="1.1" id="Capa_1" xmlns="http://www.w3.org/2000/svg" xmlns:xlink="http://www.w3.org/1999/xlink" x="0px" y="0px"
	 viewBox="0 0 800 400" style="enable-background:new 0 0 800 400;" xml:space="preserve">
<style type="text/css">
	.st0{fill-rule:evenodd;clip-rule:evenodd;fill:#AAAAAA;}
</style>
<path class="st0" d="M161.9,252.2c-5.5,4.3-12.3,6.6-19.3,6.4c-9.1,0-18.1-2.2-26.3-6.3C102.1,245.4,95,234,95,218.2v-20.7
	c3.8,2.3,7.8,4,12.1,5c4.8,1.3,9.6,2.3,14.5,2.9l15.5,2c9.3,1.2,16.3,3.2,21,5.8c8,4.5,11.9,11.6,11.9,21.4
	C170.1,242.1,167.4,247.9,161.9,252.2z M107.8,182.7c-5.9-0.8-9.8-3.2-11.8-7.4c-1.1-2.3-1.7-5.6-1.7-9.9c0-8.8,3.1-15.2,9.3-19.1
	s15.1-6,26.7-5.9c13.4,0,22.9,3.6,28.5,10.9c3.1,4,5.2,10,6.1,17.9h24c-0.5-18.9-6.6-32.1-18.3-39.5c-11.8-7.4-25.4-11.1-40.9-11.1
	c-18,0-32.6,3.4-43.8,10.3c-11.2,6.9-16.8,17.5-16.7,32V249c0.1,2.3-0.5,4.5-1.6,6.4c-1.1,1.6-3.4,2.4-6.9,2.4
	c-1.1,0-2.4-0.1-3.9-0.2s-2.9-0.4-4.6-0.6v19c3,0.9,6,1.6,9.1,2.1c2.8,0.3,5.7,0.5,8.6,0.4c8.9,0,15.3-3.1,19.3-9.4
	c2.1-3.3,3.6-8,4.4-14.1c5.2,6.9,12.8,12.8,22.6,17.8c10,5.1,21.2,7.7,32.4,7.6c14.2,0,25.8-4.3,34.8-12.9
	c9-8.6,13.5-19.4,13.5-32.3c0-14.2-4.4-25.1-13.3-32.9c-8.9-7.8-20.5-12.6-34.9-14.4L107.8,182.7z"/>
<path class="st0" d="M576.1,275.9H567c-8.1,0-14.6-6.6-14.6-14.6l0,0v-58.7c0-14.3-11-26.7-25.3-27.4c-14.7-0.7-27.2,10.6-28,25.3
	c0,0.4,0,0.9,0,1.3v74.1h-23.8v-73c0-27.4,21.5-50.6,48.9-51.5c27.9-0.8,51.1,21.1,51.9,49c0,0.5,0,0.9,0,1.4L576.1,275.9z"/>
<path class="st0" d="M700.5,275.9h-9.1c-8.1,0-14.6-6.6-14.6-14.6l0,0v-58.7c0-14.3-11-26.7-25.3-27.4c-14.7-0.7-27.2,10.6-28,25.3
	c0,0.4,0,0.9,0,1.3v74.1h-23.7v-73c0-27.4,21.5-50.6,48.9-51.5c27.9-0.8,51.1,21.1,51.9,49c0,0.5,0,0.9,0,1.4L700.5,275.9z"/>
<path class="st0" d="M400,175.1c-14.1,0-25.6,11.5-25.6,25.6v29.1c0,14.1,11.5,25.6,25.6,25.6h2c14.1,0,25.6-11.5,25.6-25.6v-29.1
	c0-14.1-11.5-25.6-25.6-25.6H400z M402,279.2h-2c-27.3,0-49.4-22.1-49.4-49.4v-29.1c0-27.3,22.1-49.4,49.4-49.4h2
	c27.3,0,49.4,22.1,49.4,49.4v29.1C451.4,257.1,429.3,279.1,402,279.2L402,279.2z"/>
<g>
	<path class="st0" d="M733.4,275.8h-9.1V154.7H748v106.5C748,269.3,741.5,275.8,733.4,275.8C733.4,275.8,733.4,275.8,733.4,275.8z"
		/>
</g>
<path class="st0" d="M318,154.6c-6.4,0-12.1,4.2-14,10.4l-25.8,84.3c-1.4,4.4-6.1,6.8-10.5,5.4c-0.6-0.2-1.1-0.4-1.6-0.7
	c-2.3-1.3-4.1-3.4-4.8-6l-25.5-83c-1.9-6.2-7.6-10.4-14-10.4h-14l30.7,100.1c3.6,11.8,13.2,21.1,25.3,23.4
	c16.2,3.4,32.3-6.2,37.1-22l31.1-101.6L318,154.6z"/>
</svg>
