<?xml version="1.0" encoding="utf-8"?>
<!-- Generator: Adobe Illustrator 26.0.0, SVG Export Plug-In . SVG Version: 6.00 Build 0)  -->
<svg version="1.1" id="Capa_1" xmlns="http://www.w3.org/2000/svg" xmlns:xlink="http://www.w3.org/1999/xlink" x="0px" y="0px"
	 viewBox="0 0 800 400" style="enable-background:new 0 0 800 400;" xml:space="preserve">
<style type="text/css">
	.st0{fill:#AAAAAA;}
</style>
<path class="st0" d="M53.8,128.3h42l-2.2,13.1H66.3l-2.2,12.5h25.1L87,167H61.9l-2.7,15.3h27.3l-2.2,13.1h-42L53.8,128.3z"/>
<path class="st0" d="M105.5,128.3h14.7l-9.8,54h26.7l-2.1,13.1H93.5L105.5,128.3z"/>
<path class="st0" d="M131.1,253.7l22.4-125.4h45.8c26.2,0,36.5,14.2,36.5,30c0.1,2.6-0.1,5.1-0.6,7.6l-9.8,54.5
	c-3.3,19.1-12,33.2-45.2,33.2L131.1,253.7z M211.3,167c0.4-1.8,0.6-3.6,0.5-5.5c0-8.2-4.4-12.5-18-12.5h-20.7l-15.3,84h22.4
	c16.4,0,20.7-6,22.9-19.1L211.3,167z"/>
<path class="st0" d="M258.2,128.3h23.4l-21.8,125.4h-23.4L258.2,128.3z"/>
<path class="st0" d="M318.1,160.4l-16.4,92.7h-22.9l21.8-125.4h28.9l31.1,95.4l16.9-95.4h22.3l-21.8,125.4h-29.4L318.1,160.4z"/>
<path class="st0" d="M473.5,227h-46.3l-12.5,26.7h-25.1l61.6-125.4h31.6l18.5,125.4h-24L473.5,227z M435.9,207.4h34.9l-6.5-60.5
	L435.9,207.4z"/>
<path class="st0" d="M621.8,173l-36,64.3h-25.6l-12-64.3l-18,80.7h-22.9l28.3-125.4h25.1l16.3,84.5l47.4-84.5h25.6l-15.8,125.4
	h-23.4L621.8,173z"/>
<path class="st0" d="M653.4,224.2c-0.1-2.7,0.1-5.5,0.5-8.2l9.3-52.3c4.4-24.5,18-37.6,52.9-37.6c28.3,0,42,14.7,42,33.2
	c0.1,2.2-0.1,4.4-0.5,6.5l-9.3,51.2c-4.4,25.6-17.5,38.1-54,38.1C665.9,255.3,653.4,242.8,653.4,224.2z M734,165.9
	c0-1.6,0.5-3.3,0.5-4.4c0-9.3-5.5-14.7-20.7-14.7c-16.9,0-25.1,6.5-27.3,19.1l-8.7,49.1c-0.4,2-0.6,4-0.5,6
	c0,8.7,4.9,13.6,21.3,13.6c16.9,0,25.1-7.1,27.3-19.6L734,165.9z"/>
<path class="st0" d="M263.1,109.2c9.3-5.4,15.3-9.3,25.1-15.8l7.6,13.6c-8.2,6-15.8,9.8-26.2,14.7L263.1,109.2z"/>
<path class="st0" d="M138.8,296.7l10.9-22.9h3.8l-14.2,27.2h-3.3l-5.4-27.2h4.4L138.8,296.7z"/>
<path class="st0" d="M180.2,289.1h-11.4l-1.6,9.8h13.6l-0.5,2.7h-16.9l4.9-27.3h16.9l-1.1,2.7h-13l-1.6,8.7h11.4L180.2,289.1z"/>
<path class="st0" d="M205.3,290.7h-6.5l-2.2,10.9h-3.8l4.9-27.3h8.2c2.7,0,4.9,0.5,6.5,2.2s2.2,3.3,2.2,6c0,1.6-0.5,3.2-1.6,4.4
	c-1.2,1.2-2.7,2.1-4.4,2.7l4.4,11.4h-3.8L205.3,290.7z M199.8,287.5h5.4c1.6,0,3.2-0.5,4.4-1.6c1.1-1.1,2.2-2.2,2.2-3.8
	s0-2.7-1.1-3.8c-1-1.1-2.4-1.7-3.8-1.6h-5.5L199.8,287.5z"/>
<path class="st0" d="M226.6,301.6l4.9-27.3h7.1c2.1,0,4.2,0.5,6,1.6c1.7,1.2,2.8,2.9,3.3,4.9c0.6,2.2,1.1,4.4,0.6,6.5v1.6
	c-0.5,3.7-2.2,7.2-4.9,9.8c-2.7,2.4-6.2,3.7-9.8,3.8h-7.1L226.6,301.6z M234.2,277.1l-3.8,21.8h3.3c2.5,0,4.8-1,6.5-2.7
	c2-1.9,3.3-4.4,3.8-7.1c0.4-2,0.6-4,0.6-6c0-2.2-1.1-3.3-2.2-4.4c-1.2-1.1-2.7-1.7-4.4-1.6L234.2,277.1z"/>
<path class="st0" d="M276.2,294.5h-10.9l-3.8,7.1h-3.8l14.7-27.3h3.3l5.5,27.3h-3.3L276.2,294.5z M266.9,291.3h9.3l-2.2-13.1
	L266.9,291.3z"/>
<path class="st0" d="M294.1,301.6l4.9-27.3h7.1c2.1,0,4.2,0.5,6,1.6c1.7,1.1,2.9,2.9,3.3,4.9c0.5,2.2,1.1,4.4,0.5,6.5v1.6
	c-0.5,3.7-2.2,7.2-4.9,9.8c-2.7,2.4-6.2,3.7-9.8,3.8h-7.1L294.1,301.6z M301.8,277.1l-3.8,21.8h3.3c2.5,0,4.8-1,6.5-2.7
	c2-1.9,3.3-4.4,3.8-7.1c0.4-2,0.6-4,0.5-6c0-2.2-1.1-3.3-2.2-4.4c-1.2-1.1-2.7-1.7-4.4-1.6L301.8,277.1z"/>
<path class="st0" d="M345.9,289.1h-11.4l-1.6,9.8h13.6l-0.5,2.7H329l4.9-27.3h16.9l-0.5,2.7h-13.1l-1.6,8.7H347L345.9,289.1z"/>
<path class="st0" d="M374.8,294.5c0.5-2.2-0.5-3.3-3.3-4.4l-3.3-1.1l-1.1-0.5c-3.8-1.6-5.5-3.8-4.9-7.1c0-1.5,0.6-2.8,1.6-3.8
	c1-1.2,2.3-2.1,3.8-2.7c1.6-0.6,3.2-1,4.9-1.1c1.5,0,3,0.4,4.4,1.1c1.2,0.6,2.1,1.6,2.7,2.7c0.7,1.4,1.1,2.8,1.1,4.4H377
	c0-1.6,0-3.3-1.1-3.8c-1-1.1-2.4-1.7-3.8-1.6c-1.5,0-3,0.4-4.4,1.1c-1.1,0.5-1.6,2.2-2.2,3.3c0,1.6,1.1,3.3,3.3,4.4l2.7,1.1l1.6,0.5
	c3.8,1.6,5.5,3.8,4.9,7.1c0,1.4-0.6,2.8-1.6,3.8c-1,1.2-2.3,2.1-3.8,2.7c-3.1,1.5-6.7,1.5-9.8,0c-1.4-0.4-2.6-1.4-3.3-2.7
	c-0.7-1.4-1.1-2.8-1.1-4.4h3.8c0,1.3,0.4,2.7,1.1,3.8c1.1,1.2,2.7,1.8,4.4,1.6c1.5,0,3-0.4,4.4-1.1
	C373.7,297.5,374.8,296.1,374.8,294.5z"/>
<path class="st0" d="M426.1,300l4.4,3.8l-2.7,2.2l-4.9-4.4c-1.1,0-1.6,0.5-2.7,0.5c-1.5,0-3-0.4-4.4-1.1c-1.2-1.2-2.3-2.4-3.3-3.8
	c-1.1-1.6-1.1-3.3-1.1-5.5c-0.1-1.8,0.1-3.7,0.5-5.5c0.4-2.1,1.1-4.1,2.2-6c1-1.7,2.3-3.2,3.8-4.4c2-1.5,4.5-2.3,7.1-2.2
	c1.5,0,3,0.4,4.4,1.1c1.1,0.5,2.2,2.2,3.3,3.8c0.7,1.7,1,3.6,1.1,5.5v4.9C432.1,294,429.9,297.8,426.1,300z M429.9,284.7
	c0-2-0.4-4.1-1.1-6c-0.5-1.6-2.2-2.2-4.4-2.2c-1.5,0-3,0.4-4.4,1.1c-3.2,3-5,7.1-4.9,11.5v1.1c-0.1,1.3,0.1,2.6,0.5,3.8
	c0.4,1,1,1.9,1.6,2.7c1,0.7,2.1,1.1,3.3,1.1c2.3,0.1,4.6-0.9,6-2.7c1.6-1.6,2.7-4.4,3.3-7.6C429.3,287.5,429.3,285.8,429.9,284.7z"
	/>
<path class="st0" d="M469.1,274.4l-3.3,18.5c-0.5,2.7-1.9,5.2-3.9,7.1c-2.1,1.8-4.8,2.8-7.6,2.7c-1.7-0.1-3.3-0.5-4.9-1.1
	c-1.3-0.7-2.3-1.9-2.7-3.3c-0.5-1.6-1.1-3.3-0.5-4.9l3.3-18.5h3.3l-2.7,18c0,2.2,0,3.3,1.1,4.4c1,1.1,2.4,1.7,3.8,1.6
	c1.8,0,3.5-0.5,4.9-1.6c1.3-1.4,2.3-3.1,2.7-4.9l3.3-18.5h3.3L469.1,274.4z"/>
<path class="st0" d="M496.9,289.1h-11.4l-1.6,9.8h13.6l-0.5,2.7H480l4.9-27.3h16.9l-1.6,2.7h-13l-1.6,8.7h11.5V289.1z"/>
<path class="st0" d="M538.4,274.4l4.9,22.4l12.5-22.4h4.9l-4.9,27.3h-3.3l1.6-10.9l2.2-10.9l-12.5,21.8h-2.7l-4.9-22.4l-1.6,12
	l-1.6,10.4h-3.8l4.9-27.3H538.4z"/>
<path class="st0" d="M595,274.4l-3.3,18.5c-0.5,2.7-1.8,5.2-3.8,7.1c-2.1,1.8-4.8,2.8-7.6,2.7c-1.7-0.1-3.3-0.5-4.9-1.1
	c-1.3-0.7-2.3-1.9-2.7-3.3c-0.5-1.6-1.1-3.3-0.5-4.9l3.3-18.5h3.3l-2.7,18c0,2.2,0,3.3,1.1,4.4c1,1.1,2.4,1.7,3.8,1.6
	c1.8,0,3.5-0.5,4.9-1.6c1.3-1.4,2.3-3.1,2.7-4.9l3.3-18.5h3.3L595,274.4z"/>
<path class="st0" d="M622.8,289.1h-11.4l-1.6,9.8h13.6l-0.5,2.7H606l4.9-27.3h16.9l-0.5,2.7h-13.1l-1.6,8.7h11.5L622.8,289.1z"/>
<path class="st0" d="M646.3,296.7l10.9-22.9h3.8l-14.2,27.2h-3.3l-5.5-27.2h3.8L646.3,296.7z"/>
<path class="st0" d="M687.2,289.1h-11.4l-1.6,9.8h13.6l-0.5,2.7h-16.9l4.9-27.3h16.9l-0.5,2.7h-13.1l-1.6,8.7h11.4L687.2,289.1z"/>
<path class="st0" d="M721,301.6h-3.3l-9.8-21.3l-3.8,21.3h-3.8l4.9-27.3h3.3l9.8,21.3l3.8-21.3h3.3L721,301.6z"/>
</svg>
