<?xml version="1.0" encoding="utf-8"?>
<!-- Generator: Adobe Illustrator 25.4.1, SVG Export Plug-In . SVG Version: 6.00 Build 0)  -->
<svg version="1.1" id="Layer_1" xmlns="http://www.w3.org/2000/svg" xmlns:xlink="http://www.w3.org/1999/xlink" x="0px" y="0px"
	 viewBox="0 0 135 40" style="enable-background:new 0 0 135 40;" xml:space="preserve">
<style type="text/css">
	.st0{fill:#3D3D3D;}
	.st1{fill:#FFE000;}
	.st2{fill:#4D4D4D;}
</style>
<g>
	<g>
		<path class="st0" d="M3.1,6.8h7.7l-0.4,2.4h-5L5,11.5h4.6l-0.4,2.4H4.6l-0.5,2.8h5l-0.4,2.4H1L3.1,6.8z"/>
		<path class="st0" d="M12.6,6.8h2.7l-1.8,9.9h4.9l-0.4,2.4h-7.6L12.6,6.8z"/>
	</g>
	<path class="st0" d="M17.3,29.8l4.1-23h8.4c4.8,0,6.7,2.6,6.7,5.5c0,0.5,0,0.9-0.1,1.4l-1.8,10c-0.6,3.5-2.2,6.1-8.3,6.1H17.3z
		 M32,13.9c0.1-0.4,0.1-0.8,0.1-1c0-1.5-0.8-2.3-3.3-2.3H25L22.2,26h4.1c3,0,3.8-1.1,4.2-3.5L32,13.9z"/>
	<path class="st0" d="M40.6,6.8h4.3l-4,23h-4.3L40.6,6.8z"/>
	<path class="st0" d="M51.6,12.7l-3,17h-4.2l4-23h5.3l5.7,17.5l3.1-17.5h4.1l-4,23h-5.4L51.6,12.7z"/>
	<path class="st0" d="M80.1,24.9h-8.5l-2.3,4.9h-4.6l11.3-23h5.8l3.4,23h-4.4L80.1,24.9z M73.2,21.3h6.4l-1.2-11.1L73.2,21.3z"/>
	<path class="st0" d="M107.3,15l-6.6,11.8H96L93.8,15l-3.3,14.8h-4.2l5.2-23h4.6l3,15.5l8.7-15.5h4.7l-2.9,23h-4.3L107.3,15z"/>
	<path class="st0" d="M113.1,24.4c0-0.5,0-1,0.1-1.5l1.7-9.6c0.8-4.5,3.3-6.9,9.7-6.9c5.2,0,7.7,2.7,7.7,6.1c0,0.4,0,0.8-0.1,1.2
		l-1.7,9.4c-0.8,4.7-3.2,7-9.9,7C115.4,30.1,113.1,27.8,113.1,24.4z M127.9,13.7c0-0.3,0.1-0.6,0.1-0.8c0-1.7-1-2.7-3.8-2.7
		c-3.1,0-4.6,1.2-5,3.5l-1.6,9c-0.1,0.4-0.1,0.8-0.1,1.1c0,1.6,0.9,2.5,3.9,2.5c3.1,0,4.6-1.3,5-3.6L127.9,13.7z"/>
	<path class="st1" d="M41.5,3.3c1.7-1,2.8-1.7,4.6-2.9l1.4,2.5C46,4,44.6,4.7,42.7,5.6L41.5,3.3z"/>
</g>
<g>
	<path class="st2" d="M18.7,37.7l2-4.2h0.7l-2.6,5h-0.6l-1-5H18L18.7,37.7z"/>
	<path class="st2" d="M26.3,36.3h-2.1l-0.3,1.8h2.5l-0.1,0.5h-3.1l0.9-5h3.1L27,34.1h-2.4l-0.3,1.6h2.1L26.3,36.3z"/>
	<path class="st2" d="M30.9,36.6h-1.2l-0.4,2h-0.7l0.9-5l1.5,0c0.5,0,0.9,0.1,1.2,0.4c0.3,0.3,0.4,0.6,0.4,1.1
		c0,0.3-0.1,0.6-0.3,0.8c-0.2,0.2-0.5,0.4-0.8,0.5l0.8,2.1l0,0h-0.7L30.9,36.6z M29.9,36l1,0c0.3,0,0.6-0.1,0.8-0.3
		c0.2-0.2,0.4-0.4,0.4-0.7c0-0.3,0-0.5-0.2-0.7c-0.2-0.2-0.4-0.3-0.7-0.3l-1,0L29.9,36z"/>
	<path class="st2" d="M34.8,38.6l0.9-5l1.3,0c0.4,0,0.8,0.1,1.1,0.3c0.3,0.2,0.5,0.5,0.6,0.9s0.2,0.8,0.1,1.2l0,0.3
		c-0.1,0.7-0.4,1.3-0.9,1.8c-0.5,0.4-1.1,0.7-1.8,0.7H34.8z M36.2,34.1l-0.7,4l0.6,0c0.5,0,0.9-0.2,1.2-0.5c0.3-0.3,0.6-0.7,0.7-1.3
		c0.1-0.4,0.1-0.8,0.1-1.1c0-0.4-0.2-0.6-0.4-0.8s-0.5-0.3-0.8-0.3L36.2,34.1z"/>
	<path class="st2" d="M43.9,37.3h-2l-0.7,1.3h-0.7l2.7-5h0.6l1,5h-0.6L43.9,37.3z M42.2,36.7h1.7l-0.4-2.4L42.2,36.7z"/>
	<path class="st2" d="M47.2,38.6l0.9-5l1.3,0c0.4,0,0.8,0.1,1.1,0.3c0.3,0.2,0.5,0.5,0.6,0.9s0.2,0.8,0.1,1.2l0,0.3
		c-0.1,0.7-0.4,1.3-0.9,1.8c-0.5,0.4-1.1,0.7-1.8,0.7H47.2z M48.6,34.1l-0.7,4l0.6,0c0.5,0,0.9-0.2,1.2-0.5c0.3-0.3,0.6-0.7,0.7-1.3
		c0.1-0.4,0.1-0.8,0.1-1.1c0-0.4-0.2-0.6-0.4-0.8s-0.5-0.3-0.8-0.3L48.6,34.1z"/>
	<path class="st2" d="M56.7,36.3h-2.1l-0.3,1.8h2.5l-0.1,0.5h-3.1l0.9-5h3.1l-0.1,0.5h-2.4l-0.3,1.6h2.1L56.7,36.3z"/>
	<path class="st2" d="M62,37.3c0.1-0.4-0.1-0.6-0.6-0.8l-0.6-0.2l-0.2-0.1c-0.7-0.3-1-0.7-0.9-1.3c0-0.3,0.1-0.5,0.3-0.7
		c0.2-0.2,0.4-0.4,0.7-0.5c0.3-0.1,0.6-0.2,0.9-0.2c0.3,0,0.6,0.1,0.8,0.2c0.2,0.1,0.4,0.3,0.5,0.5c0.1,0.2,0.2,0.5,0.2,0.8l-0.7,0
		c0-0.3,0-0.6-0.2-0.7C62,34.1,61.8,34,61.5,34c-0.3,0-0.6,0.1-0.8,0.2s-0.3,0.4-0.4,0.6c0,0.3,0.2,0.6,0.6,0.8l0.5,0.2l0.3,0.1
		c0.7,0.3,1,0.7,0.9,1.3c0,0.3-0.1,0.5-0.3,0.7c-0.2,0.2-0.4,0.4-0.7,0.5c-0.3,0.1-0.6,0.2-0.9,0.2c-0.3,0-0.6-0.1-0.9-0.2
		s-0.5-0.3-0.6-0.5c-0.1-0.2-0.2-0.5-0.2-0.8l0.7,0c0,0.3,0.1,0.5,0.2,0.7c0.2,0.2,0.4,0.3,0.8,0.3c0.3,0,0.6-0.1,0.8-0.2
		C61.8,37.8,62,37.6,62,37.3z"/>
	<path class="st2" d="M71.4,38.3l0.8,0.7l-0.5,0.4l-0.9-0.8c-0.2,0-0.3,0.1-0.5,0.1c-0.3,0-0.6-0.1-0.8-0.2
		c-0.2-0.2-0.4-0.4-0.6-0.7s-0.2-0.6-0.2-1c0-0.3,0-0.6,0.1-1c0.1-0.4,0.2-0.8,0.4-1.1c0.2-0.3,0.4-0.6,0.7-0.8
		c0.4-0.3,0.8-0.4,1.3-0.4c0.3,0,0.6,0.1,0.8,0.2s0.4,0.4,0.6,0.7c0.1,0.3,0.2,0.6,0.2,1c0,0.2,0,0.4,0,0.6l0,0.3
		C72.5,37.2,72.1,37.9,71.4,38.3z M72.1,35.5c0-0.5-0.1-0.8-0.2-1.1s-0.4-0.4-0.8-0.4c-0.3,0-0.6,0.1-0.8,0.2
		c-0.2,0.2-0.4,0.4-0.6,0.8s-0.3,0.8-0.3,1.3l0,0.2c0,0.3,0,0.5,0.1,0.7c0.1,0.2,0.2,0.4,0.3,0.5c0.2,0.1,0.3,0.2,0.6,0.2
		c0.4,0,0.8-0.1,1.1-0.5c0.3-0.3,0.5-0.8,0.6-1.4C72,36,72,35.7,72.1,35.5z"/>
	<path class="st2" d="M79.3,33.6L78.7,37c-0.1,0.5-0.3,0.9-0.7,1.3c-0.4,0.3-0.8,0.5-1.4,0.5c-0.3,0-0.6-0.1-0.9-0.2
		c-0.2-0.1-0.4-0.3-0.5-0.6s-0.2-0.6-0.1-0.9l0.6-3.4h0.6L75.8,37c0,0.4,0,0.6,0.2,0.8s0.4,0.3,0.7,0.3c0.4,0,0.6-0.1,0.9-0.3
		c0.2-0.2,0.4-0.5,0.5-0.9l0.6-3.4H79.3z"/>
	<path class="st2" d="M84.4,36.3h-2.1l-0.3,1.8h2.5l-0.1,0.5h-3.1l0.9-5h3.1L85,34.1h-2.4l-0.3,1.6h2.1L84.4,36.3z"/>
	<path class="st2" d="M92,33.6l0.9,4.1l2.3-4.1h0.9l-0.9,5h-0.6l0.3-2l0.4-2l-2.3,4h-0.5l-0.9-4.1l-0.3,2.2L91,38.6h-0.7l0.9-5H92z"
		/>
	<path class="st2" d="M102.4,33.6l-0.6,3.4c-0.1,0.5-0.3,0.9-0.7,1.3c-0.4,0.3-0.8,0.5-1.4,0.5c-0.3,0-0.6-0.1-0.9-0.2
		c-0.2-0.1-0.4-0.3-0.5-0.6s-0.2-0.6-0.1-0.9l0.6-3.4h0.6L98.9,37c0,0.4,0,0.6,0.2,0.8s0.4,0.3,0.7,0.3c0.4,0,0.6-0.1,0.9-0.3
		c0.2-0.2,0.4-0.5,0.5-0.9l0.6-3.4H102.4z"/>
	<path class="st2" d="M107.5,36.3h-2.1l-0.3,1.8h2.5l-0.1,0.5h-3.1l0.9-5h3.1l-0.1,0.5h-2.4l-0.3,1.6h2.1L107.5,36.3z"/>
	<path class="st2" d="M111.8,37.7l2-4.2h0.7l-2.6,5h-0.6l-1-5h0.7L111.8,37.7z"/>
	<path class="st2" d="M119.3,36.3h-2.1l-0.3,1.8h2.5l-0.1,0.5h-3.1l0.9-5h3.1l-0.1,0.5h-2.4l-0.3,1.6h2.1L119.3,36.3z"/>
	<path class="st2" d="M125.5,38.6h-0.6l-1.8-3.9l-0.7,3.9h-0.7l0.9-5h0.6l1.8,3.9l0.7-3.9h0.6L125.5,38.6z"/>
</g>
</svg>
