<svg id="Capa_1" data-name="Capa 1" xmlns="http://www.w3.org/2000/svg" viewBox="0 0 800 400"><defs><style>.cls-1{fill:#ccc;}</style></defs><path class="cls-1" d="M53.75,128.29h42l-2.18,13.08H66.29l-2.18,12.54H89.18L87,167H61.92L59.2,182.26H86.46l-2.19,13.08h-42Z"/><path class="cls-1" d="M105.53,128.29h14.72l-9.81,54h26.71L135,195.34H93.54Z"/><path class="cls-1" d="M131.15,253.67,153.5,128.29h45.79c26.17,0,36.53,14.17,36.53,30a35.61,35.61,0,0,1-.55,7.63l-9.81,54.52c-3.27,19.08-12,33.25-45.24,33.25ZM211.29,167a22.89,22.89,0,0,0,.54-5.46c0-8.17-4.36-12.53-18-12.53H173.13L157.87,233h22.35c16.35,0,20.71-6,22.89-19.07Z"/><path class="cls-1" d="M258.17,128.29h23.44L259.8,253.67H236.36Z"/><path class="cls-1" d="M318.13,160.45l-16.35,92.67h-22.9l21.81-125.37h28.89l31.07,95.39,16.9-95.39H399.9L378.09,253.12H348.66Z"/><path class="cls-1" d="M473.49,227H427.15l-12.53,26.71H389.54l61.6-125.38h31.62l18.53,125.38h-24Zm-37.61-19.63h34.88l-6.54-60.5Z"/><path class="cls-1" d="M621.76,173l-36,64.33H560.16l-12-64.33-18,80.68H507.29l28.34-125.38h25.08l16.35,84.49,47.43-84.49h25.62L634.3,253.67H610.86Z"/><path class="cls-1" d="M653.38,224.23a41.57,41.57,0,0,1,.54-8.17l9.27-52.34c4.36-24.53,18-37.61,52.88-37.61,28.34,0,42,14.72,42,33.25a26.3,26.3,0,0,1-.55,6.54l-9.26,51.25c-4.36,25.62-17.45,38.15-54,38.15C665.91,255.3,653.38,242.77,653.38,224.23Zm80.67-58.33c0-1.63.55-3.27.55-4.36,0-9.26-5.45-14.71-20.71-14.71-16.9,0-25.08,6.54-27.26,19.07L677.91,215a24.21,24.21,0,0,0-.55,6c0,8.72,4.91,13.63,21.26,13.63,16.9,0,25.08-7.09,27.26-19.62Z"/><path class="cls-1" d="M263.07,109.21c9.27-5.45,15.27-9.26,25.08-15.81L295.78,107c-8.18,6-15.81,9.81-26.17,14.72Z"/><path class="cls-1" d="M138.79,296.73l10.9-22.89h3.81l-14.17,27.25h-3.27l-5.45-27.25H135Z"/><path class="cls-1" d="M180.22,289.1H168.77l-1.64,9.81h13.63l-.54,2.73h-16.9l4.9-27.26h16.9L184,277.11H171l-1.64,8.72h11.45Z"/><path class="cls-1" d="M205.29,290.74h-6.54l-2.18,10.9h-3.82l4.91-27.26h8.18c2.72,0,4.9.55,6.54,2.18s2.18,3.27,2.18,6a6.18,6.18,0,0,1-1.64,4.36,11.9,11.9,0,0,1-4.36,2.73l4.36,11.44h-3.81Zm-5.45-3.27h5.45a6.18,6.18,0,0,0,4.36-1.64c1.09-1.09,2.18-2.18,2.18-3.82s0-2.72-1.09-3.81a5,5,0,0,0-3.81-1.64h-5.46Z"/><path class="cls-1" d="M226.55,301.64l4.91-27.26h7.08a11,11,0,0,1,6,1.64,8,8,0,0,1,3.27,4.9c.55,2.19,1.09,4.37.55,6.55v1.63a16.94,16.94,0,0,1-4.91,9.81,15.7,15.7,0,0,1-9.81,3.82h-7.09Zm7.63-24.53-3.81,21.8h3.27a9.06,9.06,0,0,0,6.54-2.72A12.71,12.71,0,0,0,244,289.1a24.21,24.21,0,0,0,.55-6c0-2.19-1.09-3.28-2.18-4.37a6.19,6.19,0,0,0-4.36-1.63Z"/><path class="cls-1" d="M276.16,294.55H265.25l-3.81,7.09h-3.82l14.72-27.26h3.27l5.45,27.26h-3.27Zm-9.27-3.27h9.27L274,278.2Z"/><path class="cls-1" d="M294.14,301.64l4.91-27.26h7.09a11,11,0,0,1,6,1.64,7.89,7.89,0,0,1,3.27,4.9c.55,2.19,1.09,4.37.55,6.55v1.63a16.89,16.89,0,0,1-4.91,9.81,15.65,15.65,0,0,1-9.81,3.82h-7.09Zm7.64-24.53L298,298.91h3.27a9,9,0,0,0,6.54-2.72,12.72,12.72,0,0,0,3.82-7.09,24.64,24.64,0,0,0,.54-6c0-2.19-1.09-3.28-2.18-4.37a6.18,6.18,0,0,0-4.36-1.63Z"/><path class="cls-1" d="M345.93,289.1H334.48l-1.63,9.81h13.63l-.55,2.73H329l4.91-27.26h16.9l-.55,2.73H337.21l-1.64,8.72H347Z"/><path class="cls-1" d="M374.82,294.55c.55-2.18-.54-3.27-3.27-4.36l-3.27-1.09-1.09-.54c-3.82-1.64-5.45-3.82-4.91-7.09a5,5,0,0,1,1.64-3.82,9.7,9.7,0,0,1,3.82-2.72,15.74,15.74,0,0,1,4.9-1.09,10.18,10.18,0,0,1,4.36,1.09,6.57,6.57,0,0,1,2.73,2.72,10.36,10.36,0,0,1,1.09,4.36H377c0-1.63,0-3.27-1.09-3.81a5,5,0,0,0-3.81-1.64,10.32,10.32,0,0,0-4.36,1.09c-1.09.55-1.64,2.18-2.18,3.27,0,1.64,1.09,3.28,3.27,4.37l2.72,1.09,1.64.54c3.81,1.64,5.45,3.82,4.9,7.09a4.94,4.94,0,0,1-1.63,3.81,9.82,9.82,0,0,1-3.82,2.73,11.58,11.58,0,0,1-9.81,0,5.57,5.57,0,0,1-3.27-2.73,10.18,10.18,0,0,1-1.09-4.36h3.81a7.94,7.94,0,0,0,1.09,3.82,5.4,5.4,0,0,0,4.37,1.63,10.21,10.21,0,0,0,4.36-1.09A3.45,3.45,0,0,0,374.82,294.55Z"/><path class="cls-1" d="M426.06,300l4.36,3.82L427.7,306l-4.91-4.36c-1.09,0-1.63.54-2.72.54a10.18,10.18,0,0,1-4.36-1.09,23.87,23.87,0,0,1-3.27-3.81c-1.09-1.64-1.09-3.27-1.09-5.45a20.61,20.61,0,0,1,.54-5.45,19.64,19.64,0,0,1,2.18-6,14.58,14.58,0,0,1,3.82-4.36,10.92,10.92,0,0,1,7.08-2.18,10.18,10.18,0,0,1,4.36,1.09c1.09.54,2.18,2.18,3.27,3.81a16,16,0,0,1,1.09,5.46v4.9C432.06,294,429.88,297.82,426.06,300Zm3.82-15.26a17,17,0,0,0-1.09-6c-.55-1.63-2.18-2.18-4.36-2.18a10.32,10.32,0,0,0-4.36,1.09,15.41,15.41,0,0,0-4.91,11.45v1.09a8,8,0,0,0,.55,3.82,11.76,11.76,0,0,0,1.63,2.72,5.82,5.82,0,0,0,3.27,1.09,7,7,0,0,0,6-2.72c1.63-1.64,2.72-4.36,3.27-7.63C429.33,287.47,429.33,285.83,429.88,284.74Z"/><path class="cls-1" d="M469.13,274.38l-3.27,18.54A13.07,13.07,0,0,1,462,300a11.79,11.79,0,0,1-7.63,2.73,16.09,16.09,0,0,1-4.91-1.09,5.59,5.59,0,0,1-2.72-3.27c-.55-1.64-1.09-3.27-.55-4.91l3.27-18.53h3.27l-2.72,18c0,2.18,0,3.27,1.09,4.36a4.94,4.94,0,0,0,3.81,1.63,7.61,7.61,0,0,0,4.91-1.63,10.6,10.6,0,0,0,2.73-4.91l3.27-18.53h3.27Z"/><path class="cls-1" d="M496.93,289.1H485.48l-1.63,9.81h13.62l-.54,2.73H480l4.91-27.26h16.89l-1.63,2.73H487.12l-1.64,8.72h11.45Z"/><path class="cls-1" d="M538.36,274.38l4.9,22.35,12.54-22.35h4.91l-4.91,27.26h-3.27l1.64-10.9,2.18-10.91-12.54,21.81h-2.73l-4.9-22.35-1.64,12-1.63,10.36h-3.82L534,274.38Z"/><path class="cls-1" d="M595.05,274.38l-3.27,18.54A13.07,13.07,0,0,1,588,300a11.79,11.79,0,0,1-7.63,2.73,16,16,0,0,1-4.9-1.09,5.6,5.6,0,0,1-2.73-3.27c-.55-1.64-1.09-3.27-.55-4.91l3.28-18.53h3.27l-2.73,18c0,2.18,0,3.27,1.09,4.36a5,5,0,0,0,3.82,1.63,7.58,7.58,0,0,0,4.9-1.63,10.6,10.6,0,0,0,2.73-4.91l3.27-18.53h3.27Z"/><path class="cls-1" d="M622.85,289.1H611.4l-1.63,9.81H623.4l-.55,2.73H606l4.91-27.26h16.9l-.55,2.73H614.13l-1.64,8.72h11.45Z"/><path class="cls-1" d="M646.29,296.73l10.9-22.89H661l-14.17,27.25h-3.27l-5.46-27.25h3.82Z"/><path class="cls-1" d="M687.17,289.1H675.73l-1.64,9.81h13.63l-.55,2.73H670.28l4.9-27.26h16.9l-.54,2.73H678.45l-1.63,8.72h11.44Z"/><path class="cls-1" d="M721,301.64H717.7l-9.81-21.26-3.82,21.26h-3.81l4.9-27.26h3.27l9.82,21.26,3.81-21.26h3.27Z"/></svg>