<?xml version="1.0" encoding="utf-8"?>
<!-- Generator: Adobe Illustrator 26.0.0, SVG Export Plug-In . SVG Version: 6.00 Build 0)  -->
<svg version="1.1" id="Capa_1" xmlns="http://www.w3.org/2000/svg" xmlns:xlink="http://www.w3.org/1999/xlink" x="0px" y="0px"
	 viewBox="0 0 800 400" style="enable-background:new 0 0 800 400;" xml:space="preserve">
<style type="text/css">
	.st0{fill:#AAAAAA;}
	.st1{clip-path:url(#SVGID_00000117645987988848453870000017778728082856569017_);}
	.st2{clip-path:url(#SVGID_00000066515295239057489580000007851272287729976481_);}
	.st3{clip-path:url(#SVGID_00000100353246808528158050000001234158524815879319_);}
	.st4{clip-path:url(#SVGID_00000145046923208976476940000013623436293918506900_);}
	.st5{clip-path:url(#SVGID_00000145023804819268109750000008552839222830029503_);}
	.st6{clip-path:url(#SVGID_00000065074109313918751590000011379638303073758866_);}
	.st7{clip-path:url(#SVGID_00000149383757652518845090000010689467760219301518_);}
	.st8{clip-path:url(#SVGID_00000018218752279301823860000018100008779477852296_);}
	.st9{clip-path:url(#SVGID_00000173861505665676226350000011650399545559390114_);}
	.st10{clip-path:url(#SVGID_00000096057303041813880320000011719545859724045453_);}
	.st11{fill-rule:evenodd;clip-rule:evenodd;fill:#AAAAAA;}
	.st12{fill:#AAAAAA;stroke:#CAC7C7;stroke-miterlimit:10;}
</style>
<path class="st0" d="M181.8,176.9h-29.2v8c0,5.9,0.9,10.3,2.8,13s4.8,4,8.9,4c3.9,0,7.7-1.5,10.5-4.2c3-2.8,5.1-6.8,6.5-11.8h1.7
	c-0.8,5.3-3.4,10.1-7.2,13.7c-3.7,3.4-8.3,4.9-13.7,4.9c-7.2,0-13.3-2.3-18.1-7.1s-7-10.8-7-18.2c-0.1-6.6,2.4-12.9,7-17.6
	c4.3-4.7,10.4-7.4,16.7-7.4c5.7-0.1,11.2,2.2,15,6.4C179.5,164.7,181.6,170.3,181.8,176.9 M166.2,175.2v-7.9c0-4.6-0.4-7.6-1.6-9.1
	s-2.8-2.4-5.5-2.4c-2.5,0-4.2,0.9-5.2,2.6s-1.4,5-1.4,9.9v6.9L166.2,175.2z"/>
<path class="st0" d="M193,129h-5.9v-1.7h8.8c2.3,0,4.7-0.1,7-0.3c1.7-0.2,3.3-0.5,4.9-1v75.2h6.6v1.7h-28.1v-1.7h6.6V129"/>
<path id="SVGID" class="st0" d="M217.6,203v-1.7h8.9V129h-8.9v-1.7h59.9v20.8h-1.5c-0.8-6.9-2.8-11.8-6-14.7
	c-3.2-2.9-8.7-4.4-16.1-4.4h-10.5v33.1h6.2c3.3,0.2,6.4-1.2,8.5-3.8c2-2.6,3-6.1,3-10.7v-1h1.7v32.8h-1.7v-1c0-4.6-1-8.2-3-10.7
	c-2-2.6-4.8-3.8-8.5-3.8h-6.2v37.5h10.9c8.8,0,15.1-1.8,18.9-5.2s5.8-9.3,5.9-17.3h1.7v24.3h-63.3"/>
<path class="st0" d="M217.6,203v-1.7h8.9V129h-8.9v-1.7h59.9v20.8h-1.5c-0.8-6.9-2.8-11.8-6-14.7c-3.2-2.9-8.7-4.4-16.1-4.4h-10.5
	v33.1h6.2c3.3,0.2,6.4-1.2,8.5-3.8c2-2.6,3-6.1,3-10.7v-1h1.7v32.8h-1.7v-1c0-4.6-1-8.2-3-10.7c-2-2.6-4.8-3.8-8.5-3.8h-6.2v37.5
	h10.9c8.8,0,15.1-1.8,18.9-5.2s5.8-9.3,5.9-17.3h1.7v24.3h-63.3"/>
<g>
	<defs>
		<path id="SVGID_1_" d="M217.6,203v-1.7h8.9V129h-8.9v-1.7h59.9v20.8h-1.5c-0.8-6.9-2.8-11.8-6-14.7c-3.2-2.9-8.7-4.4-16.1-4.4
			h-10.5v33.1h6.2c3.3,0.2,6.4-1.2,8.5-3.8c2-2.6,3-6.1,3-10.7v-1h1.7v32.8h-1.7v-1c0-4.6-1-8.2-3-10.7c-2-2.6-4.8-3.8-8.5-3.8h-6.2
			v37.5h10.9c8.8,0,15.1-1.8,18.9-5.2s5.8-9.3,5.9-17.3h1.7v24.3h-63.3"/>
	</defs>
	<use xlink:href="#SVGID_1_"  style="overflow:visible;fill:#AAAAAA;"/>
	<clipPath id="SVGID_00000097502268232443267440000005295101956964411013_">
		<use xlink:href="#SVGID_1_"  style="overflow:visible;"/>
	</clipPath>
	<g style="clip-path:url(#SVGID_00000097502268232443267440000005295101956964411013_);">
		<rect x="217.6" y="127.3" class="st0" width="63.2" height="75.7"/>
	</g>
</g>
<path id="SVGID-2" class="st0" d="M332,188h1.7c-1,5.2-3.1,9.4-6.6,12.2s-7.8,4.2-13.3,4.2c-7.4,0-13.5-2.3-18.4-7.1
	c-7.4-7.3-9.5-18.6-5-28c1.7-3.4,4.1-6.4,7-8.8c2.4-2,5.2-3.6,8.1-4.7c2.9-1.1,5.9-1.7,9-1.7c5.5,0,9.9,1.2,13.3,3.6
	c3.2,2,5,5.5,5,9.3c0.1,1.9-0.6,3.8-1.9,5.1c-1.4,1.3-3.3,1.9-5.2,1.8c-2,0.1-3.9-0.6-5.4-1.9c-1.4-1.4-2.1-3.3-2-5.2
	c0-1.8,0.7-3.5,1.9-4.8c0.7-0.8,1.3-1.6,1.9-2.5c0-1-0.7-1.9-2-2.6c-1.7-0.7-3.5-1.1-5.4-1c-3.9,0-6.7,1.2-8.3,3.8s-2.4,7-2.4,13.7
	v10.4c0,7,0.9,11.8,2.6,14.6s4.7,4.1,8.9,4.1c3.8,0.1,7.5-1.3,10.4-3.9C329,195.7,331.1,192.1,332,188"/>
<path class="st0" d="M332,188h1.7c-1,5.2-3.1,9.4-6.6,12.2s-7.8,4.2-13.3,4.2c-7.4,0-13.5-2.3-18.4-7.1c-7.4-7.3-9.5-18.6-5-28
	c1.7-3.4,4.1-6.4,7-8.8c2.4-2,5.2-3.6,8.1-4.7c2.9-1.1,5.9-1.7,9-1.7c5.5,0,9.9,1.2,13.3,3.6c3.2,2,5,5.5,5,9.3
	c0.1,1.9-0.6,3.8-1.9,5.1c-1.4,1.3-3.3,1.9-5.2,1.8c-2,0.1-3.9-0.6-5.4-1.9c-1.4-1.4-2.1-3.3-2-5.2c0-1.8,0.7-3.5,1.9-4.8
	c0.7-0.8,1.3-1.6,1.9-2.5c0-1-0.7-1.9-2-2.6c-1.7-0.7-3.5-1.1-5.4-1c-3.9,0-6.7,1.2-8.3,3.8s-2.4,7-2.4,13.7v10.4
	c0,7,0.9,11.8,2.6,14.6s4.7,4.1,8.9,4.1c3.8,0.1,7.5-1.3,10.4-3.9C329,195.7,331.1,192.1,332,188"/>
<g>
	<defs>
		<path id="SVGID_00000006696239671175313550000011106370422547087800_" d="M332,188h1.7c-1,5.2-3.1,9.4-6.6,12.2s-7.8,4.2-13.3,4.2
			c-7.4,0-13.5-2.3-18.4-7.1c-7.4-7.3-9.5-18.6-5-28c1.7-3.4,4.1-6.4,7-8.8c2.4-2,5.2-3.6,8.1-4.7c2.9-1.1,5.9-1.7,9-1.7
			c5.5,0,9.9,1.2,13.3,3.6c3.2,2,5,5.5,5,9.3c0.1,1.9-0.6,3.8-1.9,5.1c-1.4,1.3-3.3,1.9-5.2,1.8c-2,0.1-3.9-0.6-5.4-1.9
			c-1.4-1.4-2.1-3.3-2-5.2c0-1.8,0.7-3.5,1.9-4.8c0.7-0.8,1.3-1.6,1.9-2.5c0-1-0.7-1.9-2-2.6c-1.7-0.7-3.5-1.1-5.4-1
			c-3.9,0-6.7,1.2-8.3,3.8s-2.4,7-2.4,13.7v10.4c0,7,0.9,11.8,2.6,14.6s4.7,4.1,8.9,4.1c3.8,0.1,7.5-1.3,10.4-3.9
			C329,195.7,331.1,192.1,332,188"/>
	</defs>
	<use xlink:href="#SVGID_00000006696239671175313550000011106370422547087800_"  style="overflow:visible;fill:#AAAAAA;"/>
	<clipPath id="SVGID_00000127040219277357458700000000584296460045245597_">
		<use xlink:href="#SVGID_00000006696239671175313550000011106370422547087800_"  style="overflow:visible;"/>
	</clipPath>
	<g style="clip-path:url(#SVGID_00000127040219277357458700000000584296460045245597_);">
		<rect x="288" y="154.1" class="st0" width="45.8" height="50.3"/>
	</g>
</g>
<path id="SVGID-3" class="st0" d="M338.4,179.3c0-3.4,0.7-6.7,2.1-9.7c1.5-3.2,3.6-6.1,6.1-8.5c4.7-4.5,11.1-7.1,17.6-7
	c3.2-0.1,6.5,0.6,9.5,1.8c3,1.2,5.7,3,8,5.2c2.6,2.4,4.6,5.3,6.1,8.5c1.4,3,2.1,6.4,2.1,9.7c0,3.3-0.7,6.6-2.1,9.6
	c-1.5,3.2-3.6,6-6.1,8.5c-2.3,2.3-5,4-8,5.2c-3,1.2-6.2,1.8-9.5,1.8c-6.8,0.1-13.4-2.6-18.3-7.4
	C341.1,192.5,338.3,186.1,338.4,179.3 M373.9,185.6V173c0-6.8-0.7-11.4-2.1-13.7s-3.9-3.5-7.6-3.5s-6.2,1.1-7.6,3.5
	s-2.1,6.8-2.1,13.7v12.6c0,6.8,0.7,11.4,2.1,13.7s3.9,3.5,7.6,3.5s6.1-1.1,7.6-3.5S373.9,192.4,373.9,185.6L373.9,185.6z"/>
<path class="st0" d="M338.4,179.3c0-3.4,0.7-6.7,2.1-9.7c1.5-3.2,3.6-6.1,6.1-8.5c4.7-4.5,11.1-7.1,17.6-7c3.2-0.1,6.5,0.6,9.5,1.8
	c3,1.2,5.7,3,8,5.2c2.6,2.4,4.6,5.3,6.1,8.5c1.4,3,2.1,6.4,2.1,9.7c0,3.3-0.7,6.6-2.1,9.6c-1.5,3.2-3.6,6-6.1,8.5
	c-2.3,2.3-5,4-8,5.2c-3,1.2-6.2,1.8-9.5,1.8c-6.8,0.1-13.4-2.6-18.3-7.4C341.1,192.5,338.3,186.1,338.4,179.3 M373.9,185.6V173
	c0-6.8-0.7-11.4-2.1-13.7s-3.9-3.5-7.6-3.5s-6.2,1.1-7.6,3.5s-2.1,6.8-2.1,13.7v12.6c0,6.8,0.7,11.4,2.1,13.7s3.9,3.5,7.6,3.5
	s6.1-1.1,7.6-3.5S373.9,192.4,373.9,185.6L373.9,185.6z"/>
<g>
	<defs>
		<path id="SVGID_00000065063205081722297750000000952977504046080937_" d="M338.4,179.3c0-3.4,0.7-6.7,2.1-9.7
			c1.5-3.2,3.6-6.1,6.1-8.5c4.7-4.5,11.1-7.1,17.6-7c3.2-0.1,6.5,0.6,9.5,1.8c3,1.2,5.7,3,8,5.2c2.6,2.4,4.6,5.3,6.1,8.5
			c1.4,3,2.1,6.4,2.1,9.7c0,3.3-0.7,6.6-2.1,9.6c-1.5,3.2-3.6,6-6.1,8.5c-2.3,2.3-5,4-8,5.2c-3,1.2-6.2,1.8-9.5,1.8
			c-6.8,0.1-13.4-2.6-18.3-7.4C341.1,192.5,338.3,186.1,338.4,179.3 M373.9,185.6V173c0-6.8-0.7-11.4-2.1-13.7s-3.9-3.5-7.6-3.5
			s-6.2,1.1-7.6,3.5s-2.1,6.8-2.1,13.7v12.6c0,6.8,0.7,11.4,2.1,13.7s3.9,3.5,7.6,3.5s6.1-1.1,7.6-3.5S373.9,192.4,373.9,185.6
			L373.9,185.6z"/>
	</defs>
	<use xlink:href="#SVGID_00000065063205081722297750000000952977504046080937_"  style="overflow:visible;fill:#AAAAAA;"/>
	<clipPath id="SVGID_00000052786957511240521810000007249850771536490661_">
		<use xlink:href="#SVGID_00000065063205081722297750000000952977504046080937_"  style="overflow:visible;"/>
	</clipPath>
	<g style="clip-path:url(#SVGID_00000052786957511240521810000007249850771536490661_);">
		<rect x="338.4" y="154.1" class="st0" width="51.6" height="50.3"/>
	</g>
</g>
<path class="st0" d="M415.3,201.3h6.4v1.7h-27.8v-1.7h6.5v-44.2h-6.5v-1.7h8.8c2.3,0,4.5-0.1,6.8-0.3c1.7-0.2,3.4-0.5,5.1-1v10.6
	c1.8-3.2,4.4-5.9,7.6-7.9c3-1.8,6.5-2.7,10-2.7c4.9,0,8.7,1.2,11.5,3.8s4.1,6,4.1,10.4v33h6.4v1.7h-27.5v-1.7h6.2v-35.5
	c0-3.1-0.4-5.4-1.3-6.5s-2.3-1.8-4.4-1.8c-3.3,0-6.5,1.5-8.5,4.1c-2.3,3-3.5,6.8-3.4,10.6L415.3,201.3"/>
<path class="st0" d="M458.3,179.3c0-3.4,0.7-6.7,2.1-9.7c1.5-3.2,3.6-6.1,6.1-8.5c4.7-4.5,11.1-7.1,17.6-7c3.2-0.1,6.5,0.6,9.5,1.8
	c3,1.2,5.7,3,8,5.2c2.6,2.4,4.6,5.3,6.1,8.5c1.4,3,2.1,6.4,2.1,9.7c0,3.3-0.7,6.6-2.1,9.6c-1.5,3.2-3.6,6.1-6.1,8.5
	c-2.3,2.3-5,4.1-8,5.4c-3,1.2-6.2,1.8-9.5,1.8c-6.8,0.1-13.4-2.5-18.3-7.4C460.9,192.6,458.2,186.1,458.3,179.3 M493.8,185.6V173
	c0-6.8-0.8-11.4-2.1-13.7s-4-3.5-7.6-3.5s-6.1,1.1-7.7,3.5s-2.1,6.8-2.1,13.7v12.6c0,6.8,0.7,11.4,2.1,13.7s4,3.5,7.7,3.5
	s6.1-1.1,7.6-3.5S493.8,192.4,493.8,185.6L493.8,185.6z"/>
<path class="st0" d="M578,203v-1.7h6.1v-35.4c0-3.1-0.5-5.4-1.2-6.5s-2.2-1.8-4.4-1.8c-3.3,0-6.4,1.5-8.4,4.1
	c-2.3,3-3.5,6.8-3.3,10.6v28.9h6.2v1.7h-27v-1.7h6.2v-35.4c0-3.1-0.5-5.4-1.2-6.5s-2.2-1.8-4.3-1.8c-3.3,0-6.4,1.5-8.4,4.1
	c-2.3,3-3.5,6.8-3.3,10.6v28.9h6.1v1.7h-27.3v-1.7h6.4v-44.2h-6.4v-1.7h8.6c2.2,0,4.5-0.1,6.7-0.3c1.7-0.2,3.5-0.5,5.1-1v10.6
	c1.7-3.2,4.2-5.9,7.2-7.9c3-1.8,6.4-2.7,9.8-2.7c3.5-0.1,7,0.8,10,2.8c2.6,1.8,4.4,4.5,4.9,7.6c1.6-3.2,4.1-5.9,7.1-7.8
	c3-1.8,6.4-2.7,9.8-2.7c4.8,0,8.6,1.2,11.4,3.8c2.9,2.7,4.4,6.5,4.2,10.4v33h6.2v1.7L578,203"/>
<path class="st0" d="M614.8,157.1h-6.6v-1.7h8.8c2.3,0,4.6-0.1,6.9-0.3c1.9-0.2,3.8-0.5,5.7-1v47.2h6.6v1.7h-28.1v-1.7h6.6
	L614.8,157.1 M614.2,134.6c0.1-4.6,3.9-8.3,8.5-8.3c2.1,0,4.2,0.9,5.7,2.3c1.6,1.5,2.5,3.7,2.5,5.9c0,2.3-0.8,4.4-2.5,6
	c-1.5,1.6-3.7,2.6-5.9,2.6c-2.2,0.1-4.4-0.8-5.9-2.4C615,139.1,614.1,136.9,614.2,134.6L614.2,134.6z"/>
<path class="st0" d="M642.3,204.3v-17.8h1.7c2.5,5.6,5.2,9.6,8.2,12.2c2.7,2.5,6.3,3.9,10,3.9c2.6,0.1,5.1-0.8,7.1-2.5
	c1.8-1.7,2.8-4.2,2.7-6.7c0-3.7-3.7-6-10.9-7.1c-1.6-0.2-2.8-0.4-3.6-0.6c-5.5-1-9.5-2.6-11.8-4.9s-3.6-5.6-3.6-9.7
	c-0.1-4.5,1.6-8.9,4.8-12.1c3-3.3,7.3-5.1,11.7-5c2.5,0,5.1,0.5,7.5,1.3c1.4,0.5,2.9,1,4.3,1.3c0.6,0.1,1.3-0.1,1.8-0.6
	c0.5-0.5,0.9-1.1,1.2-1.7h1.8v15.2h-1.8c-1.1-3.9-3.2-7.5-6.1-10.4c-2.6-2.3-5.9-3.5-9.4-3.5c-2.5-0.1-5,0.8-7,2.4
	c-1.8,1.4-2.8,3.6-2.8,5.9c0,1,0.3,2.1,0.8,3c0.6,0.9,1.4,1.7,2.3,2.3c1,0.7,3.2,1.1,6.7,1.4c2.6,0.2,5.2,0.6,7.8,1.1
	c4.6,1,7.8,2.7,9.8,5s3,5.6,3,9.6c0,5.4-1.7,9.6-4.9,12.8s-7.5,4.9-12.8,4.9c-2.3-0.1-4.5-0.5-6.7-1.2c-1.8-0.7-3.7-1.1-5.6-1.2
	c-1,0-2,0.2-3,0.6c-0.8,0.4-1.4,1-1.7,1.8L642.3,204.3"/>
<path class="st0" d="M683.6,155.4h0.2c4.8,0.1,9.4-2.1,12.4-5.8c3.3-3.9,5.6-9.4,6.7-16.5h1.7v22.3h10.3v1.7h-10.3v35.7
	c-0.1,1.9,0.2,3.8,0.9,5.6c0.5,1.1,1.6,1.8,2.8,1.7c1.2,0,2.4-0.5,3.3-1.2c1.2-0.9,2.2-2,2.9-3.4l1.5,0.9c-1.3,2.4-3.2,4.4-5.6,5.8
	c-2.5,1.4-5.3,2.2-8.2,2.1c-4.5,0-7.7-1.2-9.6-3.6s-2.9-6.7-2.9-12.7v-30.9h-6L683.6,155.4"/>
<path class="st0" d="M763.7,191.2c0,3,0.2,5.1,0.8,6.2c0.4,1,1.4,1.7,2.6,1.7c0.9,0,1.8-0.5,2.2-1.3c0.8-1.2,1.4-2.6,1.7-4h1.5
	c-0.2,2.9-1.6,5.6-3.7,7.6c-2.1,2-4.9,3-7.8,2.9c-2.5,0.1-5-0.5-7.1-1.8c-1.9-1.3-3.4-3.3-4-5.6c-1,2.4-2.8,4.3-5,5.6
	c-2.5,1.3-5.4,2-8.3,1.9c-6.4,0-11.2-1.2-14.5-3.6c-3.3-2.3-5.2-6.1-5-10.2c0-5.2,2.7-9,8-11.6s13.5-3.8,24.3-3.8v-6.7
	c0-5.4-0.8-8.8-2.1-10.4s-4.2-2.2-8.4-2.2c-2.1-0.1-4.3,0.3-6.2,1.1c-1.8,0.8-2.7,1.6-2.7,2.3c0,0.3,0.5,0.7,1.5,1.3
	c0.8,0.4,1.6,0.9,2.2,1.6c0.5,0.5,1,1.1,1.2,1.8c0.3,0.7,0.5,1.5,0.5,2.3c0.1,1.6-0.5,3.2-1.7,4.4c-1.3,1.1-3,1.7-4.7,1.6
	c-1.9,0.1-3.8-0.5-5.3-1.7c-1.3-1.3-2-3.1-1.9-4.9c0-3.5,1.8-6.2,5.2-8.5S735,154,741,154c3.1,0,6.2,0.3,9.2,1
	c2.6,0.6,5.1,1.6,7.4,3c2,1.2,3.6,2.8,4.8,4.8c0.9,1.8,1.3,4.7,1.3,8.6L763.7,191.2 M749.4,177h-1c-6.5,0-10.8,0.8-12.8,2.2
	s-3.1,4.7-3.1,9.4s0.5,7.9,1.8,9.8s3.1,2.9,5.9,2.9c2.7,0.1,5.3-1.1,6.9-3.2c1.6-2.1,2.3-5.4,2.3-9.7V177z"/>
<path class="st0" d="M264.6,266.5l-5.9-15.1h-19.5l-5.7,14.6h-3.1l17-43.1h3.2l17,42.8L264.6,266.5 M248.9,226.4l-8.7,22.4h17.5
	L248.9,226.4z"/>
<g>
	<defs>
		<path id="SVGID_00000080925620418526498220000013538642208211229581_" d="M264.6,266.5l-5.9-15.1h-19.5l-5.7,14.6h-3.1l17-43.1
			h3.2l17,42.8L264.6,266.5 M248.9,226.4l-8.7,22.4h17.5L248.9,226.4z"/>
	</defs>
	<use xlink:href="#SVGID_00000080925620418526498220000013538642208211229581_"  style="overflow:visible;fill:#AAAAAA;"/>
	<clipPath id="SVGID_00000073714932421588403230000002050943225393136791_">
		<use xlink:href="#SVGID_00000080925620418526498220000013538642208211229581_"  style="overflow:visible;"/>
	</clipPath>
	<g style="clip-path:url(#SVGID_00000073714932421588403230000002050943225393136791_);">
		<rect x="230.4" y="223" class="st0" width="37.2" height="43.5"/>
	</g>
</g>
<path class="st0" d="M310.7,266v-20.3c0-4.5-1.9-6.8-6.1-6.8c-3.1,0-6.4,1.8-10,5.1v21.9h-2.8v-20.3c0-4.5-1.9-6.8-6.1-6.8
	c-3.1,0-6.5,1.8-10,5.1v22h-2.9v-29h2.1l0.8,4.2c3.5-3,6.7-4.8,10.5-4.8c4.6,0,7.1,1.9,8.1,5.2c3.7-3.2,6.9-5.2,10.9-5.2
	c6,0,8.7,3.4,8.7,9.1v20.6L310.7,266"/>
<g>
	<defs>
		<path id="SVGID_00000158751343731100799050000015070615366043570351_" d="M310.7,266v-20.3c0-4.5-1.9-6.8-6.1-6.8
			c-3.1,0-6.4,1.8-10,5.1v21.9h-2.8v-20.3c0-4.5-1.9-6.8-6.1-6.8c-3.1,0-6.5,1.8-10,5.1v22h-2.9v-29h2.1l0.8,4.2
			c3.5-3,6.7-4.8,10.5-4.8c4.6,0,7.1,1.9,8.1,5.2c3.7-3.2,6.9-5.2,10.9-5.2c6,0,8.7,3.4,8.7,9.1v20.6L310.7,266"/>
	</defs>
	<use xlink:href="#SVGID_00000158751343731100799050000015070615366043570351_"  style="overflow:visible;fill:#AAAAAA;"/>
	<clipPath id="SVGID_00000147199280493110345050000011437080330334896553_">
		<use xlink:href="#SVGID_00000158751343731100799050000015070615366043570351_"  style="overflow:visible;"/>
	</clipPath>
	<g style="clip-path:url(#SVGID_00000147199280493110345050000011437080330334896553_);">
		<rect x="272.5" y="236.2" class="st0" width="41.1" height="29.8"/>
	</g>
</g>
<path class="st0" d="M342.1,251.5h-20.6c0,7.5,3.5,12.6,10,12.6c3.6,0,7.3-1.9,10-4.5l0.5,2.8c-2.9,2.7-6.7,4.2-10.6,4.2
	c-7.7,0-12.8-5.7-12.8-15.2s5.4-15.2,12.4-15.2c7.5,0,11.2,6.5,11.2,14.6L342.1,251.5 M330.9,238.7c-5.6,0-8.6,4.2-9.4,10.4H339
	C338.8,243.4,335.9,238.7,330.9,238.7z M330.8,231.9h-2.2l6.6-9.6l4.2,1L330.8,231.9z"/>
<g>
	<defs>
		<path id="SVGID_00000065789032867882947360000013418389256024536456_" d="M342.1,251.5h-20.6c0,7.5,3.5,12.6,10,12.6
			c3.6,0,7.3-1.9,10-4.5l0.5,2.8c-2.9,2.7-6.7,4.2-10.6,4.2c-7.7,0-12.8-5.7-12.8-15.2s5.4-15.2,12.4-15.2c7.5,0,11.2,6.5,11.2,14.6
			L342.1,251.5 M330.9,238.7c-5.6,0-8.6,4.2-9.4,10.4H339C338.8,243.4,335.9,238.7,330.9,238.7z M330.8,231.9h-2.2l6.6-9.6l4.2,1
			L330.8,231.9z"/>
	</defs>
	<use xlink:href="#SVGID_00000065789032867882947360000013418389256024536456_"  style="overflow:visible;fill:#AAAAAA;"/>
	<clipPath id="SVGID_00000026854439446210119110000011317504934904547473_">
		<use xlink:href="#SVGID_00000065789032867882947360000013418389256024536456_"  style="overflow:visible;"/>
	</clipPath>
	<g style="clip-path:url(#SVGID_00000026854439446210119110000011317504934904547473_);">
		<rect x="318.5" y="222.2" class="st0" width="23.5" height="44.5"/>
	</g>
</g>
<path class="st0" d="M350.3,247v19.2h-2.9v-29.3h1.9l0.9,6.1c2.2-3.4,5.7-6.7,10.5-6.7l0.4,2.8C356.4,239.4,352.2,242.9,350.3,247"
	/>
<g>
	<defs>
		<path id="SVGID_00000136371304357825528070000007569500653281706635_" d="M350.3,247v19.2h-2.9v-29.3h1.9l0.9,6.1
			c2.2-3.4,5.7-6.7,10.5-6.7l0.4,2.8C356.4,239.4,352.2,242.9,350.3,247"/>
	</defs>
	<use xlink:href="#SVGID_00000136371304357825528070000007569500653281706635_"  style="overflow:visible;fill:#AAAAAA;"/>
	<clipPath id="SVGID_00000178205248085074339710000010786855247782005420_">
		<use xlink:href="#SVGID_00000136371304357825528070000007569500653281706635_"  style="overflow:visible;"/>
	</clipPath>
	<g style="clip-path:url(#SVGID_00000178205248085074339710000010786855247782005420_);">
		<rect x="347.3" y="236.2" class="st0" width="13.8" height="29.8"/>
	</g>
</g>
<path class="st0" d="M366.7,229c-1.4-0.1-2.5-1.2-2.6-2.6c0.1-1.4,1.2-2.5,2.6-2.5c1.4,0.1,2.4,1.3,2.3,2.7
	C368.9,227.9,367.9,228.9,366.7,229 M368.2,266h-2.8v-29.1h2.8V266z"/>
<g>
	<defs>
		<path id="SVGID_00000165923196304239211140000015669399824841553049_" d="M366.7,229c-1.4-0.1-2.5-1.2-2.6-2.6
			c0.1-1.4,1.2-2.5,2.6-2.5c1.4,0.1,2.4,1.3,2.3,2.7C368.9,227.9,367.9,228.9,366.7,229 M368.2,266h-2.8v-29.1h2.8V266z"/>
	</defs>
	<use xlink:href="#SVGID_00000165923196304239211140000015669399824841553049_"  style="overflow:visible;fill:#AAAAAA;"/>
	<clipPath id="SVGID_00000153688414712049372840000007617301490749605544_">
		<use xlink:href="#SVGID_00000165923196304239211140000015669399824841553049_"  style="overflow:visible;"/>
	</clipPath>
	<g style="clip-path:url(#SVGID_00000153688414712049372840000007617301490749605544_);">
		<rect x="364.2" y="224.1" class="st0" width="5" height="42.1"/>
	</g>
</g>
<path class="st0" d="M386.6,266.7c-7.1,0-12.8-5.6-12.8-15.2s5.7-15.2,13.1-15.2c3.4,0,6.7,1.1,9.4,3.2l-0.5,3
	c-2.9-2.5-5.6-3.7-9-3.7c-6.2,0-9.9,5.1-9.9,12.6c0,7.5,3.6,12.6,10,12.6c3.4,0,6.7-1.4,9.1-3.7l0.3,2.7
	C393.6,265.5,390.2,266.8,386.6,266.7"/>
<g>
	<defs>
		<path id="SVGID_00000151542682567252176540000002785327094907874486_" d="M386.6,266.7c-7.1,0-12.8-5.6-12.8-15.2
			s5.7-15.2,13.1-15.2c3.4,0,6.7,1.1,9.4,3.2l-0.5,3c-2.9-2.5-5.6-3.7-9-3.7c-6.2,0-9.9,5.1-9.9,12.6c0,7.5,3.6,12.6,10,12.6
			c3.4,0,6.7-1.4,9.1-3.7l0.3,2.7C393.6,265.5,390.2,266.8,386.6,266.7"/>
	</defs>
	<use xlink:href="#SVGID_00000151542682567252176540000002785327094907874486_"  style="overflow:visible;fill:#AAAAAA;"/>
	<clipPath id="SVGID_00000080170567165051571410000010943185127651212173_">
		<use xlink:href="#SVGID_00000151542682567252176540000002785327094907874486_"  style="overflow:visible;"/>
	</clipPath>
	<g style="clip-path:url(#SVGID_00000080170567165051571410000010943185127651212173_);">
		<rect x="373.8" y="236.2" class="st0" width="22.7" height="30.5"/>
	</g>
</g>
<path class="st0" d="M419.3,266l-0.7-3.9c-3,2.7-6.7,4.6-10.3,4.6c-4.9,0-8.8-2.5-8.8-7.7c0-6.5,5-9.9,19-11.3v-2.6
	c0-4.1-2.5-6.1-6.5-6.1c-3.5,0-6.9,1-10,2.7l-0.3-2.7c3.3-1.6,6.9-2.5,10.5-2.6c5.9,0,9.2,3,9.2,8.6v21.1L419.3,266 M418.5,250
	c-12,1.3-16,3.9-16,8.6c0,3.7,2.7,5.5,5.9,5.5s6.9-1.9,10-4.7L418.5,250z"/>
<g>
	<defs>
		<path id="SVGID_00000083046590056507382780000017611230109485694607_" d="M419.3,266l-0.7-3.9c-3,2.7-6.7,4.6-10.3,4.6
			c-4.9,0-8.8-2.5-8.8-7.7c0-6.5,5-9.9,19-11.3v-2.6c0-4.1-2.5-6.1-6.5-6.1c-3.5,0-6.9,1-10,2.7l-0.3-2.7c3.3-1.6,6.9-2.5,10.5-2.6
			c5.9,0,9.2,3,9.2,8.6v21.1L419.3,266 M418.5,250c-12,1.3-16,3.9-16,8.6c0,3.7,2.7,5.5,5.9,5.5s6.9-1.9,10-4.7L418.5,250z"/>
	</defs>
	<use xlink:href="#SVGID_00000083046590056507382780000017611230109485694607_"  style="overflow:visible;fill:#AAAAAA;"/>
	<clipPath id="SVGID_00000100362206248060475070000016229172459328974239_">
		<use xlink:href="#SVGID_00000083046590056507382780000017611230109485694607_"  style="overflow:visible;"/>
	</clipPath>
	<g style="clip-path:url(#SVGID_00000100362206248060475070000016229172459328974239_);">
		<rect x="399.4" y="236.4" class="st0" width="21.9" height="30.4"/>
	</g>
</g>
<path class="st11" d="M117.9,141.2c0.1,1.9,2.1,2.2,1,4.6c-1,0.2-1-0.6-1.6-0.7c0,1,0.7,1.4,0.7,2.6c-4.6-0.2-4.3-5.1-10-4.2
	c0.6-2.4,3.5-1.2,3.9-4.2c-1.7-2.3-5.1-3.1-7.8-4.6c0.1-0.9,0.1-1.8,0.7-2.2c-3-1.2-5.9-2.7-7.8-5.1c3.8-1.2,6.1,1.2,10.1,1
	c1.9,3.9,7.2,4.1,11.7,5.5c-0.3,1.6-2.5,1.5-2.6,3.2c1.6,1.4,5.4,0.7,6.1,2.9c0.2,2-2.7,1.8-2.2,2.9
	C118.4,143.2,118.7,141.6,117.9,141.2"/>
<path class="st11" d="M118.2,168.1c-0.8-0.1-3,1.1-4.2,1.7v2.3c-0.4,0.4-1.4,0.3-2.2,0.3c-1.2,1-0.4,4-2.9,3.9v3.2
	c-1.8,1.2-3.4,2.8-4.6,4.6c0.4,1.4,2.9,5.8-0.3,6.1c-0.3-1.8-1.1-3.2-1.6-4.9c-3.8-1.3-7.4,0-11.4,0.3c-0.3,3.5-1.6,8.3,1,10.7
	c1.3,0.2,1.9-0.3,2.9-0.3c0.4-0.8,0.4-2,1-2.6c1.7,0.2,2.2-0.6,3.9-0.3c-0.2,1.8-0.2,3.9-1,5.1c0.9,0.8,2.7,0.6,3.6,1.2
	c0.1,2.1-0.4,5,0.7,6.1c1.7-0.3,3.4-0.3,5.1,0c0.7-2,2.9-2.6,4.9-3.2c0.2,0.9-0.4,0.9-0.3,1.7c2.7-0.7,4.5,1,7.5,0.3
	c2.4,3.2,6.2,5.2,10.7,6.5c0.2,1.9,1.2,3.6,0,5.1c0.8,1.7,5.5-1.2,5.1,1.9c4.4-0.6,5.5,2.1,8.4,2.9c0.6,4.6-2,5.9-3.6,8.4
	c0,3.7-1.3,6-2,9c-2.9,1.1-7,1.1-6.5,5.8c-1.2,2.8-3.5,4.6-4.9,7.1h-2.2c0.6,4.1-2.6,4.6-5.1,5.5c-0.4,0.1-0.3,0.8-0.3,1.3h-1.6
	c1.3,1.9-0.6,4.7-2.2,5.5c-0.1,1.2,1.3,0.9,1,2.2c-0.8,2.1-3.2,2.3-2.9,5.5c1.2,1.5,3.6,1.6,3.9,3.9c-3.1,0.1-4.6-0.1-6.8-1.2
	c0.1-1.6-0.4-2.5-1.6-2.6c0.4-2.2-2.5-4.9,0-6.1c0.1-0.8-1.4,0.2-1-1c1-1.5,1.7-2.2,1.7-4.2c-0.1-0.6-0.6,0.3-0.7-0.3v-6.1
	c1.7-2.4,4.8-12.2,3.9-17.7c-0.6-3.5-4.5-2.9-5.5-6.1s-1.8-6.5-3.9-8.1c-0.4-5,1.3-7.9,3.2-10.7c0.3-1.9-1.1-1.9-1-3.6
	c-1.8,2.4-2.6-1-5.1-0.7c0-2-2.1-1.7-1.9-3.9c-2-1.1-4.9-1.3-6.1-3.2c-5.1,0.3-6.6-3.1-10-4.5c1.2-4.5-4.1-6-5.2-10
	c-0.1,1.4,2.6,4.6,1.7,6.8c-2.1-0.7-1.3-4.4-4.2-4.2c0-0.8-0.1-1.6,0.3-1.9c-0.4-1.9-2.9-1.8-2.6-4.6c-4.5-3.2-6.8-8.5-5.8-17.2
	c0.8,0,0.4-1.6,1.3-0.7c-0.3-1-1.1-0.1-2-1c0.1-0.4,0.3,0,0.7,0c-0.6-0.8-1.8-0.4-2.9-1.2c0-0.8,1.1-0.1,1.3,0
	c-0.1-0.7-0.8-0.7-1.6-0.7c-1-2.8-1.5-6.2-5.5-6.1c0.1-0.9,0.1-1.7-1-1.3c0-1.1-0.2-2.4,0.7-2.6c-1.2-0.4-0.7,0.9-1.6,0.7
	c-2.2-3.5-9.4-4.2-12.6-1.3c-0.2-1.1,0.3-2.3,1.3-2.9c-2,0.4-3.5,2.1-3.6,4.2c-2.9,1.7-5.2,3.9-9.4,4.2c0.8-0.9,2.1-1.1,2.2-2.6
	c2.2,0.1,3.5-0.7,3.9-2.2c-0.7-1.1-2.7-0.6-3.9-0.3v-2c-1.9-0.1-2.2,1-4.2,0.3c-0.3-1.2,1.7-0.2,1.9-1c-0.2-0.6-0.5-1.3-1-1.6
	c0.2-0.9,1-1.1,1-2.2c0.9-0.3,2.2-0.1,2.9-0.7c-1.6-1.3-5.8,0-5.5-3.2c1.8,0.1,3.2-1.6,4.6,0c0.6-1.6-2.6-0.8-2.5-2.7
	c1.9-0.9,3.8-2,5.5-3.2c4.1,2.5,7.9-1.9,11.6-1.9c2,0,4.6,2.5,7.5,2.6c5,0.2,9.9-4.2,14.3-3.6c2,0.3,3.6,2.8,5.1,3.2
	c-0.6,2.1,1,3.5,0,4.2c2.5,0.2,5-1.2,5.5,1.3c0.8-3.5,4.8-1.8,7.8-1.3c0.9,0.2-0.2-1.6,0.7-1.3c0.9-0.1,1.8,0.5,1.9,1.5
	c0,0,0,0.1,0,0.1c0.9-2.1,4.5-1.7,7.5-1.6v2c0.6-0.3,0.7-1,0.7-2h4.9c-0.3,1-0.5,2.1-0.3,3.2c-1.5,0.4-2.2,1.7-3.6,0.7
	c0,1.1,2.7,2.4,4.6,2.6v1.7c-2-0.8-3.2-0.7-4.6,0.7c0.7-1.7-1.9-0.2-1.3-1.9c-1,0.6-3.3-0.1-2.9,1.9c-3.2-0.6-2.8,2.9-3.9,4.6
	c1.6,1.1,2.3,3.1,5.5,2.6c0.4,2.6,4,2,5.8,3.2c-0.2,1.8,0.4,2.7,0.3,4.2c1,0.2,1.2-0.3,2-0.3c0.3-1.8-0.7-2.1-0.7-3.6
	c1.8-0.1,2.2-1.7,2.6-3.2c-0.4-0.4-0.9-0.8-1.3-1.2c0.6-1.9,0.8-3.8,0.7-5.8c2.6,0.1,5.2,0.9,7.5,2.2c-0.2,1.7,0.4,2.4,0.7,3.6
	c2.3,0.7,1.6-1.7,2.6-2.2c1.8,0.3,1.8,2.5,3.6,2.9c-0.2,3.7,3.6,3.4,4.9,5.5c-0.2,2,0.7,3.1-0.3,4.2c1.8,0.8,3.7,2.1,2.9,4.6
	c-1.4,0.3-1.8-0.6-2.6-1c-0.8-0.1,0.2,1.5-1,1c1-1.4-1-0.8-2.2-1c0.3-2.1,1.8-3.2,2.6-4.9c-1.7-0.7-2.6,2.1-5.1,1.7
	c-1,0.3,1.2,0.2,0.7,1.3c-0.7,0.7-1.2-0.1-2-0.3c-0.8,0.7-1.2,1.8-1,2.9c0.4-1.1,2.2-0.2,2.6,0.7c1,0.1,0.8-1,2-0.7
	c-0.9,2.5-3.6,2.9-6.1,3.6C117,168.5,117.6,168.3,118.2,168.1"/>
<g>
	<path class="st0" d="M516.6,252.1c-0.2,4-2,7.8-5,10.6c-2.9,2.6-6.8,3.8-11.6,3.8c-3.2,0.1-6.3-0.8-8.9-2.5c-2.6-1.6-4.7-4-5.9-6.8
		c-1.5-3.2-2.3-6.7-2.3-10.2v-3.9c-0.1-3.7,0.6-7.3,2.1-10.7c1.3-2.9,3.4-5.3,6.1-7c2.8-1.7,5.9-2.5,9.1-2.4c4.7,0,8.5,1.2,11.3,3.8
		s4.5,6.1,5,10.7h-7.4c-0.3-3-1.2-5.2-2.7-6.6s-3.5-2-6.2-2c-2.9-0.2-5.7,1.1-7.4,3.5c-1.7,2.4-2.6,5.8-2.7,10.3v3.8
		c0,4.6,0.8,8,2.5,10.5c1.6,2.4,4.4,3.8,7.3,3.6c2.9,0,5-0.7,6.5-1.9s2.3-3.5,2.8-6.5L516.6,252.1z"/>
	<path class="st0" d="M529.5,237.8c2.1-2.6,5.3-4.1,8.7-4c6.7,0,10.2,3.8,10.2,11.5v20.5h-7v-20.3c0-2.1-0.5-3.7-1.5-4.6
		c-1.1-1-2.6-1.5-4.1-1.3c-2.7-0.1-5.2,1.4-6.4,3.8v22.4h-7v-44.6h7L529.5,237.8L529.5,237.8z"/>
	<path class="st0" d="M555.6,226.2c0-1,0.3-2,1-2.7c1.7-1.5,4.2-1.5,5.9,0c0.7,0.7,1,1.7,1,2.7c0,1-0.3,2-1,2.7
		c-0.8,0.8-1.9,1.2-3,1.1c-2,0.1-3.8-1.4-3.9-3.4C555.6,226.5,555.6,226.3,555.6,226.2L555.6,226.2z M563.2,265.9h-7v-31.5h7V265.9z
		"/>
	<path class="st0" d="M578.3,265.9h-7v-44.8h7V265.9z"/>
	<path class="st0" d="M599.9,266.5c-4.1,0.1-8-1.4-10.9-4.2c-2.8-2.8-4.1-6.6-4.1-11.3v-0.9c-0.1-2.9,0.5-5.8,1.8-8.4
		c1.1-2.4,2.9-4.4,5.1-5.8c2.2-1.4,4.8-2.1,7.4-2.1c4.2,0,7.6,1.3,9.9,4.1s3.5,6.6,3.5,11.6v2.9H592c0.1,2.3,1,4.5,2.6,6.1
		c1.5,1.5,3.6,2.3,5.7,2.2c3.1,0,6.1-1.4,7.9-3.9l3.8,3.7c-1.2,1.9-3,3.4-5,4.4C604.8,266,602.3,266.5,599.9,266.5z M599,239.5
		c-1.8-0.1-3.5,0.7-4.7,2c-1.4,1.6-2.1,3.6-2.2,5.7h13.5v-0.6c0-2-0.7-3.8-1.9-5.4C602.4,240.1,600.7,239.4,599,239.5L599,239.5z"/>
</g>
<line class="st12" x1="454.7" y1="215.9" x2="454.7" y2="275"/>
</svg>
