<?xml version="1.0" encoding="utf-8"?>
<!-- Generator: Adobe Illustrator 23.0.3, SVG Export Plug-In . SVG Version: 6.00 Build 0)  -->
<svg version="1.1" id="Capa_1" xmlns="http://www.w3.org/2000/svg" xmlns:xlink="http://www.w3.org/1999/xlink" x="0px" y="0px"
	 viewBox="0 0 665.8 143.9" style="enable-background:new 0 0 665.8 143.9;" xml:space="preserve">
<style type="text/css">
	.st0{fill:#FF6600;}
	.st1{clip-path:url(#SVGID_4_);}
	.st2{clip-path:url(#SVGID_7_);}
	.st3{clip-path:url(#SVGID_9_);}
	.st4{clip-path:url(#SVGID_11_);fill:url(#SVGID_12_);}
	.st5{clip-path:url(#SVGID_14_);fill:url(#SVGID_15_);}
	.st6{clip-path:url(#SVGID_17_);fill:url(#SVGID_18_);}
	.st7{clip-path:url(#SVGID_20_);fill:url(#SVGID_21_);}
	.st8{clip-path:url(#SVGID_23_);fill:url(#SVGID_24_);}
	.st9{clip-path:url(#SVGID_26_);fill:url(#SVGID_27_);}
	.st10{clip-path:url(#SVGID_29_);fill:url(#SVGID_30_);}
	.st11{fill-rule:evenodd;clip-rule:evenodd;fill:#CAC7C7;}
	.st12{enable-background:new    ;}
	.st13{fill:none;stroke:#CAC7C7;stroke-miterlimit:10;}
</style>
<path class="st0" d="M136.5,45.3h-26.2v7.2c0,5.3,0.8,9.2,2.5,11.6c1.7,2.4,4.3,3.6,8,3.6c3.6,0,6.7-1.3,9.4-3.8
	c2.7-2.5,4.6-6.1,5.8-10.6h1.6c-1,5.2-3.2,9.3-6.5,12.3c-3.3,3-7.4,4.4-12.3,4.4c-6.5,0-11.9-2.1-16.2-6.4
	c-4.2-4.2-6.3-9.7-6.3-16.3c0-6.1,2.1-11.4,6.3-15.8c4.2-4.4,9.2-6.6,15-6.6c5.4,0,9.8,1.9,13.4,5.7
	C134.4,34.4,136.3,39.4,136.5,45.3 M122.5,43.8v-7.1c0-4.1-0.4-6.8-1.4-8.2c-0.9-1.4-2.5-2.1-4.9-2.1c-2.2,0-3.8,0.8-4.7,2.3
	c-0.9,1.5-1.3,4.5-1.3,8.9v6.2H122.5L122.5,43.8z"/>
<path class="st0" d="M146.5,2.4h-5.3V0.9h7.9c2.6,0,4.8-0.1,6.3-0.3c1.6-0.2,3.1-0.5,4.4-0.9v67.4h5.9v1.5h-25.2v-1.5h5.9V2.4"/>
<path id="SVGID_1_" d="M168.6,68.7v-1.5h8V2.4h-8V0.9h53.7v18.6H221c-0.7-6.2-2.5-10.6-5.4-13.2s-7.8-3.9-14.4-3.9h-9.4v29.7h5.6
	c3.2,0,5.8-1.1,7.6-3.4s2.7-5.5,2.7-9.6v-0.9h1.5v29.4h-1.5v-0.9c0-4.1-0.9-7.3-2.7-9.6c-1.8-2.3-4.3-3.4-7.6-3.4h-5.6v33.6h9.8
	c7.9,0,13.5-1.6,16.9-4.7c3.4-3.2,5.2-8.3,5.3-15.5h1.5v21.8h-56.7"/>
<g>
	<g>
		<defs>
			<path id="SVGID_2_" d="M168.6,68.7v-1.5h8V2.4h-8V0.9h53.7v18.6H221c-0.7-6.2-2.5-10.6-5.4-13.2s-7.8-3.9-14.4-3.9h-9.4v29.7h5.6
				c3.2,0,5.8-1.1,7.6-3.4s2.7-5.5,2.7-9.6v-0.9h1.5v29.4h-1.5v-0.9c0-4.1-0.9-7.3-2.7-9.6c-1.8-2.3-4.3-3.4-7.6-3.4h-5.6v33.6h9.8
				c7.9,0,13.5-1.6,16.9-4.7c3.4-3.2,5.2-8.3,5.3-15.5h1.5v21.8h-56.7"/>
		</defs>
		<clipPath id="SVGID_4_">
			<use xlink:href="#SVGID_2_"  style="overflow:visible;"/>
		</clipPath>
		<rect x="168.6" y="0.9" class="st1" width="56.6" height="67.8"/>
	</g>
</g>
<path id="SVGID_3_" d="M271.1,55.3h1.5c-0.9,4.7-2.8,8.4-5.9,10.9c-3,2.5-7,3.8-11.9,3.8c-6.6,0-12.1-2.1-16.5-6.4
	s-6.6-9.5-6.6-15.8c0-3.3,0.7-6.4,2.1-9.3c1.4-2.9,3.5-5.5,6.3-7.9c2.2-1.8,4.6-3.2,7.3-4.2c2.6-1,5.3-1.5,8.1-1.5
	c4.9,0,8.9,1.1,11.9,3.2s4.5,4.9,4.5,8.3c0,2-0.6,3.5-1.7,4.6s-2.7,1.6-4.7,1.6c-2.1,0-3.7-0.6-4.8-1.7c-1.2-1.2-1.8-2.7-1.8-4.7
	c0-1.5,0.6-3,1.7-4.3c1.1-1.3,1.7-2.1,1.7-2.2c0-0.9-0.6-1.7-1.8-2.3c-1.2-0.6-2.8-0.9-4.8-0.9c-3.5,0-6,1.1-7.4,3.4
	s-2.1,6.3-2.1,12.3v9.3c0,6.3,0.8,10.6,2.3,13.1c1.6,2.5,4.2,3.7,8,3.7c3.6,0,6.7-1.2,9.3-3.5C268.3,62.5,270.1,59.3,271.1,55.3"/>
<g>
	<g>
		<defs>
			<path id="SVGID_6_" d="M271.1,55.3h1.5c-0.9,4.7-2.8,8.4-5.9,10.9c-3,2.5-7,3.8-11.9,3.8c-6.6,0-12.1-2.1-16.5-6.4
				s-6.6-9.5-6.6-15.8c0-3.3,0.7-6.4,2.1-9.3c1.4-2.9,3.5-5.5,6.3-7.9c2.2-1.8,4.6-3.2,7.3-4.2c2.6-1,5.3-1.5,8.1-1.5
				c4.9,0,8.9,1.1,11.9,3.2s4.5,4.9,4.5,8.3c0,2-0.6,3.5-1.7,4.6s-2.7,1.6-4.7,1.6c-2.1,0-3.7-0.6-4.8-1.7c-1.2-1.2-1.8-2.7-1.8-4.7
				c0-1.5,0.6-3,1.7-4.3c1.1-1.3,1.7-2.1,1.7-2.2c0-0.9-0.6-1.7-1.8-2.3c-1.2-0.6-2.8-0.9-4.8-0.9c-3.5,0-6,1.1-7.4,3.4
				s-2.1,6.3-2.1,12.3v9.3c0,6.3,0.8,10.6,2.3,13.1c1.6,2.5,4.2,3.7,8,3.7c3.6,0,6.7-1.2,9.3-3.5C268.3,62.5,270.1,59.3,271.1,55.3"
				/>
		</defs>
		<clipPath id="SVGID_7_">
			<use xlink:href="#SVGID_6_"  style="overflow:visible;"/>
		</clipPath>
		<rect x="231.6" y="24.9" class="st2" width="41" height="45.1"/>
	</g>
</g>
<path id="SVGID_5_" d="M276.8,47.5c0-3,0.6-5.9,1.9-8.7s3.1-5.3,5.5-7.6c2.3-2.1,4.7-3.7,7.3-4.7c2.6-1,5.4-1.6,8.5-1.6
	s5.9,0.5,8.5,1.6c2.6,1,5,2.6,7.2,4.7c2.4,2.3,4.2,4.8,5.5,7.6s1.9,5.7,1.9,8.7s-0.6,5.9-1.9,8.6c-1.3,2.7-3.1,5.2-5.5,7.6
	c-2.2,2.1-4.6,3.7-7.2,4.7S303.1,70,300,70c-6.4,0-11.9-2.2-16.4-6.6C279,59,276.8,53.7,276.8,47.5 M308.6,53.1V41.8
	c0-6.1-0.6-10.2-1.9-12.3c-1.3-2-3.5-3.1-6.8-3.1s-5.6,1-6.8,3.1c-1.3,2-1.9,6.1-1.9,12.3v11.3c0,6.1,0.6,10.2,1.9,12.3
	c1.3,2,3.5,3.1,6.8,3.1s5.5-1,6.8-3.1C307.9,63.3,308.6,59.2,308.6,53.1z"/>
<g>
	<g>
		<defs>
			<path id="SVGID_8_" d="M276.8,47.5c0-3,0.6-5.9,1.9-8.7s3.1-5.3,5.5-7.6c2.3-2.1,4.7-3.7,7.3-4.7c2.6-1,5.4-1.6,8.5-1.6
				s5.9,0.5,8.5,1.6c2.6,1,5,2.6,7.2,4.7c2.4,2.3,4.2,4.8,5.5,7.6s1.9,5.7,1.9,8.7s-0.6,5.9-1.9,8.6c-1.3,2.7-3.1,5.2-5.5,7.6
				c-2.2,2.1-4.6,3.7-7.2,4.7S303.1,70,300,70c-6.4,0-11.9-2.2-16.4-6.6C279,59,276.8,53.7,276.8,47.5 M308.6,53.1V41.8
				c0-6.1-0.6-10.2-1.9-12.3c-1.3-2-3.5-3.1-6.8-3.1s-5.6,1-6.8,3.1c-1.3,2-1.9,6.1-1.9,12.3v11.3c0,6.1,0.6,10.2,1.9,12.3
				c1.3,2,3.5,3.1,6.8,3.1s5.5-1,6.8-3.1C307.9,63.3,308.6,59.2,308.6,53.1z"/>
		</defs>
		<clipPath id="SVGID_9_">
			<use xlink:href="#SVGID_8_"  style="overflow:visible;"/>
		</clipPath>
		<rect x="276.8" y="24.9" class="st3" width="46.2" height="45.1"/>
	</g>
</g>
<path class="st0" d="M345.7,67.2h5.7v1.5h-24.9v-1.5h5.8V27.6h-5.8v-1.5h7.9c2.4,0,4.4-0.1,6.1-0.3c1.6-0.2,3.2-0.5,4.6-0.9v9.5
	c1.9-3.1,4.1-5.5,6.8-7.1c2.7-1.6,5.7-2.4,9-2.4c4.4,0,7.8,1.1,10.3,3.4s3.7,5.4,3.7,9.3v29.6h5.7v1.5h-24.7v-1.5h5.6V35.4
	c0-2.8-0.4-4.8-1.2-5.8c-0.8-1.1-2.1-1.6-3.9-1.6c-3.1,0-5.6,1.3-7.6,3.7c-2,2.5-3,5.6-3,9.5L345.7,67.2"/>
<path class="st0" d="M384.2,47.5c0-3,0.6-5.9,1.9-8.7s3.1-5.3,5.5-7.6c2.3-2.1,4.7-3.7,7.3-4.7c2.6-1,5.4-1.6,8.5-1.6
	s5.9,0.5,8.5,1.6c2.6,1,5,2.6,7.2,4.7c2.4,2.3,4.2,4.8,5.5,7.6s1.9,5.7,1.9,8.7s-0.6,5.9-1.9,8.6c-1.2,2.7-3.1,5.2-5.5,7.6
	c-2.2,2.1-4.6,3.7-7.2,4.8c-2.6,1-5.4,1.6-8.5,1.6c-6.4,0-11.9-2.2-16.4-6.6C386.4,59,384.2,53.7,384.2,47.5 M416,53.1V41.8
	c0-6.1-0.7-10.2-1.9-12.3c-1.3-2-3.6-3.1-6.8-3.1c-3.3,0-5.5,1-6.9,3.1c-1.3,2-1.9,6.1-1.9,12.3v11.3c0,6.1,0.6,10.2,1.9,12.3
	c1.3,2,3.6,3.1,6.9,3.1s5.5-1,6.8-3.1C415.3,63.3,416,59.2,416,53.1z"/>
<path class="st0" d="M491.5,68.7v-1.5h5.5V35.5c0-2.8-0.4-4.8-1.1-5.8c-0.8-1.1-2-1.6-3.9-1.6c-3,0-5.5,1.3-7.5,3.7
	c-2,2.5-3,5.6-3,9.5v25.9h5.5v1.5h-24.2v-1.5h5.6V35.5c0-2.8-0.4-4.8-1.1-5.8c-0.8-1.1-2-1.6-3.9-1.6c-3,0-5.5,1.3-7.5,3.7
	c-2,2.5-3,5.6-3,9.5v25.9h5.5v1.5H434v-1.5h5.7V27.6H434v-1.5h7.7c2.2,0,4.2-0.1,6-0.3c1.7-0.2,3.3-0.5,4.6-0.9v9.5
	c1.8-3.1,4-5.5,6.5-7.1c2.6-1.6,5.5-2.4,8.8-2.4c3.6,0,6.6,0.8,9,2.5s3.9,4,4.4,6.8c1.7-3.1,3.8-5.4,6.4-7s5.5-2.4,8.8-2.4
	c4.3,0,7.7,1.1,10.2,3.4s3.8,5.4,3.8,9.3v29.6h5.5v1.5L491.5,68.7"/>
<path class="st0" d="M524.5,27.6h-5.9v-1.5h7.9c2.3,0,4.4-0.1,6.2-0.3c1.9-0.2,3.6-0.5,5.1-0.9v42.3h5.9v1.5h-25.2v-1.5h5.9
	L524.5,27.6 M523.9,7.4c0-2.1,0.7-3.9,2.1-5.3c1.4-1.4,3.2-2.1,5.3-2.1s3.9,0.7,5.3,2.1c1.5,1.4,2.2,3.2,2.2,5.3s-0.7,3.9-2.2,5.4
	s-3.2,2.3-5.3,2.3c-2.2,0-3.9-0.7-5.3-2.2C524.6,11.4,523.9,9.6,523.9,7.4z"/>
<path class="st0" d="M549.1,69.9V54h1.5c2.2,5,4.7,8.6,7.3,10.9c2.7,2.4,5.7,3.5,9,3.5c2.7,0,4.8-0.8,6.4-2.2c1.6-1.5,2.4-3.5,2.4-6
	c0-3.3-3.3-5.4-9.8-6.4c-1.4-0.2-2.5-0.4-3.2-0.5c-4.9-0.9-8.5-2.3-10.6-4.4c-2.2-2-3.2-5-3.2-8.7c0-4.2,1.4-7.9,4.3-10.8
	c2.8-3,6.3-4.5,10.5-4.5c2.1,0,4.3,0.4,6.7,1.2c2.4,0.8,3.7,1.2,3.9,1.2c0.6,0,1.2-0.1,1.6-0.5s0.8-0.9,1.1-1.5h1.6v13.6H577
	c-1.3-4.1-3.2-7.2-5.5-9.3c-2.3-2-5.1-3.1-8.4-3.1c-2.5,0-4.6,0.7-6.3,2.1s-2.5,3.2-2.5,5.3c0,1,0.3,1.9,0.7,2.7
	c0.5,0.8,1.2,1.5,2.1,2.1c0.9,0.6,2.9,1,6,1.3c3,0.3,5.4,0.6,7,1c4.1,0.9,7,2.4,8.8,4.5s2.7,5,2.7,8.6c0,4.8-1.5,8.6-4.4,11.5
	s-6.7,4.4-11.5,4.4c-1.6,0-3.6-0.4-6-1.1c-2.4-0.8-4.1-1.1-5-1.1c-1.1,0-2,0.2-2.7,0.5s-1.2,0.9-1.5,1.6H549.1"/>
<path class="st0" d="M586.1,26.1h0.2c4.4,0,8.1-1.7,11.1-5.2s5-8.4,6-14.8h1.5v20h9.2v1.5h-9.2v32c0,2.4,0.3,4,0.8,5
	c0.5,1,1.3,1.5,2.5,1.5c1.1,0,2.1-0.4,3-1.1c1-0.7,1.8-1.7,2.6-3l1.3,0.8c-1.2,2.2-2.8,3.9-5,5.2s-4.7,1.9-7.3,1.9
	c-4,0-6.9-1.1-8.6-3.2c-1.7-2.2-2.6-6-2.6-11.4V27.6h-5.4L586.1,26.1"/>
<path class="st0" d="M657.9,58.1c0,2.7,0.2,4.6,0.7,5.6s1.2,1.5,2.3,1.5c0.8,0,1.5-0.4,2-1.2c0.6-0.8,1.1-2,1.5-3.6h1.3
	c-0.3,2.8-1.4,5-3.3,6.8c-1.9,1.8-4.3,2.6-7,2.6s-4.8-0.5-6.4-1.6c-1.7-1.1-2.8-2.7-3.6-5c-1,2.2-2.5,3.9-4.5,5s-4.5,1.7-7.4,1.7
	c-5.7,0-10-1.1-13-3.2s-4.5-5.1-4.5-9.1c0-4.7,2.4-8.1,7.2-10.4c4.8-2.3,12.1-3.4,21.8-3.4v-6c0-4.8-0.7-7.9-1.9-9.3
	c-1.3-1.4-3.8-2-7.5-2c-2.2,0-4,0.3-5.6,1s-2.4,1.4-2.4,2.1c0,0.3,0.4,0.6,1.3,1.2c0.9,0.5,1.6,1,2,1.4c0.5,0.5,0.9,1,1.1,1.6
	c0.3,0.6,0.4,1.3,0.4,2.1c0,1.7-0.5,3-1.5,3.9c-1,1-2.4,1.4-4.2,1.4c-2.1,0-3.7-0.5-4.8-1.5s-1.7-2.5-1.7-4.4c0-3.1,1.6-5.6,4.7-7.6
	c3.1-1.9,7.3-2.9,12.6-2.9c3,0,5.7,0.3,8.2,0.9s4.7,1.5,6.6,2.7c2,1.3,3.4,2.7,4.3,4.3c0.8,1.6,1.2,4.2,1.2,7.7L657.9,58.1
	 M645.1,45.4h-0.9c-5.8,0-9.7,0.7-11.5,2c-1.8,1.4-2.8,4.2-2.8,8.4c0,4.1,0.5,7.1,1.6,8.8c1.1,1.8,2.8,2.6,5.3,2.6
	c2.7,0,4.8-1,6.2-2.9s2.1-4.8,2.1-8.7L645.1,45.4L645.1,45.4z"/>
<g>
	<g>
		<g>
			<defs>
				<path id="SVGID_10_" d="M210.7,125.6l-5.3-13.5h-17.5l-5.1,13.1H180l15.2-38.6h2.9l15.2,38.4L210.7,125.6 M196.6,89.7l-7.8,20.1
					h15.7L196.6,89.7z"/>
			</defs>
			<clipPath id="SVGID_11_">
				<use xlink:href="#SVGID_10_"  style="overflow:visible;"/>
			</clipPath>
			
				<linearGradient id="SVGID_12_" gradientUnits="userSpaceOnUse" x1="-71.2339" y1="-67.0517" x2="-67.1897" y2="-67.0517" gradientTransform="matrix(0 -9.6435 9.6435 0 843.2633 -561.3441)">
				<stop  offset="0" style="stop-color:#4F4F4E"/>
				<stop  offset="0.303" style="stop-color:#1D1C23"/>
				<stop  offset="0.8061" style="stop-color:#29272A"/>
				<stop  offset="1" style="stop-color:#1D1C23"/>
			</linearGradient>
			<rect x="180" y="86.6" class="st4" width="33.3" height="39"/>
		</g>
	</g>
	<g>
		<g>
			<defs>
				<path id="SVGID_13_" d="M252,125.2V107c0-4-1.7-6.1-5.5-6.1c-2.8,0-5.7,1.6-9,4.6v19.6H235v-18.2c0-4-1.7-6.1-5.5-6.1
					c-2.8,0-5.8,1.6-9,4.6v19.7h-2.6v-26h1.9l0.7,3.8c3.1-2.7,6-4.3,9.4-4.3c4.1,0,6.4,1.7,7.3,4.7c3.3-2.9,6.2-4.7,9.8-4.7
					c5.4,0,7.8,3,7.8,8.2v18.5L252,125.2"/>
			</defs>
			<clipPath id="SVGID_14_">
				<use xlink:href="#SVGID_13_"  style="overflow:visible;"/>
			</clipPath>
			
				<linearGradient id="SVGID_15_" gradientUnits="userSpaceOnUse" x1="-97.5363" y1="-62.5825" x2="-93.4991" y2="-62.5825" gradientTransform="matrix(0 -6.6016 6.6016 0 649.345 -518.663)">
				<stop  offset="0" style="stop-color:#4F4F4E"/>
				<stop  offset="0.303" style="stop-color:#1D1C23"/>
				<stop  offset="0.8061" style="stop-color:#29272A"/>
				<stop  offset="1" style="stop-color:#1D1C23"/>
			</linearGradient>
			<rect x="217.8" y="98.5" class="st5" width="36.8" height="26.7"/>
		</g>
	</g>
	<g>
		<g>
			<defs>
				<path id="SVGID_16_" d="M280.1,112.2h-18.5c0,6.7,3.1,11.3,9,11.3c3.2,0,6.5-1.7,9-4l0.4,2.5c-2.4,2.2-5.8,3.8-9.5,3.8
					c-6.9,0-11.5-5.1-11.5-13.6c0-8.4,4.8-13.6,11.1-13.6c6.7,0,10,5.8,10,13.1C280.1,111.8,280.1,112,280.1,112.2 M270.1,100.7
					c-5,0-7.7,3.8-8.4,9.3h15.6C277.2,104.9,274.6,100.7,270.1,100.7z M270,94.6h-2l5.9-8.6l3.8,0.9L270,94.6z"/>
			</defs>
			<clipPath id="SVGID_17_">
				<use xlink:href="#SVGID_16_"  style="overflow:visible;"/>
			</clipPath>
			
				<linearGradient id="SVGID_18_" gradientUnits="userSpaceOnUse" x1="-69.9593" y1="-61.4887" x2="-65.9199" y2="-61.4887" gradientTransform="matrix(0 -9.8662 9.8662 0 876.2101 -564.4329)">
				<stop  offset="0" style="stop-color:#4F4F4E"/>
				<stop  offset="0.303" style="stop-color:#1D1C23"/>
				<stop  offset="0.8061" style="stop-color:#29272A"/>
				<stop  offset="1" style="stop-color:#1D1C23"/>
			</linearGradient>
			<rect x="259" y="85.9" class="st6" width="21.1" height="39.9"/>
		</g>
	</g>
	<g>
		<g>
			<defs>
				<path id="SVGID_19_" d="M287.5,108.1v17.2h-2.6V99.1h1.7l0.8,5.5c2-3,5.1-6,9.4-6l0.4,2.5C292.9,101.3,289.2,104.5,287.5,108.1"
					/>
			</defs>
			<clipPath id="SVGID_20_">
				<use xlink:href="#SVGID_19_"  style="overflow:visible;"/>
			</clipPath>
			
				<linearGradient id="SVGID_21_" gradientUnits="userSpaceOnUse" x1="-97.5363" y1="-56.3371" x2="-93.4991" y2="-56.3371" gradientTransform="matrix(0 -6.6016 6.6016 0 662.915 -518.663)">
				<stop  offset="0" style="stop-color:#4F4F4E"/>
				<stop  offset="0.303" style="stop-color:#1D1C23"/>
				<stop  offset="0.8061" style="stop-color:#29272A"/>
				<stop  offset="1" style="stop-color:#1D1C23"/>
			</linearGradient>
			<rect x="284.8" y="98.5" class="st7" width="12.4" height="26.7"/>
		</g>
	</g>
	<g>
		<g>
			<defs>
				<path id="SVGID_22_" d="M302.2,92c-1.2,0-2.3-1.1-2.3-2.3c0-1.2,1.1-2.2,2.3-2.2c1.2,0,2.2,1,2.2,2.2
					C304.4,91,303.4,92,302.2,92 M303.5,125.2H301V99.1h2.5V125.2z"/>
			</defs>
			<clipPath id="SVGID_23_">
				<use xlink:href="#SVGID_22_"  style="overflow:visible;"/>
			</clipPath>
			
				<linearGradient id="SVGID_24_" gradientUnits="userSpaceOnUse" x1="-73.1578" y1="-58.5402" x2="-69.115" y2="-58.5402" gradientTransform="matrix(0 -9.3252 9.3252 0 848.0494 -556.9656)">
				<stop  offset="0" style="stop-color:#4F4F4E"/>
				<stop  offset="0.303" style="stop-color:#1D1C23"/>
				<stop  offset="0.8061" style="stop-color:#29272A"/>
				<stop  offset="1" style="stop-color:#1D1C23"/>
			</linearGradient>
			<rect x="299.9" y="87.6" class="st8" width="4.5" height="37.7"/>
		</g>
	</g>
	<g>
		<g>
			<defs>
				<path id="SVGID_25_" d="M320,125.8c-6.4,0-11.5-5-11.5-13.6c0-8.7,5.1-13.6,11.7-13.6c3.3,0,6.2,1.2,8.4,2.9l-0.5,2.7
					c-2.6-2.2-5-3.3-8.1-3.3c-5.6,0-8.9,4.6-8.9,11.3c0,6.6,3.2,11.3,9,11.3c2.9,0,5.5-1,8.2-3.3l0.3,2.4
					C326.4,124.6,323.5,125.8,320,125.8"/>
			</defs>
			<clipPath id="SVGID_26_">
				<use xlink:href="#SVGID_25_"  style="overflow:visible;"/>
			</clipPath>
			
				<linearGradient id="SVGID_27_" gradientUnits="userSpaceOnUse" x1="-95.8588" y1="-53.4716" x2="-91.8139" y2="-53.4716" gradientTransform="matrix(0 -6.7422 6.7422 0 679.1664 -520.4993)">
				<stop  offset="0" style="stop-color:#4F4F4E"/>
				<stop  offset="0.303" style="stop-color:#1D1C23"/>
				<stop  offset="0.8061" style="stop-color:#29272A"/>
				<stop  offset="1" style="stop-color:#1D1C23"/>
			</linearGradient>
			<rect x="308.5" y="98.5" class="st9" width="20.3" height="27.3"/>
		</g>
	</g>
	<g>
		<g>
			<defs>
				<path id="SVGID_28_" d="M349.3,125.2l-0.6-3.5c-2.7,2.4-6,4.1-9.2,4.1c-4.4,0-7.9-2.2-7.9-6.9c0-5.8,4.5-8.9,17-10.1v-2.3
					c0-3.7-2.2-5.5-5.8-5.5c-3,0-6.1,0.8-9,2.4l-0.3-2.4c3-1.3,6-2.3,9.4-2.3c5.3,0,8.2,2.7,8.2,7.7v18.9L349.3,125.2 M348.5,110.9
					c-10.8,1.2-14.3,3.5-14.3,7.7c0,3.3,2.4,4.9,5.3,4.9c2.8,0,6.2-1.7,9-4.2V110.9z"/>
			</defs>
			<clipPath id="SVGID_29_">
				<use xlink:href="#SVGID_28_"  style="overflow:visible;"/>
			</clipPath>
			
				<linearGradient id="SVGID_30_" gradientUnits="userSpaceOnUse" x1="-96.0375" y1="-50.9085" x2="-91.9944" y2="-50.9085" gradientTransform="matrix(0 -6.7275 6.7275 0 683.7869 -520.2925)">
				<stop  offset="0" style="stop-color:#4F4F4E"/>
				<stop  offset="0.303" style="stop-color:#1D1C23"/>
				<stop  offset="0.8061" style="stop-color:#29272A"/>
				<stop  offset="1" style="stop-color:#1D1C23"/>
			</linearGradient>
			<rect x="331.5" y="98.6" class="st10" width="19.6" height="27.2"/>
		</g>
	</g>
</g>
<path class="st11" d="M79.2,13.3c0.1,1.7,1.9,2,0.9,4.1c-0.9,0.2-0.9-0.5-1.4-0.6c0,0.9,0.6,1.3,0.6,2.3c-4.1-0.2-3.9-4.6-9-3.8
	c0.5-2.2,3.1-1.1,3.5-3.8c-1.5-2.1-4.6-2.8-7-4.1c0.1-0.8,0.1-1.6,0.6-2c-2.7-1.1-5.3-2.4-7-4.6c3.4-1.1,5.5,1.1,9,0.9
	c1.7,3.5,6.5,3.7,10.5,4.9c-0.3,1.4-2.2,1.3-2.3,2.9c1.4,1.3,4.8,0.6,5.5,2.6c0.2,1.8-2.4,1.6-2,2.6C79.6,15.1,79.9,13.7,79.2,13.3"
	/>
<path class="st11" d="M79.5,37.4c-0.7-0.1-2.7,1-3.8,1.5c0,0.7,0,1.4,0,2c-0.4,0.4-1.3,0.3-2,0.3c-1.1,0.9-0.4,3.6-2.6,3.5
	c0,1,0,1.9,0,2.9c-1.7,1-2.9,2.5-4.1,4.1c0.4,1.3,2.6,5.2-0.3,5.5c-0.3-1.6-1-2.9-1.4-4.4c-3.4-1.2-6.6,0-10.2,0.3
	c-0.3,3.1-1.4,7.4,0.9,9.6c1.2,0.2,1.7-0.3,2.6-0.3c0.4-0.7,0.4-1.8,0.9-2.3c1.5,0.2,2-0.5,3.5-0.3c-0.2,1.6-0.2,3.5-0.9,4.6
	c0.8,0.7,2.4,0.5,3.2,1.1c0.1,1.9-0.4,4.5,0.6,5.5c1.7-0.2,3-0.4,4.6,0c0.6-1.8,2.6-2.3,4.4-2.9c0.2,0.8-0.4,0.8-0.3,1.5
	c2.4-0.6,4,0.9,6.7,0.3c2.2,2.9,5.6,4.7,9.6,5.8c0.2,1.7,1.1,3.2,0,4.6c0.7,1.5,4.9-1.1,4.6,1.7c3.9-0.5,4.9,1.9,7.5,2.6
	c0.5,4.1-1.8,5.3-3.2,7.5c0,3.3-1.2,5.4-1.8,8.1c-2.6,1-6.3,1-5.8,5.2c-1.1,2.5-3.1,4.1-4.4,6.4c-0.7,0-1.3,0-2,0
	c0.5,3.7-2.3,4.1-4.6,4.9c-0.4,0.1-0.3,0.7-0.3,1.2c-0.5,0-0.9,0-1.4,0c1.2,1.7-0.5,4.2-2,4.9c-0.1,1.1,1.2,0.8,0.9,2
	c-0.7,1.9-2.9,2.1-2.6,4.9c1.1,1.3,3.2,1.4,3.5,3.5c-2.8,0.1-4.1-0.1-6.1-1.1c0.1-1.4-0.4-2.2-1.4-2.3c0.4-2-2.2-4.4,0-5.5
	c0.1-0.7-1.3,0.2-0.9-0.9c0.9-1.3,1.5-2,1.5-3.8c-0.1-0.5-0.5,0.3-0.6-0.3c0-1.9,0-3.7,0-5.5c1.5-2.2,4.3-10.9,3.5-15.9
	c-0.5-3.1-4-2.6-4.9-5.5c-0.9-2.8-1.6-5.8-3.5-7.3c-0.4-4.5,1.2-7.1,2.9-9.6c0.3-1.7-1-1.7-0.9-3.2c-1.6,2.2-2.3-0.9-4.6-0.6
	c0-1.8-1.9-1.5-1.7-3.5c-1.8-1-4.4-1.2-5.5-2.9c-4.6,0.3-5.9-2.8-9-4c1.1-4-3.7-5.4-4.7-9c-0.1,1.3,2.3,4.1,1.5,6.1
	c-1.9-0.6-1.2-3.9-3.8-3.8c0-0.7-0.1-1.4,0.3-1.7c-0.4-1.7-2.6-1.6-2.3-4.1c-4-2.9-6.1-7.6-5.2-15.4c0.7,0,0.4-1.4,1.2-0.6
	c-0.3-0.9-1-0.1-1.8-0.9c0.1-0.4,0.3,0,0.6,0c-0.5-0.7-1.6-0.4-2.6-1.1c0-0.7,1-0.1,1.2,0c-0.1-0.6-0.7-0.6-1.4-0.6
	c-0.9-2.5-1.3-5.6-4.9-5.5c0.1-0.8,0.1-1.5-0.9-1.2c0-1-0.2-2.1,0.6-2.3c-1.1-0.4-0.6,0.8-1.4,0.6c-2-3.1-8.4-3.8-11.3-1.2
	c-0.1-1.3,0.4-2.1,1.2-2.6c-2,0.5-3.2,2.1-3.2,3.8c-2.6,1.5-4.7,3.5-8.4,3.8c0.7-0.8,1.9-1,2-2.3c2,0.1,3.1-0.6,3.5-2
	c-0.6-1-2.4-0.5-3.5-0.3c0-0.6,0-1.1,0-1.8c-1.7-0.1-2,0.9-3.8,0.3c-0.3-1.1,1.5-0.2,1.7-0.9c-0.2-0.5-0.4-1.2-0.9-1.4
	c0.2-0.8,0.9-1,0.9-2c0.8-0.3,2-0.1,2.6-0.6c-1.4-1.2-5.2,0-4.9-2.9c1.6,0.1,2.9-1.4,4.1,0C5,10.3,2.2,11,2.3,9.3
	c1.8-0.8,3.4-1.8,4.9-2.9c3.7,2.2,7.1-1.7,10.4-1.7c1.8,0,4.1,2.2,6.7,2.3c4.5,0.2,8.9-3.8,12.8-3.2c1.8,0.3,3.2,2.5,4.6,2.9
	c-0.5,1.9,0.9,3.1,0,3.8c2.2,0.2,4.5-1.1,4.9,1.2c0.7-3.1,4.3-1.6,7-1.2c0.8,0.2-0.2-1.4,0.6-1.2c1.1,0,1.6,0.6,1.7,1.4
	c0.8-1.9,4-1.5,6.7-1.4c0,0.6,0,1.2,0,1.8c0.5-0.3,0.6-0.9,0.6-1.8c1.5,0,2.9,0,4.4,0c-0.3,0.8-0.4,1.8-0.3,2.9
	c-1.3,0.4-2,1.5-3.2,0.6c0,1,2.4,2.1,4.1,2.3c0,0.5,0,1,0,1.5c-1.8-0.7-2.9-0.6-4.1,0.6c0.6-1.5-1.7-0.2-1.2-1.7
	c-0.9,0.5-3-0.1-2.6,1.7c-2.9-0.5-2.5,2.6-3.5,4.1c1.4,1,2.1,2.8,4.9,2.3c0.4,2.3,3.6,1.8,5.2,2.9c-0.2,1.6,0.4,2.4,0.3,3.8
	c0.9,0.2,1.1-0.3,1.8-0.3c0.3-1.6-0.6-1.9-0.6-3.2c1.6-0.1,2-1.5,2.3-2.9c-0.3-0.4-0.8-0.7-1.2-1.1c0.4-1.6,0.8-3.1,0.6-5.2
	c2.8,0.1,4.8,0.9,6.7,2c-0.2,1.5,0.4,2.1,0.6,3.2c2.1,0.6,1.4-1.5,2.3-2c1.6,0.3,1.6,2.2,3.2,2.6c-0.2,3.3,3.2,3,4.4,4.9
	c-0.2,1.8,0.6,2.8-0.3,3.8c1.6,0.7,3.3,1.9,2.6,4.1c-1.3,0.3-1.6-0.5-2.3-0.9c-0.7-0.1,0.2,1.3-0.9,0.9c0.9-1.3-0.9-0.7-2-0.9
	c0.3-1.9,1.6-2.9,2.3-4.4c-1.5-0.6-2.3,1.9-4.6,1.5c-0.9,0.3,1.1,0.2,0.6,1.2c-0.6,0.6-1.1-0.1-1.8-0.3c-0.5,0.7-1.1,1.2-0.9,2.6
	c0.4-1,2-0.2,2.3,0.6c0.9,0.1,0.7-0.9,1.8-0.6c-0.8,2.2-3.2,2.6-5.5,3.2C78.4,37.8,78.9,37.6,79.5,37.4"/>
<g class="st12">
	<path d="M436.5,112.7c-0.4,4-1.9,7.2-4.5,9.5c-2.6,2.3-6.1,3.4-10.4,3.4c-3,0-5.7-0.7-8-2.2c-2.3-1.4-4.1-3.5-5.3-6.1
		c-1.3-2.6-1.9-5.7-2-9.2v-3.5c0-3.6,0.6-6.7,1.9-9.5s3.1-4.8,5.5-6.3c2.4-1.5,5.1-2.2,8.2-2.2c4.2,0,7.6,1.1,10.1,3.4
		s4,5.5,4.5,9.6h-6.6c-0.3-2.7-1.1-4.7-2.4-5.9s-3.1-1.8-5.6-1.8c-2.9,0-5.1,1-6.6,3.1s-2.3,5.2-2.4,9.2v3.4c0,4.1,0.7,7.2,2.2,9.4
		s3.6,3.2,6.5,3.2c2.6,0,4.5-0.6,5.8-1.7c1.3-1.2,2.1-3.1,2.5-5.8H436.5z"/>
	<path d="M448,99.9c2.1-2.4,4.7-3.6,7.8-3.6c6,0,9.1,3.4,9.1,10.3v18.4h-6.3v-18.2c0-1.9-0.4-3.3-1.3-4.1c-0.8-0.8-2.1-1.2-3.7-1.2
		c-2.5,0-4.4,1.1-5.7,3.4v20.1h-6.3V85h6.3V99.9z"/>
	<path d="M471.4,89.5c0-1,0.3-1.8,0.9-2.4c0.6-0.6,1.5-1,2.6-1c1.1,0,2,0.3,2.7,1c0.6,0.6,0.9,1.5,0.9,2.4c0,1-0.3,1.8-0.9,2.4
		c-0.6,0.6-1.5,1-2.7,1c-1.1,0-2-0.3-2.6-1C471.7,91.3,471.4,90.5,471.4,89.5z M478.2,125.1h-6.3V96.9h6.3V125.1z"/>
	<path d="M491.8,125.1h-6.3V85h6.3V125.1z"/>
	<path d="M511.1,125.6c-4,0-7.3-1.3-9.8-3.8c-2.5-2.5-3.7-5.9-3.7-10.1v-0.8c0-2.8,0.5-5.3,1.6-7.5s2.6-3.9,4.6-5.2
		c2-1.2,4.2-1.9,6.6-1.9c3.8,0,6.8,1.2,8.9,3.7s3.1,5.9,3.1,10.4v2.6H504c0.2,2.3,1,4.2,2.3,5.5c1.4,1.4,3.1,2,5.1,2
		c2.9,0,5.3-1.2,7.1-3.5l3.4,3.3c-1.1,1.7-2.6,3-4.5,3.9C515.6,125.1,513.4,125.6,511.1,125.6z M510.3,101.4c-1.7,0-3.1,0.6-4.2,1.8
		s-1.8,2.9-2,5.1h12.1v-0.5c-0.1-2.1-0.7-3.7-1.7-4.8C513.5,102,512.1,101.4,510.3,101.4z"/>
</g>
<line class="st13" x1="381" y1="80.3" x2="381" y2="133.2"/>
</svg>
