<svg id="Capa_1" data-name="Capa 1" xmlns="http://www.w3.org/2000/svg" xmlns:xlink="http://www.w3.org/1999/xlink" viewBox="0 0 800 400"><defs><style>.cls-1,.cls-12,.cls-14{fill:#ccc;}.cls-2{clip-path:url(#clip-path);}.cls-3{clip-path:url(#clip-path-2);}.cls-4{clip-path:url(#clip-path-3);}.cls-5{clip-path:url(#clip-path-4);}.cls-6{clip-path:url(#clip-path-5);}.cls-7{clip-path:url(#clip-path-6);}.cls-8{clip-path:url(#clip-path-7);}.cls-9{clip-path:url(#clip-path-8);}.cls-10{clip-path:url(#clip-path-9);}.cls-11{clip-path:url(#clip-path-10);}.cls-12{fill-rule:evenodd;}.cls-13{isolation:isolate;}.cls-14{stroke:#cac7c7;stroke-miterlimit:10;}</style><clipPath id="clip-path"><path class="cls-1" d="M217.64,203v-1.67h8.93V129h-8.93v-1.68h59.93v20.76h-1.45q-1.17-10.38-6-14.73c-3.23-2.9-8.7-4.35-16.07-4.35H243.53v33.14h6.25a10.19,10.19,0,0,0,8.48-3.79q3-3.85,3-10.72v-1H263v32.81h-1.67v-1q0-6.87-3-10.72c-2-2.56-4.8-3.79-8.48-3.79h-6.25v37.5h10.94c8.82,0,15.07-1.79,18.86-5.25s5.8-9.26,5.91-17.3h1.68v24.33H217.64"/></clipPath><clipPath id="clip-path-2"><path class="cls-1" d="M332,188h1.68c-1,5.24-3.13,9.37-6.59,12.16s-7.81,4.24-13.28,4.24c-7.36,0-13.5-2.34-18.41-7.14a24.57,24.57,0,0,1-5-28,27.32,27.32,0,0,1,7-8.82,28.2,28.2,0,0,1,8.14-4.69,25.11,25.11,0,0,1,9-1.67c5.47,0,9.94,1.23,13.28,3.57a10.86,10.86,0,0,1,5,9.26,6.92,6.92,0,0,1-1.9,5.14,7.16,7.16,0,0,1-5.25,1.78,7.25,7.25,0,0,1-5.35-1.9,7,7,0,0,1-2-5.24,7.5,7.5,0,0,1,1.89-4.8,16.31,16.31,0,0,0,1.9-2.46c0-1-.67-1.89-2-2.56a12,12,0,0,0-5.35-1c-3.91,0-6.7,1.23-8.26,3.8s-2.35,7-2.35,13.73v10.37c0,7,.9,11.83,2.57,14.62s4.69,4.13,8.93,4.13a15.21,15.21,0,0,0,10.38-3.9A21,21,0,0,0,332,188"/></clipPath><clipPath id="clip-path-3"><path class="cls-1" d="M338.39,179.33a22.77,22.77,0,0,1,2.12-9.71,28.11,28.11,0,0,1,6.14-8.48,25.17,25.17,0,0,1,17.64-7,24,24,0,0,1,9.48,1.78,24.58,24.58,0,0,1,8,5.25,27.94,27.94,0,0,1,6.14,8.48,22.77,22.77,0,0,1,2.12,9.71,21.94,21.94,0,0,1-2.12,9.6,30.9,30.9,0,0,1-6.14,8.48,24.58,24.58,0,0,1-8,5.25,26.17,26.17,0,0,1-9.48,1.78A25.28,25.28,0,0,1,346,197.08a23.6,23.6,0,0,1-7.59-17.75m35.49,6.25V173c0-6.81-.67-11.38-2.12-13.73s-3.9-3.46-7.59-3.46-6.25,1.12-7.58,3.46-2.12,6.81-2.12,13.73v12.61c0,6.81.66,11.38,2.12,13.73s3.9,3.46,7.58,3.46,6.14-1.12,7.59-3.46S373.88,192.39,373.88,185.58Z"/></clipPath><clipPath id="clip-path-4"><path class="cls-1" d="M264.62,266.49l-5.91-15.06H239.18l-5.69,14.62h-3.13l17-43.08h3.23l17,42.85-2.91.67m-15.73-40.06-8.71,22.43h17.53Z"/></clipPath><clipPath id="clip-path-5"><path class="cls-1" d="M310.72,266.05V245.73c0-4.46-1.9-6.8-6.14-6.8-3.13,0-6.36,1.78-10.05,5.13v21.87h-2.79V245.62c0-4.46-1.89-6.81-6.13-6.81-3.13,0-6.48,1.79-10.05,5.14v22h-2.9v-29h2.12l.78,4.24c3.46-3,6.7-4.8,10.49-4.8,4.58,0,7.14,1.9,8.15,5.24,3.68-3.23,6.92-5.24,10.94-5.24,6,0,8.7,3.35,8.7,9.15v20.65l-3.12-.11"/></clipPath><clipPath id="clip-path-6"><path class="cls-1" d="M342.08,251.54H321.43c0,7.47,3.46,12.61,10,12.61,3.58,0,7.26-1.9,10-4.47l.45,2.79a15.94,15.94,0,0,1-10.61,4.25c-7.7,0-12.83-5.7-12.83-15.18s5.36-15.18,12.39-15.18c7.47,0,11.16,6.47,11.16,14.62v.56M330.92,238.7c-5.58,0-8.6,4.24-9.38,10.38H339C338.84,243.39,335.94,238.7,330.92,238.7Zm-.11-6.8h-2.24l6.59-9.6,4.24,1Z"/></clipPath><clipPath id="clip-path-7"><path class="cls-1" d="M350.34,247v19.2h-2.91V236.92h1.9l.89,6.14c2.24-3.35,5.7-6.7,10.5-6.7l.44,2.79c-4.8.22-8.93,3.79-10.82,7.81"/></clipPath><clipPath id="clip-path-8"><path class="cls-1" d="M366.74,229a2.67,2.67,0,0,1-2.57-2.56,2.58,2.58,0,0,1,2.57-2.46,2.51,2.51,0,0,1,0,5m1.45,37.06H365.4V236.92h2.79Z"/></clipPath><clipPath id="clip-path-9"><path class="cls-1" d="M386.61,266.72c-7.15,0-12.84-5.58-12.84-15.18s5.69-15.18,13.06-15.18a15.3,15.3,0,0,1,9.37,3.24l-.55,3c-2.9-2.46-5.58-3.68-9-3.68-6.25,0-9.94,5.13-9.94,12.61s3.58,12.61,10.05,12.61a13.6,13.6,0,0,0,9.15-3.68l.33,2.67a13.87,13.87,0,0,1-9.59,3.58"/></clipPath><clipPath id="clip-path-10"><path class="cls-1" d="M419.31,266.05l-.67-3.91c-3,2.68-6.7,4.58-10.27,4.58-4.91,0-8.82-2.46-8.82-7.71,0-6.47,5-9.93,19-11.27v-2.56c0-4.13-2.46-6.14-6.48-6.14a20.76,20.76,0,0,0-10,2.68l-.34-2.68a26,26,0,0,1,10.49-2.57c5.92,0,9.16,3,9.16,8.59v21.1l-2-.11m-.9-16c-12.05,1.34-16,3.9-16,8.59,0,3.68,2.68,5.47,5.92,5.47s6.92-1.9,10-4.69Z"/></clipPath></defs><path class="cls-1" d="M181.81,176.87H152.57v8c0,5.92.9,10.27,2.79,13s4.8,4,8.93,4a15,15,0,0,0,10.49-4.24c3-2.79,5.14-6.8,6.48-11.83H183a24.08,24.08,0,0,1-7.25,13.73c-3.68,3.35-8.26,4.91-13.73,4.91-7.25,0-13.28-2.34-18.08-7.14s-7-10.83-7-18.19a24.7,24.7,0,0,1,7-17.64,22.36,22.36,0,0,1,16.74-7.36,19.67,19.67,0,0,1,15,6.36c3.79,4.24,5.91,9.82,6.13,16.4m-15.62-1.67v-7.92c0-4.58-.45-7.59-1.56-9.15s-2.79-2.35-5.47-2.35c-2.46,0-4.24.89-5.25,2.57s-1.45,5-1.45,9.93v6.92Z"/><path class="cls-1" d="M193,129h-5.92v-1.68h8.82a58.68,58.68,0,0,0,7-.33,29.71,29.71,0,0,0,4.91-1V201.2h6.58v1.68H186.28V201.2h6.58V129"/><path id="SVGID" class="cls-1" d="M217.64,203v-1.67h8.93V129h-8.93v-1.68h59.93v20.76h-1.45q-1.17-10.38-6-14.73c-3.23-2.9-8.7-4.35-16.07-4.35H243.53v33.14h6.25a10.19,10.19,0,0,0,8.48-3.79q3-3.85,3-10.72v-1H263v32.81h-1.67v-1q0-6.87-3-10.72c-2-2.56-4.8-3.79-8.48-3.79h-6.25v37.5h10.94c8.82,0,15.07-1.79,18.86-5.25s5.8-9.26,5.91-17.3h1.68v24.33H217.64"/><path class="cls-1" d="M217.64,203v-1.67h8.93V129h-8.93v-1.68h59.93v20.76h-1.45q-1.17-10.38-6-14.73c-3.23-2.9-8.7-4.35-16.07-4.35H243.53v33.14h6.25a10.19,10.19,0,0,0,8.48-3.79q3-3.85,3-10.72v-1H263v32.81h-1.67v-1q0-6.87-3-10.72c-2-2.56-4.8-3.79-8.48-3.79h-6.25v37.5h10.94c8.82,0,15.07-1.79,18.86-5.25s5.8-9.26,5.91-17.3h1.68v24.33H217.64"/><g class="cls-2"><rect class="cls-1" x="217.64" y="127.32" width="63.17" height="75.67"/></g><path id="SVGID-2" data-name="SVGID" class="cls-1" d="M332,188h1.68c-1,5.24-3.13,9.37-6.59,12.16s-7.81,4.24-13.28,4.24c-7.36,0-13.5-2.34-18.41-7.14a24.57,24.57,0,0,1-5-28,27.32,27.32,0,0,1,7-8.82,28.2,28.2,0,0,1,8.14-4.69,25.11,25.11,0,0,1,9-1.67c5.47,0,9.94,1.23,13.28,3.57a10.86,10.86,0,0,1,5,9.26,6.92,6.92,0,0,1-1.9,5.14,7.16,7.16,0,0,1-5.25,1.78,7.25,7.25,0,0,1-5.35-1.9,7,7,0,0,1-2-5.24,7.5,7.5,0,0,1,1.89-4.8,16.31,16.31,0,0,0,1.9-2.46c0-1-.67-1.89-2-2.56a12,12,0,0,0-5.35-1c-3.91,0-6.7,1.23-8.26,3.8s-2.35,7-2.35,13.73v10.37c0,7,.9,11.83,2.57,14.62s4.69,4.13,8.93,4.13a15.21,15.21,0,0,0,10.38-3.9A21,21,0,0,0,332,188"/><path class="cls-1" d="M332,188h1.68c-1,5.24-3.13,9.37-6.59,12.16s-7.81,4.24-13.28,4.24c-7.36,0-13.5-2.34-18.41-7.14a24.57,24.57,0,0,1-5-28,27.32,27.32,0,0,1,7-8.82,28.2,28.2,0,0,1,8.14-4.69,25.11,25.11,0,0,1,9-1.67c5.47,0,9.94,1.23,13.28,3.57a10.86,10.86,0,0,1,5,9.26,6.92,6.92,0,0,1-1.9,5.14,7.16,7.16,0,0,1-5.25,1.78,7.25,7.25,0,0,1-5.35-1.9,7,7,0,0,1-2-5.24,7.5,7.5,0,0,1,1.89-4.8,16.31,16.31,0,0,0,1.9-2.46c0-1-.67-1.89-2-2.56a12,12,0,0,0-5.35-1c-3.91,0-6.7,1.23-8.26,3.8s-2.35,7-2.35,13.73v10.37c0,7,.9,11.83,2.57,14.62s4.69,4.13,8.93,4.13a15.21,15.21,0,0,0,10.38-3.9A21,21,0,0,0,332,188"/><g class="cls-3"><rect class="cls-1" x="287.95" y="154.11" width="45.76" height="50.33"/></g><path id="SVGID-3" data-name="SVGID" class="cls-1" d="M338.39,179.33a22.77,22.77,0,0,1,2.12-9.71,28.11,28.11,0,0,1,6.14-8.48,25.17,25.17,0,0,1,17.64-7,24,24,0,0,1,9.48,1.78,24.58,24.58,0,0,1,8,5.25,27.94,27.94,0,0,1,6.14,8.48,22.77,22.77,0,0,1,2.12,9.71,21.94,21.94,0,0,1-2.12,9.6,30.9,30.9,0,0,1-6.14,8.48,24.58,24.58,0,0,1-8,5.25,26.17,26.17,0,0,1-9.48,1.78A25.28,25.28,0,0,1,346,197.08a23.6,23.6,0,0,1-7.59-17.75m35.49,6.25V173c0-6.81-.67-11.38-2.12-13.73s-3.9-3.46-7.59-3.46-6.25,1.12-7.58,3.46-2.12,6.81-2.12,13.73v12.61c0,6.81.66,11.38,2.12,13.73s3.9,3.46,7.58,3.46,6.14-1.12,7.59-3.46S373.88,192.39,373.88,185.58Z"/><path class="cls-1" d="M338.39,179.33a22.77,22.77,0,0,1,2.12-9.71,28.11,28.11,0,0,1,6.14-8.48,25.17,25.17,0,0,1,17.64-7,24,24,0,0,1,9.48,1.78,24.58,24.58,0,0,1,8,5.25,27.94,27.94,0,0,1,6.14,8.48,22.77,22.77,0,0,1,2.12,9.71,21.94,21.94,0,0,1-2.12,9.6,30.9,30.9,0,0,1-6.14,8.48,24.58,24.58,0,0,1-8,5.25,26.17,26.17,0,0,1-9.48,1.78A25.28,25.28,0,0,1,346,197.08a23.6,23.6,0,0,1-7.59-17.75m35.49,6.25V173c0-6.81-.67-11.38-2.12-13.73s-3.9-3.46-7.59-3.46-6.25,1.12-7.58,3.46-2.12,6.81-2.12,13.73v12.61c0,6.81.66,11.38,2.12,13.73s3.9,3.46,7.58,3.46,6.14-1.12,7.59-3.46S373.88,192.39,373.88,185.58Z"/><g class="cls-4"><rect class="cls-1" x="338.39" y="154.11" width="51.56" height="50.33"/></g><path class="cls-1" d="M415.29,201.32h6.36V203H393.86v-1.67h6.47v-44.2h-6.47v-1.67h8.82a57.33,57.33,0,0,0,6.81-.34,35.32,35.32,0,0,0,5.13-1v10.6a22.53,22.53,0,0,1,7.59-7.92,19.28,19.28,0,0,1,10-2.68c4.91,0,8.71,1.23,11.5,3.79s4.13,6,4.13,10.38v33h6.36V203H426.67v-1.67h6.25V165.83c0-3.13-.44-5.36-1.34-6.48s-2.34-1.78-4.35-1.78a10.61,10.61,0,0,0-8.48,4.13,16.31,16.31,0,0,0-3.35,10.6l-.11,29"/><path class="cls-1" d="M458.26,179.33a22.77,22.77,0,0,1,2.12-9.71,27.94,27.94,0,0,1,6.14-8.48,25.12,25.12,0,0,1,17.63-7,24,24,0,0,1,9.48,1.78,24.47,24.47,0,0,1,8,5.25,27.94,27.94,0,0,1,6.14,8.48,22.77,22.77,0,0,1,2.12,9.71,21.94,21.94,0,0,1-2.12,9.6,28.77,28.77,0,0,1-6.14,8.48,26.74,26.74,0,0,1-8,5.36,26.17,26.17,0,0,1-9.48,1.78,25.26,25.26,0,0,1-18.3-7.36,24,24,0,0,1-7.59-17.86m35.49,6.25V173c0-6.81-.78-11.38-2.12-13.73s-4-3.46-7.59-3.46-6.14,1.12-7.7,3.46-2.12,6.81-2.12,13.73v12.61c0,6.81.67,11.38,2.12,13.73s4,3.46,7.7,3.46,6.14-1.12,7.59-3.46S493.75,192.39,493.75,185.58Z"/><path class="cls-1" d="M578,203v-1.67h6.14V165.94c0-3.13-.45-5.36-1.23-6.48s-2.23-1.78-4.36-1.78a10.59,10.59,0,0,0-8.37,4.13,16.3,16.3,0,0,0-3.34,10.6v28.91H573V203H546v-1.67h6.25V165.94c0-3.13-.45-5.36-1.23-6.48s-2.23-1.78-4.35-1.78a10.56,10.56,0,0,0-8.37,4.13,16.25,16.25,0,0,0-3.35,10.6v28.91h6.14V203H513.83v-1.67h6.37v-44.2h-6.37v-1.67h8.6a59.13,59.13,0,0,0,6.69-.34,30.23,30.23,0,0,0,5.14-1v10.6a22.74,22.74,0,0,1,7.25-7.92,18.23,18.23,0,0,1,9.82-2.68,16.92,16.92,0,0,1,10,2.79,11.58,11.58,0,0,1,4.91,7.59,20.37,20.37,0,0,1,7.14-7.82,18.31,18.31,0,0,1,9.82-2.67c4.8,0,8.6,1.22,11.39,3.79a13.46,13.46,0,0,1,4.24,10.38v33H605v1.68L578,203"/><path class="cls-1" d="M614.84,157.12h-6.59v-1.67h8.82a62.17,62.17,0,0,0,6.92-.34,37.72,37.72,0,0,0,5.69-1v47.21h6.58V203H608.14v-1.67h6.58l.12-44.2m-.67-22.54a8.37,8.37,0,0,1,14.17-5.92,7.77,7.77,0,0,1,2.46,5.92,8.17,8.17,0,0,1-2.46,6,8,8,0,0,1-5.91,2.57,7.6,7.6,0,0,1-5.92-2.45A8.63,8.63,0,0,1,614.17,134.58Z"/><path class="cls-1" d="M642.29,204.33V186.58H644c2.46,5.58,5.25,9.6,8.15,12.17a14.63,14.63,0,0,0,10,3.91,10.47,10.47,0,0,0,7.14-2.46,8.77,8.77,0,0,0,2.68-6.7c0-3.68-3.69-6-10.94-7.14-1.56-.22-2.79-.45-3.57-.56-5.47-1-9.49-2.56-11.83-4.91s-3.57-5.58-3.57-9.71a16.49,16.49,0,0,1,4.8-12.05,15.34,15.34,0,0,1,11.71-5,23.36,23.36,0,0,1,7.48,1.34,44.56,44.56,0,0,0,4.35,1.34,2.5,2.5,0,0,0,1.79-.56,6.64,6.64,0,0,0,1.23-1.68h1.78v15.18h-1.78a23.39,23.39,0,0,0-6.14-10.38,13.9,13.9,0,0,0-9.38-3.46,10.66,10.66,0,0,0-7,2.35,7.35,7.35,0,0,0-2.79,5.91,6.7,6.7,0,0,0,.79,3,7.67,7.67,0,0,0,2.34,2.34c1,.67,3.24,1.12,6.69,1.45a60,60,0,0,1,7.82,1.12c4.57,1,7.81,2.67,9.82,5s3,5.58,3,9.6c0,5.35-1.67,9.59-4.91,12.83s-7.48,4.91-12.83,4.91a25.3,25.3,0,0,1-6.7-1.23,20.17,20.17,0,0,0-5.58-1.22,7.71,7.71,0,0,0-3,.55,3.35,3.35,0,0,0-1.68,1.79h-1.56"/><path class="cls-1" d="M683.58,155.45h.23a15.61,15.61,0,0,0,12.38-5.81c3.35-3.9,5.59-9.37,6.7-16.51h1.68v22.32h10.26v1.67H704.57v35.71a13,13,0,0,0,.89,5.58,2.85,2.85,0,0,0,2.79,1.68,5.4,5.4,0,0,0,3.35-1.23,10.89,10.89,0,0,0,2.9-3.35l1.45.9a14.74,14.74,0,0,1-5.58,5.8,15.9,15.9,0,0,1-8.15,2.12c-4.46,0-7.7-1.23-9.6-3.57s-2.9-6.7-2.9-12.72V157.12h-6l-.12-1.67"/><path class="cls-1" d="M763.72,191.16c0,3,.22,5.13.78,6.25a2.63,2.63,0,0,0,2.56,1.67,2.57,2.57,0,0,0,2.24-1.34,11.65,11.65,0,0,0,1.67-4h1.45a11.71,11.71,0,0,1-3.68,7.59,11,11,0,0,1-7.82,2.9,12.31,12.31,0,0,1-7.14-1.79,10.21,10.21,0,0,1-4-5.58,11.65,11.65,0,0,1-5,5.58,17,17,0,0,1-8.26,1.9c-6.36,0-11.16-1.23-14.5-3.57a11.6,11.6,0,0,1-5-10.16c0-5.24,2.68-9,8-11.6s13.5-3.8,24.33-3.8v-6.7c0-5.35-.78-8.81-2.12-10.37s-4.24-2.24-8.37-2.24a15.25,15.25,0,0,0-6.25,1.12c-1.79.78-2.68,1.56-2.68,2.34,0,.34.45.67,1.45,1.34a10.9,10.9,0,0,1,2.23,1.56,4.65,4.65,0,0,1,1.23,1.79,5.23,5.23,0,0,1,.45,2.34,5.56,5.56,0,0,1-1.68,4.36,6.31,6.31,0,0,1-4.69,1.56,7.72,7.72,0,0,1-5.35-1.67,6.41,6.41,0,0,1-1.9-4.92c0-3.46,1.79-6.25,5.25-8.48S735,154,741,154a38.93,38.93,0,0,1,9.15,1,24.42,24.42,0,0,1,7.37,3,14,14,0,0,1,4.79,4.8c.9,1.79,1.34,4.69,1.34,8.6l.12,19.75M749.43,177h-1c-6.48,0-10.83.78-12.84,2.23s-3.12,4.69-3.12,9.37.55,7.93,1.78,9.82,3.13,2.91,5.92,2.91a8.15,8.15,0,0,0,6.92-3.24q2.34-3.18,2.34-9.71V177Z"/><path class="cls-1" d="M264.62,266.49l-5.91-15.06H239.18l-5.69,14.62h-3.13l17-43.08h3.23l17,42.85-2.91.67m-15.73-40.06-8.71,22.43h17.53Z"/><g class="cls-5"><rect class="cls-1" x="230.36" y="222.97" width="37.16" height="43.53"/></g><path class="cls-1" d="M310.72,266.05V245.73c0-4.46-1.9-6.8-6.14-6.8-3.13,0-6.36,1.78-10.05,5.13v21.87h-2.79V245.62c0-4.46-1.89-6.81-6.13-6.81-3.13,0-6.48,1.79-10.05,5.14v22h-2.9v-29h2.12l.78,4.24c3.46-3,6.7-4.8,10.49-4.8,4.58,0,7.14,1.9,8.15,5.24,3.68-3.23,6.92-5.24,10.94-5.24,6,0,8.7,3.35,8.7,9.15v20.65l-3.12-.11"/><g class="cls-6"><rect class="cls-1" x="272.55" y="236.25" width="41.07" height="29.8"/></g><path class="cls-1" d="M342.08,251.54H321.43c0,7.47,3.46,12.61,10,12.61,3.58,0,7.26-1.9,10-4.47l.45,2.79a15.94,15.94,0,0,1-10.61,4.25c-7.7,0-12.83-5.7-12.83-15.18s5.36-15.18,12.39-15.18c7.47,0,11.16,6.47,11.16,14.62v.56M330.92,238.7c-5.58,0-8.6,4.24-9.38,10.38H339C338.84,243.39,335.94,238.7,330.92,238.7Zm-.11-6.8h-2.24l6.59-9.6,4.24,1Z"/><g class="cls-7"><rect class="cls-1" x="318.53" y="222.19" width="23.55" height="44.53"/></g><path class="cls-1" d="M350.34,247v19.2h-2.91V236.92h1.9l.89,6.14c2.24-3.35,5.7-6.7,10.5-6.7l.44,2.79c-4.8.22-8.93,3.79-10.82,7.81"/><g class="cls-8"><rect class="cls-1" x="347.32" y="236.25" width="13.84" height="29.8"/></g><path class="cls-1" d="M366.74,229a2.67,2.67,0,0,1-2.57-2.56,2.58,2.58,0,0,1,2.57-2.46,2.51,2.51,0,0,1,0,5m1.45,37.06H365.4V236.92h2.79Z"/><g class="cls-9"><rect class="cls-1" x="364.17" y="224.08" width="5.02" height="42.07"/></g><path class="cls-1" d="M386.61,266.72c-7.15,0-12.84-5.58-12.84-15.18s5.69-15.18,13.06-15.18a15.3,15.3,0,0,1,9.37,3.24l-.55,3c-2.9-2.46-5.58-3.68-9-3.68-6.25,0-9.94,5.13-9.94,12.61s3.58,12.61,10.05,12.61a13.6,13.6,0,0,0,9.15-3.68l.33,2.67a13.87,13.87,0,0,1-9.59,3.58"/><g class="cls-10"><rect class="cls-1" x="373.77" y="236.25" width="22.66" height="30.47"/></g><path class="cls-1" d="M419.31,266.05l-.67-3.91c-3,2.68-6.7,4.58-10.27,4.58-4.91,0-8.82-2.46-8.82-7.71,0-6.47,5-9.93,19-11.27v-2.56c0-4.13-2.46-6.14-6.48-6.14a20.76,20.76,0,0,0-10,2.68l-.34-2.68a26,26,0,0,1,10.49-2.57c5.92,0,9.16,3,9.16,8.59v21.1l-2-.11m-.9-16c-12.05,1.34-16,3.9-16,8.59,0,3.68,2.68,5.47,5.92,5.47s6.92-1.9,10-4.69Z"/><g class="cls-11"><rect class="cls-1" x="399.44" y="236.36" width="21.87" height="30.36"/></g><path class="cls-12" d="M117.87,141.16c.11,1.9,2.12,2.23,1,4.58-1,.22-1-.56-1.56-.67,0,1,.67,1.45.67,2.56-4.58-.22-4.35-5.13-10-4.24.56-2.45,3.46-1.22,3.91-4.24-1.67-2.34-5.13-3.12-7.81-4.57.11-.9.11-1.79.67-2.23-3-1.23-5.92-2.68-7.82-5.14,3.8-1.23,6.14,1.23,10.05,1,1.9,3.9,7.25,4.13,11.72,5.46-.34,1.57-2.46,1.46-2.57,3.24,1.56,1.45,5.36.67,6.14,2.9.22,2-2.68,1.79-2.23,2.9-1.68.45-1.34-1.11-2.12-1.56"/><path class="cls-12" d="M118.2,168.06c-.78-.11-3,1.11-4.24,1.67V172c-.45.45-1.45.34-2.23.34-1.23,1-.45,4-2.9,3.91v3.23a16.24,16.24,0,0,0-4.58,4.58c.45,1.45,2.9,5.8-.33,6.14-.34-1.79-1.12-3.24-1.57-4.91-3.79-1.34-7.36,0-11.38.33-.34,3.46-1.56,8.26,1,10.71,1.34.23,1.9-.33,2.91-.33.44-.78.44-2,1-2.57,1.67.23,2.23-.56,3.91-.33-.23,1.78-.23,3.9-1,5.13.89.78,2.68.56,3.57,1.23.11,2.12-.44,5,.67,6.14a13.08,13.08,0,0,1,5.14,0c.67-2,2.9-2.57,4.91-3.24.22.89-.45.89-.34,1.67,2.68-.67,4.47,1,7.48.34,2.45,3.24,6.25,5.24,10.71,6.47.23,1.9,1.23,3.57,0,5.14.78,1.67,5.47-1.23,5.14,1.89,4.35-.55,5.47,2.12,8.37,2.9.56,4.58-2,5.92-3.57,8.38,0,3.68-1.34,6-2,9-2.9,1.11-7,1.11-6.48,5.8-1.22,2.79-3.46,4.57-4.91,7.14h-2.23c.56,4.13-2.57,4.58-5.13,5.47-.45.11-.34.78-.34,1.34H118.2c1.34,1.9-.56,4.69-2.23,5.47-.11,1.23,1.34.89,1,2.23-.78,2.12-3.23,2.34-2.9,5.47,1.23,1.45,3.57,1.56,3.91,3.9-3.13.12-4.58-.11-6.81-1.22.11-1.57-.45-2.46-1.56-2.57.44-2.23-2.46-4.91,0-6.14.11-.78-1.45.22-1-1,1-1.45,1.68-2.23,1.68-4.24-.11-.56-.56.33-.67-.34v-6.14c1.67-2.45,4.8-12.16,3.9-17.74-.55-3.46-4.46-2.9-5.47-6.14s-1.78-6.47-3.9-8.15c-.45-5,1.34-7.92,3.24-10.71.33-1.9-1.12-1.9-1-3.57-1.78,2.45-2.57-1-5.13-.67,0-2-2.12-1.68-1.9-3.91-2-1.11-4.91-1.34-6.14-3.23-5.13.33-6.58-3.13-10-4.47,1.22-4.46-4.13-6-5.25-10-.11,1.45,2.57,4.57,1.68,6.8-2.12-.66-1.34-4.35-4.24-4.24,0-.78-.12-1.56.33-1.89-.45-1.9-2.9-1.79-2.57-4.58-4.46-3.24-6.8-8.48-5.8-17.19.78,0,.45-1.56,1.34-.67-.34-1-1.12-.11-2-1,.11-.45.33,0,.67,0-.56-.78-1.79-.45-2.9-1.23,0-.78,1.11-.11,1.34,0-.11-.67-.78-.67-1.57-.67-1-2.79-1.45-6.25-5.46-6.14.11-.89.11-1.67-1-1.33,0-1.12-.22-2.35.67-2.57-1.23-.45-.67.89-1.56.67-2.23-3.46-9.38-4.24-12.61-1.34a2.86,2.86,0,0,1,1.34-2.9A4.45,4.45,0,0,0,42,150.65c-2.91,1.67-5.25,3.9-9.38,4.24.78-.89,2.12-1.12,2.23-2.57,2.24.11,3.46-.67,3.91-2.23-.67-1.12-2.68-.56-3.91-.33v-2c-1.89-.12-2.23,1-4.24.33-.33-1.23,1.68-.22,1.9-1-.22-.56-.45-1.34-1-1.57.23-.89,1-1.11,1-2.23.89-.33,2.23-.11,2.9-.67-1.56-1.34-5.8,0-5.47-3.23,1.79.11,3.24-1.57,4.58,0,.56-1.57-2.57-.79-2.46-2.68a29.55,29.55,0,0,0,5.47-3.24c4.13,2.46,7.93-1.9,11.61-1.9,2,0,4.57,2.46,7.48,2.57,5,.22,9.93-4.24,14.28-3.57,2,.33,3.57,2.79,5.13,3.24-.55,2.12,1,3.46,0,4.24,2.46.22,5-1.23,5.47,1.34.78-3.46,4.8-1.79,7.82-1.34.89.22-.23-1.57.67-1.34a1.69,1.69,0,0,1,1.89,1.56c.9-2.12,4.47-1.67,7.48-1.56v2c.56-.34.67-1,.67-2h4.91a7.36,7.36,0,0,0-.33,3.23c-1.46.45-2.24,1.68-3.58.67,0,1.12,2.68,2.35,4.58,2.57v1.67c-2-.78-3.24-.66-4.58.67.67-1.67-1.89-.22-1.34-1.89-1,.56-3.34-.11-2.9,1.89-3.23-.55-2.79,2.91-3.9,4.58,1.56,1.12,2.34,3.12,5.47,2.57.44,2.56,4,2,5.8,3.23-.22,1.79.45,2.68.33,4.24,1,.23,1.23-.33,2-.33.34-1.79-.67-2.12-.67-3.57,1.79-.11,2.23-1.68,2.57-3.24a16.45,16.45,0,0,0-1.34-1.23,15.65,15.65,0,0,0,.67-5.8,15.25,15.25,0,0,1,7.48,2.23c-.23,1.68.44,2.35.67,3.57,2.34.67,1.56-1.67,2.56-2.23,1.79.34,1.79,2.46,3.58,2.9-.23,3.69,3.57,3.35,4.91,5.47-.23,2,.67,3.13-.34,4.24,1.79.78,3.68,2.12,2.9,4.58-1.45.33-1.78-.56-2.56-1-.79-.11.22,1.46-1,1,1-1.45-1-.78-2.23-1,.33-2.12,1.79-3.23,2.57-4.91-1.68-.67-2.57,2.12-5.14,1.68-1,.33,1.23.22.67,1.34-.67.67-1.23-.11-2-.34a3.34,3.34,0,0,0-1,2.9c.45-1.11,2.23-.22,2.57.67,1,.12.78-1,2-.67-.89,2.46-3.57,2.91-6.13,3.58-.23-1.46.33-1.68,1-1.9"/><g class="cls-13"><path class="cls-1" d="M516.63,252.1a15.72,15.72,0,0,1-5,10.6c-2.9,2.56-6.8,3.79-11.6,3.79a16,16,0,0,1-8.93-2.45,15.4,15.4,0,0,1-5.92-6.81A24.39,24.39,0,0,1,482.92,247v-3.9A24.71,24.71,0,0,1,485,232.45a15.84,15.84,0,0,1,6.14-7,16.81,16.81,0,0,1,9.15-2.45c4.69,0,8.48,1.22,11.27,3.79s4.47,6.14,5,10.72h-7.37c-.34-3-1.23-5.25-2.68-6.59s-3.46-2-6.25-2a8.43,8.43,0,0,0-7.36,3.46c-1.68,2.35-2.57,5.81-2.68,10.27v3.79c0,4.58.78,8,2.45,10.49a8.08,8.08,0,0,0,7.26,3.58c2.9,0,5-.67,6.47-1.9s2.34-3.46,2.79-6.47Z"/><path class="cls-1" d="M529.46,237.81a11.09,11.09,0,0,1,8.7-4c6.7,0,10.16,3.8,10.16,11.5v20.53h-7V245.51c0-2.12-.45-3.68-1.45-4.57a5.72,5.72,0,0,0-4.13-1.34,6.86,6.86,0,0,0-6.36,3.79v22.43h-7V221.18h7v16.63Z"/><path class="cls-1" d="M555.57,226.2a3.6,3.6,0,0,1,1-2.67,4.46,4.46,0,0,1,5.91,0,3.78,3.78,0,0,1,1,2.67,3.62,3.62,0,0,1-1,2.68,4.12,4.12,0,0,1-3,1.12,3.66,3.66,0,0,1-3.91-3.8Zm7.59,39.73h-7V234.46h7Z"/><path class="cls-1" d="M578.34,265.93h-7V221.18h7Z"/><path class="cls-1" d="M599.88,266.49a14.9,14.9,0,0,1-10.94-4.24c-2.79-2.79-4.13-6.58-4.13-11.27v-.89a18.39,18.39,0,0,1,1.79-8.37,14.39,14.39,0,0,1,5.13-5.81,14.17,14.17,0,0,1,7.37-2.12c4.24,0,7.59,1.34,9.93,4.13s3.46,6.59,3.46,11.61v2.9H592a9.68,9.68,0,0,0,2.56,6.14,7.68,7.68,0,0,0,5.7,2.23,9.68,9.68,0,0,0,7.92-3.91l3.79,3.69a11.89,11.89,0,0,1-5,4.35A15.94,15.94,0,0,1,599.88,266.49Zm-.89-27a6.08,6.08,0,0,0-4.69,2,9.45,9.45,0,0,0-2.23,5.7h13.5v-.56a8.36,8.36,0,0,0-1.89-5.36A6.39,6.39,0,0,0,599,239.48Z"/></g><line class="cls-14" x1="454.69" y1="215.94" x2="454.69" y2="274.97"/></svg>