<svg id="Capa_1" data-name="Capa 1" xmlns="http://www.w3.org/2000/svg" viewBox="0 0 800 400"><defs><style>.cls-1{fill:#ccc;}</style></defs><g id="_005f9fff" data-name="#005f9fff"><path id="path6" class="cls-1" d="M107.51,117.73c18.12-4.35,37.82-3.43,55.07,3.89,16.61,7,29.73,21.16,36.17,37.91,6.12,14.95,6.83,31.4,6.23,47.36-.18,3.74-4,6.36-7.55,6.11q-43.23,0-86.46,0c-4.82.05-9.69-.37-14.43.64a30.69,30.69,0,0,0,10,26.75c6.92,6.34,16.48,9.11,25.73,9.36,8.25.15,16.76-.5,24.33-4,5-2.24,9.32-5.67,13.8-8.77,1.67-1.29,4.38-2.16,5.89-.17,6.68,6.47,13.92,12.36,20.3,19.09,2.06,2.55-.81,5.31-2.78,6.8-19.51,14.43-43.7,24.27-68.32,22-18.2-1-37.09-6.52-50.34-19.62C62.12,252.57,56.05,234.57,54,217c-2.39-22.55-.65-46.56,10.6-66.71a67.14,67.14,0,0,1,42.89-32.55M103,161.88c-4.7,6.53-6.63,14.67-6.95,22.61q33.12,0,66.23,0c-.61-8-2.32-16.29-7.26-22.82C142.91,145.41,114.89,145.54,103,161.88Z"/><path id="path8" class="cls-1" d="M548,140.47c-.1-2.09.23-5.08,2.88-5.29,6-.29,12-.13,18-.08a3.24,3.24,0,0,1,3.33,3.08c.26,5.62,0,11.26.08,16.89,5.21.08,10.42-.14,15.63.07a3.15,3.15,0,0,1,3.22,3.32c.14,4.9.08,9.81,0,14.71a4,4,0,0,1-2.45,4.12c-4.74.67-9.57-.29-14.3.54-1.78.4-2.13,2.6-2.06,4.14,0,12,0,24,0,36,.09,4.12.35,9,3.79,11.77,3.48,3,8.41,1.29,12.56,2,1.1.62,2.4,1.61,2.38,3,.22,4.91.15,9.85,0,14.77.06,1.66-1.32,3.56-3.13,3.36-9.59,0-20.18,1.38-28.63-4.22-8-5-11.31-14.88-11.34-23.93-.09-28.1,0-56.21,0-84.31Z"/><path id="path10" class="cls-1" d="M706.22,135.34c6.19-.61,12.47-.22,18.71-.22,2.29-.14,3.71,2.17,3.36,4.25q0,39.33,0,78.64c.16,4.31.33,9.61,4.35,12.21,4.27,3.1,10.25-.31,14.47,2.58,1.66,3.39.53,7.42.87,11.07-.3,2.94,1,6.83-1.86,8.88-10.27.25-21.63,1.79-30.75-4.07-8-5-11.43-14.88-11.33-24q0-42.08,0-84.16c0-1.9-.15-4.58,2.19-5.21Z"/><path id="path12" class="cls-1" d="M353.62,163.33c10.85-11.05,27.6-14.35,42.46-11.66,11.32,1.79,22.08,8.17,28.3,17.91,7.48,11.11,9,25.15,7.87,38.19-.53,2.08-2.89,2.85-4.81,2.63H370.15c-1.43.1-3.25-.24-3.93,1.37-.28,6.73,3,13.68,8.83,17.24,6.8,4.44,15.46,4.35,23.17,3,5.89-1.12,10.37-5.34,15.47-8.17,4.73,4.46,10,8.46,14.2,13.42-.07,2.21-2.06,3.4-3.61,4.6C413.14,249.52,399.8,255,386,254.2c-12.68-.26-26.12-4.25-34.66-14.12-8.95-10.27-11.48-24.5-11.41-37.74-.12-14,3.66-28.75,13.65-39M371,178.51c-3.47,4.05-4.46,9.48-5.06,14.62,13.47,0,26.92,0,40.39,0-.19-7.69-3.58-16.11-11-19.36C387.39,170.32,376.73,171.48,371,178.51Z"/><path id="path14" class="cls-1" d="M470.66,160.33c8.63-6.92,19.89-11,31-9.13a32.85,32.85,0,0,1,24.57,15.13c5.58,8.64,5.57,19.33,5.45,29.24q0,26.38,0,52.78c.25,2-.85,4.8-3.24,4.59-6.76.14-13.53.14-20.27,0a3,3,0,0,1-3.14-3.4c-.1-18.38.05-36.76-.06-55.13,0-6.93-2-14.95-8.43-18.66a20.15,20.15,0,0,0-18.82.47c-5.18,3-7.86,9-7.75,14.85-.07,19.11,0,38.21,0,57.31.22,2-.77,4.72-3.19,4.55-6.75.15-13.53.1-20.29,0-2.48.23-3.5-2.62-3.23-4.64,0-30.7,0-61.41,0-92.13a3.68,3.68,0,0,1,3.25-4.17c4.49-.24,9,0,13.51-.09,3.09,0,6.5-.48,9.09,1.6.12,2.35-.43,5,1.54,6.8Z"/><path id="path16" class="cls-1" d="M638.23,151.55c12-2,25-.2,35.46,6.42,9.58,6.1,16,16.41,18.38,27.42,1.71,7.05,1.53,14.36,1.32,21.55,0,2.25-2.33,3.65-4.39,3.43-16.47.09-32.94,0-49.43,0-4.18.08-8.47-.45-12.57.7.2,5.7,1.78,11.68,6.15,15.63,6.86,6.57,17.26,6.88,26.08,5.25,5.79-1.07,10.14-5.26,15.16-7.94,1.73.47,2.86,2.05,4.2,3.16,3.58,3.71,7.9,6.69,10.94,10.9-12.2,11-29,17.56-45.54,15.94-11.52-.75-23.42-4.79-31.25-13.62-9-10-11.7-24-11.71-37-.28-13.43,2.81-27.61,11.77-38,6.37-7.58,15.71-12.32,25.43-13.83m-7.42,28.71c-2.5,3.82-3.38,8.4-3.75,12.86q20.27.06,40.54,0c-.67-4.68-1.42-9.58-4.27-13.5C656,169.06,637.65,169.28,630.81,180.26Z"/></g><g id="_f57917ff" data-name="#f57917ff"><path id="path19" class="cls-1" d="M238.31,125.51a8.84,8.84,0,0,1,9.12,2c14.89,12.61,24.93,30.43,29.31,49.35,6.31,27.86,1.88,58.7-14.77,82.26a82.49,82.49,0,0,1-16.74,17.95,7.87,7.87,0,0,1-10.19-.23c-4.95-4.4-9.89-8.81-14.72-13.33a4.87,4.87,0,0,1,.17-7.73A74.86,74.86,0,0,0,245,202.27c.25-19.76-7.1-40.19-22.17-53.4-1.68-1.58-4.31-3.6-2.95-6.21,1.89-3.52,5.47-5.67,8.26-8.43,3.43-2.84,6.31-6.44,10.19-8.72Z"/></g></svg>