<?xml version="1.0" encoding="utf-8"?>
<!-- Generator: Adobe Illustrator 26.0.0, SVG Export Plug-In . SVG Version: 6.00 Build 0)  -->
<svg version="1.1" id="Capa_1" xmlns="http://www.w3.org/2000/svg" xmlns:xlink="http://www.w3.org/1999/xlink" x="0px" y="0px"
	 viewBox="0 0 800 400" style="enable-background:new 0 0 800 400;" xml:space="preserve">
<style type="text/css">
	.st0{fill:#AAAAAA;}
</style>
<g id="_005f9fff">
	<path id="path6" class="st0" d="M107.5,117.7c18.1-4.3,37.8-3.4,55.1,3.9c16.6,7,29.7,21.2,36.2,37.9c6.1,14.9,6.8,31.4,6.2,47.4
		c-0.2,3.7-4,6.4-7.6,6.1c-28.8,0-57.6,0-86.5,0c-4.8,0.1-9.7-0.4-14.4,0.6c-1.3,10,2.5,20,10,26.8c6.9,6.3,16.5,9.1,25.7,9.4
		c8.2,0.1,16.8-0.5,24.3-4c5-2.2,9.3-5.7,13.8-8.8c1.7-1.3,4.4-2.2,5.9-0.2c6.7,6.5,13.9,12.4,20.3,19.1c2.1,2.5-0.8,5.3-2.8,6.8
		c-19.5,14.4-43.7,24.3-68.3,22c-18.2-1-37.1-6.5-50.3-19.6C62.1,252.6,56,234.6,54,217c-2.4-22.6-0.7-46.6,10.6-66.7
		C73.7,133.9,89.3,122.1,107.5,117.7 M103,161.9c-4.7,6.5-6.6,14.7-6.9,22.6c22.1,0,44.2,0,66.2,0c-0.6-8-2.3-16.3-7.3-22.8
		C142.9,145.4,114.9,145.5,103,161.9z"/>
	<path id="path8" class="st0" d="M548,140.5c-0.1-2.1,0.2-5.1,2.9-5.3c6-0.3,12-0.1,18-0.1c1.8-0.1,3.2,1.3,3.3,3.1
		c0.3,5.6,0,11.3,0.1,16.9c5.2,0.1,10.4-0.1,15.6,0.1c1.7,0,3.2,1.3,3.2,3.1c0,0.1,0,0.2,0,0.2c0.1,4.9,0.1,9.8,0,14.7
		c0.2,1.8-0.8,3.4-2.5,4.1c-4.7,0.7-9.6-0.3-14.3,0.5c-1.8,0.4-2.1,2.6-2.1,4.1c0,12,0,24,0,36c0.1,4.1,0.3,9,3.8,11.8
		c3.5,3,8.4,1.3,12.6,2c1.1,0.6,2.4,1.6,2.4,3c0.2,4.9,0.2,9.9,0,14.8c0.1,1.7-1.3,3.6-3.1,3.4c-9.6,0-20.2,1.4-28.6-4.2
		c-8-5-11.3-14.9-11.3-23.9C547.9,196.6,548,168.5,548,140.5L548,140.5z"/>
	<path id="path10" class="st0" d="M706.2,135.3c6.2-0.6,12.5-0.2,18.7-0.2c2.3-0.1,3.7,2.2,3.4,4.2c0,26.2,0,52.4,0,78.6
		c0.2,4.3,0.3,9.6,4.3,12.2c4.3,3.1,10.2-0.3,14.5,2.6c1.7,3.4,0.5,7.4,0.9,11.1c-0.3,2.9,1,6.8-1.9,8.9
		c-10.3,0.2-21.6,1.8-30.8-4.1c-8-5-11.4-14.9-11.3-24c0-28.1,0-56.1,0-84.2C704,138.6,703.9,135.9,706.2,135.3L706.2,135.3z"/>
	<path id="path12" class="st0" d="M353.6,163.3c10.9-11.1,27.6-14.4,42.5-11.7c11.3,1.8,22.1,8.2,28.3,17.9
		c7.5,11.1,9,25.1,7.9,38.2c-0.5,2.1-2.9,2.9-4.8,2.6h-57.3c-1.4,0.1-3.2-0.2-3.9,1.4c-0.3,6.7,3,13.7,8.8,17.2
		c6.8,4.4,15.5,4.4,23.2,3c5.9-1.1,10.4-5.3,15.5-8.2c4.7,4.5,10,8.5,14.2,13.4c-0.1,2.2-2.1,3.4-3.6,4.6
		c-11.1,7.7-24.5,13.1-38.3,12.3c-12.7-0.3-26.1-4.2-34.7-14.1c-9-10.3-11.5-24.5-11.4-37.7C339.8,188.3,343.6,173.6,353.6,163.3
		 M371,178.5c-3.5,4.1-4.5,9.5-5.1,14.6c13.5,0,26.9,0,40.4,0c-0.2-7.7-3.6-16.1-11-19.4C387.4,170.3,376.7,171.5,371,178.5z"/>
	<path id="path14" class="st0" d="M470.7,160.3c8.6-6.9,19.9-11,31-9.1c10.1,1,19.2,6.6,24.6,15.1c5.6,8.6,5.6,19.3,5.5,29.2
		c0,17.6,0,35.2,0,52.8c0.2,2-0.8,4.8-3.2,4.6c-6.8,0.1-13.5,0.1-20.3,0c-1.7,0.1-3.1-1.2-3.2-2.8c0-0.2,0-0.4,0-0.6
		c-0.1-18.4,0-36.8-0.1-55.1c0-6.9-2-14.9-8.4-18.7c-6-3-13-2.8-18.8,0.5c-5.2,3-7.9,9-7.8,14.9c-0.1,19.1,0,38.2,0,57.3
		c0.2,2-0.8,4.7-3.2,4.6c-6.8,0.1-13.5,0.1-20.3,0c-2.5,0.2-3.5-2.6-3.2-4.6c0-30.7,0-61.4,0-92.1c-0.3-2,1.1-3.9,3.1-4.2
		c0,0,0.1,0,0.1,0c4.5-0.2,9,0,13.5-0.1c3.1,0,6.5-0.5,9.1,1.6C469.2,155.9,468.7,158.5,470.7,160.3L470.7,160.3z"/>
	<path id="path16" class="st0" d="M638.2,151.6c12-2,25-0.2,35.5,6.4c9.6,6.1,16,16.4,18.4,27.4c1.7,7.1,1.5,14.4,1.3,21.6
		c0,2.2-2.3,3.6-4.4,3.4c-16.5,0.1-32.9,0-49.4,0c-4.2,0.1-8.5-0.4-12.6,0.7c0.2,5.7,1.8,11.7,6.2,15.6c6.9,6.6,17.3,6.9,26.1,5.2
		c5.8-1.1,10.1-5.3,15.2-7.9c1.7,0.5,2.9,2.1,4.2,3.2c3.6,3.7,7.9,6.7,10.9,10.9c-12.2,11-29,17.6-45.5,15.9
		c-11.5-0.8-23.4-4.8-31.2-13.6c-9-10-11.7-24-11.7-37c-0.3-13.4,2.8-27.6,11.8-38C619.2,157.8,628.5,153.1,638.2,151.6
		 M630.8,180.3c-2.5,3.8-3.4,8.4-3.8,12.9c13.5,0,27,0,40.5,0c-0.7-4.7-1.4-9.6-4.3-13.5C656,169.1,637.7,169.3,630.8,180.3
		L630.8,180.3z"/>
</g>
<g id="_f57917ff">
	<path id="path19" class="st0" d="M238.3,125.5c3.2-1.1,6.7-0.3,9.1,2c14.9,12.6,24.9,30.4,29.3,49.3c6.3,27.9,1.9,58.7-14.8,82.3
		c-4.7,6.8-10.3,12.8-16.7,18c-3,2.4-7.3,2.3-10.2-0.2c-4.9-4.4-9.9-8.8-14.7-13.3c-2.1-1.7-2.4-4.7-0.8-6.8
		c0.3-0.3,0.6-0.6,0.9-0.9c15.1-13.7,24-33.1,24.5-53.5c0.2-19.8-7.1-40.2-22.2-53.4c-1.7-1.6-4.3-3.6-2.9-6.2
		c1.9-3.5,5.5-5.7,8.3-8.4C231.6,131.4,234.4,127.8,238.3,125.5L238.3,125.5z"/>
</g>
</svg>
