<svg id="Capa_1" data-name="Capa 1" xmlns="http://www.w3.org/2000/svg" viewBox="0 0 800 400"><defs><style>.cls-1{fill:#ccc;}</style></defs><path class="cls-1" d="M42.94,226.71V178.36a5.55,5.55,0,0,1,1.67-3.93,5.39,5.39,0,0,1,4-1.68H64.21c8.23,0,14.47,2.17,18.52,6.63s6.13,11.27,6.13,20.35a38.76,38.76,0,0,1-2.19,13.08,23.18,23.18,0,0,1-6.62,9.13,23.26,23.26,0,0,1-7.34,3.69,46.92,46.92,0,0,1-11.45,1.08ZM53.86,217h8.86c5.16,0,8.94-1.31,11.33-4.05,2.4-2.47,3.58-6.79,3.58-13.18,0-6.1-1.18-10.58-3.39-13.33s-5.45-4.18-10-4.18H53.86Z"/><path class="cls-1" d="M94.21,226.71V178.36A5.05,5.05,0,0,1,96,174.43a5.14,5.14,0,0,1,4.07-1.68h5.39v54Z"/><path class="cls-1" d="M132.36,172.75h8.78l19.65,54H148.94l-3.54-11.15H124.31l-3.39,11.15H109.09l18-50.39c.85-2.5,2.64-3.57,5.27-3.57m2.43,10.78-7.46,23H142.4Z"/><path class="cls-1" d="M166.44,226.71V178.36a5.43,5.43,0,0,1,1.63-3.93,5.62,5.62,0,0,1,4.11-1.68h20.54c5.82,0,10.24,1.16,13,3.73s4.32,6.53,4.32,11.48a14.7,14.7,0,0,1-2.16,8.36,10.45,10.45,0,0,1-5.87,4.52,9.16,9.16,0,0,1,5,3.8c.87,1.48,1.46,4.16,1.71,8l.23,6.31v2.16a9.05,9.05,0,0,0,.27,2c.33,1.89.82,3.12,1.9,3.57h-12.3a9.25,9.25,0,0,1-.92-3.41c-.18-1.59-.39-2.63-.39-3.33l-.14-5.84c-.25-3.07-.79-5.33-1.78-6.68-1.29-1.2-3.3-1.77-6.18-1.77H177.61v21Zm11.17-30.39h13c2.92,0,5-.67,6.29-1.77s2.06-2.88,2.06-5.4-.62-4.12-2.06-5.32c-1.15-1.16-3.19-1.77-5.67-1.77H177.61Z"/><path class="cls-1" d="M216.52,226.71V178.36a5.13,5.13,0,0,1,1.59-3.93,5.42,5.42,0,0,1,4-1.68h5.49v54Z"/><path class="cls-1" d="M230.32,199.73c0-8.76,2.31-15.78,7-20.92,5-5.07,11.35-7.62,19.26-7.62s14.41,2.55,19.38,7.62c4.75,5.19,7,12.26,7,20.92s-2.27,15.58-7,20.77c-4.94,5-11.2,7.49-19.38,7.49s-14.55-2.5-19.26-7.49-7-12-7-20.77m11.24,0c0,6,1.29,10.71,3.92,13.83s6.31,4.86,11.06,4.86a14,14,0,0,0,11.21-4.86c2.75-3.34,4.15-7.94,4.15-13.83s-1.4-10.58-4.15-14a14,14,0,0,0-11.21-4.86c-4.75,0-8.51,1.63-11.06,4.86s-3.92,7.92-3.92,14"/><path class="cls-1" d="M310,226.71V178.36a5.36,5.36,0,0,1,1.64-3.93,5.3,5.3,0,0,1,4-1.68h33.71v9.31H320.94v11.57h21v3.58a5.35,5.35,0,0,1-5.56,5.67H320.94v23.83Z"/><path class="cls-1" d="M354.35,226.71V178.36a5.6,5.6,0,0,1,1.59-3.93,5.49,5.49,0,0,1,4-1.68h5.63v54Z"/><path class="cls-1" d="M369.16,226.71V178.36a5.12,5.12,0,0,1,1.69-3.93,5.41,5.41,0,0,1,4-1.85h6l22,37.22V172.58h10.92v54.13h-11.4l-22.2-37.25v37.25Z"/><path class="cls-1" d="M442.47,172.75h8.77l19.63,54H459.1l-3.67-11.15h-21L431,226.71H419.21l17.86-50.39c.94-2.5,2.69-3.57,5.4-3.57M445,183.53l-7.56,23h15Z"/><path class="cls-1" d="M476.55,226.71V178.36a5.37,5.37,0,0,1,1.69-3.93,5.43,5.43,0,0,1,4-1.85h5.9l22,37.22V172.58h11v54.13H509.65l-22.1-37.25v37.25Z"/><path class="cls-1" d="M574.76,208c-.5,6.36-2.9,11.21-7.07,14.71-4.34,3.53-9.91,5.25-16.9,5.25-8.22,0-14.36-2.42-18.75-7.32s-6.39-11.66-6.39-20.94,2.15-16.5,6.63-21.22c4.5-4.88,10.83-7.32,19.49-7.32,6.71,0,12.39,1.81,16.52,5.13,3.76,3.39,6,8,6.47,14.18H568.1a5.58,5.58,0,0,1-5.38-3.43,19.28,19.28,0,0,0-2.72-3.54,14.13,14.13,0,0,0-8.23-2.31c-4.87,0-8.66,1.45-11.27,4.68s-3.72,7.73-3.72,13.83c0,5.89,1.2,10.37,3.72,13.54s6,4.87,10.9,4.87a14.29,14.29,0,0,0,8.47-2.58c1.91-1.6,3.23-4,4-7.53Z"/><path class="cls-1" d="M580.41,226.71V178.36a5,5,0,0,1,1.62-3.93,5.13,5.13,0,0,1,3.92-1.68h5.57v54Z"/><path class="cls-1" d="M595.21,226.71V178.36a5.13,5.13,0,0,1,1.63-3.93,5.22,5.22,0,0,1,4.06-1.68h33.52v9.31H606.15v11.57h21v3.58a5.71,5.71,0,0,1-1.6,4,5.55,5.55,0,0,1-4,1.66H606.15v13.9h28.27v9.93Z"/><path class="cls-1" d="M639.56,226.71V178.36a5.08,5.08,0,0,1,1.57-3.93,5.35,5.35,0,0,1,4-1.68h20.65c5.79,0,10.28,1.16,13,3.75,3,2.57,4.49,6.51,4.49,11.46a14.2,14.2,0,0,1-2.27,8.36,11.59,11.59,0,0,1-6,4.52c2.43.85,4.2,2.13,5,3.8.92,1.48,1.45,4.16,1.66,8l.34,6.31v2.16a6.91,6.91,0,0,0,.2,2c.37,1.89,1,3.12,1.91,3.57H671.89a10.11,10.11,0,0,1-1-3.39,26.17,26.17,0,0,1-.37-3.35l-.11-5.84c-.22-3.07-.77-5.33-1.84-6.68-1.22-1.2-3.3-1.77-6.14-1.77H650.75v21Zm11.19-30.39h12.88a10.13,10.13,0,0,0,6.36-1.77c1.38-1.15,2-2.88,2-5.4a6.66,6.66,0,0,0-2-5.32c-1.2-1.16-3.15-1.77-5.63-1.77H650.75Z"/><path class="cls-1" d="M688.58,199.73c0-8.76,2.31-15.78,7-20.92,4.92-5.07,11.25-7.62,19.29-7.62,7.79,0,14.3,2.55,19.35,7.62,4.59,5.19,7,12.26,7,20.92s-2.44,15.58-7,20.77Q726.89,228,714.84,228q-12.32,0-19.29-7.49c-4.66-5-7-12-7-20.77m11.16,0c0,6,1.32,10.78,4,13.83,2.58,3.22,6.27,4.86,11.12,4.86a13.83,13.83,0,0,0,11.1-4.86c2.68-3.34,4.08-7.94,4.08-13.83s-1.4-10.58-4.08-14a13.8,13.8,0,0,0-11.1-4.86c-4.85,0-8.54,1.63-11.12,4.86s-4,7.92-4,14"/><path class="cls-1" d="M760,178.32a7.54,7.54,0,0,1-1,4,7,7,0,0,1-2.91,2.81,6.9,6.9,0,0,1-3.91,1.06,7.73,7.73,0,0,1-4-1.06,8.48,8.48,0,0,1-2.9-2.81,8.18,8.18,0,0,1-1.07-4,9.69,9.69,0,0,1,.63-3.13,11.76,11.76,0,0,1,1.62-2.44,9.19,9.19,0,0,1,2.64-1.75,8,8,0,0,1,6.13,0,9.73,9.73,0,0,1,2.66,1.71,7.72,7.72,0,0,1,1.56,2.48,6.57,6.57,0,0,1,.59,3.13m-1.47,0a7.87,7.87,0,0,0-.42-2.48,6.93,6.93,0,0,0-1.43-2.1,6,6,0,0,0-2.07-1.23,6.6,6.6,0,0,0-2.46-.72,9,9,0,0,0-4.55,2,6.33,6.33,0,0,0-1.36,2.1,4.76,4.76,0,0,0-.62,2.48,6.51,6.51,0,0,0,3.27,5.51,7,7,0,0,0,3.26.86,6.77,6.77,0,0,0,3.19-.86,6.5,6.5,0,0,0,2.41-2.36,5.86,5.86,0,0,0,.78-3.15m-2.6,4.35h-2.56a11,11,0,0,0-1.13-2.26c-.35-.68-.64-1-.82-1s-.43-.3-.77-.3v3.59h-2v-8.62h3.64a3.45,3.45,0,0,1,2.31.64,1.9,1.9,0,0,1,.79,1.81,1.69,1.69,0,0,1-.68,1.59,2.56,2.56,0,0,1-1.54.72,4.77,4.77,0,0,1,1.07.9c.13.23.47.75.87,1.39Zm-2.67-6.11c0-.31-.14-.46-.44-.72a2,2,0,0,0-1.17-.33h-1v2.19h1a1.73,1.73,0,0,0,1.22-.35c.3-.09.44-.3.44-.79"/></svg>