<?xml version="1.0" encoding="utf-8"?>
<!-- Generator: Adobe Illustrator 26.0.0, SVG Export Plug-In . SVG Version: 6.00 Build 0)  -->
<svg version="1.1" id="Capa_1" xmlns="http://www.w3.org/2000/svg" xmlns:xlink="http://www.w3.org/1999/xlink" x="0px" y="0px"
	 viewBox="0 0 800 400" style="enable-background:new 0 0 800 400;" xml:space="preserve">
<style type="text/css">
	.st0{fill:#AAAAAA;}
</style>
<path class="st0" d="M42.9,226.7v-48.4c0-1.5,0.6-2.9,1.7-3.9c1-1.1,2.5-1.7,4-1.7h15.6c8.2,0,14.5,2.2,18.5,6.6s6.1,11.3,6.1,20.4
	c0,4.5-0.7,8.9-2.2,13.1c-1.4,3.5-3.7,6.7-6.6,9.1c-2.2,1.7-4.7,2.9-7.3,3.7c-3.8,0.8-7.6,1.2-11.5,1.1L42.9,226.7z M53.9,217h8.9
	c5.2,0,8.9-1.3,11.3-4.1c2.4-2.5,3.6-6.8,3.6-13.2c0-6.1-1.2-10.6-3.4-13.3s-5.4-4.2-10-4.2H53.9V217z"/>
<path class="st0" d="M94.2,226.7v-48.4c0-1.5,0.6-3,1.8-3.9c1-1.1,2.5-1.8,4.1-1.7h5.4v54L94.2,226.7z"/>
<path class="st0" d="M132.4,172.8h8.8l19.6,54h-11.8l-3.5-11.1h-21.1l-3.4,11.1h-11.8l18-50.4C127.9,173.9,129.7,172.8,132.4,172.8
	 M134.8,183.6l-7.5,23h15.1L134.8,183.6z"/>
<path class="st0" d="M166.4,226.7v-48.4c0-1.5,0.6-2.9,1.6-3.9c1.1-1.1,2.6-1.7,4.1-1.7h20.5c5.8,0,10.2,1.2,13,3.7S210,183,210,188
	c0.1,2.9-0.6,5.9-2.2,8.4c-1.3,2.2-3.4,3.8-5.9,4.5c2.1,0.6,3.8,2,5,3.8c0.9,1.5,1.5,4.2,1.7,8l0.2,6.3v2.2c0,0.7,0.1,1.3,0.3,2
	c0.3,1.9,0.8,3.1,1.9,3.6h-12.3c-0.5-1.1-0.8-2.2-0.9-3.4c-0.2-1.6-0.4-2.6-0.4-3.3l-0.1-5.8c-0.2-3.1-0.8-5.3-1.8-6.7
	c-1.3-1.2-3.3-1.8-6.2-1.8h-11.8v21L166.4,226.7z M177.6,196.3h13c2.9,0,5-0.7,6.3-1.8s2.1-2.9,2.1-5.4s-0.6-4.1-2.1-5.3
	c-1.1-1.2-3.2-1.8-5.7-1.8h-13.6V196.3z"/>
<path class="st0" d="M216.5,226.7v-48.4c-0.1-1.5,0.5-2.9,1.6-3.9c1-1.1,2.5-1.7,4-1.7h5.5v54L216.5,226.7z"/>
<path class="st0" d="M230.3,199.7c0-8.8,2.3-15.8,7-20.9c5-5.1,11.4-7.6,19.3-7.6s14.4,2.6,19.4,7.6c4.8,5.2,7,12.3,7,20.9
	s-2.3,15.6-7,20.8c-4.9,5-11.2,7.5-19.4,7.5s-14.6-2.5-19.3-7.5S230.3,208.5,230.3,199.7 M241.6,199.7c0,6,1.3,10.7,3.9,13.8
	s6.3,4.9,11.1,4.9c4.3,0.2,8.4-1.6,11.2-4.9c2.8-3.3,4.1-7.9,4.1-13.8s-1.4-10.6-4.1-14c-2.8-3.3-6.9-5-11.2-4.9
	c-4.8,0-8.5,1.6-11.1,4.9S241.6,193.6,241.6,199.7"/>
<path class="st0" d="M310,226.7v-48.4c0-1.5,0.6-2.9,1.6-3.9c1-1.1,2.5-1.7,4-1.7h33.7v9.3h-28.4v11.6h21v3.6c0.2,2.9-2.1,5.5-5,5.7
	c-0.2,0-0.4,0-0.5,0h-15.4v23.8H310z"/>
<path class="st0" d="M354.4,226.7v-48.4c0-1.5,0.6-2.9,1.6-3.9c1-1.1,2.5-1.7,4-1.7h5.6v54L354.4,226.7z"/>
<path class="st0" d="M369.2,226.7v-48.4c0-1.5,0.6-2.9,1.7-3.9c1-1.2,2.5-1.8,4-1.9h6l22,37.2v-37.2h10.9v54.1h-11.4l-22.2-37.2
	v37.2H369.2z"/>
<path class="st0" d="M442.5,172.8h8.8l19.6,54h-11.8l-3.7-11.1h-21l-3.4,11.1h-11.8l17.9-50.4C438,173.8,439.8,172.8,442.5,172.8
	 M445,183.5l-7.6,23h15L445,183.5z"/>
<path class="st0" d="M476.5,226.7v-48.4c0-1.5,0.6-2.9,1.7-3.9c1-1.2,2.5-1.8,4-1.9h5.9l22,37.2v-37.2h11v54.1h-11.5l-22.1-37.2
	v37.2H476.5z"/>
<path class="st0" d="M574.8,208c-0.5,6.4-2.9,11.2-7.1,14.7c-4.3,3.5-9.9,5.2-16.9,5.2c-8.2,0-14.4-2.4-18.8-7.3s-6.4-11.7-6.4-20.9
	s2.2-16.5,6.6-21.2c4.5-4.9,10.8-7.3,19.5-7.3c6.7,0,12.4,1.8,16.5,5.1c3.8,3.4,6,8,6.5,14.2h-6.7c-2.3,0.1-4.5-1.3-5.4-3.4
	c-0.8-1.3-1.7-2.5-2.7-3.5c-2.4-1.6-5.3-2.4-8.2-2.3c-4.9,0-8.7,1.4-11.3,4.7s-3.7,7.7-3.7,13.8c0,5.9,1.2,10.4,3.7,13.5
	s6,4.9,10.9,4.9c3,0.1,6-0.8,8.5-2.6c1.9-1.6,3.2-4,4-7.5H574.8z"/>
<path class="st0" d="M580.4,226.7v-48.4c-0.1-1.5,0.5-2.9,1.6-3.9c1-1.1,2.4-1.7,3.9-1.7h5.6v54L580.4,226.7z"/>
<path class="st0" d="M595.2,226.7v-48.4c-0.1-1.5,0.5-2.9,1.6-3.9c1-1.1,2.5-1.7,4.1-1.7h33.5v9.3h-28.3v11.6h21v3.6
	c0,1.5-0.6,2.9-1.6,4c-1.1,1.1-2.5,1.7-4,1.7h-15.4v13.9h28.3v9.9L595.2,226.7z"/>
<path class="st0" d="M639.6,226.7v-48.4c-0.1-1.5,0.5-2.9,1.6-3.9c1-1.1,2.5-1.7,4-1.7h20.7c5.8,0,10.3,1.2,13,3.8
	c3,2.6,4.5,6.5,4.5,11.5c0.1,3-0.7,5.9-2.3,8.4c-1.4,2.1-3.6,3.7-6,4.5c2.4,0.9,4.2,2.1,5,3.8c0.9,1.5,1.5,4.2,1.7,8l0.3,6.3v2.2
	c0,0.7,0,1.3,0.2,2c0.4,1.9,1,3.1,1.9,3.6h-12.2c-0.5-1.1-0.9-2.2-1-3.4c-0.2-1.1-0.3-2.2-0.4-3.4l-0.1-5.8
	c-0.2-3.1-0.8-5.3-1.8-6.7c-1.2-1.2-3.3-1.8-6.1-1.8h-11.7v21L639.6,226.7z M650.8,196.3h12.9c2.3,0.1,4.5-0.5,6.4-1.8
	c1.4-1.1,2-2.9,2-5.4c0.2-2-0.6-3.9-2-5.3c-1.2-1.2-3.2-1.8-5.6-1.8h-13.6V196.3z"/>
<path class="st0" d="M688.6,199.7c0-8.8,2.3-15.8,7-20.9c4.9-5.1,11.2-7.6,19.3-7.6c7.8,0,14.3,2.6,19.3,7.6c4.6,5.2,7,12.3,7,20.9
	s-2.4,15.6-7,20.8c-4.9,5-11.3,7.5-19.4,7.5c-8.2,0-14.6-2.5-19.3-7.5C690.9,215.5,688.6,208.5,688.6,199.7 M699.7,199.7
	c0,6,1.3,10.8,4,13.8c2.6,3.2,6.3,4.9,11.1,4.9c4.3,0.2,8.3-1.6,11.1-4.9c2.7-3.3,4.1-7.9,4.1-13.8s-1.4-10.6-4.1-14
	c-2.8-3.2-6.8-5-11.1-4.9c-4.8,0-8.5,1.6-11.1,4.9S699.7,193.7,699.7,199.7"/>
<path class="st0" d="M760,178.3c0,1.4-0.3,2.8-1,4c-0.7,1.2-1.7,2.2-2.9,2.8c-1.2,0.7-2.5,1.1-3.9,1.1c-1.4,0-2.8-0.3-4-1.1
	c-1.2-0.7-2.2-1.7-2.9-2.8c-0.7-1.2-1.1-2.6-1.1-4c0-1.1,0.2-2.1,0.6-3.1c0.4-0.9,1-1.7,1.6-2.4c0.8-0.7,1.7-1.3,2.6-1.8
	c2-0.8,4.2-0.8,6.1,0c1,0.4,1.9,1,2.7,1.7c0.7,0.7,1.2,1.6,1.6,2.5C759.9,176.2,760.1,177.2,760,178.3 M758.6,178.3
	c0-0.8-0.1-1.7-0.4-2.5c-0.3-0.8-0.8-1.5-1.4-2.1c-0.6-0.5-1.3-1-2.1-1.2c-0.8-0.4-1.6-0.6-2.5-0.7c-1.7,0.2-3.3,0.9-4.5,2
	c-0.6,0.6-1.1,1.3-1.4,2.1c-0.4,0.8-0.6,1.6-0.6,2.5c0,2.3,1.3,4.4,3.3,5.5c1,0.5,2.1,0.8,3.3,0.9c1.1,0,2.2-0.3,3.2-0.9
	c1-0.6,1.8-1.4,2.4-2.4C758.3,180.6,758.6,179.5,758.6,178.3 M756,182.7h-2.6c-0.3-0.8-0.7-1.6-1.1-2.3c-0.3-0.7-0.6-1-0.8-1
	s-0.4-0.3-0.8-0.3v3.6h-2v-8.6h3.6c0.8-0.1,1.6,0.2,2.3,0.6c0.6,0.4,0.9,1.1,0.8,1.8c0.1,0.6-0.2,1.2-0.7,1.6
	c-0.4,0.4-1,0.7-1.5,0.7c0.4,0.2,0.8,0.5,1.1,0.9c0.1,0.2,0.5,0.8,0.9,1.4L756,182.7z M753.3,176.6c0-0.3-0.1-0.5-0.4-0.7
	c-0.3-0.2-0.8-0.3-1.2-0.3h-1v2.2h1c0.4,0,0.9-0.1,1.2-0.4C753.2,177.3,753.4,177.1,753.3,176.6"/>
</svg>
