<svg id="Capa_1" data-name="Capa 1" xmlns="http://www.w3.org/2000/svg" viewBox="0 0 800 400"><defs><style>.cls-1{fill:#ccc;}</style></defs><path class="cls-1" d="M495.29,151.63c0,2.66,0,2.66,2.66,2.66,1.51,0,1.89,0,1.89-1.9V119c0-1.89-.38-2.27-2.27-2.27h-2.28a2.08,2.08,0,0,0-2.27,1.52c-2.66,5.3-4.93,10.61-7.58,15.92a2.85,2.85,0,0,0-.76,1.51,2,2,0,0,1-.76-1.51c-2.27-4.55-4.55-9.48-6.82-14-1.9-4.17-1.14-3.41-5.69-3.41-1.51,0-1.89.38-1.89,1.9V152c0,.38,0,1.52.38,1.52h3.41c.38,0,.76-1.14.76-1.9v-28c2.65,4.93,4.92,9.48,7.2,14.41a3,3,0,0,0,3,1.89h1.14a3.39,3.39,0,0,0,3-1.89c1.89-3.79,3.79-7.58,5.31-11.37.38-1.14,1.13-1.9,1.51-3h.38v28.05Z"/><path class="cls-1" d="M335.71,120.93c3.41-.38,6.82,0,10.23-.38,2.66,0,2.28.38,2.28-2.27,0-1.14-.38-1.52-1.52-1.52H335.33a7.87,7.87,0,0,0-8,7.2V152c0,3,0,3,3,3,1.52,0,1.52,0,1.52-1.51V137.61H346.7c1.14,0,1.52-.38,1.52-1.52v-.76c0-1.51,0-1.51-1.52-1.51H331.54v-8A4.63,4.63,0,0,1,335.71,120.93Z"/><polygon class="cls-1" points="175.37 75.44 179.16 90.98 205.31 76.96 206.07 76.96 206.07 209.25 225.78 209.25 225.78 57.63 208.35 57.63 175.37 75.44"/><polygon class="cls-1" points="607.49 57.63 574.51 75.44 578.68 90.98 604.84 76.96 605.22 76.96 605.22 209.25 624.93 209.25 624.93 57.63 607.49 57.63"/><path class="cls-1" d="M555.56,191.81a8.72,8.72,0,1,0,8.72,8.72h0C564.28,196,560.49,192.19,555.56,191.81Z"/><path class="cls-1" d="M487.33,51.18c-29.56,0-49.28,14.41-65.2,33.36a1.18,1.18,0,0,0,0,1.52l17.06,26.15c.38.76,1.14.76,1.9.38l.38-.38C454.35,93.64,468,80,487.71,80h.76c26.53.38,47.76,22,47.38,48.14-.38,26.54-22,47.76-48.14,47.38h-2.65C429.72,171.72,423.27,53.84,341,50.8h-3c-43.21,1.52-76.94,36.77-76.19,79.61.76,41.31,34.12,74.29,75.44,75.43,28.8,0,48.89-14.41,64.44-33.36a1.18,1.18,0,0,0,0-1.52L385,144.05a1.32,1.32,0,0,0-1.9-.38l-.38.38c-12.13,17.82-25.39,31.08-44,31.84h-1.51A47.59,47.59,0,0,1,291,126.62c.76-25.4,21.23-45.87,46.25-46.25h3c17.06,1.52,29.57,13.27,40.94,29.19,0,.38.38.38.38.76h0c17.05,23.5,31.84,56.1,55.72,76.57l.38.37,1.89,1.52,1.52,1.14,1.13.76,1.52,1.13A72.83,72.83,0,0,0,487,205.08h0c42.46-.76,76.19-36,75.44-78.84C561.63,85.3,528.65,52.32,487.33,51.18Z"/><path class="cls-1" d="M255.35,251.7c-5.31,0-5.31,0-5.31,4.93v70.88a7.63,7.63,0,0,1-2.65-3.41c-11.37-21.6-23.12-43.21-34.11-65.19-3-5.69-6.07-8.34-12.51-7.59-5.31.76-6.45,1.14-6.45,6.45v84.15c0,.76-.38,1.51,0,2.27a5.59,5.59,0,0,0,1.9,2.28c7.58,1.51,9.1,0,9.1-7.2v-69l.75-.38a15.34,15.34,0,0,1,1.9,3.41c11.75,22,23.12,43.59,34.49,66a10.8,10.8,0,0,0,11.75,7.2c5.69-.38,6.83-.76,6.83-6.83V256.25C261.42,251.7,261,251.7,255.35,251.7Z"/><path class="cls-1" d="M452.08,252.46a22.18,22.18,0,0,0-8.72-.38c-.76,0-1.51,3-1.51,4.93v70.88a5.05,5.05,0,0,1-2.28-2.65c-11.37-22-23.12-43.59-34.11-65.58-3-6.06-6.45-9.09-13.27-8-4.55.76-5.69,1.14-5.69,6.07V342.3c0,3,1.14,4.55,4.17,4.17h.76c6.45,0,6.45,0,6.45-6.45V270.28h.75c.76,1.13,1.14,2.27,1.9,3.41,11.37,21.6,23.12,43.21,34.11,65.2,3,6.06,6.83,8.71,13.65,8,4.17-.38,5.31-1.14,5.31-5.69V255.87C453.22,254.74,452.46,252.46,452.08,252.46Z"/><path class="cls-1" d="M329.65,292.26H293.26c0-7.58-.38-14.4,0-21.6.38-6.07,3.41-8.72,9.47-9.1,9.1-.38,18.2-.38,27.29-.38,2.28,0,4.93.76,4.55-3-.38-3,1.14-6.83-4.17-6.83-9.47,0-18.95-.37-28.43,0-10.61.38-17.81,6.07-20.09,14.79a41.69,41.69,0,0,0-1.13,9.85v66.72c0,3,1.13,4.17,4.17,4.17h3c3.41.38,4.55-1.14,4.55-4.55V302.5h38.28a6.08,6.08,0,0,0,4.17-1.9C336.85,295.67,334.57,292.26,329.65,292.26Z"/><path class="cls-1" d="M568.45,257c0-2.27.76-5.31-3-5.31H505.53a4.31,4.31,0,0,0-3,1.14,5.14,5.14,0,0,0,1.52,7.58,3.86,3.86,0,0,0,3.41.76h22v80.36c0,1.52.38,3.41,1.51,3.79a6.7,6.7,0,0,0,9.1-1.9,7.59,7.59,0,0,0,1.14-4.16V261.56H565C568.83,261.56,568.83,259.28,568.45,257Z"/><path class="cls-1" d="M169.68,251.7h-3.41c-3.79-.38-4.93,1.14-4.93,4.55v85.29c0,4.93,0,4.93,5.69,4.93s5.69-.38,5.69-5.31v-86C173.1,252.84,172,251.7,169.68,251.7Z"/><path class="cls-1" d="M482.78,251.7h-3.41c-3.79-.38-4.93,1.14-4.93,4.55v85.29c0,1.52.38,4.17.76,4.17a24.49,24.49,0,0,0,9.1.38c.76,0,1.52-3,1.52-4.93V255.11C486.19,252.84,485.44,251.7,482.78,251.7Z"/><path class="cls-1" d="M361.11,251.7h-1.52c-6.44,0-6.44,0-6.44,6.07v84.15c0,1.14.38,3.79.75,3.79a24.5,24.5,0,0,0,9.1.38c.76,0,1.52-3,1.52-4.93V255.49C364.9,252.46,363.76,251.32,361.11,251.7Z"/><path class="cls-1" d="M638.2,341.16c-3.79-13.65-7.59-26.91-11.38-40.56s-7.58-26.91-11.37-39.42A12.51,12.51,0,0,0,601.81,251a11.94,11.94,0,0,0-12.51,9.85c-4.93,16.68-9.86,33.74-14.41,50.42-3,10.23-5.68,20.46-8.71,30.7-1.14,3.79-.76,4.55,3.41,4.55h3c3.41.38,4.55-.76,5.31-4.17,2.27-9.1,4.92-18.2,7.58-26.92h33c2.65,9.48,5.3,18.58,8,27.68.75,2.65,1.89,3.79,4.54,3.41h3C639.33,346.47,639.71,346.09,638.2,341.16Zm-49.66-36c1.9-6.44,3.41-12.89,5.31-19.33,1.89-7.2,3.79-14.78,6.06-22,.38-1.13,1.52-1.89,2.65-3,.76.76,2.28,1.52,2.66,2.65,3.79,13.65,7.58,27.3,11.75,41.32H588.54Z"/></svg>