<?xml version="1.0" encoding="utf-8"?>
<!-- Generator: Adobe Illustrator 23.1.0, SVG Export Plug-In . SVG Version: 6.00 Build 0)  -->
<svg version="1.1" id="Layer_1" xmlns="http://www.w3.org/2000/svg" xmlns:xlink="http://www.w3.org/1999/xlink" x="0px" y="0px"
	 viewBox="0 0 126 76.9" style="enable-background:new 0 0 126 76.9;" xml:space="preserve">
<style type="text/css">
	.st0{fill:#FFFFFF;}
</style>
<title>1001-INFINITA_logo</title>
<path class="st0" d="M88.1,25.4c0,0.7,0,0.7,0.7,0.7c0.4,0,0.5,0,0.5-0.5v-8.8c0-0.5-0.1-0.6-0.6-0.6c-0.2,0-0.4,0-0.6,0
	c-0.3,0-0.5,0.1-0.6,0.4c-0.7,1.4-1.3,2.8-2,4.2c-0.1,0.1-0.2,0.3-0.2,0.4c-0.1-0.1-0.2-0.2-0.2-0.4c-0.6-1.2-1.2-2.5-1.8-3.7
	c-0.5-1.1-0.3-0.9-1.5-0.9c-0.4,0-0.5,0.1-0.5,0.5c0,1.1,0,2.1,0,3.2c0,1.9,0,3.8,0,5.6c0,0.1,0,0.4,0.1,0.4c0.3,0,0.6,0,0.9,0
	c0.1,0,0.2-0.3,0.2-0.5c0-2.4,0-4.8,0-7.2V18c0.7,1.3,1.3,2.5,1.9,3.8c0.1,0.3,0.4,0.5,0.8,0.5c0.1,0,0.2,0,0.3,0
	c0.3,0,0.7-0.2,0.8-0.5c0.5-1,1-2,1.4-3c0.1-0.3,0.3-0.5,0.4-0.8h0.1v7.4L88.1,25.4z"/>
<path class="st0" d="M46,17.3c0.9-0.1,1.8,0,2.7-0.1c0.7,0,0.6,0.1,0.6-0.6c0-0.3-0.1-0.4-0.4-0.4c-1,0-2,0-3,0
	c-1.1,0-2,0.8-2.1,1.9c0,0.3,0,0.5,0,0.8v6.6c0,0.8,0,0.8,0.8,0.8c0.4,0,0.4,0,0.4-0.4v-4.2h0.4c1.2,0,2.3,0,3.5,0
	c0.3,0,0.4-0.1,0.4-0.4v-0.2c0-0.4,0-0.4-0.4-0.4h-4c0-0.8,0-1.4,0-2.1S45.3,17.4,46,17.3z"/>
<polygon class="st0" points="3.7,5.3 4.7,9.4 11.6,5.7 11.8,5.7 11.8,40.6 17,40.6 17,0.6 12.4,0.6 "/>
<polygon class="st0" points="117.7,0.6 109,5.3 110.1,9.4 117,5.7 117.1,5.7 117.1,40.6 122.3,40.6 122.3,0.6 "/>
<path class="st0" d="M104,36c-1.3,0-2.3,1-2.3,2.3c0,1.3,1,2.3,2.3,2.3c1.3,0,2.3-1,2.3-2.3c0,0,0,0,0,0
	C106.3,37.1,105.3,36.1,104,36z"/>
<path class="st0" d="M86-0.1c-7.8,0-13,3.8-17.2,8.8c-0.1,0.1-0.1,0.3,0,0.4l4.5,6.9c0.1,0.2,0.3,0.2,0.5,0.1c0,0,0.1-0.1,0.1-0.1
	c3.4-4.9,7-8.5,12.2-8.5h0.2c7,0.1,12.6,5.8,12.5,12.7c-0.1,7-5.8,12.6-12.7,12.5l0,0l0,0c-0.2,0-0.5,0-0.7,0
	c-14.6-1-16.3-32.1-38-32.9h-0.8l0,0C35.2,0.2,26.3,9.5,26.5,20.8c0.2,10.9,9,19.6,19.9,19.9c7.6,0,12.9-3.8,17-8.8
	c0.1-0.1,0.1-0.3,0-0.4L59,24.4c-0.1-0.2-0.4-0.2-0.5-0.1c0,0-0.1,0.1-0.1,0.1c-3.2,4.7-6.7,8.2-11.6,8.4h-0.4
	c-7-0.2-12.4-6-12.2-13c0.2-6.7,5.6-12.1,12.2-12.2h0.8C51.7,8,55,11.1,58,15.3c0,0.1,0.1,0.1,0.1,0.2l0,0
	c4.5,6.2,8.4,14.8,14.7,20.2l0.1,0.1l0.5,0.4l0.4,0.3l0.3,0.2l0.4,0.3c3.3,2.3,7.3,3.6,11.4,3.5l0,0c11.2-0.2,20.1-9.5,19.9-20.8
	C105.6,8.9,96.9,0.2,86-0.1z"/>
<path class="st0" d="M24.8,51.8c-1.4,0-1.4,0-1.4,1.3v18.7c-0.3-0.2-0.6-0.6-0.7-0.9c-3-5.7-6.1-11.4-9-17.2c-0.8-1.5-1.6-2.2-3.3-2
	C9,51.9,8.7,52,8.7,53.4v22.2c0,0.2-0.1,0.4,0,0.6s0.3,0.5,0.5,0.6c2,0.4,2.4,0,2.4-1.9V56.7l0.2-0.1c0.2,0.3,0.4,0.6,0.5,0.9
	c3.1,5.8,6.1,11.5,9.1,17.4c0.4,1.3,1.8,2.1,3.1,1.9c1.5-0.1,1.8-0.2,1.8-1.8v-22C26.4,51.8,26.3,51.8,24.8,51.8z"/>
<path class="st0" d="M76.7,52c-0.7-0.2-1.5-0.2-2.3-0.1c-0.2,0-0.4,0.8-0.4,1.3c0,5.9,0,11.8,0,17.7v1c-0.3-0.2-0.5-0.4-0.6-0.7
	c-3-5.8-6.1-11.5-9-17.3c-0.8-1.6-1.7-2.4-3.5-2.1c-1.2,0.2-1.5,0.3-1.5,1.6v11.1c0,3.7,0,7.5,0,11.2c0,0.8,0.3,1.2,1.1,1.1h0.2
	c1.7,0,1.7,0,1.7-1.7V56.7h0.2c0.2,0.3,0.3,0.6,0.5,0.9c3,5.7,6.1,11.4,9,17.2c0.8,1.6,1.8,2.3,3.6,2.1c1.1-0.1,1.4-0.3,1.4-1.5
	c0-7.5,0-15,0-22.5C77,52.6,76.8,52,76.7,52z"/>
<path class="st0" d="M44.4,62.5c-3.2,0-6.3,0-9.6,0c0-2-0.1-3.8,0-5.7c0.1-1.6,0.9-2.3,2.5-2.4c2.4-0.1,4.8-0.1,7.2-0.1
	c0.6,0,1.3,0.2,1.2-0.8c-0.1-0.8,0.3-1.8-1.1-1.8c-2.5,0-5-0.1-7.5,0c-2.8,0.1-4.7,1.6-5.3,3.9c-0.2,0.8-0.3,1.7-0.3,2.6
	c0,4.2,0,8.5,0,12.7c0,1.6,0,3.3,0,4.9c0,0.8,0.3,1.1,1.1,1.1c0.3,0,0.5,0,0.8,0c0.9,0.1,1.2-0.3,1.2-1.2c0-2.3,0-4.6,0-6.8v-3.7H36
	c2.9,0,5.8,0,8.7,0c0.4,0,0.8-0.2,1.1-0.5C46.3,63.4,45.7,62.5,44.4,62.5z"/>
<path class="st0" d="M107.4,53.2c0-0.6,0.2-1.4-0.8-1.4c-5.3,0-10.6,0-15.8,0c-0.3,0-0.6,0.1-0.8,0.3c-0.5,0.7-0.3,1.6,0.4,2
	c0.3,0.2,0.6,0.3,0.9,0.2h5.8v14.9c0,2.1,0,4.2,0,6.3c0,0.4,0.1,0.9,0.4,1c0.8,0.5,1.8,0.3,2.4-0.5c0.2-0.3,0.3-0.7,0.3-1.1V54.4
	h1.2c1.7,0,3.4,0,5.1,0C107.5,54.4,107.5,53.8,107.4,53.2z"/>
<path class="st0" d="M2.2,51.8c-0.3,0-0.6,0-0.9,0C0.3,51.7,0,52.1,0,53c0,3.7,0,7.5,0,11.2s0,7.5,0,11.3c0,1.3,0,1.3,1.5,1.3
	S3,76.7,3,75.4V52.7C3.1,52.1,2.8,51.8,2.2,51.8z"/>
<path class="st0" d="M84.8,51.8c-0.3,0-0.6,0-0.9,0c-1-0.1-1.3,0.3-1.3,1.2c0,3.7,0,7.5,0,11.2s0,7.5,0,11.3c0,0.4,0.1,1.1,0.2,1.1
	c0.8,0.2,1.6,0.2,2.4,0.1c0.2,0,0.4-0.8,0.4-1.3c0-7.4,0-14.8,0-22.2c0-0.2,0-0.3,0-0.5C85.7,52.1,85.5,51.8,84.8,51.8z"/>
<path class="st0" d="M52.7,51.8h-0.4c-1.7,0-1.7,0-1.7,1.6v10.9c0,3.8,0,7.5,0,11.3c0,0.3,0.1,1,0.2,1c0.8,0.2,1.6,0.2,2.4,0.1
	c0.2,0,0.4-0.8,0.4-1.3c0-6.6,0-13.2,0-19.8c0-0.9,0-1.9,0-2.8C53.7,52,53.4,51.7,52.7,51.8z"/>
<path class="st0" d="M125.8,75.4c-1-3.6-2-7.1-3-10.7s-2-7.1-3-10.4c-0.3-1.7-1.9-2.9-3.6-2.7c-1.6-0.1-3,1-3.3,2.6
	c-1.3,4.4-2.6,8.9-3.8,13.3c-0.8,2.7-1.5,5.4-2.3,8.1c-0.3,1-0.2,1.2,0.9,1.2c0.3,0,0.5,0,0.8,0c0.9,0.1,1.2-0.2,1.4-1.1
	c0.6-2.4,1.3-4.8,2-7.1h8.7c0.7,2.5,1.4,4.9,2.1,7.3c0.2,0.7,0.5,1,1.2,0.9c0.3,0,0.5,0,0.8,0C126.1,76.8,126.2,76.7,125.8,75.4z
	 M112.7,65.9c0.5-1.7,0.9-3.4,1.4-5.1c0.5-1.9,1-3.9,1.6-5.8c0.1-0.3,0.4-0.5,0.7-0.8c0.2,0.2,0.6,0.4,0.7,0.7c1,3.6,2,7.2,3.1,10.9
	H112.7z"/>
</svg>
