<?xml version="1.0" encoding="utf-8"?>
<!-- Generator: Adobe Illustrator 26.0.0, SVG Export Plug-In . SVG Version: 6.00 Build 0)  -->
<svg version="1.1" id="Capa_1" xmlns="http://www.w3.org/2000/svg" xmlns:xlink="http://www.w3.org/1999/xlink" x="0px" y="0px"
	 viewBox="0 0 800 400" style="enable-background:new 0 0 800 400;" xml:space="preserve">
<style type="text/css">
	.st0{fill:#AAAAAA;}
</style>
<path class="st0" d="M495.3,151.6c0,2.7,0,2.7,2.7,2.7c1.5,0,1.9,0,1.9-1.9V119c0-1.9-0.4-2.3-2.3-2.3h-2.3c-1-0.1-2,0.5-2.3,1.5
	c-2.7,5.3-4.9,10.6-7.6,15.9c-0.4,0.4-0.7,0.9-0.8,1.5c-0.5-0.4-0.7-0.9-0.8-1.5c-2.3-4.6-4.5-9.5-6.8-14c-1.9-4.2-1.1-3.4-5.7-3.4
	c-1.5,0-1.9,0.4-1.9,1.9V152c0,0.4,0,1.5,0.4,1.5h3.4c0.4,0,0.8-1.1,0.8-1.9v-28c2.6,4.9,4.9,9.5,7.2,14.4c0.5,1.2,1.7,2,3,1.9h1.1
	c1.3,0,2.4-0.7,3-1.9c1.9-3.8,3.8-7.6,5.3-11.4c0.4-1.1,1.1-1.9,1.5-3h0.4v28L495.3,151.6z"/>
<path class="st0" d="M335.7,120.9c3.4-0.4,6.8,0,10.2-0.4c2.7,0,2.3,0.4,2.3-2.3c0-1.1-0.4-1.5-1.5-1.5h-11.4
	c-4.1-0.1-7.6,3.1-8,7.2v28c0,3,0,3,3,3c1.5,0,1.5,0,1.5-1.5v-15.9h14.9c1.1,0,1.5-0.4,1.5-1.5v-0.8c0-1.5,0-1.5-1.5-1.5h-15.2v-8
	C331.4,123.3,333.2,121.2,335.7,120.9z"/>
<polygon class="st0" points="175.4,75.4 179.2,91 205.3,77 206.1,77 206.1,209.2 225.8,209.2 225.8,57.6 208.4,57.6 "/>
<polygon class="st0" points="607.5,57.6 574.5,75.4 578.7,91 604.8,77 605.2,77 605.2,209.2 624.9,209.2 624.9,57.6 "/>
<path class="st0" d="M555.6,191.8c-4.8,0-8.7,3.9-8.7,8.7s3.9,8.7,8.7,8.7s8.7-3.9,8.7-8.7c0,0,0,0,0,0l0,0
	C564.3,196,560.5,192.2,555.6,191.8z"/>
<path class="st0" d="M487.3,51.2c-29.6,0-49.3,14.4-65.2,33.4c-0.4,0.4-0.4,1.1,0,1.5l17.1,26.2c0.4,0.8,1.1,0.8,1.9,0.4l0.4-0.4
	C454.4,93.6,468,80,487.7,80h0.8c26.5,0.4,47.8,22,47.4,48.1c-0.4,26.5-22,47.8-48.1,47.4h-2.6C429.7,171.7,423.3,53.8,341,50.8h-3
	c-43.2,1.5-76.9,36.8-76.2,79.6c0.8,41.3,34.1,74.3,75.4,75.4c28.8,0,48.9-14.4,64.4-33.4c0.4-0.4,0.4-1.1,0-1.5L385,144.1
	c-0.4-0.6-1.2-0.8-1.8-0.4c0,0-0.1,0-0.1,0.1l-0.4,0.4c-12.1,17.8-25.4,31.1-44,31.8h-1.5c-26.3-0.7-47-22.6-46.2-48.9
	c0-0.1,0-0.2,0-0.3c0.8-25.4,21.2-45.9,46.2-46.2h3c17.1,1.5,29.6,13.3,40.9,29.2c0,0.4,0.4,0.4,0.4,0.8l0,0
	c17,23.5,31.8,56.1,55.7,76.6l0.4,0.4l1.9,1.5l1.5,1.1l1.1,0.8l1.5,1.1c12.6,8.9,27.8,13.6,43.3,13.3l0,0
	c42.5-0.8,76.2-36,75.4-78.8C561.6,85.3,528.7,52.3,487.3,51.2z"/>
<path class="st0" d="M255.4,251.7c-5.3,0-5.3,0-5.3,4.9v70.9c-1.2-0.9-2.1-2-2.6-3.4c-11.4-21.6-23.1-43.2-34.1-65.2
	c-3-5.7-6.1-8.3-12.5-7.6c-5.3,0.8-6.4,1.1-6.4,6.5v84.1c0,0.8-0.4,1.5,0,2.3c0.4,0.9,1.1,1.7,1.9,2.3c7.6,1.5,9.1,0,9.1-7.2v-69
	l0.8-0.4c0.8,1.1,1.4,2.2,1.9,3.4c11.8,22,23.1,43.6,34.5,66c1.7,4.9,6.6,7.9,11.8,7.2c5.7-0.4,6.8-0.8,6.8-6.8v-83.4
	C261.4,251.7,261,251.7,255.4,251.7z"/>
<path class="st0" d="M452.1,252.5c-2.9-0.7-5.8-0.8-8.7-0.4c-0.8,0-1.5,3-1.5,4.9v70.9c-1.1-0.6-1.9-1.5-2.3-2.6
	c-11.4-22-23.1-43.6-34.1-65.6c-3-6.1-6.5-9.1-13.3-8c-4.5,0.8-5.7,1.1-5.7,6.1v84.6c0,3,1.1,4.5,4.2,4.2h0.8c6.5,0,6.5,0,6.5-6.5
	v-69.7h0.8c0.8,1.1,1.1,2.3,1.9,3.4c11.4,21.6,23.1,43.2,34.1,65.2c3,6.1,6.8,8.7,13.6,8c4.2-0.4,5.3-1.1,5.3-5.7v-85.3
	C453.2,254.7,452.5,252.5,452.1,252.5z"/>
<path class="st0" d="M329.6,292.3h-36.4c0-7.6-0.4-14.4,0-21.6c0.4-6.1,3.4-8.7,9.5-9.1c9.1-0.4,18.2-0.4,27.3-0.4
	c2.3,0,4.9,0.8,4.5-3c-0.4-3,1.1-6.8-4.2-6.8c-9.5,0-19-0.4-28.4,0c-10.6,0.4-17.8,6.1-20.1,14.8c-0.8,3.2-1.1,6.5-1.1,9.9v66.7
	c0,3,1.1,4.2,4.2,4.2h3c3.4,0.4,4.5-1.1,4.5-4.5v-39.8h38.3c1.6-0.1,3.1-0.7,4.2-1.9C336.9,295.7,334.6,292.3,329.6,292.3z"/>
<path class="st0" d="M568.5,257c0-2.3,0.8-5.3-3-5.3h-59.9c-1.1,0-2.2,0.4-3,1.1c-1.7,2.3-1.3,5.5,1,7.2c0.2,0.1,0.4,0.3,0.6,0.4
	c1,0.8,2.2,1.1,3.4,0.8h22v80.4c0,1.5,0.4,3.4,1.5,3.8c3.1,1.9,7.1,1.1,9.1-1.9c0.8-1.2,1.2-2.7,1.1-4.2v-77.7H565
	C568.8,261.6,568.8,259.3,568.5,257z"/>
<path class="st0" d="M169.7,251.7h-3.4c-3.8-0.4-4.9,1.1-4.9,4.6v85.3c0,4.9,0,4.9,5.7,4.9s5.7-0.4,5.7-5.3v-86
	C173.1,252.8,172,251.7,169.7,251.7z"/>
<path class="st0" d="M482.8,251.7h-3.4c-3.8-0.4-4.9,1.1-4.9,4.6v85.3c0,1.5,0.4,4.2,0.8,4.2c3,0.7,6.1,0.8,9.1,0.4
	c0.8,0,1.5-3,1.5-4.9v-86.1C486.2,252.8,485.4,251.7,482.8,251.7z"/>
<path class="st0" d="M361.1,251.7h-1.5c-6.4,0-6.4,0-6.4,6.1v84.1c0,1.1,0.4,3.8,0.8,3.8c3,0.7,6.1,0.8,9.1,0.4c0.8,0,1.5-3,1.5-4.9
	v-85.7C364.9,252.5,363.8,251.3,361.1,251.7z"/>
<path class="st0" d="M638.2,341.2c-3.8-13.6-7.6-26.9-11.4-40.6s-7.6-26.9-11.4-39.4c-1.2-6.4-7.1-10.9-13.6-10.2
	c-6.1-0.4-11.5,3.9-12.5,9.9c-4.9,16.7-9.9,33.7-14.4,50.4c-3,10.2-5.7,20.5-8.7,30.7c-1.1,3.8-0.8,4.5,3.4,4.5h3
	c3.4,0.4,4.5-0.8,5.3-4.2c2.3-9.1,4.9-18.2,7.6-26.9h33c2.7,9.5,5.3,18.6,8,27.7c0.8,2.6,1.9,3.8,4.5,3.4h3
	C639.3,346.5,639.7,346.1,638.2,341.2z M588.5,305.2c1.9-6.4,3.4-12.9,5.3-19.3c1.9-7.2,3.8-14.8,6.1-22c0.4-1.1,1.5-1.9,2.7-3
	c0.8,0.8,2.3,1.5,2.7,2.6c3.8,13.6,7.6,27.3,11.8,41.3h-28.4L588.5,305.2z"/>
</svg>
