<svg id="Capa_1" data-name="Capa 1" xmlns="http://www.w3.org/2000/svg" viewBox="0 0 800 400"><defs><style>.cls-1{fill:#ccc;}</style></defs><path class="cls-1" d="M310.63,195.75a21.33,21.33,0,0,0,38.52,18.35l3.66-7.69-23.63-49.58Z"/><polygon class="cls-1" points="467.55 294.77 475.74 294.77 471.64 282.55 467.55 294.77"/><path class="cls-1" d="M384.44,122.17a21.33,21.33,0,0,0-38.52,18.35L381,214.1a21.33,21.33,0,0,0,38.59-18.19Z"/><path class="cls-1" d="M456.21,122.17a21.33,21.33,0,0,0-38.59,18.2l35.14,73.73a21.33,21.33,0,1,0,38.51-18.35Z"/><path class="cls-1" d="M511.73,38.42H289.24A52.15,52.15,0,0,0,237,90.69V308.76A52.15,52.15,0,0,0,289.24,361H511.73A52.15,52.15,0,0,0,564,308.76V90.69A52.15,52.15,0,0,0,511.73,38.42Zm-154,271.25a1.16,1.16,0,0,1-1,1H346.22a1.17,1.17,0,0,1-1-1V295.33L336,306.51a1.32,1.32,0,0,1-1.78,0L325,295.33v14.34a1.17,1.17,0,0,1-1,1H313.47a1.17,1.17,0,0,1-1-1v-39a1.17,1.17,0,0,1,1-1h8a2.14,2.14,0,0,1,1.67,1l11,17.79a1.24,1.24,0,0,0,1.78,0l11-17.79a2.14,2.14,0,0,1,1.67-1h8.05a1.16,1.16,0,0,1,1,1Zm42.11,1h-30a1.17,1.17,0,0,1-1-1v-39a1.17,1.17,0,0,1,1-1H399a1.17,1.17,0,0,1,1,1V279a1.17,1.17,0,0,1-1,1H382.31a1.17,1.17,0,0,0-1,1v3a1.17,1.17,0,0,0,1,1h8.33a1.17,1.17,0,0,1,1,1v8.26a1.17,1.17,0,0,1-1,1h-8.33a1.17,1.17,0,0,0-1,1v3.35a1.17,1.17,0,0,0,1,1h17.5a1.16,1.16,0,0,1,1,1v7.8A1.17,1.17,0,0,1,399.81,310.71Zm46.69-8.53a4.59,4.59,0,0,1-1.47,2.53A23.21,23.21,0,0,1,428,312c-12.72,0-23-9.67-23-21.6s10.31-21.6,23-21.6h0A23.7,23.7,0,0,1,443,274l.31.27a1.5,1.5,0,0,1,0,2L436,283.15a1,1,0,0,1-1.23,0l-.23-.18a10.07,10.07,0,0,0-6.39-2.2,9.59,9.59,0,1,0,0,19.15,10.49,10.49,0,0,0,5.27-1.44v-6.19a1.17,1.17,0,0,1,1-1h11a1.17,1.17,0,0,1,1,1Zm46.67,8.53h-11.4c-.49,0-.88-.58-1-1l-1.84-5.5h-14.5l-1.84,5.5c-.16.46-.55,1-1,1h-11.4c-.49,0-1.22-.59-1-1l15.4-39c.17-.45.53-1,1-1h12.28c.51,0,.86.59,1,1l15.39,39C494.39,310.12,493.66,310.71,493.17,310.71Zm-2.46-66.55a43.47,43.47,0,0,1-54.59-14.72,43.44,43.44,0,0,1-71.05,1,43.46,43.46,0,0,1-74.41-44.21l35.06-73.58a43.13,43.13,0,0,1,21.82-21c.43-.2.87-.38,1.31-.56h0a43.46,43.46,0,0,1,52.21,15.77,43.45,43.45,0,0,1,75.11,5.82l35.07,73.58A43.47,43.47,0,0,1,490.71,244.16Z"/></svg>