<?xml version="1.0" encoding="utf-8"?>
<!-- Generator: Adobe Illustrator 26.0.0, SVG Export Plug-In . SVG Version: 6.00 Build 0)  -->
<svg version="1.1" id="Capa_1" xmlns="http://www.w3.org/2000/svg" xmlns:xlink="http://www.w3.org/1999/xlink" x="0px" y="0px"
	 viewBox="0 0 800 400" style="enable-background:new 0 0 800 400;" xml:space="preserve">
<style type="text/css">
	.st0{fill:#AAAAAA;}
</style>
<path class="st0" d="M310.6,195.8c-5.1,10.6-0.6,23.4,10.1,28.4s23.4,0.6,28.4-10.1l3.7-7.7l-23.6-49.6L310.6,195.8z"/>
<polygon class="st0" points="467.5,294.8 475.7,294.8 471.6,282.5 "/>
<path class="st0" d="M384.4,122.2c-5.1-10.6-17.8-15.2-28.4-10.1s-15.2,17.8-10.1,28.4l35.1,73.6c5,10.7,17.7,15.2,28.4,10.2
	c10.7-5,15.2-17.7,10.2-28.4l0,0L384.4,122.2z"/>
<path class="st0" d="M456.2,122.2c-5-10.7-17.7-15.2-28.4-10.2c-10.7,5-15.2,17.7-10.2,28.4l35.1,73.7c5,10.7,17.7,15.3,28.3,10.3
	c10.7-5,15.3-17.7,10.3-28.3c-0.1-0.1-0.1-0.2-0.2-0.3L456.2,122.2z"/>
<path class="st0" d="M511.7,38.4H289.2c-28.8,0-52.2,23.3-52.2,52.1c0,0.1,0,0.1,0,0.2v218.1c0,28.8,23.3,52.2,52.1,52.2
	c0.1,0,0.1,0,0.2,0h222.5c28.8,0.1,52.2-23.2,52.3-52c0-0.1,0-0.1,0-0.2V90.7c0.1-28.8-23.2-52.2-52-52.3
	C511.9,38.4,511.8,38.4,511.7,38.4z M357.7,309.7c-0.1,0.5-0.5,0.9-1,1h-10.5c-0.5-0.1-0.9-0.5-1-1v-14.3l-9.2,11.2
	c-0.5,0.5-1.3,0.5-1.8,0l-9.2-11.2v14.3c-0.1,0.5-0.5,0.9-1,1h-10.5c-0.5-0.1-0.9-0.5-1-1v-39c0.1-0.5,0.5-0.9,1-1h8
	c0.7,0,1.3,0.4,1.7,1l11,17.8c0.5,0.5,1.3,0.5,1.8,0c0,0,0,0,0,0l11-17.8c0.4-0.6,1-1,1.7-1h8c0.5,0.1,0.9,0.5,1,1L357.7,309.7z
	 M399.8,310.7h-30c-0.5-0.1-0.9-0.5-1-1v-39c0.1-0.5,0.5-0.9,1-1H399c0.5,0.1,0.9,0.5,1,1v8.3c-0.1,0.5-0.5,0.9-1,1h-16.7
	c-0.5,0.1-0.9,0.5-1,1v3c0.1,0.5,0.5,0.9,1,1h8.3c0.5,0.1,0.9,0.5,1,1v8.3c-0.1,0.5-0.5,0.9-1,1h-8.3c-0.5,0.1-0.9,0.5-1,1v3.4
	c0.1,0.5,0.5,0.9,1,1h17.5c0.5,0.1,0.9,0.5,1,1v7.8C400.9,310,400.4,310.6,399.8,310.7L399.8,310.7z M446.5,302.1
	c-0.2,1-0.7,1.9-1.5,2.5c-4.4,4.7-10.6,7.4-17.1,7.3c-12.7,0-23-9.7-23-21.6s10.3-21.6,23-21.6l0,0c5.4,0,10.7,1.8,15,5.2l0.3,0.3
	c0.5,0.6,0.5,1.4,0,2l-7.3,6.9c-0.4,0.3-0.9,0.3-1.2,0l-0.2-0.2c-1.8-1.4-4.1-2.2-6.4-2.2c-5.3-0.3-9.8,3.8-10.1,9
	c-0.3,5.3,3.8,9.8,9,10.1c0.4,0,0.7,0,1.1,0c1.9,0,3.7-0.5,5.3-1.4v-6.2c0.1-0.5,0.5-0.9,1-1h11c0.5,0.1,0.9,0.5,1,1L446.5,302.1z
	 M493.2,310.7h-11.4c-0.5,0-0.9-0.6-1-1l-1.8-5.5h-14.5l-1.8,5.5c-0.2,0.5-0.5,1-1,1h-11.4c-0.5,0-1.2-0.6-1-1l15.4-39
	c0.2-0.5,0.5-1,1-1h12.3c0.5,0,0.9,0.6,1,1l15.4,39C494.4,310.1,493.7,310.7,493.2,310.7L493.2,310.7z M490.7,244.1
	c-19.3,9.2-42.5,3-54.6-14.7c-13.5,19.8-40.6,24.9-60.4,11.4c-4.1-2.8-7.7-6.3-10.7-10.4c-14.1,19.4-41.3,23.7-60.7,9.6
	c-16.9-12.3-22.7-34.9-13.7-53.8l35.1-73.6c4.5-9.4,12.2-16.9,21.8-21c0.4-0.2,0.9-0.4,1.3-0.6l0,0c18.9-7.7,40.7-1.1,52.2,15.8
	c13.5-19.8,40.6-24.9,60.4-11.4c6.3,4.3,11.4,10.3,14.7,17.2l35.1,73.6C521.6,207.9,512.4,233.8,490.7,244.1
	C490.7,244.2,490.7,244.2,490.7,244.1L490.7,244.1z"/>
</svg>
