<svg id="Capa_1" data-name="Capa 1" xmlns="http://www.w3.org/2000/svg" viewBox="0 0 800 400"><defs><style>.cls-1{fill:#ccc;}</style></defs><g id="layer101"><path class="cls-1" d="M672.53,227.66c-.43-.72,3.43-12.86,8.72-27.16l9.57-25.86h13.3l9.57,25.58c5.43,14.15,9.29,26.3,8.72,27.15-1,1.72-9.15,2.15-11.72.43-.86-.57-2.14-2.86-2.57-5-1-3.72-1.43-3.86-10.15-3.86-9,0-9.15,0-11.15,5-2,4.58-2.71,5-7.86,5C675.82,229,673,228.37,672.53,227.66Zm29-21.87a26.29,26.29,0,0,0-2-6.86l-1.86-5-1.42,3.57c-3.72,9.58-3.72,10,1,10C700,207.51,701.69,206.79,701.54,205.79Z"/><path class="cls-1" d="M739.7,227.23c-6.29-1.29-15.15-7.43-15.15-10.29,0-1.86,5.86-8,7.72-8,.57,0,2.72,1.28,4.72,2.86,4.43,3.43,12.57,3.85,13.86.71.72-2.14-6.43-7.86-9.86-7.86-.86,0-3.86-1.57-6.72-3.57-10.29-7-10.15-20.3.29-25.73,5.43-2.86,16.15-2.71,22.29.14,7.86,3.72,8.44,5.43,3.58,10.87-3.86,4.43-4.29,4.57-6.86,2.43-3.43-3.15-7.86-4.29-10.29-2.86-3.43,2.14-.58,5.43,6.86,8,10.14,3.29,15.86,9,15.86,15.72C766,222.8,754.71,230.37,739.7,227.23Z"/><path class="cls-1" d="M182.18,225.8c-.43-1.14-.58-12.86-.43-26.15l.43-24.3,6-.43,5.86-.43,7.43,12.29c4,6.72,7.86,11.87,8.58,11.44.57-.43,4.14-5.86,7.86-12.29l6.86-11.44,5.86.43,5.86.43V226.8h-14.3l-.43-9.15-.42-9.14-6.15,6.86-6,6.86-5.58-6.86-5.71-6.86-.72,9.14-.71,9.15-6.86.43C185,227.52,182.61,227.09,182.18,225.8Z"/><path class="cls-1" d="M251.49,201.08V174.49l19,.43,18.87.43v11.43l-11.44.72c-10.57.71-11.43,1-11.86,4s.14,3.14,6,3.14h6.58v12.87h-6.43c-5.86,0-6.44.28-6.44,3.57,0,3.57.15,3.57,12.15,3.57h12.15v12.87H251.49Z"/><path class="cls-1" d="M312.23,225.8c-4.57-2.57-10.86-8.72-13.15-13-1.14-2.29-2-7.58-2-11.87,0-13.57,8.72-24,22.58-27,5.72-1.14,15,1.29,19.73,5.43l3.71,3.15-4.86,4.86c-4.86,4.57-5.14,4.71-10.14,2.85-14-5-22.58,13.15-9.72,20.58,6.14,3.58,11.43,2.43,12-3,.43-3.57,1-3.86,8-4.28l7.43-.43v8c0,7.86,0,8-6.72,12.15-5.57,3.57-8.15,4.29-15.29,4.29C319,227.52,313.8,226.66,312.23,225.8Z"/><path class="cls-1" d="M352.25,226.09c-1-1.58,15.44-46.17,18.15-49.6.86-1,4.57-1.85,8.29-1.85s7.43.85,8.15,1.85c3.28,4,19.29,48.45,17.86,49.88-.71.72-4.14,1.15-7.57.86-5.58-.43-6.58-1-8.29-5-2-4.58-2.43-4.72-10.15-4.72s-8.15.14-10.15,4.72c-1.86,4.14-2.71,4.57-8.72,5C356.11,227.52,352.82,226.94,352.25,226.09Zm30.16-22.3c-.43-1.28-1.29-3.86-1.72-5.71-1.14-4.72-2.57-4.29-4.57,1.28-2.43,6.58-2.29,6.72,2.71,6.72C382.26,206.08,383.12,205.65,382.41,203.79Z"/><path class="cls-1" d="M415.13,225.8c-.42-1.14-.57-12.86-.42-26.15l.42-24.3,6.86-.43,6.72-.43,9,13.87,8.86,13.86.71-13.43.72-13.44,6.14-.43,6-.43-.28,26.16-.43,26.15H446.58L438,212.94l-8.57-13.86-.72,13.86L428,226.8l-6.15.43C417.85,227.52,415.56,227.09,415.13,225.8Z"/><path class="cls-1" d="M482.31,223.94c-9.29-6.14-12.87-12.43-12.87-22.86,0-7.29.72-9.87,4-14.58,9.86-14.29,31-16.58,41.87-4.43,11.43,12.43,9.86,30.73-3.14,40.73-4.29,3.14-7,4-14.72,4.43C489.17,227.66,487.31,227.23,482.31,223.94Zm18.29-9.14a15.25,15.25,0,0,0,7.29-22.3c-2.72-4.14-10.29-6.86-15.29-5.72-12.87,3.29-14,22.87-1.72,28C494.74,216.37,496.45,216.37,500.6,214.8Z"/><path class="cls-1" d="M540.19,207.65v-20l-6.72-.43c-6.72-.43-6.86-.57-7.29-5.57-.71-7.86,1.15-8.58,22-8.15l18.44.43.43,6.86.43,6.72h-13v40H540.19Z"/><path class="cls-1" d="M575.92,201.08V174.64l3.57-.86a20,20,0,0,1,7.15,0l3.57.86v52.88H575.92Z"/><path class="cls-1" d="M613.79,225.37c-6.57-3.57-9.43-6.57-12.29-12.86-5.57-12.15-1.43-26.3,9.72-34.16,5-3.43,7.43-4.14,14.29-4.14,5,0,10.15,1,13,2.43l4.71,2.43-2.57,4.28c-3.72,6.29-5.43,7.44-8.86,5.72-5-2.71-10.15-1.86-14.72,2.72-3.86,3.86-4.29,5.14-3.57,10.29,1.28,10,8.43,13.86,19.58,10.72,3-.86,4-.29,6.71,3.85l3.15,4.86-2.86,2.58C635.94,227.8,619.65,228.52,613.79,225.37Z"/><path class="cls-1" d="M650.24,201.08V174.64l3.57-.86a19.92,19.92,0,0,1,7.14,0l3.58.86v52.88H650.24Z"/></g><path class="cls-1" d="M71.41,198.93c-1.42,0-7.14,12.72-7.14,15.72,0,5.15,6.57,8.86,10.86,6s4.57-6.44.86-14.15C74,202.36,71.84,198.93,71.41,198.93Z"/><path class="cls-1" d="M81.7,181.21c-6.14,2.14-5.71,7.86,1.72,23.3,3.57,7.29,7.29,14.15,8.15,15.29,2.57,3.14,8.14,2.43,10.71-1.43,2.15-3.43,2-4.29-4.43-18.58C90,182.21,87.42,179.21,81.7,181.21Z"/><path class="cls-1" d="M157.17,200.36c0-66.46,5-61.45-62-61.45-44.59,0-47.16.14-51.59,2.85-9,5.58-9.29,7.44-9.29,58.89,0,51.73.28,53.31,10.14,58.59,4.43,2.29,9,2.58,51.31,2.58C162.17,261.82,157.17,266.82,157.17,200.36ZM128.58,226.8c-5.57,2.86-9.86,2.72-15.43-.71l-4.72-2.86-3.72,2.86A13.73,13.73,0,0,1,88,225.94c-3.57-2.85-4-2.85-6.57-.57C77.7,228.66,68.7,229.52,64,226.8c-9.14-5.14-9.14-12.86.43-32.73,4-8.29,8.86-16.43,10.86-18,4.58-3.58,11.29-3.72,16.87-.29,4.14,2.57,4.43,2.57,9-.14,5.15-3,13-2.72,17.15.71,1.14,1,5.58,9,9.86,17.58C138,214.37,138.16,221.8,128.58,226.8Z"/><path class="cls-1" d="M110.57,180.92c-4-1-9.14,2.58-9.14,6.58,0,3.57,13.86,32.44,16,33.3,3.43,1.43,5.86,1,8.58-1.43a7.84,7.84,0,0,0,2.57-4.72c0-1.28-3.29-9.29-7.14-17.58C115.72,184.78,113.58,181.64,110.57,180.92Z"/></svg>