<?xml version="1.0" encoding="utf-8"?>
<!-- Generator: Adobe Illustrator 26.0.0, SVG Export Plug-In . SVG Version: 6.00 Build 0)  -->
<svg version="1.1" id="Capa_1" xmlns="http://www.w3.org/2000/svg" xmlns:xlink="http://www.w3.org/1999/xlink" x="0px" y="0px"
	 viewBox="0 0 800 400" style="enable-background:new 0 0 800 400;" xml:space="preserve">
<style type="text/css">
	.st0{fill:#AAAAAA;}
</style>
<g id="layer101">
	<path class="st0" d="M672.5,227.7c-0.4-0.7,3.4-12.9,8.7-27.2l9.6-25.9h13.3l9.6,25.6c5.4,14.1,9.3,26.3,8.7,27.1
		c-1,1.7-9.2,2.1-11.7,0.4c-0.9-0.6-2.1-2.9-2.6-5c-1-3.7-1.4-3.9-10.2-3.9c-9,0-9.2,0-11.2,5c-2,4.6-2.7,5-7.9,5
		C675.8,229,673,228.4,672.5,227.7z M701.5,205.8c-0.4-2.4-1-4.7-2-6.9l-1.9-5l-1.4,3.6c-3.7,9.6-3.7,10,1,10
		C700,207.5,701.7,206.8,701.5,205.8L701.5,205.8z"/>
	<path class="st0" d="M739.7,227.2c-6.3-1.3-15.2-7.4-15.2-10.3c0-1.9,5.9-8,7.7-8c0.6,0,2.7,1.3,4.7,2.9c4.4,3.4,12.6,3.9,13.9,0.7
		c0.7-2.1-6.4-7.9-9.9-7.9c-0.9,0-3.9-1.6-6.7-3.6c-10.3-7-10.2-20.3,0.3-25.7c5.4-2.9,16.2-2.7,22.3,0.1c7.9,3.7,8.4,5.4,3.6,10.9
		c-3.9,4.4-4.3,4.6-6.9,2.4c-3.4-3.1-7.9-4.3-10.3-2.9c-3.4,2.1-0.6,5.4,6.9,8c10.1,3.3,15.9,9,15.9,15.7
		C766,222.8,754.7,230.4,739.7,227.2z"/>
	<path class="st0" d="M182.2,225.8c-0.4-1.1-0.6-12.9-0.4-26.1l0.4-24.3l6-0.4l5.9-0.4l7.4,12.3c4,6.7,7.9,11.9,8.6,11.4
		c0.6-0.4,4.1-5.9,7.9-12.3l6.9-11.4l5.9,0.4l5.9,0.4v51.4h-14.3l-0.4-9.1l-0.4-9.1l-6.1,6.9l-6,6.9l-5.6-6.9l-5.7-6.9l-0.7,9.1
		l-0.7,9.1l-6.9,0.4C185,227.5,182.6,227.1,182.2,225.8z"/>
	<path class="st0" d="M251.5,201.1v-26.6l19,0.4l18.9,0.4v11.4l-11.4,0.7c-10.6,0.7-11.4,1-11.9,4s0.1,3.1,6,3.1h6.6v12.9h-6.4
		c-5.9,0-6.4,0.3-6.4,3.6c0,3.6,0.1,3.6,12.1,3.6h12.1v12.9h-38.6V201.1z"/>
	<path class="st0" d="M312.2,225.8c-4.6-2.6-10.9-8.7-13.1-13c-1.1-2.3-2-7.6-2-11.9c0-13.6,8.7-24,22.6-27c5.7-1.1,15,1.3,19.7,5.4
		l3.7,3.1l-4.9,4.9c-4.9,4.6-5.1,4.7-10.1,2.9c-14-5-22.6,13.1-9.7,20.6c6.1,3.6,11.4,2.4,12-3c0.4-3.6,1-3.9,8-4.3l7.4-0.4v8
		c0,7.9,0,8-6.7,12.1c-5.6,3.6-8.1,4.3-15.3,4.3C319,227.5,313.8,226.7,312.2,225.8z"/>
	<path class="st0" d="M352.2,226.1c-1-1.6,15.4-46.2,18.1-49.6c0.9-1,4.6-1.9,8.3-1.9s7.4,0.9,8.1,1.9c3.3,4,19.3,48.4,17.9,49.9
		c-0.7,0.7-4.1,1.1-7.6,0.9c-5.6-0.4-6.6-1-8.3-5c-2-4.6-2.4-4.7-10.1-4.7s-8.1,0.1-10.1,4.7c-1.9,4.1-2.7,4.6-8.7,5
		C356.1,227.5,352.8,226.9,352.2,226.1z M382.4,203.8c-0.4-1.3-1.3-3.9-1.7-5.7c-1.1-4.7-2.6-4.3-4.6,1.3c-2.4,6.6-2.3,6.7,2.7,6.7
		C382.3,206.1,383.1,205.6,382.4,203.8z"/>
	<path class="st0" d="M415.1,225.8c-0.4-1.1-0.6-12.9-0.4-26.1l0.4-24.3l6.9-0.4l6.7-0.4l9,13.9l8.9,13.9l0.7-13.4l0.7-13.4l6.1-0.4
		l6-0.4l-0.3,26.2l-0.4,26.1h-12.9l-8.6-13.9l-8.6-13.9l-0.7,13.9l-0.7,13.9l-6.1,0.4C417.9,227.5,415.6,227.1,415.1,225.8z"/>
	<path class="st0" d="M482.3,223.9c-9.3-6.1-12.9-12.4-12.9-22.9c0-7.3,0.7-9.9,4-14.6c9.9-14.3,31-16.6,41.9-4.4
		c11.4,12.4,9.9,30.7-3.1,40.7c-4.3,3.1-7,4-14.7,4.4C489.2,227.7,487.3,227.2,482.3,223.9z M500.6,214.8c7.8-3.1,11.7-12,8.6-19.8
		c-0.3-0.9-0.8-1.7-1.3-2.5c-2.7-4.1-10.3-6.9-15.3-5.7c-12.9,3.3-14,22.9-1.7,28C494.7,216.4,496.5,216.4,500.6,214.8z"/>
	<path class="st0" d="M540.2,207.6v-20l-6.7-0.4c-6.7-0.4-6.9-0.6-7.3-5.6c-0.7-7.9,1.2-8.6,22-8.1l18.4,0.4l0.4,6.9l0.4,6.7h-13v40
		h-14.3V207.6z"/>
	<path class="st0" d="M575.9,201.1v-26.4l3.6-0.9c2.4-0.4,4.8-0.4,7.2,0l3.6,0.9v52.9h-14.3V201.1z"/>
	<path class="st0" d="M613.8,225.4c-6.6-3.6-9.4-6.6-12.3-12.9c-5.6-12.1-1.4-26.3,9.7-34.2c5-3.4,7.4-4.1,14.3-4.1
		c5,0,10.2,1,13,2.4l4.7,2.4l-2.6,4.3c-3.7,6.3-5.4,7.4-8.9,5.7c-5-2.7-10.2-1.9-14.7,2.7c-3.9,3.9-4.3,5.1-3.6,10.3
		c1.3,10,8.4,13.9,19.6,10.7c3-0.9,4-0.3,6.7,3.9l3.2,4.9l-2.9,2.6C635.9,227.8,619.7,228.5,613.8,225.4z"/>
	<path class="st0" d="M650.2,201.1v-26.4l3.6-0.9c2.4-0.4,4.8-0.4,7.1,0l3.6,0.9v52.9h-14.3V201.1z"/>
</g>
<path class="st0" d="M71.4,198.9c-1.4,0-7.1,12.7-7.1,15.7c0,5.1,6.6,8.9,10.9,6s4.6-6.4,0.9-14.1C74,202.4,71.8,198.9,71.4,198.9z"
	/>
<path class="st0" d="M81.7,181.2c-6.1,2.1-5.7,7.9,1.7,23.3c3.6,7.3,7.3,14.1,8.2,15.3c2.6,3.1,8.1,2.4,10.7-1.4
	c2.2-3.4,2-4.3-4.4-18.6C90,182.2,87.4,179.2,81.7,181.2z"/>
<path class="st0" d="M157.2,200.4c0-66.5,5-61.4-62-61.4c-44.6,0-47.2,0.1-51.6,2.9c-9,5.6-9.3,7.4-9.3,58.9
	c0,51.7,0.3,53.3,10.1,58.6c4.4,2.3,9,2.6,51.3,2.6C162.2,261.8,157.2,266.8,157.2,200.4z M128.6,226.8c-5.6,2.9-9.9,2.7-15.4-0.7
	l-4.7-2.9l-3.7,2.9c-5,3.7-11.8,3.7-16.7-0.1c-3.6-2.9-4-2.9-6.6-0.6c-3.7,3.3-12.7,4.2-17.4,1.4c-9.1-5.1-9.1-12.9,0.4-32.7
	c4-8.3,8.9-16.4,10.9-18c4.6-3.6,11.3-3.7,16.9-0.3c4.1,2.6,4.4,2.6,9-0.1c5.2-3,13-2.7,17.2,0.7c1.1,1,5.6,9,9.9,17.6
	C138,214.4,138.2,221.8,128.6,226.8z"/>
<path class="st0" d="M110.6,180.9c-4-1-9.1,2.6-9.1,6.6c0,3.6,13.9,32.4,16,33.3c3.4,1.4,5.9,1,8.6-1.4c1.4-1.2,2.3-2.9,2.6-4.7
	c0-1.3-3.3-9.3-7.1-17.6C115.7,184.8,113.6,181.6,110.6,180.9z"/>
</svg>
