<?xml version="1.0" encoding="UTF-8" standalone="no"?>
<!-- Created with Inkscape (http://www.inkscape.org/) -->

<svg
   xmlns:dc="http://purl.org/dc/elements/1.1/"
   xmlns:cc="http://creativecommons.org/ns#"
   xmlns:rdf="http://www.w3.org/1999/02/22-rdf-syntax-ns#"
   xmlns:svg="http://www.w3.org/2000/svg"
   xmlns="http://www.w3.org/2000/svg"
   xmlns:sodipodi="http://sodipodi.sourceforge.net/DTD/sodipodi-0.dtd"
   xmlns:inkscape="http://www.inkscape.org/namespaces/inkscape"
   width="3000"
   height="2959.4595"
   viewBox="0 0 3000.0001 2959.4594"
   id="svg2"
   version="1.1"
   inkscape:version="0.91 r13725"
   sodipodi:docname="mega 2015.svg">
  <defs
     id="defs4" />
  <sodipodi:namedview
     id="base"
     pagecolor="#ffffff"
     bordercolor="#666666"
     borderopacity="1.0"
     inkscape:pageopacity="0.0"
     inkscape:pageshadow="2"
     inkscape:zoom="0.031524663"
     inkscape:cx="516.85463"
     inkscape:cy="775.35412"
     inkscape:document-units="px"
     inkscape:current-layer="layer1"
     showgrid="false"
     inkscape:showpageshadow="false"
     fit-margin-top="0"
     fit-margin-left="0"
     fit-margin-right="0"
     fit-margin-bottom="0"
     inkscape:window-width="1280"
     inkscape:window-height="721"
     inkscape:window-x="-4"
     inkscape:window-y="-4"
     inkscape:window-maximized="1"
     units="px" />
  <metadata
     id="metadata7">
    <rdf:RDF>
      <cc:Work
         rdf:about="">
        <dc:format>image/svg+xml</dc:format>
        <dc:type
           rdf:resource="http://purl.org/dc/dcmitype/StillImage" />
        <dc:title></dc:title>
        <cc:license
           rdf:resource="http://creativecommons.org/licenses/by-sa/3.0/" />
        <dc:subject>
          <rdf:Bag>
            <rdf:li>Mega</rdf:li>
            <rdf:li>Logo</rdf:li>
            <rdf:li>Canal de televisión</rdf:li>
            <rdf:li>Chile</rdf:li>
            <rdf:li>2015</rdf:li>
          </rdf:Bag>
        </dc:subject>
      </cc:Work>
      <cc:License
         rdf:about="http://creativecommons.org/licenses/by-sa/3.0/">
        <cc:permits
           rdf:resource="http://creativecommons.org/ns#Reproduction" />
        <cc:permits
           rdf:resource="http://creativecommons.org/ns#Distribution" />
        <cc:requires
           rdf:resource="http://creativecommons.org/ns#Notice" />
        <cc:requires
           rdf:resource="http://creativecommons.org/ns#Attribution" />
        <cc:permits
           rdf:resource="http://creativecommons.org/ns#DerivativeWorks" />
        <cc:requires
           rdf:resource="http://creativecommons.org/ns#ShareAlike" />
      </cc:License>
    </rdf:RDF>
  </metadata>
  <g
     inkscape:label="Capa 1"
     inkscape:groupmode="layer"
     id="layer1"
     transform="translate(6.325877,2175.4307)"
     style="display:inline">
    <g
       id="g4331"
       transform="matrix(6.392865,0,0,6.392865,-22.173549,-4180.5662)">
      <path
         id="rect4328"
         d="m 77.478962,313.6521 319.273168,0 c 41.55,0 75,33.45 75,75 l 0,312.93164 c 0,41.55 -33.45,75 -75,75 l -319.273168,0 c -41.55,0 -74.9999996,-33.45 -74.9999996,-75 l 0,-312.93164 c 0,-41.55 33.4499996,-75 74.9999996,-75 z"
         style="opacity:1;fill:#7e1e80;fill-opacity:1;fill-rule:nonzero;stroke:none;stroke-width:0;stroke-linecap:round;stroke-linejoin:round;stroke-miterlimit:4;stroke-dasharray:none;stroke-opacity:1"
         inkscape:connector-curvature="0" />
      <path
         id="path3360"
         transform="translate(-6.3258772,304.96625)"
         d="m 192.99609,79.650391 c -7.90569,-0.03405 -15.92446,1.442925 -23.63867,4.576171 -0.005,0.0021 -0.0105,0.0038 -0.0156,0.0059 -0.63038,0.256231 -1.2587,0.524278 -1.88477,0.802734 -13.25079,5.791488 -24.59709,16.086744 -31.30664,30.166014 l -50.318379,105.5859 c -14.81749,31.09319 -1.622447,68.31134 29.470699,83.12891 27.59711,13.15141 60.00619,4.22338 77.3086,-19.6875 17.3024,23.91088 49.71149,32.83891 77.30859,19.6875 10.31772,-4.91695 18.64973,-12.30936 24.65625,-21.11719 17.02583,24.98929 50.18741,34.52952 78.33203,21.11719 31.09316,-14.81757 44.2882,-52.03572 29.47071,-83.12891 L 352.06055,115.20117 c -10.65014,-22.348186 -32.8735,-35.450809 -56.07617,-35.550779 -9.0793,-0.0391 -18.30778,1.912658 -27.05274,6.080078 C 258.61165,90.648501 250.2783,98.043112 244.27148,106.85352 232.5357,89.627759 213.1379,79.737173 192.99609,79.650391 Z m -0.11328,31.761719 c 11.38878,0.0491 22.29588,6.4799 27.52344,17.44922 l 50.42383,105.82422 c 7.09406,15.21344 0.61248,33.32892 -14.57031,40.56445 -15.26177,7.2729 -33.52962,0.79682 -40.80274,-14.46484 L 165.13867,155.19922 c -7.27308,-15.26168 -0.79682,-33.52961 14.46485,-40.80274 4.29237,-2.0455 8.82281,-3.00358 13.27929,-2.98437 z m 102.98828,0 c 11.38878,0.0491 22.29588,6.4799 27.52344,17.44922 l 50.31836,105.58594 c 7.2729,15.26178 0.79683,33.52961 -14.46484,40.80273 -15.26177,7.2729 -33.52962,0.79682 -40.80274,-14.46484 L 268.0293,154.98047 c -7.1086,-15.21728 -0.62666,-33.34541 14.5625,-40.58399 4.29237,-2.0455 8.82281,-3.00358 13.27929,-2.98437 z m -154.75781,67.18555 33.91016,71.15625 -5.25782,11.03125 c -7.27312,15.26166 -25.54096,21.73774 -40.80273,14.46484 -15.26167,-7.27312 -21.73774,-25.54095 -14.46484,-40.80273 l 26.61523,-55.84961 z m 141.8457,160.62695 c -18.25347,2.6e-4 -33.05071,13.87497 -33.05078,30.99023 7e-5,17.11527 14.7973,30.98998 33.05078,30.99024 9.47292,-0.0117 18.32513,-3.85356 24.4043,-10.39453 0.9697,-1.04336 2.0738,-2.41549 2.10352,-3.62891 l 0,-14.17187 c 1e-5,-0.70006 -0.78432,-1.48438 -1.48438,-1.48438 l -15.73828,0 c -0.70004,0 -1.48435,0.78434 -1.48437,1.48438 l 0,8.88671 c -2.24178,1.32119 -4.85481,2.05557 -7.57227,2.0586 -7.96641,-2.4e-4 -14.42422,-6.15199 -14.42383,-13.74024 -3.9e-4,-7.58824 6.45742,-13.73999 14.42383,-13.74023 3.35607,0.005 6.62944,1.08735 9.17773,3.1582 l 0.32032,0.25977 c 0.45833,0.37246 1.34057,0.37241 1.77148,-0.0312 l 10.49609,-9.83594 c 0.69595,-0.65218 0.73497,-2.25345 0,-2.86133 l -0.45703,-0.3789 c -5.93242,-4.90668 -13.61768,-7.5387 -21.53711,-7.56055 z m -164.38476,1.26367 c -0.70009,0 -1.48438,0.78429 -1.48438,1.48438 l 0,55.95312 c 0,0.70003 0.78435,1.48439 1.48438,1.48438 l 14.99805,0 c 0.69996,-1e-5 1.48438,-0.78442 1.48437,-1.48438 l 0,-20.58203 13.22852,16.04883 c 0.54329,0.65912 2.01922,0.65913 2.5625,0 l 13.22851,-16.04883 0,20.58203 c -1e-5,0.69996 0.78442,1.48438 1.48438,1.48438 l 14.99804,0 c 0.69996,0 1.48438,-0.78442 1.48438,-1.48438 l 0,-55.95312 c 0,-0.70009 -0.78429,-1.48438 -1.48438,-1.48438 l -11.54687,0 c -0.94076,0 -1.90606,0.68396 -2.40039,1.48438 l -15.76367,25.52343 c -0.44884,0.72673 -2.11366,0.72673 -2.5625,0 l -15.76368,-25.52343 c -0.49463,-0.80088 -1.46103,-1.48438 -2.40234,-1.48438 l -11.54492,0 z m 80.80859,0 c -0.70009,1e-5 -1.48437,0.78429 -1.48437,1.48438 l 0,55.95312 c 0,0.70003 0.78434,1.48439 1.48437,1.48438 l 43.07813,0 c 0.70015,0 1.48636,-0.78423 1.48633,-1.48438 l -0.002,-11.19531 c -3e-5,-0.70004 -0.78433,-1.48439 -1.48437,-1.48438 l -25.11133,0 c -0.69999,1e-5 -1.48438,-0.78438 -1.48438,-1.48437 l 0,-4.80274 c 0,-0.69999 0.78439,-1.48438 1.48438,-1.48437 l 11.95117,0 c 0.70014,1e-5 1.48441,-0.78424 1.48438,-1.48438 l 0,-11.85351 c -3e-5,-0.70004 -0.78434,-1.48437 -1.48438,-1.48438 l -11.95117,0 c -0.69995,0 -1.48435,-0.78442 -1.48438,-1.48437 l 0,-4.36328 c -3e-5,-0.70004 0.78434,-1.48437 1.48438,-1.48438 l 24.01562,0 c 0.69998,-1e-5 1.48437,-0.78439 1.48438,-1.48437 l 0,-11.86328 c 1e-5,-0.70004 -0.78434,-1.48438 -1.48438,-1.48438 l -41.98242,0 z m 137.34766,0 c -0.72294,0 -1.22734,0.83318 -1.48438,1.48438 l -22.08593,55.95312 c -0.25701,0.65115 0.78628,1.48438 1.48632,1.48438 l 16.36524,0 c 0.70004,0 1.26182,-0.82066 1.48437,-1.48438 l 2.64649,-7.89258 20.80273,0 2.64649,7.89258 c 0.22255,0.66372 0.78433,1.48438 1.48437,1.48438 l 16.36719,0 c 0.70004,0 1.74138,-0.83323 1.48437,-1.48438 L 355.8418,341.97266 c -0.25704,-0.6512 -0.76144,-1.48438 -1.48438,-1.48438 l -17.62695,0 z m 8.8125,18.52539 5.87695,17.52539 -11.7539,0 5.87695,-17.52539 z"
         style="opacity:1;fill:#ffffff;fill-opacity:1;fill-rule:nonzero;stroke:none;stroke-width:0;stroke-linecap:round;stroke-linejoin:round;stroke-miterlimit:4;stroke-dasharray:none;stroke-opacity:1"
         inkscape:connector-curvature="0" />
    </g>
  </g>
</svg>
