<svg id="Capa_1" data-name="Capa 1" xmlns="http://www.w3.org/2000/svg" viewBox="0 0 800 400"><defs><style>.cls-1{fill:#ccc;}</style></defs><g id="_231f20ff" data-name="#231f20ff"><path class="cls-1" d="M465.37,174.07a36.91,36.91,0,0,1,17-3.86c5.38-.05,11.06.27,15.78,3.12a42.75,42.75,0,0,1,4.92,3.77c.14-1.95,0-3.9.06-5.85,3.3,0,6.59-.24,9.89-.1,0,4.61,0,9.22,0,13.82,0,3,.09,6-.08,9-3.4-.08-6.8.08-10.2.06-.32-.06-.9.11-1-.34a19.92,19.92,0,0,0-3.89-7.67,17.18,17.18,0,0,0-11.4-5.68c-4.48-.42-9.21-.25-13.33,1.76A18.47,18.47,0,0,0,463,194.28a25.43,25.43,0,0,0-.15,11.86,19,19,0,0,0,7.88,11.4c4.67,3.13,10.58,3.87,16.06,3.06a18.51,18.51,0,0,0,12.15-6.92,21,21,0,0,0,2.76-5.19c4.12,0,8.25,0,12.37,0a26.14,26.14,0,0,1-6.13,12.85,26.82,26.82,0,0,1-12.58,7.81,45,45,0,0,1-16.61,1.59A34.49,34.49,0,0,1,462,225a27.33,27.33,0,0,1-9.89-12.48,34.13,34.13,0,0,1-1.91-15.93,29.14,29.14,0,0,1,4.14-12.3A28.71,28.71,0,0,1,465.37,174.07Z"/><path class="cls-1" d="M730.62,170.49c7-.75,14.27-.16,20.76,2.71a28,28,0,0,1,10.91,8.11,29.33,29.33,0,0,1,6.23,15.77A34.37,34.37,0,0,1,766.68,212a27.26,27.26,0,0,1-9.23,12.29,33.61,33.61,0,0,1-16.72,6.26c-8.86.95-18.32-.61-25.67-5.88a27.52,27.52,0,0,1-11.28-18.24c-1.4-8.14,0-17,4.85-23.79a28,28,0,0,1,9.94-8.53,36.66,36.66,0,0,1,12-3.65M734,181.37A17.94,17.94,0,0,0,723.89,185a18.26,18.26,0,0,0-6.95,12.37,22.41,22.41,0,0,0,0,6.44,18.84,18.84,0,0,0,4.2,9.88,18.39,18.39,0,0,0,11,5.89,22.74,22.74,0,0,0,12.93-1.6,17.37,17.37,0,0,0,7.71-7.15,22,22,0,0,0,2.34-13.4,18.6,18.6,0,0,0-6-11.68A18.37,18.37,0,0,0,738,181.37,6.07,6.07,0,0,0,734,181.37Z"/><path class="cls-1" d="M30.5,171.26q31.39,0,62.81,0c.1,7.07,0,14.14,0,21.21q-5.16.06-10.3,0c-.06-3.68,0-7.36,0-11-10.64-.08-21.29,0-31.94,0q-.1,7.15,0,14.31,6.26,0,12.52,0c.11-1.73,0-3.47,0-5.21,3.24-.14,6.49-.08,9.74,0q0,10.23,0,20.45c-3.24.07-6.5.12-9.74,0,0-1.73.09-3.46-.05-5.18-4.17,0-8.34,0-12.5,0-.08,4.83-.09,9.66,0,14.48,10.64,0,21.28,0,31.92,0,0-3.67,0-7.33,0-11q5.14-.06,10.3,0c0,7,0,14,0,20.95H30.5c0-3.3,0-6.6,0-9.9,2.92-.1,5.85,0,8.77,0q.08-1.2.06-2.4c0-12.12,0-24.25,0-36.37-2.93,0-5.86,0-8.79,0C30.5,178,30.48,174.63,30.5,171.26Z"/><path class="cls-1" d="M103,171.26q15,0,30,0c0,3.37,0,6.74,0,10.11-3.19.08-6.37,0-9.56.06-.06,12.86,0,25.73,0,38.6,7.53.1,15.06,0,22.59,0,2.65,0,5.3-.09,7.94.14.13-4.3,0-8.6.06-12.9q5.23,0,10.47,0,0,11.44,0,22.88c-6.89.08-13.78-.1-20.67-.06q-20.4,0-40.79,0c0-3.36,0-6.72,0-10.08,2.86,0,5.71,0,8.57,0,0-11.05,0-22.1,0-33.15,0-1.83,0-3.66,0-5.49-2.86,0-5.71,0-8.57,0C103,178,102.91,174.63,103,171.26Z"/><path class="cls-1" d="M207.53,171.3c8.11,0,16.22,0,24.33,0,4.67,9.57,9.27,19.18,14,28.71,2.36,4.9,4.77,9.78,7.12,14.69l.34-.1q6.74-14.09,13.44-28.19c2.44-5,4.73-10.14,7.2-15.16,8-.05,16.06,0,24.09,0q0,5,0,10.07c-2.95,0-5.89,0-8.84,0-.08,5.25,0,10.5,0,15.76,0,7.64-.05,15.29,0,22.94,2.89.06,5.78,0,8.67,0,.11,3.31,0,6.61,0,9.92-6.82,0-13.64,0-20.46,0-2.92,0-5.84-.11-8.75.14,0-3.3,0-6.6,0-9.89,2.9-.36,5.83-.06,8.74-.22,0-8.56,0-17.12,0-25.68,0-1.86.07-3.72-.07-5.58a33,33,0,0,0-2,3.76c-2.57,5.08-5.07,10.21-7.54,15.34-3.67,7.39-7.41,14.75-10.93,22.21-3.13.06-6.26,0-9.39,0-5-10-9.92-20-15-30-1.25-2.53-2.47-5.08-3.75-7.59a34.64,34.64,0,0,0-2-3.76c-.16,4.43,0,8.87-.07,13.3,0,6,0,12,0,18,2.94.1,5.89,0,8.83,0,.09,3.35.09,6.71,0,10.06H207.52c0-3.35,0-6.71,0-10.06,2.93,0,5.87,0,8.81,0,.06-8.11,0-16.22,0-24.32,0-4.76.06-9.52-.05-14.28-2.93,0-5.87.05-8.8,0C207.52,178,207.49,174.67,207.53,171.3Z"/><path class="cls-1" d="M307.83,171.24h62.34c.07,7,.06,14.07,0,21.11-3.4,0-6.8,0-10.19,0,0-3.67.06-7.33,0-11-8.09-.1-16.19,0-24.28,0-2.46,0-4.92-.07-7.37,0,0,4.75,0,9.51,0,14.26h12.34c.12-1.73,0-3.46.05-5.19,3.21-.11,6.43-.05,9.64,0,0,6.83,0,13.67,0,20.5-3.2,0-6.42.07-9.62,0,0-1.74,0-3.49,0-5.23-4.12,0-8.25,0-12.37,0V220c6.49.13,13,0,19.5,0,4.05,0,8.12,0,12.17,0,0-3.68,0-7.35,0-11h10.18c.08,7,0,14,0,21q-31.18,0-62.37,0c0-3.29-.06-6.58,0-9.87,2.86,0,5.73.06,8.6,0,.08-8.58,0-17.15,0-25.73,0-4.34.05-8.67,0-13-2.88,0-5.75,0-8.62,0Q307.77,176.29,307.83,171.24Z"/><path class="cls-1" d="M380.35,171.24h43.84c4.7.17,9.55,1.1,13.49,3.8a14.63,14.63,0,0,1,4.78,5.71A20.64,20.64,0,0,1,444,190a14.44,14.44,0,0,1-5.21,10.75,18,18,0,0,1-7.05,3.43c-1.15.29-2.34.34-3.48.67a17.77,17.77,0,0,1,3.92,3.87,35.71,35.71,0,0,1,3.66,7.08c1,2.18,3,4.16,5.44,4.44a24.23,24.23,0,0,0,4.89-.1c0,3.33,0,6.67,0,10a35.28,35.28,0,0,1-8.21.56,13.25,13.25,0,0,1-8.75-4.1c-2.89-3-4.42-6.93-6.26-10.58-1.24-2.51-2.36-5.19-4.47-7.11a9.45,9.45,0,0,0-6.69-2.58c-3.6,0-7.21,0-10.81,0-.17,4.58-.07,9.17-.05,13.75,2.8.05,5.6,0,8.41,0,.07,3.31,0,6.62,0,9.92q-14.49.06-29,0c0-3.3,0-6.6,0-9.9,2.91,0,5.83.07,8.74,0V181.37c-2.92-.1-5.83,0-8.75,0q-.06-5,0-10.09m20.37,11.24c0,3.87,0,7.73,0,11.6a2.35,2.35,0,0,0,.28,1.4v.2c6.71-.08,13.43,0,20.14,0,1.59,0,3.25.2,4.77-.42a7.12,7.12,0,0,0-2.26-13.82c-7.56-.09-15.13.06-22.69-.07A2.78,2.78,0,0,0,400.72,182.48Z"/><path class="cls-1" d="M518.26,171.16c7.88-.08,15.77,0,23.65,0,1.8,0,3.61-.08,5.41.07,0,3.36,0,6.71,0,10.07-2.92,0-5.83-.05-8.75,0,0,7.93,0,15.87,0,23.8a24.45,24.45,0,0,0,.41,6.28,11.77,11.77,0,0,0,6.28,7.49,25,25,0,0,0,12.84,1.82,18.22,18.22,0,0,0,8.58-3,11.63,11.63,0,0,0,4.89-10.12c0-8.76.05-17.52,0-26.28-2.88-.08-5.76,0-8.64,0-.18-3.37-.06-6.75-.06-10.13,9.64,0,19.29-.07,28.93,0,0,3.37,0,6.74,0,10.11-2.72,0-5.45-.09-8.17,0,0,7.93,0,15.85,0,23.78a48.14,48.14,0,0,1-.25,6.9,20.43,20.43,0,0,1-2.88,7.88,22.51,22.51,0,0,1-4.31,4.83c-3.86,3.19-8.79,4.8-13.67,5.61A46.43,46.43,0,0,1,542,229a23,23,0,0,1-10.48-6.61,21,21,0,0,1-5-14.48c0-8.86,0-17.71,0-26.56-2.74-.08-5.49,0-8.24,0C518.24,177.91,518.27,174.53,518.26,171.16Z"/><path class="cls-1" d="M595.62,171.15c13.81,0,27.61,0,41.42,0,5.45,0,11.22.64,15.84,3.77a14.34,14.34,0,0,1,6,9.44c.66,3.69.71,7.67-.89,11.13a15,15,0,0,1-9.29,8.09,29.09,29.09,0,0,1-5.12,1.13c.8.83,1.82,1.43,2.58,2.31a21.59,21.59,0,0,1,3.47,5.34c.94,1.89,1.52,4,3,5.6a6.38,6.38,0,0,0,4.54,2.24,31.52,31.52,0,0,0,4.34-.13c0,3.34,0,6.68,0,10a39.24,39.24,0,0,1-8.17.51,13.06,13.06,0,0,1-8.62-3.91c-2.81-2.76-4.3-6.47-6.06-9.92a42.29,42.29,0,0,0-3.26-6.13,10.1,10.1,0,0,0-4.94-3.86c-2.6-.82-5.35-.47-8-.55-2.09,0-4.18-.05-6.26,0q0,6.84,0,13.7c2.83.1,5.67,0,8.5.05,0,3.3,0,6.61,0,9.91q-14.52,0-29,0c0-3.29-.06-6.58,0-9.86,2.93,0,5.86.07,8.79-.05q0-19.33,0-38.66c-2.91-.17-5.83-.05-8.74-.06-.19-3.37-.07-6.75-.07-10.13m20.5,10c-.19,4,0,8-.09,12.05a4.56,4.56,0,0,0,.29,2.35c7.64-.06,15.28,0,22.93,0a7.11,7.11,0,0,0-.22-14.2,6.69,6.69,0,0,0-1.15-.18C630.63,181.21,623.37,181.18,616.12,181.19Z"/><path class="cls-1" d="M668.43,171.15c7-.05,14,0,21,0,2.9,0,5.81-.1,8.71.07,0,3.36,0,6.71,0,10.07-3,0-5.94-.11-8.91.07q0,19.33,0,38.66c3,.13,5.94,0,8.91.06,0,3.29,0,6.57,0,9.85-3.54.19-7.09,0-10.64.09-6.36,0-12.71,0-19.07,0,0-3.3,0-6.61,0-9.92,2.95,0,5.91.06,8.87,0,.08-12.9,0-25.81,0-38.71-3-.08-5.9,0-8.85,0C668.33,177.91,668.43,174.53,668.43,171.15Z"/></g></svg>