<?xml version="1.0" encoding="UTF-8" standalone="no"?>
<svg
   xmlns:dc="http://purl.org/dc/elements/1.1/"
   xmlns:cc="http://creativecommons.org/ns#"
   xmlns:rdf="http://www.w3.org/1999/02/22-rdf-syntax-ns#"
   xmlns:svg="http://www.w3.org/2000/svg"
   xmlns="http://www.w3.org/2000/svg"
   xmlns:sodipodi="http://sodipodi.sourceforge.net/DTD/sodipodi-0.dtd"
   xmlns:inkscape="http://www.inkscape.org/namespaces/inkscape"
   width="447pt"
   height="395pt"
   viewBox="0 0 447 395"
   version="1.1"
   id="svg2"
   inkscape:version="0.48.1 "
   sodipodi:docname="T13_Logo2012.svg">
  <metadata
     id="metadata19">
    <rdf:RDF>
      <cc:Work
         rdf:about="">
        <dc:format>image/svg+xml</dc:format>
        <dc:type
           rdf:resource="http://purl.org/dc/dcmitype/StillImage" />
      </cc:Work>
    </rdf:RDF>
  </metadata>
  <defs
     id="defs17" />
  <sodipodi:namedview
     pagecolor="#ffffff"
     bordercolor="#666666"
     borderopacity="1"
     objecttolerance="10"
     gridtolerance="10"
     guidetolerance="10"
     inkscape:pageopacity="0"
     inkscape:pageshadow="2"
     inkscape:window-width="1366"
     inkscape:window-height="706"
     id="namedview15"
     showgrid="false"
     inkscape:snap-page="false"
     inkscape:zoom="0.7184354"
     inkscape:cx="279.375"
     inkscape:cy="271.45172"
     inkscape:window-x="-8"
     inkscape:window-y="-8"
     inkscape:window-maximized="1"
     inkscape:current-layer="g2996">
    <inkscape:grid
       type="xygrid"
       id="grid3005" />
  </sodipodi:namedview>
  <g
     id="g2996"
     transform="translate(58.548927,40.312376)">
    <g
       id="g3782"
       transform="matrix(1.2453468,0,0,1.2159795,-39.991087,-26.178684)">
      <rect
         ry="1.226931"
         transform="matrix(0.8,0,0,0.8,-58.548927,-40.312376)"
         y="171.17403"
         x="236.97328"
         height="10.439352"
         width="76.207268"
         id="rect3780"
         style="fill:#f2480c;fill-opacity:1;stroke:#000000;stroke-opacity:1"
         rx="1.1979979" />
      <rect
         ry="1.5336637"
         transform="matrix(0.8,0,0,0.8,-58.548927,-40.312376)"
         y="102.62228"
         x="270.03125"
         height="270.03119"
         width="175.38094"
         id="rect3778"
         style="fill:#f2480c;fill-opacity:1;stroke:#000000;stroke-opacity:1"
         rx="1.4974974" />
      <path
         style="fill:#ffffff"
         inkscape:connector-curvature="0"
         id="path5"
         d="m 40.907987,69.157442 c 37.29,0.12 74.590003,-0.16 111.880003,0.14 -8.98,10.79 -18.33,21.27 -27.35,32.019998 -2.95,0 -5.91,0 -8.86,0 0.04,44.17 0.06,88.34 -0.01,132.51 -20.830003,-5.92 -35.300003,-26.82 -35.650003,-48.14 -0.02,-28.14 0.02,-56.28 -0.02,-84.41 -13.31,0.13 -26.63,0.06 -39.94,0.04 -0.11,-10.719998 -0.01,-21.439998 -0.05,-32.159998 z" />
      <g
         id="#000000ff"
         transform="translate(-42.232013,-39.352558)">
        <path
           d="m 119.84,44.83 c 7.24,-1.79 14.69,-2.53 22.12,-2.85 75.08,0.12 150.17,-0.13 225.25,0.12 -0.17,66.3 -0.02,132.6 -0.07,198.89 0.27,18.72 -4.66,37.56 -14.54,53.5 -12.5,20.35 -32.7,35.82 -55.65,42.45 -9.04,2.87 -18.55,3.59 -27.97,4.07 -40.65,-0.02 -81.29,-0.02 -121.94,0 -16.33,0.09 -32.87,-2.87 -47.48,-10.38 -29.87,-14.67 -51.33,-45.4 -53.93,-78.69 -0.16,-3.01 -0.62,-5.99 -0.65,-9 C 44.98,209.3 45,175.66 44.97,142.02 44.91,122.34 50.1,102.48 61.14,86.06 74.49,65.5 96,50.48 119.84,44.83 m -36.7,63.68 c 0.04,10.72 -0.06,21.44 0.05,32.16 13.31,0.02 26.63,0.09 39.94,-0.04 0.04,28.13 0,56.27 0.02,84.41 0.35,21.32 14.82,42.22 35.65,48.14 0.07,-44.17 0.05,-88.34 0.01,-132.51 2.95,0 5.91,0 8.86,0 9.02,-10.75 18.37,-21.23 27.35,-32.02 -37.29,-0.3 -74.59,-0.02 -111.88,-0.14 m 111.46,9.11 c -6.63,7.82 -14.34,14.65 -20.67,22.74 8.19,0.13 16.38,0.06 24.57,0.14 0.01,28.5 0.05,57 -0.02,85.5 0.26,20.87 14.63,41.45 35.14,46.86 0.35,-5.59 0.09,-11.2 0.16,-16.8 -0.08,-49.18 0.15,-98.37 -0.11,-147.56 -10.18,0.12 -20.37,-0.23 -30.55,0.15 -2.74,3.09 -5.82,5.84 -8.52,8.97 m 45.59,23.11 c 10.6,0.01 21.21,0.04 31.81,-0.03 2.35,-0.05 4.66,0.4 6.97,0.8 -1.82,1.35 -3.28,3.08 -4.71,4.81 -3.32,3.96 -7.21,7.39 -10.42,11.44 -3.26,4.06 -7.49,7.3 -10.43,11.62 -1.36,4.05 -0.27,8.45 -0.35,12.64 -0.2,5.22 -0.7,10.5 0.21,15.69 8.27,0.19 16.54,0.01 24.8,0.13 8.71,0.29 16.09,7.24 18.57,15.31 3.18,10.01 -1.44,21.67 -10.5,26.91 -4.65,2.53 -10.04,1.73 -15.1,1.83 -10.29,0.11 -20.6,-0.27 -30.88,0.3 0.06,10.51 0.09,21.03 0,31.54 3.58,0.61 7.21,0.81 10.84,0.72 9.27,-0.13 18.58,0.43 27.83,-0.59 11.78,-0.59 23.51,-4.84 32.57,-12.47 8.65,-7.48 14.85,-17.85 16.93,-29.12 2.6,-12.5 1.59,-26.31 -5.32,-37.31 -5.8,-9.79 -16.32,-15.86 -27.08,-18.69 1.72,-3.24 4.76,-5.46 7.09,-8.23 7.99,-9.1 16.2,-18.02 24.4,-26.93 0.62,-10.82 -0.12,-21.7 0.01,-32.55 -29.02,-0.18 -58.05,0.09 -87.07,-0.14 -0.36,10.77 -0.04,21.55 -0.17,32.32 z"
           id="path8"
           inkscape:connector-curvature="0"
           style="fill:#000000" />
      </g>
      <path
         style="fill:#f2480c;fill-opacity:1"
         inkscape:connector-curvature="0"
         id="path11"
         d="m 152.36799,78.267442 c 2.7,-3.13 5.78,-5.88 8.52,-8.97 10.18,-0.38 20.37,-0.03 30.55,-0.15 0.26,49.189998 0.03,98.379998 0.11,147.559998 -0.07,5.6 0.19,11.21 -0.16,16.8 -20.51,-5.41 -34.88,-25.99 -35.14,-46.86 0.07,-28.5 0.03,-57 0.02,-85.5 -8.19,-0.08 -16.38,-0.01 -24.57,-0.14 6.33,-8.089998 14.04,-14.919998 20.67,-22.739998 z" />
      <path
         style="fill:#f2480c"
         inkscape:connector-curvature="0"
         id="path13"
         d="m 197.95799,101.37744 c 0.13,-10.769998 -0.19,-21.549998 0.17,-32.319998 29.02,0.23 58.05,-0.04 87.07,0.14 -0.13,10.85 0.61,21.73 -0.01,32.549998 -8.2,8.91 -16.41,17.83 -24.4,26.93 -2.33,2.77 -5.37,4.99 -7.09,8.23 10.76,2.83 21.28,8.9 27.08,18.69 6.91,11 7.92,24.81 5.32,37.31 -2.08,11.27 -8.28,21.64 -16.93,29.12 -9.06,7.63 -20.79,11.88 -32.57,12.47 -9.25,1.02 -18.56,0.46 -27.83,0.59 -3.63,0.09 -7.26,-0.11 -10.84,-0.72 0.09,-10.51 0.06,-21.03 0,-31.54 10.28,-0.57 20.59,-0.19 30.88,-0.3 5.06,-0.1 10.45,0.7 15.1,-1.83 9.06,-5.24 13.68,-16.9 10.5,-26.91 -2.48,-8.07 -9.86,-15.02 -18.57,-15.31 -8.26,-0.12 -17.37837,0.22967 -25.64837,0.0397 -0.91,-5.19 -1.25841,-10.80935 -1.05836,-16.02935 -0.25935,-3.85065 0.34738,-10.96542 2.04673,-12.47032 2.94,-4.32 7.17,-7.56 10.43,-11.62 3.21,-4.05 7.1,-7.48 10.42,-11.44 1.43,-1.73 2.89,-3.46 4.71,-4.81 -2.31,-0.4 -4.62,-0.85 -6.97,-0.8 -10.6,0.07 -21.21,0.04 -31.81,0.03 z"
         sodipodi:nodetypes="cccccccccccccccccccccccccc" />
    </g>
  </g>
</svg>
