<?xml version="1.0" encoding="utf-8"?>
<!-- Generator: Adobe Illustrator 26.0.0, SVG Export Plug-In . SVG Version: 6.00 Build 0)  -->
<svg version="1.1" id="Capa_1" xmlns="http://www.w3.org/2000/svg" xmlns:xlink="http://www.w3.org/1999/xlink" x="0px" y="0px"
	 viewBox="0 0 800 400" style="enable-background:new 0 0 800 400;" xml:space="preserve">
<style type="text/css">
	.st0{fill:#AAAAAA;}
	.st1{fill:none;stroke:#CCCCCC;stroke-width:3;stroke-miterlimit:10;}
</style>
<g id="g2996">
	<g id="g3782">
		<path id="path5" class="st0" d="M92.1,105.9c46.4,0.2,92.9-0.2,139.3,0.2c-11.2,13.1-22.8,25.9-34.1,38.9h-11
			c0.1,53.7,0.1,107.4,0,161.1c-25.9-7.2-44-32.6-44.4-58.5c0-34.2,0-68.4,0-102.6c-16.6,0.2-33.2,0.1-49.7,0.1
			C92.1,132,92.2,118.9,92.1,105.9L92.1,105.9z"/>
		<path id="path11" class="st0" d="M230.9,117c3.4-3.8,7.2-7.2,10.6-10.9c12.7-0.5,25.4,0,38-0.2c0.3,59.8,0,119.6,0.1,179.4
			c-0.1,6.8,0.2,13.6-0.2,20.4c-25.5-6.6-43.4-31.6-43.8-57c0.1-34.7,0-69.3,0-104c-10.2-0.1-20.4,0-30.6-0.2
			C213,134.8,222.6,126.5,230.9,117z"/>
		<path id="path13" class="st0" d="M287.6,145.1c0.2-13.1-0.2-26.2,0.2-39.3c36.1,0.3,72.3,0,108.4,0.2c-0.2,13.2,0.8,26.4,0,39.6
			c-10.2,10.8-20.4,21.7-30.4,32.8c-2.9,3.4-6.7,6.1-8.8,10c13.4,3.4,26.5,10.8,33.7,22.7c8.6,13.4,9.9,30.2,6.6,45.4
			c-2.8,13.9-10.2,26.4-21.1,35.4c-11.3,9.3-25.9,14.5-40.6,15.2c-11.5,1.2-23.1,0.6-34.6,0.7c-4.5,0.1-9-0.2-13.5-0.9
			c0.1-12.8,0.1-25.6,0-38.4c12.8-0.7,25.6-0.2,38.5-0.4c6.3-0.1,13,0.9,18.8-2.2c11.3-6.4,17-20.6,13.1-32.7
			c-3.1-9.8-12.3-18.3-23.1-18.6c-10.3-0.1-21.6,0.3-31.9,0c-1.1-6.4-1.6-13-1.3-19.5c-0.3-4.7,0.4-13.3,2.5-15.2
			c3.7-5.2,8.9-9.2,13-14.1s8.8-9.1,13-13.9c1.7-2.2,3.7-4.1,5.9-5.9c-2.9-0.6-5.8-0.9-8.7-1c-13.2,0.1-26.4,0.1-39.6,0L287.6,145.1
			z"/>
	</g>
</g>
<g>
	<path class="st0" d="M482.6,207.2c-0.2-1.9-0.3-4.4-0.3-7.4v-18.8c0-6.3-0.8-11.4-2.5-15.1c-1.7-3.8-4.6-6.3-8.6-7.5V158
		c7.3-3,11-10,11-21.1v-6.6c0-8.4-2-14.6-6-18.6c-4-4-10.3-6-19-6h-24.9v107.1h16.8v-45.9h5.8c3.9,0,6.6,1,8.2,2.9
		c1.6,1.9,2.4,5.4,2.4,10.3v19.6c0,4,0.1,6.7,0.3,8.3c0.2,1.5,0.6,3.2,1.2,4.9h17.1C483.3,210.9,482.8,209.1,482.6,207.2z
		 M465.3,140.2c0,4.1-0.8,7-2.5,8.7c-1.7,1.7-4.2,2.6-7.6,2.6h-6.1V121h7.6c3,0,5.1,0.9,6.5,2.6c1.4,1.7,2.1,4.5,2.1,8.4V140.2z"/>
	<path class="st0" d="M506.9,105.7l-17.4,107.1h15.6l3.1-21h19.1v-0.3l3.1,21.3h16.8l-17.4-107.1H506.9z M510.2,177.3l7.3-52.9h0.3
		l7.5,52.9H510.2z"/>
	<path class="st0" d="M581,105.7h-25.7v107.1H581c8.4,0,14.6-2.2,18.8-6.7c4.2-4.5,6.3-11.1,6.3-19.7v-54.2c0-8.7-2.1-15.2-6.3-19.7
		C595.6,107.9,589.3,105.7,581,105.7z M589.2,187.1c0,3.7-0.7,6.3-2.2,8c-1.5,1.6-3.6,2.4-6.3,2.4h-8.6V121h8.6
		c2.8,0,4.9,0.8,6.3,2.4c1.5,1.6,2.2,4.3,2.2,8V187.1z"/>
	<rect x="617.4" y="105.7" class="st0" width="16.8" height="107.1"/>
	<path class="st0" d="M690.1,111.2c-4.4-4.7-10.7-7-19-7s-14.6,2.3-19,7c-4.4,4.7-6.6,11.3-6.6,19.9v56.3c0,8.6,2.2,15.2,6.6,19.9
		c4.4,4.7,10.7,7,19,7s14.6-2.3,19-7c4.4-4.7,6.6-11.3,6.6-19.9v-56.3C696.7,122.5,694.5,115.9,690.1,111.2z M679.8,188.4
		c0,7-2.9,10.6-8.7,10.6c-5.8,0-8.7-3.5-8.7-10.6V130c0-7,2.9-10.6,8.7-10.6c5.8,0,8.7,3.5,8.7,10.6V188.4z"/>
	<path class="st0" d="M446.3,235.5c-1.1,1.2-2.7,2.1-4.6,2.7c-1.9,0.5-4.5,0.8-7.6,0.8v7.9h11.6v53.9h11.1v-70.7h-7.5
		C448.5,232.4,447.4,234.2,446.3,235.5z"/>
	<path class="st0" d="M486.6,229.1c-5.5,0-9.6,1.5-12.5,4.6c-2.9,3.1-4.3,7.5-4.3,13.1V284c0,5.7,1.4,10,4.3,13.1
		c2.9,3.1,7.1,4.6,12.5,4.6c5.5,0,9.6-1.5,12.5-4.6c2.9-3.1,4.3-7.5,4.3-13.1v-37.2c0-5.7-1.4-10-4.3-13.1
		C496.2,230.6,492.1,229.1,486.6,229.1z M492.4,284.7c0,4.6-1.9,7-5.8,7s-5.8-2.3-5.8-7v-38.6c0-4.6,1.9-7,5.8-7s5.8,2.3,5.8,7
		V284.7z"/>
	<path class="st0" d="M535.1,263.5v-0.2c2.7-1,4.7-2.7,6-5s1.9-5.4,1.9-9.2v-2.5c0-5.7-1.4-10-4.1-13c-2.8-3-6.8-4.5-12.1-4.5
		c-5.3,0-9.3,1.5-12.1,4.5c-2.8,3-4.2,7.4-4.2,13v3.7h10.5v-4.6c0-4.4,1.8-6.6,5.4-6.6c1.7,0,3,0.6,4,1.7c1,1.1,1.5,2.9,1.5,5.4v5.2
		c0,2.7-0.6,4.6-1.7,5.8c-1.1,1.1-2.8,1.7-5,1.7h-4V269h3.7c2.6,0,4.4,0.7,5.6,2.1c1.1,1.4,1.7,3.7,1.7,6.9v5.8c0,3-0.5,5-1.5,6.2
		c-1,1.2-2.4,1.8-4.3,1.8c-3.8,0-5.8-2.3-5.8-7v-6.3h-10.5v5.8c0,5.7,1.4,10,4.2,13c2.8,3,6.9,4.5,12.4,4.5c5.5,0,9.6-1.5,12.4-4.5
		c2.8-3,4.2-7.3,4.2-13V278c0-3.8-0.6-6.9-1.9-9.3C540.1,266.3,538,264.6,535.1,263.5z"/>
	<rect x="551.3" y="290.1" class="st0" width="10.7" height="10.7"/>
	<path class="st0" d="M594.5,263.5v-0.2c2.7-1,4.7-2.7,6-5c1.3-2.3,1.9-5.4,1.9-9.2v-2.5c0-5.7-1.4-10-4.1-13
		c-2.8-3-6.8-4.5-12.1-4.5c-5.3,0-9.3,1.5-12.1,4.5c-2.8,3-4.2,7.4-4.2,13v3.7h10.5v-4.6c0-4.4,1.8-6.6,5.4-6.6c1.7,0,3,0.6,4,1.7
		c1,1.1,1.5,2.9,1.5,5.4v5.2c0,2.7-0.6,4.6-1.7,5.8c-1.1,1.1-2.8,1.7-5,1.7h-4V269h3.7c2.6,0,4.4,0.7,5.6,2.1
		c1.1,1.4,1.7,3.7,1.7,6.9v5.8c0,3-0.5,5-1.5,6.2c-1,1.2-2.4,1.8-4.3,1.8c-3.8,0-5.8-2.3-5.8-7v-6.3h-10.5v5.8c0,5.7,1.4,10,4.2,13
		c2.8,3,6.9,4.5,12.4,4.5s9.6-1.5,12.4-4.5c2.8-3,4.2-7.3,4.2-13V278c0-3.8-0.6-6.9-1.9-9.3C599.4,266.3,597.4,264.6,594.5,263.5z"
		/>
	<polygon class="st0" points="610.7,300.8 621.8,300.8 621.8,270 636.2,270 636.2,259.9 621.8,259.9 621.8,240.2 640.1,240.2 
		640.1,230.1 610.7,230.1 	"/>
	<polygon class="st0" points="668.6,280.7 668.4,280.7 661.3,230.1 645.5,230.1 645.5,300.8 655.2,300.8 655.2,247.2 655.4,247.2 
		663.4,300.8 672.7,300.8 680.8,247.2 681,247.2 681,300.8 691.5,300.8 691.5,230.1 675.7,230.1 	"/>
</g>
<line class="st1" x1="415" y1="106" x2="415" y2="308"/>
</svg>
