<svg id="Capa_1" data-name="Capa 1" xmlns="http://www.w3.org/2000/svg" viewBox="0 0 800 400"><defs><style>.cls-1,.cls-2{fill:#ccc;}.cls-2{font-size:153px;font-family:BebasNeue-Regular, Bebas Neue;}.cls-3{font-size:101px;}.cls-4{fill:none;stroke:#ccc;stroke-miterlimit:10;stroke-width:3px;}</style></defs><g id="g2996"><g id="g3782"><path id="path5" class="cls-1" d="M92.05,105.89c46.44.15,92.89-.19,139.33.17-11.18,13.12-22.83,25.87-34.06,38.94h-11q.08,80.57,0,161.13c-25.94-7.2-44-32.61-44.4-58.54,0-34.22,0-68.43,0-102.64-16.57.16-33.16.07-49.73.05-.14-13,0-26.07-.07-39.11Z"/><path id="path11" class="cls-1" d="M230.86,117c3.36-3.8,7.2-7.15,10.61-10.91,12.68-.46,25.37,0,38-.18.33,59.82,0,119.63.14,179.43-.09,6.81.24,13.63-.2,20.43-25.54-6.58-43.44-31.6-43.76-57,.09-34.66,0-69.31,0-104-10.2-.09-20.4,0-30.6-.17C213,134.79,222.6,126.48,230.86,117Z"/><path id="path13" class="cls-1" d="M287.63,145.07c.17-13.09-.23-26.2.22-39.3,36.14.28,72.29,0,108.43.17-.16,13.2.76,26.43,0,39.58-10.22,10.84-20.44,21.68-30.39,32.75-2.9,3.37-6.69,6.07-8.83,10,13.4,3.44,26.5,10.82,33.72,22.72,8.61,13.38,9.87,30.17,6.63,45.37a62,62,0,0,1-21.08,35.41c-11.29,9.28-25.9,14.45-40.57,15.16-11.51,1.24-23.11.56-34.65.72a71.75,71.75,0,0,1-13.5-.87c.11-12.78.07-25.58,0-38.36,12.8-.69,25.64-.23,38.45-.36,6.3-.12,13,.85,18.81-2.23,11.28-6.37,17-20.55,13.07-32.72-3.08-9.81-12.27-18.26-23.12-18.61-10.29-.15-21.64.27-31.94,0a91.8,91.8,0,0,1-1.32-19.49c-.32-4.68.43-13.33,2.55-15.16,3.66-5.25,8.93-9.19,13-14.13s8.84-9.1,13-13.91a33.85,33.85,0,0,1,5.87-5.85,46.16,46.16,0,0,0-8.68-1c-13.2.08-26.41.05-39.62,0Z"/></g></g><text class="cls-2" transform="translate(426 212.77)">RADIO<tspan class="cls-3"><tspan x="0" y="88">103.3FM</tspan></tspan></text><line class="cls-4" x1="415" y1="106" x2="415" y2="308"/></svg>