<svg id="Capa_1" data-name="Capa 1" xmlns="http://www.w3.org/2000/svg" viewBox="0 0 113.39 56.69"><defs><style>.cls-1{fill:#aa2930;}</style></defs><path class="cls-1" d="M24.22,25.84H22.15v6h-1.1v-6H19v-1h5.23Zm-4.42,6H15.57v-7h1.09v6H19.8Zm-5.63-9v11H25.62V22.87Z"/><polygon class="cls-1" points="42.3 24.75 45.26 24.75 45.26 33.32 46.82 33.32 46.82 24.75 49.78 24.75 49.78 23.36 42.3 23.36 42.3 24.75"/><path class="cls-1" d="M60.75,29.6h-.93V24.75h.93c1.9,0,2.68.91,2.68,2.42S62.66,29.6,60.75,29.6ZM65,27.17c0-2.3-1.5-3.81-4.24-3.81H58.25v10h1.57V31h1a5.81,5.81,0,0,0,.72-.05l1.69,2.42h1.86l-2-2.83A3.41,3.41,0,0,0,65,27.17Z"/><path class="cls-1" d="M70.78,32a3.47,3.47,0,0,1-3.47-3.69,3.46,3.46,0,0,1,3.41-3.69A3.22,3.22,0,0,1,73.55,26l1.2-.84a4.56,4.56,0,0,0-4-1.93,5.11,5.11,0,0,0,0,10.21,4.87,4.87,0,0,0,4.26-2l-1.22-.83A3.52,3.52,0,0,1,70.78,32Z"/><path class="cls-1" d="M85.73,29.6h-.91V24.75h.91c1.91,0,2.7.91,2.7,2.42S87.65,29.6,85.73,29.6ZM90,27.17c0-2.3-1.51-3.81-4.24-3.81H83.25v10h1.57V31h1a5.81,5.81,0,0,0,.72-.05l1.7,2.42h1.85l-2-2.83A3.42,3.42,0,0,0,90,27.17Z"/><path class="cls-1" d="M93.13,30.54l1.65-3.94,1.63,3.94Zm1.71-7.38h-.09L90.39,33.32H92l.57-1.39H97l.57,1.39h1.65Z"/><polygon class="cls-1" points="75.83 33.32 82.31 33.32 82.31 31.93 77.4 31.93 77.4 30.24 81.62 30.24 81.62 28.88 77.4 28.88 77.4 24.75 82.31 24.75 82.31 23.36 75.83 23.36 75.83 33.32"/><polygon class="cls-1" points="52.33 30.24 56.56 30.24 56.56 28.88 52.33 28.88 52.33 24.75 57.3 24.75 57.3 23.36 50.76 23.36 50.76 33.32 57.3 33.32 57.3 31.93 52.33 31.93 52.33 30.24"/><path class="cls-1" d="M36.28,30.54l1.65-3.94,1.62,3.94Zm1.62-7.37-3.76,8.76h-4V23.37H28.61v10h6.52l.56-1.39h4.46l.57,1.39h1.64L38,23.17Z"/></svg>