<svg id="Capa_1" data-name="Capa 1" xmlns="http://www.w3.org/2000/svg" viewBox="0 0 800 400"><defs><style>.cls-1{fill:#ccc;}</style></defs><path class="cls-1" d="M133.84,175.74h-17V225h-9V175.74H91v-8.22h43ZM97.53,225H62.78V167.52h9v49.3h25.8ZM51.28,151.09v90.37h94.06V151.34Z"/><polygon class="cls-1" points="282.38 166.78 306.69 166.78 306.69 237.19 319.51 237.19 319.51 166.78 343.83 166.78 343.83 155.36 282.38 155.36 282.38 166.78"/><path class="cls-1" d="M434,206.63h-7.64V166.78H434c15.61,0,22,7.48,22,19.88S449.64,206.63,434,206.63Zm34.92-20c0-18.89-12.33-31.3-34.84-31.3H413.41v82.16h12.9V218.13h8.22a46.7,46.7,0,0,0,5.91-.41l13.89,19.88h15.28l-16.43-23.25A28,28,0,0,0,468.87,186.66Z"/><path class="cls-1" d="M516.35,226.35a28.51,28.51,0,0,1-28.56-28.46q0-.93.06-1.86a28.41,28.41,0,0,1,26.47-30.25c.51,0,1-.06,1.54-.06a26.43,26.43,0,0,1,23.25,11.33l9.86-6.9a37.46,37.46,0,0,0-32.86-15.85,42,42,0,0,0,0,83.88,40,40,0,0,0,35-16.44l-10-6.81A29,29,0,0,1,516.35,226.35Z"/><path class="cls-1" d="M639.17,206.63H631.7V166.78h7.47c15.7,0,22.19,7.48,22.19,19.88S655,206.63,639.17,206.63Zm35.08-20c0-18.89-12.4-31.3-34.83-31.3H618.8v82.16h12.9V218.13h8.21a46.85,46.85,0,0,0,5.92-.41l14,19.88H675l-16.43-23.25A28.08,28.08,0,0,0,674.25,186.66Z"/><path class="cls-1" d="M700,214.35,713.52,182l13.39,32.37Zm14-60.63h-.74l-35.82,83.47h13.22l4.69-11.42h36.39l4.68,11.42H750Z"/><polygon class="cls-1" points="557.84 237.19 611.08 237.19 611.08 225.77 570.74 225.77 570.74 211.89 605.41 211.89 605.41 200.71 570.74 200.71 570.74 166.78 611.08 166.78 611.08 155.36 557.84 155.36 557.84 237.19"/><polygon class="cls-1" points="364.78 211.89 399.53 211.89 399.53 200.71 364.78 200.71 364.78 166.78 405.61 166.78 405.61 155.36 351.88 155.36 351.88 237.19 405.61 237.19 405.61 225.77 364.78 225.77 364.78 211.89"/><path class="cls-1" d="M232.92,214.35,246.48,182l13.3,32.37Zm13.31-60.55-30.89,72H182.48V155.45H169.91V237.6h53.56l4.6-11.42h36.64l4.69,11.42h13.47l-35.82-83.8Z"/></svg>