<?xml version="1.0" encoding="utf-8"?>
<!-- Generator: Adobe Illustrator 26.0.0, SVG Export Plug-In . SVG Version: 6.00 Build 0)  -->
<svg version="1.1" id="Capa_1" xmlns="http://www.w3.org/2000/svg" xmlns:xlink="http://www.w3.org/1999/xlink" x="0px" y="0px"
	 viewBox="0 0 800 400" style="enable-background:new 0 0 800 400;" xml:space="preserve">
<style type="text/css">
	.st0{fill:#AAAAAA;}
</style>
<path class="st0" d="M133.8,175.7h-17V225h-9v-49.3H91v-8.2h43L133.8,175.7z M97.5,225H62.8v-57.5h9v49.3h25.8L97.5,225z
	 M51.3,151.1v90.4h94.1v-90.1L51.3,151.1z"/>
<polygon class="st0" points="282.4,166.8 306.7,166.8 306.7,237.2 319.5,237.2 319.5,166.8 343.8,166.8 343.8,155.4 282.4,155.4 "/>
<path class="st0" d="M434,206.6h-7.6v-39.9h7.6c15.6,0,22,7.5,22,19.9S449.6,206.6,434,206.6z M468.9,186.6
	c0-18.9-12.3-31.3-34.8-31.3h-20.7v82.2h12.9v-19.4h8.2c2,0,4-0.1,5.9-0.4l13.9,19.9h15.3l-16.4-23.2
	C463.7,209.3,469.9,198.3,468.9,186.6L468.9,186.6z"/>
<path class="st0" d="M516.3,226.4c-15.7,0-28.5-12.7-28.6-28.5c0,0,0,0,0,0c0-0.6,0-1.2,0.1-1.9c-1.1-15.7,10.8-29.2,26.4-30.2
	c0,0,0,0,0,0c0.5,0,1-0.1,1.5-0.1c9.2-0.5,18,3.8,23.2,11.3l9.9-6.9c-7.5-10.6-19.9-16.6-32.9-15.9c-23.2,1.2-40.9,21-39.7,44.2
	c1.1,21.4,18.3,38.5,39.7,39.7c13.7,0.9,26.9-5.3,35-16.4l-10-6.8C535.3,222.6,526,226.9,516.3,226.4z"/>
<path class="st0" d="M639.2,206.6h-7.5v-39.9h7.5c15.7,0,22.2,7.5,22.2,19.9S655,206.6,639.2,206.6z M674.2,186.6
	c0-18.9-12.4-31.3-34.8-31.3h-20.6v82.2h12.9v-19.4h8.2c2,0,4-0.1,5.9-0.4l14,19.9H675l-16.4-23.2
	C669,209.3,675.3,198.2,674.2,186.6L674.2,186.6z"/>
<path class="st0" d="M700,214.4l13.5-32.4l13.4,32.4L700,214.4z M714,153.7h-0.7l-35.8,83.5h13.2l4.7-11.4h36.4l4.7,11.4H750
	L714,153.7z"/>
<polygon class="st0" points="557.8,237.2 611.1,237.2 611.1,225.8 570.7,225.8 570.7,211.9 605.4,211.9 605.4,200.7 570.7,200.7 
	570.7,166.8 611.1,166.8 611.1,155.4 557.8,155.4 "/>
<polygon class="st0" points="364.8,211.9 399.5,211.9 399.5,200.7 364.8,200.7 364.8,166.8 405.6,166.8 405.6,155.4 351.9,155.4 
	351.9,237.2 405.6,237.2 405.6,225.8 364.8,225.8 "/>
<path class="st0" d="M232.9,214.4l13.6-32.4l13.3,32.4L232.9,214.4z M246.2,153.8l-30.9,72h-32.9v-70.4h-12.6v82.2h53.6l4.6-11.4
	h36.6l4.7,11.4h13.5l-35.8-83.8H246.2z"/>
</svg>
