<svg id="Capa_1" data-name="Capa 1" xmlns="http://www.w3.org/2000/svg" viewBox="0 0 800 400"><defs><style>.cls-1,.cls-2{fill:#ccc;}.cls-1{fill-rule:evenodd;}</style></defs><g id="Symbols-Mobile"><g id="_01-Navegación_Organismos_Footer_Main_Mobile_" data-name="01-Navegación/Organismos/Footer/Main/Mobile📱"><g id="Forma-Blanco"><path id="Path" class="cls-1" d="M390.65,162.09v-7.68a1.82,1.82,0,0,0-1.56-2.08,6.94,6.94,0,0,0-1.44-.11c-.41,0-.62,0-.62-.34s.25-.32.8-.32c2,0,4.31.1,5.34.1,1.55,0,3.67-.1,5.36-.1,4.66,0,6.31,1.53,6.89,2.09a6.28,6.28,0,0,1,1.86,4.34,8.55,8.55,0,0,1-2.6,6.39,8.78,8.78,0,0,1-6.51,2.46h-.78c-.18,0-.45,0-.45-.32s.27-.42,1.05-.42a5.77,5.77,0,0,0,4.95-6,7,7,0,0,0-2.19-5.49,5.48,5.48,0,0,0-3.7-1.43,5.39,5.39,0,0,0-1.44.16c-.19,0-.3.29-.3.69v14.64c0,3.36,0,6.25.19,7.81.11,1,.34,1.83,1.44,2a13.33,13.33,0,0,0,1.88.14c.42,0,.61.13.61.29s-.29.37-.71.37c-2.44,0-4.78-.1-5.74-.1s-3.11.1-4.66.1c-.49,0-.73-.1-.73-.37s.14-.29.59-.29a5.39,5.39,0,0,0,1.32-.14c.74-.15.93-1,1.07-2,.19-1.53.19-4.42.19-7.78Z"/><path id="Shape" class="cls-2" d="M436.72,166c0-8.19-4.77-13.27-10.88-13.27-4.26,0-9.11,2.33-9.11,11.44,0,7.68,4.26,13.64,11.38,13.64,2.58,0,8.58-1.24,8.58-11.81m-25.06-.69c0-6.25,4.19-14.33,15.28-14.33,9.22,0,15,5.3,15,13.67a14.36,14.36,0,0,1-4.33,10.84,14.7,14.7,0,0,1-11,4.18c-10.62,0-14.91-7.86-14.91-14.35"/><path id="Path-2" data-name="Path" class="cls-1" d="M452.27,174.16c.08,2.86.56,3.81,1.3,4.07a5.93,5.93,0,0,0,1.92.25c.41,0,.63,0,.63.29s-.34.37-.85.37c-2.41,0-3.89-.11-4.67-.11-.34,0-2.08.11-4,.11-.48,0-.82,0-.82-.37s.21-.29.59-.29a6.6,6.6,0,0,0,1.66-.18c1-.3,1.12-1.36,1.15-4.53l.33-21.66c0-.72.12-1.24.49-1.24s.73.47,1.37,1.13,6.06,6.44,11.47,11.75c2.52,2.49,7.51,7.76,8.15,8.33h.19l-.38-16.42c0-2.23-.37-2.92-1.26-3.29a6.15,6.15,0,0,0-2-.21c-.45,0-.59-.11-.59-.34s.41-.32,1-.32c1.92,0,3.7.1,4.47.1.41,0,1.81-.1,3.63-.1.48,0,.85,0,.85.32s-.22.34-.67.34a4.07,4.07,0,0,0-1.1.1c-1,.3-1.34,1.06-1.37,3.08l-.42,23c0,.8-.14,1.14-.48,1.14a2.49,2.49,0,0,1-1.26-.81c-2.33-2.2-7.06-7-10.88-10.76s-8.15-8.52-8.81-9.21h-.11Z"/><path id="Path-3" data-name="Path" class="cls-1" d="M491.66,153.57l-5.52.15c-2.15,0-3,.26-3.59,1.06a4.1,4.1,0,0,0-.62,1.28.4.4,0,0,1-.42.44c-.24,0-.33-.18-.33-.6s.7-3.9.78-4.19.22-.71.45-.71a8.34,8.34,0,0,0,1.55.45c1.08.11,2.49.18,3.7.18h14.66a16.36,16.36,0,0,0,3.56-.36c.26,0,.3.23.3.76s-.11,3.31-.11,4.24c0,.37-.11.6-.34.6s-.36-.18-.41-.74v-.4c-.08-.95-1.07-2-4.37-2l-4.66-.11v15c0,3.35,0,6.26.19,7.82.1,1,.32,1.83,1.44,2a13.22,13.22,0,0,0,1.88.14c.41,0,.59.12.59.31s-.29.35-.7.35c-2.44,0-4.77-.11-5.81-.11s-3.19.11-4.66.11c-.49,0-.73-.11-.73-.35s.14-.31.57-.31a5.5,5.5,0,0,0,1.34-.14c.74-.15,1-1,1.07-2,.19-1.53.19-4.44.19-7.79Z"/><path id="Path-4" data-name="Path" class="cls-1" d="M514.34,162.09v-7.68c0-1.1-.45-1.87-1.28-2a5.29,5.29,0,0,0-1.32-.14c-.37,0-.59,0-.59-.37s.3-.29.89-.29c1.4,0,3.74.1,4.82.1s3.1-.1,4.5-.1c.48,0,.78,0,.78.29s-.23.37-.59.37a5.25,5.25,0,0,0-1.12.11c-1,.18-1.29.79-1.37,2.08s0,2.2,0,7.68v6.45c0,3.54,0,6.44.14,8,.11,1,.38,1.64,1.48,1.79a15,15,0,0,0,1.9.14c.4,0,.59.12.59.29s-.3.37-.7.37c-2.44,0-4.78-.11-5.79-.11s-3.18.11-4.66.11c-.48,0-.73-.11-.73-.37s.14-.29.59-.29a5.8,5.8,0,0,0,1.32-.14c.75-.15,1-.77,1.07-1.83.19-1.53.19-4.43.19-8Z"/><path id="Path-5" data-name="Path" class="cls-1" d="M536.36,168.54c0,3.51,0,6.25.19,7.79.11,1.06.33,1.86,1.45,2a14.26,14.26,0,0,0,1.85.14c.48,0,.62.12.62.29s-.25.37-.81.37c-2.33,0-4.66-.11-5.63-.11s-3.29.11-4.66.11c-.53,0-.78-.08-.78-.37s.14-.29.55-.29a6,6,0,0,0,1.33-.14c.73-.15.93-1,1.07-2,.19-1.54.19-4.28.19-7.79v-6.45c0-5.54,0-6.57-.08-7.68s-.37-1.82-1.55-2.08a7,7,0,0,0-1.45-.11c-.37,0-.63,0-.63-.29s.31-.37.85-.37c1.93,0,4.26.1,5.33.1H544a7.34,7.34,0,0,0,1.55-.15,2.32,2.32,0,0,1,.61-.21c.14,0,.25.13.25.32s-.19.69-.3,1.64c0,.37-.1,2.54-.18,3s-.11.52-.38.52-.32-.19-.35-.6a3.27,3.27,0,0,0-.24-1.38,2.66,2.66,0,0,0-2.44-1.09l-5.7-.11c-.22,0-.33.11-.33.51v9.21c0,.22,0,.32.27.32h6.4a2,2,0,0,0,1.56-.66c.18-.21.26-.37.48-.37s.21.11.21.33-.18,1.13-.29,2.27c-.08.74-.14,2.41-.14,2.67s0,.69-.37.69-.3-.24-.3-.5a4,4,0,0,0-.22-1.14,2.19,2.19,0,0,0-1.89-1.32c-.92-.11-4.85-.11-5.47-.11-.19,0-.27.08-.27.34Z"/><path id="Path-6" data-name="Path" class="cls-1" d="M555.25,162.09c0-5.54,0-6.57-.08-7.68s-.45-1.87-1.26-2a4.93,4.93,0,0,0-1.33-.14c-.38,0-.59,0-.59-.37s.29-.29.88-.29c1.42,0,3.75.1,4.82.1s3.11-.1,4.52-.1c.49,0,.78,0,.78.29s-.23.37-.6.37a5.16,5.16,0,0,0-1.11.11c-1,.18-1.3.79-1.37,2.08s-.07,2.2-.07,7.68v6.45c0,3.54,0,6.44.14,8,.12,1,.37,1.64,1.55,1.79a14.73,14.73,0,0,0,1.88.14c.41,0,.59.12.59.29s-.28.37-.7.37c-2.44,0-4.77-.11-5.78-.11s-3.11.11-4.66.11c-.47,0-.73-.11-.73-.37s.14-.29.59-.29a6,6,0,0,0,1.33-.14c.73-.15,1-.77,1.08-1.83.18-1.53.18-4.43.18-8Z"/><path id="Path-7" data-name="Path" class="cls-1" d="M572.26,175.67a14.36,14.36,0,0,1-.25-20.81c2.66-2.41,6.22-3.87,11.69-3.87a38.78,38.78,0,0,1,5.38.35c1.39.19,2.58.52,3.69.63.41,0,.55.22.55.43s-.11.74-.17,2,0,3.23-.13,4-.11.83-.43.83-.37-.3-.37-.8a5.22,5.22,0,0,0-1.45-3.37,11.18,11.18,0,0,0-7.51-2.27,9.74,9.74,0,0,0-7,2.33c-2.71,2.45-3.41,5.93-3.41,9.48,0,8.69,6.7,13,11.66,13,3.3,0,5.29-.37,6.78-2.06a6.41,6.41,0,0,0,1.26-2.41c.11-.59.18-.74.48-.74s.33.26.33.55a33.44,33.44,0,0,1-.81,4.87,1.33,1.33,0,0,1-1,1.06,21.72,21.72,0,0,1-6.66.84c-5.07,0-9.33-1.1-12.7-4"/><path id="Path-8" data-name="Path" class="cls-1" d="M602.09,162.09c0-5.54,0-6.57-.08-7.68s-.45-1.87-1.26-2a5,5,0,0,0-1.34-.14c-.37,0-.59,0-.59-.37s.3-.29.89-.29c1.41,0,3.74.1,4.8.1s3.11-.1,4.52-.1c.49,0,.78,0,.78.29s-.22.37-.59.37a5.07,5.07,0,0,0-1.1.11c-1,.18-1.31.79-1.37,2.08s-.08,2.2-.08,7.68v6.45c0,3.54,0,6.44.14,8,.13,1,.37,1.64,1.56,1.79a14.73,14.73,0,0,0,1.88.14c.4,0,.59.12.59.29s-.3.37-.7.37c-2.44,0-4.77-.11-5.78-.11s-3.11.11-4.67.11c-.48,0-.73-.11-.73-.37s.14-.29.59-.29a6,6,0,0,0,1.34-.14c.73-.15,1-.77,1.07-1.83.19-1.53.19-4.43.19-8Z"/><path id="Shape-2" data-name="Shape" class="cls-2" d="M631.09,167.76c.19,0,.22-.09.19-.21l-3.34-9c0-.15,0-.32-.17-.32s-.19.17-.24.32l-3.4,9c0,.16,0,.25.15.25Zm-7.55,1.84c-.19,0-.25,0-.33.3l-2,5.17a6.9,6.9,0,0,0-.56,2.23c0,.66.34,1.13,1.55,1.13h.54c.46,0,.56,0,.56.3s-.21.36-.62.36c-1.18,0-2.78-.1-3.93-.1-.4,0-2.44.1-4.37.1-.48,0-.7-.07-.7-.36s.14-.3.45-.3h1.14c1.71-.23,2.41-1.53,3.11-3.3l9.32-23c.45-1.06.67-1.53,1-1.53s.55.32.93,1.17c.88,2,6.81,16.89,9.17,22.48,1.41,3.29,2.49,3.81,3.26,4a7.48,7.48,0,0,0,1.56.14c.29,0,.48,0,.48.29s-.33.37-1.71.37-4,0-7-.07c-.66,0-1.1,0-1.1-.3s.14-.29.51-.32a.6.6,0,0,0,.33-.84l-2.95-7.76a.35.35,0,0,0-.38-.24Z"/><path id="Path-9" data-name="Path" class="cls-1" d="M389.06,214.76c0-5.56,0-6.59-.07-7.68s-.38-1.83-1.56-2.09a8.73,8.73,0,0,0-1.44-.11c-.41,0-.63,0-.63-.32s.25-.34.81-.34c2,0,4.29.11,5.4.11s3.23-.11,4.55-.11c.56,0,.82,0,.82.34s-.21.32-.59.32a6.36,6.36,0,0,0-1.07.11c-1,.18-1.3.8-1.37,2.09s-.07,2.19-.07,7.68v5.11c0,5.32,1.07,7.54,2.89,9a6.89,6.89,0,0,0,4.66,1.54,7.35,7.35,0,0,0,5.11-2c2-2,2.15-5.3,2.15-9.08V207.06a1.84,1.84,0,0,0-1.56-2.09,8.42,8.42,0,0,0-1.33-.1c-.41,0-.64,0-.64-.33s.26-.33.79-.33c1.88,0,4.22.1,4.25.1.45,0,2.78-.1,4.23-.1.51,0,.77,0,.77.33s-.22.33-.67.33a6.46,6.46,0,0,0-1.07.1c-1,.19-1.29.8-1.37,2.09s0,2.2,0,7.68v3.92c0,4.05-.4,8.37-3.51,11a11.27,11.27,0,0,1-7.69,2.63,12,12,0,0,1-8.23-2.54c-1.89-1.67-3.29-4.37-3.29-9.69Z"/><path id="Path-10" data-name="Path" class="cls-1" d="M424.1,226.83c.08,2.86.56,3.79,1.29,4a6,6,0,0,0,1.93.26c.4,0,.64,0,.64.3s-.35.37-.86.37c-2.41,0-3.89-.11-4.66-.11-.34,0-2.09.11-4,.11-.49,0-.81,0-.81-.37s.23-.3.59-.3a6.6,6.6,0,0,0,1.66-.18c1-.29,1.12-1.35,1.15-4.61l.34-21.65c0-.74.11-1.25.47-1.25s.75.48,1.38,1.12,6.07,6.46,11.48,11.75c2.51,2.49,7.5,7.68,8.14,8.34H443l-.37-16.41c0-2.25-.38-2.94-1.26-3.31a6.48,6.48,0,0,0-2-.21c-.45,0-.59-.11-.59-.32s.39-.34.94-.34c1.93,0,3.72.11,4.5.11.4,0,1.8-.11,3.62-.11.48,0,.85,0,.85.34s-.23.32-.66.32a3.81,3.81,0,0,0-1.12.11c-1,.29-1.32,1.06-1.37,3.07l-.41,23c0,.79-.14,1.13-.48,1.13a2.49,2.49,0,0,1-1.26-.8c-2.33-2.19-7.07-7-10.88-10.75s-8.14-8.52-8.81-9.21h-.11Z"/><path id="Path-11" data-name="Path" class="cls-1" d="M457.74,214.76c0-5.56,0-6.59-.08-7.68s-.45-1.86-1.26-2a5.44,5.44,0,0,0-1.33-.16c-.38,0-.6,0-.6-.37s.3-.29.89-.29c1.42,0,3.75.11,4.82.11s3.11-.11,4.52-.11c.47,0,.76,0,.76.29s-.21.37-.59.37a8.2,8.2,0,0,0-1.1.11c-1,.18-1.29.8-1.37,2.09s-.08,2.19-.08,7.68v6.39c0,3.54,0,6.43.16,8,.11,1,.37,1.64,1.55,1.8a15,15,0,0,0,1.89.15c.4,0,.59.11.59.29s-.3.37-.7.37c-2.44,0-4.78-.12-5.77-.12s-3.11.12-4.66.12c-.5,0-.75-.12-.75-.37s.14-.29.59-.29a6,6,0,0,0,1.34-.15c.73-.16,1-.77,1.07-1.83.19-1.54.19-4.43.19-8Z"/><path id="Path-12" data-name="Path" class="cls-1" d="M473.67,207.74c-.85-2-1.55-2.41-2.81-2.78a5,5,0,0,0-1.45-.15c-.32,0-.43-.11-.43-.34s.4-.33,1-.33c2,0,4.07.11,5.36.11.92,0,2.71-.11,4.56-.11.43,0,.84,0,.84.33s-.22.34-.55.34a2.48,2.48,0,0,0-1.44.26.83.83,0,0,0-.37.76,10.15,10.15,0,0,0,.85,2.81l6.37,16.61h.14c1.56-4,6.41-15.81,7.29-18.22a4.48,4.48,0,0,0,.35-1.35.71.71,0,0,0-.49-.69,4.52,4.52,0,0,0-1.55-.18c-.33,0-.62,0-.62-.3s.32-.37,1-.37c1.87,0,3.42.11,3.91.11s2.36-.11,3.46-.11c.48,0,.78,0,.78.33s-.22.34-.59.34a3.08,3.08,0,0,0-1.8.44c-.49.32-1,.94-2,3.29-1.45,3.44-2.44,5.4-4.45,9.9-2.36,5.35-4.1,9.34-4.92,11.15-1,2.14-1.19,2.72-1.7,2.72s-.71-.52-1.41-2.22Z"/><path id="Path-13" data-name="Path" class="cls-1" d="M506.86,214.76c0-5.56,0-6.59-.08-7.68s-.37-1.83-1.55-2.09a8.61,8.61,0,0,0-1.43-.11c-.42,0-.64,0-.64-.32s.26-.34.82-.34c2,0,4.29.11,5.34.11h9.24c.53-.05,1.05-.13,1.56-.23a3.9,3.9,0,0,1,.59-.14c.19,0,.23.14.23.32s-.18.71-.31,2.38c0,.37-.11,2-.17,2.43a.38.38,0,0,1-.37.4c-.27,0-.34-.18-.34-.52a3.88,3.88,0,0,0-.22-1.31c-.27-.66-.62-1.1-2.47-1.32-.64-.08-4.53-.15-5.26-.15-.2,0-.28.12-.28.37v9.21c0,.25,0,.4.28.4h5.93a2.65,2.65,0,0,0,1.77-.55c.25-.29.4-.48.59-.48s.26,0,.26.31-.18.8-.31,2.66c0,.73-.14,2.19-.14,2.45s0,.69-.32.69-.35-.13-.35-.32a8.45,8.45,0,0,0-.14-1.32c-.18-.74-.71-1.27-2.08-1.43-.7,0-4.37-.11-5.25-.11-.19,0-.24.16-.24.37v8.37c.08,2.52.69,3.08,4.46,3.08a9.27,9.27,0,0,0,3.47-.45c1-.43,1.42-1.2,1.66-2.7.08-.4.16-.54.42-.54s.3.29.3.64a27.73,27.73,0,0,1-.48,4.07c-.27.94-.59.94-2,.94-5.58,0-8.07-.21-10.26-.21-.84,0-3.11.12-4.66.12-.48,0-.75-.12-.75-.37s.14-.29.59-.29a6,6,0,0,0,1.34-.15c.73-.16.92-1,1.07-2,.19-1.53.19-4.42.19-7.78Z"/><path id="Shape-3" data-name="Shape" class="cls-2" d="M534.92,217.64c0,.4,0,.56.34.67a10.15,10.15,0,0,0,2.8.36,3.69,3.69,0,0,0,2.64-.63,6.39,6.39,0,0,0,2.18-5.48c0-5.19-3.49-6.7-5.66-6.7a9.9,9.9,0,0,0-2,.14c-.26,0-.34.23-.34.53Zm-4.37-2.88c0-5.56,0-6.59-.08-7.68s-.36-1.83-1.55-2.09a8.77,8.77,0,0,0-1.45-.11c-.4,0-.62,0-.62-.32s.25-.34.81-.34c2,0,4.3.11,5.07.11,1.26,0,4.07-.11,5.22-.11a11.91,11.91,0,0,1,6.81,1.54,6.34,6.34,0,0,1,2.52,5c0,2.7-1.15,5.19-4.89,8.19,3.3,4.1,5.85,7.35,8,9.63a6.83,6.83,0,0,0,5.18,2.59c.29,0,.43.11.43.29s-.25.37-.68.37h-3.53a7.42,7.42,0,0,1-4-.71c-1.56-.84-3-2.54-5.07-5.37-1.48-2-3.11-4.5-3.67-5a.76.76,0,0,0-.67-.26h-3.22c-.18,0-.29,0-.29.29v.39c0,3.39,0,6.28.19,7.81.1,1.06.34,1.86,1.44,2q.9.12,1.8.15c.32,0,.46.11.46.29s-.25.37-.75.37c-2.13,0-4.88-.12-5.43-.12s-3.1.12-4.52.12c-.48,0-.73-.12-.73-.37s.14-.29.58-.29a6,6,0,0,0,1.33-.15c.75-.16.93-1,1.07-2,.19-1.53.19-4.42.19-7.78Z"/><path id="Path-14" data-name="Path" class="cls-1" d="M559.66,231.36c-.6-.26-.71-.45-.71-1.24,0-2,.16-4.21.19-4.8s.15-.95.45-.95.37.32.37.63a7.34,7.34,0,0,0,.33,1.86,5.09,5.09,0,0,0,5.3,3.7,4.56,4.56,0,0,0,3.38-1,4.43,4.43,0,0,0,1.58-3.14c0-1.78-.56-3.51-3.64-5.85l-1.7-1.32c-4.07-3.07-5.48-5.7-5.48-8.66,0-4,3.4-6.91,8.55-6.91a17.77,17.77,0,0,1,4.92.63c.35,0,.53.17.53.43s-.15,1.53-.15,4.39c0,.8-.11,1.09-.41,1.09s-.37-.21-.37-.66a4.44,4.44,0,0,0-1-2.41,4.68,4.68,0,0,0-4.05-1.78c-2.73,0-4.39,1.53-4.39,3.76,0,1.67.85,3,3.91,5.27l1,.77c4.45,3.39,6.08,5.85,6.08,9.32a7.38,7.38,0,0,1-3.48,6.36,10.69,10.69,0,0,1-5.89,1.53,13,13,0,0,1-5.4-1"/><path id="Path-15" data-name="Path" class="cls-1" d="M583.21,214.76c0-5.56,0-6.59-.07-7.68s-.44-1.86-1.26-2a5.36,5.36,0,0,0-1.32-.16c-.38,0-.61,0-.61-.37s.3-.29.9-.29c1.4,0,3.73.11,4.81.11s3.1-.11,4.52-.11c.48,0,.78,0,.78.29s-.24.37-.59.37a8.33,8.33,0,0,0-1.12.11c-1,.18-1.29.8-1.37,2.09s-.08,2.19-.08,7.68v6.39c0,3.54,0,6.43.16,8,.1,1,.37,1.64,1.47,1.8a14.88,14.88,0,0,0,1.88.15c.42,0,.61.11.61.29s-.3.37-.72.37c-2.44,0-4.77-.12-5.76-.12s-3.19.12-4.67.12c-.48,0-.74-.12-.74-.37s.15-.29.59-.29A6,6,0,0,0,582,231c.74-.16,1-.77,1.07-1.83.18-1.54.18-4.43.18-8Z"/><path id="Shape-4" data-name="Shape" class="cls-2" d="M605.29,218.78v7.39a7.76,7.76,0,0,0,.42,2.78c.48.69,1.91,1.53,4.85,1.53a11.89,11.89,0,0,0,8.5-2.64c2.38-2,3.11-5.33,3.11-9.09a12.38,12.38,0,0,0-3.54-9.21,14.84,14.84,0,0,0-10.53-3.66,9.62,9.62,0,0,0-2.39.26.64.64,0,0,0-.45.72v7.33Zm-4.67-4c0-5.56,0-6.59-.07-7.68s-.38-1.83-1.56-2.09a8.73,8.73,0,0,0-1.44-.11c-.41,0-.64,0-.64-.32s.26-.34.82-.34c2,0,4.29.11,5.34.11s3.48-.11,5.7-.11c4.66,0,10.8,0,14.83,4.18a12.86,12.86,0,0,1,3.59,9.21,14.49,14.49,0,0,1-4,10.22c-1.71,1.72-5.54,4.31-12.43,4.31-2.71,0-6-.44-7.88-.44-.86,0-3.19.12-4.67.12-.48,0-.74-.12-.74-.37s.15-.29.59-.29a6,6,0,0,0,1.34-.15c.74-.16.93-1,1.07-2,.18-1.53.18-4.42.18-7.78Z"/><path id="Shape-5" data-name="Shape" class="cls-2" d="M644.31,220.42c.18,0,.21-.1.18-.21l-3.32-9.05c0-.13-.08-.32-.19-.32s-.19.19-.22.32l-3.42,9c0,.16,0,.26.16.26Zm-7.56,1.83c-.17,0-.25,0-.33.29l-2,5.24a7.44,7.44,0,0,0-.55,2.23c0,.66.33,1.13,1.48,1.13h.56c.44,0,.55,0,.55.3s-.22.37-.63.37c-1.18,0-2.78-.11-3.91-.11-.42,0-2.46.11-4.39.11-.48,0-.7,0-.7-.37s.16-.3.45-.3a6.29,6.29,0,0,0,1.15-.07c1.7-.23,2.4-1.46,3.11-3.29l9.33-23c.44-1.06.67-1.53,1-1.53s.56.32.93,1.16c.88,2,6.81,16.9,9.19,22.49,1.39,3.3,2.47,3.81,3.24,4a9.17,9.17,0,0,0,1.56.16c.29,0,.48,0,.48.29s-.33.37-1.69.37h-7c-.67,0-1.12,0-1.12-.29s.16-.3.51-.34a.6.6,0,0,0,.37-.34.56.56,0,0,0,0-.49l-3-7.68a.35.35,0,0,0-.36-.26Z"/><path id="Shape-6" data-name="Shape" class="cls-2" d="M668.55,218.78c0,3.87,0,6.7.08,7.39A7.76,7.76,0,0,0,669,229c.48.69,1.92,1.53,4.85,1.53a11.89,11.89,0,0,0,8.52-2.64c2.36-2,3.1-5.33,3.1-9.09a12.26,12.26,0,0,0-3.56-9.21,14.77,14.77,0,0,0-10.5-3.66,9.28,9.28,0,0,0-2.41.26.65.65,0,0,0-.45.72v7.33Zm-4.66-4c0-5.56,0-6.59-.08-7.68s-.35-1.83-1.55-2.09a8.77,8.77,0,0,0-1.45-.11c-.4,0-.62,0-.62-.32s.25-.34.81-.34c2,0,4.31.11,5.33.11s3.48-.11,5.71-.11c4.66,0,10.8,0,14.84,4.18a12.89,12.89,0,0,1,3.59,9.21,14.4,14.4,0,0,1-4,10.22c-1.69,1.72-5.55,4.31-12.43,4.31-2.71,0-6-.44-7.9-.44-.84,0-3.11.12-4.66.12-.49,0-.74-.12-.74-.37s.14-.29.58-.29a6,6,0,0,0,1.34-.15c.74-.16.93-1,1.08-2,.18-1.53.18-4.42.18-7.78Z"/><path id="Path-16" data-name="Path" class="cls-1" d="M391.21,281a14.36,14.36,0,0,1-.25-20.81c2.66-2.42,6.22-3.88,11.69-3.88a37,37,0,0,1,5.36.37c1.42.18,2.6.5,3.7.63.42,0,.56.21.56.43s-.11.73-.19,2,0,3.22-.1,3.95-.11.84-.44.84-.37-.29-.37-.81a5.27,5.27,0,0,0-1.45-3.37,11.17,11.17,0,0,0-7.51-2.25,9.76,9.76,0,0,0-7,2.25c-2.71,2.46-3.4,5.93-3.4,9.48,0,8.71,6.68,13,11.65,13,3.3,0,5.29-.37,6.78-2a6.34,6.34,0,0,0,1.26-2.41c.11-.6.17-.74.47-.74s.34.26.34.55a36.23,36.23,0,0,1-.81,4.86,1.28,1.28,0,0,1-1,1.06,21.82,21.82,0,0,1-6.67.84c-5.07,0-9.33-1.09-12.7-4"/><path id="Shape-7" data-name="Shape" class="cls-2" d="M432.23,273.07c.19,0,.22-.1.19-.21l-3.35-9c0-.16,0-.34-.18-.34s-.19.18-.22.34l-3.4,9c0,.16,0,.26.15.26Zm-7.55,1.83c-.19,0-.27.08-.33.29l-2,5.24a6.9,6.9,0,0,0-.56,2.23c0,.66.33,1.13,1.56,1.13h.56c.45,0,.56.08.56.3s-.22.36-.62.36c-1.2,0-2.79-.1-3.94-.1-.4,0-2.44.1-4.36.1-.49,0-.7-.07-.7-.36s.14-.3.43-.3a7.36,7.36,0,0,0,1.15,0c1.71-.21,2.41-1.53,3.11-3.28l9.33-23c.45-1.06.67-1.46,1-1.46s.56.32.93,1.17c.87,2,6.81,16.89,9.17,22.5,1.42,3.28,2.49,3.81,3.27,4a8.06,8.06,0,0,0,1.55.15c.3,0,.48,0,.48.29s-.34.37-1.71.37-4,0-7-.08c-.67,0-1.11,0-1.11-.29s.14-.29.52-.32a.65.65,0,0,0,.36-.35.59.59,0,0,0,0-.5l-2.95-7.75a.34.34,0,0,0-.37-.26Z"/><path id="Path-17" data-name="Path" class="cls-1" d="M454.33,258.85l-5.51.14c-2.15.08-3.11.26-3.59,1.06a4,4,0,0,0-.63,1.29.39.39,0,0,1-.42.43c-.23,0-.32-.17-.32-.58s.7-3.92.77-4.21.22-.69.44-.69a9.15,9.15,0,0,0,1.55.44c1.08.11,2.48.19,3.7.19H465a17,17,0,0,0,3.56-.37c.25,0,.3.21.3.77s-.13,3.28-.13,4.23c0,.37-.11.59-.32.59s-.38-.19-.41-.72V261c-.07-.95-1.09-2-4.37-2l-4.66-.11v15c0,3.36,0,6.25.17,7.83.13,1,.34,1.83,1.45,2,.63.07,1.26.12,1.89.13.41,0,.6.11.6.3s-.3.36-.72.36c-2.44,0-4.77-.1-5.8-.1s-3.11.1-4.66.1c-.5,0-.75-.1-.75-.36s.14-.3.59-.3a7.51,7.51,0,0,0,1.34-.13c.73-.16,1-1,1.07-2,.19-1.54.19-4.43.19-7.79Z"/><path id="Shape-8" data-name="Shape" class="cls-2" d="M493.37,251c.21.43,0,.54-.19.54a6.63,6.63,0,0,0-1.26,0,22.47,22.47,0,0,0-6.33,2.16,2.7,2.7,0,0,1-.62.29.23.23,0,0,1-.23-.21c0-.16.16-.29.34-.48a70.11,70.11,0,0,1,6-4.61,1.56,1.56,0,0,1,.74-.33c.27,0,.33.12.51.44a22.4,22.4,0,0,1,1.08,2.2m3.81,20.33c0-8.2-4.78-13.28-10.89-13.28-4.25,0-9.1,2.35-9.1,11.45,0,7.68,4.25,13.64,11.36,13.64,2.59,0,8.58-1.24,8.58-11.81m-25.06-.69c0-6.26,4.18-14.34,15.3-14.34,9.21,0,14.95,5.31,14.95,13.68A14.34,14.34,0,0,1,498,280.8,14.7,14.7,0,0,1,487,285c-10.61,0-14.92-7.86-14.92-14.33"/><path id="Path-18" data-name="Path" class="cls-1" d="M514.87,273.84c0,4.69,0,7.2.77,7.86s1.56.82,4.48.82c2,0,3.4,0,4.34-1a4.79,4.79,0,0,0,1-2.2c0-.32.11-.55.4-.55s.3.19.3.63a27.12,27.12,0,0,1-.56,4.21c-.22.8-.4,1-2.33,1-5.33,0-7.77-.21-10.77-.21-.84,0-3.11.1-4.67.1-.48,0-.73-.1-.73-.36s.14-.3.59-.3a5.81,5.81,0,0,0,1.32-.15c.75-.14.94-.95,1.09-2,.19-1.54.19-4.43.19-7.79v-6.43c0-5.56,0-6.59-.08-7.76s-.37-1.83-1.55-2.07a5.56,5.56,0,0,0-1.22-.13c-.4,0-.62,0-.62-.32s.25-.34.81-.34c1.73,0,4.07.13,5.07.13s3.59-.13,5-.13c.52,0,.78,0,.78.34s-.23.32-.67.32a10,10,0,0,0-1.44.13c-1,.17-1.29.8-1.37,2.07s-.08,2.2-.08,7.76Z"/><path id="Path-19" data-name="Path" class="cls-1" d="M533.78,267.41v-7.76c0-1.17-.43-1.86-1.26-2a5.38,5.38,0,0,0-1.33-.16c-.36,0-.59,0-.59-.35s.29-.31.9-.31c1.4,0,3.73.13,4.8.13s3.11-.13,4.52-.13c.49,0,.78,0,.78.31s-.23.35-.59.35a8.49,8.49,0,0,0-1.12.11c-1,.19-1.29.82-1.37,2.09s0,2.2,0,7.76v6.43c0,3.55,0,6.44.16,8,.11,1,.37,1.64,1.48,1.78a14.89,14.89,0,0,0,1.89.15c.41,0,.58.11.58.3s-.28.36-.7.36c-2.44,0-4.77-.1-5.77-.1s-3.19.1-4.66.1c-.48,0-.75-.1-.75-.36s.16-.3.59-.3a6,6,0,0,0,1.34-.15c.75-.14,1-.75,1.07-1.83.19-1.53.19-4.42.19-8Z"/><path id="Path-20" data-name="Path" class="cls-1" d="M550.88,281a14.35,14.35,0,0,1-.26-20.81c2.67-2.42,6.22-3.88,11.7-3.88a37.09,37.09,0,0,1,5.37.37c1.41.18,2.58.5,3.7.63.4,0,.56.21.56.43s-.11.73-.19,2,0,3.22-.11,3.95-.12.84-.45.84-.37-.29-.37-.81a5.2,5.2,0,0,0-1.45-3.37c-1.21-1.27-4.1-2.25-7.51-2.25a9.76,9.76,0,0,0-7,2.25c-2.71,2.46-3.41,5.93-3.41,9.48,0,8.71,6.7,13,11.66,13,3.3,0,5.3-.37,6.78-2a6,6,0,0,0,1.26-2.41c.11-.6.19-.74.48-.74s.33.26.33.55a33.3,33.3,0,0,1-.81,4.86,1.27,1.27,0,0,1-1,1.06,21.82,21.82,0,0,1-6.67.84c-5.07,0-9.33-1.09-12.69-4"/><path id="Shape-9" data-name="Shape" class="cls-2" d="M591.84,273.07c.19,0,.22-.1.19-.21l-3.33-9c0-.16-.08-.34-.18-.34s-.19.18-.24.34l-3.4,9c0,.16,0,.26.15.26Zm-7.55,1.83c-.19,0-.25.08-.33.29l-2,5.24a6.63,6.63,0,0,0-.54,2.23c0,.66.32,1.13,1.47,1.13h.63c.43,0,.54.08.54.3s-.22.36-.62.36c-1.18,0-2.78-.1-3.93-.1-.41,0-2.45.1-4.36.1-.49,0-.71-.07-.71-.36s.15-.3.45-.3a7.1,7.1,0,0,0,1.13,0c1.71-.21,2.41-1.53,3.11-3.28l9.33-23c.43-1.06.67-1.46,1-1.46s.56.32.94,1.17c.88,2,6.81,16.89,9.18,22.5,1.4,3.28,2.48,3.81,3.25,4a8.17,8.17,0,0,0,1.56.15c.29,0,.48,0,.48.29s-.33.37-1.71.37-4,0-7-.08c-.66,0-1.1,0-1.1-.29s.16-.29.51-.32a.61.61,0,0,0,.35-.85l-3.1-7.77a.36.36,0,0,0-.37-.26Z"/><path id="Shape-10" data-name="Shape" class="cls-2" d="M395.28,324.05v7.39a8,8,0,0,0,.4,2.79c.49.69,1.93,1.46,4.85,1.46a11.94,11.94,0,0,0,8.51-2.64c2.38-2,3.11-5.35,3.11-9.11a12.36,12.36,0,0,0-3.56-9.14,14.74,14.74,0,0,0-10.51-3.65,10.83,10.83,0,0,0-2.41.24.69.69,0,0,0-.45.74v7.31Zm-4.66-4v-7.67a1.83,1.83,0,0,0-1.56-2.09,6.94,6.94,0,0,0-1.44-.11c-.41,0-.62-.08-.62-.34s.24-.32.8-.32c2,0,4.31.11,5.34.11s3.48-.11,5.7-.11c4.66,0,10.88,0,14.85,4.16a13.07,13.07,0,0,1,3.59,9.22,14.44,14.44,0,0,1-4,10.21c-1.69,1.7-5.54,4.3-12.43,4.3-2.71,0-6.05-.43-7.9-.43-.84,0-3.11.11-4.66.11-.48,0-.73-.11-.73-.37s.14-.29.59-.29a6.5,6.5,0,0,0,1.32-.14c.75-.16.93-.95,1.07-2,.19-1.54.19-4.44.19-7.79Z"/><path id="Path-21" data-name="Path" class="cls-1" d="M425,320.06c0-5.56,0-6.58-.08-7.68s-.37-1.83-1.55-2.09a7,7,0,0,0-1.45-.11c-.4,0-.62-.08-.62-.34s.25-.32.81-.32c2,0,4.29.11,5.33.11h9.25a11.57,11.57,0,0,0,1.55-.22,3.8,3.8,0,0,1,.58-.15c.19,0,.23.15.23.34a20.9,20.9,0,0,0-.29,2.38c0,.37-.11,2-.19,2.41a.37.37,0,0,1-.37.4c-.27,0-.33-.19-.33-.51a3.94,3.94,0,0,0-.23-1.32c-.25-.66-.62-1.09-2.47-1.31-.64-.07-4.53-.15-5.26-.15-.18,0-.26.11-.26.37v9.21c0,.27,0,.4.26.4h5.93a2.62,2.62,0,0,0,1.77-.55c.26-.29.4-.48.59-.48s.26.08.26.3a26.26,26.26,0,0,0-.29,2.67c0,.74-.16,2.19-.16,2.44s0,.71-.32.71a.35.35,0,0,1-.26-.09.34.34,0,0,1-.09-.25,8.2,8.2,0,0,0-.14-1.31c-.18-.73-.7-1.29-2.08-1.42-.7-.08-4.37-.13-5.25-.13-.19,0-.22.16-.22.37v8.57c.08,2.52.67,3.07,4.44,3.07a9.61,9.61,0,0,0,3.49-.44c1-.45,1.4-1.22,1.66-2.71,0-.39.14-.55.4-.55s.3.29.3.66a27.76,27.76,0,0,1-.48,4.06c-.27,1-.59,1-2,1-5.58,0-8.07-.22-10.24-.22-.86,0-3.19.11-4.67.11-.48,0-.74-.11-.74-.37s.15-.29.59-.29a6,6,0,0,0,1.34-.14c.74-.15.91-.95,1.07-2,.19-1.54.19-4.44.19-7.79Z"/><path id="Path-22" data-name="Path" class="cls-1" d="M461.83,333.63a14.36,14.36,0,0,1-.25-20.81c2.66-2.41,6.22-3.88,11.69-3.88a37.22,37.22,0,0,1,5.38.36c1.4.19,2.58.53,3.7.63.4,0,.54.22.54.43s-.11.74-.17,2,0,3.22-.13,4-.1.83-.43.83-.37-.29-.37-.8a5.17,5.17,0,0,0-1.45-3.36c-1.23-1.29-4.1-2.28-7.51-2.28a9.73,9.73,0,0,0-7,2.28c-2.71,2.44-3.41,5.92-3.41,9.46,0,8.7,6.7,13,11.66,13,3.3,0,5.29-.37,6.78-2a6.41,6.41,0,0,0,1.26-2.41c.11-.59.19-.74.48-.74s.33.26.33.55a33.44,33.44,0,0,1-.81,4.87,1.32,1.32,0,0,1-1,1.06,21.81,21.81,0,0,1-6.67.83c-5.07,0-9.33-1.09-12.7-4"/><path id="Path-23" data-name="Path" class="cls-1" d="M510.87,321.08c.12,0,.23,0,.23-.26v-.76c0-5.56,0-6.58-.07-7.68s-.38-1.85-1.56-2.09a6.84,6.84,0,0,0-1.43-.11c-.4,0-.64-.08-.64-.34s.27-.32.78-.32c2,0,4.34.11,5.33.11s3.22-.11,4.67-.11c.51,0,.77,0,.77.32s-.21.34-.66.34a5.65,5.65,0,0,0-1.08.11c-1,.17-1.29.8-1.37,2.09s0,2.18,0,7.68v6.43c0,3.36,0,6.27.18,7.83.1,1,.34,1.83,1.44,2a17.16,17.16,0,0,0,1.9.14c.4,0,.59.13.59.29s-.3.37-.75.37c-2.41,0-4.74-.1-5.76-.1s-3.11.1-4.67.1c-.51,0-.78-.1-.78-.37s.14-.29.6-.29a6.68,6.68,0,0,0,1.33-.14c.73-.15.92-.95,1.07-2,.19-1.53.19-4.44.19-7.8v-3.21a.2.2,0,0,0-.07-.16.18.18,0,0,0-.16-.05H496.82c-.11,0-.22,0-.22.21v3.21c0,3.36,0,6.27.17,7.83.11,1,.34,1.83,1.45,2a17.16,17.16,0,0,0,1.89.14c.41,0,.59.13.59.29s-.29.37-.74.37c-2.41,0-4.74-.1-5.77-.1s-3.11.1-4.66.1c-.48,0-.75-.1-.75-.37s.14-.29.59-.29a6.7,6.7,0,0,0,1.34-.14c.73-.15.92-.95,1.07-2,.19-1.53.19-4.44.19-7.8v-6.43c0-5.56,0-6.58-.08-7.68s-.37-1.85-1.55-2.09a6.9,6.9,0,0,0-1.43-.11c-.41,0-.64-.08-.64-.34s.26-.32.78-.32c2,0,4.33.11,5.33.11s3.22-.11,4.66-.11c.53,0,.78,0,.78.32s-.22.34-.67.34a6.36,6.36,0,0,0-1.07.11c-1,.17-1.29.8-1.37,2.09s0,2.18,0,7.68v.76c0,.19.11.26.22.26Z"/><path id="Path-24" data-name="Path" class="cls-1" d="M528.59,320.06c0-5.56,0-6.58-.08-7.68s-.45-1.88-1.26-2.06a5.37,5.37,0,0,0-1.33-.14c-.36,0-.59-.08-.59-.37s.29-.29.88-.29c1.42,0,3.75.11,4.82.11s3.11-.11,4.53-.11c.48,0,.77,0,.77.29s-.23.37-.6.37a6,6,0,0,0-1.11.11c-1,.18-1.29.8-1.37,2.09s-.07,2.18-.07,7.68v6.45c0,3.53,0,6.42.15,8,.11,1,.36,1.64,1.56,1.79a13.11,13.11,0,0,0,1.88.14c.42,0,.59.11.59.29s-.28.37-.7.37c-2.44,0-4.77-.1-5.77-.1s-3.11.1-4.66.1c-.48,0-.75-.1-.75-.37s.16-.29.59-.29a5.5,5.5,0,0,0,1.34-.14c.73-.15,1-.76,1.07-1.82.19-1.54.19-4.44.19-8Z"/><path id="Path-25" data-name="Path" class="cls-1" d="M550.6,326.51c0,4.6,0,7.2.78,7.84s1.55.82,4.48.82c2,0,3.4,0,4.33-1a4.61,4.61,0,0,0,1-2.2c0-.32.11-.53.4-.53s.3.16.3.61a30,30,0,0,1-.56,4.21c-.22.8-.41,1-2.33,1-5.34,0-7.78-.21-10.78-.21-.85,0-3.11.1-4.66.1-.48,0-.75-.1-.75-.37s.16-.29.59-.29a6.13,6.13,0,0,0,1.29-.1c.75-.16.94-1,1.08-2,.18-1.53.18-4.44.18-7.78V312.41a1.82,1.82,0,0,0-1.55-2.09,5.63,5.63,0,0,0-1.23-.11c-.4,0-.62-.08-.62-.34s.26-.32.81-.32c1.74,0,4.07.11,5.07.11s3.59-.11,5-.11c.51,0,.78,0,.78.32s-.22.34-.67.34a9.73,9.73,0,0,0-1.43.11c-1,.18-1.31.8-1.37,2.09s-.08,2.18-.08,7.68Z"/><path id="Path-26" data-name="Path" class="cls-1" d="M569.54,320.06c0-5.56,0-6.58-.08-7.68s-.38-1.83-1.56-2.09a6.94,6.94,0,0,0-1.44-.11c-.42,0-.64-.08-.64-.34s.26-.32.82-.32c2,0,4.29.11,5.34.11h9.25a11.57,11.57,0,0,0,1.55-.22,5.66,5.66,0,0,1,.59-.15c.19,0,.23.15.23.34a20.9,20.9,0,0,0-.29,2.38c0,.37-.11,2-.19,2.41a.37.37,0,0,1-.37.4c-.27,0-.34-.19-.34-.51a3.93,3.93,0,0,0-.22-1.32c-.27-.66-.62-1.09-2.49-1.31-.62-.07-4.51-.15-5.24-.15-.18,0-.26.11-.26.37v9.21c0,.27,0,.4.26.4h5.91a2.69,2.69,0,0,0,1.79-.55c.25-.29.4-.48.59-.48s.26.08.26.3-.18.79-.31,2.67c0,.74-.14,2.19-.14,2.44s0,.71-.34.71a.3.3,0,0,1-.25-.09.33.33,0,0,1-.08-.25,8.2,8.2,0,0,0-.14-1.31c-.18-.73-.71-1.29-2.08-1.42-.7-.08-4.37-.13-5.25-.13-.19,0-.22.16-.22.37v8.57c.08,2.52.67,3.07,4.44,3.07a9.58,9.58,0,0,0,3.49-.44c1-.45,1.4-1.22,1.64-2.71.08-.39.16-.55.42-.55s.3.29.3.66a27.76,27.76,0,0,1-.48,4.06c-.27,1-.59,1-2,1-5.58,0-8.07-.22-10.24-.22-.86,0-3.19.11-4.66.11-.47,0-.74-.11-.74-.37s.14-.29.6-.29a6,6,0,0,0,1.33-.14c.75-.15.92-.95,1.07-2,.19-1.54.19-4.44.19-7.79Z"/><path id="Path-27" data-name="Path" class="cls-1" d="M276,183.52a2.6,2.6,0,0,0,2.4-1.56,2.55,2.55,0,0,0-.55-2.79,2.62,2.62,0,0,0-2.82-.56,2.55,2.55,0,0,0,1,4.91"/><path id="Path-28" data-name="Path" class="cls-1" d="M194.35,282.47a.77.77,0,1,0,.78.77.78.78,0,0,0-.78-.77"/><path id="Path-29" data-name="Path" class="cls-1" d="M226.3,284a.76.76,0,1,0-.77-.75.72.72,0,0,0,.23.53.76.76,0,0,0,.54.22"/><path id="Shape-11" data-name="Shape" class="cls-2" d="M172.54,270a7.26,7.26,0,0,1,2.92,4,7.6,7.6,0,0,1-5-.5,7.35,7.35,0,0,1-2.92-4,7.54,7.54,0,0,1,5,.51Zm-2.86-12.39a6.74,6.74,0,0,1,4.12,1.93,6.54,6.54,0,0,1,1.26,4.33,6.77,6.77,0,0,1-4.12-2,6.7,6.7,0,0,1-1.26-4.35Zm3.47,7.19a7.14,7.14,0,0,1,2.19,4.42,7.45,7.45,0,0,1-4.8-1.35,7.21,7.21,0,0,1-2.18-4.43,7.43,7.43,0,0,1,4.79,1.36Zm.08-12.66a17.56,17.56,0,0,1,11.86,4.42l-.58.66a15.11,15.11,0,0,0-7.77-2.05c-7.45,0-12.44,5-12.44,11.15a10.8,10.8,0,0,0,9,10.75c3.57.83,4.23,2.76,4.23,3.77v1.08h-3.11c-.16-1.17-1.25-1.87-4.29-2.5-7.64-1.54-11.88-6.52-11.88-13.53,0-7.68,6.12-13.83,15.08-13.83Zm4.72,7.37a6.8,6.8,0,0,1,4.11-2,5.53,5.53,0,0,1-5.35,6.31,6.59,6.59,0,0,1,1.24-4.33Zm.59,5.21a7.42,7.42,0,0,1,4.81-1.35,7.26,7.26,0,0,1-2.2,4.42,7.34,7.34,0,0,1-4.78,1.35,7.22,7.22,0,0,1,2.17-4.42Zm2.71,8.69a7.51,7.51,0,0,1-5,.51,7.28,7.28,0,0,1,2.94-4,7.38,7.38,0,0,1,5-.51,7.28,7.28,0,0,1-2.94,4Zm-1.71,24.31a3.71,3.71,0,0,1-7.23,0l1.34-13h4.57Zm14-30.71h9a1.54,1.54,0,0,1,1.56,1.53v2.15h2v-2.15a3.59,3.59,0,0,0-2.4-3.35L203,265l.59-.42a12.51,12.51,0,0,1,7.07-2.19,12.64,12.64,0,0,1,7.54,2.53l.48.36-.54.27a3.59,3.59,0,0,0-2,3.17v2.15h2v-2.15a1.54,1.54,0,0,1,1.55-1.54h9v.37a6.67,6.67,0,0,1-.38,2.21h-6.07v1h5.73a5.05,5.05,0,0,1-4.66,2.95h-2.33v2h4.27v3.49H196.47v-3.49h5v-2h-2.33a5,5,0,0,1-4.67-2.95h5.63v-1H194a7.57,7.57,0,0,1-.36-2.21Zm21.76,17.6s.28-2.31.31-3.07h1.68a26,26,0,0,0-2,3.07Zm-7.43-3.07h4.9l-.28,6.88a32.41,32.41,0,0,1-3.3,1.46l-1,.38Zm22.43,1.72-.12.76a5.36,5.36,0,0,1-4.09,1.54c-2.23,0-3.53-1.08-4.53-.09a18.33,18.33,0,0,0-2.72,4,7.88,7.88,0,0,1-3.1,3.17,39.63,39.63,0,0,1-4.39,2c-1,.42-2,.83-3,1.29h0c-1.81.82-3.11,1.72-3.11,3.2,0,1,1,1.84,2.47,2.62A23.64,23.64,0,0,0,205,303.5a5.47,5.47,0,0,1-2.71-4.36,5.75,5.75,0,0,1,3.11-5,38.24,38.24,0,0,1,4.67-2.09,24.59,24.59,0,0,0,4.09-1.92h0a5,5,0,0,0,1.94-1.95c3.11-6,6.45-7.31,9-7.25a8.74,8.74,0,0,1,5.14,2.33ZM209,298.92a1.34,1.34,0,1,1,1.33,1.32,1.37,1.37,0,0,1-.94-.38,1.33,1.33,0,0,1-.39-.94Zm4.53,5.87h0l-1.19.6a24.22,24.22,0,0,0-3.8,2.09l-.26.17-.11.09h0a2.13,2.13,0,0,0-1,1.53,2,2,0,0,0,1.25,1.85,16.79,16.79,0,0,0-2.23,2,4.14,4.14,0,0,1-2-3.81,4.84,4.84,0,0,1,2.11-3.86h.11a30.41,30.41,0,0,1,4.4-2.53l1.55-.8c1.75-.89,3.11-1.72,3.11-2.92s-.82-2-2.06-2.67c1-.43,2.09-.91,3.1-1.41a5.15,5.15,0,0,1,2,4.08c0,2.71-2.45,4.38-4.86,5.65Zm-.26,9.44a9.51,9.51,0,0,0-2.41,1.54,1.15,1.15,0,0,0-.4.81,1.11,1.11,0,0,0,.29.85,1.2,1.2,0,0,0,.83.4,1.26,1.26,0,0,0,.87-.29,5.42,5.42,0,0,1,1.55-1,3.15,3.15,0,0,1,.17,1,3.38,3.38,0,0,1-2.67,3.07v1.62a1,1,0,0,1-.46,1,1,1,0,0,1-1.09,0,1,1,0,0,1-.46-1v-1.62a3.38,3.38,0,0,1-2.67-3.07,3.87,3.87,0,0,1,.54-1.9c1.2-1.86,2.55-2.68,5.23-4.46l.24-.18h0l.14-.11a1.82,1.82,0,0,0,.6-1.38,2,2,0,0,0-.86-1.43l.68-.35c.74-.36,1.43-.69,2.1-1.06a4.38,4.38,0,0,1,1.08,2.84,5.42,5.42,0,0,1-3.44,4.9Zm-9.89-32.45h1.68c0,.83.2,3.07.2,3.07a21.94,21.94,0,0,0-1.88-3.07Zm-1.55,7.94a17.65,17.65,0,0,0-2.72-4c-1-1-2.3.1-4.52.1a5.42,5.42,0,0,1-4.08-1.54l-.14-.77a8.92,8.92,0,0,1,5.15-2.33c2.56,0,6,1.27,9,7.25a6.27,6.27,0,0,0,2.82,2.21,28.92,28.92,0,0,0-3.11,1.53,7.27,7.27,0,0,1-2.38-2.7ZM149.38,260l6.22,3.51a15.46,15.46,0,0,0-.19,2.45c0,8.12,4.67,14.36,14.15,16.28a12.93,12.93,0,0,1,1.55.4l-1.55,15.06v.14a6.51,6.51,0,0,0,12.92,0v-.14L180.92,282h-.47v-1.07a5.91,5.91,0,0,0-1.94-4.27,7.92,7.92,0,0,0,4.07-1,8.72,8.72,0,0,0,3.77-5l.46-1.73,4.39-2.49v1.07a9.17,9.17,0,0,0,2.67,6.5v4.27a12.77,12.77,0,0,0-5.47,2.9l-1.2,1.08.36,2.07.17.68c.67,1.92,3.76,3.54,6.84,3.54a12.25,12.25,0,0,0,2.89-.38h0a16.6,16.6,0,0,1,1.71,2.7,9.88,9.88,0,0,0,2.36,2.94,7.6,7.6,0,0,0,1,11.45,7.19,7.19,0,0,0-1.29,4.1,7.64,7.64,0,0,0,2.9,6.15,5.74,5.74,0,0,0-.43,2.09,6,6,0,0,0,2.8,5,3.89,3.89,0,0,0,7.77,0,6.13,6.13,0,0,0,2.77-5,5.57,5.57,0,0,0-.46-2.09,7.52,7.52,0,0,0,2.91-6.15,7,7,0,0,0-1.29-4.1,7.61,7.61,0,0,0,1-11.45,10.13,10.13,0,0,0,2.35-2.94,18.08,18.08,0,0,1,1.71-2.7h0a12.09,12.09,0,0,0,2.87.38c3.11,0,6.22-1.62,6.84-3.54a4.73,4.73,0,0,1,.17-.68l.38-2-1.22-1.11a13.35,13.35,0,0,0-4.5-2.64v-3.9a8.89,8.89,0,0,0,3.42-7.13v-2.73h-9.33a15.06,15.06,0,0,0-22,0h-5.72l8.33-4.76a.74.74,0,1,0-.75-1.28l-15.65,8.93-1.29-.34a10.08,10.08,0,0,0,.92-3.07l.15-1.82L197.21,253a.71.71,0,0,0,.26-.69.75.75,0,0,0-1.22-.44l-11.44,9.47h-.52a10.73,10.73,0,0,0,.27-1l3.81-4.47-1.29-1.21-.78-.66,5-6a.77.77,0,0,0,.18-.54.76.76,0,0,0-1.33-.42l-5.08,6a20.61,20.61,0,0,0-11.83-3.59,19.43,19.43,0,0,0-8.16,1.7l-3.5-4.1a.76.76,0,0,0-.51-.27.79.79,0,0,0-.55.16.75.75,0,0,0-.09,1l3.26,3.85a17.33,17.33,0,0,0-4.19,3.33l-4-3.31a.76.76,0,0,0-.74-.13.74.74,0,0,0-.48.57.73.73,0,0,0,.25.69l4,3.34a15.5,15.5,0,0,0-2.74,5.73l-5.73-3.26a.75.75,0,0,0-.57-.09.7.7,0,0,0-.44.35.74.74,0,0,0-.09.56.75.75,0,0,0,.35.45Z"/><path id="Shape-12" data-name="Shape" class="cls-2" d="M301.73,286.47a6.81,6.81,0,0,1-6.82-6.75h13.62a6.66,6.66,0,0,1-2,4.76,6.85,6.85,0,0,1-4.81,2Zm-14.52,20.1a9.36,9.36,0,0,1-2.53-.18c-1.18-.3-2.95-1.86-5-2.85l1.56-20.78a7,7,0,0,1,1.12.14,10.46,10.46,0,0,1,3.56,1.82,14.55,14.55,0,0,0,5.08,2.47,33.41,33.41,0,0,0,4.45.78c-1,2.69-8.2,18.6-8.2,18.6Zm-10.88,6a1,1,0,0,1-2,0L270.77,263h-23a2.72,2.72,0,1,1,2.75-2.71v.19c5,.34,15.07.62,22-4.43a3.84,3.84,0,0,1,.15-5.4,4,4,0,0,1,5.46,0,3.85,3.85,0,0,1,.16,5.4c7,5.05,17.1,4.77,22,4.43v-.19a2.76,2.76,0,1,1,2.75,2.71H279.91Zm-7.07-10.44a5.8,5.8,0,0,0-3.45-3.58,13.73,13.73,0,0,0-5.19-.09,18.49,18.49,0,0,1-6.34-.17,12.32,12.32,0,0,1-3-1.26c1.12-1.69,9.84-15.36,10.88-17a15,15,0,0,0,3.33,1.2,13.39,13.39,0,0,0,3.84.29l1.44,19.77a4.4,4.4,0,0,0-1.55.87ZM249,286.47a6.78,6.78,0,0,1-6.82-6.75h13.63a6.79,6.79,0,0,1-6.81,6.75Zm7.09-9.4-5.24-11.38h17.41l1,13.31a10.8,10.8,0,0,1-3.11-.21,11.55,11.55,0,0,1-3.58-1.46l-1.06-.75-.71,1.07-2.46,3.69a11.11,11.11,0,0,0,.16-1.62v-2.65ZM249,266.59l4.76,10.48h-9.55Zm45.08,18.6a18.69,18.69,0,0,1-2.47-.4,12,12,0,0,1-4.24-2.1,12.35,12.35,0,0,0-4.4-2.18,9.23,9.23,0,0,0-1.56-.19l1-14.63h17.38l-5.17,11.39h-2.46v2.66a9.32,9.32,0,0,0,1.79,5.47Zm12.34-8.11h-9.53l4.78-10.47Zm2.35,0-5.16-11.39a5.39,5.39,0,1,0-5.47-7.68c-6.87.27-12.44-.65-16.42-2.81a6.88,6.88,0,0,0,.22-1.8,6.54,6.54,0,0,0-3.77-6,6.7,6.7,0,0,0-7.1.89A6.5,6.5,0,0,0,269,255c-4,2.15-9.51,3.07-16.37,2.82a5.46,5.46,0,0,0-6.31-2.85,5.36,5.36,0,0,0,.79,10.53L241.87,277h-2.38v2.66a9.36,9.36,0,0,0,5,8.25,9.59,9.59,0,0,0,9.71-.37l-5.54,8.29h0v.11h0L248,300l17.85,3.53c-.22.91,1.55,2,2.64,2.34a4.77,4.77,0,0,0,2.82-.2l.49,6.88v-.18a3.7,3.7,0,0,0,7.4,0h0l.33-4.81,10.17,3.25,8.78-21.3v-1.23a9.37,9.37,0,0,0,3.43.65,9.48,9.48,0,0,0,9.52-9.4v-2.66Z"/><path id="Shape-13" data-name="Shape" class="cls-2" d="M174.7,195.21a22.85,22.85,0,0,1,6,.64,34.55,34.55,0,0,1,4.87-.43c2.66,0,5.39,2.66,5.39,2.66l-.25,1.41s-1.27,1.54-5,1.54c-2.19,0-4-1.42-5.54-1.89a18.6,18.6,0,0,0-5.5-.77,7.82,7.82,0,0,0-7.38,8.16c0,4.6,2.7,6.91,5.45,8.93,3.11,2.34,5.37,3.31,6.22,4l-.4.13a3.64,3.64,0,0,0-2,1.35c-5.76-2.14-12.43-6-12.43-14.45a10.8,10.8,0,0,1,2.89-7.84,11,11,0,0,1,7.66-3.48Zm22.57,8.4v2.95c0,4-3.11,6.25-5.9,8.21-1.14.8-3.5,2.35-3.5,2.35L182,218.66c-1-1.54-3.25-2.63-5.07-3.92-2.77-2-5.92-4.19-5.92-8.21v-2.95Zm-8.11,24.57-8.88,2.44a1.55,1.55,0,0,1-1.79-.11,1.52,1.52,0,0,1-.49-1.71,1.56,1.56,0,0,1,1.48-1l8.87-2.46a1.57,1.57,0,0,1,1.78.14,1.52,1.52,0,0,1,.48,1.7,1.57,1.57,0,0,1-1.45,1Zm-10-6.47,8.87-2.45a1.55,1.55,0,0,1,1.51,1.12,1.52,1.52,0,0,1-.7,1.73L180,224.57a1.53,1.53,0,0,1-.8-2.86Zm12.6,15.89V238H176.4v-.37c0-1.53,3.77-3.42,5.34-5l4.09-1.13c.11,1.76,6,4.2,6,6.15Zm0-54.39h14.44V166.7h8.21v16.42h14.41v8.11H214.48V238h-8.21V191.23H191.8Zm-30.7,23.33c0,10.28,8,14.93,14.77,17.36a3.54,3.54,0,0,0,1.68,2.42,3.57,3.57,0,0,0-1,1.12,3.73,3.73,0,0,0-.34,2.81,3.65,3.65,0,0,0,1.45,2c-1.73,1.15-4.28,2.91-4.28,5.72v2.14h21.5V238c0-3.3-3.51-5-5.08-6.31-.3-.25-.69-.59-.93-.83v-.22s3.65-.89,3.65-3.82a3.86,3.86,0,0,0-1.76-3.07,3.69,3.69,0,0,0,1-1.12,3.78,3.78,0,0,0,.35-2.81,3.69,3.69,0,0,0-.84-1.54c.67-.38,1.36-.77,1.85-1.12,3-2.14,7.17-5.07,7.17-10.61v-5.92h-6.81l.34-1.85a6.92,6.92,0,0,1,2.46-.77c.93,0,1.9.8,2.86.8s1.26-.51,1.24-.77-.54-.32-1.12-.32c-.82,0-1.74-1.17-3.1-1.17a9.43,9.43,0,0,0-2.17.4,29,29,0,0,0-3.52-2.92h12.91v46.07H217.3V194.07h14.42V180.31H217.31V163.87H203.43v16.44H189v13a11.11,11.11,0,0,0-3.45-.84,25.93,25.93,0,0,0-4.4.43,42.6,42.6,0,0,0-6.47-.65,14.09,14.09,0,0,0-9.77,4.37,13.76,13.76,0,0,0-3.77,9.93Z"/><path id="Shape-14" data-name="Shape" class="cls-2" d="M296.46,210.07c0-2.84,1.56-4.6,4-4.6a2.28,2.28,0,0,1,2.51,2.19,1.55,1.55,0,0,1-1.71,1.69,1.53,1.53,0,0,0,0,3,4.51,4.51,0,0,0,3.34-1.31,4.41,4.41,0,0,0,1.32-3.3,5.16,5.16,0,0,0-1.64-3.74,5.28,5.28,0,0,0-3.86-1.41,6.57,6.57,0,0,0-6.33,4.09l-2.81-7.24h8.27c5.78,0,9.32,3.35,9.32,8.71a7.15,7.15,0,0,1-7.21,7.08,5.09,5.09,0,0,1-3.74-1.44,4.92,4.92,0,0,1-1.48-3.69Zm7.11,28.05-.73.4-27.49-47.45h.59a10.24,10.24,0,0,0,7.62-3.39c6.22,15.53,20,50.39,20,50.39Zm-8.51-4H290V221.7l5.06,8.75Zm-8.28,0h-5.07V215.6a1.61,1.61,0,0,0-3.22,0v18.56h-5.06V215.6a1.62,1.62,0,0,0-3.24,0v18.56h-5.05V216.25l2.94-5.06H283.9l2.9,5Zm-24.87,0h-5.05v-3.59l5.06-8.76Zm13-34.74h2.17l5.1,8.81H269.73Zm-25.84,39.15-.74-.4s13.86-34.91,20-50.41a10.46,10.46,0,0,0,3.4,2.49l2.66,4.61Zm1.2-23.32a7.15,7.15,0,0,1-7.15-7.08c0-5.36,3.59-8.71,9.33-8.71h8.27l-2.9,7.3a6.54,6.54,0,0,0-6.34-4.13A5.28,5.28,0,0,0,247.6,204a5.15,5.15,0,0,0-1.64,3.73,4.42,4.42,0,0,0,1.32,3.31,4.54,4.54,0,0,0,3.34,1.3,1.53,1.53,0,0,0,0-3,1.56,1.56,0,0,1-1.27-.44,1.51,1.51,0,0,1-.45-1.25,2.28,2.28,0,0,1,2.52-2.2c2.5,0,4,1.71,4,4.61a4.89,4.89,0,0,1-1.47,3.68,5,5,0,0,1-3.74,1.45Zm25.66-41.45a7.28,7.28,0,0,1,6.75,4.44,7.15,7.15,0,0,1-1.58,7.86,7.37,7.37,0,0,1-7.95,1.56,7.19,7.19,0,0,1,2.78-13.86Zm35.94,34.34c0-7-5-11.67-12.43-11.67H290l-4.67-11.61a9.75,9.75,0,0,0,.8-3.87,10.19,10.19,0,0,0-6.31-9.59,10.39,10.39,0,0,0-11.35,2.28,10.07,10.07,0,0,0-2,11.26l-4.67,11.56h-9.32c-7.42,0-12.44,4.7-12.44,11.67a10.14,10.14,0,0,0,10.23,10,9,9,0,0,0,3.25-.6l-4.15,10.54-3.62,9.12c-.92,2.34.65,3,.65,3l2.1,1.08c1.29.69,2.36-.23,3-1.4l2.39-4.15v1.06H298.1v-1.09l2.42,4.18c.68,1.17,1.74,2.09,3,1.4l2.1-1.08s1.56-.64.65-3l-3.62-9.12-4.2-10.52a9.08,9.08,0,0,0,3.22.58,10.15,10.15,0,0,0,10.22-10Z"/><path id="Path-30" data-name="Path" class="cls-1" d="M186.05,198.51a.76.76,0,1,0-.76-.75.76.76,0,0,0,.76.75"/><path id="Shape-15" data-name="Shape" class="cls-2" d="M275,107.16a33,33,0,0,0,4.66-4.49l.37-.12.66-.12v.26l.21,1.26v.15l-.12.09a12.68,12.68,0,0,0-5,7.27l-.17.78-.32-.72-.11-.23v-1.72a9.65,9.65,0,0,0-.25-2.15v-.16ZM273.16,111a5,5,0,0,0,1.46,2.91,11,11,0,0,0,3,1.33h0a12.82,12.82,0,0,1-.13-1.39c0-5.36,5.23-8.66,5.23-8.66a5.77,5.77,0,0,0,.32-.91l-.63-3.53c0-.49,0-.7-.69-.55l-3.11.6a39.55,39.55,0,0,1-6,5.74,10.56,10.56,0,0,1,.55,4.46Z"/><path id="Path-31" data-name="Path" class="cls-1" d="M284.39,98.28a33,33,0,0,1,.34,5.34,5.26,5.26,0,0,0,1.89-3.24,22.63,22.63,0,0,0-.7-4.9c-.15-.24-2-2.53-2.93-2.53-.41,0-1,.58-1.34,1.54A25.52,25.52,0,0,1,280,97.23v.3c1.37,0,4.21,0,4.46.63"/><path id="Path-32" data-name="Path" class="cls-1" d="M167.32,122.18l2.41,2.91a35.87,35.87,0,0,1,4.09-2.78,1.75,1.75,0,0,1,0-.56,4,4,0,0,1,2.33-3.63,4,4,0,0,1,1.66-.37,4.12,4.12,0,0,1,3.11,1.4,32.85,32.85,0,0,1,4.35-1.17l-.73-3.7a40.16,40.16,0,0,0-9,2.87,39,39,0,0,0-8.06,5"/><path id="Path-33" data-name="Path" class="cls-1" d="M161.57,114.9,163.9,118a43.64,43.64,0,0,1,6-4,3.84,3.84,0,0,1,0-.48,4,4,0,0,1,2.34-3.61,3.83,3.83,0,0,1,1.67-.36,4,4,0,0,1,3,1.3,43.86,43.86,0,0,1,6.49-1.78c-.11-.45-.84-3.7-.84-3.7A46.75,46.75,0,0,0,161.57,115"/><path id="Path-34" data-name="Path" class="cls-1" d="M166,105.51a2.41,2.41,0,0,1,0-.38,4,4,0,0,1,2.32-3.6,4.29,4.29,0,0,1,1.69-.38,4,4,0,0,1,2.89,1.23,52.3,52.3,0,0,1,8.4-2.41c-.39-1.54-.64-2.44-.8-2.94-.24,0-.49,0-.74,0a17.45,17.45,0,0,0-3.81.57l-.61.17a15.39,15.39,0,0,1-3.93.65,6.06,6.06,0,0,1-4.8-2c-.58-.64-.76-.69-.81-.69a1.36,1.36,0,0,0-.4.14c-.41.2-.41.2-.41.52a4.57,4.57,0,0,0,0,.74A5.72,5.72,0,0,1,165,98c0,3.43-3.11,5.56-4.66,6.58l-.5.35a11.94,11.94,0,0,0-3.34,3.07c.28.43.82,1.2,1.77,2.49a51.45,51.45,0,0,1,7.63-5"/><path id="Shape-16" data-name="Shape" class="cls-2" d="M254.59,98.13c1,1.41,2,2.68,2.9,3.74A12.36,12.36,0,0,0,254,107l-1.55-.44a17.7,17.7,0,0,0,0-2.06,34.71,34.71,0,0,0-.47-5.39l2.58-1m-4.13,9.67,4.66,1.28a12.58,12.58,0,0,1,4.8-7,55.15,55.15,0,0,1-4.66-6c-2,.88-4.17,1.54-5.08,1.92a30.52,30.52,0,0,1,.65,6.53,15.23,15.23,0,0,1-.36,3.3"/><path id="Shape-17" data-name="Shape" class="cls-2" d="M218.4,99.11a32.43,32.43,0,0,0-.48,5.39,14.4,14.4,0,0,0,.14,2.07l-1.56.43a12.42,12.42,0,0,0-3.51-5.13c.89-1.06,1.9-2.33,2.91-3.74.88.35,1.72.69,2.58,1m-8,3a12.52,12.52,0,0,1,4.85,7l4.66-1.28a13.58,13.58,0,0,1-.37-3.3,29.75,29.75,0,0,1,.66-6.52c-.93-.31-3.1-1.06-5.09-1.92a56.4,56.4,0,0,1-4.67,6"/><path id="Shape-18" data-name="Shape" class="cls-2" d="M217.37,113.64l2.83-.77a21.43,21.43,0,0,0,2.47,3.52,43.6,43.6,0,0,1-6.32,2,15.28,15.28,0,0,0,1-4.71m-4.32,7.18A48.83,48.83,0,0,0,225.49,117a22,22,0,0,1-4.43-6.14c-.81.28-2.37.68-5.35,1.46a13.78,13.78,0,0,1-2.67,8.51"/><path id="Shape-19" data-name="Shape" class="cls-2" d="M235.2,115.63a14.51,14.51,0,0,0,1.28,1.43l-1.28.74-1.27-.72c.45-.48.88-1,1.27-1.45m-4,1.66a40,40,0,0,0,4,2.49,30.27,30.27,0,0,0,4.06-2.43,16.55,16.55,0,0,1-4.06-4.68,16.21,16.21,0,0,1-4,4.68"/><path id="Shape-20" data-name="Shape" class="cls-2" d="M213.81,83.24c.52,0,.94,1.22.94,1.65a10.55,10.55,0,0,1-1.31,4.3,3.64,3.64,0,0,1-1.21-2.74c0-1.64,1-3.21,1.55-3.21M214,91.8a16.35,16.35,0,0,0,2.45-6.91c0-1.19-1-3.35-2.64-3.35s-3.32,2.38-3.32,4.91A6.68,6.68,0,0,0,214,91.8"/><path id="Shape-21" data-name="Shape" class="cls-2" d="M250.19,112.88l2.83.77a15.62,15.62,0,0,0,1,4.72,46.33,46.33,0,0,1-6.22-2,21.37,21.37,0,0,0,2.46-3.52m7.15,8a13.66,13.66,0,0,1-2.67-8.51c-3-.78-4.54-1.2-5.34-1.46a21.9,21.9,0,0,1-4.44,6.15,49.16,49.16,0,0,0,12.43,3.87"/><path id="Shape-22" data-name="Shape" class="cls-2" d="M224.85,101.35c2,.63,3.93,1.43,3.93,1.43a3.55,3.55,0,0,0-3.28,1.75l-.82.23v-.25a30.41,30.41,0,0,1,.17-3.16Zm7,5.64s.33,2.81-3.2,5.88a22.52,22.52,0,0,1-1.55-1.84c4.32-1.14,4.78-4,4.78-4Zm-5.3-1a3.38,3.38,0,0,0,.52-.22v-.15a1.63,1.63,0,0,1,1.24-1.54,1.55,1.55,0,0,1,.43,0,1.67,1.67,0,0,1,1.56,1.22,3.46,3.46,0,0,1-2.71,3.76l-3.24.94a18.35,18.35,0,0,0,4.16,5.2c3.22-2.32,4.84-5,4.84-8.08,0-4.3-4.67-6.29-9.87-8.09a29,29,0,0,0-.55,5.5,11.1,11.1,0,0,0,.27,2.43Z"/><path id="Shape-23" data-name="Shape" class="cls-2" d="M256.59,83.24c.64,0,1.56,1.54,1.56,3.21a3.7,3.7,0,0,1-1.22,2.74,10.54,10.54,0,0,1-1.3-4.3c0-.43.42-1.65.93-1.65m3.31,3.21c0-2.53-1.55-4.91-3.31-4.91S254,83.7,254,84.89a16.23,16.23,0,0,0,2.46,6.91,6.68,6.68,0,0,0,3.49-5.35"/><path id="Shape-24" data-name="Shape" class="cls-2" d="M238.54,107s.47,2.9,4.81,4a19.45,19.45,0,0,1-1.56,1.84c-3.53-3.07-3.21-5.88-3.21-5.88m6.94-5.62a30.44,30.44,0,0,1,.19,3.16,1,1,0,0,1,0,.25l-.81-.23a3.6,3.6,0,0,0-3.36-1.77s2-.8,3.94-1.43m-3.62,13.83A18.41,18.41,0,0,0,246,110l-3.25-1a3.45,3.45,0,0,1-2.65-3.87,1.67,1.67,0,0,1,1.56-1.21,1,1,0,0,1,.43,0,1.6,1.6,0,0,1,1.23,1.53v.16a4.4,4.4,0,0,0,.5.21l3.34.94a11,11,0,0,0,.27-2.43,29.64,29.64,0,0,0-.5-5.48c-5.22,1.79-9.89,3.79-9.89,8.09,0,3.07,1.56,5.76,4.84,8.08"/><polygon id="Path-35" data-name="Path" class="cls-1" points="298.97 119.24 299.62 114.05 304.86 113.16 300.02 110.87 300.72 105.7 297.02 109.51 292.24 107.33 292.27 107.34 294.75 111.86 291.05 115.65 296.37 114.65 298.97 119.24"/><path id="Shape-25" data-name="Shape" class="cls-2" d="M290.74,105.19c1.76-2.52.9-6.5.9-6.5h.1a11.51,11.51,0,0,0,3.11,1.71,14.66,14.66,0,0,0,3.84.67,5.63,5.63,0,0,0,4.46-1.89c.28-.32.4-.43.48-.46a1.3,1.3,0,0,1,0,.73,5.21,5.21,0,0,0,0,.79c0,3.54,3.65,6,5.07,6.62a15,15,0,0,0,2.78,1V108a8.42,8.42,0,0,0-4.13,4.13c-1.9,3.79-.39,8.19-1.36,9.94a4.81,4.81,0,0,1-4.35,2.62,6.49,6.49,0,0,1-1.32-.13l-2.66-.69a20.35,20.35,0,0,0-5.3-1h-.09a19.13,19.13,0,0,0-4.2-3.46l-2.35-1.69c-1.27-1-3-3.35-1.55-5.77s4.18-3.32,6.59-6.75m-8.4,5.92a6.49,6.49,0,0,0-.59,2.78,6.83,6.83,0,0,0,2.77,5.42L287,121a16.73,16.73,0,0,1,4,3.38l.35.49h1.06a18.65,18.65,0,0,1,4.8.94l2.75.7a9.16,9.16,0,0,0,1.73.19,7,7,0,0,0,6.22-3.78,8,8,0,0,0,.62-3.55v-1.95a15.21,15.21,0,0,1,.33-3.3,5.65,5.65,0,0,1,.17-.71h0l.26-.66a8.09,8.09,0,0,1,3.81-3.38l.68-.55-.42-2.73-.8-.14a12.72,12.72,0,0,1-2.9-.92c-.82-.39-3.91-2.31-3.91-4.83a2.26,2.26,0,0,1,0-.52,5.89,5.89,0,0,0,0-.84A1.86,1.86,0,0,0,304.44,97a2.32,2.32,0,0,0-1-.26,2.56,2.56,0,0,0-1.83,1.12,3.65,3.65,0,0,1-2.95,1.18,12.08,12.08,0,0,1-3.11-.55,9.23,9.23,0,0,1-3-1.77l-.64-.55-.71.45-1.12.66-.69.39.14.77a12.49,12.49,0,0,1,.33,2.58,5.65,5.65,0,0,1-.47,2.4l-.36.66-.37.52a16.21,16.21,0,0,1-3.23,3.07,9.48,9.48,0,0,0-3.11,3.37"/><path id="Path-36" data-name="Path" class="cls-1" d="M202.45,116.71c1.46,0,1.29-1.61,1.85-2.17s2.18-.33,2.18-1.86-1.65-1.3-2.18-1.82-.28-2.17-1.85-2.17c-1,0-1.46.72-1.46,1.81v4.38c0,1.06.48,1.83,1.46,1.83"/><path id="Path-37" data-name="Path" class="cls-1" d="M153.7,132.14c-.81-.67-1.72-.78-2.35,0-.93,1.13.44,2,.52,2.78s-1.12,1.88,0,2.83,2-.4,2.81-.48,1.87,1.17,2.88,0c.6-.72.35-1.53-.5-2.27Z"/><path id="Shape-26" data-name="Shape" class="cls-2" d="M235.93,364a121.33,121.33,0,0,1-108.51-64.93,118.5,118.5,0,0,1,9.62-125,7.68,7.68,0,0,0,2.42-1.46,7.77,7.77,0,0,0,2.3-4.6,122,122,0,0,1,186.88,0,7.11,7.11,0,0,0,4.74,6.14,118.53,118.53,0,0,1,9.87,124.28A121.32,121.32,0,0,1,235.93,364ZM144.22,160.7a48.26,48.26,0,0,0-3.42,3.87,5.35,5.35,0,0,0-.36-.56,2.77,2.77,0,0,0-2-.95c-.48,0,.28-.35,1-.64s4.79-1.72,4.79-1.72Zm-15.14,5.42c0-2.64,1.55-5,4.66-6.88a15.8,15.8,0,0,1,3.11-1.54l4.67-2,2.09-1h-1.16c-7.45,0-10.88-1.84-10.88-5.79a1.67,1.67,0,0,1,3.31,0,1.54,1.54,0,0,0,.43,1.17c1.37,1.35,5.71,1.35,7.14,1.35a21.89,21.89,0,0,0,10.72-3.36,13.88,13.88,0,0,1-7.43-3.18A12.67,12.67,0,0,1,143.58,127a16.92,16.92,0,0,1,12-6,1.65,1.65,0,0,1,0,3.28,13.49,13.49,0,0,0-9.49,4.83,9.3,9.3,0,0,0-1.92,6.64,9.66,9.66,0,0,0,3.67,6.6,10.59,10.59,0,0,0,6.31,2.43,9.36,9.36,0,0,0,7.2-3.84l.42-.34c2.49-2.67,5.78-6.69,6.62-7.78s3.47.76,2.33,2.3a105.59,105.59,0,0,1-10.75,12c-.61.59-.61.59-.69.62A65.43,65.43,0,0,1,149,155.64l-6,3.07h0l-4.86,2.12a15.45,15.45,0,0,0-2.6,1.23c-2.24,1.38-3.23,2.78-3.11,4.43a2.48,2.48,0,0,0,1.87,2.33c1.55,0,1.8-1.32,1.8-2.12a1.67,1.67,0,0,1,1.65-1.63,1.64,1.64,0,0,1,1.65,1.63,5,5,0,0,1-1.42,3.86,5.09,5.09,0,0,1-3.85,1.53c-2.41,0-5.09-2.55-5.09-6Zm11.86-45.68v-2.93h1.31v-2.75h-3.81v2.75h1.3v2.93h-5.08v-2.93H136v-2.75h-1.29v-4.19h16.55c2.22,1.53,2.52,2.48,2.55,4.27h-9v2.74h1.29v2.94Zm16.1-.66a3.48,3.48,0,0,0-1.55-.41,18.31,18.31,0,0,0-7.21,1.95V117h6.6c.28.35,1.25,1.53,2.15,2.81Zm2.85,13a4.42,4.42,0,0,1,1.76,3.33,4.88,4.88,0,0,1-1.15,3.6,5,5,0,0,1-3.39,1.72,12.35,12.35,0,0,1-2.09-.36,5.64,5.64,0,0,1-2.41.69,4.93,4.93,0,0,1-4.94-4.76,7.49,7.49,0,0,1,.33-1.76,6.38,6.38,0,0,1-.7-2,4.84,4.84,0,0,1,1.14-3.58,5,5,0,0,1,3.37-1.73h.42a5,5,0,0,1,3.2,1.17,1.72,1.72,0,0,1,.32.34l4.85-5.79a4.23,4.23,0,0,1,2.3,1.21,4.94,4.94,0,0,1,.92,2.47l-4.32,5.16a1.44,1.44,0,0,1,.4.28Zm2.67,0,2.51-3c.88,1,1.25,1.54,1.83,2.14-1,1.23-2.07,2.58-3.26,4h0a7.47,7.47,0,0,0-1.08-3.21Zm-5.27-31.3.59-.4c1.19-.82,3-2,2.76-3.3a5,5,0,0,1,2.79-5.83,5.15,5.15,0,0,1,6.31,1.63,2,2,0,0,0,1.56.54c1.93,0,4.88-1.38,8.53-1.38,2.27,0,3.86.66,4.37,2.07,2.94,8.4,6.05,27.51,6.05,27.56a33.14,33.14,0,0,0-11.07,2.85,40.27,40.27,0,0,0-9.33,6.56S157,117,152.4,109.44c-1.26-2,.63-4.86,5-8Zm39-19.38,3.26,2.74-.84,1,2.18,1.72.83-1,2.28,1.9-3.25,3.84-2.3-1.89.86-1-2.13-1.75-2.48,2.95,2.13,1.75.83-1L200,93.26l-3.26,3.85-2.29-1.9.84-1-2.11-1.75-5.63,6.62a.62.62,0,0,0-.14-.19,4.31,4.31,0,0,1-1.79-4.19Zm9.42,7.67a11.27,11.27,0,0,0,4.1,5.15A38.88,38.88,0,0,1,207,98.49a12.11,12.11,0,0,0-3.68-.64,18.73,18.73,0,0,0-4.83.64Zm-8.33,30.61c-1.94,0-3.69,0-5.22-.12-.13-.86-.19-1.43-.41-2.73h3.89a6.82,6.82,0,0,0,1.72,2.84Zm-8.35-15.68-.73-3.07,4.26-5,3.31,2.75c-3.82,1.61-6.48,4.18-6.84,5.34Zm.33,5.72v-.19h8a2,2,0,0,1,0-.49,5,5,0,0,1,9.62-1.66,4.81,4.81,0,0,1,0,9.08,4.88,4.88,0,0,1-4.66,3.25,5,5,0,0,1-5-4.89,2.09,2.09,0,0,1,0-.5h-6.55l-.09-.12a1.39,1.39,0,0,0-.23-.31,3.52,3.52,0,0,1-1.15-4.19ZM184.71,130v-1c0-.7.13-1.81.75-2.15a45.71,45.71,0,0,1,5.49,0c2,0,4.58.16,7.4.16A125,125,0,0,0,183,132.85a3.35,3.35,0,0,0,1.77-2.92Zm-2.08,3a125.7,125.7,0,0,0-14.5,7.94c1.91-2.13,3.46-4.14,4.71-5.8a39.8,39.8,0,0,1,3.51-4.16c.87-.34,2.24.84,2.52,1.16a3.4,3.4,0,0,0,3.76.86Zm-.15-3.18a1.13,1.13,0,0,1-.64,1.19,1.15,1.15,0,0,1-1.32-.29,6.6,6.6,0,0,0-3.33-1.94,19.27,19.27,0,0,1,6-2.78,6.49,6.49,0,0,0-.68,3.82Zm31.33-51.51c3.39,0,5.94,3.49,5.94,6.61A19.11,19.11,0,0,1,217,93.29c1.35.55,2.75,1.07,4.2,1.53a29.3,29.3,0,0,1,3.43-6.88l.36-.52.46.46c.53.54,1.06,1.06,1.56,1.54l.34.3-.23.37a27.44,27.44,0,0,0-2.88,5.79c4.22,1.43,8.71,3.26,10.88,6.47,2.34-3.4,6.7-4.95,10.88-6.45a28.58,28.58,0,0,0-2.84-5.73l0-.42.33-.29A15,15,0,0,0,245,87.93l.45-.46.36.53a28.49,28.49,0,0,1,3.53,6.82c1.55-.5,3.31-1.21,4.18-1.53a19.2,19.2,0,0,1-2.78-8.36c0-3.07,2.55-6.6,6-6.6s6.61,3.73,6.61,8.17c0,3.36-1.56,5.94-5.06,8.06a61.84,61.84,0,0,0,4.67,5.91l3.29-.93-1.86,1.53a6.83,6.83,0,0,0-2.8,3.51h-.34a2.5,2.5,0,0,0-2.21,2.68,2.68,2.68,0,0,0,.11.49v.2l-.09.19a9.83,9.83,0,0,0-1.05,4.61c0,.6.14,5.92,4.79,8.21l.25.11.19,1.28,1.1.93.62,1.26.67.63-1.55-.12c-13.73-1.15-20.48-4.79-22-5.71-1.41,1-5.61,3.8-7,3.8s-5.62-2.85-7-3.8c-1.88,1-12.15,6.14-28,6.14-2.59,0-5.7,0-8-.12-.84,0-1-3.17,0-3.15s6.45,0,9.14,0H202c7.61,0,10.31-4.86,10.31-9.4a9.74,9.74,0,0,0-9-9.92,13.47,13.47,0,0,0-9.86,4.07,1.55,1.55,0,0,1-1.25.58,1.57,1.57,0,0,1-1.06-.38,1.54,1.54,0,0,1-.58-1.09,1.51,1.51,0,0,1,.38-1.2,16.59,16.59,0,0,1,12.43-5.26,12,12,0,0,1,4.26.88,58.25,58.25,0,0,0,4.66-5.87,9.65,9.65,0,0,1-5-8.09c0-4.44,3-8.17,6.61-8.17Zm9.08,9.22a30.9,30.9,0,0,0-2.72,5.19l-.79-.29a18.57,18.57,0,0,0,2.07-6.68c.46.61.94,1.21,1.44,1.78Zm19.67,4.61a18.83,18.83,0,0,1,1.38,2.68,24.52,24.52,0,0,0-8.75,5,24.25,24.25,0,0,0-8.71-4.91,25.07,25.07,0,0,1,1.4-2.73,13.21,13.21,0,0,0,7.45,2.59,13.06,13.06,0,0,0,7.19-2.62Zm8.48.21-.79.29a31,31,0,0,0-2.67-5.11c.48-.57,1-1.15,1.41-1.75a19.06,19.06,0,0,0,2,6.57Zm-15.71-.71c-4.88,0-11.35-6.37-14.74-13.54h4.31c2.65,5.16,7,9.63,10.43,9.63s7.77-4.47,10.43-9.63h4.3c-3.4,7.17-9.85,13.54-14.73,13.54Zm-21.52-19h42.32v3.24H213.81Zm15-13.72a10.71,10.71,0,0,1,4.66,1V47.81h-5.94V44.08h6v-6h4.11v6h6v3.73h-6V59.68a11,11,0,0,1,4.06-.75c6.22,0,10.55,4.61,10.55,11.35v.15h-3.94c-.16-3.73-2.43-7.6-7.23-7.6a7.24,7.24,0,0,0-5.82,3.36,6.76,6.76,0,0,0-5.78-3.36c-5.16,0-7.1,3.86-7.23,7.6h-4v-.15c0-6.8,4.23-11.35,10.54-11.35ZM268,91.18a9.94,9.94,0,0,0,2.44,3.27v.11a34.5,34.5,0,0,1-3.67,3.37,13.74,13.74,0,0,0-3.48.61c-.71-.85-1.75-2.1-2.86-3.59a11.41,11.41,0,0,0,4.4-5.56,6.44,6.44,0,0,0,3.25,1.75Zm-6,27.06a8,8,0,0,1-2.27-5.66h0a9.72,9.72,0,0,1,.32-2.35,3.86,3.86,0,0,0,2,.63l.82.81a15.22,15.22,0,0,1-1.55,2.41l-.41,1.86a12.49,12.49,0,0,1,1.11,2.3Zm17.45,8.56c1.56,0,3.69-.14,4.84,0,.45.31.87.63,1.24.94a10.77,10.77,0,0,1,.11,2.27,3.49,3.49,0,0,0,1.68,2.84A125.2,125.2,0,0,0,272.07,127c2.8,0,5.34-.08,7.37-.15Zm-10.3-6.47-.67-.83c-.11-1.07-.24-2-.41-3.07a2.69,2.69,0,0,0,0-1l1.37-1.67v1c.17.18.86,1,.86,1l.63.12a2.7,2.7,0,0,1,.67.36L274,118.4l2,.34.11.09a11.71,11.71,0,0,0,.83,1.4c-2.31,0-5,.1-8,0Zm1,4.2a2.53,2.53,0,0,0,.21-1,2.55,2.55,0,0,0-.15-.86V122s6.92-.1,8.78-.08,2.47,3.07.67,3.07l-9.79.22ZM304.31,133a6.17,6.17,0,0,0,2.1,0c.17.3.24.42.36.6a3.67,3.67,0,0,0,.93,2.83l1.88.69c-.25.38-.53.75-.82,1.11-1.66-1.88-3.11-3.67-4.45-5.3Zm-2.19,7.81a126.61,126.61,0,0,0-14.36-7.88,4.29,4.29,0,0,0,3.62-.89,7,7,0,0,1,1.56-1.08c.48.11,1,.23,1.55.37.79.84,2.1,2.49,3.11,3.7,1.3,1.64,2.87,3.64,4.66,5.78Zm-3.34-7c-1.48-1.88,2-2.71,2.61-2,1.77,2.26,3.86,4.9,6.22,7.48l.76.86h-1.16a5,5,0,0,0-1.93.61l-.38.22-.4-.26c-2.18-2.47-4.15-5-5.66-6.91ZM267.05,85.9l1.73.31-.45-1.32,1.37.67.15-1.67,1.06,1,.4-1.53,1,2.45a4.9,4.9,0,0,1,1.9.86c.36,0,1.79.11,2,.86.37,1.26-2.4,1.77-2.38,2.08s.73.7,1.37,1.16a16,16,0,0,1,3.29,3.28c.31-.36,1.18-1.42,1.46-1.66a23.9,23.9,0,0,1,2.15-2.12c1-.37,2.08,1.07,2.81,1.53a9.88,9.88,0,0,1,2.33,2.23l4.88-2.9a7.36,7.36,0,0,0,6.42,4,2.38,2.38,0,0,0,1.67-.49,5,5,0,0,1,6.09-1.57,4.86,4.86,0,0,1,2.7,5.62c-.18,1.18,2,2.87,2.88,3.3a8.13,8.13,0,0,0,3.65.89l1.56-.24L318.3,110c-5.83,3.07-6.11,3.07-6.11,9.07a13.46,13.46,0,0,1-.91,6.15,9.61,9.61,0,0,1-2.47,3.16,3.9,3.9,0,0,1-.36.25,5.13,5.13,0,0,1-.13.66l1.56,2.73a21.76,21.76,0,0,0,3.43-3.07,24.63,24.63,0,0,0-.07-3.84s.74-1.34.74-5.9c0-4.16.27-5,1.76-6a28,28,0,0,1,3.51-2.16c-.32,1.53-2.62,2.39-2.62,3.19a2,2,0,0,0,.69,1.54l.44-.39a2,2,0,0,1,1.55-.39,5.23,5.23,0,0,1,2.52-1.36,6.79,6.79,0,0,1,2.51.6l.4-.53A4.49,4.49,0,0,1,324,112c0-.69-.6-1.31-1.83-.89l.37-.82a1.67,1.67,0,0,1,1.7-.73,2.42,2.42,0,0,1,1.55,0l1.41-1.68.25,1.42h1l-.17,1.18,1.07.15-.24.91,1,.58-2,.65a4,4,0,0,1-1.71,3.51,2,2,0,0,1,.19.74,2.66,2.66,0,0,1-2.08,2.52l-.24,1.78a3.69,3.69,0,0,0,1.43.56c3.92-.17,3.56-6.47,6.08-6.42s2.61,2.3,2.78,4c.27,3.07,1.26,5.14-.07,10.75a31.26,31.26,0,0,1-3.5,8.82,15,15,0,0,0,.5-2.57v-1.38a13.4,13.4,0,0,0-3.11-9,4,4,0,0,0-3-1.53,3.11,3.11,0,0,0-2.36,1,3.25,3.25,0,0,0-.83,2.15,4.15,4.15,0,0,0,1.12,2.71,7.33,7.33,0,0,1,1.56,4.6v.74a7.78,7.78,0,0,1-2.77,5.16v-.4a25.63,25.63,0,0,1,1-3.07,11.21,11.21,0,0,0,.25-1.92,13.55,13.55,0,0,1,.79-2.78c-.79.45-2.45,2.38-3.6,2.43h-.84v2.55c0,.38-1,5-1,5h-.11l-1.55.31h0s-1.1-.92-1.26-1l.83-4.32-1.33,2.89s-.4-.69-.8-1.29a.83.83,0,0,0-.78-.32l-2.32,4a7.75,7.75,0,0,1,1.45,2.6l-.52.2c-.1-.2-.88-1.45-1.78-1.4-.55,0-1.56,1.07-1.67,1.31l-.48-.25a5.4,5.4,0,0,1,.67-1.44,2.59,2.59,0,0,0-1-.14,6.27,6.27,0,0,0-1.93.69l-.17-.48a4.44,4.44,0,0,1,2-1.1.81.81,0,0,0-.54-.36h-1.14v-.41a3.27,3.27,0,0,1,1.12-.4c1.11,0,1.56.66,2.74.64l2.25-4.33c-.07-1.75.8-1.9.73-3.18,0-.49.11-.9,0-.9a30.09,30.09,0,0,1-3.21.87c-.61,0-.41-1.53-.49-1.92L308,130.7a4.67,4.67,0,0,1-2.88.26l-.23-.34h0a10.93,10.93,0,0,1-5,0h0l-3.84-1a24.27,24.27,0,0,0-2.8-.67,14.09,14.09,0,0,0-3.11,1.88,1.29,1.29,0,0,1-1.3.26,1.16,1.16,0,0,1-.64-1.18,6.39,6.39,0,0,0-.47-3.4,22.2,22.2,0,0,0-2.7-1.9l-3.2-2.26-.22-.14a10.66,10.66,0,0,1-3.48-4.79h-.24l-.63-.72-2.09-.31a10.26,10.26,0,0,0-3.52-2.59l-.55-.65a4,4,0,0,0-.11-1.78,2,2,0,0,0-.93-1.06c-.31.43-1.23,1.64-1.94,2.73a13.5,13.5,0,0,1-2.51,2.61,32.62,32.62,0,0,1,.67,4.61,9.26,9.26,0,0,1,.8,1,19,19,0,0,1,1.55,2,.49.49,0,0,1,0,.44.55.55,0,0,1-.33.3,2.25,2.25,0,0,1-1.71-.49l-.48-.31-.28-.89-1-.89a20.43,20.43,0,0,0-.81-4.09,12.38,12.38,0,0,0-.74-1.72l.14-.55c.68-.89,2.19-3.07,1.8-4.07a4.25,4.25,0,0,0-1-1.11,4.69,4.69,0,0,1-1.14-1.33,1.71,1.71,0,0,1-1.33.06,1.73,1.73,0,0,1-1-.91,1.57,1.57,0,0,1,0-1c.22-.6.86-.76.76,0a1.34,1.34,0,0,0,0,.4c.16.38.8.23,1.2.09a5.11,5.11,0,0,1,.67-2.81A8.35,8.35,0,0,1,266,102a29.11,29.11,0,0,1,3.64-3.41,12.3,12.3,0,0,0,3.42-3.69l-.44-1.56A8,8,0,0,1,270,89.88a4.85,4.85,0,0,1-.16-.63c-.85-.09-3.26-.65-3.59-1.74l2.29-.29Zm62.66,78.73c-1.69-2-2.34-2.68-4.16-4.52l5.28,2.26c1,.37,1.36.77,1.23.78a3,3,0,0,0-2.35,1.54Zm-.12-28.45a12.76,12.76,0,0,1-4.84,8.82,13.82,13.82,0,0,1-7.43,3.18,22,22,0,0,0,10.73,3.36c6.7,0,7.57-1.35,7.57-2.52a1.67,1.67,0,0,1,1.65-1.62,1.64,1.64,0,0,1,1.65,1.56c0,5.79-7.61,5.79-10.89,5.79h-1.24l2,1,4.77,2.07a18.7,18.7,0,0,1,3,1.53c3.11,1.91,4.67,4.26,4.67,7a5.74,5.74,0,0,1-5.33,5.9,5,5,0,0,1-3.71-1.6,4.88,4.88,0,0,1-1.3-3.79,1.53,1.53,0,0,1,.45-1.18,1.57,1.57,0,0,1,1.2-.45,1.64,1.64,0,0,1,1.65,1.63c0,1.69,1,2.13,1.55,2.13a2.52,2.52,0,0,0,2.15-2.64c0-1.53-1-2.87-3.11-4.19a14.53,14.53,0,0,0-2.58-1.23l-4.92-2.13-5.76-2.95h-.13a67.29,67.29,0,0,1-9.45-7.08l-1.26-1,.31-.25s2.2.76,2.83,0,.17-2.7.17-2.7l.81.14h1.12a11.82,11.82,0,0,0,6.65-2.35,9.57,9.57,0,0,0,3.66-6.61q0-.44,0-.87a8.93,8.93,0,0,0-1.95-5.76,2.33,2.33,0,0,1-.66-1.54,1.39,1.39,0,0,1,.35-1,1.46,1.46,0,0,1,1.09-.49,2.43,2.43,0,0,1,1.74,1,11.83,11.83,0,0,1,2.72,7.82,8.42,8.42,0,0,1,0,1.23Zm7.72,38.41a8.4,8.4,0,0,0,6.52-8.14c0-2.48-1-6.14-5.89-9.07a15.52,15.52,0,0,0-1.93-1A7.28,7.28,0,0,0,341.4,149a4.1,4.1,0,0,0-2.57-3.74,4.19,4.19,0,0,0-4.48.87,4.07,4.07,0,0,0-1.17,2.44,15.57,15.57,0,0,1-5.13.52,13.9,13.9,0,0,1-3.95-.6,27.83,27.83,0,0,0,4-3.07c.87-.83,3.25-1.53,4.29-3.22a35.15,35.15,0,0,0,4.82-11.37,24.57,24.57,0,0,0,.76-5.85,22.54,22.54,0,0,0-.39-4l-.23-1.82c-.12-1.45-.48-5.26-3.85-6.4,0,0-5.88-8.71-6.05-9s-.48-.37-.7-.13l-2.52,2.83a6.71,6.71,0,0,0-2.49.54,2.71,2.71,0,0,0-.57-.6,3,3,0,0,0-.59-.42l-1-6.65-.75.13-3.59.61a8.11,8.11,0,0,1-2-.66,4.77,4.77,0,0,1-1.11-.89,8.42,8.42,0,0,0-5-8.18,7.94,7.94,0,0,0-8.62,1.91,12.27,12.27,0,0,1-1.46-.32,3.65,3.65,0,0,1-1.55-.94l-2.29-3.88-5.42,3.21c-3.25-2.63-4.67-3.5-6.75-2.72a5.51,5.51,0,0,0-2.13,1.66,3.14,3.14,0,0,0,.36-1.37,3.77,3.77,0,0,0-1.11-2.74A3.91,3.91,0,0,0,275.34,84a8,8,0,0,0-.81-.46L272.65,79a.6.6,0,0,0-.39-.27.65.65,0,0,0-.47.12L265.41,84a9.52,9.52,0,0,0-7-7.47V70.39h-3.11v-.16c0-8.32-5.7-14.36-13.59-14.36a10.38,10.38,0,0,0-1.25.13V50.58h6V41.36h-6v-6h-9.75v6h-6v9.22h6v5.54a14.49,14.49,0,0,0-1.86-.2c-8,0-13.59,5.9-13.59,14.52h-3.64v6.14a9.88,9.88,0,0,0-6.77,8.68l-2.86-2.29-5.47-4.53-.58-.49L184.68,91.09a8.9,8.9,0,0,0-5.11-1.3,45,45,0,0,0-8.08,1.35,7.83,7.83,0,0,0-9.33-1.88,7.48,7.48,0,0,0-4.66,7.14,8.62,8.62,0,0,0,.09,1.14,13.07,13.07,0,0,1-1.39,1.06l-.65.45c-4,2.87-6.22,5.68-6.5,8.46H131.66v15.9h12.06A14.62,14.62,0,0,0,138.31,135a15.88,15.88,0,0,0,8.12,13.41,14,14,0,0,1-4.06.64,15.72,15.72,0,0,1-5.11-.52A4.12,4.12,0,0,0,129,149a7.6,7.6,0,0,0,5.35,7.19c-.59.26-7.77,3.36-7.77,10a8.26,8.26,0,0,0,6.54,8.19A121.51,121.51,0,0,0,136,318.08c32.22,42.29,88.24,59.4,139,42.45s84.78-64.11,84.43-117a120.72,120.72,0,0,0-22.15-69.11Z"/><path id="Shape-27" data-name="Shape" class="cls-2" d="M237,332.08V245.52h87.27c-.71,47.38-39.32,85.68-87.27,86.56Zm0-175.53c47.74.88,86.26,38.84,87.27,86H237Zm-3,86H146.61c1-47.21,39.58-85.2,87.36-86Zm0,89.51c-48-.83-86.67-39.14-87.39-86.56H234Zm93.27-87.76a90.75,90.75,0,0,0-56.69-83.86,92.66,92.66,0,0,0-100.11,19.67A90,90,0,0,0,150.53,279a91.86,91.86,0,0,0,84.87,56c50.7-.05,91.79-40.64,91.84-90.73Z"/><path id="Path-38" data-name="Path" class="cls-1" d="M162.08,310.12c-.33-.39-1.1-1.37-2-2.35-.17-.2-.41-.28-.55-.16s0,.34,0,.5c1.06,1.19,1.06,1.44-1.23,3.41L151,317.9c-.19.17-.3.22-.83-.38-1.3-1.53-1-3.16.72-4.61a2.85,2.85,0,0,1,2-.89,2.83,2.83,0,0,1,2,.77c.33.38.53.4.66.28s-.14-.6-.27-.74a4.71,4.71,0,0,0-6.93-.6c-1.85,1.54-1.21,4,.47,5.9l2,2.12c.35.41,1.13,1.36,1.83,2.15.25.31.42.34.54.23s.13-.29,0-.51c-.8-.92-.88-1.3.16-2.21l7.21-6.14c1.9-1.63,2.26-1.62,3-.83.15.17.31.27.45.15s.14-.32-.11-.57c-.5-.6-1.39-1.53-1.7-1.83"/><path id="Shape-28" data-name="Shape" class="cls-2" d="M139,302.73c-1.66-2.69-.67-6.22,3.11-8.45,4.82-2.88,7-.53,7.69.6,2,3.17.39,6.71-3.11,8.79-4.11,2.49-6.52.93-7.67-.94M151.14,295a8,8,0,0,0-11.3-2.84c-3.89,2.34-4.67,6.47-2.13,10.75a7.73,7.73,0,0,0,4.81,3.92,7.87,7.87,0,0,0,6.18-.84,7.54,7.54,0,0,0,3.64-4.91,7.46,7.46,0,0,0-1.2-6"/><path id="Path-39" data-name="Path" class="cls-1" d="M144.31,285c.11.26.22.37.38.3s.23-.27.09-.58c-.36-1-.72-1.83-.78-2s-.36-1.12-.79-2.34c-.11-.32-.28-.47-.48-.39s-.16.18,0,.46c.42,1.13.29,1.7-1.56,2.39l-7.57,2.78L140,272.31a1.08,1.08,0,0,0,.17-.83c-.07-.2-.31-.3-.76-.13l-11.78,4c-1.18.4-1.55.35-2-.58-.11-.29-.23-.43-.39-.37s-.18.32-.09.61c.34.91.67,1.54.75,1.8s.38,1.31.73,2.26c.17.37.31.57.49.49s.17-.25.1-.48c-.45-1.24-.27-1.53,1.15-2.12l8.11-3.07-6.62,13.18a1.63,1.63,0,0,0-.23,1.14c.07.21.38.21.8,0l11.43-3.89c1.88-.64,2-.34,2.39.63"/><path id="Path-40" data-name="Path" class="cls-1" d="M126.65,269.88c.21,0,.42-.11.38-.35a.34.34,0,0,0-.38-.27c-.71,0-1.22-.39-1.55-1.92l-.56-2.74,9.75-1.66c3.11-.53,3.34-.4,3.54.69,0,.23.13.4.33.34s.26-.19.2-.51c-.14-.78-.4-2-.48-2.44s-.25-1.78-.48-3.07c0-.28-.19-.48-.36-.42a.36.36,0,0,0-.2.43c.28,1.54.12,1.78-3.11,2.34l-9.55,1.64-.35-2.35c-.28-1.74,0-2.23.83-2.43.36-.09.44-.2.41-.38s-.17-.22-.45-.19l-2.26.31c-.4,0-.51.15-.48.35a7.61,7.61,0,0,1,.53,1.82l1.56,8.67a6.93,6.93,0,0,1,0,1.82c0,.17.15.21.49.26a18,18,0,0,0,2.32,0"/><path id="Path-41" data-name="Path" class="cls-1" d="M122.22,252.68c0-1.09.25-1.25,1-1.32s1.2-.1,4.19-.26l3.45-.17a40.26,40.26,0,0,1,4.26-.1c.87,0,1,.31,1.05,1.13,0,.23.08.41.25.41s.33-.18.3-.52c0-.77-.17-2-.21-2.47s0-1.79,0-3.08c0-.33-.17-.49-.34-.47s-.26.21-.25.43c0,1.09,0,1.64-.84,1.73s-2.39.2-4.3.29l-3.45.17c-3,.14-3.53.19-4.15.17-.87,0-1.09-.29-1.14-1.16,0-.2-.08-.42-.34-.42s-.22.2-.22.54c0,.75.16,1.9.19,2.39s0,1.8,0,2.57c0,.38.12.57.28.55s.28-.24.28-.43"/><path id="Path-42" data-name="Path" class="cls-1" d="M121.63,241.19c.16,0,.25-.15.27-.43.11-1.38.36-1.54,2.36-1.41l8.81.61c2.74.18,2.83.48,2.77,1.46,0,.25,0,.4.23.41s.3-.13.33-.47c0-.75.09-2,.13-2.51s.17-1.73.24-3c0-.37-.09-.52-.24-.54s-.28.17-.28.4c-.11,1.46-.16,1.77-3,1.54l-3.11-.23c-.08,0-.1,0-.1-.16s.16-2.28.25-2.78a1.1,1.1,0,0,1,1.31-.92c.18,0,.39-.09.39-.24s-.22-.31-.45-.33a18.25,18.25,0,0,1-2.65-.41c-.14,0-.28,0-.28.2s.56.32.5,1.23l-.2,3.19s0,.14-.09.12l-5.71-.38a.14.14,0,0,1-.11,0,.16.16,0,0,1,0-.11l.24-3a1.16,1.16,0,0,1,.6-1.16,1.37,1.37,0,0,1,.72-.08c.29,0,.43,0,.45-.26s-.14-.26-.34-.31-1.4-.17-1.56-.21l-.74-.17a.29.29,0,0,0-.13,0c-.17,0-.31,0-.32.21a.41.41,0,0,0,0,.22h0a3,3,0,0,1,0,.84c0,.45-.28,4.42-.35,5.18s-.17,1.79-.24,2.81c0,.38,0,.58.24.6"/><path id="Path-43" data-name="Path" class="cls-1" d="M123.41,226.09c.21-1.07.54-1.15,1.29-1.06s1.18.2,4.12.72l3.38.65c1.88.35,3.41.63,4.17.87s.92.56.78,1.36c0,.23,0,.41.14.44s.34-.09.4-.41c.13-.79.31-2,.39-2.46s.42-1.74.67-3c0-.34,0-.52-.22-.55s-.31.15-.34.35c-.22,1.08-.45,1.54-1.23,1.54a34.62,34.62,0,0,1-4.24-.73l-3.42-.64c-2.93-.55-3.47-.63-4.06-.78-.84-.25-1-.54-.84-1.42,0-.18,0-.41-.23-.47s-.27.13-.33.47c-.14.74-.31,1.89-.4,2.38s-.41,1.75-.55,2.51c0,.37,0,.57.16.6s.32-.17.36-.36"/><path id="Path-44" data-name="Path" class="cls-1" d="M132.06,216.63c5.29,1.86,9.08-1.53,10.7-6.14a12.91,12.91,0,0,0,.78-3.52.9.9,0,0,0-.44-.75,15.28,15.28,0,0,0-2.36-1.26c-.2,0-.38,0-.44.12s0,.26.3.49c1.4,1,1.72,2.05.82,4.69-1.13,3.25-4.2,5-8.58,3.53-3.45-1.31-5.28-3.61-4.06-7.14.75-2.17,2.37-4.1,4.36-3.44a.48.48,0,0,0,.6-.13c.08-.12-.09-.33-.4-.46l-2-.76c-.6-.25-.84-.39-1-.45s-.3,0-.42.28a32.54,32.54,0,0,0-2.13,4.36c-1.56,4.39-.28,9.06,4.27,10.6"/><path id="Path-45" data-name="Path" class="cls-1" d="M133,196c.49-1,.84-.93,1.55-.66s1.07.53,3.75,1.83l3.11,1.54a41.71,41.71,0,0,1,3.73,2c.74.46.73.79.35,1.54-.11.2-.14.4,0,.48s.36,0,.52-.31c.34-.71.87-1.84,1.07-2.24s.89-1.54,1.48-2.69c.15-.29.1-.51,0-.59s-.33,0-.42.27c-.52,1-.87,1.39-1.56,1.09s-2.17-1-3.88-1.86l-3.11-1.54c-2.66-1.33-3.11-1.53-3.69-1.89a1,1,0,0,1-.4-1.53c.08-.16.14-.39-.09-.51s-.3,0-.46.35c-.35.68-.82,1.74-1,2.17s-.87,1.53-1.22,2.26c-.18.35-.17.56,0,.63a.35.35,0,0,0,.46-.25"/><path id="Shape-29" data-name="Shape" class="cls-2" d="M150.41,184.29,148,187.66l-3.4-4.91h.08ZM148.85,192c.83,1.22.87,1.79.17,2.79-.09.12-.15.29,0,.4s.31,0,.52-.23c.59-.83,1.16-1.74,1.3-1.94.34-.47.89-1.16,1.25-1.67.15-.21.2-.37,0-.51s-.28,0-.56.34-.63.52-.86.37a3.92,3.92,0,0,1-.81-.91l-1.18-1.79a.18.18,0,0,1,0-.22l2.77-3.88s.11-.11.17-.11l3.51.83c.17,0-.31.93-.34,1s-.14.33,0,.43.4,0,.7-.45.85-1.33,1.2-1.81.85-1.09,1.13-1.54c.5-.69.48-.92.36-1s-.3,0-.44.13c-.54.79-1.74.62-2.89.37-3.18-.63-11.58-2.58-12.73-2.79-.57-.11-.79-.1-.92,0s0,.46.35,1Z"/><path id="Path-46" data-name="Path" class="cls-1" d="M156.67,163.15c1-.86,1.34-.83,2.66.72l3.76,4.43c2.95,3.48,5.88,3.76,9.09,1.09,3.49-2.89,2.86-6.15,0-9.52L169,156c-1.28-1.54-1.46-1.75-.52-2.54.25-.21.28-.37.16-.52s-.28-.09-.58.14c-.57.49-1.15,1-1.67,1.53s-1.05.76-1.82,1.4c-.3.23-.35.42-.24.54s.31.11.53,0c1.14-.94,1.37-.69,2.64.8l3.46,4.11c2.48,3.08,3.1,5,.8,6.82-2.51,2.11-4.57.66-6.57-1.7l-3.69-4.33c-1.25-1.54-1.29-1.85-.46-2.52.22-.19.25-.34.14-.49s-.33-.13-.61.12c-.54.45-1.24,1.14-1.83,1.54s-1.46,1.12-2.27,1.79c-.3.23-.34.42-.24.56s.28.12.5,0"/><path id="Path-47" data-name="Path" class="cls-1" d="M180.75,159.36c.93,1.72.65,1.93-.25,2.43-.26.13-.33.27-.26.41s.31.18.6,0c.9-.51,1.71-1,1.85-1.07s1.08-.53,2.21-1.14c.3-.17.44-.35.33-.54s-.22-.12-.47,0c-1.06.59-1.66.55-2.63-1.09l-4-6.91,14.35,4.16a1.19,1.19,0,0,0,.87,0c.2-.11.22-.37,0-.77L187.5,144c-.58-1.09-.61-1.54.28-2,.28-.15.37-.29.29-.43s-.34-.13-.62,0a15.88,15.88,0,0,0-1.68,1c-.12.11-1.24.57-2.14,1.08-.33.21-.52.38-.42.55s.29.14.49,0c1.18-.65,1.56-.52,2.3.77l4.39,7.43-14.13-4.31a2,2,0,0,0-1.17,0c-.22.12-.17.41,0,.79Z"/><path id="Path-48" data-name="Path" class="cls-1" d="M193.85,139.93c1.05-.38,1.28-.14,1.56.54s.43,1.09,1.55,3.85l1.18,3.21a39.45,39.45,0,0,1,1.36,4c.17.78,0,1.06-.78,1.33a.32.32,0,0,0-.33.37c.05.19.27.23.59.12l2.34-.93c.49-.17,1.72-.52,2.93-1,.31-.11.42-.29.38-.46s-.3-.17-.5-.11c-1.06.39-1.56.45-1.93-.28s-.9-2.19-1.55-4l-1.18-3.21c-1-2.77-1.23-3.27-1.4-3.86-.22-.84,0-1.12.79-1.43a.31.31,0,0,0,.29-.43c-.09-.24-.24-.17-.57,0-.72.26-1.8.71-2.27.86s-1.73.57-2.46.83c-.37.14-.51.31-.45.45s.33.18.5.14"/><path id="Path-49" data-name="Path" class="cls-1" d="M203.18,136.38a2.11,2.11,0,0,1,2.47,1l7.77,10.94c.35.49.63.72.84.67s.39-.35.56-1.13l2.68-12.57c.34-1.53.59-2.07,1.55-2.27.28,0,.39-.15.36-.34s-.25-.24-.59-.17-1.06.31-1.79.46-1.1.16-2.08.36c-.44.09-.64.23-.56.44s.23.2.46.14c.63-.14,1,0,1,.15a2.12,2.12,0,0,1,0,.71L214.12,145l-5.22-7.78a5.88,5.88,0,0,1-.75-1.37c-.09-.43.44-.51.77-.61s.37-.16.32-.34-.31-.22-.6-.16c-1,.2-1.9.48-2.38.59s-1.8.29-2.85.52c-.35,0-.6.23-.54.4a.26.26,0,0,0,.37.18"/><path id="Path-50" data-name="Path" class="cls-1" d="M223.48,132.65c1.11-.08,1.56.17,1.56,1s.09,1.14.28,4.09l.21,3.44c0,1,.11,2,.16,2.76.14,2.2,0,2.42-1.1,2.49-.25,0-.41.09-.39.28s.15.27.49.26c.8,0,2.06-.18,2.51-.22,2.11-.12,4.07-.13,6-.26a.67.67,0,0,0,.67-.63,15.55,15.55,0,0,0,.1-2.16c0-.26,0-.48-.29-.43s-.27.14-.3.38a1.55,1.55,0,0,1-.73,1.42,10.94,10.94,0,0,1-2.48.38c-1.43.09-1.56,0-1.71-1.29,0-.57-.14-2.29-.3-4.49,0,0,0-.09.13-.1l2.7-.13c.93,0,1.17.7,1.2,1.29a.26.26,0,0,0,.29.28c.2,0,.27-.28.25-.49v-2.72a.22.22,0,0,0-.06-.19.23.23,0,0,0-.19-.07c-.14,0-.23.2-.48.41a3,3,0,0,1-1.69.46l-2.1.11c-.11,0-.17,0-.17-.12l-.35-5.21v-.12c3.86-.23,4-.14,4.23,1.12,0,.17,0,.37.3.35a.27.27,0,0,0,.22-.09.32.32,0,0,0,.07-.23,15.51,15.51,0,0,1,0-2.55c0-.15,0-.27-.23-.27a4.43,4.43,0,0,1-1.18.29l-5,.31a27.88,27.88,0,0,0-2.88.12c-.37,0-.52.14-.51.32s.14.25.47.23"/><path id="Shape-30" data-name="Shape" class="cls-2" d="M243.46,133.31c0-.12,0-.26,1.15-.15a3.11,3.11,0,0,1,2.13,1.28,3,3,0,0,1,.49,2.42c-.17,1.77-1,3.07-2.76,2.92-1.11-.11-1.56-.28-1.56-.62Zm-5,13.1c.79.09,2,.12,2.42.16s1.76.21,2.92.32c.35,0,.49-.09.49-.23a.31.31,0,0,0-.28-.29c-1.56-.16-1.73-.56-1.56-2.61l.28-3.08h0l1.73.22a.38.38,0,0,1,.31.18c.65.92,1.13,1.88,1.68,2.77,1.36,2.27,2.42,3.47,4.66,3.67l1.9.17c.31,0,.48,0,.49-.25s-.12-.28-.31-.29c-1.55-.14-2.86-1.17-6.36-7a5.26,5.26,0,0,0,3-4.07c.26-2.75-2.21-3.81-4.76-4-.61,0-2.11-.13-2.8-.19-.42,0-1.64-.2-2.7-.3-.39,0-.55,0-.55.21s.1.31.39.32c1.56.14,1.56.46,1.39,2.21l-.86,9.22c-.19,1.9-.36,2.35-1.55,2.26-.24,0-.42,0-.44.21s.13.31.47.34Z"/><path id="Path-51" data-name="Path" class="cls-1" d="M258.12,149.35a4.71,4.71,0,0,0,3.66-.27,4.61,4.61,0,0,0,2.34-2.81c1.1-4.43-4.56-6.48-3.86-9.21a2,2,0,0,1,1-1.27,2,2,0,0,1,1.63-.08,2.37,2.37,0,0,1,2,2.68c0,.2,0,.45.2.51s.36-.11.49-.58c.37-1.54.54-2,.6-2.24a.34.34,0,0,0-.17-.37,8.63,8.63,0,0,0-2.6-1c-2.72-.66-4.95.42-5.47,2.62-1.05,4.28,4.53,6.14,3.7,9.5a2.31,2.31,0,0,1-1.17,1.41,2.4,2.4,0,0,1-1.84.13,2.83,2.83,0,0,1-1.87-1.26,2.73,2.73,0,0,1-.32-2.21c0-.2,0-.42-.19-.48s-.39.15-.47.49l-.74,2.64c-.17.59,1.12,1.37,3.11,1.85"/><path id="Path-52" data-name="Path" class="cls-1" d="M267.43,151.7l2.39.79c.5.19,1.66.7,2.86,1.16.33.1.53,0,.59-.13s-.11-.32-.29-.4c-1.06-.36-1.56-.69-1.29-1.44s.76-2.26,1.43-4l1.21-3.21a25,25,0,0,1,1.55-3.83c.38-.78.7-.89,1.56-.58.17,0,.42.11.51-.14s-.09-.29-.42-.41l-2.3-.79c-.54-.2-1.69-.67-2.41-.95-.37-.14-.57-.09-.64,0s.13.35.3.41c1,.39,1.06.73.84,1.43s-.38,1.11-1.4,3.9l-1.21,3.2c-.67,1.76-1.22,3.21-1.56,3.91s-.7.8-1.55.51c-.22-.08-.41-.09-.48,0s0,.36.35.46"/><path id="Shape-31" data-name="Shape" class="cls-2" d="M282.69,153.74l4.49-7.85c.31-.55.44-.66,1.56,0,3.79,2.09,5.28,5.7,3.22,9.46s-4.79,4.39-8.43,2.38c-2.24-1.24-2.16-1.73-.9-4M277,154.81c-.09.17,0,.34.3.51l2.22,1.15c.85.48,2.3,1.54,3.56,2.26,4.35,2.43,9.09,2.09,11.67-2.47s0-8.3-5.16-11.17c-1-.57-2.16-1.14-2.7-1.44s-1.56-.94-2.44-1.45c-.35-.18-.55-.17-.63,0s0,.3.25.45c.95.52,1.22,1,.81,1.67s-.54,1.05-2,3.61l-1.7,3.07c-2.41,4.26-2.69,4.43-3.45,4-.42-.23-.62-.27-.73-.1"/><path id="Shape-32" data-name="Shape" class="cls-2" d="M305.36,160.25h0l-2,5.61-3.22-2.68Zm-12.44,3.38c-.11-.11-.3-.19-.4,0s-.1.31.18.52c.78.66,1.65,1.31,1.84,1.44.46.39,1.1,1,1.55,1.39.2.17.36.23.51,0s0-.29-.29-.59-.48-.66-.28-.87a3.55,3.55,0,0,1,1-.72l1.93-1h.2l3.69,3.07s.09.11,0,.17l-1.14,3.38c0,.17-.92-.39-1-.43s-.31-.16-.43,0,0,.41.38.72,1.28,1,1.73,1.34,1,.95,1.41,1.25c.66.54.87.56,1,.43s0-.27-.12-.43c-.72-.59-.45-1.78-.11-2.87.93-3.07,3.61-11.18,3.93-12.28.16-.56.16-.76,0-.93s-.46,0-1.07.25l-11.74,6.14c-1.3.69-1.88.69-2.82,0Z"/><path id="Shape-33" data-name="Shape" class="cls-2" d="M312.65,176.79l7.07-5.73c.48-.4.62-.46,1.55.6,2.75,3.29,2.83,7.2-.46,10s-6.08,2.38-8.74-.81c-1.63-1.94-1.38-2.39.62-4m-5-.67c-.31-.36-.48-.5-.65-.36s-.11.31.11.57c.49.6,1.33,1.54,1.55,1.87.62.76,1.56,2.28,2.5,3.38,3.11,3.81,7.78,5.19,11.79,1.86s3.11-7.68-.72-12.29c-.76-.9-1.55-1.84-2-2.3s-1.1-1.44-1.75-2.23c-.25-.3-.44-.35-.58-.24s-.12.27.08.52c.7.81.78,1.34.14,1.84s-.9.77-3.2,2.66l-2.68,2.17c-3.81,3.07-4.13,3.16-4.66,2.5"/><path id="Path-53" data-name="Path" class="cls-1" d="M328.59,210.21a.89.89,0,0,0,.83.28,17.15,17.15,0,0,0,2.63-.66.29.29,0,0,0,.23-.39c-.06-.17-.19-.2-.56-.15-1.7.21-2.67-.35-3.81-2.9-1.41-3.17-.36-6.5,3.87-8.34,3.45-1.35,6.37-.88,7.88,2.53.95,2.11,1.07,4.61-.84,5.44-.31.14-.43.32-.35.51s.29.18.62,0,1.36-.53,2-.77.87-.26,1-.34.22-.22.12-.49a30,30,0,0,0-1.43-4.61c-1.89-4.25-6-6.86-10.4-4.95-5.17,2.17-5.66,7.21-3.65,11.69a11.78,11.78,0,0,0,1.83,3.07"/><path id="Shape-34" data-name="Shape" class="cls-2" d="M342.16,217.48h.11l-5,3.31-1-4Zm-12-4.61a.24.24,0,0,0-.32-.25c-.21.08-.25.2-.17.52.24,1,.56,2,.6,2.25.14.58.31,1.43.47,2,0,.25.14.4.37.34s.23-.19.11-.65,0-.81.3-.87a3.57,3.57,0,0,1,1.22,0l2.15.3a.18.18,0,0,1,.14.16l1.13,4.61v.18l-2.93,2.06c-.18.11-.52-.85-.56-.94s-.16-.31-.35-.28-.23.34-.12.82.47,1.53.61,2.09.24,1.36.37,1.84c.2.81.37.95.53.92s.22-.18.17-.41c-.23-.91.68-1.69,1.63-2.38,2.58-1.95,9.61-6.9,10.54-7.68.45-.36.58-.51.54-.72s-.32-.33-1-.43l-13.17-1.88c-1.46-.21-1.92-.55-2.22-1.72Z"/><path id="Path-54" data-name="Path" class="cls-1" d="M346,228.15c-.22,0-.42,0-.41.32a.33.33,0,0,0,.34.29c.73,0,1.2.51,1.37,2l.33,2.81-9.8.83c-3.1.26-3.38.11-3.48-1,0-.23-.09-.4-.29-.37s-.28.17-.25.5c0,.78.23,2,.26,2.47s.11,1.8.22,3.07c0,.29.14.49.33.45a.33.33,0,0,0,.23-.4c-.14-1.54,0-1.8,3.33-2.08l9.67-.81.14,2.36c.12,1.76-.24,2.23-1,2.35-.35,0-.46.17-.45.36s.16.21.45.21l2.27-.1c.41,0,.53-.13.52-.31a7.88,7.88,0,0,1-.38-1.86l-.77-8.79a6.49,6.49,0,0,1,.2-1.81c0-.18-.13-.21-.48-.29a13.69,13.69,0,0,0-2.3-.23"/><path id="Shape-35" data-name="Shape" class="cls-2" d="M348.27,253.49c-.29,3.17-3.1,5.44-7.54,5.05-5.58-.47-6-3.64-5.82-5,.31-3.7,3.7-5.67,7.77-5.29,4.82.4,5.81,3.08,5.61,5.21m3.47,3.5c-.1-.14-1.68-2.91-2.41-4a7.83,7.83,0,1,0-13.83,5.75,8,8,0,0,0,5.68,2.85c4.48.39,7.57-2.38,8.1-7.12.42,1.53,1,3.55,1,3.59a.41.41,0,0,0,.23.25.38.38,0,0,0,.33,0,4.59,4.59,0,0,0,.81-.46c.17-.11.33-.38.09-.8"/><path id="Path-55" data-name="Path" class="cls-1" d="M346.41,268.34c-.36,1.37-.67,1.29-2.89.72l-7.5-1.84c-3.1-.78-3.46-1-3.1-2.15,0-.23,0-.41-.16-.44s-.31,0-.4.41c-.21.75-.47,1.95-.58,2.38-.4,1.54-.85,2.78-1.55,5.55-.27,1-.21,1.18.21,1.42a22.53,22.53,0,0,0,2.4.94c.31.08.46,0,.51-.15s-.17-.32-.31-.39c-1.27-.56-1.68-1.09-1.15-3.07.64-2.41.89-2.56,3.51-1.89l7.51,1.92c2.43.62,2.46.8,2.15,2-.08.31,0,.46.17.51s.28,0,.37-.43c.2-.76.51-2.15.62-2.58s.53-1.71.75-2.61c.11-.36,0-.53-.13-.59s-.29,0-.37.37"/><path id="Path-56" data-name="Path" class="cls-1" d="M341.67,283.87c-.42,1-.76,1-1.46.8s-1.12-.42-3.89-1.54l-3.22-1.29c-1.74-.7-3.18-1.29-3.88-1.67s-.8-.72-.49-1.54c.1-.21.11-.4,0-.47s-.35,0-.48.35c-.26.74-.7,1.9-.87,2.32s-.74,1.61-1.24,2.81a.44.44,0,0,0,.11.57c.11.08.32-.09.4-.29.42-1,.75-1.54,1.56-1.23s2.27.83,4,1.53l3.2,1.29c2.77,1.11,3.3,1.29,3.84,1.54.78.4.87.72.53,1.54,0,.16-.11.39.14.5s.28,0,.42-.4c.28-.7.69-1.78.87-2.24s.73-1.64,1-2.35c.16-.35.13-.57,0-.63s-.35.11-.43.28"/><path id="Path-57" data-name="Path" class="cls-1" d="M331.33,291.46c-4.83-2.89-9.22-.31-11.74,3.94a12.24,12.24,0,0,0-1.46,3.31.9.9,0,0,0,.25.81,18.9,18.9,0,0,0,2.08,1.71c.19.1.36.12.46,0s.07-.27-.19-.54c-1.18-1.23-1.29-2.35.14-4.76,1.76-3,5.11-4.1,9.11-1.8,3.11,1.95,4.47,4.61,2.56,7.8-1.18,2-3.11,3.57-5,2.52-.29-.17-.51-.17-.62,0s0,.34.3.54,1.26.78,1.82,1.13.74.54.88.62.3,0,.47-.17a34.83,34.83,0,0,0,3-3.87c2.36-4,2.08-8.83-2.07-11.23"/><path id="Shape-36" data-name="Shape" class="cls-2" d="M320.26,313.83h0l-5.66-2.07,2.72-3.15,2.94,5.15h.08Zm-3.53-9.56c-.68-1.29-.68-1.86.11-2.78.1-.13.17-.3,0-.42s-.31-.09-.53.17c-.66.78-1.32,1.64-1.47,1.81-.39.46-1,1.09-1.4,1.54-.19.2-.23.35,0,.51s.28,0,.59-.3.68-.46.9-.27a4.39,4.39,0,0,1,.73,1l1,1.89a.15.15,0,0,1,0,.2l-3.11,3.62c0,.1-.13.11-.19.1l-3.42-1.14c-.17-.09.39-.91.45-1s.16-.31,0-.43-.42,0-.74.37-1,1.27-1.36,1.72-1,1-1.27,1.38c-.55.65-.56.86-.45,1s.29,0,.43-.12c.62-.71,1.81-.43,2.93-.1,3.1.93,11.3,3.61,12.43,3.95.56.16.76.16.92,0s.08-.46-.25-1.06Z"/><path id="Shape-37" data-name="Shape" class="cls-2" d="M185.26,338.18c-2.27,3.76-4.9,4.25-8.49,2.15-2.19-1.29-2.11-1.8-.78-4l4.67-7.68c.32-.54.45-.65,1.55,0,3.72,2.19,5.12,5.83,2.95,9.53m-2.11-10.32-2.66-1.53c-.48-.28-1.55-1-2.41-1.54-.34-.2-.53-.2-.62,0s0,.29.25.46c.93.54,1.18,1,.76,1.69s-.59,1-2.11,3.56l-1.77,2.94c-2.52,4.18-2.8,4.34-3.55,3.91-.42-.24-.62-.3-.73-.12s0,.32.28.49c.68.4,1.77,1,2.19,1.23.84.49,2.26,1.54,3.52,2.34,4.25,2.53,9,2.32,11.7-2.17s.28-8.26-4.85-11.29"/><path id="Path-58" data-name="Path" class="cls-1" d="M204.24,337.69,199.57,336c-.52-.19-1.66-.66-2.68-1-.35-.14-.53-.09-.6,0s0,.29.33.4c1,.38,1.35.77,1.06,1.53s-.38,1.08-1.4,3.84L195.05,344c-.36,1-.71,1.86-1,2.58-.77,2.06-1,2.22-2,1.83-.24-.07-.41,0-.47.11s0,.32.34.43c.75.28,2,.66,2.38.81,2,.73,3.78,1.54,5.6,2.15a.67.67,0,0,0,.85-.3,19.89,19.89,0,0,0,1-1.95c.09-.25.12-.45-.1-.51s-.31,0-.43.25c-.39.69-.72.92-1.25,1a10.43,10.43,0,0,1-2.44-.63c-1.33-.49-1.55-.6-1-1.86.21-.52.8-2.15,1.55-4.21h.13l2.53,1c.87.31.78,1.1.57,1.66a.28.28,0,0,0,0,.22.25.25,0,0,0,.16.14c.23.09.36-.14.42-.34.37-1,1.09-2.23,1.18-2.47a.24.24,0,0,0,0-.2.26.26,0,0,0-.16-.13c-.12,0-.28.1-.59.17a3.14,3.14,0,0,1-1.74-.24l-2-.74c-.1,0-.14,0-.11-.18l1.83-4.9s0-.1.11,0c3.62,1.3,3.7,1.45,3.4,2.7,0,.17-.09.37.13.44a.28.28,0,0,0,.25,0,.31.31,0,0,0,.15-.2,17.21,17.21,0,0,1,1.12-2.28c0-.14,0-.28-.11-.34a4,4,0,0,1-1.18-.22"/><path id="Path-59" data-name="Path" class="cls-1" d="M232.12,343a33.52,33.52,0,0,0-4.77-1.05c-4.66-.46-9,1.81-9.46,6.53-.63,5.53,3.57,8.4,8.51,8.88a12.34,12.34,0,0,0,3.64,0,.9.9,0,0,0,.64-.57,15.37,15.37,0,0,0,.7-2.58c0-.22,0-.37-.22-.39s-.26,0-.42.4c-.62,1.54-1.55,2.14-4.41,1.85-3.47-.33-5.91-2.88-5.46-7.42.5-3.63,2.33-5.92,6.09-5.55,2.34.23,4.67,1.34,4.39,3.4,0,.33,0,.52.26.53s.31-.15.37-.47.19-1.54.3-2.11.19-.9.2-1.06,0-.29-.36-.33"/><path id="Path-60" data-name="Path" class="cls-1" d="M256.25,355.3c-1.12.13-1.55,0-1.79-.83a36.21,36.21,0,0,1-.57-4.14l-.38-3.4c-.32-2.92-.38-3.45-.4-4.08s.19-1.11,1.09-1.2c.31,0,.43-.15.42-.31s-.2-.26-.55-.23c-.77,0-2,.28-2.48.32s-1.79.14-2.86.27c-.36,0-.53.13-.5.3s.19.28.47.25c1-.11,1.55,0,1.64.89.11.63.19,1.15.52,4.08l.1.85v.09l-7.47.78h0l-.11-.82c-.33-2.94-.37-3.46-.39-4.09,0-.86.19-1.09,1.06-1.2.34,0,.46-.14.45-.34s-.2-.24-.56-.21a22.75,22.75,0,0,0-2.47.34c-.48,0-1.82.12-2.88.23-.36,0-.51.17-.48.35s.19.26.47.23c1-.11,1.55,0,1.64.88s.16,1.13.49,4.1l.38,3.39c.19,1.78.36,3.3.35,4.1s-.14,1.09-1.06,1.18c-.23,0-.42.11-.41.31s.19.28.55.25c.79-.09,2-.28,2.49-.34s1.78-.14,3.1-.28c.32,0,.49-.17.47-.35s-.2-.23-.42-.22c-1.13.13-1.55.11-1.82-.81a33.13,33.13,0,0,1-.54-4.12l-.14-1.16s0-.09.08-.09l7.47-.82h0l.14,1.21c.19,1.76.36,3.29.35,4.11s-.1,1.09-1.06,1.19c-.23,0-.41.1-.41.31s.21.28.58.23c.75-.08,2-.28,2.46-.35s1.8-.11,3.1-.25c.36,0,.5-.2.47-.35s-.2-.23-.42-.22"/><path id="Path-61" data-name="Path" class="cls-1" d="M270.5,351.46c-1.07.31-1.64.36-1.91-.38s-.76-2.26-1.29-4.06l-1-3.28c-.85-2.83-1-3.35-1.15-3.93-.17-.86,0-1.13.87-1.37a.33.33,0,0,0,.33-.43c-.08-.26-.25-.17-.58-.08-.73.22-1.83.59-2.31.74s-1.76.46-2.49.68c-.39.1-.53.24-.48.39s.31.22.48.17c1.06-.32,1.28,0,1.56.63s.35,1.12,1.22,3.95l1,3.27a40.59,40.59,0,0,1,1.11,4.06c.17.86,0,1.06-.86,1.29-.23,0-.39.17-.34.33s.25.27.57.16l2.38-.77c.52-.15,1.76-.43,3-.8.32-.08.45-.26.4-.43s-.28-.18-.48-.14"/><path id="Path-62" data-name="Path" class="cls-1" d="M286.89,342.13c-.13-.3-.25-.37-.44-.3s-.15.34-.12.49c.36,1.33.23,2-1.71,2.83-2.27,1-2.55.94-3.69-1.53l-3.21-7c-1-2.24-.92-2.38.25-2.92.29-.12.37-.28.28-.45s-.22-.18-.56,0c-.72.33-2,1-2.43,1.16s-1.66.66-2.52,1.07c-.34.14-.45.29-.37.46s.23.19.51,0c1.31-.58,1.43-.29,2.4,1.77l3.2,7c1.34,2.87,1.43,3.27.29,3.77-.21.1-.37.22-.24.4s.23.2.57,0l2.24-1.07c1.46-.66,2.72-1.09,5.35-2.28.93-.41,1.05-.58,1-1a17.45,17.45,0,0,0-.78-2.45"/><path id="Path-63" data-name="Path" class="cls-1" d="M301.24,333.66c-.14-.21-.27-.38-.47-.23s-.14.25,0,.48a1.5,1.5,0,0,1,0,1.53,10.09,10.09,0,0,1-2,1.54c-1.18.77-1.37.83-2.11-.28L294.19,333a.1.1,0,0,1,0-.16l2.3-1.43c.77-.5,1.34,0,1.68.53a.3.3,0,0,0,.17.12.26.26,0,0,0,.21,0c.23-.14.11-.37,0-.55-.58-.86-1.17-2.17-1.32-2.38a.23.23,0,0,0-.15-.14.24.24,0,0,0-.2,0c-.11,0-.09.28-.21.59a3.07,3.07,0,0,1-1.22,1.23l-1.78,1.13h-.21l-2.92-4.34v-.14c3.22-2.11,3.39-2.09,4.23-1.11.11.12.23.29.42.15a.27.27,0,0,0,.09-.43,17,17,0,0,1-1.21-2.22c-.09-.14-.2-.22-.34-.12a5.57,5.57,0,0,1-.87.81l-4.14,2.7c-.46.31-1.55.94-2.44,1.54-.31.2-.39.37-.28.5s.25.16.52,0c.93-.59,1.43-.61,1.88,0s.66.94,2.3,3.41l1.94,2.88c.56.84,1.09,1.67,1.55,2.32,1.23,1.82,1.22,2.08.3,2.7-.22.12-.3.26-.2.43s.28.15.56,0c.67-.43,1.69-1.17,2.06-1.41,1.78-1.16,3.47-2.12,5.07-3.17a.67.67,0,0,0,.28-.87,19.89,19.89,0,0,0-1-1.94"/></g></g></g></svg>