<?xml version="1.0" encoding="utf-8"?>
<!-- Generator: Adobe Illustrator 26.0.0, SVG Export Plug-In . SVG Version: 6.00 Build 0)  -->
<svg version="1.1" id="Capa_1" xmlns="http://www.w3.org/2000/svg" xmlns:xlink="http://www.w3.org/1999/xlink" x="0px" y="0px"
	 viewBox="0 0 800 400" style="enable-background:new 0 0 800 400;" xml:space="preserve">
<style type="text/css">
	.st0{fill-rule:evenodd;clip-rule:evenodd;fill:#AAAAAA;}
	.st1{fill:#AAAAAA;}
</style>
<g id="Symbols-Mobile">
	<g id="_01-Navegación_Organismos_Footer_Main_Mobile_">
		<g id="Forma-Blanco">
			<path id="Path" class="st0" d="M390.6,162.1v-7.7c0.2-1-0.5-1.9-1.5-2.1c0,0,0,0,0,0c-0.5-0.1-1-0.1-1.4-0.1
				c-0.4,0-0.6,0-0.6-0.3s0.2-0.3,0.8-0.3c2,0,4.3,0.1,5.3,0.1c1.5,0,3.7-0.1,5.4-0.1c4.7,0,6.3,1.5,6.9,2.1
				c1.2,1.1,1.8,2.7,1.9,4.3c0.1,2.4-0.9,4.7-2.6,6.4c-1.7,1.7-4.1,2.6-6.5,2.5h-0.8c-0.2,0-0.5,0-0.5-0.3s0.3-0.4,1-0.4
				c3-0.4,5.1-3,5-6c0.1-2.1-0.7-4.1-2.2-5.5c-1-0.9-2.3-1.4-3.7-1.4c-0.5,0-1,0-1.4,0.2c-0.2,0-0.3,0.3-0.3,0.7v14.6
				c0,3.4,0,6.2,0.2,7.8c0.1,1,0.3,1.8,1.4,2c0.6,0.1,1.3,0.1,1.9,0.1c0.4,0,0.6,0.1,0.6,0.3s-0.3,0.4-0.7,0.4
				c-2.4,0-4.8-0.1-5.7-0.1s-3.1,0.1-4.7,0.1c-0.5,0-0.7-0.1-0.7-0.4s0.1-0.3,0.6-0.3c0.4,0,0.9,0,1.3-0.1c0.7-0.1,0.9-1,1.1-2
				c0.2-1.5,0.2-4.4,0.2-7.8L390.6,162.1z"/>
			<path id="Shape" class="st1" d="M436.7,166c0-8.2-4.8-13.3-10.9-13.3c-4.3,0-9.1,2.3-9.1,11.4c0,7.7,4.3,13.6,11.4,13.6
				C430.7,177.8,436.7,176.6,436.7,166 M411.6,165.3c0-6.2,4.2-14.3,15.3-14.3c9.2,0,15,5.3,15,13.7c0.2,4.1-1.4,8-4.3,10.8
				c-2.9,2.9-6.9,4.4-11,4.2C416,179.7,411.7,171.8,411.6,165.3"/>
			<path id="Path-2" class="st0" d="M452.3,174.2c0.1,2.9,0.6,3.8,1.3,4.1c0.6,0.2,1.3,0.3,1.9,0.2c0.4,0,0.6,0,0.6,0.3
				s-0.3,0.4-0.9,0.4c-2.4,0-3.9-0.1-4.7-0.1c-0.3,0-2.1,0.1-4,0.1c-0.5,0-0.8,0-0.8-0.4s0.2-0.3,0.6-0.3c0.6,0,1.1,0,1.7-0.2
				c1-0.3,1.1-1.4,1.1-4.5l0.3-21.7c0-0.7,0.1-1.2,0.5-1.2s0.7,0.5,1.4,1.1s6.1,6.4,11.5,11.8c2.5,2.5,7.5,7.8,8.1,8.3h0.2
				l-0.4-16.4c0-2.2-0.4-2.9-1.3-3.3c-0.7-0.2-1.3-0.3-2-0.2c-0.5,0-0.6-0.1-0.6-0.3s0.4-0.3,1-0.3c1.9,0,3.7,0.1,4.5,0.1
				c0.4,0,1.8-0.1,3.6-0.1c0.5,0,0.9,0,0.9,0.3s-0.2,0.3-0.7,0.3c-0.4,0-0.7,0-1.1,0.1c-1,0.3-1.3,1.1-1.4,3.1l-0.4,23
				c0,0.8-0.1,1.1-0.5,1.1c-0.5-0.1-0.9-0.4-1.3-0.8c-2.3-2.2-7.1-7-10.9-10.8s-8.1-8.5-8.8-9.2h-0.1L452.3,174.2z"/>
			<path id="Path-3" class="st0" d="M491.7,153.6l-5.5,0.1c-2.1,0-3,0.3-3.6,1.1c-0.3,0.4-0.5,0.8-0.6,1.3c0,0.2-0.1,0.4-0.4,0.4
				c0,0,0,0-0.1,0c-0.2,0-0.3-0.2-0.3-0.6s0.7-3.9,0.8-4.2s0.2-0.7,0.5-0.7c0.5,0.2,1,0.4,1.5,0.4c1.1,0.1,2.5,0.2,3.7,0.2h14.7
				c1.2,0,2.4-0.1,3.6-0.4c0.3,0,0.3,0.2,0.3,0.8s-0.1,3.3-0.1,4.2c0,0.4-0.1,0.6-0.3,0.6s-0.4-0.2-0.4-0.7v-0.4
				c-0.1-0.9-1.1-2-4.4-2l-4.7-0.1v15c0,3.4,0,6.3,0.2,7.8c0.1,1,0.3,1.8,1.4,2c0.6,0.1,1.3,0.1,1.9,0.1c0.4,0,0.6,0.1,0.6,0.3
				s-0.3,0.4-0.7,0.4c-2.4,0-4.8-0.1-5.8-0.1s-3.2,0.1-4.7,0.1c-0.5,0-0.7-0.1-0.7-0.4s0.1-0.3,0.6-0.3c0.5,0,0.9,0,1.3-0.1
				c0.7-0.1,1-1,1.1-2c0.2-1.5,0.2-4.4,0.2-7.8L491.7,153.6z"/>
			<path id="Path-4" class="st0" d="M514.3,162.1v-7.7c0-1.1-0.5-1.9-1.3-2c-0.4-0.1-0.9-0.1-1.3-0.1c-0.4,0-0.6,0-0.6-0.4
				s0.3-0.3,0.9-0.3c1.4,0,3.7,0.1,4.8,0.1s3.1-0.1,4.5-0.1c0.5,0,0.8,0,0.8,0.3s-0.2,0.4-0.6,0.4c-0.4,0-0.8,0-1.1,0.1
				c-1,0.2-1.3,0.8-1.4,2.1s0,2.2,0,7.7v6.4c0,3.5,0,6.4,0.1,8c0.1,1,0.4,1.6,1.5,1.8c0.6,0.1,1.3,0.1,1.9,0.1
				c0.4,0,0.6,0.1,0.6,0.3s-0.3,0.4-0.7,0.4c-2.4,0-4.8-0.1-5.8-0.1s-3.2,0.1-4.7,0.1c-0.5,0-0.7-0.1-0.7-0.4s0.1-0.3,0.6-0.3
				c0.4,0,0.9,0,1.3-0.1c0.8-0.1,1-0.8,1.1-1.8c0.2-1.5,0.2-4.4,0.2-8L514.3,162.1z"/>
			<path id="Path-5" class="st0" d="M536.4,168.5c0,3.5,0,6.2,0.2,7.8c0.1,1.1,0.3,1.9,1.5,2c0.6,0.1,1.2,0.1,1.8,0.1
				c0.5,0,0.6,0.1,0.6,0.3s-0.2,0.4-0.8,0.4c-2.3,0-4.7-0.1-5.6-0.1s-3.3,0.1-4.7,0.1c-0.5,0-0.8-0.1-0.8-0.4s0.1-0.3,0.5-0.3
				c0.4,0,0.9,0,1.3-0.1c0.7-0.1,0.9-1,1.1-2c0.2-1.5,0.2-4.3,0.2-7.8v-6.4c0-5.5,0-6.6-0.1-7.7s-0.4-1.8-1.5-2.1
				c-0.5-0.1-1-0.1-1.5-0.1c-0.4,0-0.6,0-0.6-0.3s0.3-0.4,0.8-0.4c1.9,0,4.3,0.1,5.3,0.1h9.8c0.5,0,1,0,1.5-0.1
				c0.2-0.1,0.4-0.2,0.6-0.2c0.1,0,0.2,0.1,0.2,0.3s-0.2,0.7-0.3,1.6c0,0.4-0.1,2.5-0.2,3s-0.1,0.5-0.4,0.5s-0.3-0.2-0.3-0.6
				c0-0.5-0.1-0.9-0.2-1.4c-0.6-0.8-1.5-1.2-2.4-1.1l-5.7-0.1c-0.2,0-0.3,0.1-0.3,0.5v9.2c0,0.2,0,0.3,0.3,0.3h6.4
				c0.6,0,1.2-0.2,1.6-0.7c0.2-0.2,0.3-0.4,0.5-0.4s0.2,0.1,0.2,0.3s-0.2,1.1-0.3,2.3c-0.1,0.7-0.1,2.4-0.1,2.7s0,0.7-0.4,0.7
				s-0.3-0.2-0.3-0.5c0-0.4-0.1-0.8-0.2-1.1c-0.3-0.8-1.1-1.3-1.9-1.3c-0.9-0.1-4.8-0.1-5.5-0.1c-0.2,0-0.3,0.1-0.3,0.3L536.4,168.5
				z"/>
			<path id="Path-6" class="st0" d="M555.2,162.1c0-5.5,0-6.6-0.1-7.7s-0.5-1.9-1.3-2c-0.4-0.1-0.9-0.2-1.3-0.1
				c-0.4,0-0.6,0-0.6-0.4s0.3-0.3,0.9-0.3c1.4,0,3.8,0.1,4.8,0.1s3.1-0.1,4.5-0.1c0.5,0,0.8,0,0.8,0.3s-0.2,0.4-0.6,0.4
				c-0.4,0-0.7,0-1.1,0.1c-1,0.2-1.3,0.8-1.4,2.1s-0.1,2.2-0.1,7.7v6.4c0,3.5,0,6.4,0.1,8c0.1,1,0.4,1.6,1.5,1.8
				c0.6,0.1,1.3,0.1,1.9,0.1c0.4,0,0.6,0.1,0.6,0.3s-0.3,0.4-0.7,0.4c-2.4,0-4.8-0.1-5.8-0.1s-3.1,0.1-4.7,0.1
				c-0.5,0-0.7-0.1-0.7-0.4s0.1-0.3,0.6-0.3c0.4,0,0.9,0,1.3-0.1c0.7-0.1,1-0.8,1.1-1.8c0.2-1.5,0.2-4.4,0.2-8L555.2,162.1z"/>
			<path id="Path-7" class="st0" d="M572.3,175.7c-5.8-5.4-6.1-14.5-0.8-20.3c0.2-0.2,0.3-0.3,0.5-0.5c2.7-2.4,6.2-3.9,11.7-3.9
				c1.8,0,3.6,0.1,5.4,0.4c1.4,0.2,2.6,0.5,3.7,0.6c0.4,0,0.5,0.2,0.5,0.4s-0.1,0.7-0.2,2s0,3.2-0.1,4s-0.1,0.8-0.4,0.8
				s-0.4-0.3-0.4-0.8c-0.1-1.3-0.6-2.5-1.5-3.4c-2.1-1.6-4.8-2.4-7.5-2.3c-2.5-0.2-5.1,0.7-7,2.3c-2.7,2.4-3.4,5.9-3.4,9.5
				c0,8.7,6.7,13,11.7,13c3.3,0,5.3-0.4,6.8-2.1c0.6-0.7,1-1.5,1.3-2.4c0.1-0.6,0.2-0.7,0.5-0.7s0.3,0.3,0.3,0.6
				c-0.1,1.6-0.4,3.3-0.8,4.9c-0.1,0.5-0.5,0.9-1,1.1c-2.2,0.6-4.4,0.9-6.7,0.8C579.8,179.7,575.6,178.6,572.3,175.7"/>
			<path id="Path-8" class="st0" d="M602.1,162.1c0-5.5,0-6.6-0.1-7.7s-0.5-1.9-1.3-2c-0.4-0.1-0.9-0.2-1.3-0.1
				c-0.4,0-0.6,0-0.6-0.4s0.3-0.3,0.9-0.3c1.4,0,3.7,0.1,4.8,0.1s3.1-0.1,4.5-0.1c0.5,0,0.8,0,0.8,0.3s-0.2,0.4-0.6,0.4
				c-0.4,0-0.7,0-1.1,0.1c-1,0.2-1.3,0.8-1.4,2.1s-0.1,2.2-0.1,7.7v6.4c0,3.5,0,6.4,0.1,8c0.1,1,0.4,1.6,1.6,1.8
				c0.6,0.1,1.3,0.1,1.9,0.1c0.4,0,0.6,0.1,0.6,0.3s-0.3,0.4-0.7,0.4c-2.4,0-4.8-0.1-5.8-0.1s-3.1,0.1-4.7,0.1
				c-0.5,0-0.7-0.1-0.7-0.4s0.1-0.3,0.6-0.3c0.5,0,0.9,0,1.3-0.1c0.7-0.1,1-0.8,1.1-1.8c0.2-1.5,0.2-4.4,0.2-8L602.1,162.1z"/>
			<path id="Shape-2" class="st1" d="M631.1,167.8c0.2,0,0.2-0.1,0.2-0.2l-3.3-9c0-0.1,0-0.3-0.2-0.3s-0.2,0.2-0.2,0.3l-3.4,9
				c0,0.2,0,0.2,0.2,0.2L631.1,167.8z M623.5,169.6c-0.2,0-0.2,0-0.3,0.3l-2,5.2c-0.3,0.7-0.5,1.5-0.6,2.2c0,0.7,0.3,1.1,1.5,1.1
				h0.5c0.5,0,0.6,0,0.6,0.3s-0.2,0.4-0.6,0.4c-1.2,0-2.8-0.1-3.9-0.1c-0.4,0-2.4,0.1-4.4,0.1c-0.5,0-0.7-0.1-0.7-0.4
				s0.1-0.3,0.5-0.3h1.1c1.7-0.2,2.4-1.5,3.1-3.3l9.3-23c0.5-1.1,0.7-1.5,1-1.5s0.5,0.3,0.9,1.2c0.9,2,6.8,16.9,9.2,22.5
				c1.4,3.3,2.5,3.8,3.3,4c0.5,0.1,1,0.1,1.6,0.1c0.3,0,0.5,0,0.5,0.3s-0.3,0.4-1.7,0.4s-4,0-7-0.1c-0.7,0-1.1,0-1.1-0.3
				s0.1-0.3,0.5-0.3c0.3-0.1,0.5-0.5,0.4-0.8c0,0,0,0,0-0.1l-3-7.8c-0.1-0.2-0.2-0.3-0.4-0.2L623.5,169.6z"/>
			<path id="Path-9" class="st0" d="M389.1,214.8c0-5.6,0-6.6-0.1-7.7s-0.4-1.8-1.6-2.1c-0.5-0.1-1-0.1-1.4-0.1
				c-0.4,0-0.6,0-0.6-0.3s0.2-0.3,0.8-0.3c2,0,4.3,0.1,5.4,0.1s3.2-0.1,4.5-0.1c0.6,0,0.8,0,0.8,0.3s-0.2,0.3-0.6,0.3
				c-0.4,0-0.7,0-1.1,0.1c-1,0.2-1.3,0.8-1.4,2.1s-0.1,2.2-0.1,7.7v5.1c0,5.3,1.1,7.5,2.9,9c1.3,1.1,3,1.6,4.7,1.5
				c1.9,0,3.7-0.7,5.1-2c2-2,2.1-5.3,2.1-9.1v-12.3c0.1-1-0.5-1.9-1.6-2.1c0,0,0,0,0,0c-0.4-0.1-0.9-0.1-1.3-0.1
				c-0.4,0-0.6,0-0.6-0.3s0.3-0.3,0.8-0.3c1.9,0,4.2,0.1,4.2,0.1c0.5,0,2.8-0.1,4.2-0.1c0.5,0,0.8,0,0.8,0.3s-0.2,0.3-0.7,0.3
				c-0.4,0-0.7,0-1.1,0.1c-1,0.2-1.3,0.8-1.4,2.1s0,2.2,0,7.7v3.9c0,4.1-0.4,8.4-3.5,11c-2.1,1.8-4.9,2.7-7.7,2.6
				c-3,0.2-5.9-0.7-8.2-2.5c-1.9-1.7-3.3-4.4-3.3-9.7L389.1,214.8z"/>
			<path id="Path-10" class="st0" d="M424.1,226.8c0.1,2.9,0.6,3.8,1.3,4c0.6,0.2,1.3,0.3,1.9,0.3c0.4,0,0.6,0,0.6,0.3
				s-0.4,0.4-0.9,0.4c-2.4,0-3.9-0.1-4.7-0.1c-0.3,0-2.1,0.1-4,0.1c-0.5,0-0.8,0-0.8-0.4s0.2-0.3,0.6-0.3c0.6,0,1.1,0,1.7-0.2
				c1-0.3,1.1-1.4,1.1-4.6l0.3-21.6c0-0.7,0.1-1.2,0.5-1.2s0.8,0.5,1.4,1.1s6.1,6.5,11.5,11.8c2.5,2.5,7.5,7.7,8.1,8.3h0.2
				l-0.4-16.4c0-2.2-0.4-2.9-1.3-3.3c-0.7-0.2-1.3-0.2-2-0.2c-0.5,0-0.6-0.1-0.6-0.3s0.4-0.3,0.9-0.3c1.9,0,3.7,0.1,4.5,0.1
				c0.4,0,1.8-0.1,3.6-0.1c0.5,0,0.9,0,0.9,0.3s-0.2,0.3-0.7,0.3c-0.4,0-0.8,0-1.1,0.1c-1,0.3-1.3,1.1-1.4,3.1l-0.4,23
				c0,0.8-0.1,1.1-0.5,1.1c-0.5-0.1-0.9-0.4-1.3-0.8c-2.3-2.2-7.1-7-10.9-10.8s-8.1-8.5-8.8-9.2h-0.1L424.1,226.8z"/>
			<path id="Path-11" class="st0" d="M457.7,214.8c0-5.6,0-6.6-0.1-7.7s-0.5-1.9-1.3-2c-0.4-0.1-0.9-0.2-1.3-0.2
				c-0.4,0-0.6,0-0.6-0.4s0.3-0.3,0.9-0.3c1.4,0,3.8,0.1,4.8,0.1s3.1-0.1,4.5-0.1c0.5,0,0.8,0,0.8,0.3s-0.2,0.4-0.6,0.4
				c-0.4,0-0.7,0-1.1,0.1c-1,0.2-1.3,0.8-1.4,2.1s-0.1,2.2-0.1,7.7v6.4c0,3.5,0,6.4,0.2,8c0.1,1,0.4,1.6,1.5,1.8
				c0.6,0.1,1.3,0.1,1.9,0.1c0.4,0,0.6,0.1,0.6,0.3s-0.3,0.4-0.7,0.4c-2.4,0-4.8-0.1-5.8-0.1s-3.1,0.1-4.7,0.1
				c-0.5,0-0.8-0.1-0.8-0.4s0.1-0.3,0.6-0.3c0.5,0,0.9,0,1.3-0.1c0.7-0.2,1-0.8,1.1-1.8c0.2-1.5,0.2-4.4,0.2-8L457.7,214.8z"/>
			<path id="Path-12" class="st0" d="M473.7,207.7c-0.9-2-1.5-2.4-2.8-2.8c-0.5-0.1-1-0.2-1.5-0.1c-0.3,0-0.4-0.1-0.4-0.3
				s0.4-0.3,1-0.3c2,0,4.1,0.1,5.4,0.1c0.9,0,2.7-0.1,4.6-0.1c0.4,0,0.8,0,0.8,0.3s-0.2,0.3-0.5,0.3c-0.5-0.1-1,0-1.4,0.3
				c-0.3,0.2-0.4,0.5-0.4,0.8c0.1,1,0.4,1.9,0.9,2.8l6.4,16.6h0.1c1.6-4,6.4-15.8,7.3-18.2c0.2-0.4,0.3-0.9,0.4-1.4
				c0-0.3-0.2-0.6-0.5-0.7c-0.5-0.1-1-0.2-1.5-0.2c-0.3,0-0.6,0-0.6-0.3s0.3-0.4,1-0.4c1.9,0,3.4,0.1,3.9,0.1s2.4-0.1,3.5-0.1
				c0.5,0,0.8,0,0.8,0.3s-0.2,0.3-0.6,0.3c-0.6,0-1.3,0.1-1.8,0.4c-0.5,0.3-1,0.9-2,3.3c-1.5,3.4-2.4,5.4-4.5,9.9
				c-2.4,5.4-4.1,9.3-4.9,11.1c-1,2.1-1.2,2.7-1.7,2.7s-0.7-0.5-1.4-2.2L473.7,207.7z"/>
			<path id="Path-13" class="st0" d="M506.9,214.8c0-5.6,0-6.6-0.1-7.7s-0.4-1.8-1.5-2.1c-0.5-0.1-1-0.1-1.4-0.1
				c-0.4,0-0.6,0-0.6-0.3s0.3-0.3,0.8-0.3c2,0,4.3,0.1,5.3,0.1h9.2c0.5-0.1,1-0.1,1.6-0.2c0.2-0.1,0.4-0.1,0.6-0.1
				c0.2,0,0.2,0.1,0.2,0.3s-0.2,0.7-0.3,2.4c0,0.4-0.1,2-0.2,2.4c0,0.2-0.1,0.4-0.4,0.4c0,0,0,0,0,0c-0.3,0-0.3-0.2-0.3-0.5
				c0-0.4-0.1-0.9-0.2-1.3c-0.3-0.7-0.6-1.1-2.5-1.3c-0.6-0.1-4.5-0.1-5.3-0.1c-0.2,0-0.3,0.1-0.3,0.4v9.2c0,0.2,0,0.4,0.3,0.4h5.9
				c0.6,0,1.3-0.2,1.8-0.6c0.2-0.3,0.4-0.5,0.6-0.5s0.3,0,0.3,0.3s-0.2,0.8-0.3,2.7c0,0.7-0.1,2.2-0.1,2.4s0,0.7-0.3,0.7
				s-0.3-0.1-0.3-0.3c0-0.4-0.1-0.9-0.1-1.3c-0.2-0.7-0.7-1.3-2.1-1.4c-0.7,0-4.4-0.1-5.2-0.1c-0.2,0-0.2,0.2-0.2,0.4v8.4
				c0.1,2.5,0.7,3.1,4.5,3.1c1.2,0.1,2.4-0.1,3.5-0.4c1-0.4,1.4-1.2,1.7-2.7c0.1-0.4,0.2-0.5,0.4-0.5s0.3,0.3,0.3,0.6
				c-0.1,1.4-0.2,2.7-0.5,4.1c-0.3,0.9-0.6,0.9-2,0.9c-5.6,0-8.1-0.2-10.3-0.2c-0.8,0-3.1,0.1-4.7,0.1c-0.5,0-0.8-0.1-0.8-0.4
				s0.1-0.3,0.6-0.3c0.5,0,0.9,0,1.3-0.1c0.7-0.2,0.9-1,1.1-2c0.2-1.5,0.2-4.4,0.2-7.8L506.9,214.8z"/>
			<path id="Shape-3" class="st1" d="M534.9,217.6c0,0.4,0,0.6,0.3,0.7c0.9,0.2,1.9,0.4,2.8,0.4c0.9,0.1,1.9-0.1,2.6-0.6
				c1.6-1.4,2.4-3.4,2.2-5.5c0-5.2-3.5-6.7-5.7-6.7c-0.7,0-1.3,0-2,0.1c-0.3,0-0.3,0.2-0.3,0.5L534.9,217.6z M530.5,214.8
				c0-5.6,0-6.6-0.1-7.7s-0.4-1.8-1.5-2.1c-0.5-0.1-1-0.1-1.5-0.1c-0.4,0-0.6,0-0.6-0.3s0.2-0.3,0.8-0.3c2,0,4.3,0.1,5.1,0.1
				c1.3,0,4.1-0.1,5.2-0.1c2.4-0.2,4.7,0.4,6.8,1.5c1.6,1.2,2.5,3,2.5,5c0,2.7-1.2,5.2-4.9,8.2c3.3,4.1,5.8,7.4,8,9.6
				c1.3,1.6,3.2,2.5,5.2,2.6c0.3,0,0.4,0.1,0.4,0.3s-0.2,0.4-0.7,0.4h-3.5c-1.4,0.1-2.8-0.1-4-0.7c-1.6-0.8-3-2.5-5.1-5.4
				c-1.5-2-3.1-4.5-3.7-5c-0.2-0.2-0.4-0.3-0.7-0.3h-3.2c-0.2,0-0.3,0-0.3,0.3v0.4c0,3.4,0,6.3,0.2,7.8c0.1,1.1,0.3,1.9,1.4,2
				c0.6,0.1,1.2,0.1,1.8,0.1c0.3,0,0.5,0.1,0.5,0.3s-0.2,0.4-0.8,0.4c-2.1,0-4.9-0.1-5.4-0.1s-3.1,0.1-4.5,0.1
				c-0.5,0-0.7-0.1-0.7-0.4s0.1-0.3,0.6-0.3c0.4,0,0.9-0.1,1.3-0.1c0.8-0.2,0.9-1,1.1-2c0.2-1.5,0.2-4.4,0.2-7.8L530.5,214.8z"/>
			<path id="Path-14" class="st0" d="M559.7,231.4c-0.6-0.3-0.7-0.4-0.7-1.2c0-2,0.2-4.2,0.2-4.8s0.2-0.9,0.5-0.9s0.4,0.3,0.4,0.6
				c0,0.6,0.1,1.3,0.3,1.9c0.7,2.3,2.9,3.9,5.3,3.7c1.2,0.1,2.4-0.2,3.4-1c0.9-0.8,1.5-1.9,1.6-3.1c0-1.8-0.6-3.5-3.6-5.9l-1.7-1.3
				c-4.1-3.1-5.5-5.7-5.5-8.7c0-4,3.4-6.9,8.5-6.9c1.7,0,3.3,0.2,4.9,0.6c0.3,0,0.5,0.2,0.5,0.4s-0.2,1.5-0.2,4.4
				c0,0.8-0.1,1.1-0.4,1.1s-0.4-0.2-0.4-0.7c-0.1-0.9-0.4-1.7-1-2.4c-1-1.2-2.5-1.9-4-1.8c-2.7,0-4.4,1.5-4.4,3.8
				c0,1.7,0.8,3,3.9,5.3l1,0.8c4.5,3.4,6.1,5.9,6.1,9.3c0,2.6-1.3,5-3.5,6.4c-1.8,1.1-3.8,1.6-5.9,1.5
				C563.1,232.4,561.3,232.1,559.7,231.4"/>
			<path id="Path-15" class="st0" d="M583.2,214.8c0-5.6,0-6.6-0.1-7.7s-0.4-1.9-1.3-2c-0.4-0.1-0.9-0.2-1.3-0.2
				c-0.4,0-0.6,0-0.6-0.4s0.3-0.3,0.9-0.3c1.4,0,3.7,0.1,4.8,0.1s3.1-0.1,4.5-0.1c0.5,0,0.8,0,0.8,0.3s-0.2,0.4-0.6,0.4
				c-0.4,0-0.7,0-1.1,0.1c-1,0.2-1.3,0.8-1.4,2.1s-0.1,2.2-0.1,7.7v6.4c0,3.5,0,6.4,0.2,8c0.1,1,0.4,1.6,1.5,1.8
				c0.6,0.1,1.3,0.1,1.9,0.1c0.4,0,0.6,0.1,0.6,0.3s-0.3,0.4-0.7,0.4c-2.4,0-4.8-0.1-5.8-0.1s-3.2,0.1-4.7,0.1
				c-0.5,0-0.7-0.1-0.7-0.4s0.2-0.3,0.6-0.3c0.5,0,0.9,0,1.4-0.1c0.7-0.2,1-0.8,1.1-1.8c0.2-1.5,0.2-4.4,0.2-8L583.2,214.8z"/>
			<path id="Shape-4" class="st1" d="M605.3,218.8v7.4c0,0.9,0.1,1.9,0.4,2.8c0.5,0.7,1.9,1.5,4.8,1.5c3.1,0.3,6.1-0.7,8.5-2.6
				c2.4-2,3.1-5.3,3.1-9.1c0.1-3.4-1.1-6.8-3.5-9.2c-2.9-2.5-6.7-3.9-10.5-3.7c-0.8,0-1.6,0.1-2.4,0.3c-0.3,0.1-0.5,0.4-0.5,0.7v7.3
				L605.3,218.8z M600.6,214.8c0-5.6,0-6.6-0.1-7.7s-0.4-1.8-1.6-2.1c-0.5-0.1-1-0.1-1.4-0.1c-0.4,0-0.6,0-0.6-0.3s0.3-0.3,0.8-0.3
				c2,0,4.3,0.1,5.3,0.1s3.5-0.1,5.7-0.1c4.7,0,10.8,0,14.8,4.2c2.4,2.5,3.7,5.8,3.6,9.2c0.1,3.8-1.4,7.5-4,10.2
				c-1.7,1.7-5.5,4.3-12.4,4.3c-2.7,0-6-0.4-7.9-0.4c-0.9,0-3.2,0.1-4.7,0.1c-0.5,0-0.7-0.1-0.7-0.4s0.2-0.3,0.6-0.3
				c0.5,0,0.9,0,1.3-0.1c0.7-0.2,0.9-1,1.1-2c0.2-1.5,0.2-4.4,0.2-7.8L600.6,214.8z"/>
			<path id="Shape-5" class="st1" d="M644.3,220.4c0.2,0,0.2-0.1,0.2-0.2l-3.3-9.1c0-0.1-0.1-0.3-0.2-0.3s-0.2,0.2-0.2,0.3l-3.4,9
				c0,0.2,0,0.3,0.2,0.3L644.3,220.4z M636.8,222.2c-0.2,0-0.2,0-0.3,0.3l-2,5.2c-0.3,0.7-0.5,1.5-0.5,2.2c0,0.7,0.3,1.1,1.5,1.1
				h0.6c0.4,0,0.5,0,0.5,0.3s-0.2,0.4-0.6,0.4c-1.2,0-2.8-0.1-3.9-0.1c-0.4,0-2.5,0.1-4.4,0.1c-0.5,0-0.7,0-0.7-0.4s0.2-0.3,0.5-0.3
				c0.4,0,0.8,0,1.2-0.1c1.7-0.2,2.4-1.5,3.1-3.3l9.3-23c0.4-1.1,0.7-1.5,1-1.5s0.6,0.3,0.9,1.2c0.9,2,6.8,16.9,9.2,22.5
				c1.4,3.3,2.5,3.8,3.2,4c0.5,0.1,1,0.2,1.6,0.2c0.3,0,0.5,0,0.5,0.3s-0.3,0.4-1.7,0.4h-7c-0.7,0-1.1,0-1.1-0.3s0.2-0.3,0.5-0.3
				c0.2-0.1,0.3-0.2,0.4-0.3c0.1-0.2,0.1-0.3,0-0.5l-3-7.7c0-0.2-0.2-0.3-0.4-0.3L636.8,222.2z"/>
			<path id="Shape-6" class="st1" d="M668.5,218.8c0,3.9,0,6.7,0.1,7.4c-0.1,1,0.1,1.9,0.4,2.8c0.5,0.7,1.9,1.5,4.8,1.5
				c3.1,0.3,6.1-0.7,8.5-2.6c2.4-2,3.1-5.3,3.1-9.1c0.2-3.4-1.1-6.8-3.6-9.2c-2.9-2.5-6.7-3.9-10.5-3.7c-0.8,0-1.6,0.1-2.4,0.3
				c-0.3,0.1-0.5,0.4-0.5,0.7v7.3V218.8z M663.9,214.8c0-5.6,0-6.6-0.1-7.7s-0.3-1.8-1.5-2.1c-0.5-0.1-1-0.1-1.5-0.1
				c-0.4,0-0.6,0-0.6-0.3s0.2-0.3,0.8-0.3c2,0,4.3,0.1,5.3,0.1s3.5-0.1,5.7-0.1c4.7,0,10.8,0,14.8,4.2c2.4,2.5,3.7,5.8,3.6,9.2
				c0.1,3.8-1.4,7.5-4,10.2c-1.7,1.7-5.5,4.3-12.4,4.3c-2.7,0-6-0.4-7.9-0.4c-0.8,0-3.1,0.1-4.7,0.1c-0.5,0-0.7-0.1-0.7-0.4
				s0.1-0.3,0.6-0.3c0.5,0,0.9,0,1.3-0.1c0.7-0.2,0.9-1,1.1-2c0.2-1.5,0.2-4.4,0.2-7.8L663.9,214.8z"/>
			<path id="Path-16" class="st0" d="M391.2,281c-5.8-5.4-6.1-14.5-0.8-20.3c0.2-0.2,0.3-0.3,0.5-0.5c2.7-2.4,6.2-3.9,11.7-3.9
				c1.8,0,3.6,0.1,5.4,0.4c1.4,0.2,2.6,0.5,3.7,0.6c0.4,0,0.6,0.2,0.6,0.4s-0.1,0.7-0.2,2s0,3.2-0.1,4s-0.1,0.8-0.4,0.8
				s-0.4-0.3-0.4-0.8c-0.1-1.3-0.6-2.5-1.5-3.4c-2.1-1.6-4.8-2.4-7.5-2.2c-2.5-0.2-5,0.6-7,2.2c-2.7,2.5-3.4,5.9-3.4,9.5
				c0,8.7,6.7,13,11.6,13c3.3,0,5.3-0.4,6.8-2c0.6-0.7,1-1.5,1.3-2.4c0.1-0.6,0.2-0.7,0.5-0.7s0.3,0.3,0.3,0.5
				c-0.2,1.6-0.4,3.3-0.8,4.9c-0.1,0.5-0.5,0.9-1,1.1c-2.2,0.6-4.4,0.9-6.7,0.8C398.8,285,394.5,283.9,391.2,281"/>
			<path id="Shape-7" class="st1" d="M432.2,273.1c0.2,0,0.2-0.1,0.2-0.2l-3.4-9c0-0.2,0-0.3-0.2-0.3s-0.2,0.2-0.2,0.3l-3.4,9
				c0,0.2,0,0.3,0.1,0.3L432.2,273.1z M424.7,274.9c-0.2,0-0.3,0.1-0.3,0.3l-2,5.2c-0.3,0.7-0.5,1.5-0.6,2.2c0,0.7,0.3,1.1,1.6,1.1
				h0.6c0.5,0,0.6,0.1,0.6,0.3s-0.2,0.4-0.6,0.4c-1.2,0-2.8-0.1-3.9-0.1c-0.4,0-2.4,0.1-4.4,0.1c-0.5,0-0.7-0.1-0.7-0.4
				s0.1-0.3,0.4-0.3c0.4,0,0.8,0,1.1,0c1.7-0.2,2.4-1.5,3.1-3.3l9.3-23c0.5-1.1,0.7-1.5,1-1.5s0.6,0.3,0.9,1.2
				c0.9,2,6.8,16.9,9.2,22.5c1.4,3.3,2.5,3.8,3.3,4c0.5,0.1,1,0.2,1.5,0.1c0.3,0,0.5,0,0.5,0.3s-0.3,0.4-1.7,0.4s-4,0-7-0.1
				c-0.7,0-1.1,0-1.1-0.3s0.1-0.3,0.5-0.3c0.2-0.1,0.3-0.2,0.4-0.4c0.1-0.2,0.1-0.3,0-0.5l-3-7.8c0-0.2-0.2-0.3-0.4-0.3L424.7,274.9
				z"/>
			<path id="Path-17" class="st0" d="M454.3,258.9l-5.5,0.1c-2.1,0.1-3.1,0.3-3.6,1.1c-0.3,0.4-0.5,0.8-0.6,1.3
				c0,0.2-0.1,0.4-0.3,0.4c0,0,0,0-0.1,0c-0.2,0-0.3-0.2-0.3-0.6s0.7-3.9,0.8-4.2s0.2-0.7,0.4-0.7c0.5,0.2,1,0.3,1.5,0.4
				c1.1,0.1,2.5,0.2,3.7,0.2H465c1.2,0,2.4-0.1,3.6-0.4c0.2,0,0.3,0.2,0.3,0.8s-0.1,3.3-0.1,4.2c0,0.4-0.1,0.6-0.3,0.6
				s-0.4-0.2-0.4-0.7V261c-0.1-1-1.1-2-4.4-2l-4.7-0.1v15c0,3.4,0,6.2,0.2,7.8c0.1,1,0.3,1.8,1.5,2c0.6,0.1,1.3,0.1,1.9,0.1
				c0.4,0,0.6,0.1,0.6,0.3s-0.3,0.4-0.7,0.4c-2.4,0-4.8-0.1-5.8-0.1s-3.1,0.1-4.7,0.1c-0.5,0-0.8-0.1-0.8-0.4s0.1-0.3,0.6-0.3
				c0.4,0,0.9,0,1.3-0.1c0.7-0.2,1-1,1.1-2c0.2-1.5,0.2-4.4,0.2-7.8L454.3,258.9z"/>
			<path id="Shape-8" class="st1" d="M493.4,251c0.2,0.4,0,0.5-0.2,0.5c-0.4,0-0.8,0-1.3,0c-2.2,0.4-4.3,1.1-6.3,2.2
				c-0.2,0.1-0.4,0.2-0.6,0.3c-0.1,0-0.2-0.1-0.2-0.2c0-0.2,0.2-0.3,0.3-0.5c1.9-1.6,3.9-3.2,6-4.6c0.2-0.2,0.5-0.3,0.7-0.3
				c0.3,0,0.3,0.1,0.5,0.4C492.7,249.5,493.1,250.2,493.4,251 M497.2,271.3c0-8.2-4.8-13.3-10.9-13.3c-4.2,0-9.1,2.4-9.1,11.5
				c0,7.7,4.2,13.6,11.4,13.6C491.2,283.1,497.2,281.9,497.2,271.3 M472.1,270.6c0-6.3,4.2-14.3,15.3-14.3c9.2,0,15,5.3,15,13.7
				c0.1,4.1-1.4,8-4.4,10.8c-2.9,2.9-6.9,4.4-11,4.2C476.4,285,472.1,277.1,472.1,270.6"/>
			<path id="Path-18" class="st0" d="M514.9,273.8c0,4.7,0,7.2,0.8,7.9s1.6,0.8,4.5,0.8c2,0,3.4,0,4.3-1c0.5-0.6,0.9-1.4,1-2.2
				c0-0.3,0.1-0.5,0.4-0.5s0.3,0.2,0.3,0.6c-0.1,1.4-0.3,2.8-0.6,4.2c-0.2,0.8-0.4,1-2.3,1c-5.3,0-7.8-0.2-10.8-0.2
				c-0.8,0-3.1,0.1-4.7,0.1c-0.5,0-0.7-0.1-0.7-0.4s0.1-0.3,0.6-0.3c0.4,0,0.9,0,1.3-0.1c0.8-0.1,0.9-1,1.1-2
				c0.2-1.5,0.2-4.4,0.2-7.8v-6.4c0-5.6,0-6.6-0.1-7.8s-0.4-1.8-1.5-2.1c-0.4-0.1-0.8-0.1-1.2-0.1c-0.4,0-0.6,0-0.6-0.3
				s0.2-0.3,0.8-0.3c1.7,0,4.1,0.1,5.1,0.1s3.6-0.1,5-0.1c0.5,0,0.8,0,0.8,0.3s-0.2,0.3-0.7,0.3c-0.5,0-1,0.1-1.4,0.1
				c-1,0.2-1.3,0.8-1.4,2.1s-0.1,2.2-0.1,7.8L514.9,273.8z"/>
			<path id="Path-19" class="st0" d="M533.8,267.4v-7.8c0-1.2-0.4-1.9-1.3-2c-0.4-0.1-0.9-0.2-1.3-0.2c-0.4,0-0.6,0-0.6-0.4
				s0.3-0.3,0.9-0.3c1.4,0,3.7,0.1,4.8,0.1s3.1-0.1,4.5-0.1c0.5,0,0.8,0,0.8,0.3s-0.2,0.4-0.6,0.4c-0.4,0-0.7,0-1.1,0.1
				c-1,0.2-1.3,0.8-1.4,2.1s0,2.2,0,7.8v6.4c0,3.5,0,6.4,0.2,8c0.1,1,0.4,1.6,1.5,1.8c0.6,0.1,1.3,0.1,1.9,0.1
				c0.4,0,0.6,0.1,0.6,0.3s-0.3,0.4-0.7,0.4c-2.4,0-4.8-0.1-5.8-0.1s-3.2,0.1-4.7,0.1c-0.5,0-0.8-0.1-0.8-0.4s0.2-0.3,0.6-0.3
				c0.5,0,0.9,0,1.3-0.1c0.8-0.1,1-0.8,1.1-1.8c0.2-1.5,0.2-4.4,0.2-8L533.8,267.4z"/>
			<path id="Path-20" class="st0" d="M550.9,281c-5.8-5.4-6.2-14.5-0.8-20.3c0.2-0.2,0.3-0.4,0.5-0.5c2.7-2.4,6.2-3.9,11.7-3.9
				c1.8,0,3.6,0.1,5.4,0.4c1.4,0.2,2.6,0.5,3.7,0.6c0.4,0,0.6,0.2,0.6,0.4s-0.1,0.7-0.2,2s0,3.2-0.1,4s-0.1,0.8-0.5,0.8
				s-0.4-0.3-0.4-0.8c-0.1-1.3-0.6-2.5-1.5-3.4c-1.2-1.3-4.1-2.2-7.5-2.2c-2.5-0.2-5,0.6-7,2.2c-2.7,2.5-3.4,5.9-3.4,9.5
				c0,8.7,6.7,13,11.7,13c3.3,0,5.3-0.4,6.8-2c0.6-0.7,1-1.5,1.3-2.4c0.1-0.6,0.2-0.7,0.5-0.7s0.3,0.3,0.3,0.5
				c-0.1,1.6-0.4,3.3-0.8,4.9c-0.1,0.5-0.5,1-1,1.1c-2.2,0.6-4.4,0.9-6.7,0.8C558.4,285,554.2,283.9,550.9,281"/>
			<path id="Shape-9" class="st1" d="M591.8,273.1c0.2,0,0.2-0.1,0.2-0.2l-3.3-9c0-0.2-0.1-0.3-0.2-0.3s-0.2,0.2-0.2,0.3l-3.4,9
				c0,0.2,0,0.3,0.2,0.3L591.8,273.1z M584.3,274.9c-0.2,0-0.2,0.1-0.3,0.3l-2,5.2c-0.3,0.7-0.5,1.5-0.5,2.2c0,0.7,0.3,1.1,1.5,1.1
				h0.6c0.4,0,0.5,0.1,0.5,0.3s-0.2,0.4-0.6,0.4c-1.2,0-2.8-0.1-3.9-0.1c-0.4,0-2.5,0.1-4.4,0.1c-0.5,0-0.7-0.1-0.7-0.4
				s0.2-0.3,0.5-0.3c0.4,0,0.8,0,1.1,0c1.7-0.2,2.4-1.5,3.1-3.3l9.3-23c0.4-1.1,0.7-1.5,1-1.5s0.6,0.3,0.9,1.2
				c0.9,2,6.8,16.9,9.2,22.5c1.4,3.3,2.5,3.8,3.2,4c0.5,0.1,1,0.2,1.6,0.1c0.3,0,0.5,0,0.5,0.3s-0.3,0.4-1.7,0.4s-4,0-7-0.1
				c-0.7,0-1.1,0-1.1-0.3s0.2-0.3,0.5-0.3c0.3-0.1,0.5-0.5,0.4-0.8c0,0,0-0.1,0-0.1l-3.1-7.8c0-0.2-0.2-0.3-0.4-0.3L584.3,274.9z"/>
			<path id="Shape-10" class="st1" d="M395.3,324v7.4c0,0.9,0.1,1.9,0.4,2.8c0.5,0.7,1.9,1.5,4.9,1.5c3.1,0.3,6.1-0.7,8.5-2.6
				c2.4-2,3.1-5.4,3.1-9.1c0.1-3.4-1.2-6.7-3.6-9.1c-2.9-2.5-6.7-3.9-10.5-3.6c-0.8,0-1.6,0.1-2.4,0.2c-0.3,0.1-0.5,0.4-0.5,0.7v7.3
				L395.3,324z M390.6,320v-7.7c0.2-1-0.5-1.9-1.5-2.1c0,0,0,0,0,0c-0.5-0.1-1-0.1-1.4-0.1c-0.4,0-0.6-0.1-0.6-0.3s0.2-0.3,0.8-0.3
				c2,0,4.3,0.1,5.3,0.1s3.5-0.1,5.7-0.1c4.7,0,10.9,0,14.9,4.2c2.4,2.5,3.6,5.8,3.6,9.2c0.1,3.8-1.4,7.5-4,10.2
				c-1.7,1.7-5.5,4.3-12.4,4.3c-2.7,0-6-0.4-7.9-0.4c-0.8,0-3.1,0.1-4.7,0.1c-0.5,0-0.7-0.1-0.7-0.4s0.1-0.3,0.6-0.3
				c0.4,0,0.9,0,1.3-0.1c0.8-0.2,0.9-1,1.1-2c0.2-1.5,0.2-4.4,0.2-7.8L390.6,320z"/>
			<path id="Path-21" class="st0" d="M425,320.1c0-5.6,0-6.6-0.1-7.7s-0.4-1.8-1.5-2.1c-0.5-0.1-1-0.1-1.5-0.1
				c-0.4,0-0.6-0.1-0.6-0.3s0.2-0.3,0.8-0.3c2,0,4.3,0.1,5.3,0.1h9.2c0.5,0,1-0.1,1.5-0.2c0.2-0.1,0.4-0.1,0.6-0.1
				c0.2,0,0.2,0.1,0.2,0.3c-0.1,0.8-0.2,1.6-0.3,2.4c0,0.4-0.1,2-0.2,2.4c0,0.2-0.1,0.4-0.3,0.4c0,0,0,0,0,0c-0.3,0-0.3-0.2-0.3-0.5
				c0-0.4-0.1-0.9-0.2-1.3c-0.2-0.7-0.6-1.1-2.5-1.3c-0.6-0.1-4.5-0.1-5.3-0.1c-0.2,0-0.3,0.1-0.3,0.4v9.2c0,0.3,0,0.4,0.3,0.4h5.9
				c0.6,0,1.3-0.2,1.8-0.5c0.3-0.3,0.4-0.5,0.6-0.5s0.3,0.1,0.3,0.3c-0.1,0.9-0.2,1.8-0.3,2.7c0,0.7-0.2,2.2-0.2,2.4s0,0.7-0.3,0.7
				c-0.1,0-0.2,0-0.3-0.1c-0.1-0.1-0.1-0.2-0.1-0.2c0-0.4-0.1-0.9-0.1-1.3c-0.2-0.7-0.7-1.3-2.1-1.4c-0.7-0.1-4.4-0.1-5.2-0.1
				c-0.2,0-0.2,0.2-0.2,0.4v8.6c0.1,2.5,0.7,3.1,4.4,3.1c1.2,0.1,2.4-0.1,3.5-0.4c1-0.5,1.4-1.2,1.7-2.7c0-0.4,0.1-0.5,0.4-0.5
				s0.3,0.3,0.3,0.7c-0.1,1.4-0.2,2.7-0.5,4.1c-0.3,1-0.6,1-2,1c-5.6,0-8.1-0.2-10.2-0.2c-0.9,0-3.2,0.1-4.7,0.1
				c-0.5,0-0.7-0.1-0.7-0.4s0.1-0.3,0.6-0.3c0.5,0,0.9,0,1.3-0.1c0.7-0.1,0.9-1,1.1-2c0.2-1.5,0.2-4.4,0.2-7.8L425,320.1z"/>
			<path id="Path-22" class="st0" d="M461.8,333.6c-5.8-5.4-6.1-14.5-0.8-20.3c0.2-0.2,0.3-0.3,0.5-0.5c2.7-2.4,6.2-3.9,11.7-3.9
				c1.8,0,3.6,0.1,5.4,0.4c1.4,0.2,2.6,0.5,3.7,0.6c0.4,0,0.5,0.2,0.5,0.4s-0.1,0.7-0.2,2s0,3.2-0.1,4s-0.1,0.8-0.4,0.8
				s-0.4-0.3-0.4-0.8c-0.1-1.3-0.6-2.5-1.5-3.4c-1.2-1.3-4.1-2.3-7.5-2.3c-2.5-0.2-5.1,0.6-7,2.3c-2.7,2.4-3.4,5.9-3.4,9.5
				c0,8.7,6.7,13,11.7,13c3.3,0,5.3-0.4,6.8-2c0.6-0.7,1-1.5,1.3-2.4c0.1-0.6,0.2-0.7,0.5-0.7s0.3,0.3,0.3,0.5
				c-0.1,1.6-0.4,3.3-0.8,4.9c-0.1,0.5-0.5,0.9-1,1.1c-2.2,0.6-4.4,0.9-6.7,0.8C469.4,337.6,465.1,336.6,461.8,333.6"/>
			<path id="Path-23" class="st0" d="M510.9,321.1c0.1,0,0.2,0,0.2-0.3v-0.8c0-5.6,0-6.6-0.1-7.7s-0.4-1.9-1.6-2.1
				c-0.5-0.1-1-0.1-1.4-0.1c-0.4,0-0.6-0.1-0.6-0.3s0.3-0.3,0.8-0.3c2,0,4.3,0.1,5.3,0.1s3.2-0.1,4.7-0.1c0.5,0,0.8,0,0.8,0.3
				s-0.2,0.3-0.7,0.3c-0.4,0-0.7,0-1.1,0.1c-1,0.2-1.3,0.8-1.4,2.1s0,2.2,0,7.7v6.4c0,3.4,0,6.3,0.2,7.8c0.1,1,0.3,1.8,1.4,2
				c0.6,0.1,1.3,0.1,1.9,0.1c0.4,0,0.6,0.1,0.6,0.3s-0.3,0.4-0.8,0.4c-2.4,0-4.7-0.1-5.8-0.1s-3.1,0.1-4.7,0.1
				c-0.5,0-0.8-0.1-0.8-0.4s0.1-0.3,0.6-0.3c0.4,0,0.9,0,1.3-0.1c0.7-0.1,0.9-1,1.1-2c0.2-1.5,0.2-4.4,0.2-7.8v-3.2
				c0-0.1,0-0.1-0.1-0.2c0,0-0.1-0.1-0.2,0h-14.1c-0.1,0-0.2,0-0.2,0.2v3.2c0,3.4,0,6.3,0.2,7.8c0.1,1,0.3,1.8,1.5,2
				c0.6,0.1,1.3,0.1,1.9,0.1c0.4,0,0.6,0.1,0.6,0.3s-0.3,0.4-0.7,0.4c-2.4,0-4.7-0.1-5.8-0.1s-3.1,0.1-4.7,0.1
				c-0.5,0-0.8-0.1-0.8-0.4s0.1-0.3,0.6-0.3c0.5,0,0.9,0,1.3-0.1c0.7-0.1,0.9-1,1.1-2c0.2-1.5,0.2-4.4,0.2-7.8v-6.4
				c0-5.6,0-6.6-0.1-7.7s-0.4-1.9-1.5-2.1c-0.5-0.1-1-0.1-1.4-0.1c-0.4,0-0.6-0.1-0.6-0.3s0.3-0.3,0.8-0.3c2,0,4.3,0.1,5.3,0.1
				s3.2-0.1,4.7-0.1c0.5,0,0.8,0,0.8,0.3s-0.2,0.3-0.7,0.3c-0.4,0-0.7,0-1.1,0.1c-1,0.2-1.3,0.8-1.4,2.1s0,2.2,0,7.7v0.8
				c0,0.2,0.1,0.3,0.2,0.3L510.9,321.1z"/>
			<path id="Path-24" class="st0" d="M528.6,320.1c0-5.6,0-6.6-0.1-7.7s-0.5-1.9-1.3-2.1c-0.4-0.1-0.9-0.1-1.3-0.1
				c-0.4,0-0.6-0.1-0.6-0.4s0.3-0.3,0.9-0.3c1.4,0,3.8,0.1,4.8,0.1s3.1-0.1,4.5-0.1c0.5,0,0.8,0,0.8,0.3s-0.2,0.4-0.6,0.4
				c-0.4,0-0.7,0-1.1,0.1c-1,0.2-1.3,0.8-1.4,2.1s-0.1,2.2-0.1,7.7v6.5c0,3.5,0,6.4,0.2,8c0.1,1,0.4,1.6,1.6,1.8
				c0.6,0.1,1.3,0.1,1.9,0.1c0.4,0,0.6,0.1,0.6,0.3s-0.3,0.4-0.7,0.4c-2.4,0-4.8-0.1-5.8-0.1s-3.1,0.1-4.7,0.1
				c-0.5,0-0.8-0.1-0.8-0.4s0.2-0.3,0.6-0.3c0.5,0,0.9,0,1.3-0.1c0.7-0.1,1-0.8,1.1-1.8c0.2-1.5,0.2-4.4,0.2-8L528.6,320.1z"/>
			<path id="Path-25" class="st0" d="M550.6,326.5c0,4.6,0,7.2,0.8,7.8s1.5,0.8,4.5,0.8c2,0,3.4,0,4.3-1c0.5-0.6,0.9-1.4,1-2.2
				c0-0.3,0.1-0.5,0.4-0.5s0.3,0.2,0.3,0.6c-0.1,1.4-0.3,2.8-0.6,4.2c-0.2,0.8-0.4,1-2.3,1c-5.3,0-7.8-0.2-10.8-0.2
				c-0.8,0-3.1,0.1-4.7,0.1c-0.5,0-0.8-0.1-0.8-0.4s0.2-0.3,0.6-0.3c0.4,0,0.9,0,1.3-0.1c0.8-0.2,0.9-1,1.1-2
				c0.2-1.5,0.2-4.4,0.2-7.8v-14.2c0.2-1-0.5-1.9-1.5-2.1c0,0,0,0,0,0c-0.4-0.1-0.8-0.1-1.2-0.1c-0.4,0-0.6-0.1-0.6-0.3
				s0.3-0.3,0.8-0.3c1.7,0,4.1,0.1,5.1,0.1s3.6-0.1,5-0.1c0.5,0,0.8,0,0.8,0.3s-0.2,0.3-0.7,0.3c-0.5,0-1,0-1.4,0.1
				c-1,0.2-1.3,0.8-1.4,2.1s-0.1,2.2-0.1,7.7L550.6,326.5z"/>
			<path id="Path-26" class="st0" d="M569.5,320.1c0-5.6,0-6.6-0.1-7.7s-0.4-1.8-1.6-2.1c-0.5-0.1-1-0.1-1.4-0.1
				c-0.4,0-0.6-0.1-0.6-0.3s0.3-0.3,0.8-0.3c2,0,4.3,0.1,5.3,0.1h9.2c0.5,0,1-0.1,1.5-0.2c0.2-0.1,0.4-0.1,0.6-0.1
				c0.2,0,0.2,0.1,0.2,0.3c-0.1,0.8-0.2,1.6-0.3,2.4c0,0.4-0.1,2-0.2,2.4c0,0.2-0.1,0.4-0.3,0.4c0,0,0,0,0,0c-0.3,0-0.3-0.2-0.3-0.5
				c0-0.4-0.1-0.9-0.2-1.3c-0.3-0.7-0.6-1.1-2.5-1.3c-0.6-0.1-4.5-0.1-5.2-0.1c-0.2,0-0.3,0.1-0.3,0.4v9.2c0,0.3,0,0.4,0.3,0.4h5.9
				c0.6,0,1.3-0.2,1.8-0.5c0.2-0.3,0.4-0.5,0.6-0.5s0.3,0.1,0.3,0.3s-0.2,0.8-0.3,2.7c0,0.7-0.1,2.2-0.1,2.4s0,0.7-0.3,0.7
				c-0.1,0-0.2,0-0.2-0.1c-0.1-0.1-0.1-0.2-0.1-0.2c0-0.4-0.1-0.9-0.1-1.3c-0.2-0.7-0.7-1.3-2.1-1.4c-0.7-0.1-4.4-0.1-5.2-0.1
				c-0.2,0-0.2,0.2-0.2,0.4v8.6c0.1,2.5,0.7,3.1,4.4,3.1c1.2,0.1,2.4-0.1,3.5-0.4c1-0.5,1.4-1.2,1.6-2.7c0.1-0.4,0.2-0.5,0.4-0.5
				s0.3,0.3,0.3,0.7c-0.1,1.4-0.2,2.7-0.5,4.1c-0.3,1-0.6,1-2,1c-5.6,0-8.1-0.2-10.2-0.2c-0.9,0-3.2,0.1-4.7,0.1
				c-0.5,0-0.7-0.1-0.7-0.4s0.1-0.3,0.6-0.3c0.4,0,0.9,0,1.3-0.1c0.8-0.1,0.9-1,1.1-2c0.2-1.5,0.2-4.4,0.2-7.8L569.5,320.1z"/>
			<path id="Path-27" class="st0" d="M276,183.5c1,0,2-0.6,2.4-1.6c0.4-1,0.2-2.1-0.5-2.8c-0.7-0.7-1.9-1-2.8-0.6
				c-1.3,0.5-1.9,2-1.4,3.3C274,182.9,275,183.5,276,183.5"/>
			<path id="Path-28" class="st0" d="M194.4,282.5c-0.4,0-0.8,0.4-0.8,0.8s0.4,0.8,0.8,0.8c0.4,0,0.8-0.3,0.8-0.8
				C195.1,282.8,194.8,282.5,194.4,282.5"/>
			<path id="Path-29" class="st0" d="M226.3,284c0.4,0,0.8-0.4,0.7-0.8c0-0.4-0.4-0.8-0.8-0.7c-0.4,0-0.8,0.4-0.7,0.8
				c0,0.2,0.1,0.4,0.2,0.5C225.9,283.9,226.1,284,226.3,284"/>
			<path id="Shape-11" class="st1" d="M172.5,270c1.4,0.9,2.4,2.4,2.9,4c-1.7,0.4-3.4,0.2-5-0.5c-1.4-1-2.4-2.4-2.9-4
				C169.2,269.1,171,269.3,172.5,270L172.5,270z M169.7,257.6c1.6,0.1,3,0.8,4.1,1.9c0.9,1.2,1.4,2.8,1.3,4.3c-1.6-0.2-3-0.9-4.1-2
				C170,260.6,169.6,259.1,169.7,257.6L169.7,257.6z M173.1,264.8c1.2,1.2,2,2.7,2.2,4.4c-1.7,0.1-3.4-0.4-4.8-1.4
				c-1.2-1.2-2-2.7-2.2-4.4C170.1,263.3,171.8,263.8,173.1,264.8z M173.2,252.1c4.4-0.1,8.6,1.5,11.9,4.4l-0.6,0.7
				c-2.4-1.4-5-2.1-7.8-2.1c-7.4,0-12.4,5-12.4,11.2c0,5.3,3.8,9.9,9,10.8c3.6,0.8,4.2,2.8,4.2,3.8v1.1h-3.1
				c-0.2-1.2-1.2-1.9-4.3-2.5c-7.6-1.5-11.9-6.5-11.9-13.5C158.2,258.2,164.4,252.1,173.2,252.1L173.2,252.1z M177.9,259.5
				c1.1-1.1,2.6-1.8,4.1-2c0.4,3-1.7,5.8-4.7,6.3c-0.2,0-0.4,0-0.7,0.1C176.6,262.3,177,260.7,177.9,259.5L177.9,259.5z
				 M178.5,264.7c1.4-1,3.1-1.5,4.8-1.4c-0.2,1.7-1,3.2-2.2,4.4c-1.4,1-3.1,1.5-4.8,1.4C176.6,267.5,177.3,265.9,178.5,264.7z
				 M181.2,273.4c-1.6,0.7-3.3,0.9-5,0.5c0.5-1.6,1.5-3.1,2.9-4c1.6-0.7,3.3-0.9,5-0.5C183.7,271,182.7,272.5,181.2,273.4z
				 M179.5,297.7c-0.5,2-2.5,3.2-4.4,2.8c-1.4-0.3-2.5-1.4-2.8-2.8l1.3-13h4.6L179.5,297.7z M193.5,267h9c0.9,0,1.5,0.7,1.6,1.5
				c0,0,0,0,0,0v2.1h2v-2.1c0-1.5-1-2.8-2.4-3.4L203,265l0.6-0.4c2.1-1.4,4.5-2.2,7.1-2.2c2.7,0,5.4,0.9,7.5,2.5l0.5,0.4l-0.5,0.3
				c-1.2,0.6-2,1.8-2,3.2v2.1h2v-2.1c0-0.9,0.7-1.5,1.5-1.5c0,0,0,0,0,0h9v0.4c0,0.8-0.1,1.5-0.4,2.2h-6.1v1h5.7
				c-0.8,1.8-2.7,3-4.7,3H221v2h4.3v3.5h-28.8v-3.5h5v-2h-2.3c-2,0-3.8-1.1-4.7-3h5.6v-1H194c-0.2-0.7-0.4-1.5-0.4-2.2L193.5,267z
				 M215.3,284.6c0,0,0.3-2.3,0.3-3.1h1.7C216.6,282.5,215.9,283.5,215.3,284.6L215.3,284.6z M207.9,281.5h4.9l-0.3,6.9
				c-1.1,0.5-2.2,1-3.3,1.5l-1,0.4L207.9,281.5z M230.3,283.3l-0.1,0.8c-1.1,1.1-2.6,1.6-4.1,1.5c-2.2,0-3.5-1.1-4.5-0.1
				c-1.1,1.2-2,2.6-2.7,4c-0.7,1.3-1.8,2.4-3.1,3.2c-1.4,0.8-2.9,1.4-4.4,2c-1,0.4-2,0.8-3,1.3l0,0c-1.8,0.8-3.1,1.7-3.1,3.2
				c0,1,1,1.8,2.5,2.6c-0.9,0.5-1.8,1.1-2.7,1.7c-1.6-0.9-2.6-2.5-2.7-4.4c0-2.1,1.2-4,3.1-5c1.5-0.8,3.1-1.5,4.7-2.1
				c1.4-0.5,2.8-1.2,4.1-1.9l0,0c0.8-0.5,1.5-1.1,1.9-2c3.1-6,6.4-7.3,9-7.2C227,281.1,228.8,281.9,230.3,283.3L230.3,283.3z
				 M209,298.9c0-0.7,0.6-1.3,1.3-1.4c0.7,0,1.3,0.6,1.4,1.3s-0.6,1.3-1.3,1.4c0,0,0,0,0,0c-0.4,0-0.7-0.1-0.9-0.4
				C209.1,299.6,209,299.3,209,298.9z M213.5,304.8L213.5,304.8l-1.2,0.6c-1.3,0.6-2.6,1.3-3.8,2.1l-0.3,0.2l-0.1,0.1l0,0
				c-0.5,0.3-0.9,0.9-1,1.5c0,0.8,0.5,1.5,1.2,1.9c-0.8,0.6-1.5,1.3-2.2,2c-1.3-0.8-2.1-2.3-2-3.8c0-1.6,0.8-3,2.1-3.9h0.1
				c1.4-1,2.9-1.8,4.4-2.5l1.6-0.8c1.8-0.9,3.1-1.7,3.1-2.9s-0.8-2-2.1-2.7c1-0.4,2.1-0.9,3.1-1.4c1.3,1,2,2.5,2,4.1
				c0,2.7-2.4,4.4-4.9,5.6L213.5,304.8z M213.3,314.2c-0.9,0.4-1.7,0.9-2.4,1.5c-0.2,0.2-0.4,0.5-0.4,0.8c0,0.3,0.1,0.6,0.3,0.9
				c0.2,0.2,0.5,0.4,0.8,0.4c0.3,0,0.6-0.1,0.9-0.3c0.5-0.4,1-0.8,1.6-1c0.1,0.3,0.2,0.7,0.2,1c-0.1,1.5-1.2,2.8-2.7,3.1v1.6
				c0.1,0.4-0.1,0.8-0.5,1c-0.3,0.2-0.8,0.2-1.1,0c-0.3-0.2-0.5-0.6-0.5-1v-1.6c-1.5-0.3-2.6-1.6-2.7-3.1c0-0.7,0.2-1.3,0.5-1.9
				c1.2-1.9,2.6-2.7,5.2-4.5l0.2-0.2l0,0l0.1-0.1c0.4-0.4,0.6-0.9,0.6-1.4c-0.1-0.6-0.4-1.1-0.9-1.4l0.7-0.4
				c0.7-0.4,1.4-0.7,2.1-1.1c0.7,0.8,1.1,1.8,1.1,2.8c-0.1,2.2-1.4,4.1-3.4,4.9L213.3,314.2z M203.4,281.8h1.7
				c0,0.8,0.2,3.1,0.2,3.1C204.7,283.8,204.1,282.8,203.4,281.8L203.4,281.8z M201.8,289.7c-0.7-1.5-1.6-2.8-2.7-4
				c-1-1-2.3,0.1-4.5,0.1c-1.5,0.1-3-0.5-4.1-1.5l-0.1-0.8c1.4-1.3,3.2-2.1,5.1-2.3c2.6,0,6,1.3,9,7.2c0.7,1,1.7,1.8,2.8,2.2
				c-1.1,0.4-2.1,1-3.1,1.5c-1-0.7-1.8-1.6-2.4-2.7L201.8,289.7z M149.4,260l6.2,3.5c-0.1,0.8-0.2,1.6-0.2,2.5
				c0,8.1,4.7,14.4,14.1,16.3c0.5,0.1,1,0.2,1.6,0.4l-1.6,15.1v0.1c0.4,3.6,3.7,6.1,7.3,5.7c3-0.4,5.3-2.7,5.7-5.7v-0.1l-1.6-15.7
				h-0.5v-1.1c0-1.6-0.7-3.2-1.9-4.3c1.4,0,2.8-0.3,4.1-1c1.8-1.1,3.2-2.9,3.8-5l0.5-1.7l4.4-2.5v1.1c0,2.4,1,4.8,2.7,6.5v4.3
				c-2,0.5-3.9,1.5-5.5,2.9l-1.2,1.1l0.4,2.1l0.2,0.7c0.7,1.9,3.8,3.5,6.8,3.5c1,0,1.9-0.1,2.9-0.4l0,0c0.7,0.8,1.2,1.7,1.7,2.7
				c0.6,1.1,1.4,2.1,2.4,2.9c-2.9,3-2.9,7.8,0.2,10.7c0.3,0.3,0.5,0.5,0.8,0.7c-0.8,1.2-1.3,2.6-1.3,4.1c0,2.4,1,4.7,2.9,6.1
				c-0.3,0.7-0.4,1.4-0.4,2.1c0,2,1.1,3.9,2.8,5c0.1,2.1,1.9,3.8,4.1,3.7c2-0.1,3.6-1.7,3.7-3.7c1.7-1.1,2.7-3,2.8-5
				c0-0.7-0.2-1.4-0.5-2.1c1.9-1.5,3-3.8,2.9-6.1c0-1.5-0.4-2.9-1.3-4.1c3.4-2.5,4.2-7.2,1.7-10.6c-0.2-0.3-0.4-0.6-0.7-0.8
				c1-0.8,1.8-1.8,2.4-2.9c0.5-0.9,1.1-1.9,1.7-2.7l0,0c0.9,0.2,1.9,0.4,2.9,0.4c3.1,0,6.2-1.6,6.8-3.5c0-0.2,0.1-0.5,0.2-0.7l0.4-2
				l-1.2-1.1c-1.3-1.2-2.8-2.1-4.5-2.6v-3.9c2.2-1.7,3.5-4.3,3.4-7.1v-2.7h-9.3c-5.7-6.1-15.2-6.4-21.3-0.7
				c-0.2,0.2-0.5,0.5-0.7,0.7h-5.7l8.3-4.8c0.4-0.2,0.5-0.7,0.3-1c-0.2-0.4-0.7-0.5-1-0.3l-15.6,8.9l-1.3-0.3c0.5-1,0.8-2,0.9-3.1
				l0.1-1.8l11.3-9.5c0.2-0.2,0.3-0.4,0.3-0.7c-0.1-0.4-0.5-0.7-0.9-0.6c-0.1,0-0.2,0.1-0.3,0.2l-11.4,9.5h-0.5
				c0.1-0.3,0.2-0.7,0.3-1l3.8-4.5l-1.3-1.2l-0.8-0.7l5-6c0.1-0.2,0.2-0.3,0.2-0.5c0-0.4-0.4-0.7-0.8-0.7c-0.2,0-0.4,0.1-0.5,0.3
				l-5.1,6c-3.5-2.4-7.6-3.6-11.8-3.6c-2.8,0-5.6,0.5-8.2,1.7l-3.5-4.1c-0.1-0.2-0.3-0.3-0.5-0.3c-0.2,0-0.4,0-0.6,0.2
				c-0.3,0.3-0.3,0.7-0.1,1l3.3,3.9c-1.6,0.9-3,2-4.2,3.3l-4-3.3c-0.2-0.2-0.5-0.2-0.7-0.1c-0.3,0.1-0.4,0.3-0.5,0.6
				c0,0.3,0,0.5,0.2,0.7l4,3.3c-1.3,1.7-2.2,3.7-2.7,5.7l-5.7-3.3c-0.2-0.1-0.4-0.1-0.6-0.1c-0.2,0.1-0.3,0.2-0.4,0.4
				c-0.1,0.2-0.1,0.4-0.1,0.6C149,259.8,149.1,259.9,149.4,260L149.4,260z"/>
			<path id="Shape-12" class="st1" d="M301.7,286.5c-3.7,0-6.8-3-6.8-6.8h13.6c0,1.8-0.7,3.5-2,4.8
				C305.3,285.8,303.5,286.5,301.7,286.5L301.7,286.5z M287.2,306.6c-0.8,0.1-1.7,0-2.5-0.2c-1.2-0.3-3-1.9-5-2.9l1.6-20.8
				c0.4,0,0.8,0.1,1.1,0.1c1.3,0.4,2.5,1,3.6,1.8c1.5,1.1,3.2,2,5.1,2.5c1.5,0.4,3,0.6,4.5,0.8C294.5,290.7,287.2,306.6,287.2,306.6
				L287.2,306.6z M276.3,312.6c0,0.6-0.4,1-1,1s-1-0.4-1-1l-3.6-49.6h-23c-1.5,0-2.7-1.2-2.7-2.7c0-1.5,1.2-2.7,2.7-2.7
				c1.5,0,2.7,1.2,2.7,2.7v0.2c5,0.3,15.1,0.6,22-4.4c-1.4-1.5-1.4-3.9,0.1-5.4c1.5-1.4,3.9-1.4,5.5,0c1.5,1.5,1.6,3.9,0.2,5.4
				c7,5,17.1,4.8,22,4.4v-0.2c0-1.5,1.2-2.8,2.7-2.8c1.5,0,2.8,1.2,2.8,2.7c0,1.5-1.2,2.8-2.7,2.8c0,0,0,0-0.1,0h-23.1L276.3,312.6z
				 M269.3,302.1c-0.6-1.7-1.8-3-3.5-3.6c-1.7-0.4-3.5-0.4-5.2-0.1c-2.1,0.3-4.3,0.3-6.3-0.2c-1.1-0.3-2.1-0.7-3-1.3
				c1.1-1.7,9.8-15.4,10.9-17c1.1,0.5,2.2,0.9,3.3,1.2c1.3,0.3,2.6,0.4,3.8,0.3l1.4,19.8C270.2,301.5,269.7,301.8,269.3,302.1
				L269.3,302.1z M249,286.5c-3.7,0-6.8-3-6.8-6.7c0,0,0,0,0,0h13.6C255.8,283.5,252.7,286.5,249,286.5z M256.1,277.1l-5.2-11.4
				h17.4l1,13.3c-1,0.1-2.1,0-3.1-0.2c-1.3-0.3-2.5-0.8-3.6-1.5l-1.1-0.8l-0.7,1.1l-2.5,3.7c0.1-0.5,0.1-1.1,0.2-1.6v-2.6
				L256.1,277.1z M249,266.6l4.8,10.5h-9.6L249,266.6z M294.1,285.2c-0.8-0.1-1.7-0.2-2.5-0.4c-1.5-0.4-3-1.1-4.2-2.1
				c-1.3-1-2.8-1.8-4.4-2.2c-0.5-0.1-1-0.2-1.6-0.2l1-14.6h17.4l-5.2,11.4h-2.5v2.7c0,2,0.6,3.9,1.8,5.5L294.1,285.2z M306.4,277.1
				h-9.5l4.8-10.5L306.4,277.1z M308.8,277.1l-5.2-11.4c3-0.3,5.1-3,4.7-6s-3-5.1-6-4.7c-1.8,0.2-3.5,1.4-4.3,3
				c-6.9,0.3-12.4-0.6-16.4-2.8c0.2-0.6,0.2-1.2,0.2-1.8c0-2.6-1.4-4.9-3.8-6c-2.3-1.1-5.1-0.8-7.1,0.9c-1.9,1.6-2.8,4.3-2.1,6.7
				c-4,2.1-9.5,3.1-16.4,2.8c-1.2-2.3-3.8-3.5-6.3-2.9c-2.9,0.7-4.6,3.6-3.9,6.5c0.6,2.2,2.4,3.8,4.7,4l-5.2,11.5h-2.4v2.7
				c0,3.5,1.9,6.6,5,8.2c3.1,1.6,6.8,1.5,9.7-0.4l-5.5,8.3l0,0v0.1l0,0L248,300l17.9,3.5c-0.2,0.9,1.5,2,2.6,2.3
				c0.9,0.2,1.9,0.2,2.8-0.2l0.5,6.9v-0.2c0,2,1.7,3.7,3.7,3.7c2,0,3.7-1.7,3.7-3.7l0,0l0.3-4.8l10.2,3.2l8.8-21.3v-1.2
				c1.1,0.4,2.3,0.7,3.4,0.6c5.2,0,9.5-4.2,9.5-9.4v-2.7L308.8,277.1z"/>
			<path id="Shape-13" class="st1" d="M174.7,195.2c2-0.1,4,0.2,6,0.6c1.6-0.3,3.2-0.4,4.9-0.4c2.7,0,5.4,2.7,5.4,2.7l-0.2,1.4
				c0,0-1.3,1.5-5,1.5c-2.2,0-4-1.4-5.5-1.9c-1.8-0.5-3.6-0.8-5.5-0.8c-4.3,0.2-7.6,3.9-7.4,8.2c0,4.6,2.7,6.9,5.4,8.9
				c3.1,2.3,5.4,3.3,6.2,4l-0.4,0.1c-0.8,0.2-1.5,0.7-2,1.4c-5.8-2.1-12.4-6-12.4-14.4c-0.1-2.9,0.9-5.7,2.9-7.8
				C169,196.5,171.8,195.3,174.7,195.2L174.7,195.2z M197.3,203.6v2.9c0,4-3.1,6.2-5.9,8.2c-1.1,0.8-3.5,2.4-3.5,2.4l-5.9,1.5
				c-1-1.5-3.2-2.6-5.1-3.9c-2.8-2-5.9-4.2-5.9-8.2v-2.9L197.3,203.6z M189.2,228.2l-8.9,2.4c-0.6,0.3-1.3,0.3-1.8-0.1
				c-0.5-0.4-0.7-1.1-0.5-1.7c0.2-0.6,0.8-1,1.5-1l8.9-2.5c0.6-0.3,1.3-0.3,1.8,0.1c0.5,0.4,0.7,1.1,0.5,1.7
				C190.4,227.8,189.8,228.2,189.2,228.2L189.2,228.2z M179.2,221.7l8.9-2.4c0.7,0,1.3,0.4,1.5,1.1c0.2,0.7-0.1,1.4-0.7,1.7
				l-8.8,2.5c-0.8,0-1.5-0.6-1.6-1.5C178.4,222.5,178.7,222,179.2,221.7L179.2,221.7z M191.8,237.6v0.4h-15.4v-0.4
				c0-1.5,3.8-3.4,5.3-5l4.1-1.1C185.9,233.3,191.8,235.7,191.8,237.6L191.8,237.6z M191.8,183.2h14.4v-16.5h8.2v16.4h14.4v8.1
				h-14.3V238h-8.2v-46.8h-14.5L191.8,183.2z M161.1,206.5c0,10.3,8,14.9,14.8,17.4c0.2,1,0.8,1.9,1.7,2.4c-0.4,0.3-0.7,0.7-1,1.1
				c-0.5,0.9-0.6,1.9-0.3,2.8c0.2,0.8,0.7,1.5,1.4,2c-1.7,1.1-4.3,2.9-4.3,5.7v2.1h21.5V238c0-3.3-3.5-5-5.1-6.3
				c-0.3-0.2-0.7-0.6-0.9-0.8v-0.2c0,0,3.6-0.9,3.6-3.8c-0.1-1.2-0.7-2.4-1.8-3.1c0.4-0.3,0.7-0.7,1-1.1c0.5-0.9,0.6-1.9,0.4-2.8
				c-0.2-0.6-0.4-1.1-0.8-1.5c0.7-0.4,1.4-0.8,1.9-1.1c3-2.1,7.2-5.1,7.2-10.6v-5.9h-6.8l0.3-1.9c0.8-0.4,1.6-0.7,2.5-0.8
				c0.9,0,1.9,0.8,2.9,0.8s1.3-0.5,1.2-0.8s-0.5-0.3-1.1-0.3c-0.8,0-1.7-1.2-3.1-1.2c-0.7,0-1.5,0.2-2.2,0.4c-1.1-1.1-2.3-2-3.5-2.9
				h12.9v46.1h14v-46h14.4v-13.8h-14.4v-16.4h-13.9v16.4H189v13c-1.1-0.5-2.3-0.7-3.4-0.8c-1.5,0-2.9,0.2-4.4,0.4
				c-2.1-0.4-4.3-0.6-6.5-0.6c-3.7,0.1-7.2,1.7-9.8,4.4C162.4,199.3,161,202.9,161.1,206.5L161.1,206.5z"/>
			<path id="Shape-14" class="st1" d="M296.5,210.1c0-2.8,1.6-4.6,4-4.6c1.3-0.1,2.4,0.8,2.5,2c0,0.1,0,0.1,0,0.2
				c0.1,0.9-0.5,1.6-1.4,1.7c-0.1,0-0.2,0-0.3,0c-0.8,0.2-1.4,1-1.2,1.8c0.1,0.6,0.6,1.1,1.2,1.2c1.2,0,2.5-0.4,3.3-1.3
				c0.9-0.9,1.4-2.1,1.3-3.3c0-1.4-0.6-2.8-1.6-3.7c-1-1-2.4-1.5-3.9-1.4c-2.8-0.1-5.3,1.5-6.3,4.1l-2.8-7.2h8.3
				c5.8,0,9.3,3.4,9.3,8.7c0,3.9-3.3,7.1-7.2,7.1c-1.4,0.1-2.7-0.5-3.7-1.4C296.9,212.8,296.4,211.5,296.5,210.1L296.5,210.1z
				 M303.6,238.1l-0.7,0.4l-27.5-47.4h0.6c2.9,0,5.7-1.2,7.6-3.4C289.8,203.2,303.6,238.1,303.6,238.1L303.6,238.1z M295.1,234.1
				H290v-12.4l5.1,8.8L295.1,234.1z M286.8,234.1h-5.1v-18.5c0-0.9-0.7-1.6-1.6-1.6c-0.9,0-1.6,0.7-1.6,1.6v18.6h-5.1v-18.6
				c0-0.9-0.7-1.6-1.6-1.6c-0.9,0-1.6,0.7-1.6,1.6v18.6h-5v-17.9l2.9-5.1h15.8l2.9,5L286.8,234.1z M261.9,234.1h-5v-3.6l5.1-8.8
				L261.9,234.1z M274.9,199.4h2.2l5.1,8.8h-12.4L274.9,199.4z M249.1,238.5l-0.7-0.4c0,0,13.9-34.9,20-50.4c1,1.1,2.1,1.9,3.4,2.5
				l2.7,4.6L249.1,238.5z M250.3,215.2c-3.9,0-7.1-3.2-7.1-7.1c0-5.4,3.6-8.7,9.3-8.7h8.3l-2.9,7.3c-1-2.6-3.6-4.2-6.3-4.1
				c-1.4-0.1-2.8,0.4-3.9,1.4c-1,1-1.6,2.3-1.6,3.7c0,1.2,0.4,2.4,1.3,3.3c0.9,0.9,2.1,1.3,3.3,1.3c0.8-0.2,1.4-1,1.2-1.8
				c-0.1-0.6-0.6-1.1-1.2-1.2c-0.5,0.1-0.9-0.1-1.3-0.4c-0.3-0.3-0.5-0.8-0.4-1.2c0-1.3,1.1-2.2,2.3-2.2c0.1,0,0.1,0,0.2,0
				c2.5,0,4,1.7,4,4.6c0.1,1.4-0.5,2.7-1.5,3.7C253,214.7,251.6,215.2,250.3,215.2L250.3,215.2z M275.9,173.8c2.9,0,5.6,1.7,6.8,4.4
				c1.1,2.7,0.5,5.8-1.6,7.9c-2.1,2.1-5.2,2.7-8,1.6c-3.7-1.5-5.5-5.7-4-9.4C270.3,175.5,273,173.7,275.9,173.8z M311.9,208.1
				c0-7-5-11.7-12.4-11.7H290l-4.7-11.6c0.5-1.2,0.8-2.5,0.8-3.9c0.1-4.2-2.4-8-6.3-9.6c-3.9-1.6-8.4-0.7-11.4,2.3
				c-2.9,3-3.7,7.5-2,11.3l-4.7,11.6h-9.3c-7.4,0-12.4,4.7-12.4,11.7c0.1,5.6,4.6,10.1,10.2,10c1.1,0,2.2-0.2,3.2-0.6l-4.1,10.5
				l-3.6,9.1c-0.9,2.3,0.6,3,0.6,3l2.1,1.1c1.3,0.7,2.4-0.2,3-1.4l2.4-4.1v1.1h44.2v-1.1l2.4,4.2c0.7,1.2,1.7,2.1,3,1.4l2.1-1.1
				c0,0,1.6-0.6,0.6-3l-3.6-9.1l-4.2-10.5c1,0.4,2.1,0.6,3.2,0.6C307.2,218.2,311.8,213.7,311.9,208.1L311.9,208.1z"/>
			<path id="Path-30" class="st0" d="M186.1,198.5c0.4,0,0.8-0.3,0.8-0.8c0-0.4-0.3-0.8-0.8-0.8s-0.8,0.3-0.8,0.8c0,0,0,0,0,0
				C185.3,198.2,185.6,198.5,186.1,198.5"/>
			<path id="Shape-15" class="st1" d="M275,107.2c1.7-1.3,3.3-2.8,4.7-4.5l0.4-0.1l0.7-0.1v0.3l0.2,1.3v0.2l-0.1,0.1
				c-2.5,1.7-4.3,4.3-5,7.3l-0.2,0.8l-0.3-0.7l-0.1-0.2v-1.7c0-0.7-0.1-1.4-0.2-2.2L275,107.2L275,107.2z M273.2,111
				c0.1,1.1,0.7,2.1,1.5,2.9c0.9,0.6,1.9,1,3,1.3l0,0c-0.1-0.5-0.1-0.9-0.1-1.4c0-5.4,5.2-8.7,5.2-8.7c0.1-0.3,0.2-0.6,0.3-0.9
				l-0.6-3.5c0-0.5,0-0.7-0.7-0.6l-3.1,0.6c-1.8,2.1-3.8,4-6,5.7C273.1,108,273.3,109.5,273.2,111z"/>
			<path id="Path-31" class="st0" d="M284.4,98.3c0.3,1.8,0.4,3.6,0.3,5.3c1-0.8,1.7-2,1.9-3.2c-0.1-1.7-0.3-3.3-0.7-4.9
				c-0.1-0.2-2-2.5-2.9-2.5c-0.4,0-1,0.6-1.3,1.5c-0.5,0.9-1,1.9-1.7,2.7v0.3c1.4,0,4.2,0,4.5,0.6"/>
			<path id="Path-32" class="st0" d="M167.3,122.2l2.4,2.9c1.3-1,2.7-1.9,4.1-2.8c0-0.2,0-0.4,0-0.6c0-1.6,0.9-3,2.3-3.6
				c0.5-0.2,1.1-0.4,1.7-0.4c1.2,0,2.3,0.5,3.1,1.4c1.4-0.5,2.9-0.9,4.4-1.2l-0.7-3.7c-3.1,0.6-6.1,1.6-9,2.9c-2.9,1.3-5.6,3-8.1,5"
				/>
			<path id="Path-33" class="st0" d="M161.6,114.9l2.3,3.1c1.9-1.5,3.9-2.8,6-4c0-0.2,0-0.3,0-0.5c0-1.6,0.9-3,2.3-3.6
				c0.5-0.2,1.1-0.4,1.7-0.4c1.1,0,2.2,0.5,3,1.3c2.1-0.8,4.3-1.4,6.5-1.8c-0.1-0.4-0.8-3.7-0.8-3.7
				C174.9,106.8,167.7,110.1,161.6,114.9"/>
			<path id="Path-34" class="st0" d="M166,105.5c0-0.1,0-0.3,0-0.4c0-1.5,0.9-2.9,2.3-3.6c0.5-0.2,1.1-0.4,1.7-0.4
				c1.1,0,2.1,0.4,2.9,1.2c2.7-1,5.5-1.8,8.4-2.4c-0.4-1.5-0.6-2.4-0.8-2.9c-0.2,0-0.5,0-0.7,0c-1.3,0-2.6,0.2-3.8,0.6l-0.6,0.2
				c-1.3,0.4-2.6,0.6-3.9,0.7c-1.8,0.1-3.6-0.6-4.8-2c-0.6-0.6-0.8-0.7-0.8-0.7c-0.1,0-0.3,0.1-0.4,0.1c-0.4,0.2-0.4,0.2-0.4,0.5
				c0,0.2,0,0.5,0,0.7c0,0.3,0,0.6,0,0.9c0,3.4-3.1,5.6-4.7,6.6l-0.5,0.3c-1.3,0.8-2.4,1.8-3.3,3.1c0.3,0.4,0.8,1.2,1.8,2.5
				C160.7,108.6,163.2,106.9,166,105.5"/>
			<path id="Shape-16" class="st1" d="M254.6,98.1c1,1.4,2,2.7,2.9,3.7c-1.6,1.4-2.8,3.2-3.5,5.1l-1.6-0.4c0-0.7,0-1.4,0-2.1
				c0-1.8-0.2-3.6-0.5-5.4L254.6,98.1 M250.4,107.8l4.7,1.3c0.7-2.8,2.4-5.3,4.8-7c-1.7-1.9-3.2-3.9-4.7-6c-2,0.9-4.2,1.5-5.1,1.9
				c0.5,2.1,0.7,4.3,0.6,6.5C250.8,105.6,250.7,106.7,250.4,107.8"/>
			<path id="Shape-17" class="st1" d="M218.4,99.1c-0.3,1.8-0.5,3.6-0.5,5.4c0,0.7,0,1.4,0.1,2.1l-1.6,0.4c-0.7-2-1.9-3.7-3.5-5.1
				c0.9-1.1,1.9-2.3,2.9-3.7C216.8,98.5,217.6,98.8,218.4,99.1 M210.5,102.1c2.4,1.7,4.1,4.2,4.9,7l4.7-1.3
				c-0.3-1.1-0.4-2.2-0.4-3.3c0-2.2,0.2-4.4,0.7-6.5c-0.9-0.3-3.1-1.1-5.1-1.9C213.8,98.2,212.2,100.2,210.5,102.1"/>
			<path id="Shape-18" class="st1" d="M217.4,113.6l2.8-0.8c0.7,1.3,1.5,2.4,2.5,3.5c-2.1,0.8-4.2,1.5-6.3,2
				C216.9,116.9,217.3,115.3,217.4,113.6 M213,120.9c4.3-0.7,8.5-2,12.5-3.9c-1.8-1.8-3.3-3.9-4.4-6.1c-0.8,0.3-2.4,0.7-5.4,1.5
				C215.8,115.4,214.8,118.4,213,120.9"/>
			<path id="Shape-19" class="st1" d="M235.2,115.6c0.4,0.5,0.8,1,1.3,1.4l-1.3,0.7l-1.3-0.7C234.4,116.6,234.8,116.1,235.2,115.6
				 M231.2,117.3c1.3,0.9,2.6,1.7,4,2.5c1.4-0.7,2.8-1.5,4.1-2.4c-1.6-1.3-3-2.9-4.1-4.7C234.2,114.5,232.8,116.1,231.2,117.3"/>
			<path id="Shape-20" class="st1" d="M213.8,83.2c0.5,0,0.9,1.2,0.9,1.7c-0.1,1.5-0.6,3-1.3,4.3c-0.8-0.7-1.2-1.7-1.2-2.7
				C212.2,84.8,213.2,83.2,213.8,83.2 M214,91.8c1.3-2.1,2.2-4.5,2.4-6.9c0-1.2-1-3.3-2.6-3.3s-3.3,2.4-3.3,4.9
				C210.7,88.7,212,90.7,214,91.8"/>
			<path id="Shape-21" class="st1" d="M250.2,112.9l2.8,0.8c0.1,1.6,0.4,3.2,1,4.7c-2.1-0.5-4.2-1.2-6.2-2
				C248.7,115.3,249.6,114.1,250.2,112.9 M257.4,120.8c-1.8-2.5-2.8-5.5-2.7-8.5c-3-0.8-4.5-1.2-5.3-1.5c-1.1,2.3-2.6,4.4-4.4,6.2
				C248.9,118.9,253.1,120.2,257.4,120.8"/>
			<path id="Shape-22" class="st1" d="M224.9,101.3c2,0.6,3.9,1.4,3.9,1.4c-1.3-0.1-2.6,0.6-3.3,1.8l-0.8,0.2v-0.2
				C224.7,103.5,224.7,102.4,224.9,101.3L224.9,101.3z M231.9,107c0,0,0.3,2.8-3.2,5.9c-0.5-0.6-1.1-1.2-1.6-1.8
				C231.4,109.9,231.9,107,231.9,107L231.9,107z M226.6,106c0.2-0.1,0.4-0.1,0.5-0.2v-0.2c0-0.7,0.5-1.4,1.2-1.5c0.1,0,0.3,0,0.4,0
				c0.7,0,1.4,0.5,1.6,1.2c0.2,1.8-1,3.4-2.7,3.8l-3.2,0.9c1.1,2,2.5,3.7,4.2,5.2c3.2-2.3,4.8-5,4.8-8.1c0-4.3-4.7-6.3-9.9-8.1
				c-0.4,1.8-0.5,3.7-0.6,5.5c0,0.8,0.1,1.6,0.3,2.4L226.6,106z"/>
			<path id="Shape-23" class="st1" d="M256.6,83.2c0.6,0,1.6,1.5,1.6,3.2c0,1-0.4,2-1.2,2.7c-0.7-1.3-1.2-2.8-1.3-4.3
				C255.6,84.5,256,83.2,256.6,83.2 M259.9,86.4c0-2.5-1.5-4.9-3.3-4.9s-2.6,2.2-2.6,3.4c0.3,2.5,1.1,4.8,2.5,6.9
				C258.5,90.7,259.8,88.7,259.9,86.4"/>
			<path id="Shape-24" class="st1" d="M238.5,107c0,0,0.5,2.9,4.8,4c-0.5,0.6-1,1.3-1.6,1.8C238.3,109.8,238.6,107,238.5,107
				 M245.5,101.3c0.1,1,0.2,2.1,0.2,3.2c0,0.1,0,0.2,0,0.2l-0.8-0.2c-0.7-1.2-2-1.9-3.4-1.8C241.5,102.8,243.5,101.9,245.5,101.3
				 M241.9,115.2c1.7-1.5,3.1-3.2,4.1-5.2l-3.2-1c-1.8-0.4-2.9-2.1-2.6-3.9c0.2-0.7,0.8-1.2,1.6-1.2c0.1,0,0.3,0,0.4,0
				c0.7,0.2,1.2,0.8,1.2,1.5v0.2c0.2,0.1,0.3,0.2,0.5,0.2l3.3,0.9c0.2-0.8,0.3-1.6,0.3-2.4c0-1.8-0.2-3.7-0.5-5.5
				c-5.2,1.8-9.9,3.8-9.9,8.1c0,3.1,1.6,5.8,4.8,8.1"/>
			<polygon id="Path-35" class="st0" points="299,119.2 299.6,114.1 304.9,113.2 300,110.9 300.7,105.7 297,109.5 292.2,107.3 
				292.3,107.3 294.8,111.9 291,115.7 296.4,114.7 			"/>
			<path id="Shape-25" class="st1" d="M290.7,105.2c1.8-2.5,0.9-6.5,0.9-6.5h0.1c0.9,0.7,2,1.3,3.1,1.7c1.2,0.4,2.5,0.6,3.8,0.7
				c1.7,0.1,3.3-0.6,4.5-1.9c0.3-0.3,0.4-0.4,0.5-0.5c0.1,0.2,0.1,0.5,0,0.7c0,0.3,0,0.5,0,0.8c0,3.5,3.6,6,5.1,6.6
				c0.9,0.4,1.8,0.8,2.8,1v0.1c-1.8,0.8-3.3,2.3-4.1,4.1c-1.9,3.8-0.4,8.2-1.4,9.9c-0.8,1.6-2.5,2.6-4.4,2.6c-0.4,0-0.9,0-1.3-0.1
				l-2.7-0.7c-1.7-0.6-3.5-0.9-5.3-1h-0.1c-1.2-1.3-2.6-2.5-4.2-3.5l-2.4-1.7c-1.3-1-3-3.3-1.5-5.8S288.3,108.6,290.7,105.2
				 M282.4,111.1c-0.4,0.9-0.6,1.8-0.6,2.8c0,2.1,1,4.1,2.8,5.4l2.5,1.7c1.5,0.9,2.9,2.1,4,3.4l0.4,0.5h1.1c1.6,0.1,3.2,0.4,4.8,0.9
				l2.8,0.7c0.6,0.1,1.1,0.2,1.7,0.2c2.6,0,5-1.5,6.2-3.8c0.5-1.1,0.7-2.3,0.6-3.6v-1.9c0-1.1,0.1-2.2,0.3-3.3
				c0-0.2,0.1-0.5,0.2-0.7l0,0l0.3-0.7c0.9-1.5,2.2-2.7,3.8-3.4l0.7-0.6l-0.4-2.7l-0.8-0.1c-1-0.2-2-0.5-2.9-0.9
				c-0.8-0.4-3.9-2.3-3.9-4.8c0-0.2,0-0.3,0-0.5c0-0.3,0-0.6,0-0.8c0-0.8-0.5-1.6-1.3-1.8c-0.3-0.2-0.7-0.2-1-0.3
				c-0.7,0.1-1.4,0.5-1.8,1.1c-0.8,0.8-1.8,1.3-3,1.2c-1.1,0-2.1-0.2-3.1-0.6c-1.1-0.4-2.1-1-3-1.8l-0.6-0.6l-0.7,0.4l-1.1,0.7
				l-0.7,0.4l0.1,0.8c0.2,0.8,0.3,1.7,0.3,2.6c0,0.8-0.1,1.6-0.5,2.4l-0.4,0.7l-0.4,0.5c-0.9,1.2-2,2.2-3.2,3.1
				C284.1,108.5,283.1,109.7,282.4,111.1"/>
			<path id="Path-36" class="st0" d="M202.4,116.7c1.5,0,1.3-1.6,1.9-2.2s2.2-0.3,2.2-1.9s-1.6-1.3-2.2-1.8s-0.3-2.2-1.9-2.2
				c-1,0-1.5,0.7-1.5,1.8v4.4C201,115.9,201.5,116.7,202.4,116.7"/>
			<path id="Path-37" class="st0" d="M153.7,132.1c-0.8-0.7-1.7-0.8-2.4,0c-0.9,1.1,0.4,2,0.5,2.8s-1.1,1.9,0,2.8s2-0.4,2.8-0.5
				s1.9,1.2,2.9,0c0.6-0.7,0.4-1.5-0.5-2.3L153.7,132.1z"/>
			<path id="Shape-26" class="st1" d="M235.9,364c-45.5,0.4-87.4-24.7-108.5-64.9c-20.9-40.1-17.2-88.6,9.6-125
				c0.9-0.3,1.7-0.8,2.4-1.5c1.3-1.2,2.1-2.9,2.3-4.6c43.3-51.6,120.3-58.3,171.9-15c5.4,4.6,10.4,9.6,15,15
				c0.2,2.8,2.1,5.2,4.7,6.1c26.6,36.2,30.4,84.3,9.9,124.3C322.5,338.6,281.1,363.8,235.9,364z M144.2,160.7
				c-1.2,1.2-2.3,2.5-3.4,3.9c-0.1-0.2-0.2-0.4-0.4-0.6c-0.5-0.6-1.2-0.9-2-0.9c-0.5,0,0.3-0.4,1-0.6S144.2,160.7,144.2,160.7
				L144.2,160.7z M129.1,166.1c0-2.6,1.6-5,4.7-6.9c1-0.6,2-1.1,3.1-1.5l4.7-2l2.1-1h-1.2c-7.4,0-10.9-1.8-10.9-5.8
				c0.1-0.9,1-1.6,1.9-1.4c0.7,0.1,1.3,0.7,1.4,1.4c0,0.4,0.1,0.9,0.4,1.2c1.4,1.4,5.7,1.4,7.1,1.4c3.8-0.2,7.5-1.3,10.7-3.4
				c-2.7-0.3-5.3-1.4-7.4-3.2c-5.5-4.3-6.5-12.2-2.2-17.8c0,0,0.1-0.1,0.1-0.1c3-3.6,7.3-5.7,12-6c0.9,0.1,1.6,0.9,1.5,1.8
				c-0.1,0.8-0.7,1.4-1.5,1.5c-3.7,0.2-7.1,2-9.5,4.8c-1.5,1.9-2.2,4.3-1.9,6.6c0.3,2.6,1.6,5,3.7,6.6c1.8,1.5,4,2.3,6.3,2.4
				c2.9-0.1,5.5-1.5,7.2-3.8l0.4-0.3c2.5-2.7,5.8-6.7,6.6-7.8s3.5,0.8,2.3,2.3c-3.3,4.3-6.9,8.3-10.8,12c-0.6,0.6-0.6,0.6-0.7,0.6
				c-3.2,3-6.6,5.6-10.3,7.9l-6,3.1l0,0l-4.9,2.1c-0.9,0.3-1.8,0.7-2.6,1.2c-2.2,1.4-3.2,2.8-3.1,4.4c0,1.1,0.8,2.1,1.9,2.3
				c1.6,0,1.8-1.3,1.8-2.1c0-0.9,0.8-1.6,1.6-1.6c0.9,0,1.6,0.7,1.6,1.6c0,0,0,0,0,0c0.1,1.4-0.4,2.8-1.4,3.9c-1,1-2.4,1.6-3.9,1.5
				C131.7,172.1,129,169.5,129.1,166.1L129.1,166.1z M140.9,120.4v-2.9h1.3v-2.8h-3.8v2.8h1.3v2.9h-5.1v-2.9h1.3v-2.8h-1.3v-4.2
				h16.6c2.2,1.5,2.5,2.5,2.6,4.3h-9v2.7h1.3v2.9L140.9,120.4z M157,119.8c-0.5-0.3-1-0.4-1.6-0.4c-2.5,0.1-5,0.8-7.2,1.9V117h6.6
				C155.2,117.3,156.1,118.5,157,119.8L157,119.8z M159.9,132.8c1.1,0.8,1.7,2,1.8,3.3c0.1,1.3-0.3,2.6-1.1,3.6
				c-0.9,1-2.1,1.6-3.4,1.7c-0.7-0.1-1.4-0.2-2.1-0.4c-0.7,0.4-1.6,0.6-2.4,0.7c-2.7,0-4.8-2.1-4.9-4.8c0-0.6,0.2-1.2,0.3-1.8
				c-0.3-0.6-0.6-1.3-0.7-2c-0.1-1.3,0.3-2.6,1.1-3.6c0.9-1,2.1-1.6,3.4-1.7h0.4c1.2,0,2.3,0.4,3.2,1.2c0.1,0.1,0.2,0.2,0.3,0.3
				l4.9-5.8c0.9,0.2,1.7,0.6,2.3,1.2c0.5,0.7,0.8,1.6,0.9,2.5l-4.3,5.2C159.6,132.6,159.8,132.7,159.9,132.8L159.9,132.8z
				 M162.6,132.8l2.5-3c0.9,1,1.2,1.5,1.8,2.1c-1,1.2-2.1,2.6-3.3,4l0,0C163.5,134.8,163.2,133.7,162.6,132.8L162.6,132.8z
				 M157.3,101.5l0.6-0.4c1.2-0.8,3-2,2.8-3.3c-0.6-2.4,0.6-4.8,2.8-5.8c2.2-1,4.9-0.3,6.3,1.6c0.4,0.4,1,0.6,1.6,0.5
				c1.9,0,4.9-1.4,8.5-1.4c2.3,0,3.9,0.7,4.4,2.1c2.9,8.4,6.1,27.5,6.1,27.6c-3.8,0.3-7.6,1.3-11.1,2.8c-3.4,1.7-6.5,3.9-9.3,6.6
				c0,0-12.8-14.8-17.4-22.3c-1.3-2,0.6-4.9,5-8L157.3,101.5z M196.3,82.1l3.3,2.7l-0.8,1l2.2,1.7l0.8-1l2.3,1.9l-3.2,3.8l-2.3-1.9
				l0.9-1l-2.1-1.8l-2.5,2.9l2.1,1.8l0.8-1l2.3,1.9l-3.3,3.8l-2.3-1.9l0.8-1l-2.1-1.8l-5.6,6.6c0-0.1-0.1-0.1-0.1-0.2
				c-1.3-0.9-2-2.6-1.8-4.2L196.3,82.1z M205.7,89.8c0.8,2.1,2.3,3.9,4.1,5.2c-0.9,1.2-1.8,2.4-2.8,3.6c-1.2-0.4-2.4-0.6-3.7-0.6
				c-1.6,0-3.3,0.2-4.8,0.6L205.7,89.8z M197.4,120.4c-1.9,0-3.7,0-5.2-0.1c-0.1-0.9-0.2-1.4-0.4-2.7h3.9
				C196,118.6,196.6,119.6,197.4,120.4L197.4,120.4z M189,104.7l-0.7-3.1l4.3-5l3.3,2.8C192,101,189.4,103.6,189,104.7L189,104.7z
				 M189.4,110.4v-0.2h8c0-0.2,0-0.3,0-0.5c0.1-2.8,2.5-4.9,5.2-4.8c1.9,0.1,3.7,1.3,4.4,3.1c2.5,0.9,3.8,3.6,3,6.1
				c-0.5,1.4-1.6,2.5-3,3c-0.7,2-2.6,3.3-4.7,3.2c-2.7,0-4.9-2.2-5-4.9c0-0.2,0-0.3,0-0.5h-6.6l-0.1-0.1c-0.1-0.1-0.1-0.2-0.2-0.3
				C189.1,113.6,188.7,111.9,189.4,110.4L189.4,110.4z M184.7,130v-1c0-0.7,0.1-1.8,0.8-2.2c1.8-0.1,3.7-0.1,5.5,0
				c2,0,4.6,0.2,7.4,0.2c-5.2,1.6-10.4,3.6-15.4,5.8C184.1,132.3,184.8,131.2,184.7,130L184.7,130z M182.6,133
				c-5,2.3-9.8,5-14.5,7.9c1.9-2.1,3.5-4.1,4.7-5.8c1.1-1.5,2.2-2.9,3.5-4.2c0.9-0.3,2.2,0.8,2.5,1.2
				C179.8,133.2,181.3,133.5,182.6,133z M182.5,129.8c0.1,0.5-0.2,1-0.6,1.2c-0.5,0.2-1,0.1-1.3-0.3c-0.9-1-2.1-1.6-3.3-1.9
				c1.8-1.3,3.9-2.2,6-2.8C182.6,127.2,182.3,128.5,182.5,129.8L182.5,129.8z M213.8,78.3c3.4,0,5.9,3.5,5.9,6.6
				c-0.3,3-1.2,5.8-2.8,8.4c1.4,0.6,2.8,1.1,4.2,1.5c0.8-2.4,2-4.7,3.4-6.9l0.4-0.5l0.5,0.5c0.5,0.5,1.1,1.1,1.6,1.5l0.3,0.3
				l-0.2,0.4c-1.2,1.8-2.2,3.8-2.9,5.8c4.2,1.4,8.7,3.3,10.9,6.5c2.3-3.4,6.7-4.9,10.9-6.4c-0.7-2-1.7-3.9-2.8-5.7v-0.4l0.3-0.3
				c0.5-0.5,1-1,1.5-1.5l0.4-0.5l0.4,0.5c1.5,2.1,2.7,4.4,3.5,6.8c1.6-0.5,3.3-1.2,4.2-1.5c-1.6-2.5-2.5-5.4-2.8-8.4
				c0-3.1,2.6-6.6,6-6.6c3.5,0,6.6,3.7,6.6,8.2c0,3.4-1.6,5.9-5.1,8.1c1.4,2.1,3,4,4.7,5.9l3.3-0.9l-1.9,1.5
				c-1.3,0.8-2.3,2.1-2.8,3.5h-0.3c-1.3,0.2-2.3,1.3-2.2,2.7c0,0.2,0.1,0.3,0.1,0.5v0.2l-0.1,0.2c-0.7,1.4-1.1,3-1,4.6
				c0,0.6,0.1,5.9,4.8,8.2l0.2,0.1l0.2,1.3l1.1,0.9l0.6,1.3l0.7,0.6l-1.5-0.1c-13.7-1.2-20.5-4.8-22-5.7c-1.4,1-5.6,3.8-7,3.8
				s-5.6-2.8-7-3.8c-1.9,1-12.1,6.1-28,6.1c-2.6,0-5.7,0-8-0.1c-0.8,0-1-3.2,0-3.2s6.4,0,9.1,0h0.8c7.6,0,10.3-4.9,10.3-9.4
				c0.1-5.2-3.8-9.5-9-9.9c-3.7-0.1-7.3,1.4-9.9,4.1c-0.3,0.4-0.8,0.6-1.2,0.6c-0.4,0-0.8-0.1-1.1-0.4c-0.3-0.3-0.5-0.7-0.6-1.1
				c-0.1-0.4,0.1-0.9,0.4-1.2c3.2-3.4,7.7-5.3,12.4-5.3c1.5,0,2.9,0.3,4.3,0.9c1.7-1.9,3.2-3.8,4.7-5.9c-3-1.6-4.9-4.7-5-8.1
				C207.3,82.1,210.3,78.4,213.8,78.3L213.8,78.3z M222.9,87.5c-1.1,1.6-2,3.4-2.7,5.2l-0.8-0.3c1.1-2.1,1.8-4.3,2.1-6.7
				C221.9,86.4,222.4,87,222.9,87.5L222.9,87.5z M242.6,92.1c0.5,0.9,1,1.8,1.4,2.7c-3.2,1-6.2,2.7-8.8,5c-2.5-2.2-5.5-3.9-8.7-4.9
				c0.4-0.9,0.9-1.8,1.4-2.7c2.2,1.6,4.8,2.5,7.4,2.6C237.9,94.6,240.4,93.7,242.6,92.1L242.6,92.1z M251,92.4l-0.8,0.3
				c-0.7-1.8-1.6-3.5-2.7-5.1c0.5-0.6,1-1.2,1.4-1.8C249.3,88.1,249.9,90.3,251,92.4L251,92.4z M235.3,91.6
				c-4.9,0-11.4-6.4-14.7-13.5h4.3c2.6,5.2,7,9.6,10.4,9.6s7.8-4.5,10.4-9.6h4.3C246.7,85.3,240.2,91.6,235.3,91.6L235.3,91.6z
				 M213.8,72.6h42.3v3.2h-42.3V72.6z M228.8,58.9c1.6,0,3.2,0.3,4.7,1V47.8h-5.9v-3.7h6v-6h4.1v6h6v3.7h-6v11.9
				c1.3-0.5,2.7-0.8,4.1-0.8c6.2,0,10.6,4.6,10.6,11.3v0.2h-3.9c-0.2-3.7-2.4-7.6-7.2-7.6c-2.4,0.1-4.5,1.4-5.8,3.4
				c-1.2-2.1-3.4-3.3-5.8-3.4c-5.2,0-7.1,3.9-7.2,7.6h-4v-0.2C218.2,63.5,222.5,58.9,228.8,58.9L228.8,58.9z M268,91.2
				c0.6,1.2,1.4,2.4,2.4,3.3v0.1c-1.1,1.2-2.4,2.3-3.7,3.4c-1.2,0.1-2.4,0.3-3.5,0.6c-0.7-0.8-1.8-2.1-2.9-3.6
				c2-1.3,3.6-3.3,4.4-5.6C265.7,90.3,266.8,90.9,268,91.2L268,91.2z M262,118.2c-1.5-1.5-2.3-3.5-2.3-5.7l0,0
				c0-0.8,0.1-1.6,0.3-2.3c0.6,0.4,1.3,0.6,2,0.6l0.8,0.8c-0.4,0.9-1,1.7-1.5,2.4l-0.4,1.9C261.4,116.7,261.7,117.4,262,118.2
				L262,118.2z M279.5,126.8c1.6,0,3.7-0.1,4.8,0c0.5,0.3,0.9,0.6,1.2,0.9c0.1,0.8,0.2,1.5,0.1,2.3c0,1.2,0.7,2.2,1.7,2.8
				c-5-2.3-10-4.2-15.2-5.8C274.9,127,277.4,126.9,279.5,126.8L279.5,126.8z M269.2,120.3l-0.7-0.8c-0.1-1.1-0.2-2-0.4-3.1
				c0.1-0.3,0.1-0.7,0-1l1.4-1.7v1c0.2,0.2,0.9,1,0.9,1l0.6,0.1c0.2,0.1,0.5,0.2,0.7,0.4l2.4,2.2l2,0.3l0.1,0.1
				c0.2,0.5,0.5,1,0.8,1.4c-2.3,0-5,0.1-8,0L269.2,120.3z M270.2,124.5c0.1-0.3,0.2-0.7,0.2-1c0-0.3-0.1-0.6-0.1-0.9V122
				c0,0,6.9-0.1,8.8-0.1s2.5,3.1,0.7,3.1l-9.8,0.2L270.2,124.5z M304.3,133c0.7,0.1,1.4,0.1,2.1,0c0.2,0.3,0.2,0.4,0.4,0.6
				c-0.1,1,0.2,2.1,0.9,2.8l1.9,0.7c-0.2,0.4-0.5,0.8-0.8,1.1C307.1,136.4,305.6,134.6,304.3,133L304.3,133z M302.1,140.8
				c-4.6-2.9-9.4-5.6-14.4-7.9c1.3,0.3,2.6-0.1,3.6-0.9c0.5-0.4,1-0.8,1.6-1.1c0.5,0.1,1,0.2,1.5,0.4c0.8,0.8,2.1,2.5,3.1,3.7
				c1.3,1.6,2.9,3.6,4.7,5.8L302.1,140.8z M298.8,133.8c-1.5-1.9,2-2.7,2.6-2c1.8,2.3,3.9,4.9,6.2,7.5l0.8,0.9h-1.2
				c-0.7,0.1-1.3,0.3-1.9,0.6l-0.4,0.2l-0.4-0.3C302.3,138.2,300.4,135.7,298.8,133.8L298.8,133.8z M267,85.9l1.7,0.3l-0.5-1.3
				l1.4,0.7l0.1-1.7l1.1,1l0.4-1.5l1,2.4c0.7,0.1,1.3,0.4,1.9,0.9c0.4,0,1.8,0.1,2,0.9c0.4,1.3-2.4,1.8-2.4,2.1s0.7,0.7,1.4,1.2
				c1.3,0.9,2.4,2,3.3,3.3c0.3-0.4,1.2-1.4,1.5-1.7c0.7-0.8,1.4-1.5,2.1-2.1c1-0.4,2.1,1.1,2.8,1.5c0.9,0.6,1.7,1.4,2.3,2.2l4.9-2.9
				c1.2,2.4,3.7,4,6.4,4c0.6,0.1,1.2-0.1,1.7-0.5c1.4-1.9,3.9-2.5,6.1-1.6c2.1,1,3.3,3.3,2.7,5.6c-0.2,1.2,2,2.9,2.9,3.3
				c1.1,0.6,2.4,0.9,3.6,0.9l1.6-0.2l1.2,7.4c-5.8,3.1-6.1,3.1-6.1,9.1c0.2,2.1-0.1,4.2-0.9,6.2c-0.6,1.2-1.4,2.3-2.5,3.2
				c-0.1,0.1-0.2,0.2-0.4,0.2c0,0.2-0.1,0.4-0.1,0.7l1.6,2.7c1.2-0.9,2.4-1.9,3.4-3.1c0.1-1.3,0.1-2.6-0.1-3.8c0,0,0.7-1.3,0.7-5.9
				c0-4.2,0.3-5,1.8-6c1.1-0.8,2.3-1.5,3.5-2.2c-0.3,1.5-2.6,2.4-2.6,3.2c0,0.6,0.2,1.2,0.7,1.5l0.4-0.4c0.4-0.3,1-0.5,1.5-0.4
				c0.7-0.7,1.6-1.1,2.5-1.4c0.9,0,1.7,0.2,2.5,0.6l0.4-0.5c-0.4-0.5-0.6-1.1-0.7-1.7c0-0.7-0.6-1.3-1.8-0.9l0.4-0.8
				c0.4-0.6,1-0.9,1.7-0.7c0.5-0.2,1-0.2,1.5,0l1.4-1.7l0.2,1.4h1l-0.2,1.2l1.1,0.2l-0.2,0.9l1,0.6l-2,0.7c0.1,1.4-0.6,2.7-1.7,3.5
				c0.1,0.2,0.2,0.5,0.2,0.7c0,1.2-0.9,2.3-2.1,2.5l-0.2,1.8c0.4,0.3,0.9,0.5,1.4,0.6c3.9-0.2,3.6-6.5,6.1-6.4s2.6,2.3,2.8,4
				c0.3,3.1,1.3,5.1-0.1,10.7c-0.7,3.1-1.9,6.1-3.5,8.8c0.2-0.8,0.4-1.7,0.5-2.6v-1.4c0.1-3.3-1-6.5-3.1-9c-0.7-0.9-1.8-1.5-3-1.5
				c-0.9,0-1.8,0.3-2.4,1c-0.5,0.6-0.8,1.4-0.8,2.2c0,1,0.4,2,1.1,2.7c1,1.3,1.6,2.9,1.6,4.6v0.7c-0.2,2-1.2,3.9-2.8,5.2v-0.4
				c0.3-1,0.6-2.1,1-3.1c0.1-0.6,0.2-1.3,0.2-1.9c0.2-1,0.4-1.9,0.8-2.8c-0.8,0.4-2.5,2.4-3.6,2.4h-0.8v2.6c0,0.4-1,5-1,5h-0.1
				L317,143l0,0c0,0-1.1-0.9-1.3-1l0.8-4.3l-1.3,2.9c0,0-0.4-0.7-0.8-1.3c-0.2-0.2-0.5-0.4-0.8-0.3l-2.3,4c0.6,0.8,1.1,1.6,1.5,2.6
				l-0.5,0.2c-0.1-0.2-0.9-1.4-1.8-1.4c-0.5,0-1.6,1.1-1.7,1.3l-0.5-0.2c0.2-0.5,0.4-1,0.7-1.4c-0.3-0.1-0.7-0.2-1-0.1
				c-0.7,0.1-1.3,0.4-1.9,0.7l-0.2-0.5c0.6-0.5,1.2-0.9,2-1.1c-0.1-0.2-0.3-0.3-0.5-0.4h-1.1v-0.4c0.3-0.2,0.7-0.3,1.1-0.4
				c1.1,0,1.6,0.7,2.7,0.6l2.2-4.3c-0.1-1.8,0.8-1.9,0.7-3.2c0-0.5,0.1-0.9,0-0.9c-1.1,0.3-2.1,0.6-3.2,0.9c-0.6,0-0.4-1.5-0.5-1.9
				l-1.4-2.3c-0.9,0.4-1.9,0.5-2.9,0.3l-0.2-0.3l0,0c-1.6,0.4-3.4,0.4-5,0l0,0l-3.8-1c-0.9-0.3-1.9-0.5-2.8-0.7
				c-1.1,0.5-2.2,1.1-3.1,1.9c-0.4,0.3-0.9,0.4-1.3,0.3c-0.4-0.2-0.7-0.7-0.6-1.2c0.2-1.2,0-2.3-0.5-3.4c-0.9-0.7-1.8-1.3-2.7-1.9
				l-3.2-2.3l-0.2-0.1c-1.6-1.2-2.8-2.9-3.5-4.8h-0.2l-0.6-0.7l-2.1-0.3c-1-1.1-2.2-2-3.5-2.6l-0.5-0.7c0.1-0.6,0.1-1.2-0.1-1.8
				c-0.2-0.5-0.5-0.8-0.9-1.1c-0.3,0.4-1.2,1.6-1.9,2.7c-0.7,1-1.6,1.9-2.5,2.6c0.3,1.5,0.6,3.1,0.7,4.6c0.3,0.3,0.6,0.6,0.8,1
				c0.6,0.6,1.1,1.3,1.5,2c0.1,0.1,0.1,0.3,0,0.4c-0.1,0.1-0.2,0.3-0.3,0.3c-0.6,0.1-1.2-0.1-1.7-0.5l-0.5-0.3l-0.3-0.9l-1-0.9
				c-0.1-1.4-0.4-2.8-0.8-4.1c-0.2-0.6-0.5-1.2-0.7-1.7l0.1-0.6c0.7-0.9,2.2-3.1,1.8-4.1c-0.3-0.4-0.6-0.8-1-1.1
				c-0.5-0.4-0.8-0.8-1.1-1.3c-0.4,0.2-0.9,0.2-1.3,0.1c-0.4-0.2-0.8-0.5-1-0.9c-0.1-0.3-0.1-0.7,0-1c0.2-0.6,0.9-0.8,0.8,0
				c0,0.1,0,0.3,0,0.4c0.2,0.4,0.8,0.2,1.2,0.1c-0.1-1,0.2-2,0.7-2.8c0.7-1,1.6-1.8,2.6-2.4c1.1-1.2,2.3-2.4,3.6-3.4
				c1.4-1,2.5-2.2,3.4-3.7l-0.4-1.6c-1.2-0.9-2.1-2.1-2.6-3.5c-0.1-0.2-0.1-0.4-0.2-0.6c-0.9-0.1-3.3-0.7-3.6-1.7l2.3-0.3L267,85.9z
				 M329.7,164.6c-1.7-2-2.3-2.7-4.2-4.5l5.3,2.3c1,0.4,1.4,0.8,1.2,0.8C331.1,163.2,330.2,163.8,329.7,164.6L329.7,164.6z
				 M329.6,136.2c-0.3,3.5-2.1,6.7-4.8,8.8c-2.1,1.8-4.7,2.9-7.4,3.2c3.2,2,6.9,3.2,10.7,3.4c6.7,0,7.6-1.4,7.6-2.5
				c0-0.9,0.8-1.6,1.6-1.6c0.9,0,1.6,0.7,1.6,1.6c0,5.8-7.6,5.8-10.9,5.8h-1.2l2,1l4.8,2.1c1,0.4,2,0.9,3,1.5c3.1,1.9,4.7,4.3,4.7,7
				c0.1,3.1-2.3,5.7-5.3,5.9c-1.4,0-2.8-0.6-3.7-1.6c-1-1-1.4-2.4-1.3-3.8c0-0.4,0.1-0.9,0.5-1.2c0.3-0.3,0.8-0.5,1.2-0.4
				c0.9,0,1.6,0.7,1.6,1.6c0,0,0,0,0,0c0,1.7,1,2.1,1.5,2.1c1.3-0.2,2.2-1.3,2.1-2.6c0-1.5-1-2.9-3.1-4.2c-0.8-0.5-1.7-0.9-2.6-1.2
				l-4.9-2.1l-5.8-2.9h-0.1c-3.4-2.1-6.5-4.4-9.5-7.1l-1.3-1l0.3-0.2c0,0,2.2,0.8,2.8,0s0.2-2.7,0.2-2.7l0.8,0.1h1.1
				c2.4-0.1,4.7-0.9,6.6-2.4c2.1-1.6,3.4-4,3.7-6.6c0-0.3,0-0.6,0-0.9c0-2.1-0.6-4.1-2-5.8c-0.4-0.4-0.6-1-0.7-1.5
				c0-0.4,0.1-0.7,0.4-1c0.3-0.3,0.7-0.5,1.1-0.5c0.7,0.1,1.3,0.4,1.7,1c1.8,2.2,2.8,5,2.7,7.8c0,0.4,0,0.8,0,1.2L329.6,136.2z
				 M337.3,174.6c3.8-0.9,6.5-4.2,6.5-8.1c0-2.5-1-6.1-5.9-9.1c-0.6-0.4-1.3-0.7-1.9-1c3.3-0.9,5.6-4,5.4-7.4c0-1.7-1-3.1-2.6-3.7
				c-1.5-0.6-3.3-0.3-4.5,0.9c-0.7,0.7-1.1,1.5-1.2,2.4c-1.7,0.5-3.4,0.6-5.1,0.5c-1.3,0-2.7-0.2-4-0.6c1.4-0.9,2.8-1.9,4-3.1
				c0.9-0.8,3.2-1.5,4.3-3.2c2.3-3.5,3.9-7.3,4.8-11.4c0.5-1.9,0.7-3.9,0.8-5.8c0-1.3-0.1-2.7-0.4-4l-0.2-1.8
				c-0.1-1.4-0.5-5.3-3.9-6.4c0,0-5.9-8.7-6-9s-0.5-0.4-0.7-0.1l-2.5,2.8c-0.9,0-1.7,0.2-2.5,0.5c-0.2-0.2-0.4-0.4-0.6-0.6
				c-0.2-0.2-0.4-0.3-0.6-0.4l-1-6.7l-0.8,0.1l-3.6,0.6c-0.7-0.1-1.4-0.4-2-0.7c-0.4-0.2-0.8-0.5-1.1-0.9c0.2-3.5-1.8-6.8-5-8.2
				c-3-1.2-6.4-0.4-8.6,1.9c-0.5-0.1-1-0.2-1.5-0.3c-0.6-0.2-1.1-0.5-1.5-0.9l-2.3-3.9l-5.4,3.2c-3.2-2.6-4.7-3.5-6.8-2.7
				c-0.8,0.4-1.6,0.9-2.1,1.7c0.2-0.4,0.3-0.9,0.4-1.4c0-1-0.4-2-1.1-2.7c-0.7-0.7-1.8-1.2-2.8-1.1c-0.3-0.2-0.5-0.3-0.8-0.5
				l-1.9-4.5c-0.1-0.1-0.2-0.2-0.4-0.3c-0.2,0-0.3,0-0.5,0.1l-6.4,5.1c-0.7-3.6-3.4-6.6-7-7.5v-6.1h-3.1v-0.2
				c0-8.3-5.7-14.4-13.6-14.4c-0.4,0-0.8,0.1-1.2,0.1v-5.4h6v-9.2h-6v-6h-9.8v6h-6v9.2h6v5.5c-0.6-0.1-1.2-0.2-1.9-0.2
				c-8,0-13.6,5.9-13.6,14.5h-3.6v6.1c-3.8,1.3-6.5,4.7-6.8,8.7L202,83l-5.5-4.5l-0.6-0.5l-11.3,13.1c-1.5-0.9-3.3-1.4-5.1-1.3
				c-2.7,0.2-5.4,0.7-8.1,1.3c-2.3-2.7-6.2-3.4-9.3-1.9c-2.9,1.2-4.7,4-4.7,7.1c0,0.4,0,0.8,0.1,1.1c-0.4,0.4-0.9,0.7-1.4,1.1
				l-0.6,0.4c-4,2.9-6.2,5.7-6.5,8.5h-17.4v15.9h12.1c-3.5,2.8-5.5,7.1-5.4,11.6c0.2,5.6,3.2,10.7,8.1,13.4
				c-1.3,0.4-2.7,0.6-4.1,0.6c-1.7,0.1-3.4-0.1-5.1-0.5c-0.1-2.3-2.1-4-4.4-3.9c-2.3,0.1-4,2.1-3.9,4.4c0,3.3,2.2,6.2,5.4,7.2
				c-0.6,0.3-7.8,3.4-7.8,10c-0.1,3.9,2.7,7.4,6.5,8.2c-30.5,43.4-29.3,101.6,2.9,143.7c32.2,42.3,88.2,59.4,139,42.5
				s84.8-64.1,84.4-117c-0.1-24.8-7.9-48.9-22.1-69.1L337.3,174.6z"/>
			<path id="Shape-27" class="st1" d="M237,332.1v-86.6h87.3C323.6,292.9,284.9,331.2,237,332.1L237,332.1z M237,156.5
				c47.7,0.9,86.3,38.8,87.3,86H237V156.5z M234,242.5h-87.4c1-47.2,39.6-85.2,87.4-86L234,242.5z M234,332.1
				c-48-0.8-86.7-39.1-87.4-86.6H234V332.1z M327.3,244.3c-0.1-36.9-22.5-70-56.7-83.9c-34.3-14.1-73.7-6.3-100.1,19.7
				c-26.2,25.8-34.1,64.9-19.9,98.9c14.4,34,47.9,56.1,84.9,56C286.1,335,327.2,294.4,327.3,244.3L327.3,244.3z"/>
			<path id="Path-38" class="st0" d="M162.1,310.1c-0.3-0.4-1.1-1.4-2-2.4c-0.2-0.2-0.4-0.3-0.6-0.2s0,0.3,0,0.5
				c1.1,1.2,1.1,1.4-1.2,3.4l-7.3,6.4c-0.2,0.2-0.3,0.2-0.8-0.4c-1.3-1.5-1-3.2,0.7-4.6c0.5-0.6,1.2-0.9,2-0.9c0.7,0,1.5,0.3,2,0.8
				c0.3,0.4,0.5,0.4,0.7,0.3s-0.1-0.6-0.3-0.7c-1.6-2.1-4.5-2.5-6.6-0.9c-0.1,0.1-0.2,0.2-0.3,0.3c-1.9,1.5-1.2,4,0.5,5.9l2,2.1
				c0.4,0.4,1.1,1.4,1.8,2.1c0.2,0.3,0.4,0.3,0.5,0.2s0.1-0.3,0-0.5c-0.8-0.9-0.9-1.3,0.2-2.2l7.2-6.1c1.9-1.6,2.3-1.6,3-0.8
				c0.1,0.2,0.3,0.3,0.4,0.1s0.1-0.3-0.1-0.6c-0.5-0.6-1.4-1.5-1.7-1.8"/>
			<path id="Shape-28" class="st1" d="M139,302.7c-1.7-2.7-0.7-6.2,3.1-8.5c4.8-2.9,7-0.5,7.7,0.6c2,3.2,0.4,6.7-3.1,8.8
				C142.6,306.2,140.2,304.6,139,302.7 M151.1,295c-2.2-3.9-7-5.2-10.9-3.1c-0.1,0.1-0.3,0.2-0.4,0.2c-3.9,2.3-4.7,6.5-2.1,10.8
				c1,1.9,2.7,3.3,4.8,3.9c2.1,0.6,4.3,0.3,6.2-0.8c1.9-1,3.2-2.8,3.6-4.9C152.8,299,152.4,296.8,151.1,295"/>
			<path id="Path-39" class="st0" d="M144.3,285c0.1,0.3,0.2,0.4,0.4,0.3s0.2-0.3,0.1-0.6c-0.4-1-0.7-1.8-0.8-2s-0.4-1.1-0.8-2.3
				c-0.1-0.3-0.3-0.5-0.5-0.4s-0.2,0.2,0,0.5c0.4,1.1,0.3,1.7-1.6,2.4l-7.6,2.8l6.4-13.3c0.2-0.2,0.2-0.5,0.2-0.8
				c-0.1-0.2-0.3-0.3-0.8-0.1l-11.8,4c-1.2,0.4-1.6,0.4-2-0.6c-0.1-0.3-0.2-0.4-0.4-0.4s-0.2,0.3-0.1,0.6c0.3,0.9,0.7,1.5,0.8,1.8
				s0.4,1.3,0.7,2.3c0.2,0.4,0.3,0.6,0.5,0.5s0.2-0.2,0.1-0.5c-0.4-1.2-0.3-1.5,1.2-2.1l8.1-3.1l-6.6,13.2c-0.2,0.3-0.3,0.7-0.2,1.1
				c0.1,0.2,0.4,0.2,0.8,0l11.4-3.9C143.7,283.7,143.9,284,144.3,285"/>
			<path id="Path-40" class="st0" d="M126.7,269.9c0.2,0,0.4-0.1,0.4-0.4c0-0.2-0.2-0.3-0.4-0.3c-0.7,0-1.2-0.4-1.6-1.9l-0.6-2.7
				l9.8-1.7c3.1-0.5,3.3-0.4,3.5,0.7c0,0.2,0.1,0.4,0.3,0.3s0.3-0.2,0.2-0.5c-0.1-0.8-0.4-2-0.5-2.4s-0.2-1.8-0.5-3.1
				c0-0.3-0.2-0.5-0.4-0.4c-0.2,0.1-0.3,0.3-0.2,0.4c0.3,1.5,0.1,1.8-3.1,2.3l-9.6,1.6l-0.3-2.4c-0.3-1.7,0-2.2,0.8-2.4
				c0.4-0.1,0.4-0.2,0.4-0.4s-0.2-0.2-0.4-0.2l-2.3,0.3c-0.4,0-0.5,0.1-0.5,0.4c0.3,0.6,0.4,1.2,0.5,1.8l1.6,8.7
				c0.1,0.6,0.1,1.2,0,1.8c0,0.2,0.2,0.2,0.5,0.3c0.8,0,1.5,0,2.3,0"/>
			<path id="Path-41" class="st0" d="M122.2,252.7c0-1.1,0.2-1.2,1-1.3s1.2-0.1,4.2-0.3l3.4-0.2c1.4-0.1,2.8-0.1,4.3-0.1
				c0.9,0,1,0.3,1.1,1.1c0,0.2,0.1,0.4,0.2,0.4s0.3-0.2,0.3-0.5c0-0.8-0.2-2-0.2-2.5s0-1.8,0-3.1c0-0.3-0.2-0.5-0.3-0.5
				s-0.3,0.2-0.2,0.4c0,1.1,0,1.6-0.8,1.7s-2.4,0.2-4.3,0.3l-3.4,0.2c-3,0.1-3.5,0.2-4.2,0.2c-0.9,0-1.1-0.3-1.1-1.2
				c0-0.2-0.1-0.4-0.3-0.4s-0.2,0.2-0.2,0.5c0,0.8,0.2,1.9,0.2,2.4s0,1.8,0,2.6c0,0.4,0.1,0.6,0.3,0.6S122.2,252.8,122.2,252.7"/>
			<path id="Path-42" class="st0" d="M121.6,241.2c0.2,0,0.2-0.1,0.3-0.4c0.1-1.4,0.4-1.5,2.4-1.4l8.8,0.6c2.7,0.2,2.8,0.5,2.8,1.5
				c0,0.2,0,0.4,0.2,0.4s0.3-0.1,0.3-0.5c0-0.8,0.1-2,0.1-2.5s0.2-1.7,0.2-3c0-0.4-0.1-0.5-0.2-0.5s-0.3,0.2-0.3,0.4
				c-0.1,1.5-0.2,1.8-3,1.5l-3.1-0.2c-0.1,0-0.1,0-0.1-0.2s0.2-2.3,0.2-2.8c0.1-0.6,0.6-1,1.2-0.9c0,0,0,0,0.1,0
				c0.2,0,0.4-0.1,0.4-0.2s-0.2-0.3-0.4-0.3c-0.9-0.1-1.8-0.2-2.6-0.4c-0.1,0-0.3,0-0.3,0.2s0.6,0.3,0.5,1.2l-0.2,3.2
				c0,0,0,0.1-0.1,0.1l-5.7-0.4c0,0-0.1,0-0.1,0c0,0,0-0.1,0-0.1l0.2-3c-0.1-0.5,0.2-0.9,0.6-1.2c0.2-0.1,0.5-0.1,0.7-0.1
				c0.3,0,0.4,0,0.4-0.3s-0.1-0.3-0.3-0.3s-1.4-0.2-1.6-0.2l-0.7-0.2c0,0-0.1,0-0.1,0c-0.2,0-0.3,0-0.3,0.2c0,0.1,0,0.1,0,0.2l0,0
				c0,0.3,0,0.6,0,0.8c0,0.4-0.3,4.4-0.3,5.2s-0.2,1.8-0.2,2.8C121.3,240.9,121.3,241.1,121.6,241.2"/>
			<path id="Path-43" class="st0" d="M123.4,226.1c0.2-1.1,0.5-1.1,1.3-1.1s1.2,0.2,4.1,0.7l3.4,0.6c1.9,0.4,3.4,0.6,4.2,0.9
				s0.9,0.6,0.8,1.4c0,0.2,0,0.4,0.1,0.4s0.3-0.1,0.4-0.4c0.1-0.8,0.3-2,0.4-2.5s0.4-1.7,0.7-3c0-0.3,0-0.5-0.2-0.6
				s-0.3,0.1-0.3,0.4c-0.2,1.1-0.4,1.5-1.2,1.5c-1.4-0.2-2.8-0.4-4.2-0.7l-3.4-0.6c-2.9-0.6-3.5-0.6-4.1-0.8c-0.8-0.2-1-0.5-0.8-1.4
				c0-0.2,0-0.4-0.2-0.5s-0.3,0.1-0.3,0.5c-0.1,0.7-0.3,1.9-0.4,2.4s-0.4,1.8-0.6,2.5c0,0.4,0,0.6,0.2,0.6S123.4,226.3,123.4,226.1"
				/>
			<path id="Path-44" class="st0" d="M132.1,216.6c5.3,1.9,9.1-1.5,10.7-6.1c0.4-1.1,0.7-2.3,0.8-3.5c0-0.3-0.2-0.6-0.4-0.8
				c-0.7-0.5-1.5-0.9-2.4-1.3c-0.2,0-0.4,0-0.4,0.1s0,0.3,0.3,0.5c1.4,1,1.7,2.1,0.8,4.7c-1.1,3.2-4.2,5-8.6,3.5
				c-3.4-1.3-5.3-3.6-4.1-7.1c0.8-2.2,2.4-4.1,4.4-3.4c0.2,0.1,0.5,0.1,0.6-0.1c0.1-0.1-0.1-0.3-0.4-0.5l-2-0.8
				c-0.6-0.2-0.8-0.4-1-0.4s-0.3,0-0.4,0.3c-0.8,1.4-1.5,2.9-2.1,4.4C126.2,210.4,127.5,215.1,132.1,216.6"/>
			<path id="Path-45" class="st0" d="M133,196c0.5-1,0.8-0.9,1.6-0.7s1.1,0.5,3.8,1.8l3.1,1.5c1.3,0.6,2.5,1.3,3.7,2
				c0.7,0.5,0.7,0.8,0.4,1.5c-0.1,0.2-0.1,0.4,0,0.5s0.4,0,0.5-0.3c0.3-0.7,0.9-1.8,1.1-2.2s0.9-1.5,1.5-2.7c0.1-0.3,0.1-0.5,0-0.6
				s-0.3,0-0.4,0.3c-0.5,1-0.9,1.4-1.6,1.1s-2.2-1-3.9-1.9l-3.1-1.5c-2.7-1.3-3.1-1.5-3.7-1.9c-0.5-0.2-0.7-0.8-0.5-1.3
				c0-0.1,0.1-0.2,0.1-0.2c0.1-0.2,0.1-0.4-0.1-0.5s-0.3,0-0.5,0.4c-0.4,0.7-0.8,1.7-1,2.2s-0.9,1.5-1.2,2.3c-0.2,0.4-0.2,0.6,0,0.6
				c0.2,0.1,0.4,0,0.4-0.2c0,0,0,0,0,0"/>
			<path id="Shape-29" class="st1" d="M150.4,184.3l-2.4,3.4l-3.4-4.9h0.1L150.4,184.3z M148.9,192c0.8,1.2,0.9,1.8,0.2,2.8
				c-0.1,0.1-0.1,0.3,0,0.4s0.3,0,0.5-0.2c0.6-0.8,1.2-1.7,1.3-1.9c0.3-0.5,0.9-1.2,1.2-1.7c0.1-0.2,0.2-0.4,0-0.5s-0.3,0-0.6,0.3
				s-0.6,0.5-0.9,0.4c-0.3-0.3-0.6-0.6-0.8-0.9l-1.2-1.8c-0.1-0.1-0.1-0.2,0-0.2l2.8-3.9c0,0,0.1-0.1,0.2-0.1l3.5,0.8
				c0.2,0-0.3,0.9-0.3,1s-0.1,0.3,0,0.4s0.4,0,0.7-0.4s0.9-1.3,1.2-1.8s0.9-1.1,1.1-1.5c0.5-0.7,0.5-0.9,0.4-1s-0.3,0-0.4,0.1
				c-0.5,0.8-1.7,0.6-2.9,0.4c-3.2-0.6-11.6-2.6-12.7-2.8c-0.6-0.1-0.8-0.1-0.9,0s0,0.5,0.4,1L148.9,192z"/>
			<path id="Path-46" class="st0" d="M156.7,163.1c1-0.9,1.3-0.8,2.7,0.7l3.8,4.4c2.9,3.5,5.9,3.8,9.1,1.1c3.5-2.9,2.9-6.1,0-9.5
				L169,156c-1.3-1.5-1.5-1.8-0.5-2.5c0.2-0.2,0.3-0.4,0.2-0.5s-0.3-0.1-0.6,0.1c-0.6,0.5-1.1,1-1.7,1.5s-1.1,0.8-1.8,1.4
				c-0.3,0.2-0.4,0.4-0.2,0.5s0.3,0.1,0.5,0c1.1-0.9,1.4-0.7,2.6,0.8l3.5,4.1c2.5,3.1,3.1,5,0.8,6.8c-2.5,2.1-4.6,0.7-6.6-1.7
				l-3.7-4.3c-1.2-1.5-1.3-1.9-0.5-2.5c0.2-0.2,0.2-0.3,0.1-0.5s-0.3-0.1-0.6,0.1c-0.5,0.4-1.2,1.1-1.8,1.5s-1.5,1.1-2.3,1.8
				c-0.3,0.2-0.3,0.4-0.2,0.6S156.5,163.4,156.7,163.1"/>
			<path id="Path-47" class="st0" d="M180.8,159.4c0.9,1.7,0.6,1.9-0.2,2.4c-0.3,0.1-0.3,0.3-0.3,0.4s0.3,0.2,0.6,0
				c0.9-0.5,1.7-1,1.9-1.1s1.1-0.5,2.2-1.1c0.3-0.2,0.4-0.4,0.3-0.5s-0.2-0.1-0.5,0c-1.1,0.6-1.7,0.6-2.6-1.1l-4-6.9l14.4,4.2
				c0.3,0.1,0.6,0.1,0.9,0c0.2-0.1,0.2-0.4,0-0.8l-5.9-10.8c-0.6-1.1-0.6-1.5,0.3-2c0.3-0.1,0.4-0.3,0.3-0.4s-0.3-0.1-0.6,0
				c-0.6,0.3-1.1,0.6-1.7,1c-0.1,0.1-1.2,0.6-2.1,1.1c-0.3,0.2-0.5,0.4-0.4,0.6s0.3,0.1,0.5,0c1.2-0.6,1.6-0.5,2.3,0.8l4.4,7.4
				l-14.1-4.3c-0.4-0.1-0.8-0.1-1.2,0c-0.2,0.1-0.2,0.4,0,0.8L180.8,159.4z"/>
			<path id="Path-48" class="st0" d="M193.9,139.9c1.1-0.4,1.3-0.1,1.6,0.5s0.4,1.1,1.6,3.9l1.2,3.2c0.5,1.3,1,2.6,1.4,4
				c0.2,0.8,0,1.1-0.8,1.3c-0.2,0-0.3,0.1-0.3,0.3c0,0,0,0,0,0.1c0.1,0.2,0.3,0.2,0.6,0.1l2.3-0.9c0.5-0.2,1.7-0.5,2.9-1
				c0.3-0.1,0.4-0.3,0.4-0.5s-0.3-0.2-0.5-0.1c-1.1,0.4-1.6,0.4-1.9-0.3s-0.9-2.2-1.6-4l-1.2-3.2c-1-2.8-1.2-3.3-1.4-3.9
				c-0.2-0.8,0-1.1,0.8-1.4c0.2,0,0.3-0.1,0.3-0.3c0,0,0-0.1,0-0.1c-0.1-0.2-0.2-0.2-0.6,0c-0.7,0.3-1.8,0.7-2.3,0.9
				s-1.7,0.6-2.5,0.8c-0.4,0.1-0.5,0.3-0.4,0.4S193.7,140,193.9,139.9"/>
			<path id="Path-49" class="st0" d="M203.2,136.4c1-0.3,2,0.1,2.5,1l7.8,10.9c0.4,0.5,0.6,0.7,0.8,0.7s0.4-0.4,0.6-1.1l2.7-12.6
				c0.3-1.5,0.6-2.1,1.6-2.3c0.3,0,0.4-0.1,0.4-0.3s-0.2-0.2-0.6-0.2s-1.1,0.3-1.8,0.5s-1.1,0.2-2.1,0.4c-0.4,0.1-0.6,0.2-0.6,0.4
				s0.2,0.2,0.5,0.1c0.6-0.1,1,0,1,0.1c0,0.2,0,0.5,0,0.7l-1.7,10.2l-5.2-7.8c-0.3-0.4-0.6-0.9-0.8-1.4c-0.1-0.4,0.4-0.5,0.8-0.6
				s0.4-0.2,0.3-0.3s-0.3-0.2-0.6-0.2c-1,0.2-1.9,0.5-2.4,0.6s-1.8,0.3-2.9,0.5c-0.4,0-0.6,0.2-0.5,0.4
				C202.9,136.4,203,136.5,203.2,136.4C203.2,136.4,203.2,136.4,203.2,136.4"/>
			<path id="Path-50" class="st0" d="M223.5,132.6c1.1-0.1,1.6,0.2,1.6,1s0.1,1.1,0.3,4.1l0.2,3.4c0,1,0.1,2,0.2,2.8
				c0.1,2.2,0,2.4-1.1,2.5c-0.2,0-0.4,0.1-0.4,0.3s0.1,0.3,0.5,0.3c0.8,0,2.1-0.2,2.5-0.2c2.1-0.1,4.1-0.1,6-0.3
				c0.4,0,0.6-0.3,0.7-0.6c0.1-0.7,0.1-1.4,0.1-2.2c0-0.3,0-0.5-0.3-0.4s-0.3,0.1-0.3,0.4c0,0.6-0.2,1.1-0.7,1.4
				c-0.8,0.2-1.6,0.3-2.5,0.4c-1.4,0.1-1.6,0-1.7-1.3c0-0.6-0.1-2.3-0.3-4.5c0,0,0-0.1,0.1-0.1l2.7-0.1c0.9,0,1.2,0.7,1.2,1.3
				c0,0.1,0.1,0.3,0.2,0.3c0,0,0,0,0.1,0c0.2,0,0.3-0.3,0.2-0.5v-2.7c0-0.1,0-0.1-0.1-0.2c0-0.1-0.1-0.1-0.2-0.1
				c-0.1,0-0.2,0.2-0.5,0.4c-0.5,0.3-1.1,0.5-1.7,0.5l-2.1,0.1c-0.1,0-0.2,0-0.2-0.1l-0.4-5.2v-0.1c3.9-0.2,4-0.1,4.2,1.1
				c0,0.2,0,0.4,0.3,0.4c0.1,0,0.2,0,0.2-0.1c0.1-0.1,0.1-0.1,0.1-0.2c-0.1-0.8-0.1-1.7,0-2.6c0-0.1,0-0.3-0.2-0.3
				c-0.4,0.2-0.8,0.2-1.2,0.3l-5,0.3c-1,0-1.9,0-2.9,0.1c-0.4,0-0.5,0.1-0.5,0.3s0.1,0.2,0.5,0.2"/>
			<path id="Shape-30" class="st1" d="M243.5,133.3c0-0.1,0-0.3,1.1-0.1c0.9,0.1,1.6,0.6,2.1,1.3c0.5,0.7,0.7,1.6,0.5,2.4
				c-0.2,1.8-1,3.1-2.8,2.9c-1.1-0.1-1.6-0.3-1.6-0.6L243.5,133.3z M238.5,146.4c0.8,0.1,2,0.1,2.4,0.2s1.8,0.2,2.9,0.3
				c0.4,0,0.5-0.1,0.5-0.2c0-0.2-0.1-0.3-0.3-0.3c-1.6-0.2-1.7-0.6-1.6-2.6l0.3-3.1l0,0l1.7,0.2c0.1,0,0.2,0.1,0.3,0.2
				c0.6,0.9,1.1,1.9,1.7,2.8c1.4,2.3,2.4,3.5,4.7,3.7l1.9,0.2c0.3,0,0.5,0,0.5-0.2s-0.1-0.3-0.3-0.3c-1.6-0.1-2.9-1.2-6.4-7
				c1.6-0.8,2.8-2.3,3-4.1c0.3-2.8-2.2-3.8-4.8-4c-0.6,0-2.1-0.1-2.8-0.2c-0.4,0-1.6-0.2-2.7-0.3c-0.4,0-0.6,0-0.6,0.2
				s0.1,0.3,0.4,0.3c1.6,0.1,1.6,0.5,1.4,2.2l-0.9,9.2c-0.2,1.9-0.4,2.4-1.6,2.3c-0.2,0-0.4,0-0.4,0.2S238.1,146.3,238.5,146.4
				L238.5,146.4z"/>
			<path id="Path-51" class="st0" d="M258.1,149.4c1.2,0.4,2.5,0.3,3.7-0.3c1.1-0.6,2-1.6,2.3-2.8c1.1-4.4-4.6-6.5-3.9-9.2
				c0.1-0.5,0.5-1,1-1.3c0.5-0.3,1.1-0.3,1.6-0.1c1.3,0.2,2.2,1.4,2,2.7c0,0.2,0,0.4,0.2,0.5s0.4-0.1,0.5-0.6c0.4-1.5,0.5-2,0.6-2.2
				c0-0.1,0-0.3-0.2-0.4c-0.8-0.5-1.7-0.8-2.6-1c-2.7-0.7-5,0.4-5.5,2.6c-1,4.3,4.5,6.1,3.7,9.5c-0.2,0.6-0.6,1.1-1.2,1.4
				c-0.6,0.3-1.2,0.3-1.8,0.1c-0.8-0.1-1.4-0.6-1.9-1.3c-0.4-0.7-0.5-1.5-0.3-2.2c0-0.2,0-0.4-0.2-0.5s-0.4,0.1-0.5,0.5l-0.7,2.6
				C254.9,148.1,256.2,148.9,258.1,149.4"/>
			<path id="Path-52" class="st0" d="M267.4,151.7l2.4,0.8c0.5,0.2,1.7,0.7,2.9,1.2c0.3,0.1,0.5,0,0.6-0.1s-0.1-0.3-0.3-0.4
				c-1.1-0.4-1.6-0.7-1.3-1.4s0.8-2.3,1.4-4l1.2-3.2c0.4-1.3,0.9-2.6,1.5-3.8c0.4-0.8,0.7-0.9,1.6-0.6c0.2,0,0.4,0.1,0.5-0.1
				s-0.1-0.3-0.4-0.4l-2.3-0.8c-0.5-0.2-1.7-0.7-2.4-0.9c-0.4-0.1-0.6-0.1-0.6,0s0.1,0.4,0.3,0.4c1,0.4,1.1,0.7,0.8,1.4
				s-0.4,1.1-1.4,3.9l-1.2,3.2c-0.7,1.8-1.2,3.2-1.6,3.9s-0.7,0.8-1.5,0.5c-0.2-0.1-0.4-0.1-0.5,0s0,0.4,0.4,0.5"/>
			<path id="Shape-31" class="st1" d="M282.7,153.7l4.5-7.9c0.3-0.6,0.4-0.7,1.6,0c3.8,2.1,5.3,5.7,3.2,9.5s-4.8,4.4-8.4,2.4
				C281.3,156.5,281.4,156,282.7,153.7 M277,154.8c-0.1,0.2,0,0.3,0.3,0.5l2.2,1.1c0.9,0.5,2.3,1.5,3.6,2.3
				c4.4,2.4,9.1,2.1,11.7-2.5s0-8.3-5.2-11.2c-1-0.6-2.2-1.1-2.7-1.4s-1.6-0.9-2.4-1.4c-0.4-0.2-0.5-0.2-0.6,0s0,0.3,0.2,0.4
				c1,0.5,1.2,1,0.8,1.7s-0.5,1.1-2,3.6l-1.7,3.1c-2.4,4.3-2.7,4.4-3.5,4C277.3,154.8,277.1,154.7,277,154.8"/>
			<path id="Shape-32" class="st1" d="M305.4,160.2L305.4,160.2l-2,5.6l-3.2-2.7L305.4,160.2z M292.9,163.6c-0.1-0.1-0.3-0.2-0.4,0
				s-0.1,0.3,0.2,0.5c0.8,0.7,1.6,1.3,1.8,1.4c0.5,0.4,1.1,1,1.5,1.4c0.2,0.2,0.4,0.2,0.5,0s0-0.3-0.3-0.6s-0.5-0.7-0.3-0.9
				c0.3-0.3,0.6-0.5,1-0.7l1.9-1h0.2l3.7,3.1c0,0,0.1,0.1,0,0.2l-1.1,3.4c0,0.2-0.9-0.4-1-0.4s-0.3-0.2-0.4,0s0,0.4,0.4,0.7
				s1.3,1,1.7,1.3s1,0.9,1.4,1.2c0.7,0.5,0.9,0.6,1,0.4s0-0.3-0.1-0.4c-0.7-0.6-0.5-1.8-0.1-2.9c0.9-3.1,3.6-11.2,3.9-12.3
				c0.2-0.6,0.2-0.8,0-0.9s-0.5,0-1.1,0.2l-11.7,6.1C294.4,164.3,293.8,164.3,292.9,163.6L292.9,163.6z"/>
			<path id="Shape-33" class="st1" d="M312.6,176.8l7.1-5.7c0.5-0.4,0.6-0.5,1.5,0.6c2.8,3.3,2.8,7.2-0.5,10s-6.1,2.4-8.7-0.8
				C310.4,178.9,310.7,178.5,312.6,176.8 M307.7,176.2c-0.3-0.4-0.5-0.5-0.6-0.4s-0.1,0.3,0.1,0.6c0.5,0.6,1.3,1.5,1.5,1.9
				c0.6,0.8,1.6,2.3,2.5,3.4c3.1,3.8,7.8,5.2,11.8,1.9s3.1-7.7-0.7-12.3c-0.8-0.9-1.5-1.8-2-2.3s-1.1-1.4-1.8-2.2
				c-0.2-0.3-0.4-0.4-0.6-0.2s-0.1,0.3,0.1,0.5c0.7,0.8,0.8,1.3,0.1,1.8s-0.9,0.8-3.2,2.7l-2.7,2.2
				C308.5,176.7,308.1,176.8,307.7,176.2"/>
			<path id="Path-53" class="st0" d="M328.6,210.2c0.2,0.2,0.5,0.3,0.8,0.3c0.9-0.2,1.8-0.4,2.6-0.7c0.2,0,0.3-0.2,0.2-0.3
				c0,0,0,0,0-0.1c-0.1-0.2-0.2-0.2-0.6-0.1c-1.7,0.2-2.7-0.4-3.8-2.9c-1.4-3.2-0.4-6.5,3.9-8.3c3.5-1.4,6.4-0.9,7.9,2.5
				c1,2.1,1.1,4.6-0.8,5.4c-0.3,0.1-0.4,0.3-0.4,0.5s0.3,0.2,0.6,0s1.4-0.5,2-0.8s0.9-0.3,1-0.3s0.2-0.2,0.1-0.5
				c-0.4-1.6-0.8-3.1-1.4-4.6c-1.9-4.2-6-6.9-10.4-4.9c-5.2,2.2-5.7,7.2-3.6,11.7C327.2,208.2,327.8,209.2,328.6,210.2"/>
			<path id="Shape-34" class="st1" d="M342.2,217.5h0.1l-5,3.3l-1-4L342.2,217.5z M330.2,212.9c0-0.1-0.1-0.2-0.2-0.3
				c0,0-0.1,0-0.1,0c-0.2,0.1-0.2,0.2-0.2,0.5c0.2,1,0.6,2,0.6,2.2c0.1,0.6,0.3,1.4,0.5,2c0,0.2,0.1,0.4,0.4,0.3s0.2-0.2,0.1-0.6
				s0-0.8,0.3-0.9c0.4-0.1,0.8-0.1,1.2,0l2.1,0.3c0.1,0,0.1,0.1,0.1,0.2l1.1,4.6v0.2l-2.9,2.1c-0.2,0.1-0.5-0.9-0.6-0.9
				s-0.2-0.3-0.4-0.3s-0.2,0.3-0.1,0.8s0.5,1.5,0.6,2.1s0.2,1.4,0.4,1.8c0.2,0.8,0.4,0.9,0.5,0.9s0.2-0.2,0.2-0.4
				c-0.2-0.9,0.7-1.7,1.6-2.4c2.6-1.9,9.6-6.9,10.5-7.7c0.5-0.4,0.6-0.5,0.5-0.7s-0.3-0.3-1-0.4l-13.2-1.9c-1.5-0.2-1.9-0.6-2.2-1.7
				L330.2,212.9z"/>
			<path id="Path-54" class="st0" d="M346,228.1c-0.2,0-0.4,0-0.4,0.3c0,0.2,0.2,0.3,0.3,0.3c0.7,0,1.2,0.5,1.4,2l0.3,2.8l-9.8,0.8
				c-3.1,0.3-3.4,0.1-3.5-1c0-0.2-0.1-0.4-0.3-0.4s-0.3,0.2-0.2,0.5c0,0.8,0.2,2,0.3,2.5s0.1,1.8,0.2,3.1c0,0.3,0.1,0.5,0.3,0.4
				c0.2,0,0.3-0.2,0.2-0.4c-0.1-1.5,0-1.8,3.3-2.1l9.7-0.8l0.1,2.4c0.1,1.8-0.2,2.2-1,2.4c-0.4,0-0.5,0.2-0.5,0.4s0.2,0.2,0.5,0.2
				l2.3-0.1c0.4,0,0.5-0.1,0.5-0.3c-0.2-0.6-0.3-1.2-0.4-1.9l-0.8-8.8c0-0.6,0-1.2,0.2-1.8c0-0.2-0.1-0.2-0.5-0.3
				C347.6,228.2,346.8,228.1,346,228.1"/>
			<path id="Shape-35" class="st1" d="M348.3,253.5c-0.3,3.2-3.1,5.4-7.5,5.1c-5.6-0.5-6-3.6-5.8-5c0.3-3.7,3.7-5.7,7.8-5.3
				C347.5,248.7,348.5,251.3,348.3,253.5 M351.8,257c-0.1-0.1-1.7-2.9-2.4-4c-0.4-4.3-4.3-7.5-8.6-7c-4.3,0.4-7.5,4.3-7,8.6
				c0.2,1.6,0.8,3,1.8,4.2c1.4,1.7,3.5,2.7,5.7,2.9c4.5,0.4,7.6-2.4,8.1-7.1c0.4,1.5,1,3.5,1,3.6c0,0.1,0.1,0.2,0.2,0.2
				c0.1,0.1,0.2,0.1,0.3,0c0.3-0.1,0.6-0.3,0.8-0.5C351.8,257.7,352,257.4,351.8,257"/>
			<path id="Path-55" class="st0" d="M346.4,268.3c-0.4,1.4-0.7,1.3-2.9,0.7l-7.5-1.8c-3.1-0.8-3.5-1-3.1-2.1c0-0.2,0-0.4-0.2-0.4
				s-0.3,0-0.4,0.4c-0.2,0.8-0.5,2-0.6,2.4c-0.4,1.5-0.9,2.8-1.5,5.5c-0.3,1-0.2,1.2,0.2,1.4c0.8,0.4,1.6,0.7,2.4,0.9
				c0.3,0.1,0.5,0,0.5-0.1s-0.2-0.3-0.3-0.4c-1.3-0.6-1.7-1.1-1.1-3.1c0.6-2.4,0.9-2.6,3.5-1.9l7.5,1.9c2.4,0.6,2.5,0.8,2.1,2
				c-0.1,0.3,0,0.5,0.2,0.5s0.3,0,0.4-0.4c0.2-0.8,0.5-2.1,0.6-2.6s0.5-1.7,0.8-2.6c0.1-0.4,0-0.5-0.1-0.6S346.6,268.1,346.4,268.3"
				/>
			<path id="Path-56" class="st0" d="M341.7,283.9c-0.4,1-0.8,1-1.5,0.8s-1.1-0.4-3.9-1.5l-3.2-1.3c-1.7-0.7-3.2-1.3-3.9-1.7
				s-0.8-0.7-0.5-1.5c0.1-0.2,0.1-0.4,0-0.5s-0.4,0-0.5,0.4c-0.3,0.7-0.7,1.9-0.9,2.3s-0.7,1.6-1.2,2.8c-0.1,0.2-0.1,0.4,0.1,0.6
				c0.1,0.1,0.3-0.1,0.4-0.3c0.4-1,0.8-1.5,1.6-1.2s2.3,0.8,4,1.5l3.2,1.3c2.8,1.1,3.3,1.3,3.8,1.5c0.8,0.4,0.9,0.7,0.5,1.5
				c0,0.2-0.1,0.4,0.1,0.5s0.3,0,0.4-0.4c0.3-0.7,0.7-1.8,0.9-2.2s0.7-1.6,1-2.4c0.2-0.4,0.1-0.6,0-0.6s-0.4,0.1-0.4,0.3"/>
			<path id="Path-57" class="st0" d="M331.3,291.5c-4.8-2.9-9.2-0.3-11.7,3.9c-0.6,1-1.1,2.1-1.5,3.3c-0.1,0.3,0,0.6,0.2,0.8
				c0.7,0.6,1.3,1.2,2.1,1.7c0.2,0.1,0.4,0.1,0.5,0s0.1-0.3-0.2-0.5c-1.2-1.2-1.3-2.4,0.1-4.8c1.8-3,5.1-4.1,9.1-1.8
				c3.1,2,4.5,4.6,2.6,7.8c-1.2,2-3.1,3.6-5,2.5c-0.3-0.2-0.5-0.2-0.6,0s0,0.3,0.3,0.5s1.3,0.8,1.8,1.1s0.7,0.5,0.9,0.6
				s0.3,0,0.5-0.2c1.1-1.2,2.1-2.5,3-3.9C335.7,298.7,335.5,293.9,331.3,291.5"/>
			<path id="Shape-36" class="st1" d="M320.3,313.8L320.3,313.8l-5.7-2.1l2.7-3.1L320.3,313.8L320.3,313.8L320.3,313.8z
				 M316.7,304.3c-0.7-1.3-0.7-1.9,0.1-2.8c0.1-0.1,0.2-0.3,0-0.4s-0.3-0.1-0.5,0.2c-0.7,0.8-1.3,1.6-1.5,1.8
				c-0.4,0.5-1,1.1-1.4,1.5c-0.2,0.2-0.2,0.4,0,0.5s0.3,0,0.6-0.3s0.7-0.5,0.9-0.3c0.3,0.3,0.5,0.6,0.7,1l1,1.9
				c0.1,0.1,0.1,0.1,0,0.2l-3.1,3.6c0,0.1-0.1,0.1-0.2,0.1l-3.4-1.1c-0.2-0.1,0.4-0.9,0.5-1s0.2-0.3,0-0.4s-0.4,0-0.7,0.4
				s-1,1.3-1.4,1.7s-1,1-1.3,1.4c-0.5,0.6-0.6,0.9-0.5,1s0.3,0,0.4-0.1c0.6-0.7,1.8-0.4,2.9-0.1c3.1,0.9,11.3,3.6,12.4,4
				c0.6,0.2,0.8,0.2,0.9,0s0.1-0.5-0.2-1.1L316.7,304.3z"/>
			<path id="Shape-37" class="st1" d="M185.3,338.2c-2.3,3.8-4.9,4.2-8.5,2.1c-2.2-1.3-2.1-1.8-0.8-4l4.7-7.7c0.3-0.5,0.4-0.6,1.6,0
				c3.7,2.2,5.1,5.8,2.9,9.5 M183,327.9l-2.7-1.5c-0.5-0.3-1.6-1-2.4-1.5c-0.3-0.2-0.5-0.2-0.6,0s0,0.3,0.2,0.5
				c0.9,0.5,1.2,1,0.8,1.7s-0.6,1-2.1,3.6l-1.8,2.9c-2.5,4.2-2.8,4.3-3.6,3.9c-0.4-0.2-0.6-0.3-0.7-0.1s0,0.3,0.3,0.5
				c0.7,0.4,1.8,1,2.2,1.2c0.8,0.5,2.3,1.5,3.5,2.3c4.2,2.5,9,2.3,11.7-2.2S188.2,330.9,183,327.9"/>
			<path id="Path-58" class="st0" d="M204.2,337.7l-4.7-1.7c-0.5-0.2-1.7-0.7-2.7-1c-0.4-0.1-0.5-0.1-0.6,0s0,0.3,0.3,0.4
				c1,0.4,1.4,0.8,1.1,1.5s-0.4,1.1-1.4,3.8l-1.2,3.2c-0.4,1-0.7,1.9-1,2.6c-0.8,2.1-1,2.2-2,1.8c-0.2-0.1-0.4,0-0.5,0.1
				s0,0.3,0.3,0.4c0.8,0.3,2,0.7,2.4,0.8c2,0.7,3.8,1.5,5.6,2.1c0.3,0.1,0.7,0,0.9-0.3c0.4-0.6,0.7-1.3,1-2c0.1-0.2,0.1-0.5-0.1-0.5
				s-0.3,0-0.4,0.2c-0.4,0.7-0.7,0.9-1.2,1c-0.8-0.1-1.7-0.3-2.4-0.6c-1.3-0.5-1.6-0.6-1-1.9c0.2-0.5,0.8-2.1,1.6-4.2h0.1l2.5,1
				c0.9,0.3,0.8,1.1,0.6,1.7c0,0.1,0,0.1,0,0.2c0,0.1,0.1,0.1,0.2,0.1c0.2,0.1,0.4-0.1,0.4-0.3c0.4-1,1.1-2.2,1.2-2.5
				c0-0.1,0-0.1,0-0.2c0-0.1-0.1-0.1-0.2-0.1c-0.1,0-0.3,0.1-0.6,0.2c-0.6,0.1-1.2,0-1.7-0.2l-2-0.7c-0.1,0-0.1,0-0.1-0.2l1.8-4.9
				c0,0,0-0.1,0.1,0c3.6,1.3,3.7,1.5,3.4,2.7c0,0.2-0.1,0.4,0.1,0.4c0.1,0,0.2,0,0.2,0c0.1,0,0.1-0.1,0.1-0.2
				c0.3-0.8,0.7-1.5,1.1-2.3c0-0.1,0-0.3-0.1-0.3c-0.4,0-0.8-0.1-1.2-0.2"/>
			<path id="Path-59" class="st0" d="M232.1,343c-1.6-0.5-3.2-0.8-4.8-1c-4.7-0.5-9,1.8-9.5,6.5c-0.6,5.5,3.6,8.4,8.5,8.9
				c1.2,0.2,2.4,0.2,3.6,0c0.3-0.1,0.5-0.3,0.6-0.6c0.3-0.8,0.5-1.7,0.7-2.6c0-0.2,0-0.4-0.2-0.4s-0.3,0-0.4,0.4
				c-0.6,1.5-1.6,2.1-4.4,1.9c-3.5-0.3-5.9-2.9-5.5-7.4c0.5-3.6,2.3-5.9,6.1-5.5c2.3,0.2,4.7,1.3,4.4,3.4c0,0.3,0,0.5,0.3,0.5
				s0.3-0.1,0.4-0.5s0.2-1.5,0.3-2.1s0.2-0.9,0.2-1.1S232.5,343.1,232.1,343"/>
			<path id="Path-60" class="st0" d="M256.2,355.3c-1.1,0.1-1.6,0-1.8-0.8c-0.3-1.4-0.5-2.8-0.6-4.1l-0.4-3.4
				c-0.3-2.9-0.4-3.5-0.4-4.1s0.2-1.1,1.1-1.2c0.3,0,0.4-0.1,0.4-0.3s-0.2-0.3-0.6-0.2c-0.8,0-2,0.3-2.5,0.3s-1.8,0.1-2.9,0.3
				c-0.4,0-0.5,0.1-0.5,0.3s0.2,0.3,0.5,0.2c1-0.1,1.6,0,1.6,0.9c0.1,0.6,0.2,1.1,0.5,4.1l0.1,0.9v0.1l-7.5,0.8l0,0l-0.1-0.8
				c-0.3-2.9-0.4-3.5-0.4-4.1c0-0.9,0.2-1.1,1.1-1.2c0.3,0,0.5-0.1,0.4-0.3s-0.2-0.2-0.6-0.2c-0.8,0.1-1.7,0.2-2.5,0.3
				c-0.5,0-1.8,0.1-2.9,0.2c-0.4,0-0.5,0.2-0.5,0.4s0.2,0.3,0.5,0.2c1-0.1,1.6,0,1.6,0.9s0.2,1.1,0.5,4.1l0.4,3.4
				c0.2,1.8,0.4,3.3,0.4,4.1s-0.1,1.1-1.1,1.2c-0.2,0-0.4,0.1-0.4,0.3s0.2,0.3,0.6,0.2c0.8-0.1,2-0.3,2.5-0.3s1.8-0.1,3.1-0.3
				c0.3,0,0.5-0.2,0.5-0.4s-0.2-0.2-0.4-0.2c-1.1,0.1-1.6,0.1-1.8-0.8c-0.3-1.4-0.4-2.7-0.5-4.1l-0.1-1.2c0,0,0-0.1,0.1-0.1l7.5-0.8
				l0,0l0.1,1.2c0.2,1.8,0.4,3.3,0.4,4.1s-0.1,1.1-1.1,1.2c-0.2,0-0.4,0.1-0.4,0.3s0.2,0.3,0.6,0.2c0.8-0.1,2-0.3,2.5-0.4
				s1.8-0.1,3.1-0.2c0.4,0,0.5-0.2,0.5-0.4s-0.2-0.2-0.4-0.2"/>
			<path id="Path-61" class="st0" d="M270.5,351.5c-1.1,0.3-1.6,0.4-1.9-0.4s-0.8-2.3-1.3-4.1l-1-3.3c-0.9-2.8-1-3.4-1.1-3.9
				c-0.2-0.9,0-1.1,0.9-1.4c0.2,0,0.3-0.1,0.3-0.3c0,0,0-0.1,0-0.1c-0.1-0.3-0.2-0.2-0.6-0.1c-0.7,0.2-1.8,0.6-2.3,0.7
				s-1.8,0.5-2.5,0.7c-0.4,0.1-0.5,0.2-0.5,0.4s0.3,0.2,0.5,0.2c1.1-0.3,1.3,0,1.6,0.6s0.4,1.1,1.2,4l1,3.3c0.4,1.3,0.8,2.7,1.1,4.1
				c0.2,0.9,0,1.1-0.9,1.3c-0.2,0-0.4,0.2-0.3,0.3s0.2,0.3,0.6,0.2l2.4-0.8c0.5-0.1,1.8-0.4,3-0.8c0.3-0.1,0.5-0.3,0.4-0.4
				S270.7,351.4,270.5,351.5"/>
			<path id="Path-62" class="st0" d="M286.9,342.1c-0.1-0.3-0.2-0.4-0.4-0.3s-0.1,0.3-0.1,0.5c0.4,1.3,0.2,2-1.7,2.8
				c-2.3,1-2.5,0.9-3.7-1.5l-3.2-7c-1-2.2-0.9-2.4,0.2-2.9c0.3-0.1,0.4-0.3,0.3-0.5s-0.2-0.2-0.6,0c-0.7,0.3-2,1-2.4,1.2
				s-1.7,0.7-2.5,1.1c-0.3,0.1-0.5,0.3-0.4,0.5s0.2,0.2,0.5,0c1.3-0.6,1.4-0.3,2.4,1.8l3.2,7c1.3,2.9,1.4,3.3,0.3,3.8
				c-0.2,0.1-0.4,0.2-0.2,0.4s0.2,0.2,0.6,0l2.2-1.1c1.5-0.7,2.7-1.1,5.4-2.3c0.9-0.4,1-0.6,1-1
				C287.5,343.7,287.2,342.9,286.9,342.1"/>
			<path id="Path-63" class="st0" d="M301.2,333.7c-0.1-0.2-0.3-0.4-0.5-0.2s-0.1,0.2,0,0.5c0.3,0.5,0.3,1.1,0,1.5
				c-0.6,0.6-1.3,1.1-2,1.5c-1.2,0.8-1.4,0.8-2.1-0.3l-2.5-3.7c0,0-0.1-0.1,0-0.1c0,0,0,0,0,0l2.3-1.4c0.8-0.5,1.3,0,1.7,0.5
				c0,0.1,0.1,0.1,0.2,0.1c0.1,0,0.1,0,0.2,0c0.2-0.1,0.1-0.4,0-0.5c-0.6-0.9-1.2-2.2-1.3-2.4c0-0.1-0.1-0.1-0.1-0.1
				c-0.1,0-0.1,0-0.2,0c-0.1,0-0.1,0.3-0.2,0.6c-0.3,0.5-0.7,0.9-1.2,1.2l-1.8,1.1h-0.2l-2.9-4.3v-0.1c3.2-2.1,3.4-2.1,4.2-1.1
				c0.1,0.1,0.2,0.3,0.4,0.1c0.1-0.1,0.2-0.2,0.1-0.4c0,0,0-0.1,0-0.1c-0.5-0.7-0.9-1.5-1.2-2.2c-0.1-0.1-0.2-0.2-0.3-0.1
				c-0.3,0.3-0.6,0.6-0.9,0.8l-4.1,2.7c-0.5,0.3-1.5,0.9-2.4,1.5c-0.3,0.2-0.4,0.4-0.3,0.5s0.2,0.2,0.5,0c0.9-0.6,1.4-0.6,1.9,0
				s0.7,0.9,2.3,3.4l1.9,2.9c0.6,0.8,1.1,1.7,1.5,2.3c1.2,1.8,1.2,2.1,0.3,2.7c-0.2,0.1-0.3,0.3-0.2,0.4s0.3,0.1,0.6,0
				c0.7-0.4,1.7-1.2,2.1-1.4c1.8-1.2,3.5-2.1,5.1-3.2c0.3-0.2,0.4-0.6,0.3-0.9C302,334.9,301.6,334.3,301.2,333.7"/>
		</g>
	</g>
</g>
</svg>
