<?xml version="1.0" encoding="utf-8"?>
<!-- Generator: Adobe Illustrator 26.0.0, SVG Export Plug-In . SVG Version: 6.00 Build 0)  -->
<svg version="1.1" id="Capa_1" xmlns="http://www.w3.org/2000/svg" xmlns:xlink="http://www.w3.org/1999/xlink" x="0px" y="0px"
	 viewBox="0 0 800 400" style="enable-background:new 0 0 800 400;" xml:space="preserve">
<style type="text/css">
	.st0{fill-rule:evenodd;clip-rule:evenodd;fill:#AAAAAA;}
	.st1{fill:#AAAAAA;}
</style>
<g id="Primer_plano">
	<path class="st0" d="M742.1,172.6l4.3,10.9H738L742.1,172.6z M743.5,167h-0.8l-7.8,18.6c-1.6,3.8-2.6,6.5-5,6.8v0.8h8v-0.4
		c-1.3,0-2.7,0-2.7-1.7c0.5-2.1,1.2-4.1,2.1-6h10.2l1.3,3.3c1.5,3.4,1.5,4.2-1.8,4.4v0.8h9.8v-0.8c-2.1,0-2.9-2.2-3.6-3.8L743.5,167
		z M725.3,167h-0.8c-1.3,3.1-3.2,0-8.4,0c-7-0.3-13,5.1-13.3,12.1c0,0.6,0,1.3,0,1.9c-0.5,6.8,4.7,12.8,11.5,13.3c0,0,0,0,0,0
		c0.6,0,1.2,0,1.7,0c3.9-0.1,7.5-1.9,10-4.9l-0.6-0.8c-2.3,2.6-5.6,4-9.1,3.9c-5.5-0.4-9.6-5.1-9.2-10.5c0-0.3,0.1-0.6,0.1-0.9
		c0-7,2.8-12.1,9.2-12.1c4.2,0,7.8,3,8.4,7.1h0.9L725.3,167z M694.9,170.6c0-1.1,0.6-2.4,3.8-2.4v-0.8h-11.5v0.8
		c3.3,0,3.9,1.3,3.9,2.4V190c0,1.1-0.6,2.4-3.9,2.4v0.8h11.5v-0.4c-3.2,0-3.8-1.3-3.8-2.4V170.6z M680.1,170.6
		c0-1.1,0.6-2.4,3.8-2.4v-0.8h-9.2v0.8c3.2,0,3.8,1.3,3.8,2.4v15.4l-14.9-18.6h-6.6v0.8c1.9,0,2.3,0,3.4,1.8l0,0v19.6
		c0,1.1-0.6,2.4-3.8,2.4v0.8h9.2v-0.1c-3.2,0-3.8-1.3-3.8-2.4v-17.8l16.8,21.2h0.6L680.1,170.6z M652.4,167h-0.8
		c-1.3,3.1-3.2,0-8.4,0c-7-0.3-13,5.1-13.3,12.1c0,0.6,0,1.3,0.1,1.9c-0.5,6.8,4.7,12.8,11.5,13.3c0,0,0,0,0,0c0.6,0,1.2,0,1.7,0
		c3.9-0.1,7.5-1.9,10-4.9l-0.6-0.8c-2.3,2.6-5.6,4-9.1,3.9c-5.5-0.4-9.6-5.1-9.2-10.5c0-0.3,0.1-0.6,0.1-0.9c0-7,2.8-12.1,9.2-12.1
		c4.2,0,7.8,3,8.4,7.1h0.9L652.4,167z M624.2,193.1l1.8-6.6h-1.1c-1,3.6-4.7,5.8-8.4,5h-4.4c-0.8,0-1-0.8-1-1.5v-9h5.5
		c2.6,0,4.8,0.7,4.8,3.7h0.8v-9.1h-0.8c0,3-2.2,3.7-4.8,3.7h-5.5v-8.4c0-0.8,0.7-1.5,1.5-1.5h6.4c2.3-0.1,4.2,1.7,4.5,3.9h0.8v-5.5
		h-20.6v0.8c2.8,0,3.3,1.3,3.3,2.4v19.4c0,1.1-0.6,2.4-3.3,2.4v0.8L624.2,193.1z M594.3,192.4c-2.8,0-3.4-1.3-3.4-2.4v-20.5h2.8
		c2.9,0,4.6,0,5.5,4.9h0.9v-6.6h-21.8v6.6h0.2c0.8-4.9,2.7-4.9,5.5-4.9h2.8v20.8c0,1.1-0.6,2.4-3.4,2.4v0.8h10.8L594.3,192.4z
		 M540.2,171c0-1.9,0-2,2.3-2c6-0.7,11.4,3.6,12.1,9.6c0.1,0.8,0.1,1.6,0,2.4c0.4,5.8-4.1,10.8-9.9,11.2c0,0,0,0,0,0
		c-0.8,0.1-1.7,0-2.5-0.1c-1,0-1.9-0.7-1.9-1.8L540.2,171L540.2,171z M543.2,193.2c10.4,0,15.6-4.9,15.6-12.8s-6-12.8-15.9-12.8h-10
		v0.8c2.9,0,3.5,1.3,3.5,2.4V190c0,1.1-0.6,2.4-3.5,2.4v0.8L543.2,193.2z M515,172.6l4.8,10.9h-9.2L515,172.6z M516.3,167h-0.8
		l-7.8,18.6c-1.6,3.8-2.6,6.5-5,6.8v0.8h7.6v-0.4c-1.3,0-2.6,0-2.6-1.7c0.5-2.1,1.2-4.1,2.1-6h9.9l1.4,3.3c1.5,3.4,1.5,4.2-1.8,4.4
		v0.8h9.8v-0.8c-2.2,0-2.9-2.2-3.7-3.8L516.3,167z M481.8,171c0-1.9,0-2,2.2-2c6-0.7,11.4,3.6,12.1,9.6c0,0,0,0,0,0
		c0.1,0.8,0.1,1.6,0,2.4c0.2,5.8-4.3,10.7-10.1,11c-0.8,0-1.6,0-2.4-0.1c-1,0-1.8-0.8-1.8-1.8L481.8,171L481.8,171z M484.8,193.2
		c10.3,0,15.5-4.9,15.5-12.8s-6-12.8-15.9-12.8h-9.9v0.8c2.8,0,3.4,1.3,3.4,2.4V190c0,1.1-0.6,2.4-3.4,2.4v0.8L484.8,193.2z
		 M467.1,170.7c0-1.1,0.6-2.4,3.8-2.4v-0.8h-11.5v0.8c3.3,0,3.8,1.3,3.8,2.4V190c0,1.1-0.5,2.4-3.8,2.4v0.8h11.5v-0.4
		c-3.2,0-3.8-1.3-3.8-2.4V170.7z M437.9,193.7h0.8c0-2.9,3.2,0,7.2,0c4.1,0.5,7.8-2.4,8.3-6.5c0,0,0,0,0,0c0-0.2,0-0.4,0-0.6
		c0-4.6-3.5-6.3-8.4-9.5c-1.7-1-4.1-2.6-4.1-4.8c-0.1-2,1.5-3.7,3.5-3.7c0,0,0,0,0,0c0.2,0,0.4,0,0.6,0c3.6,0.3,6.5,3.1,7,6.6h1
		l-0.8-8.4h-0.8c-0.9,2.9-2.8,0-6.9,0c-3.6-0.2-6.6,2.6-6.8,6.1c0,0.1,0,0.2,0,0.4c0,7.3,10.5,7.6,12.1,13c0.7,2.3-0.6,4.7-2.9,5.4
		c0,0,0,0,0,0c-0.5,0.1-1,0.2-1.5,0.2c-4.1,0.1-7.6-2.8-8.4-6.8H437L437.9,193.7z M414.9,170.8c0-1.8,0.4-1.8,2.9-1.8
		s6.2,1.5,6.2,5.3s-3.5,5.4-9.1,5.5V170.8z M411,190c0,1.1-0.6,2.4-3.3,2.4v0.8h10.6v-0.4c-2.9,0-3.4-1.3-3.4-2.4V182h2.2l9.2,11.9
		h6.2v-1.2c-1.5-0.1-2.9-0.9-3.7-2.2l-7.6-9.6c3.6-0.5,7-2.4,7-6.5s-3.9-6.8-10.2-6.8h-10.2v0.8c2.7,0,3.3,1.3,3.3,2.4L411,190z
		 M402.6,193.1l1.8-6.6h-1.1c-1,3.6-4.7,5.8-8.4,5h-5.1c-0.8,0-0.9-0.8-0.9-1.5v-9h5.4c2.6,0,4.8,0.7,4.8,3.7h0.8v-9.1H399
		c0,3-2.2,3.7-4.8,3.7h-5.4v-8.4c0-1,0.7-1.5,1.7-1.5h6.2c2.3,0,4.1,1.7,4.4,3.9h1.1v-5.5H382v0.8c2.9,0,3.4,1.3,3.4,2.4v19.4
		c0,1.1-0.6,2.4-3.4,2.4v0.8L402.6,193.1z M365.8,193.6h0.5c2.1-5.5,6-15.8,8.9-22.6c0.7-1.5,1.4-2.8,3.3-2.8v-0.8h-8v0.8
		c1.2,0,2.9,0,2.9,1.7c-0.1,1.1-0.5,2.2-0.9,3.2l-5.5,13.8l-5.6-12.7c-0.7-1.4-1.3-3-1.8-4.5c0-0.9,0-1.4,2.9-1.4v-0.8h-10.1v0.8
		c2.3,0,3.3,2.2,4.3,4.4L365.8,193.6z M344.8,170.6c0-1.1,0.6-2.4,3.8-2.4v-0.8h-11.3v0.8c3.2,0,3.8,1.3,3.8,2.4V190
		c0,1.1-0.6,2.4-3.8,2.4v0.8h11.5v-0.4c-3.2,0-3.8-1.3-3.8-2.4L344.8,170.6z M330,170.6c0-1.1,0.6-2.4,3.7-2.4v-0.8h-9v0.8
		c3.2,0,3.8,1.3,3.8,2.4v15.4l-14.9-18.6H307v0.8c1.9,0,2.3,0,3.4,1.8l0,0v19.6c0,1.1-0.6,2.4-3.8,2.4v0.8h9.1v-0.1
		c-3.1,0-3.7-1.3-3.7-2.4v-17.8l16.8,21.2h0.6L330,170.6z M280.4,183.3c0,7.1,2.9,10.3,9.9,10.3c1.7,0,3.3-0.3,4.9-1
		c4.4-2.1,4.8-5.5,4.8-9.8V171c0-1.1,0.6-2.4,3.6-2.4v-0.8h-8.8v0.8c3.1,0,3.7,1.3,3.7,2.4v12.2c0,3.7,0,9.1-7.3,9.1
		c-4.8,0-6.6-2.3-6.6-8.4V171c0-1.1,0.6-2.4,3.4-2.4v-0.8h-10.7v0.8c2.9,0,3.4,1.3,3.4,2.4L280.4,183.3z M742.1,212.5l4.3,10.9H738
		L742.1,212.5z M743.4,207h-0.8l-7.8,18.6c-1.6,3.8-2.6,6.5-5,6.8v0.8h8.1v-0.8c-1.3,0-2.7,0-2.7-1.7c0.5-2.1,1.2-4.1,2.1-6h10.2
		l1.3,3.3c1.5,3.4,1.5,4.2-1.8,4.4v0.8h9.8v-0.8c-2.1,0-2.9-2.2-3.6-3.8L743.4,207z M723.8,210.6c0-1.1,0.6-2.4,3.8-2.4v-0.4h-11.5
		v0.8c3.2,0,3.8,1.3,3.8,2.4v19.4c0,1.1-0.6,2.4-3.8,2.4v0.8h11.5v-0.8c-3.2,0-3.8-1.3-3.8-2.4V210.6z M696.2,210.6
		c0-1.8,0-1.8,2.9-1.8s6.1,1.5,6.1,5.3s-3.5,5.4-9,5.5L696.2,210.6z M692.3,229.8c0,1.1-0.6,2.4-3.3,2.4v0.8h10.6v-0.8
		c-2.8,0-3.4-1.3-3.4-2.4v-8.4h2.1l9.2,11.9h6.2v-0.8c-1.5-0.1-2.8-0.9-3.7-2.2l-7.6-9.4c3.6-0.5,7-2.4,7-6.5s-3.9-6.8-10.2-6.8
		h-10.2v0.8c2.7,0,3.3,1.3,3.3,2.4L692.3,229.8z M672.3,212.8l4.5,10.6H668L672.3,212.8z M673.7,207.3H673l-7.9,18.6
		c-1.5,3.8-2.5,6.6-5,6.8v0.8h7.6v-0.8c-1.3,0-2.6,0-2.6-1.7c0.5-2.1,1.2-4.1,2.1-6h10.1l1.4,3.3c1.4,3.4,1.5,4.2-1.8,4.4v0.8h9.8
		v-0.8c-2.2,0-3-2.2-3.7-3.8L673.7,207.3z M654,210.9c0-1.1,0.6-2.4,3.3-2.4v-0.8h-7.6l-8.3,19.5l-8.7-19.5H625v0.8
		c3.1,0,3.7,1.3,3.7,2.4v19.4c0,1.1-0.6,2.4-3.8,2.4v0.8h9.2v-0.8c-3.2,0-3.8-1.3-3.8-2.4v-18l9.7,21.1h0.6l9.9-22v18.9
		c0,1.1-0.6,2.4-3.4,2.4v0.8h10.7v-0.8c-2.8,0-3.4-1.3-3.4-2.4L654,210.9z M597.8,212.8l4.5,10.6h-8.6L597.8,212.8z M599.1,207.3
		h-0.8l-7.8,18.6c-1.6,3.8-2.6,6.6-5,6.8v0.8h7.6v-0.8c-1.3,0-2.7,0-2.7-1.7c0.5-2.1,1.2-4.1,2.1-6h10.2l1.3,3.3
		c1.5,3.4,1.5,4.2-1.8,4.4v0.8h9.8v-0.8c-2.1,0-2.9-2.2-3.6-3.8L599.1,207.3z M581.1,232.4c-2.8,0-3.4-1.3-3.4-2.4v-20.6h2.8
		c2.9,0,4.7,0,5.5,4.9h0.9v-6.6h-21.8v6.6h0.9c0.8-4.9,2.6-4.9,5.5-4.9h2.8v20.8c0,1.1-0.5,2.4-3.4,2.4v0.8h10.8L581.1,232.4z
		 M558.6,210.7c0-1.1,0.6-2.4,3.8-2.4v-0.6h-9.1v0.8c3.2,0,3.8,1.3,3.8,2.4v15.4l-14.7-18.6h-6.6v0.8c1.9,0,2.3,0.4,3.4,1.8l0,0V230
		c0,1.1-0.6,2.4-3.8,2.4v0.8h9.5v-0.8c-3.2,0-3.8-1.3-3.8-2.4v-17.6l16.9,21.2h0.6L558.6,210.7z M518.8,212.6l4.5,10.6h-8.6
		L518.8,212.6z M520.2,207.1h-0.5l-7.7,18.6c-1.6,3.8-2.6,6.6-5,6.8v0.8h7.6v-0.8c-1.3,0-2.7,0-2.7-1.7c0.5-2.1,1.2-4.1,2.1-6h10.1
		l1.3,3.3c1.5,3.4,1.5,4.2-1.8,4.4v0.8h9.8v-0.8c-2.1,0-2.9-2.2-3.6-3.8L520.2,207.1z M486.7,233.7h0.9c0-2.9,3.1,0,7.1,0
		c4.1,0.5,7.8-2.4,8.3-6.5c0,0,0,0,0,0c0-0.2,0-0.4,0-0.6c0-4.6-3.5-6.3-8.4-9.5c-1.7-1-4-2.6-4-4.8c-0.1-2,1.5-3.7,3.5-3.7
		c0,0,0,0,0,0h0.5c3.6,0.3,6.5,3.1,7,6.6h1l-0.8-8.4H501c-0.9,2.9-2.8,0-6.9,0c-3.6-0.2-6.6,2.5-6.8,6.1c0,0,0,0,0,0
		c0,0.1,0,0.2,0,0.4c0,7.3,10.5,7.6,12.1,12.9c0.7,2.3-0.5,4.8-2.8,5.5c-0.5,0.2-1,0.2-1.6,0.2c-4-0.1-7.5-2.9-8.4-6.8h-0.8
		L486.7,233.7z M459,208.6c6,0,8.4,5.9,8.4,11.9c0,4.2-1.4,11.4-8.4,11.9c-4.5,0-8.4-3.9-8.4-11.9S453.2,209.1,459,208.6L459,208.6z
		 M459,207.2c-6.8-0.2-12.5,5.2-12.6,12.1c0,0.4,0,0.8,0,1.2c-0.9,6.9,4,13.3,10.9,14.2c6.9,0.9,13.3-4,14.2-10.9c0-0.1,0-0.2,0-0.4
		c0.1-1,0.1-1.9,0-2.9c0.4-6.9-4.8-12.7-11.6-13.2c-0.3,0-0.7,0-1,0L459,207.2z M442.2,207.2h-0.8c-1.3,3.1-3.2,0-8.4,0
		c-7-0.2-12.9,5.3-13.2,12.3c0,0.4,0,0.7,0,1c-0.4,6.9,4.8,12.8,11.7,13.3c0.5,0,1,0,1.6,0c3.9-0.1,7.5-1.8,10.1-4.8l-0.7-0.8
		c-2.3,2.6-5.6,4-9.1,3.9c-6.3,0-9.1-5.8-9.1-11.2c0-6.9,2.8-12,9.1-12c4.2,0,7.8,3,8.4,7.1h0.9L442.2,207.2z M412.9,210.8
		c0-1.1,0.6-2.4,3.8-2.4v-0.7h-11.8v0.8c3.2,0,3.8,1.3,3.8,2.4v19.4c0,1.1-0.6,2.4-3.8,2.4v0.8h11.5v-0.8c-3.2,0-3.8-1.3-3.8-2.4
		L412.9,210.8z M385.4,210.8c0-1.8,0-1.8,2.9-1.8s6.1,1.5,6.1,5.3s-3.4,5.4-9,5.5L385.4,210.8z M381.4,230.1c0,1.1-0.6,2.4-3.3,2.4
		v0.8h10.6v-0.8c-2.8,0-3.4-1.3-3.4-2.4v-8.4h2.1l9.2,11.9h6.2v-0.8c-1.5-0.1-2.8-0.9-3.7-2.2l-7.6-9.4c3.6-0.5,7-2.4,7-6.5
		s-3.9-6.8-10.2-6.8h-10.4v0.8c2.7,0,3.3,1.3,3.3,2.4L381.4,230.1z M374.2,233.2l1.8-6.6h-1.1c-1,3.6-4.7,5.8-8.4,5h-5.1
		c-0.8,0-1-0.8-1-1.5v-9.2h5.5c2.6,0,4.8,0.7,4.8,3.7h0.8v-9h-0.8c0,3-2.2,3.7-4.8,3.7h-5.6v-8.4c0-0.8,0.7-1.5,1.5-1.5c0,0,0,0,0,0
		h6.9c2.3-0.1,4.2,1.7,4.5,3.9h0.8v-5.5h-20.7v0.8c2.8,0,3.4,1.3,3.4,2.4v19.4c0,1.1-0.6,2.4-3.4,2.4v0.8L374.2,233.2z M332.2,211
		c0-1.8,0-2,2.2-2c6-0.6,11.3,3.7,12,9.6c0.1,0.6,0.1,1.2,0,1.9c0.4,5.8-4.1,10.9-9.9,11.2c-0.8,0.1-1.7,0-2.5-0.1
		c-1,0-1.8-0.8-1.8-1.8c0,0,0,0,0,0L332.2,211L332.2,211z M335,233.4c10.3,0,15.5-4.9,15.5-12.8s-6-12.9-15.9-12.9h-10.1v0.8
		c2.8,0,3.4,1.3,3.4,2.4v19.4c0,1.1-0.6,2.4-3.4,2.4v0.8H335z M320.6,233.4l1.8-6.6h-1.1c-1,3.6-4.7,5.8-8.4,5h-5.1
		c-0.8,0-0.9-0.8-0.9-1.5v-9.5h5.4c2.6,0,4.8,0.7,4.8,3.7h1.3v-9h-0.8c0,3-2.2,3.7-4.8,3.7h-5.4v-8.4c0-1,0.7-1.5,1.7-1.5h6.2
		c2.3,0,4.1,1.7,4.4,3.9h0.8v-5.5h-20.8v0.8c2.9,0,3.4,1.3,3.4,2.4v19.4c0,1.1-0.6,2.4-3.4,2.4v0.8L320.6,233.4z M288,233.4v-0.8
		c-2.9,0-3.4-1.3-3.4-2.4v-9.5h5.1c2.5,0,4.8,0.7,4.8,3.7h0.8v-9h-0.8c0,3-2.3,3.7-4.8,3.7h-5v-8.4c0-0.9,0-1.5,1.7-1.5h5
		c2.8,0,5,0,5.5,3.9h0.9v-5.5H277v0.8c2.8,0,3.4,1.3,3.4,2.4v19.4c0,1.1-0.6,2.4-3.4,2.4v0.8L288,233.4z"/>
	<path class="st0" d="M206.2,220.6l-1.2,0.6l0,0c0.5,0.1,1-0.1,1.3-0.5L206.2,220.6z M202.2,219.7h-0.5l-0.7,0.4
		C202.2,220.7,202.4,220.8,202.2,219.7L202.2,219.7z M206.1,206.7c0.9-0.6,1.7-1.5,2.2-2.4l0,0c0-1.5,0-3.3-1-3.9
		c-1.9-0.7-3.8-0.9-5.8-0.8c-3.6,0-5.6,0.9-9.2,0.9h-9.7c-1.4,0-2.1-0.4-3.5-0.4h-3c-0.4,0-0.8-0.5-1.4,0c-0.4,0.3-0.9,0.3-1.3,0
		l0,0c-0.2-0.1-0.5-0.1-0.7,0H172l1,0.5c-1.2,0.8-1.4,0.7-1.8,1.9s-1.1,1.2-1.4,2.2c0,0.6-0.3,1.2-0.8,1.6l0,0c-0.5,0.5,0,1.2,0.9,1
		h0.8c0.6-0.3,1.3-0.3,1.9,0l0,0c1.2,0.5,2.1-1.1,4.5,0.9c0.8,0.7,1.4,1.6,1.7,2.6l0,0l0.6,0.6c0.8,0.7,0.4,1.1,1.4,1.7l2.3,1.3
		c-0.4,2.4,0.4,1.5,0.4,3c0.1,0.2,0.1,0.5,0,0.8l0,0v1.3c-0.5,0.4-0.8,0.9-1.1,1.4c0.5,0.1,1.1-0.1,1.5-0.4v-1c0,0,0.8-0.5,0.7-1
		l0,0c0-2.1,0.6-4.1,1.8-5.8c0.4,1.5,1,2.9,1.8,4.1v2.3h-0.4v0.5l0,0c0,0.2,0,0.4,0,0.6h1.4v-0.4l0,0c0.1-0.2,0.1-0.3,0-0.5v-0.5
		c-0.3-0.9-0.4-1.8-0.4-2.8c-0.1-0.9-0.2-1.9-0.4-2.8h8l-0.8,0.6c0.8,0,2-1.1,3.1-1.4c1.2-0.4,2.5-0.6,3.8-0.7c-0.1,1,0.2,2,0.8,2.9
		c1.1,1.9,1.1,4.1,0,6h0.6c0.3-1.5,0.7-3,1.3-4.4v-2.6h0.9c0.3,0.5,0.5,1,0.7,1.6c0.7,1.9,0.9,4,0.7,6h0.6c-0.2-1.1-0.2-2.1,0-3.2
		c0.4-1.2,0.4-2.4,0-3.6c-1-1.7-1-3.7,0-5.4c-0.6,0.4-1.3,0.8-2,1c-2.2,0.2-4.4-0.5-6.1-1.9h-0.6c-1.1,0-1.6-0.4-1.8-1.3
		s0-0.5,0-0.7l-1-0.8h1.7c0.9,0,1.8,0.4,2.4,1c0,0,3.5,2.5,5.5,1.8c1.3-0.5,2.4-1.6,2.9-2.9h0.9c0.1,0.1,0.1,0.3,0,0.4l0,0
		C208.9,206.1,207.5,206.6,206.1,206.7L206.1,206.7z M199.4,206.7c1.4,1.1,3.1,1.7,4.9,1.5c0.4-0.1,0.8-0.3,1.2-0.6
		c-1.5,0.8-3.4,0.8-4.9,0L199.4,206.7z M197.8,206.2h0.9l-0.6-0.4h-0.8v0.5c0,0,0,0.8,0.5,0.6L197.8,206.2z"/>
	<polygon class="st0" points="191,134.4 192.6,136.7 197.3,135.8 197.1,137.2 198.1,137 197.3,141.2 200.4,143.4 200.1,143.6 
		201.2,144.4 197.3,147.1 198.1,151.7 193.4,150.9 190.8,154.9 190,153.8 189.7,154.1 187.6,151 183.4,151.7 183.6,150.6 
		182.2,150.9 183,146.3 180.8,144.7 179.1,143.4 183.1,140.7 182.2,135.8 187,136.7 189.7,132.7 190.9,134.4 	"/>
	<path class="st0" d="M187.7,137.3l1.8,4.2h0.5l1.8-4.2l-2-2.9L187.7,137.3z M188.6,141.9l-1.7-4.2l-3.4-0.7l0.6,3.4l4.2,1.8
		L188.6,141.9z M187.8,143.1l-4.1-1.7l-2.9,1.9l2.9,2l4.1-1.7V143.1z M187.8,144.6l-4.1,1.7l-0.6,3.4l3.4-0.7l1.7-4L187.8,144.6z
		 M189.1,145.4l-1.8,4l2,2.9l2-2.9l-1.7-3.9L189.1,145.4z M190.7,145l1.6,4l3.4,0.7l-0.6-3.4l-4-1.7L190.7,145z M191.4,143.6l4,1.8
		l2.9-2l-2.9-1.9l-4.1,1.7l0,0L191.4,143.6z M190.9,142.2l4.2-1.7l0.6-3.4l-3.4,0.7l-1.7,4.2L190.9,142.2z M189.4,142.2
		c-0.7,0-1.2,0.5-1.2,1.2c-0.1,0.6,0.4,1.2,1.1,1.2c0,0,0,0,0,0h0.1c0.6,0,1.2-0.4,1.3-1.1v-0.2c0-0.5-0.4-1-0.9-1.1L189.4,142.2z"
		/>
	<path class="st0" d="M202.2,189.4h-0.5c-0.3,0.1-0.5,0.3-0.7,0.5C202.2,190.3,202.4,190.4,202.2,189.4z M206.2,190.2l-1.2,0.6l0,0
		c0.5,0.1,1,0,1.3-0.4L206.2,190.2z M206.2,176.2c0.9-0.6,1.7-1.4,2.2-2.4l0,0c0-1.4,0-3.3-1-3.9c-1.9-0.6-3.8-0.9-5.8-0.8
		c-3.6,0-5.5,0.9-9.1,1s-3.9-0.4-6.4-0.4h-9.9c-0.4,0-0.8-0.4-1.3,0c-0.4,0.2-0.9,0.2-1.3,0h-1.1l1,0.4c-1.2,0.8-1.3,0.7-1.8,1.9
		s-1.1,1.1-1.4,2.1c0,0.6-0.3,1.2-0.8,1.6l0,0c-0.5,0.4,0,1.1,0.9,1h0.8c0.6-0.3,1.3-0.3,1.9,0l0,0c1.2,0.6,2.1-1.1,4.5,0.9
		c0.8,0.7,1.4,1.6,1.7,2.6v0.6l0.6,0.5c0.8,0.8,0.4,1.1,1.4,1.7s2.3,1.3,2.3,1.3c-0.4,2.5,0.4,1.6,0.4,3c0.1,0.3,0.1,0.6,0,0.8l0,0
		v1.3c-0.4,0.4-0.8,0.8-1.1,1.3c0.5,0.1,1.1-0.1,1.5-0.4v-1c0,0,0.8-0.4,0.7-0.9l0,0c0-2.1,0.6-4.1,1.8-5.9c0.4,1.5,1,2.9,1.9,4.1
		v2.4h-0.4v0.6l0,0v0.7c0.5,0.2,1,0.2,1.4,0v-0.5l0,0c0.1-0.2,0.1-0.3,0-0.5v-0.5c-0.3-0.9-0.4-1.8-0.4-2.8
		c-0.1-0.9-0.2-1.9-0.4-2.8h8l-0.8,0.5c0.8,0,2-1.1,3.1-1.4c1.2-0.4,2.5-0.6,3.8-0.7c0,1,0.2,2,0.8,2.9c1,1.9,1,4.1,0,6h0.6
		c0.3-1.5,0.7-3,1.2-4.4c0.1-0.9,0.1-1.8,0-2.7h0.9c0.2,0.5,0.5,1.1,0.7,1.6c0.7,1.9,0.9,4,0.7,6h0.6c-0.2-1.1-0.2-2.1,0-3.2
		c0.4-1.2,0.4-2.4,0-3.6c-1-1.7-1-3.7,0-5.4c-0.6,0.5-1.3,0.8-2,1.1c-2.2,0.1-4.3-0.6-6-2h-0.6c-1.1,0.4-1.6-0.4-1.8-1.3
		s0-0.4,0-0.7l-1-0.7h1.7c0.9,0,1.8,0.4,2.4,1c0,0,3.5,2.5,5.4,1.9c1.3-0.6,2.4-1.7,2.9-3h0.8c0.1,0.2,0.1,0.3,0,0.5l0,0
		c-1.3,0.5-2.8,0.8-4.2,0.6L206.2,176.2z M199.4,175.8c1.4,1.1,3.1,1.7,4.9,1.5c0.4-0.1,0.8-0.3,1.2-0.5c-1.5,0.8-3.3,0.8-4.9,0
		L199.4,175.8z M197.8,175.4h0.7c-0.2-0.2-0.4-0.3-0.6-0.4c-0.2-0.1-0.5-0.1-0.8,0l0,0v0.5c0,0,0,0.8,0.5,0.6L197.8,175.4z"/>
	<path class="st0" d="M110.8,218h0.7l0.7,2.8l0.5,0.6l0,0v0.5l0,0c1,1.4,0.7,2.3-0.5,3.3s-1.2,2.6-3.2,2.4c-0.5,0.6-1.3,1-2.1,1.2
		c-0.8-0.2-1.5-0.6-2.1-1.2c-1.2,0-2.3,0-2.8-0.8s-1.3-1-1.4-2.4l0,0c-1.3-1-0.9-2.5,0-3.6l1.3-1.5l0.8-3h1.9c0.8-0.9,2.1-0.9,3-0.2
		c0,0,0,0,0,0l0.1,0.1h2.1L110.8,218z"/>
	<path class="st0" d="M107.9,217.6h-0.4c-0.2-0.1-0.5-0.1-0.8,0l-0.9,0.6c0,0.3-0.2,0.6-0.5,0.8c-0.5,0.2-0.8,0-0.8-0.7l0,0
		l-0.7,2.6l-1.4,1.7c-0.7,0.7-1.1,1.5,0,2.2l1.3-2.1l0.8,0.6l-1.6,2.3c0,1.6,0.6,1.9,2.1,1.5l0.6-3.5h0.9l-0.5,3.6
		c0.4,0.4,0.9,0.7,1.4,0.8c0.5-0.1,1-0.4,1.3-0.8l-1.3-4.1h0.8l0.8,3.6c1.4,0,1.8,0,2-1.6l-1.7-2.2l0.8-0.6l1.5,1.9
		c0.8-0.7,0.7-1.3,0-2l-1.6-1.7l-0.6-2.6h-0.4l-0.9,0.5C108.2,218.1,108,217.8,107.9,217.6L107.9,217.6z"/>
	<path class="st0" d="M83.2,218h0.6l0.8,2.8l0.5,0.6l0,0c0,0.2,0,0.3,0,0.5h0.4c0,0,0.7,2.3-0.5,3.3s-1.2,2.6-3.2,2.4
		c-0.7,1.2-2.2,1.5-3.3,0.9c0,0,0,0,0,0c-0.4-0.2-0.7-0.5-0.9-0.9c-1.2,0-2.3,0-2.8-0.8s-1.3-1-1.4-2.4l0,0c-1.3-1-0.9-2.5,0-3.6
		l1.3-1.5l0.7-3h2c0.8-0.9,2.1-0.9,3-0.2c0,0,0,0,0,0l0.1,0.1h2.1L83.2,218z"/>
	<path class="st0" d="M80.5,217.6h-0.4c-0.3-0.2-0.6-0.2-0.8,0l-0.8,0.6c0,0.3-0.2,0.6-0.5,0.8c-0.5,0.2-0.8,0-0.8-0.7l0,0l-0.7,2.6
		l-1.5,1.7c-0.6,0.7-1.1,1.5,0,2.2l1.4-2.1l0.8,0.6l-1.6,2.3c0,1.6,0.6,1.9,2.1,1.5l0.6-3.5h0.9l-0.5,3.6c0.3,0.4,0.8,0.7,1.3,0.8
		c0.6-0.1,1.1-0.4,1.4-0.8l-1.3-4.1h1l0.8,3.6c1.4,0,1.8,0,2-1.6l-1.7-2l0.8-0.6l1.5,1.9c0.5-0.4,0.7-1.2,0.2-1.8
		c-0.1-0.1-0.2-0.2-0.2-0.2l-1.4-1.8l-0.6-2.6h-0.5l-0.8,0.5c-0.1-0.3-0.2-0.5-0.4-0.7L80.5,217.6z"/>
	<path class="st0" d="M128.8,203.5h0.6l0.7,2.8l0.5,0.6l0,0v0.5l0,0c1.1,1.3,0.7,2.3-0.5,3.3s-1.2,2.6-3.2,2.4
		c-0.5,0.6-1.3,1-2.1,1.2c-0.8-0.1-1.5-0.6-2-1.2c-1.3,0-2.3,0-2.9-0.8s-1.3-1-1.5-2.4l0,0c-1.3-1-0.9-2.5,0-3.6l1.3-1.5l0.8-3h2
		c0.7-0.8,2-0.9,2.8-0.2c0,0,0,0,0,0l0.2,0.2h2.1L128.8,203.5z"/>
	<path class="st0" d="M125.8,203L125.8,203c-0.3-0.2-0.6-0.2-0.8,0l-0.9,0.6c0,0.3-0.2,0.6-0.5,0.8c-0.5,0.2-0.8,0-0.7-0.7h-0.4
		l-0.6,2.6l-1.5,1.7c-0.7,0.7-1.1,1.5,0,2.2l1.3-2.1l0.8,0.6l-1.6,2.3c0,1.6,0.6,1.9,2.1,1.5l0.6-3.5h1l-0.6,3.6
		c0.4,0.5,0.9,0.8,1.4,0.8c0.5-0.1,1-0.4,1.4-0.8l-0.8-3.7h1l0.8,3.6c1.4,0,1.8,0,2-1.6l-1.7-2.2l0.8-0.6l1.4,1.9
		c0.8-0.7,0.8-1.3,0-2l-1.5-1.7l-0.7-2.6h-0.4l-0.9,0.5c-0.1-0.3-0.2-0.5-0.4-0.7L125.8,203z"/>
	<polygon class="st0" points="216.8,134.4 218.3,136.7 223,135.8 222.7,137.2 223.8,137 223,141.2 226.1,143.4 225.8,143.6 
		226.9,144.4 223,147.1 223.8,151.7 219.1,150.9 216.4,154.9 215.7,153.8 215.4,154.1 213.3,151 209.1,151.7 209.3,150.6 
		207.9,150.9 208.7,146.3 206.4,144.7 204.8,143.4 208.8,140.7 207.9,135.8 212.7,136.7 215.4,132.7 216.6,134.4 	"/>
	<path class="st0" d="M213.5,137.3l1.7,4.2h0.5l1.8-4.2l-2-2.9L213.5,137.3z M214.3,141.9l-1.8-4.2l-3.4-0.7l0.6,3.4l4.2,1.8
		L214.3,141.9z M213.5,143.1l-4.1-1.7l-2.9,1.9l2.9,2l4.1-1.7V143.1z M213.5,144.6l-4.1,1.7l-0.6,3.4l3.4-0.7l1.7-4L213.5,144.6z
		 M214.8,145.4l-1.7,4l1.9,2.9l2-2.9l-1.7-3.9L214.8,145.4z M216.3,145l1.6,4l3.4,0.7l-0.6-3.4l-4-1.7L216.3,145z M217.1,143.6
		l4,1.8l2.9-2l-2.9-1.9l-4,1.7V143.6z M216.6,142.2l4.2-1.7l0.6-3.4l-3.4,0.7l-1.7,4.2L216.6,142.2z M215.2,142.2
		c-0.6,0-1.2,0.4-1.3,1.1v0.1c0,0.6,0.4,1.2,1.1,1.3h0.2c0.7,0,1.2-0.5,1.2-1.2c0,0,0-0.1,0-0.1c0-0.5-0.4-0.9-0.8-1.1L215.2,142.2z
		"/>
	<path class="st0" d="M128.8,181.9h0.6l0.7,2.8l0.5,0.6l0,0v0.5l0,0c1.1,1.4,0.7,2.3-0.5,3.3s-1.2,2.6-3.2,2.4
		c-0.5,0.6-1.3,1-2.1,1.2c-0.8-0.1-1.5-0.6-2-1.2c-1.3,0-2.3,0-2.9-0.8s-1.3-1-1.5-2.4l0,0c-1.3-1-0.9-2.5,0-3.6l1.3-1.5l0.8-3h2
		c0.7-0.8,2-0.9,2.8-0.2c0,0,0,0,0,0l0.2,0.2h2.1L128.8,181.9z"/>
	<path class="st0" d="M125.8,181.5L125.8,181.5c-0.3-0.2-0.6-0.2-0.8,0l-0.9,0.6c0,0.3-0.2,0.6-0.5,0.8c-0.5,0.2-0.8,0-0.7-0.7h-0.4
		l-0.6,2.6l-1.5,1.7c-0.7,0.7-1.1,1.5,0,2.2l1.3-2.1l0.8,0.6l-1.6,2.3c0,1.6,0.6,1.9,2.1,1.5l0.6-3.5h1L124,191
		c0.4,0.4,0.9,0.7,1.4,0.8c0.5-0.1,1-0.4,1.4-0.8l-0.8-3.7h1l0.8,3.6c1.4,0,1.8,0,2-1.6l-1.7-2.2l0.8-0.6l1.4,1.9
		c0.8-0.7,0.8-1.3,0-2l-1.5-1.7l-0.7-2.6h-0.4l-0.9,0.5c-0.1-0.3-0.2-0.5-0.4-0.7L125.8,181.5z"/>
	<path class="st0" d="M128.8,160.3h0.6l0.7,2.9l0.5,0.6l0,0c0,0.2,0,0.4,0,0.6l0,0c1.1,1.3,0.7,2.3-0.5,3.3s-1.2,2.6-3.2,2.4
		c-0.5,0.6-1.3,1-2.1,1.2c-0.8-0.2-1.5-0.6-2-1.2c-1.3,0-2.3,0-2.9-0.8s-1.3-1-1.5-2.4l0,0c-1.3-1-0.9-2.5,0-3.7l1.3-1.4l0.8-3h2
		c0.7-0.8,2-0.9,2.8-0.2c0,0,0,0,0,0l0.2,0.2h2.1L128.8,160.3z"/>
	<path class="st0" d="M125.8,159.9L125.8,159.9c-0.3-0.1-0.6-0.1-0.8,0l-0.9,0.6c0,0.3-0.2,0.6-0.5,0.8c-0.5,0.2-0.8,0-0.7-0.7h-0.4
		l-0.6,2.6l-1.5,1.6c-0.7,0.8-1.1,1.6,0,2.2l1.3-2l0.8,0.5l-1.6,2.4c0,1.5,0.6,1.8,2.1,1.5l0.6-3.5h1l-0.6,3.6
		c0.4,0.4,0.9,0.7,1.4,0.8c0.5-0.1,1-0.4,1.4-0.8l-0.8-3.7h1l0.8,3.6c1.4,0,1.8,0,2-1.6l-1.7-2.2l0.8-0.7l1.4,2c0.8-0.7,0.8-1.2,0-2
		l-1.5-1.7l-0.7-2.6h-0.4l-0.9,0.5c0-0.3-0.2-0.5-0.4-0.7L125.8,159.9z"/>
	<path class="st0" d="M128.8,139h0.6l0.7,2.9l0.5,0.6l0,0v0.9l0,0c1.1,1.4,0.7,2.4-0.5,3.4s-1.2,2.6-3.2,2.4c-0.6,0.6-1.3,1-2.1,1.1
		c-0.8-0.1-1.5-0.5-2-1.1c-1.3,0-2.3,0-2.9-0.8s-1.3-1-1.5-2.4l0,0c-1.3-1-0.9-2.6,0-3.7l1.3-1.4l0.8-3h2c0.8-0.8,2.1-0.9,3-0.1
		c0,0,0,0,0,0l0.1,0.1h2.1L128.8,139z"/>
	<path class="st0" d="M125.8,138.2L125.8,138.2c-0.3-0.1-0.6-0.1-0.8,0l-0.9,0.7c0,0.3-0.2,0.6-0.5,0.8c-0.5,0.2-0.8,0-0.7-0.7h-0.4
		l-0.6,2.6l-1.5,1.6c-0.7,0.8-1.1,1.6,0,2.2l1.3-2l0.8,0.5l-1.6,2.4c0,1.5,0.6,1.9,2.1,1.5l0.6-3.5h1l-1.1,3.2
		c0.4,0.4,0.9,0.7,1.4,0.8c0.4,0,1.1-0.6,1.4-0.8l-0.8-3.7h1l0.8,3.6c1.4,0,1.8,0,2-1.6l-1.7-2.3l0.8-0.6l1.4,2c0.8-0.7,0.8-1.3,0-2
		l-1.5-1.7l-0.6-2.2h-0.4l-0.9,0.4c-0.1-0.2-0.2-0.5-0.4-0.6L125.8,138.2z"/>
	<polygon class="st0" points="165.4,134.4 166.9,136.7 171.6,135.8 171.4,137.2 172.4,137 171.6,141.2 174.7,143.4 174.4,143.6 
		175.5,144.4 171.5,147.1 172.4,151.7 167.8,150.9 165.1,154.9 164.3,153.8 164.1,154.1 161.9,151 157.6,151.7 157.8,150.6 
		156.5,150.9 157.3,146.3 155.1,144.7 153.4,143.4 157.4,140.7 156.5,135.8 161.3,136.7 164.1,132.7 165.2,134.4 	"/>
	<path class="st0" d="M162,137.3l1.8,4.2h0.5l1.7-4.2l-1.9-2.9L162,137.3z M162.8,141.9l-1.8-4.2l-3.4-0.7l0.6,3.4l4.2,1.8
		L162.8,141.9z M162.1,143.1l-4.1-1.7l-2.9,1.9l2.9,2l4.1-1.7L162.1,143.1z M162.1,144.6l-4.1,1.7l-0.6,3.4l3.4-0.7l1.7-4
		c0-0.1,0-0.3-0.1-0.4L162.1,144.6z M163.4,145.4l-1.8,4l2,2.9l1.9-2.9l-1.6-3.9L163.4,145.4L163.4,145.4z M165,145l1.6,4l3.4,0.7
		l-0.7-3.4l-3.9-1.7L165,145z M165.8,143.6l4,1.8l2.9-2l-2.9-1.9l-4.1,1.7l0,0L165.8,143.6z M165.2,142.1l4.1-1.7l0.7-3.4l-3.4,0.7
		l-1.7,4.2L165.2,142.1z M163.7,142.1c-0.7,0-1.2,0.5-1.2,1.2c0,0.6,0.4,1.2,1.1,1.2c0,0,0,0,0,0h0.1c0.6,0,1.2-0.4,1.3-1.1v-0.2
		c0-0.5-0.4-1-0.9-1.1L163.7,142.1z"/>
	<path class="st0" d="M65.6,203.5h0.8l0.7,2.8l0.6,0.6l0,0v0.5l0,0c0.9,0.9,0.9,2.3,0.1,3.2c0,0,0,0-0.1,0.1c-0.8,1-1.3,2.6-3.2,2.4
		c-0.6,0.6-1.3,1-2.1,1.2c-0.8-0.1-1.6-0.5-2.1-1.2c-1.3,0-2.3,0-2.9-0.8s-1.3-1-1.5-2.4l0,0c-1.3-1-1-2.5,0-3.6l1.3-1.5l0.8-3h2
		c0.8-0.9,2.1-0.9,3-0.2c0,0,0,0,0,0c0,0,0.1,0.1,0.1,0.1h2.1L65.6,203.5z"/>
	<path class="st0" d="M62.6,203L62.6,203c-0.3-0.2-0.6-0.2-0.8,0l-0.9,0.6c0,0,0,0.6-0.4,0.8s-0.9,0-0.8-0.7l0,0l-1.6,2.5l-1.5,1.7
		c-0.6,0.7-1.1,1.5,0,2.2l1.4-2.1l0.8,0.6l-1.6,2.3c0,1.6,0.6,1.9,2.1,1.5l0.6-3.5h0.9l-0.6,3.6c0.4,0.4,0.9,0.7,1.4,0.8
		c0.6-0.1,1.1-0.4,1.4-0.8l-0.8-3.7h0.9l0.8,3.6c1.5,0,1.8,0,2.1-1.6l-1.7-2.2l0.8-0.6l1.5,1.9c0.6-0.4,0.6-1.2,0.2-1.8
		c-0.1-0.1-0.1-0.2-0.2-0.2l-1.5-1.7l-0.6-2.6h-0.5l-0.8,0.5c-0.1-0.3-0.2-0.5-0.4-0.7L62.6,203z"/>
	<path class="st0" d="M65.6,181.9h0.8l0.7,2.8l0.6,0.6l0,0v0.5l0,0c0.9,0.9,0.9,2.3,0,3.2c0,0,0,0,0,0c-0.8,1-1.3,2.6-3.2,2.4
		c-0.6,0.6-1.3,1-2.1,1.2c-0.8-0.1-1.6-0.5-2.1-1.2c-1.3,0-2.3,0-2.9-0.8s-1.3-1-1.5-2.4l0,0c-1.3-1-1-2.5,0-3.6l1.3-1.5L58,181h2
		c0.8-0.9,2.1-0.9,2.9-0.2c0,0,0,0,0.1,0c0.1,0,0.1,0.1,0.1,0.1h2.1L65.6,181.9z"/>
	<path class="st0" d="M62.6,181.5L62.6,181.5c-0.3-0.2-0.6-0.2-0.8,0l-0.9,0.6c0,0,0,0.6-0.4,0.8s-0.9,0-0.8-0.7l0,0l-1.6,2.2
		l-1.5,1.7c-0.6,0.7-1.1,1.5,0,2.2l1.4-2.1l0.8,0.6l-1.6,2.3c0,1.6,0.6,1.9,2.1,1.5l0.6-3.5h0.9l-0.6,3.6c0,0,1,0.8,1.4,0.8
		c0.6-0.1,1.1-0.4,1.4-0.8l-0.8-3.7h0.9l0.8,3.6c1.5,0,1.8,0,2.1-1.6l-1.7-2.2l0.8-0.6l1.5,1.9c0.6-0.4,0.7-1.2,0.2-1.8
		c-0.1-0.1-0.1-0.2-0.2-0.2l-1.5-1.7l-0.6-2.6h-0.5l-0.8,0.5c-0.1-0.3-0.2-0.5-0.4-0.7L62.6,181.5z"/>
	<path class="st0" d="M65.6,160.3h0.8l0.7,2.9l0.6,0.6l0,0v0.6l0,0c0.9,0.9,0.9,2.3,0.1,3.2c0,0,0,0-0.1,0.1c-0.8,1-1.3,2.6-3.2,2.4
		c-0.6,0.6-1.3,1-2.1,1.2c-0.8-0.2-1.5-0.6-2.1-1.2c-1.3,0-2.3,0-2.9-0.8s-1.3-1-1.5-2.4l0,0c-1.3-1-1-2.5,0-3.7l1.3-1.4l0.8-3h2
		c0.8-0.9,2.1-0.9,3-0.2c0,0,0,0,0,0l0.1,0.1h2.1L65.6,160.3z"/>
	<path class="st0" d="M62.6,159.9L62.6,159.9c-0.3-0.1-0.6-0.1-0.8,0l-0.9,0.6c0,0,0,0.6-0.4,0.8s-0.9,0-0.8-0.7l0,0l-0.7,2.6
		l-1.5,1.6c-0.6,0.8-1.1,1.6,0,2.2l0.6-2.8l0.8,0.5l-1.6,2.3c0,1.5,0.6,1.9,2.1,1.5L60,165h0.9l-0.6,3.6c0,0,1,0.8,1.4,0.8
		c0.6-0.1,1.1-0.4,1.4-0.8l-0.8-3.7h0.9l0.8,3.6c1.5,0,1.8,0,2.1-1.6l-1.7-2.2l0.8-0.7l1.5,2c0.7-0.7,0.7-1.3,0-2l-1.5-1.7l-0.6-2.6
		h-0.5l-0.8,0.5c0-0.3-0.2-0.5-0.4-0.7L62.6,159.9z"/>
	<path class="st0" d="M65.6,139h0.8l0.7,2.9l0.6,0.6l0,0v0.9l0,0c0.9,0.7,1.1,2,0.4,2.9c-0.1,0.2-0.3,0.3-0.4,0.4
		c0,2-1.3,2.6-3.2,2.4c-0.6,0.6-1.3,1-2.1,1.1c-0.8-0.1-1.5-0.5-2.1-1.1c-1.3,0-2.3,0-2.9-0.8s-1.3-1-1.5-2.4l0,0
		c-1-0.8-1.2-2.3-0.4-3.3c0.1-0.1,0.2-0.3,0.4-0.4l1.3-1.4l0.8-3h2c0.9-0.8,2.2-0.8,3.1,0l0,0h2.1L65.6,139z"/>
	<path class="st0" d="M62.6,138.2L62.6,138.2c-0.3-0.1-0.6-0.1-0.8,0l-0.9,0.7c0,0,0,0.6-0.4,0.8s-0.9,0-0.8-0.7l0,0l-0.7,2.6
		l-1.5,1.6c-0.6,0.8-1.1,1.6,0,2.2l1.4-2l0.8,0.5l-1.6,2.4c0,1.5,0.6,1.9,2.1,1.5l0.6-3.5h0.9l-0.6,3.6c0,0,1,0.8,1.4,0.8
		s1.1-0.6,1.4-0.8l-0.8-3.7h0.9l0.8,3.6c1.5,0,1.8,0,2.1-1.6l-1.7-2.3l0.8-0.6l1.5,2c0.6-0.4,0.6-1.2,0.2-1.8
		c-0.1-0.1-0.1-0.2-0.2-0.2l-1.5-1.7l-1.5-2.6h-0.5l-0.8,0.4c-0.1-0.2-0.2-0.5-0.4-0.6L62.6,138.2z"/>
	<path class="st1" d="M73.6,185.4c0.1,0.6,0.3,1.1,0.7,1.6c-0.2,0.4-0.2,0.8,0,1.2l-0.4,2h1.3v0.7h5.5v-2c0.4-0.4,0.4-1.1,0-1.5
		l0.7,0.2c0.3-0.6,0.3-1.2,0-1.8l1-6h-1.1v-1.3H80l-0.8-0.6h-0.8l-0.8-0.4l-0.8,0.4l-0.7-0.4l-0.8,0.4h-0.7l-0.8,0.6h-1.2
		c0.4,2.1,0.7,4.2,0.8,6.4C73.6,185,73.6,185.2,73.6,185.4z M78.5,189.4h-3.7l0.4-1.1h3.4L78.5,189.4z M78.7,187.4h-3.9
		c-0.1-0.2-0.1-0.4,0-0.5h3.9L78.7,187.4z M74.9,178.8h0.7l0.7-0.4h1.4l0.8,0.4h0.7l0.8,0.6l-0.8,5c0.3,0.4,0.3,1,0,1.4h-4.2
		c0-0.3,0-0.5,0.2-0.8c0-0.2,0.2,0.5,0-0.9c-0.3-1.6-0.6-3.2-0.8-4.9L74.9,178.8z"/>
	<path class="st1" d="M81.1,193.6l-0.7,0.4h-0.7l-0.8,0.6h-1.2c0.4,2.1,0.7,4.2,0.8,6.3c-0.1,0.2-0.1,0.5,0,0.8
		c0,0.6,0.2,1.1,0.6,1.6c-0.2,0.4-0.2,0.8,0,1.2l-0.4,2.1H80v0.7h5.6v-2c0.3-0.4,0.3-1.1,0-1.5l0.7-0.2c0.3-0.6,0.3-1.2,0-1.8l1-6
		h-1.1v-1.3H85l-0.8-0.6h-0.8l-0.8-0.5l-0.8,0.4L81.1,193.6z M79.9,203.7v-0.4l3.9,0.4H79.9z M80.3,205.6v-0.9h3.4l0.2,0.9H80.3z
		 M82.7,195.4H84l0.8,0.5l-0.8,5c0.3,0.4,0.3,1,0,1.3h-4.2c0-0.1,0-0.1,0.1-0.2c0-0.3,0.3,0.6,0-0.9c-0.3-1.6-0.5-3.2-0.7-4.9
		l0.7-0.5h0.7l0.7-0.4L82.7,195.4L82.7,195.4z"/>
	<path class="st1" d="M111.1,206.4c1.2,0.5,3.1,1.1,3.1,1.1v-0.7l-1.1-0.8l-2.7-2l-1.8-1.6c-0.5-0.8-0.9-1.7-0.9-2.7
		c-0.2-2.3-0.2-4.7,0-7c2,0.8,3.1,0.2,3.1-2h0.7c2-0.3,2.4-2,1.5-3.6c1-0.4,1.7-1.3,1.7-2.4c0.1-1.1-0.4-2.2-1.3-2.9
		c0.7-0.8,0.9-1.8,0.8-2.8c-0.2-0.5-0.5-1-0.9-1.3c-0.2-0.5-0.5-0.9-1-1.2c0-0.6-0.3-1.1-0.8-1.4c-0.4-1.1-1.6-1.6-2.7-1.2
		c-0.1,0-0.2,0.1-0.3,0.2c-1.1-1.4-3.2-1.7-4.6-0.6c-0.2,0.2-0.4,0.4-0.6,0.6c-0.7-0.1-1.4-0.1-2.1,0.1c0.7,0,1.4,0.1,2.1,0.2
		c0.8-1.2,3.2-1.4,3.9,0c0,0.1-0.6,1.6,0,0.8s1.8-1.2,2.3-0.8s-0.8,2,0,2.1c1,0,1.8,0.5,2.3,1.3c0.3,1-0.5,2-1.1,2.7h0.4
		c1.9,1.3,1.4,3.9,0,3.9h-1.8c0.8,0.8,1.9,3.1,1.6,3.5s-1.9,0.4-2.5,0.4c0.4,3.2-0.5,2.9-2.9,1.7c-0.1,1.9-0.1,3.8,0,5.7
		c0.3,3.6,0,4.9,2.9,7.7l1.3,1.3c-0.6-0.2-1.2-0.5-1.7-0.8c-0.8-0.5-1.4-0.2-1.4,0.8c0,0.1,0,0.3,0,0.4l0.2,0.2
		c0.6,0.7,1.6,1.6,1.6,1.6l1,1l0.6-0.4l-0.8-2.3C109.8,205.8,110.4,206.2,111.1,206.4z"/>
	<path class="st1" d="M104.4,203.3c-0.1,0-0.3,0.1-0.4,0.2c-0.3,0.8-1.2,1.9-1.5,2.5l-1.3,1c0.9-1.2,1.8-2.4,2.8-3.5
		c0.1-0.3,0.2-0.6,0-0.8c-0.5-0.5-1.8,0.4-2.3,0.4c3.3-2.6,3.3-4,3.3-7.8c0-1.8,0.7-6,0-5.6s-2.7,1.4-3.4,0.8s0-2.2,0-2.9
		c-2.3,0.3-3.6-0.2-1.8-2.6c-3.2-1.8-2.5-2.5,0-4.3c-1.5-0.5-1.8-1.3-1.5-2.4s2.9-0.3,2.3-1.1c-0.4-0.8-0.4-1.8,0-2.6
		c-0.7,0.6-1.1,1.5-1,2.5c-0.5,0.1-0.9,0.3-1.2,0.7c-1.1,1.1-1.2,2.8-0.2,4c-2.2,1.7-2,3,0,4.4c-0.8,1.4-0.4,3.1,0.8,3.1
		c0.2,0.3,0.5,0.5,0.8,0.7c-0.5,1.3,1.5,1.4,1.8,2.2s2.3-0.1,2.3,0.8v2.8c-0.4,3.7,0.2,4.9-3.3,7.4l-1.7,1.1l-2.1,1.3l0.4,0.9
		l2.3-0.8l-1.6,1v0.7c1.1-0.3,2.2-0.7,3.2-1.1l-0.8,1.3l-0.9,1.8l0.8,0.6l1.1-1l-0.8,1.5h0.6c0.6-0.6,2.9-2.4,2.9-2.9
		c0.6-0.9,1.3-1.7,2-2.5C105.7,204.3,105.1,203.2,104.4,203.3z"/>
	<path class="st1" d="M237.8,129.2h-193v1.4c3.9,0.9,6.8,4.3,7,8.4v80.3c0.8,4.1,3.1,7.8,6.5,10.3c2.3,2.3,5.2,3.8,8.4,4.4
		c1.4,0.3,2.9,0.5,4.4,0.5h13.4c2.1-0.1,4.2,0.3,6.1,1c1,1.2,2,2.6,2.7,4l0.5-0.8c0.5,0.7,1,1.4,1.4,2.2c1.2-2.3,3-4.2,5.1-5.6
		c1.8-0.7,3.8-1,5.7-1h15.8c3.9-0.5,7.4-2.4,10.1-5.2c2.2-2.1,3.6-4.8,4.1-7.8v-79.7c0.1-2.1,0.7-4.2,1.7-6c1.7-1.7,3.9-3,6.2-3.6
		h0.7c2.2,1.6,3.6,4.1,3.7,6.9v80.3c-0.1,0.5-0.3,3.6,4,8.4c0.8,0.9,1.7,1.7,2.8,2.4c3.2,3.1,7.7,4.7,12.2,4.4H180
		c2.2,0,4.4,0.3,6.5,1.1c1.1,1.4,2.1,2.9,3,4.4l0.5-0.8l1.4,2.1c1.1-2.2,2.7-4.1,4.7-5.6c1.8-0.7,3.8-1.1,5.7-1.2h16.8
		c4.1-0.5,7.8-2.4,10.6-5.4c2.1-2.3,3.3-5.3,3.6-8.4v-79c0.2-2.1,0.9-4.1,1.9-6c1.6-1.7,3.5-3.1,5.7-4L237.8,129.2z M94.6,170.3
		h20.2V207c0.2,2.8-1.7,5.2-4.4,5.7H94.6V170.3z M81.8,168.9l12.2-12l12,12H81.8z M104.9,150.1l10-9.9v19.9L104.9,150.1z
		 M105.9,130.1l-12.5,12.6l-12.7-12.6H105.9z M71.8,139l10.5,10.5L71.8,160V139z M71.8,170.3h21.4v42.4H76.9c-2.8-0.4-5-2.8-5.1-5.7
		V170.3z M133.2,136.6v82.9c0,0.6-0.2,1.1-0.4,1.7c-2.2,5.4-7,9.2-12.7,10.2h-16c-4.4-0.7-8.7,1.4-11,5.2c-1.6-3.2-4.8-5.4-8.4-5.6
		H68.8c-4.4,0-8.5-1.7-11.7-4.7c-1.9-1.9-3.2-4.3-3.8-6.9v-80.8c-0.1-3.5-2-6.7-5-8.4h22v77c0.1,2.9,1.9,5.4,4.5,6.5l2.5,0.4h33.6
		c3-1.1,4.7-2.3,5.4-5.5v-78.7H138C135.2,131,133.4,133.6,133.2,136.6L133.2,136.6z M229.7,221.2c-1.8,5.6-6.8,9.6-12.7,10.1h-16.8
		c-4.2-0.5-8.3,1.6-10.3,5.4c-1.6-3.3-4.8-5.4-8.4-5.7c-0.9-0.1-1.7-0.1-2.6,0h-14.3c-4.1,0-8-1.7-10.7-4.7
		c-1.9-1.9-3.2-4.3-3.6-6.9c0-0.2,0-0.3,0-0.5v-61.3h79.4l0.4,61.5C230.1,219.9,230,220.5,229.7,221.2L229.7,221.2z M229.7,136.6
		c-0.1,0.8-0.1,1.6,0,2.4v17.2h-79.8v-17.7c0-3.5-2-6.8-5.1-8.4l89.5-0.2C231.8,131.3,230.2,133.8,229.7,136.6L229.7,136.6z"/>
	<path class="st1" d="M83.7,187c-0.2,0.4-0.2,0.8,0,1.2v2H85v0.7h5.6v-2c0.3-0.5,0.3-1,0-1.5l1.1-0.2c0.3-0.5,0.3-1.2,0-1.8l1.1-6
		h-1.1V178h-1.3l-0.8-0.6h-0.8l-0.8-0.4l-0.8,0.4l-0.8-0.4l-0.7,0.4h-0.7l-0.8,0.6h-1.2l-0.1,6.8c-0.1,0.2-0.1,0.5,0,0.7
		C83.2,186,83.4,186.6,83.7,187z M84.9,187.3v-0.5h3.9c0.1,0.2,0.1,0.4,0,0.5H84.9z M85.1,189.2v-0.9h3.4l0.2,0.9H85.1z M85.1,178.8
		h0.6l0.8-0.4h1.4l0.7,0.4h0.7l0.8,0.6l-0.9,5l0,0c0.4,0.4,0.4,1,0,1.4c0,0,0,0,0,0h-4.2c0-0.3,0-0.5,0.2-0.8c0-0.2,0.2,0.5,0-0.9
		c-0.3-1.6-0.5-3.2-0.7-4.9L85.1,178.8z"/>
	<path class="st0" d="M240.6,255v-2.1h-7.2V249c0-0.6-0.3-1.2-0.7-1.6l-0.9-0.5c-0.1-0.5-0.4-1-0.8-1.4c-0.5-0.4-1.1-0.7-1.7-0.8
		h-75.6v-3.9c0-1-0.7-1.9-1.7-2.2c-0.2-1.2-1.2-2.2-2.4-2.3h-16.8c-1.2,0.3-2.1,1.4-2.1,2.6v5.6H53.9c-0.6,0.1-1.2,0.4-1.7,0.8
		c-0.5,0.5-0.8,1.2-0.8,1.9v5.5h-8.8v19H45v1.3h9.8c1.2,0,2.2-1,2.3-2.3V265h77.2c1-0.1,1.9-0.8,2.1-1.9c0-0.2,0-0.3,0-0.5v-6h11.9
		v4.3c0,1.4,1.2,2.6,2.6,2.7c0.3,0.8,1.1,1.4,2,1.4h74.6v4c0,1.2,0.8,2.3,2,2.6h0.5c0.3,0.6,0.9,1.1,1.6,1.3h10.6V255H240.6z
		 M53.7,269.9h-8.9v-15.6h7.3v8.9l2.3,5.6H54C54.1,269.2,54,269.6,53.7,269.9z M54.4,264.9l-0.7-1.8h0.7V264.9z M132.4,261.8H53.3
		v-14.5c-0.1-0.3-0.1-0.6,0-0.8c0.2-0.1,0.5-0.1,0.8,0h77.1v8.4l2.4,5.7C133.5,261.2,133,261.7,132.4,261.8L132.4,261.8z
		 M133.6,256.5l-0.9-1.7h0.9V256.5z M132.7,253.3v-14.4c0-0.5,0.4-1,0.9-1.2h15.6c0.6,0,1.1,0.4,1.2,0.9v14.7L132.7,253.3z
		 M149.7,254.8h0.7l-0.7,1.7V254.8z M151.3,261.3c-0.5-0.1-0.9-0.4-1-0.9l1.9-5.6v-8.4h77.7c0.2-0.1,0.5-0.1,0.8,0
		c0.1,0.3,0.1,0.6,0,0.8v14.1L151.3,261.3z M230,263.1l-0.7,1.8v-1.8H230z M238.9,269.9h-8.4c-0.6,0.1-1.1-0.4-1.2-1
		c0,0,0-0.1,0-0.1l2.5-5.6v-8.9h7.1L238.9,269.9z"/>
	<path class="st0" d="M67.4,258.2c0.2,0.1,0.5,0.1,0.8,0l1-1.3l2-2.5l-1.4-2.2c-0.3-0.6-0.8-1.2-1.3-1.7c-0.3-0.1-0.7-0.1-1,0h3.1
		 M70.6,251L70.6,251l1.4,2l1.4-1.9l0.4-0.6l0,0v-0.4h1.6c-0.4,0.3-0.7,0.7-1,1.1l-1.9,2.4l2.4,3.7l0.7,0.8h-2.3c0-0.2,0-0.4,0-0.7
		l-1.6-2.5l-1.5,2l-0.4,0.7h-2.3L70.6,251z M83.5,249.8h-0.9c-0.1,0.3-0.1,0.7,0,1v4.2c-0.1,0.6-0.1,1.1,0,1.7
		c0.8,1.1,2.2,1.3,3.3,0.6c0.3-0.2,0.5-0.4,0.6-0.7c0.2-0.6,0.2-1.2,0-1.9V250c-0.3-0.1-0.6-0.1-0.9,0h1.9c-0.2,0,0,0.6,0,1.3v3.4
		c0.1,0.7,0.1,1.5,0,2.2c-1.1,1.6-3.3,1.9-4.9,0.8c-0.3-0.2-0.5-0.5-0.8-0.8c-0.3-0.6-0.4-1.3-0.4-2v-4.1c0.1-0.3,0.1-0.7,0-1
		L83.5,249.8L83.5,249.8z M89.1,258.2c0.3,0.1,0.7,0.1,1,0c0.1-0.4,0.1-0.9,0-1.3v-5.4c0.1-0.3,0.1-0.7,0-1h1.5l2.9,6.7l2.8-6.7h2.7
		c-0.3-0.1-0.6-0.1-0.9,0c-0.1,0.3-0.1,0.6,0,0.9v5.9c-0.1,0.3-0.1,0.6,0,0.9c0.3,0.1,0.6,0.1,0.9,0h-2.6c0.1-0.4,0.1-0.7,0-1.1v-6
		l-3.3,7.6l0,0l-3.2-7.2v6.5c0,0.2,0.4,0,0.8,0h-2.7L89.1,258.2z M105.9,257.6c0.5-0.3,0.8-0.9,0.7-1.5c0.1-0.6-0.2-1.2-0.8-1.5
		c-0.6-0.3-1.3-0.5-1.9-0.4h-0.7v3.3h0.8c0.5,0.2,1,0.2,1.5,0.2L105.9,257.6z M100.7,258.2h0.9c0.1,0,0-0.4,0-0.9v-5.9
		c0.1-0.3,0.1-0.7,0-1h2.6c0.8,0,1.7,0.1,2.4,0.5c0.6,0.4,0.9,1.1,0.8,1.8c0.1,0.6-0.2,1.1-0.6,1.5c-0.4,0.1-0.7,0.1-1.1,0
		c0.6,0.2,1.1,0.4,1.5,0.8c0.4,0.4,0.6,0.9,0.6,1.4c0.1,0.9-0.5,1.8-1.3,2.2c-0.6,0.1-1.2,0.1-1.8,0h-4.1L100.7,258.2z M105.4,253.4
		c0.6-0.2,0.9-0.8,0.8-1.4c0.1-0.7-0.3-1.3-0.9-1.6c-0.5-0.1-1.1-0.1-1.6,0h-0.4v3L105.4,253.4L105.4,253.4z M113.4,253.4
		c0.9-0.4,1.3-1.5,0.8-2.4c-0.2-0.3-0.4-0.6-0.7-0.8c-0.4-0.1-0.8-0.1-1.2,0h-0.7v3.3c0.5,0.1,1,0.1,1.5,0.1L113.4,253.4z
		 M108.4,258.2h0.9c0.1-0.4,0.1-0.7,0-1.1v-5.7c0.1-0.3,0.1-0.6,0-0.9c-0.3-0.1-0.6-0.1-0.9,0h3.5c0.6-0.1,1.2-0.1,1.8,0
		c0.9,0.3,1.4,1.1,1.3,2c0.1,0.6-0.2,1.1-0.6,1.5c-0.5,0.4-1.1,0.6-1.7,0.8l2.6,3.4h-0.9l-3-4h-0.7v3.5c0.3,0.1,0.6,0.1,0.9,0h-3.4
		L108.4,258.2z M122,255.1l-1.5-3.7l-1.4,3.7H122z M116.6,258.4L116.6,258.4c0.2,0.1,0.5,0.1,0.7,0c0.4-0.6,0.6-1.2,0.8-1.9l2.7-6.5
		l0,0l3.1,7.5l0.5,0.9c0.2,0.1,0.5,0.1,0.7,0h-2.6c0-0.2,0-0.3,0-0.5l-0.5-1.3h-3.3l-0.6,1.6c0,0.1,0,0.3,0,0.4
		c-0.1,0.2-0.1,0.3,0,0.5h0.7L116.6,258.4z M134.3,249.5c0.4,0.1,0.7,0.1,1.1,0v-6.9c0.1-0.3,0.1-0.6,0-0.9c-0.4-0.1-0.7-0.1-1.1,0
		h3.9c-0.3-0.1-0.7-0.1-1,0c-0.1,0.3-0.1,0.6,0,0.9v6.3c0.3,0.1,0.7,0.1,1,0h-3.9V249.5z M138.7,249.5c0.4,0.1,0.7,0.1,1.1,0
		c0.1-0.4,0.1-0.9,0-1.4v-5.9l0,0l-0.5-0.4h1.7l5.1,6.4v-4.4c0.1-0.5,0.1-1,0-1.4c-0.3-0.1-0.6-0.1-0.9,0h3.1c-0.3-0.1-0.7-0.1-1,0
		c-0.1,0.4-0.1,0.9,0,1.3v7.1l0,0l-5.9-7.3v4.6c-0.2,0.5-0.2,1,0,1.4H138.7L138.7,249.5z M167.3,255.5c0.1,0.5,0.4,1,0.7,1.5
		c0.5,0.6,1.2,1,2,0.9c0.4,0,0.8-0.1,1.1-0.4c0.1-0.3,0.1-0.7,0-1.1c0.1-0.4,0.1-0.7,0-1.1l-1.3-0.9l-1.1-0.8
		c-0.3-0.2-0.6-0.4-0.8-0.7c-0.3-0.4-0.6-0.8-0.6-1.4c0-0.6,0.2-1.2,0.7-1.7c0.5-0.4,1.1-0.7,1.8-0.7h1.8v2.9l0,0
		c-0.1-0.7-0.5-1.4-1.1-1.9c-0.4-0.3-0.9-0.5-1.3-0.5c-0.3-0.1-0.7-0.1-1,0c-0.1,0.3-0.1,0.6,0,0.9c-0.1,0.3-0.1,0.6,0,0.8
		c0.3,0.3,0.6,0.6,1,0.8l1.2,0.8c0.6,0.3,1.1,0.8,1.5,1.3c0.1,0.4,0.1,0.9,0,1.3c0,0.7-0.3,1.3-0.8,1.8c-0.6,0.5-1.3,0.7-2,0.7h-2.1
		v-2.9L167.3,255.5z M177.3,257c0.5,0.6,1.2,1,2,1c0.8,0,1.5-0.4,2-1c0.6-0.9,0.9-2,0.8-3.1c0.1-1.1-0.2-2.2-0.8-3.2
		c-0.5-0.6-1.2-0.9-2-0.9c-0.8,0-1.5,0.4-2,1c-0.6,0.9-0.9,2-0.8,3.1c0,1.1,0.4,2.2,1.2,3.1L177.3,257z M176.3,250.4
		c1.7-1.6,4.3-1.6,6,0c0.9,0.9,1.4,2.2,1.4,3.4c0.1,1.3-0.5,2.6-1.4,3.4c-0.8,0.8-1.9,1.1-2.9,1.1c-1.2,0-2.3-0.4-3.1-1.3
		c-1.7-1.9-1.7-4.8,0-6.7L176.3,250.4z M185.1,258h0.9c0.1,0,0,0,0-0.9v-6c0.1-0.3,0.1-0.6,0-0.9h2.9c-0.3-0.1-0.7-0.1-1,0
		c-0.1,0.3-0.1,0.6,0,0.8v6.4c-0.1,0.1-0.1,0.3,0,0.4h1.2c0.8,0.2,1.6,0.2,2.4,0c0.4,0,0.8-0.7,1.2-1.4l0,0l-0.7,2.3H185L185.1,258z
		 M194,258c0.3,0.1,0.7,0.1,1,0c0.1-0.3,0.1-0.6,0-0.9v-6c0.1-0.3,0.1-0.6,0-0.9h6.1v1.9l0,0c0-0.4-0.2-0.9-0.5-1.2
		c-0.5-0.1-1-0.1-1.5,0H197c0,0.1,0,0.3,0,0.4v2.9h2.1c0.4,0.1,0.7,0.1,1.1,0c0.1-0.3,0.1-0.7,0-1l0,0v3l0,0c0-0.3,0-0.7,0-1
		c-0.4-0.1-0.7-0.1-1.1,0H197v3.8h1.5c0.7,0.2,1.3,0.2,2,0c0.6-0.3,1-0.8,1.2-1.4l0,0l-0.6,2.3h-7.2L194,258z M203,258
		c0.3,0.1,0.7,0.1,1,0c0.1-0.4,0.1-0.9,0-1.4v-5.4c0.1-0.3,0.1-0.6,0-0.9c-0.3-0.1-0.7-0.1-1,0h2.6l3.5,6.2l2.9-6.7h1.7
		c-0.1,0.3-0.1,0.6,0,0.9v5.8c-0.1,0.3-0.1,0.6,0,0.9c0.3,0.1,0.7,0.1,1,0H212c0.1-0.4,0.1-0.7,0-1.1v-6l-3.4,7.5l0,0l-3.4-7.2v5.8
		c-0.2,0.5-0.2,1,0,1.4c0.3,0.1,0.6,0.1,0.9,0H203L203,258z M59.4,258c0.3,0.1,0.6,0.1,0.9,0c0.1-0.3,0.1-0.6,0-0.9v-5.9
		c0.1-0.3,0.1-0.6,0-0.9c-0.3-0.1-0.6-0.1-0.9,0h7v1.9l0,0c0.1-0.7-0.4-1.4-1.1-1.5c-0.2,0-0.5,0-0.7,0.1h-1.8v2.9h2
		c0.3,0.1,0.7,0.1,1,0c0.1-0.3,0.1-0.7,0-1l0,0v3.1l0,0c0.1-0.4,0.1-0.7,0-1.1c-0.3-0.1-0.7-0.1-1,0h-2v3.4h1.4
		c0.6,0.1,1.3,0.1,1.9,0c0.2-0.5,0.3-1.1,0.2-1.6l0,0l-0.6,2.3h-6.1L59.4,258z"/>
</g>
</svg>
