<svg id="Capa_1" data-name="Capa 1" xmlns="http://www.w3.org/2000/svg" viewBox="0 0 800 400"><defs><style>.cls-1,.cls-2{fill:#ccc;}.cls-1{fill-rule:evenodd;}</style></defs><g id="Primer_plano" data-name="Primer plano"><path class="cls-1" d="M742.14,172.56l4.28,10.92H738Zm1.34-5.54h-.75l-7.81,18.56c-1.59,3.77-2.6,6.54-4.95,6.8v.75H738v-.42c-1.35,0-2.69,0-2.69-1.68a30.15,30.15,0,0,1,2.1-6H747.6l1.34,3.28c1.51,3.44,1.51,4.19-1.76,4.36v.76H757v-.76c-2.1,0-2.94-2.18-3.61-3.78Zm-18.21,0h-.84c-1.26,3.11-3.19,0-8.4,0A12.72,12.72,0,0,0,702.77,181a12.42,12.42,0,0,0,11.52,13.26,12.63,12.63,0,0,0,1.74,0,13.49,13.49,0,0,0,10-4.87l-.59-.84a11.66,11.66,0,0,1-9.06,3.87,9.92,9.92,0,0,1-9.25-10.53,8.65,8.65,0,0,1,.1-.89c0-7,2.77-12.09,9.15-12.09a8.39,8.39,0,0,1,8.39,7.13h.93Zm-30.39,3.61c0-1.09.58-2.35,3.77-2.35v-.75h-11.5v.75c3.28,0,3.86,1.26,3.86,2.35V190c0,1.1-.58,2.36-3.86,2.36v.75h11.5v-.42c-3.19,0-3.77-1.26-3.77-2.35Zm-14.78,0c0-1.09.59-2.35,3.78-2.35v-.75h-9.24v.75c3.19,0,3.78,1.26,3.78,2.35v15.45l-14.86-18.55h-6.63v.75c1.93,0,2.27,0,3.44,1.76h0v19.65c0,1.09-.59,2.35-3.78,2.35v.76h9.24v-.09c-3.19,0-3.78-1.26-3.78-2.35v-17.8l16.79,21.24h.59ZM652.4,167h-.84c-1.26,3.11-3.19,0-8.4,0A12.72,12.72,0,0,0,629.9,181a12.42,12.42,0,0,0,11.52,13.26,12.63,12.63,0,0,0,1.74,0,13.49,13.49,0,0,0,10-4.87l-.59-.84a11.66,11.66,0,0,1-9.06,3.87,9.92,9.92,0,0,1-9.25-10.53,8.65,8.65,0,0,1,.1-.89c0-7,2.77-12.09,9.15-12.09a8.39,8.39,0,0,1,8.39,7.13h.93Zm-28.21,26.11,1.76-6.55h-1.09a7.14,7.14,0,0,1-8.39,5H612.1c-.76,0-1-.84-1-1.52V181h5.46c2.6,0,4.78.67,4.78,3.69h.84v-9.06h-.84c0,3-2.18,3.69-4.78,3.69h-5.46v-8.4a1.52,1.52,0,0,1,1.5-1.52H619a4.37,4.37,0,0,1,4.45,3.95h.84v-5.54H603.71v.75c2.77,0,3.35,1.26,3.35,2.35v19.4c0,1.09-.58,2.35-3.35,2.35v.75Zm-29.89-.75c-2.77,0-3.36-1.26-3.36-2.36V169.54h2.77c2.86,0,4.62,0,5.46,4.87h.93v-6.55H578.27v6.55h.25c.84-4.87,2.69-4.87,5.54-4.87h2.85v20.82c0,1.09-.58,2.35-3.44,2.35v.76h10.75ZM540.24,171c0-1.85,0-2,2.26-2a10.93,10.93,0,0,1,12.09,9.61,10.7,10.7,0,0,1,0,2.4,10.57,10.57,0,0,1-9.88,11.22,10.3,10.3,0,0,1-2.54-.14,1.85,1.85,0,0,1-1.93-1.76V171Zm2.94,22.16c10.41,0,15.61-4.87,15.61-12.76s-6-12.84-15.87-12.84h-10v.75c2.86,0,3.45,1.26,3.45,2.35V190c0,1.1-.59,2.36-3.45,2.36v.75ZM515,172.56l4.78,10.92h-9.23Zm1.34-5.54h-.75l-7.81,18.56c-1.6,3.77-2.6,6.54-5,6.8v.75h7.64v-.42c-1.26,0-2.6,0-2.6-1.68a30.15,30.15,0,0,1,2.1-6h9.9l1.43,3.28c1.51,3.44,1.51,4.19-1.76,4.36v.76h9.82v-.76c-2.18,0-2.94-2.18-3.69-3.78ZM481.81,171c0-1.85,0-2,2.18-2a10.91,10.91,0,0,1,12.08,9.61,10.7,10.7,0,0,1,0,2.4A10.57,10.57,0,0,1,486,192a10.37,10.37,0,0,1-2.36-.15,1.84,1.84,0,0,1-1.84-1.84V171Zm2.94,22.16c10.32,0,15.53-4.87,15.53-12.76s-6-12.84-15.87-12.84H474.5v.75c2.77,0,3.36,1.26,3.36,2.35V190c0,1.1-.59,2.36-3.36,2.36v.75Zm-17.63-22.5c0-1.09.58-2.35,3.77-2.35v-.75h-11.5v.75c3.28,0,3.78,1.26,3.78,2.35V190c0,1.1-.5,2.36-3.78,2.36v.75h11.5v-.42c-3.19,0-3.77-1.26-3.77-2.35Zm-29.22,23h.84c0-2.85,3.19,0,7.22,0a7.47,7.47,0,0,0,8.35-6.48c0-.19,0-.38.05-.57,0-4.61-3.53-6.29-8.4-9.48-1.68-1-4.11-2.61-4.11-4.79a3.61,3.61,0,0,1,3.49-3.73,4.4,4.4,0,0,1,.62,0,7.74,7.74,0,0,1,7,6.63h1l-.84-8.4h-.84c-.93,2.86-2.77,0-6.89,0a6.48,6.48,0,0,0-6.79,6.12c0,.12,0,.23,0,.35,0,7.3,10.5,7.55,12.09,13a4.36,4.36,0,0,1-2.91,5.44,4.45,4.45,0,0,1-1.45.19,8.41,8.41,0,0,1-8.4-6.8H437Zm-23-22.83c0-1.76.42-1.76,2.85-1.76s6.22,1.51,6.22,5.29-3.45,5.37-9.07,5.54ZM411,190c0,1.1-.59,2.36-3.28,2.36v.75h10.58v-.42c-2.85,0-3.44-1.26-3.44-2.35V182h2.18l9.24,11.92h6.21v-1.18a4.9,4.9,0,0,1-3.7-2.18L421.2,181c3.61-.51,7-2.44,7-6.47s-3.86-6.8-10.24-6.8H407.76v.76c2.69,0,3.28,1.26,3.28,2.35Zm-8.4,3.11,1.77-6.55h-1.1a7.14,7.14,0,0,1-8.39,5H389.8c-.76,0-.93-.84-.93-1.52V181h5.38c2.6,0,4.78.67,4.78,3.69h.84v-9.06H399c0,3-2.18,3.69-4.78,3.69h-5.38v-8.4c0-1,.68-1.51,1.68-1.51h6.22a4.37,4.37,0,0,1,4.36,3.95h1.09v-5.54H382v.75c2.85,0,3.44,1.26,3.44,2.35v19.4c0,1.09-.59,2.35-3.44,2.35v.75Zm-36.85.5h.5c2.1-5.54,6-15.78,8.9-22.58.67-1.51,1.43-2.77,3.27-2.77v-.75h-8v.75c1.17,0,2.85,0,2.85,1.68a11.44,11.44,0,0,1-.92,3.19l-5.54,13.77-5.63-12.68a23.49,23.49,0,0,1-1.76-4.53c0-.92,0-1.43,2.94-1.43v-.75H352.27v.75c2.27,0,3.28,2.18,4.28,4.45Zm-21-23c0-1.09.59-2.35,3.78-2.35v-.75H337.24v.75c3.19,0,3.78,1.26,3.78,2.35V190c0,1.1-.59,2.36-3.78,2.36v.75h11.51v-.42c-3.19,0-3.78-1.26-3.78-2.35Zm-14.78,0c0-1.09.59-2.35,3.7-2.35v-.75h-9v.75c3.19,0,3.77,1.26,3.77,2.35v15.45l-14.86-18.55H307v.75c1.93,0,2.27,0,3.44,1.76h0v19.65c0,1.09-.58,2.35-3.77,2.35v.76h9.15v-.09c-3.11,0-3.7-1.26-3.7-2.35v-17.8l16.79,21.24h.59Zm-49.61,12.68c0,7.05,2.85,10.32,9.91,10.32a12.5,12.5,0,0,0,4.86-1c4.37-2.1,4.79-5.46,4.79-9.83V171c0-1.09.59-2.35,3.61-2.35v-.76h-8.82v.76c3.11,0,3.7,1.26,3.7,2.35v12.17c0,3.69,0,9.07-7.3,9.07-4.79,0-6.64-2.27-6.64-8.4V171c0-1.09.59-2.35,3.36-2.35v-.76H277.14v.76c2.85,0,3.44,1.26,3.44,2.35Zm461.73,29.21,4.28,10.92H738Zm1.34-5.54h-.75l-7.81,18.56c-1.59,3.77-2.6,6.54-4.95,6.8v.75H738v-.75c-1.35,0-2.69,0-2.69-1.68a29.71,29.71,0,0,1,2.1-6H747.6l1.34,3.27c1.51,3.44,1.51,4.2-1.76,4.37v.75H757v-.75c-2.1,0-2.94-2.19-3.61-3.78Zm-19.64,3.61c0-1.09.59-2.35,3.78-2.35v-.42h-11.5v.76c3.19,0,3.77,1.26,3.77,2.35v19.39c0,1.09-.58,2.35-3.77,2.35v.76h11.5v-.76c-3.19,0-3.78-1.26-3.78-2.35Zm-27.54,0c0-1.76,0-1.76,2.86-1.76s6.13,1.51,6.13,5.29-3.45,5.37-9,5.54Zm-3.94,19.23c0,1.09-.59,2.35-3.28,2.35v.75h10.58v-.75c-2.77,0-3.36-1.26-3.36-2.35v-8.4h2.1l9.24,11.92h6.21v-.75a5,5,0,0,1-3.69-2.18L702.52,221c3.61-.5,7-2.43,7-6.46s-3.86-6.8-10.24-6.8H689.08v.75c2.69,0,3.28,1.26,3.28,2.35Zm-20-17,4.53,10.58H668Zm1.42-5.54h-.75l-7.89,18.55c-1.51,3.78-2.52,6.55-5,6.8v.76h7.64v-.76c-1.26,0-2.6,0-2.6-1.68a30.15,30.15,0,0,1,2.1-6h10.07l1.43,3.28c1.43,3.44,1.51,4.19-1.76,4.36v.76h9.82v-.76c-2.18,0-3-2.18-3.69-3.78Zm-19.72,3.61c0-1.09.58-2.35,3.35-2.35v-.76h-7.64L641.4,227.3l-8.73-19.48H625v.76c3.1,0,3.69,1.26,3.69,2.35v19.39c0,1.09-.59,2.35-3.78,2.35v.76h9.24v-.76c-3.19,0-3.78-1.26-3.78-2.35v-18l9.66,21.07h.58l9.91-22v18.89c0,1.09-.59,2.35-3.44,2.35v.76h10.74v-.76c-2.85,0-3.44-1.26-3.44-2.35Zm-56.25,1.93,4.45,10.58h-8.57Zm1.34-5.54h-.75l-7.81,18.55c-1.6,3.78-2.6,6.55-5,6.8v.76h7.64v-.76c-1.35,0-2.69,0-2.69-1.68a30.15,30.15,0,0,1,2.1-6h10.16l1.34,3.28c1.51,3.44,1.51,4.19-1.76,4.36v.76h9.82v-.76c-2.1,0-2.94-2.18-3.61-3.78Zm-18,25.18c-2.85,0-3.44-1.26-3.44-2.35V209.5h2.77c2.86,0,4.7,0,5.54,4.87h.92v-6.55H565.09v6.55H566c.84-4.87,2.6-4.87,5.46-4.87h2.77v20.82c0,1.09-.51,2.35-3.36,2.35v.76h10.75Zm-22.5-21.74c0-1.09.59-2.35,3.78-2.35v-.59h-9.07v.76c3.19,0,3.78,1.26,3.78,2.35v15.45l-14.69-18.56h-6.63v.76c1.93,0,2.27.42,3.44,1.76h0V230c0,1.09-.59,2.35-3.78,2.35v.75h9.49v-.75c-3.19,0-3.78-1.26-3.78-2.35V212.36L558,233.6h.59Zm-39.79,1.93,4.45,10.58h-8.56Zm1.43-5.54h-.51L512,225.7c-1.6,3.78-2.61,6.55-5,6.8v.76h7.64v-.76c-1.34,0-2.68,0-2.68-1.67a29.4,29.4,0,0,1,2.1-6H524.2l1.35,3.28c1.51,3.44,1.51,4.2-1.77,4.36v.76h9.83v-.76c-2.1,0-2.94-2.18-3.61-3.77Zm-33.58,26.61h.92c0-2.85,3.11,0,7.14,0a7.46,7.46,0,0,0,8.34-6.48,5.48,5.48,0,0,0,.05-.57c0-4.62-3.52-6.29-8.39-9.49-1.68-1-4-2.6-4-4.78a3.61,3.61,0,0,1,3.5-3.72l.53,0a7.7,7.7,0,0,1,7,6.63h1l-.84-8.4H501c-.92,2.86-2.77,0-6.88,0a6.46,6.46,0,0,0-6.79,6.12c0,.12,0,.23,0,.35,0,7.3,10.49,7.55,12.09,12.93a4.37,4.37,0,0,1-2.81,5.5,4.32,4.32,0,0,1-1.56.2,8.8,8.8,0,0,1-8.39-6.8h-.84ZM459,208.58c6,0,8.4,5.87,8.4,11.92,0,4.2-1.43,11.42-8.4,11.92-4.53,0-8.39-3.95-8.39-11.92s2.6-11.42,8.31-11.84Zm0-1.35a12.35,12.35,0,0,0-12.62,12.06c0,.4,0,.81,0,1.21a12.68,12.68,0,1,0,25.19,2.91,12.87,12.87,0,0,0,0-2.91,12.43,12.43,0,0,0-11.65-13.16c-.34,0-.69,0-1,0Zm-16.79,0h-.84c-1.26,3.11-3.19,0-8.39,0a12.77,12.77,0,0,0-13.19,12.32c0,.35,0,.69,0,1a12.51,12.51,0,0,0,11.7,13.27,13.53,13.53,0,0,0,1.56,0,13.79,13.79,0,0,0,10.08-4.79l-.67-.84a11.65,11.65,0,0,1-9.07,3.86c-6.3,0-9.15-5.79-9.15-11.25,0-6.88,2.77-12,9.15-12a8.39,8.39,0,0,1,8.39,7.14h.93Zm-29.3,3.61c0-1.09.59-2.35,3.78-2.35v-.67H404.91v.76c3.19,0,3.78,1.26,3.78,2.35v19.39c0,1.09-.59,2.35-3.78,2.35v.76h11.5v-.76c-3.19,0-3.78-1.26-3.78-2.35Zm-27.53,0c0-1.76,0-1.76,2.85-1.76s6.13,1.51,6.13,5.29-3.44,5.37-9,5.54Zm-4,19.23c0,1.09-.59,2.35-3.27,2.35v.76h10.58v-.76c-2.77,0-3.36-1.26-3.36-2.35v-8.4h2.1l9.23,11.93h6.21v-.76a5,5,0,0,1-3.69-2.18l-7.64-9.41c3.61-.5,7-2.43,7-6.46s-3.86-6.8-10.24-6.8H377.88v.76c2.68,0,3.27,1.26,3.27,2.35Zm-7.13,3.11,1.76-6.55h-1.09a7.14,7.14,0,0,1-8.4,5h-5.12c-.75,0-1-.84-1-1.51v-9.24h5.46c2.6,0,4.79.68,4.79,3.7h.84v-9h-.84c0,3-2.19,3.69-4.79,3.69h-5.62v-8.4a1.51,1.51,0,0,1,1.5-1.52h6.89a4.37,4.37,0,0,1,4.45,3.95h.84v-5.46H353.19v.76c2.78,0,3.36,1.26,3.36,2.35v19.39c0,1.09-.58,2.35-3.36,2.35v.76Zm-42-22.17c0-1.84,0-2,2.18-2a10.91,10.91,0,0,1,12,9.65,11.41,11.41,0,0,1,0,1.85,10.58,10.58,0,0,1-9.88,11.23,10.81,10.81,0,0,1-2.54-.15,1.84,1.84,0,0,1-1.85-1.84V211Zm2.77,22.42c10.33,0,15.53-4.87,15.53-12.76s-6-12.85-15.86-12.85H324.57v.76c2.77,0,3.36,1.26,3.36,2.35v19.39c0,1.09-.59,2.35-3.36,2.35v.76Zm-14.44,0,1.76-6.55h-1.09a7.13,7.13,0,0,1-8.39,5h-5.12c-.76,0-.93-.84-.93-1.51v-9.49h5.38c2.6,0,4.78.68,4.78,3.7h1.26v-9h-.84c0,3-2.18,3.69-4.78,3.69h-5.38v-8.4c0-1,.68-1.51,1.68-1.51h6.22a4.37,4.37,0,0,1,4.36,3.95h.84v-5.46H299.55v.76c2.85,0,3.44,1.26,3.44,2.35v19.39c0,1.09-.59,2.35-3.44,2.35v.76Zm-32.57,0v-.76c-2.86,0-3.44-1.26-3.44-2.35v-9.49h5.12c2.52,0,4.78.68,4.78,3.7h.76v-9h-.76c0,3-2.26,3.69-4.78,3.69h-5v-8.4c0-.92,0-1.51,1.68-1.51h5c2.77,0,5,0,5.54,3.95h.92v-5.46H277.05v.76c2.77,0,3.36,1.26,3.36,2.35v19.39c0,1.09-.59,2.35-3.36,2.35v.76Z"/><path class="cls-1" d="M206.2,220.58l-1.18.59h0a1.25,1.25,0,0,0,1.34-.5Zm-4-.84h-.51l-.67.42C202.17,220.67,202.42,220.75,202.17,219.74Zm3.94-13.09a6.43,6.43,0,0,0,2.19-2.44h0c0-1.51,0-3.27-1-3.86a13.42,13.42,0,0,0-5.79-.75c-3.61,0-5.55.92-9.16.92h-9.73c-1.35,0-2.1-.42-3.53-.42h-3c-.42,0-.76-.5-1.35,0a1.25,1.25,0,0,1-1.34,0h0a.67.67,0,0,0-.67,0H172l1,.5c-1.18.76-1.35.67-1.77,1.85s-1.09,1.17-1.42,2.18a2.4,2.4,0,0,1-.76,1.6h0c-.5.5,0,1.17.92,1h.76a2.32,2.32,0,0,1,1.93,0h0c1.18.51,2.1-1.09,4.53.93a5,5,0,0,1,1.68,2.6h0l.59.59c.84.67.42,1.09,1.43,1.68l2.26,1.26c-.42,2.43.42,1.51.42,3a1.58,1.58,0,0,1,0,.75h0v1.26a4.77,4.77,0,0,0-1.09,1.43,1.81,1.81,0,0,0,1.51-.42v-1s.84-.5.67-1h0a10.69,10.69,0,0,1,1.77-5.8,12.24,12.24,0,0,0,1.84,4.12v2.26h-.41v.51h0a1.94,1.94,0,0,1,0,.59h1.42v-.42h0a.65.65,0,0,0,0-.51v-.5a10.8,10.8,0,0,1-.42-2.77,17.66,17.66,0,0,0-.42-2.77h8l-.76.59c.76,0,2-1.1,3.11-1.43a14.63,14.63,0,0,1,3.78-.67,4.87,4.87,0,0,0,.75,2.85,6,6,0,0,1,0,6h.59a23,23,0,0,1,1.26-4.45v-2.6h.92a15.75,15.75,0,0,1,.67,1.59,12.59,12.59,0,0,1,.68,6H208a8.56,8.56,0,0,1,0-3.19,5.72,5.72,0,0,0,0-3.61,5.37,5.37,0,0,1,0-5.37,6.31,6.31,0,0,1-2,1,8.38,8.38,0,0,1-6.05-1.93h-.58c-1.09,0-1.6-.42-1.77-1.34s0-.5,0-.67l-1-.76h1.68a3.64,3.64,0,0,1,2.43,1s3.53,2.52,5.46,1.76a5.26,5.26,0,0,0,2.93-2.94H210a.4.4,0,0,1,0,.42h0A7.64,7.64,0,0,1,206.11,206.65Zm-6.71,0a6.86,6.86,0,0,0,4.87,1.51,3.91,3.91,0,0,0,1.17-.59,5,5,0,0,1-4.87,0Zm-1.68-.42h.92l-.59-.42h-.75v.5s0,.76.5.59Z"/><polygon class="cls-1" points="191 134.37 192.6 136.72 197.3 135.79 197.05 137.22 198.14 136.97 197.3 141.25 200.4 143.35 200.07 143.6 201.16 144.35 197.3 147.13 198.14 151.74 193.44 150.9 190.75 154.85 189.99 153.76 189.74 154.09 187.64 150.99 183.36 151.74 183.61 150.65 182.19 150.9 183.03 146.29 180.76 144.69 179.08 143.35 183.11 140.66 182.19 135.79 186.97 136.72 189.74 132.69 190.92 134.45 191 134.37"/><path class="cls-1" d="M187.73,137.3l1.76,4.2h.5l1.77-4.2-2-2.85Zm.84,4.62-1.68-4.2-3.44-.67.58,3.44,4.2,1.77Zm-.76,1.18-4.11-1.68-2.86,1.93,2.86,2,4.11-1.68Zm0,1.51-4.11,1.68-.59,3.44,3.44-.67,1.68-4Zm1.34.84-1.76,4,2,2.85,2-2.94-1.68-3.94Zm1.52-.42,1.59,4,3.44.67-.59-3.44-4-1.68Zm.75-1.43,4,1.76,2.86-2-2.86-1.93-4.11,1.68h0Zm-.5-1.43,4.19-1.68.59-3.44-3.44.67-1.68,4.2Zm-1.51,0a1.18,1.18,0,0,0-1.18,1.18,1.16,1.16,0,0,0,1.09,1.25h.09a1.18,1.18,0,0,0,1.26-1.09v-.17a1.18,1.18,0,0,0-.93-1.09Z"/><path class="cls-1" d="M202.17,189.35h-.51a1.76,1.76,0,0,0-.67.51C202.17,190.28,202.42,190.36,202.17,189.35Zm4,.84-1.18.59h0a1.35,1.35,0,0,0,1.34-.42Zm0-14a6.23,6.23,0,0,0,2.18-2.35h0c0-1.42,0-3.27-1-3.86a15,15,0,0,0-5.79-.76c-3.61,0-5.54.93-9.15,1s-3.86-.42-6.38-.42h-9.91c-.42,0-.75-.42-1.34,0a1.5,1.5,0,0,1-1.34,0h-1.1l1,.42c-1.17.76-1.34.67-1.76,1.93s-1.09,1.09-1.43,2.1a2.34,2.34,0,0,1-.75,1.6h0c-.51.42,0,1.09.92,1h.75a2.08,2.08,0,0,1,1.94,0h0c1.17.59,2.09-1.09,4.53.93a5.83,5.83,0,0,1,1.68,2.6V181l.59.5c.84.76.42,1.09,1.42,1.68s2.27,1.26,2.27,1.26c-.42,2.52.42,1.6.42,3a2.37,2.37,0,0,1,0,.84h0v1.26a5.62,5.62,0,0,0-1.09,1.34,1.82,1.82,0,0,0,1.51-.42v-1s.84-.42.67-.93h0a10.64,10.64,0,0,1,1.76-5.87,12.21,12.21,0,0,0,1.85,4.11v2.35h-.42v.59h0v.67a1.7,1.7,0,0,0,1.43,0v-.5h0a.75.75,0,0,0,0-.51v-.5a10.38,10.38,0,0,1-.42-2.77,19.78,19.78,0,0,0-.42-2.77h8l-.75.5c.75,0,2-1.09,3.1-1.42a14.8,14.8,0,0,1,3.78-.68,4.89,4.89,0,0,0,.76,2.86,6.24,6.24,0,0,1,0,6h.59a22,22,0,0,1,1.25-4.36,24.14,24.14,0,0,0,0-2.69h.93c.25.52.47,1.05.67,1.6a12.33,12.33,0,0,1,.67,6h.59a8.56,8.56,0,0,1,0-3.19,5.86,5.86,0,0,0,0-3.61,5.39,5.39,0,0,1,0-5.38,6.82,6.82,0,0,1-2,1.09,8.37,8.37,0,0,1-6-2h-.59c-1.09.42-1.59-.42-1.76-1.34s0-.42,0-.68l-1-.67h1.68a3.65,3.65,0,0,1,2.44,1s3.52,2.52,5.45,1.85a5.74,5.74,0,0,0,2.94-3h.84a.55.55,0,0,1,0,.5h0a8.5,8.5,0,0,1-4.2.59Zm-6.72-.42a6.86,6.86,0,0,0,4.87,1.51,3.12,3.12,0,0,0,1.17-.5,5.11,5.11,0,0,1-4.86,0Zm-1.68-.42h.67a2.39,2.39,0,0,0-.58-.42,1.4,1.4,0,0,0-.76,0h0v.51s0,.75.5.58Z"/><path class="cls-1" d="M110.83,218h.67l.67,2.77.5.59h0v.5h0c1,1.35.68,2.27-.5,3.28s-1.17,2.6-3.19,2.35a3.52,3.52,0,0,1-2.1,1.17,3.78,3.78,0,0,1-2.1-1.17c-1.17,0-2.26,0-2.85-.84s-1.26-1-1.43-2.35h0c-1.34-1-.92-2.52,0-3.61l1.35-1.51.75-3h1.93a2.11,2.11,0,0,1,3-.14l.14.14h2.1Z"/><path class="cls-1" d="M107.89,217.56h-.42a.7.7,0,0,0-.76,0l-.92.59a.81.81,0,0,1-.5.75c-.51.17-.84,0-.76-.67h0l-.67,2.6-1.43,1.68c-.67.68-1.09,1.52,0,2.19l1.35-2.1.84.59-1.6,2.26c0,1.6.59,1.85,2.1,1.51l.59-3.52h.92l-.5,3.61a2.26,2.26,0,0,0,1.42.84,2.3,2.3,0,0,0,1.35-.84l-1.26-4.12h.75l.76,3.61c1.43,0,1.85,0,2-1.59l-1.68-2.18.76-.59,1.51,1.93c.76-.67.67-1.26,0-2l-1.59-1.67-.59-2.61h-.42l-.92.51a1.22,1.22,0,0,0-.42-.68Z"/><path class="cls-1" d="M83.21,218h.59l.75,2.77.5.59h0a1.4,1.4,0,0,1,0,.5h.42s.68,2.27-.5,3.28-1.17,2.6-3.19,2.35a2.43,2.43,0,0,1-3.33.86,2.47,2.47,0,0,1-.87-.86c-1.17,0-2.26,0-2.85-.84s-1.34-1-1.43-2.35h0c-1.34-1-.92-2.52,0-3.61l1.34-1.51.68-3h2a2.11,2.11,0,0,1,3-.14l.14.14h2.1Z"/><path class="cls-1" d="M80.52,217.56H80.1a.84.84,0,0,0-.84,0l-.84.59a.81.81,0,0,1-.5.75c-.5.17-.84,0-.76-.67h0l-.67,2.6L75,222.51c-.59.68-1.09,1.52,0,2.19l1.43-2.1.84.59-1.6,2.26c0,1.6.59,1.85,2.1,1.51l.59-3.52h.92l-.5,3.61a2.28,2.28,0,0,0,1.34.84,2.25,2.25,0,0,0,1.43-.84l-1.26-4.12h1l.75,3.61c1.43,0,1.85,0,2-1.59l-1.68-2,.75-.58,1.52,1.93a1.28,1.28,0,0,0,.25-1.77,1.48,1.48,0,0,0-.25-.25l-1.43-1.84-.59-2.61h-.5l-.84.51a1.22,1.22,0,0,0-.42-.68Z"/><path class="cls-1" d="M128.79,203.46h.59l.67,2.77.51.59h0v.5h0c1.09,1.34.67,2.27-.51,3.27s-1.17,2.61-3.19,2.35a3.48,3.48,0,0,1-2.1,1.18,3.36,3.36,0,0,1-2-1.18c-1.26,0-2.35,0-2.86-.84s-1.34-1-1.51-2.35h0c-1.34-1-.92-2.52,0-3.61l1.35-1.51.75-3h2a2,2,0,0,1,2.84-.18l.18.18h2.1Z"/><path class="cls-1" d="M125.77,203h0a.84.84,0,0,0-.84,0l-.92.58a.82.82,0,0,1-.51.76c-.5.17-.83,0-.67-.67h-.42l-.58,2.6L120.31,208c-.67.67-1.09,1.51,0,2.18l1.35-2.1.84.59-1.6,2.27c0,1.59.59,1.85,2.1,1.51l.59-3.53h1l-.59,3.61a2.25,2.25,0,0,0,1.43.84,2.7,2.7,0,0,0,1.42-.84l-.84-3.69h1l.76,3.61c1.42,0,1.84,0,2-1.6l-1.68-2.18.84-.59,1.43,1.94c.75-.68.75-1.26,0-2l-1.51-1.68-.67-2.6h-.42l-.93.5a1.17,1.17,0,0,0-.42-.67Z"/><polygon class="cls-1" points="216.77 134.37 218.28 136.72 222.99 135.79 222.74 137.22 223.83 136.97 222.99 141.25 226.09 143.35 225.76 143.6 226.93 144.35 222.99 147.13 223.83 151.74 219.13 150.9 216.44 154.85 215.68 153.76 215.43 154.09 213.33 150.99 209.05 151.74 209.3 150.65 207.88 150.9 208.72 146.29 206.45 144.69 204.77 143.35 208.8 140.66 207.88 135.79 212.66 136.72 215.43 132.69 216.61 134.45 216.77 134.37"/><path class="cls-1" d="M213.5,137.3l1.68,4.2h.5l1.77-4.2-2-2.85Zm.84,4.62-1.76-4.2-3.45-.67.59,3.44,4.2,1.77Zm-.84,1.18-4.11-1.68-2.86,1.93,2.86,2,4.11-1.68Zm0,1.51-4.11,1.68-.59,3.44,3.44-.67,1.68-4Zm1.34.84-1.68,4,1.94,2.85,2-2.94-1.68-3.94Zm1.51-.42,1.6,4,3.44.67-.59-3.44-4-1.68Zm.76-1.43,4,1.76,2.85-2-2.85-1.93-4,1.68Zm-.5-1.43,4.19-1.68.59-3.44-3.44.67-1.68,4.2Zm-1.43,0a1.18,1.18,0,0,0-1.26,1.09v.09a1.18,1.18,0,0,0,1.08,1.26h.18a1.18,1.18,0,0,0,1.18-1.18.25.25,0,0,0,0-.08,1.16,1.16,0,0,0-.84-1.09Z"/><path class="cls-1" d="M128.79,181.88h.59l.67,2.77.51.59h0v.5h0c1.09,1.35.67,2.27-.51,3.28s-1.17,2.6-3.19,2.35a3.52,3.52,0,0,1-2.1,1.17,3.35,3.35,0,0,1-2-1.17c-1.26,0-2.35,0-2.86-.84s-1.34-1-1.51-2.35h0c-1.34-1-.92-2.52,0-3.61l1.35-1.51.75-3h2a2,2,0,0,1,2.84-.17l.18.17h2.1Z"/><path class="cls-1" d="M125.77,181.46h0a.84.84,0,0,0-.84,0l-.92.59a.82.82,0,0,1-.51.76c-.5.16-.83,0-.67-.68h-.42l-.58,2.61-1.52,1.67c-.67.68-1.09,1.52,0,2.19l1.35-2.1.84.59-1.6,2.26c0,1.6.59,1.85,2.1,1.51l.59-3.52h1L124,191a2.65,2.65,0,0,0,1.43.84,2.76,2.76,0,0,0,1.42-.84l-.84-3.7h1l.76,3.61c1.42,0,1.84,0,2-1.59l-1.68-2.18.84-.59,1.43,1.93c.75-.67.75-1.26,0-2l-1.51-1.67-.67-2.61h-.42l-.93.51a1.11,1.11,0,0,0-.42-.67Z"/><path class="cls-1" d="M128.79,160.31h.59l.67,2.85.51.59h0a2.91,2.91,0,0,0,0,.59h0c1.09,1.34.67,2.26-.51,3.27s-1.17,2.6-3.19,2.35a3.53,3.53,0,0,1-2.1,1.18,3.83,3.83,0,0,1-2-1.18c-1.26,0-2.35,0-2.86-.84s-1.34-1-1.51-2.35h0c-1.34-1-.92-2.52,0-3.69l1.35-1.43.75-3h2a2,2,0,0,1,2.84-.18l.18.18h2.1Z"/><path class="cls-1" d="M125.77,159.89h0a1,1,0,0,0-.84,0l-.92.58a.82.82,0,0,1-.51.76c-.5.17-.83,0-.67-.67h-.42l-.58,2.6-1.52,1.6c-.67.75-1.09,1.59,0,2.18l1.35-2,.84.51-1.6,2.35c0,1.51.59,1.84,2.1,1.51l.59-3.53h1l-.59,3.61a2.59,2.59,0,0,0,1.43.84,2.76,2.76,0,0,0,1.42-.84l-.84-3.69h1l.76,3.61c1.42,0,1.84,0,2-1.6l-1.68-2.18.84-.67,1.43,2c.75-.67.75-1.25,0-2l-1.51-1.68-.67-2.6h-.42l-.93.5a.91.91,0,0,0-.42-.67Z"/><path class="cls-1" d="M128.79,139h.59l.67,2.86.51.58h0v.93h0c1.09,1.43.67,2.35-.51,3.36s-1.17,2.6-3.19,2.35a3.47,3.47,0,0,1-2.1,1.09,3.17,3.17,0,0,1-2-1.09c-1.26,0-2.35,0-2.86-.84s-1.34-1-1.51-2.35h0c-1.34-1-.92-2.61,0-3.7l1.35-1.42.75-3h2a2.09,2.09,0,0,1,3-.05l.06.05h2.1Z"/><path class="cls-1" d="M125.77,138.23h0a1.11,1.11,0,0,0-.84,0l-.92.67a.8.8,0,0,1-.51.75c-.5.17-.83,0-.67-.67h-.42l-.58,2.6-1.52,1.6c-.67.76-1.09,1.6,0,2.18l1.35-2,.84.5-1.6,2.35c0,1.51.59,1.85,2.1,1.51l.59-3.52h1l-1.1,3.19a2.79,2.79,0,0,0,1.43.84c.42,0,1.09-.59,1.43-.84l-.84-3.7h1l.75,3.61c1.43,0,1.85,0,2-1.59l-1.68-2.27.84-.59,1.42,2c.76-.67.76-1.26,0-2l-1.51-1.67L127.7,139h-.42l-.92.42a1,1,0,0,0-.42-.59Z"/><polygon class="cls-1" points="165.4 134.37 166.91 136.72 171.61 135.79 171.36 137.22 172.45 136.97 171.61 141.25 174.72 143.35 174.38 143.6 175.47 144.35 171.53 147.13 172.45 151.74 167.75 150.9 165.06 154.85 164.31 153.76 164.05 154.09 161.95 150.99 157.59 151.74 157.84 150.65 156.5 150.9 157.34 146.29 155.07 144.69 153.39 143.35 157.42 140.66 156.5 135.79 161.28 136.72 164.05 132.69 165.23 134.45 165.4 134.37"/><path class="cls-1" d="M162,137.3l1.76,4.2h.5l1.68-4.2-1.93-2.85Zm.84,4.62-1.77-4.2-3.35-.67.58,3.44,4.2,1.77Zm-.76,1.18L158,141.42l-2.86,1.93,2.86,2,4.11-1.68Zm0,1.51L158,146.29l-.59,3.44,3.44-.67,1.68-4a1.18,1.18,0,0,0-.08-.42Zm1.35.84-1.77,4,2,2.85,1.93-2.94-1.6-3.94h-.58ZM165,145l1.59,4,3.44.67-.67-3.44-3.94-1.68Zm.75-1.43,4,1.76,2.86-2-2.86-1.93-4.11,1.68h0Zm-.5-1.43,4.11-1.68.67-3.44-3.44.67-1.68,4.2Zm-1.51,0a1.18,1.18,0,0,0-1.18,1.18,1.17,1.17,0,0,0,1.09,1.25h.09a1.18,1.18,0,0,0,1.26-1.09v-.17a1.18,1.18,0,0,0-.93-1.09Z"/><path class="cls-1" d="M65.58,203.46h.84l.67,2.77.59.59h0v.5h0a2.27,2.27,0,0,1,0,3.27c-.76,1-1.26,2.61-3.19,2.35a3.79,3.79,0,0,1-2.1,1.18,3.48,3.48,0,0,1-2.1-1.18c-1.26,0-2.27,0-2.86-.84s-1.34-1-1.51-2.35h0c-1.34-1-1-2.52,0-3.61l1.26-1.51.76-3h2a2.1,2.1,0,0,1,3-.14,1.85,1.85,0,0,1,.14.14h2.1Z"/><path class="cls-1" d="M62.56,203h0a.84.84,0,0,0-.84,0l-.93.58s0,.59-.42.76-.92,0-.75-.67h0L58,206.14l-1.51,1.68c-.59.67-1.09,1.51,0,2.19l1.43-2.1.84.58-1.6,2.27c0,1.6.59,1.85,2.1,1.51l.59-3.52h.92l-.58,3.61a2.79,2.79,0,0,0,1.42.84,2.59,2.59,0,0,0,1.43-.84l-.76-3.7h.93l.75,3.61c1.51,0,1.85,0,2.1-1.59l-1.68-2.19.76-.58,1.51,1.93a1.27,1.27,0,0,0,0-2l-1.51-1.68-.59-2.6h-.5l-.84.5a1.22,1.22,0,0,0-.42-.67Z"/><path class="cls-1" d="M65.58,181.88h.84l.67,2.77.59.59h0v.5h0a2.29,2.29,0,0,1,0,3.28c-.76,1-1.26,2.6-3.19,2.35a3.78,3.78,0,0,1-2.1,1.17,3.52,3.52,0,0,1-2.1-1.17c-1.26,0-2.27,0-2.86-.84s-1.34-1-1.51-2.35h0c-1.34-1-1-2.52,0-3.61l1.26-1.51L58,181h2a2.09,2.09,0,0,1,3-.14.93.93,0,0,1,.14.14h2.1Z"/><path class="cls-1" d="M62.56,181.46h0a.84.84,0,0,0-.84,0l-.93.59s0,.59-.42.76-.92,0-.75-.68h0L58,184.32,56.51,186c-.59.67-1.09,1.51,0,2.18l1.43-2.1.84.59-1.6,2.26c0,1.6.59,1.85,2.1,1.51l.59-3.52h.92l-.58,3.61s1,.84,1.42.84a2.53,2.53,0,0,0,1.43-.84l-.76-3.7h.93l.75,3.61c1.51,0,1.85,0,2.1-1.59l-1.68-2.18.76-.59L66.67,188a1.26,1.26,0,0,0,0-2l-1.51-1.68-.59-2.61h-.5l-.84.51a1.16,1.16,0,0,0-.42-.67Z"/><path class="cls-1" d="M65.58,160.31h.84l.67,2.85.59.59h0v.59h0a2.27,2.27,0,0,1,0,3.27c-.76,1-1.26,2.6-3.19,2.35a3.85,3.85,0,0,1-2.1,1.18,4,4,0,0,1-2.1-1.18c-1.26,0-2.27,0-2.86-.84s-1.34-1-1.51-2.35h0c-1.34-1-1-2.52,0-3.69l1.26-1.43.76-3h2a2.1,2.1,0,0,1,3-.14l.14.14h2.1Z"/><path class="cls-1" d="M62.56,159.89h0a1,1,0,0,0-.84,0l-.93.58s0,.59-.42.76-.92,0-.75-.67h0l-.67,2.6-1.52,1.6c-.58.75-1.09,1.59,0,2.18l.59-2.77.84.5L57.27,167c0,1.51.58,1.85,2.1,1.51L60,165h.93l-.59,3.61s1,.84,1.43.84a2.51,2.51,0,0,0,1.42-.84l-.75-3.7h.92l.76,3.61c1.51,0,1.84,0,2.1-1.59l-1.68-2.18.75-.68,1.51,2c.68-.67.68-1.26,0-2l-1.51-1.68-.59-2.6h-.5l-.84.51a.91.91,0,0,0-.42-.68Z"/><path class="cls-1" d="M65.58,139h.84l.67,2.86.59.58h0v.93h0a2.11,2.11,0,0,1,.42,2.94,2.09,2.09,0,0,1-.42.42c0,2-1.26,2.6-3.19,2.35a3.75,3.75,0,0,1-2.1,1.09,3.47,3.47,0,0,1-2.1-1.09c-1.26,0-2.27,0-2.86-.84s-1.34-1-1.51-2.35h0a2.35,2.35,0,0,1-.39-3.3,3,3,0,0,1,.39-.4l1.26-1.42.76-3h2a2.2,2.2,0,0,1,3.09,0l0,0h2.1Z"/><path class="cls-1" d="M62.56,138.23h0a1.11,1.11,0,0,0-.84,0l-.93.67s0,.59-.42.75-.92,0-.75-.67h0l-.67,2.6-1.52,1.6c-.58.76-1.09,1.6,0,2.18l1.43-2,.84.5-1.59,2.35c0,1.51.58,1.85,2.1,1.51l.58-3.52h.93l-.59,3.61s1,.84,1.43.84,1.09-.59,1.42-.84l-.75-3.7h.92l.76,3.61c1.51,0,1.84,0,2.1-1.59l-1.68-2.27.75-.59,1.51,2a1.27,1.27,0,0,0,0-2l-1.51-1.68L64.57,139h-.5l-.84.42a1,1,0,0,0-.42-.59Z"/><path class="cls-2" d="M73.64,185.41a2.94,2.94,0,0,0,.67,1.59,1.29,1.29,0,0,0,0,1.18l-.42,2h1.26v.67h5.54v-2a1.17,1.17,0,0,0,0-1.51l.67.17a2.11,2.11,0,0,0,0-1.77l1-6H81.28v-1.34H80l-.84-.59h-.76l-.75-.42-.76.42-.67-.42-.76.42h-.67l-.84.59H72.8a45.25,45.25,0,0,1,.84,6.38A1,1,0,0,0,73.64,185.41Zm4.87,3.94h-3.7l.42-1.09h3.36Zm.16-2H74.81a.52.52,0,0,1,0-.51h3.86Zm-3.77-8.56h.67l.67-.42h1.43l.75.42h.67l.76.58-.84,5a1.25,1.25,0,0,1,0,1.43h-4.2a1.07,1.07,0,0,1,.17-.76c0-.25.25.51,0-.92a41.33,41.33,0,0,1-.75-4.87Z"/><path class="cls-2" d="M81.11,193.63l-.67.42h-.67l-.84.59H77.75a45.65,45.65,0,0,1,.84,6.3,1.58,1.58,0,0,0,0,.75,2.9,2.9,0,0,0,.59,1.6,1.17,1.17,0,0,0,0,1.17l-.42,2.1H80v.67h5.62v-2a1.25,1.25,0,0,0,0-1.51l.67-.25a1.91,1.91,0,0,0,0-1.77l1-6H86.23v-1.34H85l-.84-.59h-.75l-.76-.51-.76.42Zm-1.18,10.08v-.42l3.87.42Zm.34,1.93v-.92h3.36l.25.92ZM82.7,195.4h1.35l.84.5-.84,5a1,1,0,0,1,0,1.34h-4.2a1.3,1.3,0,0,1,.08-.17c0-.33.26.59,0-.92a42.14,42.14,0,0,1-.67-4.87l.67-.5h.68l.67-.42H82.7Z"/><path class="cls-2" d="M111.08,206.4c1.18.5,3.11,1.09,3.11,1.09v-.67l-1.1-.84L110.41,204l-1.76-1.59a5.53,5.53,0,0,1-.93-2.69,39.53,39.53,0,0,1,0-7c2,.84,3.11.25,3.11-2h.67c2-.26,2.43-2,1.51-3.61a2.53,2.53,0,0,0,1.68-2.35,3.39,3.39,0,0,0-1.26-2.86,3.29,3.29,0,0,0,.76-2.77,2.4,2.4,0,0,0-.93-1.26,2.21,2.21,0,0,0-1-1.17,1.69,1.69,0,0,0-.76-1.43,2.07,2.07,0,0,0-3-1,3.3,3.3,0,0,0-5.21,0,3.87,3.87,0,0,0-2.07.14,12.42,12.42,0,0,1,2.07.2c.76-1.18,3.19-1.43,3.86,0,0,.08-.58,1.59,0,.84s1.77-1.18,2.35-.76-.83,2,0,2.1a2.4,2.4,0,0,1,2.27,1.34c.34,1-.5,2-1.09,2.69h.42c1.93,1.34,1.43,3.86,0,3.86h-1.76c.84.84,1.93,3.11,1.59,3.53s-1.93.42-2.52.42c.42,3.19-.5,2.94-2.93,1.68a49.44,49.44,0,0,0,0,5.71c.33,3.61,0,4.95,2.93,7.72l1.26,1.26a6.61,6.61,0,0,1-1.68-.84c-.75-.51-1.42-.25-1.42.75a.86.86,0,0,0,0,.39l.16.2c.59.67,1.6,1.6,1.6,1.6l1,1,.58-.42-.75-2.26A8.88,8.88,0,0,0,111.08,206.4Z"/><path class="cls-2" d="M104.45,203.29a.73.73,0,0,0-.37.19c-.33.79-1.19,1.91-1.48,2.5l-1.34,1a30.68,30.68,0,0,1,2.82-3.5c.13-.34.18-.63,0-.78-.5-.5-1.76.42-2.26.42,3.27-2.6,3.27-4,3.27-7.81,0-1.84.67-6,0-5.62s-2.69,1.43-3.44.84,0-2.18,0-2.86c-2.35.26-3.61-.25-1.77-2.6-3.19-1.76-2.51-2.52,0-4.28-1.51-.5-1.84-1.34-1.51-2.43s2.86-.26,2.35-1.1a2.81,2.81,0,0,1,0-2.63,2.86,2.86,0,0,0-1,2.47,2.8,2.8,0,0,0-1.25.66,2.85,2.85,0,0,0-.18,4c-2.18,1.68-2,3,0,4.45-.76,1.42-.42,3.1.84,3.1a1.64,1.64,0,0,0,.84.67c-.51,1.26,1.51,1.35,1.85,2.19s2.35-.09,2.35.84v2.77c-.42,3.69.16,4.87-3.28,7.39l-1.68,1.09-2.1,1.26.42.92,2.27-.84-1.59,1v.67a24.49,24.49,0,0,0,3.19-1.09l-.76,1.26-.92,1.84.75.59,1.09-1-.84,1.51h.59c.59-.58,2.94-2.43,2.94-2.93a21.25,21.25,0,0,1,2-2.51C105.74,204.26,105.1,203.22,104.45,203.29Z"/><path class="cls-2" d="M237.76,129.16h-193v1.43a9.07,9.07,0,0,1,7,8.39v80.26a16.8,16.8,0,0,0,6.46,10.33,16.84,16.84,0,0,0,8.4,4.45,18.23,18.23,0,0,0,4.36.5H84.38a16.62,16.62,0,0,1,6.13,1,20.67,20.67,0,0,1,2.69,4l.5-.76A13.65,13.65,0,0,1,95.13,241a15.78,15.78,0,0,1,5.12-5.62,16.13,16.13,0,0,1,5.71-1h15.78a16.8,16.8,0,0,0,10.08-5.2,13.89,13.89,0,0,0,4.11-7.81V141.67a14,14,0,0,1,1.68-6,14,14,0,0,1,6.21-3.61h.67a8.83,8.83,0,0,1,3.7,6.88v80.34c-.09.51-.26,3.61,4,8.4a14.91,14.91,0,0,0,2.77,2.43,15.6,15.6,0,0,0,12.17,4.37H180a18.26,18.26,0,0,1,6.47,1.09,37.42,37.42,0,0,1,3,4.45l.5-.84,1.43,2.1a16.4,16.4,0,0,1,4.7-5.63,15.74,15.74,0,0,1,5.71-1.17h16.79a16.88,16.88,0,0,0,10.58-5.37,14.76,14.76,0,0,0,3.61-8.4V141.67a16.63,16.63,0,0,1,1.85-6,16.83,16.83,0,0,1,5.7-4ZM94.63,170.3h20.23V207a5.46,5.46,0,0,1-4.45,5.71H94.63Zm-12.85-1.43,12.17-12,12,12Zm23.09-18.81,10-9.9v19.89Zm1-20-12.5,12.6-12.68-12.6ZM71.79,139l10.49,10.5L71.79,160Zm0,31.32H93.2v42.39H76.91A6.05,6.05,0,0,1,71.79,207Zm61.37-33.75v82.86a5.46,5.46,0,0,1-.42,1.68A16.8,16.8,0,0,1,120,231.33H104a10.84,10.84,0,0,0-11,5.2,10.07,10.07,0,0,0-8.39-5.62H68.77a16.81,16.81,0,0,1-11.67-4.7,13.66,13.66,0,0,1-3.78-6.89V138.48a9.81,9.81,0,0,0-5-8.4h22v77a7.13,7.13,0,0,0,4.53,6.46l2.52.42h33.58c3-1.09,4.7-2.27,5.37-5.46V129.83H138A7.89,7.89,0,0,0,133.16,136.55Zm96.54,84.62A14.85,14.85,0,0,1,217,231.33H200.24a10.33,10.33,0,0,0-10.33,5.37,10.25,10.25,0,0,0-8.4-5.71,16.12,16.12,0,0,0-2.6,0H164.64a14.08,14.08,0,0,1-10.66-4.7,12.5,12.5,0,0,1-3.61-6.88.89.89,0,0,1,0-.51V157.62h79.42l.42,61.54A7,7,0,0,1,229.7,221.17Zm0-84.54a15.36,15.36,0,0,0,0,2.35v17.21H149.87V138.48a9.57,9.57,0,0,0-5.13-8.4l89.5-.25A9.92,9.92,0,0,0,229.7,136.63Z"/><path class="cls-2" d="M83.71,187a1.43,1.43,0,0,0,0,1.18v2H85v.67H90.6v-2a1.46,1.46,0,0,0,0-1.51l1.09-.25a1.71,1.71,0,0,0,0-1.77l1.09-6H91.69v-1.34H90.43l-.84-.59h-.76l-.75-.42-.76.42-.75-.42-.68.42h-.67l-.84.59H83.21l-.09,6.8a1.09,1.09,0,0,0,0,.67A2.87,2.87,0,0,0,83.71,187Zm1.18.34v-.51h3.86a.52.52,0,0,1,0,.51Zm.25,1.85v-.93h3.44l.25.93Zm-.09-10.41h.59l.76-.42h1.43l.67.42h.67l.75.58-.92,5h0a1,1,0,0,1,0,1.43H84.8a1.07,1.07,0,0,1,.17-.76c0-.25.25.51,0-.92a39.92,39.92,0,0,1-.67-4.87Z"/><path class="cls-1" d="M240.62,255v-2.1H233.4V249a2.44,2.44,0,0,0-.67-1.6l-.93-.5a3.4,3.4,0,0,0-.75-1.43,3.71,3.71,0,0,0-1.68-.84H153.81v-3.86a2.26,2.26,0,0,0-1.68-2.18,2.6,2.6,0,0,0-2.43-2.27H132.91a2.76,2.76,0,0,0-2.1,2.6v5.63H53.91a2.91,2.91,0,0,0-1.68.84,2.86,2.86,0,0,0-.76,1.93v5.46H42.66v19H45v1.34h9.82a2.34,2.34,0,0,0,2.27-2.26v-5.88h77.15a2.36,2.36,0,0,0,2.1-1.85,2.09,2.09,0,0,0,0-.5v-6.05h11.92v4.29a2.76,2.76,0,0,0,2.6,2.68,2.36,2.36,0,0,0,2,1.43h74.63v4a2.77,2.77,0,0,0,2,2.6H230a2.24,2.24,0,0,0,1.59,1.26h10.58V255ZM53.74,269.86h-8.9V254.25h7.31v8.9l2.26,5.62H54A1.33,1.33,0,0,1,53.74,269.86Zm.67-4.95-.67-1.76h.67Zm78-3.11H53.32V247.28a1.71,1.71,0,0,1,0-.84,1.1,1.1,0,0,1,.76,0h77.06v8.4l2.44,5.7A1.35,1.35,0,0,1,132.4,261.8Zm1.18-5.29-.92-1.67h.92Zm-.92-3.19V238.88a1.25,1.25,0,0,1,.92-1.17h15.61a1.17,1.17,0,0,1,1.18.92v14.69Zm17,1.52h.67l-.67,1.67Zm1.68,6.46a1.26,1.26,0,0,1-1-.92l1.85-5.63v-8.39h77.65a1.1,1.1,0,0,1,.76,0,1.71,1.71,0,0,1,0,.84v14.1ZM230,263.15l-.67,1.76v-1.76Zm8.9,6.71h-8.4a1.07,1.07,0,0,1-1.17-1.09l2.52-5.62v-8.9h7.05Z"/><path class="cls-1" d="M67.43,258.19a1,1,0,0,0,.75,0l1-1.26,2-2.51-1.42-2.19a7.94,7.94,0,0,0-1.26-1.68,1.92,1.92,0,0,0-1,0h3.11m0,.42h0L72,253l1.43-1.85.42-.59h0v-.42H75.4a7.53,7.53,0,0,0-1,1.1l-1.93,2.43,2.44,3.69.67.76H73.3a1.52,1.52,0,0,0,0-.67l-1.59-2.52-1.51,2-.42.68H67.51Zm12.92-1.17h-.92a1.46,1.46,0,0,0,0,1V255a4.32,4.32,0,0,0,0,1.68,2.38,2.38,0,0,0,3.95-.08,3.63,3.63,0,0,0,0-1.85V250a1.35,1.35,0,0,0-.93,0h1.93c-.16,0,0,.58,0,1.34v3.44a5.34,5.34,0,0,1,0,2.18,3.48,3.48,0,0,1-5.62,0,4.51,4.51,0,0,1-.42-2v-4.11a2.45,2.45,0,0,0,0-1h2Zm5.54,8.39a1.36,1.36,0,0,0,1,0,2.35,2.35,0,0,0,0-1.34v-5.37a1.46,1.46,0,0,0,0-1H91.6l2.94,6.72,2.77-6.72H100a1.83,1.83,0,0,0-.93,0,1.79,1.79,0,0,0,0,.92v5.88a1.79,1.79,0,0,0,0,.92,1.35,1.35,0,0,0,.93,0H97.4a1.7,1.7,0,0,0,0-1.09v-6l-3.28,7.56h0l-3.19-7.22v6.46c0,.25.42,0,.84,0H89.08Zm16.79-.58a1.62,1.62,0,0,0,.68-1.52,1.51,1.51,0,0,0-.76-1.51,3.51,3.51,0,0,0-1.93-.42h-.67v3.28H104a3.1,3.1,0,0,0,1.51.17Zm-5.12.58h.93c.08,0,0-.42,0-.92v-5.88a1.43,1.43,0,0,0,0-1h2.6a5,5,0,0,1,2.43.5,2,2,0,0,1,.84,1.76,1.75,1.75,0,0,1-.58,1.51,2.55,2.55,0,0,1-1.1,0,4.35,4.35,0,0,1,1.52.76,1.76,1.76,0,0,1,.58,1.43,2.17,2.17,0,0,1-1.34,2.18,5.77,5.77,0,0,1-1.76,0h-4.12Zm4.71-4.78a1.42,1.42,0,0,0,.83-1.43,1.57,1.57,0,0,0-.92-1.59,3.56,3.56,0,0,0-1.59,0h-.42v3h2.1Zm8,0a1.8,1.8,0,0,0,.08-3.19,2.64,2.64,0,0,0-1.25,0h-.68v3.27a5.48,5.48,0,0,0,1.51.09Zm-5,4.78h.93a2.86,2.86,0,0,0,0-1.09v-5.71a1.79,1.79,0,0,0,0-.92,1.64,1.64,0,0,0-.93,0h3.53a5.74,5.74,0,0,1,1.85,0,1.93,1.93,0,0,1,1.34,2,1.78,1.78,0,0,1-.59,1.52,4.47,4.47,0,0,1-1.68.75l2.61,3.36h-.93l-3-4h-.67v3.53a1.22,1.22,0,0,0,.92,0h-3.36Zm13.6-3.1-1.51-3.7-1.42,3.7Zm-5.45,3.36h0a.86.86,0,0,0,.67,0,8.83,8.83,0,0,0,.84-1.85l2.68-6.47h0l3.11,7.48.5.92a.89.89,0,0,0,.68,0H122.5a1.4,1.4,0,0,0,0-.5l-.51-1.26h-3.35l-.59,1.59a2.94,2.94,0,0,1,0,.42.5.5,0,0,0,0,.5h.67Zm17.71-8.9a1.7,1.7,0,0,0,1.09,0v-6.89a1.13,1.13,0,0,0,0-.92,1.57,1.57,0,0,0-1.09,0h3.95a1.46,1.46,0,0,0-1,0,1.13,1.13,0,0,0,0,.92V249a1.46,1.46,0,0,0,1,0h-3.95Zm4.37,0a2,2,0,0,0,1.09,0,2.58,2.58,0,0,0,0-1.35v-5.87h0l-.51-.42h1.68l5.12,6.38v-4.45a2.67,2.67,0,0,0,0-1.43,2,2,0,0,0-.92,0h3.11a2.16,2.16,0,0,0-1,0,2.54,2.54,0,0,0,0,1.34v7.06h0l-5.88-7.31v4.62a2.19,2.19,0,0,0,0,1.43h-2.68Zm28.62,6A4.58,4.58,0,0,0,168,257a2.34,2.34,0,0,0,2,.92,1.42,1.42,0,0,0,1.09-.42,1.38,1.38,0,0,0,0-1.09,1.57,1.57,0,0,0,0-1.09l-1.34-.92-1.09-.76a3.4,3.4,0,0,1-.84-.67,2.25,2.25,0,0,1-.59-1.35,2.36,2.36,0,0,1,.67-1.67,2.75,2.75,0,0,1,1.77-.68h1.84v2.86h0a3,3,0,0,0-1.09-1.85,2.26,2.26,0,0,0-1.34-.5,1.74,1.74,0,0,0-1,0,1.22,1.22,0,0,0,0,.92,1.5,1.5,0,0,0,0,.84,3.58,3.58,0,0,0,1,.76l1.18.75a6.11,6.11,0,0,1,1.51,1.26,2.35,2.35,0,0,1,0,1.34,2.46,2.46,0,0,1-.76,1.77,3,3,0,0,1-2,.67h-2.1v-2.86ZM177.32,257a2.45,2.45,0,0,0,2,1,2.66,2.66,0,0,0,2-1,5.18,5.18,0,0,0,.84-3.11,5.24,5.24,0,0,0-.84-3.19,2.54,2.54,0,0,0-2-.92,2.4,2.4,0,0,0-2,1,4.58,4.58,0,0,0-.84,3.1,4.73,4.73,0,0,0,1.17,3.11Zm-1-6.55a4.44,4.44,0,0,1,6,0,4.79,4.79,0,0,1,1.35,3.44,4.43,4.43,0,0,1-1.43,3.44,4,4,0,0,1-2.94,1.1,4.23,4.23,0,0,1-3.1-1.26,5,5,0,0,1,0-6.72Zm8.81,7.56h.93c.08,0,0,0,0-.93v-6a1.32,1.32,0,0,0,0-.92h2.85a1.43,1.43,0,0,0-1,0,1,1,0,0,0,0,.84v6.38a.51.51,0,0,0,0,.42h1.25a5.58,5.58,0,0,0,2.44,0c.42,0,.75-.67,1.17-1.43h0l-.67,2.27H185Zm8.9,0a1.46,1.46,0,0,0,1,0,1.64,1.64,0,0,0,0-.93v-6a2.37,2.37,0,0,0,0-.92h6.13v1.93h0a1.74,1.74,0,0,0-.5-1.18,3.25,3.25,0,0,0-1.52,0H197a2.94,2.94,0,0,0,0,.42v2.94h2.1a1.57,1.57,0,0,0,1.09,0,1.92,1.92,0,0,0,0-1h0v3h0a3.42,3.42,0,0,0,0-1,1.7,1.7,0,0,0-1.09,0H197v3.78h1.51a4.31,4.31,0,0,0,2,0,2.62,2.62,0,0,0,1.17-1.43h0l-.58,2.27h-7.22Zm9,0a2.11,2.11,0,0,0,1,0,2.39,2.39,0,0,0,0-1.35v-5.45a1.35,1.35,0,0,0,0-.93,1.43,1.43,0,0,0-1,0h2.6l3.52,6.21,2.94-6.71h1.68a2.37,2.37,0,0,0,0,.92v5.79a2.09,2.09,0,0,0,0,.93,1.46,1.46,0,0,0,1,0H212a1.57,1.57,0,0,0,0-1.09v-6l-3.44,7.55h0l-3.36-7.22v5.79a2.07,2.07,0,0,0,0,1.43,1.45,1.45,0,0,0,.92,0H203ZM59.37,258a1.45,1.45,0,0,0,.92,0,1.64,1.64,0,0,0,0-.93v-5.87a1.64,1.64,0,0,0,0-.93,2,2,0,0,0-.92,0h7.05v1.93h0a1.34,1.34,0,0,0-1.14-1.51,1.23,1.23,0,0,0-.71.09H62.81v2.93h2a1.36,1.36,0,0,0,1,0,1.89,1.89,0,0,0,0-1h0v3.1h0a2,2,0,0,0,0-1.09,1.46,1.46,0,0,0-1,0h-2v3.36h1.43a5.68,5.68,0,0,0,1.93,0,3.24,3.24,0,0,0,.25-1.6h0l-.59,2.27H59.7Z"/></g></svg>