<svg xmlns="http://www.w3.org/2000/svg" viewBox="0 0 113.39 56.69"><defs><style>.cls-1{fill:#12100b;}.cls-1,.cls-2,.cls-3,.cls-4,.cls-5,.cls-6{fill-rule:evenodd;}.cls-2{fill:#f9b000;}.cls-3{fill:#005f94;}.cls-4{fill:#d2091e;}.cls-5{fill:#fff;}.cls-6{fill:#008251;}</style></defs><g id="Primer_plano" data-name="Primer plano"><path class="cls-1" d="M97.49,25,98,26.3H97Zm.16-.66h-.09l-.93,2.21c-.19.45-.31.78-.59.81v.09H97V27.4c-.16,0-.32,0-.32-.2a3.55,3.55,0,0,1,.25-.71h1.21l.16.39c.18.41.18.5-.21.52v.09h1.17V27.4c-.25,0-.35-.26-.43-.45Zm-2.17,0h-.1c-.15.37-.38,0-1,0A1.52,1.52,0,0,0,92.8,26a1.48,1.48,0,0,0,1.58,1.58A1.61,1.61,0,0,0,95.57,27l-.07-.1a1.39,1.39,0,0,1-1.08.46A1.18,1.18,0,0,1,93.33,26c0-.83.33-1.44,1.09-1.44a1,1,0,0,1,1,.85h.11Zm-3.62.43c0-.13.07-.28.45-.28v-.09H90.94v.09c.39,0,.46.15.46.28v2.31c0,.13-.07.28-.46.28v.09h1.37V27.4c-.38,0-.45-.15-.45-.28Zm-1.76,0c0-.13.07-.28.45-.28v-.09h-1.1v.09c.38,0,.45.15.45.28v1.84l-1.77-2.21h-.79v.09c.23,0,.27,0,.41.21l0,0v2.34c0,.13-.07.28-.45.28v.09h1.1V27.4c-.38,0-.45-.15-.45-.28V25l2,2.53h.07Zm-3.3-.43h-.1c-.15.37-.38,0-1,0A1.52,1.52,0,0,0,84.12,26a1.48,1.48,0,0,0,1.58,1.58A1.61,1.61,0,0,0,86.89,27l-.07-.1a1.39,1.39,0,0,1-1.08.46A1.18,1.18,0,0,1,84.65,26c0-.83.33-1.44,1.09-1.44a1,1,0,0,1,1,.85h.11Zm-3.36,3.11.21-.78h-.13a.85.85,0,0,1-1,.59H82c-.09,0-.12-.1-.12-.18V26h.65c.31,0,.57.08.57.44h.1V25.36h-.1c0,.36-.26.44-.57.44h-.65v-1a.18.18,0,0,1,.2-.18h.74a.52.52,0,0,1,.53.47h.1v-.66H81v.09c.33,0,.4.15.4.28v2.31c0,.13-.07.28-.4.28v.09Zm-3.56-.09c-.33,0-.4-.15-.4-.28V24.64h.33c.34,0,.55,0,.65.58h.11l0-.78h-2.6l0,.78H78c.1-.58.32-.58.66-.58H79v2.48c0,.13-.07.28-.41.28v.09h1.28Zm-6.44-2.55c0-.22,0-.24.27-.24A1.3,1.3,0,0,1,75.15,26a1.26,1.26,0,0,1-1.48,1.32.22.22,0,0,1-.23-.23Zm.35,2.64c1.24,0,1.86-.58,1.86-1.52s-.72-1.53-1.89-1.53H72.57v.09c.34,0,.41.15.41.28v2.31c0,.13-.07.28-.41.28v.09ZM70.43,25,71,26.3H69.9Zm.16-.66H70.5l-.93,2.21c-.19.45-.31.78-.6.81v.09h.91V27.4c-.15,0-.31,0-.31-.2a3.55,3.55,0,0,1,.25-.71H71l.17.39c.18.41.18.5-.21.52v.09h1.17V27.4c-.26,0-.35-.26-.44-.45Zm-4.11.47c0-.22,0-.24.26-.24A1.3,1.3,0,0,1,68.18,26,1.26,1.26,0,0,1,66.7,27.3a.22.22,0,0,1-.22-.23Zm.35,2.64c1.23,0,1.85-.58,1.85-1.52s-.71-1.53-1.89-1.53H65.61v.09c.33,0,.4.15.4.28v2.31c0,.13-.07.28-.4.28v.09Zm-2.1-2.68c0-.13.07-.28.45-.28v-.09H63.81v.09c.39,0,.45.15.45.28v2.31c0,.13-.06.28-.45.28v.09h1.37V27.4c-.38,0-.45-.15-.45-.28Zm-3.48,2.74h.1c0-.34.38,0,.86,0a.89.89,0,0,0,1-.84c0-.55-.42-.75-1-1.13-.2-.12-.49-.31-.49-.57a.43.43,0,0,1,.49-.44.92.92,0,0,1,.83.79h.12l-.1-1h-.1c-.11.34-.33,0-.82,0a.77.77,0,0,0-.81.77c0,.87,1.25.9,1.44,1.55a.52.52,0,0,1-.52.67,1,1,0,0,1-1-.81h-.11Zm-2.74-2.72c0-.21.05-.21.34-.21s.74.18.74.63-.41.64-1.08.66Zm-.46,2.29c0,.13-.07.28-.39.28v.09h1.26V27.4c-.34,0-.41-.15-.41-.28v-1h.26l1.1,1.42h.74V27.4a.58.58,0,0,1-.44-.26L59.26,26c.43-.06.83-.29.83-.77s-.46-.81-1.22-.81H57.66v.09c.32,0,.39.15.39.28Zm-1,.37.21-.78h-.13a.85.85,0,0,1-1,.59h-.61c-.09,0-.11-.1-.11-.18V26h.64c.31,0,.57.08.57.44h.1V25.36h-.1c0,.36-.26.44-.57.44h-.64v-1c0-.12.08-.18.2-.18h.74a.52.52,0,0,1,.52.47H57v-.66H54.59v.09c.34,0,.41.15.41.28v2.31c0,.13-.07.28-.41.28v.09Zm-4.39.06h.06c.25-.66.72-1.88,1.06-2.69.08-.18.17-.33.39-.33v-.09h-.95v.09c.14,0,.34,0,.34.2a1.36,1.36,0,0,1-.11.38l-.66,1.64-.67-1.51a2.74,2.74,0,0,1-.21-.54c0-.11,0-.17.35-.17v-.09H51.05v.09c.27,0,.39.26.51.53Zm-2.5-2.74c0-.13.07-.28.45-.28v-.09H49.26v.09c.38,0,.45.15.45.28v2.31c0,.13-.07.28-.45.28v.09h1.37V27.4c-.38,0-.45-.15-.45-.28Zm-1.76,0c0-.13.07-.28.44-.28v-.09H47.77v.09c.38,0,.45.15.45.28v1.84l-1.77-2.21h-.79v.09c.23,0,.27,0,.41.21l0,0v2.34c0,.13-.07.28-.45.28v.09h1.09V27.4c-.37,0-.44-.15-.44-.28V25l2,2.53h.07Zm-5.91,1.51c0,.84.34,1.23,1.18,1.23a1.5,1.5,0,0,0,.58-.12c.52-.25.57-.65.57-1.17V24.81c0-.13.07-.28.43-.28v-.09H44.2v.09c.37,0,.44.15.44.28v1.45c0,.44,0,1.08-.87,1.08-.57,0-.79-.27-.79-1V24.81c0-.13.07-.28.4-.28v-.09H42.1v.09c.34,0,.41.15.41.28Zm55,3.48L98,31.06H97Zm.16-.66h-.09l-.93,2.21c-.19.45-.31.78-.59.81v.09H97v-.09c-.16,0-.32,0-.32-.2a3.55,3.55,0,0,1,.25-.71h1.21l.16.39c.18.41.18.5-.21.52v.09h1.17v-.09c-.25,0-.35-.26-.43-.45Zm-2.34.43c0-.13.07-.28.45-.28V29.2H94.39v.09c.38,0,.45.15.45.28v2.31c0,.13-.07.28-.45.28v.09h1.37v-.09c-.38,0-.45-.15-.45-.28Zm-3.28,0c0-.21,0-.21.34-.21s.73.18.73.63-.41.64-1.07.66Zm-.47,2.29c0,.13-.07.28-.39.28v.09h1.26v-.09c-.33,0-.4-.15-.4-.28v-1h.25l1.1,1.42h.74v-.09a.6.6,0,0,1-.44-.26l-.91-1.12c.43-.06.83-.29.83-.77s-.46-.81-1.22-.81H91.17v.09c.32,0,.39.15.39.28ZM89.18,29.8l.54,1.26H88.66Zm.17-.66h-.09l-.94,2.21c-.18.45-.3.78-.59.81v.09h.91v-.09c-.15,0-.31,0-.31-.2a3.55,3.55,0,0,1,.25-.71h1.2l.17.39c.17.41.18.5-.21.52v.09h1.17v-.09c-.26,0-.36-.26-.44-.45ZM87,29.57c0-.13.07-.28.4-.28V29.2h-.91l-1,2.32L84.45,29.2h-.91v.09c.37,0,.44.15.44.28v2.31c0,.13-.07.28-.45.28v.09h1.1v-.09c-.38,0-.45-.15-.45-.28V29.74l1.15,2.51h.07l1.18-2.62v2.25c0,.13-.07.28-.41.28v.09h1.28v-.09c-.34,0-.41-.15-.41-.28Zm-6.7.23.53,1.26H79.81Zm.16-.66h-.09l-.93,2.21c-.19.45-.31.78-.59.81v.09h.91v-.09c-.16,0-.32,0-.32-.2a3.55,3.55,0,0,1,.25-.71h1.21l.16.39c.18.41.18.5-.21.52v.09h1.17v-.09c-.25,0-.35-.26-.43-.45Zm-2.15,3c-.34,0-.41-.15-.41-.28V29.4h.33c.34,0,.56,0,.66.58H79l0-.78h-2.6l0,.78h.11c.1-.58.31-.58.65-.58h.33v2.48c0,.13-.06.28-.4.28v.09h1.28Zm-2.68-2.59c0-.13.07-.28.45-.28V29.2H75v.09c.38,0,.45.15.45.28v1.84L73.7,29.2h-.79v.09c.23,0,.27.05.41.21l0,0v2.34c0,.13-.07.28-.45.28v.09H74v-.09c-.38,0-.45-.15-.45-.28v-2.1l2,2.53h.07Zm-4.74.23.53,1.26H70.4Zm.17-.66H71l-.93,2.21c-.19.45-.31.78-.59.81v.09h.91v-.09c-.16,0-.32,0-.32-.2a3.55,3.55,0,0,1,.25-.71h1.21l.16.39c.18.41.18.5-.21.52v.09h1.17v-.09c-.25,0-.35-.26-.43-.45Zm-4,3.17h.11c0-.34.37,0,.85,0a.89.89,0,0,0,1-.84c0-.55-.42-.75-1-1.13-.2-.12-.48-.31-.48-.57a.43.43,0,0,1,.48-.44.92.92,0,0,1,.83.79h.12l-.1-1h-.1c-.11.34-.33,0-.82,0a.77.77,0,0,0-.81.77c0,.87,1.25.9,1.44,1.54a.52.52,0,0,1-.52.68,1.05,1.05,0,0,1-1-.81h-.1Zm-3.3-3c.72,0,1,.7,1,1.42,0,.5-.17,1.36-1,1.42-.54,0-1-.47-1-1.42S63.07,29.35,63.75,29.3Zm0-.16a1.47,1.47,0,0,0-1.5,1.58,1.51,1.51,0,1,0,3,0A1.48,1.48,0,0,0,63.75,29.14Zm-2,0h-.1c-.15.37-.38,0-1,0a1.52,1.52,0,0,0-1.57,1.59,1.49,1.49,0,0,0,1.58,1.58,1.64,1.64,0,0,0,1.2-.57l-.08-.1a1.39,1.39,0,0,1-1.08.46c-.75,0-1.09-.69-1.09-1.34,0-.82.33-1.43,1.09-1.43a1,1,0,0,1,1,.85h.11Zm-3.49.43c0-.13.07-.28.45-.28V29.2H57.32v.09c.38,0,.45.15.45.28v2.31c0,.13-.07.28-.45.28v.09h1.37v-.09c-.38,0-.45-.15-.45-.28Zm-3.28,0c0-.21,0-.21.34-.21s.73.18.73.63-.41.64-1.07.66Zm-.47,2.29c0,.13-.07.28-.39.28v.09h1.26v-.09c-.33,0-.4-.15-.4-.28v-1h.25l1.1,1.42h.74v-.09a.6.6,0,0,1-.44-.26l-.91-1.12c.43-.06.83-.29.83-.77s-.46-.81-1.22-.81H54.1v.09c.32,0,.39.15.39.28Zm-.85.37.21-.78h-.13a.85.85,0,0,1-1,.59h-.61c-.09,0-.12-.1-.12-.18V30.75h.65c.31,0,.57.08.57.44h.1V30.12h-.1c0,.36-.26.44-.57.44H52v-1a.18.18,0,0,1,.2-.18H53a.52.52,0,0,1,.53.47h.1V29.2H51.16v.09c.33,0,.4.15.4.28v2.31c0,.13-.07.28-.4.28v.09Zm-5-2.64c0-.22,0-.24.26-.24a1.3,1.3,0,0,1,1.44,1.37,1.26,1.26,0,0,1-1.48,1.32.22.22,0,0,1-.22-.23ZM49,32.25c1.23,0,1.85-.58,1.85-1.52s-.71-1.53-1.89-1.53H47.75v.09c.33,0,.4.15.4.28v2.31c0,.13-.07.28-.4.28v.09Zm-1.72,0,.21-.78h-.13a.85.85,0,0,1-1,.59h-.61c-.09,0-.11-.1-.11-.18V30.75h.64c.31,0,.57.08.57.44H47V30.12h-.1c0,.36-.26.44-.57.44h-.64v-1c0-.12.08-.18.2-.18h.74a.52.52,0,0,1,.52.47h.1V29.2H44.77v.09c.34,0,.41.15.41.28v2.31c0,.13-.07.28-.41.28v.09Zm-3.88,0v-.09c-.34,0-.41-.15-.41-.28V30.75h.61c.3,0,.57.08.57.44h.09V30.12h-.09c0,.36-.27.44-.57.44H43v-1c0-.11,0-.18.2-.18h.6c.33,0,.6,0,.66.47h.11V29.2H42.09v.09c.33,0,.4.15.4.28v2.31c0,.13-.07.28-.4.28v.09Z"/><path class="cls-2" d="M36.46,23.22H27v7.3a.11.11,0,0,0,0,.06,1.49,1.49,0,0,0,.43.82,1.68,1.68,0,0,0,1.27.56h1.7a1.84,1.84,0,0,1,.31,0,1.22,1.22,0,0,1,1,.68A1.23,1.23,0,0,1,32.94,32h2a1.77,1.77,0,0,0,1.51-1.21.82.82,0,0,0,.06-.24Z"/><path class="cls-3" d="M14.84,19.94a1.17,1.17,0,0,1,.6,1v9.63a1.62,1.62,0,0,0,.45.82,2,2,0,0,0,1.39.56h1.89a1.2,1.2,0,0,1,1,.67A1.29,1.29,0,0,1,21.48,32h1.9a2,2,0,0,0,1.52-1.22.65.65,0,0,0,.05-.2V21s0-.13,0-.29a.94.94,0,0,1,.58-.8H22.94v9.17s0,.09,0,.2c-.08.38-.28.52-.64.65h-4L18,29.88a.85.85,0,0,1-.54-.77V19.94Z"/><path class="cls-3" d="M26.33,19.94a1.14,1.14,0,0,1,.61,1v2.11h9.51V21a1.73,1.73,0,0,1,0-.28,1.18,1.18,0,0,1,.54-.81Z"/><path class="cls-1" d="M33.51,30.49a.77.77,0,0,0,0,.19l0,0A1.39,1.39,0,0,1,33.51,30.49Zm.37.38v.06l0,.06a.29.29,0,0,1-.25.08.63.63,0,0,1-.21-.12h0l-.07,0c-.09.06-.29,0-.37,0l0-.05-.17-.06.07-.1a.3.3,0,0,1,.15-.12l0-.05a.57.57,0,0,0,0-.51A.33.33,0,0,1,33,29.8a1.6,1.6,0,0,0-.55.2.26.26,0,0,1-.21,0h0s0,0,0-.06a3.37,3.37,0,0,0-.55,0c0,.05,0,.15,0,.22a1.12,1.12,0,0,0,.05.31l0,0a.19.19,0,0,1,0,.18v0c0,.11-.12.13-.2.13a.33.33,0,0,1-.19-.08v0l-.05,0-.09-.05a.45.45,0,0,0,0-.08.47.47,0,0,1,.07-.12V30.3l0,0,0,0a.61.61,0,0,0-.06.31l0,0a.17.17,0,0,1-.06.18l0,.12-.06.06a.36.36,0,0,1-.36,0v-.05s0,0,0,0l-.15,0,0-.1a.57.57,0,0,1,.12-.18l0,0a.51.51,0,0,1,0-.13c.06-.17-.06-.15,0-.37s-.28-.15-.33-.26a.55.55,0,0,0-.07-.09v0c-.06,0-.07,0-.08-.11v0a.51.51,0,0,0-.08-.17c-.2-.15-.3,0-.47-.06h0c-.06,0-.1-.06-.14,0h0c-.11,0-.27.06-.33-.07a.2.2,0,0,1-.13-.11.17.17,0,0,1,0-.21l0,0c.07-.07,0-.2.17-.32s0-.15.14-.24a.86.86,0,0,1-.26-.21l.08-.09a.37.37,0,0,0,.11,0,.34.34,0,0,0,.2,0h0a.2.2,0,0,1,.17,0h0l0,0c.05,0,.1-.05.24,0h0c.05,0,.22,0,.36,0s.26,0,.43,0,.24,0,.39,0c.3,0,.46.05.76,0s.66-.12,1.09-.11.76,0,.9.27a.32.32,0,0,1,.14.29.76.76,0,0,1-.14.51c-.15.21-.3.48-.16.72a.69.69,0,0,1,0,.49,2.41,2.41,0,0,0,0,.31,0,0,0,0,0,0,0v0C34,30.81,34,30.85,33.88,30.87Z"/><path class="cls-4" d="M33.65,30.72l-.14.07,0,0,0,0a.15.15,0,0,0,.16-.06Zm-.48-.1-.06,0-.08.05C33.17,30.73,33.2,30.74,33.17,30.62Zm.47-1.56a.76.76,0,0,0,.26-.29,0,0,0,0,0,0,0c0-.18,0-.39-.12-.46a1.61,1.61,0,0,0-.69-.09c-.43,0-.66.11-1.09.11s-.46,0-.76,0c-.15,0-.24,0-.4,0s-.25-.05-.42-.05-.31,0-.36,0-.09-.06-.16,0a.15.15,0,0,1-.16,0h0l0,0a.08.08,0,0,0-.08,0h-.08l.12.06c-.14.09-.16.08-.21.22s-.13.14-.17.26a.28.28,0,0,1-.09.19l0,0c-.06.06,0,.14.11.12l.09,0h0a.27.27,0,0,1,.23,0l0,0c.14.06.25-.13.54.11a.6.6,0,0,1,.2.31v0l.07.07c.1.08.05.13.17.2l.27.15c-.05.29.05.18.05.36a.2.2,0,0,1,0,.09v0c0,.05,0,.1,0,.15a.55.55,0,0,0-.13.17c.09,0,.12,0,.18-.05l0-.12s.1-.06.08-.12v0a1.27,1.27,0,0,1,.21-.69,1.45,1.45,0,0,0,.22.49l0,.27-.05,0,0,.06,0,0a.21.21,0,0,1,0,.07s.13,0,.17,0l0-.05,0,0v0a.08.08,0,0,0,0-.06l0-.06a1.26,1.26,0,0,1-.05-.33c0-.11-.05-.33-.05-.33s.28,0,.42,0h.53l-.09.07c.09,0,.24-.13.37-.17a1.78,1.78,0,0,1,.45-.08.58.58,0,0,0,.09.34.72.72,0,0,1,0,.71h.07a2.74,2.74,0,0,1,.15-.53s0-.3,0-.31l.11,0a2,2,0,0,1,.08.19,1.49,1.49,0,0,1,.08.72l0,0h.07v0a1,1,0,0,1,0-.38.69.69,0,0,0,0-.43.64.64,0,0,1,0-.64.76.76,0,0,1-.24.12,1,1,0,0,1-.72-.23h-.07c-.13,0-.19-.05-.21-.16s0-.06,0-.08l-.12-.09h.2a.43.43,0,0,1,.29.12s.42.3.65.21a.63.63,0,0,0,.35-.35l0,0s0,0,0,0l.1,0a.05.05,0,0,1,0,.05l0,0A.91.91,0,0,1,33.64,29.06Zm-.8,0a.82.82,0,0,0,.58.18.45.45,0,0,0,.14-.07.6.6,0,0,1-.58,0Zm-.2-.05h.11l0,0-.07-.05-.09,0h0v.06s0,.09.06.07Z"/><polygon class="cls-1" points="31.84 20.45 32.03 20.73 32.59 20.62 32.56 20.79 32.69 20.76 32.59 21.27 32.96 21.52 32.92 21.55 33.05 21.64 32.59 21.97 32.69 22.52 32.13 22.42 31.81 22.89 31.72 22.76 31.69 22.8 31.44 22.43 30.93 22.52 30.96 22.39 30.79 22.42 30.89 21.87 30.62 21.68 30.42 21.52 30.9 21.2 30.79 20.62 31.36 20.73 31.69 20.25 31.83 20.46 31.84 20.45"/><path class="cls-5" d="M31.45,20.8l.21.5h.06l.21-.5-.24-.34Zm.1.55-.2-.5-.41-.08.07.41.5.21S31.54,21.36,31.55,21.35Zm-.09.14-.49-.2-.34.23.34.24.49-.2v-.07Zm0,.18-.49.2-.07.41.41-.08.2-.48Zm.16.1-.21.48.24.34.24-.35-.2-.47h-.07Zm.18-.05.19.48.41.08-.07-.41-.48-.2Zm.09-.17.48.21.34-.24-.34-.23-.49.2a.06.06,0,0,1,0,0Zm-.06-.17.5-.2.07-.41-.41.08-.2.5Zm-.18,0a.14.14,0,0,0-.14.14.14.14,0,0,0,.14.15.14.14,0,0,0,.15-.15A.14.14,0,0,0,31.69,21.39Z"/><path class="cls-1" d="M36.82,30.74a1.75,1.75,0,0,1-.43,1,2,2,0,0,1-1.26.64h-2a1.86,1.86,0,0,0-.68.14,1.93,1.93,0,0,0-.56.67l-.17-.25-.06.1a4.31,4.31,0,0,0-.36-.53,2.18,2.18,0,0,0-.77-.13H29a1.86,1.86,0,0,1-1.45-.52,1.81,1.81,0,0,1-.33-.29c-.51-.57-.49-.94-.48-1V21a1.05,1.05,0,0,0-.44-.82h-.08a1.67,1.67,0,0,0-.74.43,1.68,1.68,0,0,0-.2.71v9.49a1.65,1.65,0,0,1-.49.93,2,2,0,0,1-1.2.62H21.71a1.9,1.9,0,0,0-.68.12,1.88,1.88,0,0,0-.61.67,1.64,1.64,0,0,0-.17-.26l-.06.09a2.49,2.49,0,0,0-.32-.48l0,0a2,2,0,0,0-.73-.12h-1.6a2.11,2.11,0,0,1-.52-.06,2,2,0,0,1-1-.53,2,2,0,0,1-.77-1.23V21a1.08,1.08,0,0,0-.83-1l0-.17H37.41v0l.31.31a2,2,0,0,0-.68.47,2,2,0,0,0-.22.71v9.45Zm-.36-7.52H27v7.3a.11.11,0,0,0,0,.06,1.49,1.49,0,0,0,.43.82,1.68,1.68,0,0,0,1.27.56h1.7a1.84,1.84,0,0,1,.31,0,1.22,1.22,0,0,1,1,.68A1.23,1.23,0,0,1,32.94,32h2a1.77,1.77,0,0,0,1.51-1.21.82.82,0,0,0,.06-.24ZM26.33,19.94a1.14,1.14,0,0,1,.61,1v2.11h9.51V21a1.73,1.73,0,0,1,0-.28,1.18,1.18,0,0,1,.54-.81Zm-11.49,0a1.17,1.17,0,0,1,.6,1v9.63a1.62,1.62,0,0,0,.45.82,2,2,0,0,0,1.39.56h1.89a1.2,1.2,0,0,1,1,.67A1.29,1.29,0,0,1,21.48,32h1.9a2,2,0,0,0,1.52-1.22.65.65,0,0,0,.05-.2V21s0-.13,0-.29a.94.94,0,0,1,.58-.8H22.94v9.17s0,.09,0,.2c-.08.38-.28.52-.64.65h-4L18,29.88a.85.85,0,0,1-.54-.77V19.94Z"/><path class="cls-2" d="M17.64,29.1a.72.72,0,0,0,.61.68h1.94V24.73H17.64Z"/><path class="cls-1" d="M19.88,26.76a.17.17,0,0,1,0,.18l0,.24-.15,0h-.37l-.15,0,0-.08-.15,0,0-.24a.17.17,0,0,1,0-.14v0a.34.34,0,0,1-.07-.19.13.13,0,0,1,0-.08L19,25.64l.14,0,.1-.07.08,0,.08-.05.09.05.09-.05.09.05.09,0,.1.07.15,0,0,.16.13,0-.13.72v0a.2.2,0,0,1,0,.21Z"/><path class="cls-6" d="M19.19,26.58h.5v0a.12.12,0,0,0,0-.17l.11-.6h0l-.09-.07-.08,0-.08-.05-.09,0-.08,0-.09.05-.07,0-.09.06h0c0,.13.05.41.08.58s0,.08,0,.11A.13.13,0,0,0,19.19,26.58Zm.45.29h-.41l0,.11h.44Zm-.44-.17s0,0,0,.06h.46a.06.06,0,0,0,0-.06Z"/><path class="cls-1" d="M19.29,28.71a.15.15,0,0,1,0,.18l0,.24-.14,0h-.53l0-.08-.15,0,.05-.25a.14.14,0,0,1,0-.14v0a.34.34,0,0,1-.07-.19.19.19,0,0,1,0-.09c0-.25-.1-.75-.1-.75l.14,0,.1-.07.08,0,.08-.05.09,0,.09-.05.09.06.09,0,.1.07.15,0,0,.16.13,0-.12.72v0a.23.23,0,0,1,0,.21Z"/><path class="cls-6" d="M18.6,28.54h.5v0a.12.12,0,0,0,0-.16l.1-.6h0l-.1-.06-.08,0-.08,0-.09,0-.08,0-.08.05-.08,0-.08.06h0c0,.13.05.4.08.58s0,.07,0,.11A.14.14,0,0,0,18.6,28.54Zm.45.29h-.4l0,.11h.43Zm-.44-.17s0,0,0,.05h.46a0,0,0,0,0,0-.05h-.48Z"/><path class="cls-1" d="M33.51,26.87a.9.9,0,0,0,0,.19h0A1.44,1.44,0,0,1,33.51,26.87Zm.37.39v0l0,.06a.26.26,0,0,1-.25.08.5.5,0,0,1-.21-.12h0l-.07,0c-.09.06-.29,0-.37,0l0,0a1.22,1.22,0,0,1-.17-.05l.07-.1a.32.32,0,0,1,.15-.13l0-.05a.57.57,0,0,0,0-.51.34.34,0,0,1-.08-.16,1.57,1.57,0,0,0-.55.19.26.26,0,0,1-.21,0h0a.07.07,0,0,1,0-.06l-.55,0c0,.06,0,.15,0,.22a1.06,1.06,0,0,0,.05.31l0,.06a.17.17,0,0,1,0,.17v0c0,.11-.12.14-.2.14a.41.41,0,0,1-.19-.08v0l-.05,0-.09,0a.29.29,0,0,0,0-.08.75.75,0,0,1,.07-.12v-.22l0,0,0,0a.67.67,0,0,0-.06.32l0,0a.16.16,0,0,1-.06.17l0,.12-.06.06a.36.36,0,0,1-.36,0v0s0,0,0,0l-.15,0,0-.1a.71.71,0,0,1,.12-.18l0,0a.59.59,0,0,1,0-.13c.06-.17-.06-.15,0-.37-.1-.07-.28-.14-.33-.25a.36.36,0,0,0-.07-.1v0c-.06,0-.07,0-.08-.1v-.05a.4.4,0,0,0-.08-.16c-.2-.15-.3,0-.47-.07h0a.17.17,0,0,0-.14,0l0,0c-.11,0-.27,0-.33-.08a.2.2,0,0,1-.13-.11.17.17,0,0,1,0-.21l0,0c.07-.07,0-.2.17-.32s0-.15.14-.24a.86.86,0,0,1-.26-.21l.08-.09.11.06a.34.34,0,0,0,.2,0h0a.25.25,0,0,1,.17,0l0,0,0,0c.05,0,.1-.06.24,0h0c.05,0,.22,0,.36,0s.26,0,.43.05h.39c.3,0,.46,0,.76,0s.66-.12,1.09-.11.76,0,.9.26c.09.06.13.13.14.3a.78.78,0,0,1-.14.51.67.67,0,0,0-.16.72.66.66,0,0,1,0,.48,2.41,2.41,0,0,0,0,.31.06.06,0,0,0,0,0v0C34,27.19,34,27.23,33.88,27.26Z"/><path class="cls-4" d="M33.17,27h-.06a.21.21,0,0,0-.08.06C33.17,27.11,33.2,27.12,33.17,27Zm.48.1-.14.07a.1.1,0,0,0,0,0h0a.16.16,0,0,0,.16-.05Zm0-1.67a.74.74,0,0,0,.26-.28.08.08,0,0,0,0,0c0-.17,0-.39-.12-.46a1.77,1.77,0,0,0-.69-.09c-.43,0-.66.11-1.09.12s-.46-.05-.76-.05c-.15,0-.24,0-.4,0s-.25,0-.42,0-.31,0-.36,0-.09-.05-.16,0a.18.18,0,0,1-.16,0h0l0,0h-.08l0,0h-.05l.12.05c-.14.09-.16.08-.21.23s-.13.13-.17.25a.28.28,0,0,1-.09.19l0,0c-.06.05,0,.13.11.12l.09,0h0a.24.24,0,0,1,.23,0h0c.14.07.25-.13.54.11a.69.69,0,0,1,.2.31V26l.07.06c.1.09.05.13.17.2s.27.15.27.15c-.05.3.05.19.05.36a.3.3,0,0,1,0,.1v0c0,.05,0,.1,0,.15a.65.65,0,0,0-.13.16c.09,0,.12,0,.18-.05l0-.12s.1-.05.08-.11v0a1.27,1.27,0,0,1,.21-.7,1.45,1.45,0,0,0,.22.49l0,.28-.05,0,0,.07h0s0,.05,0,.08a.2.2,0,0,0,.17,0l0-.06s0,0,0,0v0a.08.08,0,0,0,0-.06l0-.06a1.26,1.26,0,0,1-.05-.33c0-.1-.05-.33-.05-.33l.42,0h.53l-.09.06c.09,0,.24-.13.37-.17a1.78,1.78,0,0,1,.45-.08.58.58,0,0,0,.09.34.74.74,0,0,1,0,.72h.07a2.63,2.63,0,0,1,.15-.52,3.11,3.11,0,0,0,0-.32l.11,0a2,2,0,0,1,.08.19,1.46,1.46,0,0,1,.08.71l0,0h.07v0a1,1,0,0,1,0-.38.69.69,0,0,0,0-.43.64.64,0,0,1,0-.64.83.83,0,0,1-.24.13,1,1,0,0,1-.72-.24h-.07c-.13.05-.19-.05-.21-.16s0-.05,0-.08l-.12-.08.2,0a.43.43,0,0,1,.29.12s.42.3.65.22a.68.68,0,0,0,.35-.36l0,0a0,0,0,0,1,0,0l.1,0a.07.07,0,0,1,0,.06l0,0A1,1,0,0,1,33.64,25.44Zm-.8-.05a.82.82,0,0,0,.58.18.39.39,0,0,0,.14-.06.61.61,0,0,1-.58,0Zm-.2-.05h.08a.25.25,0,0,0-.07-.05.15.15,0,0,0-.09,0h0v.06s0,.09.06.07Z"/><path class="cls-1" d="M22.29,30.41h.08l.08.33.06.07,0,0,0,.06,0,0,0,0c.12.16.08.27-.06.39s-.14.31-.38.28a.42.42,0,0,1-.25.14.45.45,0,0,1-.25-.14c-.14,0-.27,0-.34-.1s-.15-.12-.17-.28l0,0c-.16-.12-.11-.3,0-.43l.16-.18.09-.36h.23a.25.25,0,0,1,.37,0l.25,0Z"/><path class="cls-5" d="M21.94,30.36s0,0-.05,0a.08.08,0,0,0-.09,0l-.11.07s0,.07-.06.09-.1,0-.09-.08h0l-.08.31-.17.2c-.08.08-.13.18,0,.26l.16-.25.1.07-.19.27c0,.19.07.22.25.18l.07-.42.11,0-.06.43a.27.27,0,0,0,.17.1.27.27,0,0,0,.16-.1L21.91,31,22,31l.09.43c.17,0,.22,0,.24-.19l-.2-.26.09-.07.18.23c.09-.08.08-.15,0-.24l-.19-.2-.07-.31h-.05l-.11.06a.14.14,0,0,0-.05-.08Z"/><path class="cls-1" d="M18.7,26.76a.14.14,0,0,1,0,.18l0,.24-.14,0h-.38l-.14,0V27.1l-.15,0,.05-.24a.15.15,0,0,1,0-.14v0a.36.36,0,0,1-.08-.19.12.12,0,0,1,0-.08c0-.26-.1-.76-.1-.76l.14,0,.1-.07.08,0,.09-.05.08.05.09-.05.09.05.09,0,.1.07.15,0,0,.16.13,0-.12.72v0a.25.25,0,0,1,0,.21Z"/><path class="cls-6" d="M18,26.58h.5l0,0a.15.15,0,0,0,0-.17l.1-.6h0l-.09-.07-.08,0-.09-.05-.08,0-.09,0-.08.05-.08,0-.08.06h0c0,.13.06.41.09.58s0,.08,0,.11A.12.12,0,0,0,18,26.58Zm.45.29h-.4L18,27h.44ZM18,26.7a.06.06,0,0,0,0,.06h.46s0,0,0-.06Z"/><path class="cls-1" d="M19,30.41h.07l.09.33.06.07,0,0a.21.21,0,0,1,0,.06l.05,0s0,0,0,0,.08.27-.06.39-.14.31-.38.28a.29.29,0,0,1-.5,0c-.14,0-.27,0-.34-.1s-.16-.12-.17-.28l0,0c-.16-.12-.11-.3,0-.43l.16-.18.08-.36h.24a.25.25,0,0,1,.37,0l.25,0Z"/><path class="cls-5" d="M18.68,30.36s0,0-.05,0a.1.1,0,0,0-.1,0l-.1.07s0,.07-.06.09-.1,0-.09-.08h0l-.08.31-.18.2c-.07.08-.13.18,0,.26l.17-.25.1.07-.19.27c0,.19.07.22.25.18l.07-.42.11,0-.06.43a.27.27,0,0,0,.16.1.27.27,0,0,0,.17-.1L18.65,31l.12,0,.09.43c.17,0,.22,0,.24-.19L18.9,31l.09-.07.18.23a.15.15,0,0,0,0-.24L19,30.7l-.07-.31h-.06l-.1.06a.14.14,0,0,0-.05-.08Z"/><path class="cls-1" d="M24.43,28.68h.07l.08.33.06.07,0,0,0,.06,0,0,0,0c.13.16.08.27-.06.39s-.14.31-.38.28a.42.42,0,0,1-.25.14.4.4,0,0,1-.24-.14c-.15,0-.28,0-.34-.1s-.16-.12-.18-.28l0,0c-.16-.12-.11-.3,0-.43l.16-.18.09-.36h.24a.24.24,0,0,1,.36,0l.25,0Z"/><path class="cls-5" d="M24.07,28.63l0,0a.1.1,0,0,0-.1,0l-.11.07s0,.07-.06.09-.1,0-.08-.08h-.05l-.07.31-.18.2c-.08.08-.13.18,0,.26l.16-.25.1.07-.19.27c0,.19.07.22.25.18l.07-.42.12,0-.07.43a.27.27,0,0,0,.17.1.33.33,0,0,0,.17-.1l-.1-.44.12,0,.09.43c.17,0,.22,0,.24-.19l-.2-.26.1-.07.17.23c.09-.08.09-.15,0-.24l-.18-.2-.08-.31h-.05l-.11.06a.14.14,0,0,0-.05-.08Z"/><polygon class="cls-1" points="34.91 20.45 35.09 20.73 35.65 20.62 35.62 20.79 35.75 20.76 35.65 21.27 36.02 21.52 35.98 21.55 36.12 21.64 35.65 21.97 35.75 22.52 35.19 22.42 34.87 22.89 34.78 22.76 34.75 22.8 34.5 22.43 33.99 22.52 34.02 22.39 33.85 22.42 33.95 21.87 33.68 21.68 33.48 21.52 33.96 21.2 33.85 20.62 34.42 20.73 34.75 20.25 34.89 20.46 34.91 20.45"/><path class="cls-5" d="M34.52,20.8l.2.5h.06l.21-.5-.24-.34Zm.1.55-.21-.5L34,20.77l.07.41.5.21Zm-.1.14-.49-.2-.34.23.34.24.49-.2v-.07Zm0,.18-.49.2-.07.41.41-.08.2-.48Zm.16.1-.2.48.23.34.24-.35-.2-.47h-.07Zm.18-.05.19.48.41.08-.07-.41-.48-.2Zm.09-.17.48.21.34-.24-.34-.23-.48.2v.06Zm-.06-.17.5-.2.07-.41-.41.08-.2.5Zm-.17,0a.14.14,0,0,0-.15.14.14.14,0,0,0,.15.15.14.14,0,0,0,.14-.15A.14.14,0,0,0,34.76,21.39Z"/><path class="cls-1" d="M24.43,26.11h.07l.08.33.06.07,0,0,0,.06,0,0,0,0c.13.16.08.27-.06.39s-.14.31-.38.28a.42.42,0,0,1-.25.14.4.4,0,0,1-.24-.14c-.15,0-.28,0-.34-.1s-.16-.12-.18-.28l0,0c-.16-.12-.11-.3,0-.43l.16-.18.09-.36h.24a.24.24,0,0,1,.36,0l.25,0Z"/><path class="cls-5" d="M24.07,26.06l0,0a.1.1,0,0,0-.1,0l-.11.07s0,.07-.06.09-.1,0-.08-.08h-.05l-.07.31-.18.2c-.08.08-.13.18,0,.26l.16-.25.1.07-.19.27c0,.19.07.22.25.18l.07-.42.12,0-.07.43a.32.32,0,0,0,.17.1.33.33,0,0,0,.17-.1l-.1-.44.12,0,.09.43c.17,0,.22,0,.24-.19l-.2-.26.1-.07.17.23c.09-.08.09-.15,0-.24l-.18-.2-.08-.31h-.05l-.11.06a.14.14,0,0,0-.05-.08Z"/><path class="cls-1" d="M24.43,23.54h.07l.08.34.06.07,0,0a.43.43,0,0,0,0,.07l0,0,0,0c.13.16.08.27-.06.39s-.14.31-.38.28a.42.42,0,0,1-.25.14.45.45,0,0,1-.24-.14c-.15,0-.28,0-.34-.1s-.16-.12-.18-.28l0,0c-.16-.12-.11-.3,0-.44l.16-.17.09-.36h.24a.24.24,0,0,1,.36,0l.25,0Z"/><path class="cls-5" d="M24.07,23.49l0,0a.12.12,0,0,0-.1,0l-.11.07s0,.07-.06.09-.1,0-.08-.08h-.05l-.07.31-.18.19c-.08.09-.13.19,0,.26l.16-.24.1.06-.19.28c0,.18.07.22.25.18l.07-.42.12,0-.07.43a.32.32,0,0,0,.17.1.33.33,0,0,0,.17-.1l-.1-.44.12,0,.09.43c.17,0,.22,0,.24-.19l-.2-.26.1-.08.17.24c.09-.08.09-.15,0-.24l-.18-.2-.08-.31h-.05l-.11.06a.11.11,0,0,0-.05-.08Z"/><path class="cls-1" d="M24.43,21h.07l.08.34.06.07,0,0,0,.06,0,.05,0,0c.13.17.08.28-.06.4s-.14.31-.38.28a.41.41,0,0,1-.25.13.38.38,0,0,1-.24-.13c-.15,0-.28,0-.34-.1s-.16-.12-.18-.28l0,0c-.16-.12-.11-.31,0-.44l.16-.17.09-.36.24,0a.25.25,0,0,1,.36,0l.25,0Z"/><path class="cls-5" d="M24.07,20.91l0,0a.13.13,0,0,0-.1,0l-.11.08s0,.07-.06.09-.1,0-.08-.08h-.05l-.07.31-.18.19c-.08.09-.13.19,0,.26l.16-.24.1.06-.19.28c0,.18.07.22.25.18l.07-.42.12,0L23.8,22a.32.32,0,0,0,.17.1c.05,0,.13-.07.17-.1l-.1-.44.12,0,.09.43c.17,0,.22,0,.24-.19l-.2-.27.1-.07.17.24c.09-.08.09-.15,0-.24l-.18-.2L24.3,21h-.05l-.11.05a.12.12,0,0,0-.05-.07Z"/><polygon class="cls-1" points="28.79 20.45 28.97 20.73 29.53 20.62 29.5 20.79 29.63 20.76 29.53 21.27 29.9 21.52 29.86 21.55 29.99 21.64 29.52 21.97 29.63 22.52 29.07 22.42 28.75 22.89 28.66 22.76 28.63 22.8 28.38 22.43 27.86 22.52 27.89 22.39 27.73 22.42 27.83 21.87 27.56 21.68 27.36 21.52 27.84 21.2 27.73 20.62 28.3 20.73 28.63 20.25 28.77 20.46 28.79 20.45"/><path class="cls-5" d="M28.39,20.8l.21.5h.06l.2-.5-.23-.34Zm.1.55-.21-.5-.4-.08.07.41.5.21Zm-.09.14-.49-.2-.34.23.34.24.49-.2v-.07Zm0,.18-.49.2-.07.41.41-.08.2-.48S28.45,21.69,28.44,21.67Zm.16.1-.21.48.24.34.23-.35-.19-.47H28.6Zm.18-.05.19.48.41.08-.08-.41-.47-.2Zm.09-.17.48.21.34-.24-.34-.23-.49.2a.06.06,0,0,1,0,0Zm-.06-.17.49-.2.08-.41-.41.08-.2.5Zm-.18,0a.14.14,0,0,0-.14.14.14.14,0,0,0,.14.15.14.14,0,0,0,.15-.15A.14.14,0,0,0,28.63,21.39Z"/><path class="cls-1" d="M16.9,28.68H17l.08.33.07.07,0,0,0,.06,0,0,0,0c.13.16.09.27,0,.39s-.15.31-.38.28a.45.45,0,0,1-.25.14.42.42,0,0,1-.25-.14c-.15,0-.27,0-.34-.1s-.16-.12-.18-.28l0,0c-.16-.12-.12-.3,0-.43l.15-.18.09-.36h.24a.25.25,0,0,1,.37,0l.25,0Z"/><path class="cls-5" d="M16.54,28.63l0,0a.1.1,0,0,0-.1,0l-.11.07s0,.07-.05.09-.11,0-.09-.08h0L16,29l-.18.2c-.07.08-.13.18,0,.26l.17-.25.1.07-.19.27c0,.19.07.22.25.18l.07-.42.11,0-.07.43a.33.33,0,0,0,.17.1.3.3,0,0,0,.17-.1l-.09-.44.11,0,.09.43c.18,0,.22,0,.25-.19l-.2-.26.09-.07.18.23c.08-.08.08-.15,0-.24l-.18-.2-.07-.31h-.06l-.1.06a.14.14,0,0,0-.05-.08Z"/><path class="cls-1" d="M16.9,26.11H17l.08.33.07.07,0,0,0,.06,0,0,0,0c.13.16.09.27,0,.39s-.15.31-.38.28a.45.45,0,0,1-.25.14.42.42,0,0,1-.25-.14c-.15,0-.27,0-.34-.1s-.16-.12-.18-.28l0,0c-.16-.12-.12-.3,0-.43l.15-.18L16,26h.24a.25.25,0,0,1,.37,0l.25,0Z"/><path class="cls-5" d="M16.54,26.06a.05.05,0,0,0,0,0,.1.1,0,0,0-.1,0l-.11.07s0,.07-.05.09-.11,0-.09-.08h0L16,26.4l-.18.2c-.07.08-.13.18,0,.26l.17-.25.1.07-.19.27c0,.19.07.22.25.18l.07-.42.11,0-.07.43s.12.1.17.1a.3.3,0,0,0,.17-.1l-.09-.44.11,0,.09.43c.18,0,.22,0,.25-.19l-.2-.26.09-.07.18.23c.08-.08.08-.15,0-.24l-.18-.2-.07-.31h-.06l-.1.06a.14.14,0,0,0-.05-.08Z"/><path class="cls-1" d="M16.9,23.54H17l.08.34.07.07,0,0,0,.07,0,0,0,0c.13.16.09.27,0,.39s-.15.31-.38.28a.45.45,0,0,1-.25.14.48.48,0,0,1-.25-.14c-.15,0-.27,0-.34-.1s-.16-.12-.18-.28l0,0c-.16-.12-.12-.3,0-.44l.15-.17.09-.36h.24a.25.25,0,0,1,.37,0l.25,0Z"/><path class="cls-5" d="M16.54,23.49s0,0,0,0a.12.12,0,0,0-.1,0l-.11.07s0,.07-.05.09-.11,0-.09-.08h0l-.08.31-.18.19c-.07.09-.13.19,0,.26L16,24l.1.06-.19.28c0,.18.07.22.25.18l.07-.42.11,0-.07.43s.12.1.17.1a.3.3,0,0,0,.17-.1l-.09-.44.11,0,.09.43c.18,0,.22,0,.25-.19l-.2-.26.09-.08.18.24c.08-.08.08-.15,0-.24l-.18-.2-.07-.31h-.06l-.1.06a.11.11,0,0,0-.05-.08Z"/><path class="cls-1" d="M16.9,21H17l.08.34.07.07,0,0,0,.06,0,.05,0,0a.25.25,0,0,1,0,.4c0,.24-.15.31-.38.28a.44.44,0,0,1-.25.13.41.41,0,0,1-.25-.13c-.15,0-.27,0-.34-.1s-.16-.12-.18-.28l0,0a.28.28,0,0,1,0-.44l.15-.17.09-.36.24,0a.26.26,0,0,1,.37,0l.25,0Z"/><path class="cls-5" d="M16.54,20.91l0,0a.13.13,0,0,0-.1,0l-.11.08s0,.07-.05.09-.11,0-.09-.08h0l-.08.31-.18.19c-.07.09-.13.19,0,.26l.17-.24.1.06-.19.28c0,.18.07.22.25.18l.07-.42.11,0-.07.43s.12.1.17.1.13-.07.17-.1l-.09-.44.11,0,.09.43c.18,0,.22,0,.25-.19l-.2-.27.09-.07.18.24c.08-.08.08-.15,0-.24l-.18-.2L16.78,21h-.06l-.1.05a.12.12,0,0,0-.05-.07Z"/><polygon class="cls-4" points="22.77 19.94 21.87 19.94 20.21 21.61 18.54 19.94 17.64 19.94 17.64 20.83 19.06 22.25 17.64 23.66 17.64 24.56 18.53 24.56 20.21 22.89 21.88 24.56 22.77 24.56 22.77 23.67 21.34 22.25 22.77 20.83 22.77 19.94"/><path class="cls-2" d="M20.36,29.78h1.88a.65.65,0,0,0,.53-.68V24.73H20.36Z"/><path class="cls-1" d="M21,27.08a.2.2,0,0,1-.1-.08,0,0,0,0,1,0,0c-.15,0-.19-.2-.1-.37-.24-.17-.26-.33,0-.53a.34.34,0,0,1,.17-.56c0-.29.17-.38.42-.34a.39.39,0,0,1,.62,0c.17-.08.33,0,.36.12l0,0a.2.2,0,0,1,.09.17.27.27,0,0,1,.12.14.28.28,0,0,1,.11.15.39.39,0,0,1-.09.33.4.4,0,0,1,.15.34.3.3,0,0,1-.2.28c.11.19.06.4-.18.43h-.08c0,.27-.13.34-.37.24a4.72,4.72,0,0,0,0,.84.65.65,0,0,0,.11.32l.21.19.32.23,0,0,.13.1,0,.08s-.23-.07-.37-.13a1,1,0,0,1-.23-.12l0,0s0,0,0,0l.09.27-.07.05-.12-.12s-.12-.11-.19-.19l-.05-.06a2.61,2.61,0,0,0-.24.3c0,.06-.28.28-.35.35l-.07,0,.1-.18-.13.12-.09-.07.11-.22.09-.15a2.8,2.8,0,0,1-.38.13l0-.08.19-.12-.27.1-.05-.11.25-.15.2-.13c.41-.3.34-.44.39-.88,0-.1,0-.22,0-.33s-.24,0-.28-.1S20.94,27.23,21,27.08Z"/><path class="cls-6" d="M21.15,29.1c.08-.09.29-.43.38-.44s.18.16.25.24v0a.12.12,0,0,1,0-.05c0-.12.08-.15.17-.09a.75.75,0,0,0,.2.1L22,28.71c-.35-.33-.31-.49-.35-.92a6.18,6.18,0,0,1,0-.68c.29.15.4.18.35-.2.07,0,.26,0,.3-.05s-.09-.32-.19-.42l.21,0c.17,0,.23-.3,0-.46l-.05,0c.07-.08.17-.2.13-.32s-.17-.15-.27-.16.07-.2,0-.25-.21,0-.28.09,0-.09,0-.1c-.08-.17-.37-.14-.46,0l0,0c-.07,0-.25-.06-.3,0s-.06.22,0,.32-.24,0-.28.13,0,.23.18.29c-.3.21-.38.3,0,.51-.22.28-.07.34.21.31,0,.08-.09.27,0,.34s.33-.06.41-.1,0,.45,0,.67c0,.45,0,.62-.39.93.06,0,.21-.11.27-.05s-.13.29-.18.39Z"/><path class="cls-5" d="M20.28,23.13l-1.45,1.43h2.88Zm-2.64.37,1.25-1.25L17.64,21Zm5.13-2.36-1.19,1.18,1.19,1.19Zm-1.07-1.2h-3l1.51,1.5Z"/><path class="cls-1" d="M26.75,35H25.33v.72a.21.21,0,0,1,0,.06.28.28,0,0,1-.25.22H15.89v.7a.28.28,0,0,1-.27.27H14.45v-.16h-.28V34.55h1.05V33.9a.34.34,0,0,1,.09-.23.35.35,0,0,1,.2-.1h9.16V32.9a.33.33,0,0,1,.25-.31h2a.31.31,0,0,1,.29.27.27.27,0,0,1,.2.26v.46h9a.42.42,0,0,1,.2.1.39.39,0,0,1,.09.17l.11.06a.29.29,0,0,1,.08.19v.47h.86v.25h.19v2.12H36.68a.27.27,0,0,1-.19-.15h-.06a.33.33,0,0,1-.24-.31V36H27.3a.28.28,0,0,1-.24-.17.33.33,0,0,1-.31-.32Z"/><path class="cls-5" d="M25,35.48l-.29-.68v-1H15.53a.13.13,0,0,0-.09,0,.19.19,0,0,0,0,.1v1.73h9.42A.16.16,0,0,0,25,35.48Zm11.71-.75v1.06l-.3.67c0,.09.07.13.14.13h1V34.73Zm-.22,1.06h-.08V36Zm-21,0,.08.21v-.21Zm.08.67-.27-.67h0V34.73h-.87v1.86h1.06A.16.16,0,0,0,15.52,36.46ZM25,32.76a.15.15,0,0,0-.11.14v1.72H27V32.87a.14.14,0,0,0-.14-.11H25Zm2,2.7a.13.13,0,0,0,0,0,.15.15,0,0,0,.12.11h9.44V33.89a.19.19,0,0,0,0-.1.13.13,0,0,0-.09,0H27.22v1ZM27,34.8h-.08V35Zm-2.11,0H25V35Z"/><path class="cls-1" d="M17.12,35.2a.12.12,0,0,0,.09,0l.12-.15.24-.3-.17-.26a.87.87,0,0,0-.15-.2.22.22,0,0,0-.12,0v0h.46v0H17.5a0,0,0,0,0,0,.05l0,0,0,0,.16.24.17-.22.05-.07v0s0,0,0-.05h-.07v0h.36v0l-.1,0a.81.81,0,0,0-.12.13l-.23.29.29.44.08.09.09,0v0h-.45v0h.09s0,0,0,0a.2.2,0,0,0,0-.08l-.19-.3-.18.24-.05.08a.09.09,0,0,0,0,0s0,0,0,0h.08v0h-.35Zm1.92-1v0l-.11,0a.17.17,0,0,0,0,.12v.5a.5.5,0,0,0,0,.2.23.23,0,0,0,.23.12.23.23,0,0,0,.24-.13.41.41,0,0,0,0-.22v-.41c0-.09,0-.14,0-.16a.16.16,0,0,0-.11,0v0h.35v0c-.06,0-.1,0-.12,0s0,.07,0,.16v.41a.65.65,0,0,1,0,.26.35.35,0,0,1-.34.17.35.35,0,0,1-.33-.17.54.54,0,0,1-.05-.24v-.49a.29.29,0,0,0,0-.12l-.11,0v0Zm.66,1a.17.17,0,0,0,.12,0,.28.28,0,0,0,0-.16v-.64a.17.17,0,0,0,0-.12l-.12,0v0H20l.35.8.33-.8H21v0a.23.23,0,0,0-.11,0,.2.2,0,0,0,0,.11v.7a.2.2,0,0,0,0,.11.16.16,0,0,0,.11,0v0h-.42v0c.06,0,.1,0,.11,0a.19.19,0,0,0,0-.13v-.71l-.39.9h0l-.38-.86V35c0,.09,0,.14,0,.17s.05,0,.1,0v0H19.7Zm2-.07a.19.19,0,0,0,.08-.18.18.18,0,0,0-.09-.18.41.41,0,0,0-.23-.05h-.08v.39s0,0,0,0h.1A.36.36,0,0,0,21.66,35.13Zm-.61.07c.06,0,.1,0,.11,0s0-.05,0-.11v-.7a.17.17,0,0,0,0-.12l-.11,0v0h.42a.6.6,0,0,1,.29.06.24.24,0,0,1,.1.21.21.21,0,0,1-.07.18.32.32,0,0,1-.13,0,.51.51,0,0,1,.18.09.21.21,0,0,1,.07.17.26.26,0,0,1-.16.26.66.66,0,0,1-.21,0h-.49Zm.56-.57a.17.17,0,0,0,.1-.17.19.19,0,0,0-.11-.19.44.44,0,0,0-.19,0h-.05a.06.06,0,0,0,0,0v.36h.15Zm.95,0a.19.19,0,0,0,.12-.19.19.19,0,0,0-.11-.19.33.33,0,0,0-.15,0h-.08a.07.07,0,0,0,0,0v.39A.63.63,0,0,0,22.56,34.65ZM22,35.2c.06,0,.1,0,.11,0a.31.31,0,0,0,0-.13v-.68a.2.2,0,0,0,0-.11.19.19,0,0,0-.11,0v0h.42a.67.67,0,0,1,.22,0,.23.23,0,0,1,.16.24.21.21,0,0,1-.07.18.53.53,0,0,1-.2.09l.31.4.06,0,.07,0v0h-.24l-.36-.48h-.08v.31c0,.06,0,.1,0,.11a.14.14,0,0,0,.11,0v0H22Zm1.62-.37-.18-.44-.17.44Zm-.65.4v0a.1.1,0,0,0,.08,0,1,1,0,0,0,.1-.22l.32-.77h0l.37.89.06.11a.1.1,0,0,0,.08,0v0h-.39v0h.09a.05.05,0,0,0,0,0,.11.11,0,0,0,0,0,.14.14,0,0,0,0-.06l-.06-.15h-.4l-.07.19a.43.43,0,0,1,0,.05.06.06,0,0,0,0,.06h.08v0Zm2.11-1.06a.19.19,0,0,0,.13,0s0,0,0-.11v-.71a.14.14,0,0,0,0-.11.19.19,0,0,0-.13,0v0h.47v0a.17.17,0,0,0-.12,0,.14.14,0,0,0,0,.11V34c0,.06,0,.1,0,.11a.17.17,0,0,0,.12,0v0h-.47Zm.52,0a.24.24,0,0,0,.13,0,.3.3,0,0,0,0-.16v-.7l0,0-.06-.05h-.08v0h.28l.61.76v-.53a.32.32,0,0,0,0-.17.24.24,0,0,0-.11,0v0h.37v0a.24.24,0,0,0-.12,0,.3.3,0,0,0,0,.16v.84h0l-.7-.87V34a.25.25,0,0,0,0,.17l.11,0v0h-.38Zm3.41.72a.54.54,0,0,0,.09.17.28.28,0,0,0,.24.11.17.17,0,0,0,.13-.05.17.17,0,0,0,0-.13.19.19,0,0,0,0-.13l-.16-.11-.13-.09a.39.39,0,0,1-.1-.08.26.26,0,0,1-.07-.16.28.28,0,0,1,.08-.2.32.32,0,0,1,.21-.08l.13,0,.09,0h0a.05.05,0,0,0,0,0h0l0,.34h0a.36.36,0,0,0-.13-.22.27.27,0,0,0-.16-.06.21.21,0,0,0-.12,0,.14.14,0,0,0,0,.11.18.18,0,0,0,0,.1.41.41,0,0,0,.12.09l.14.09a.71.71,0,0,1,.18.15.28.28,0,0,1,0,.16.29.29,0,0,1-.09.21.36.36,0,0,1-.24.08l-.16,0-.09,0h0s0,0,0,0h0l0-.34Zm1.2.17a.29.29,0,0,0,.24.12.31.31,0,0,0,.24-.12.61.61,0,0,0,.1-.37.62.62,0,0,0-.1-.38.3.3,0,0,0-.24-.11.29.29,0,0,0-.24.12.55.55,0,0,0-.1.37A.56.56,0,0,0,30.25,35.06Zm-.12-.78a.53.53,0,0,1,.72,0,.57.57,0,0,1,.16.41.53.53,0,0,1-.17.41.48.48,0,0,1-.35.13.5.5,0,0,1-.37-.15.59.59,0,0,1,0-.8Zm1.05.9c.06,0,.1,0,.11,0s0,0,0-.11v-.71a.16.16,0,0,0,0-.11l-.11,0v0h.45v0a.17.17,0,0,0-.12,0,.13.13,0,0,0,0,.1v.76a.07.07,0,0,0,0,.05h.15a.66.66,0,0,0,.29,0c.05,0,.09-.08.14-.17h0l-.08.27h-.85Zm1.06,0a.17.17,0,0,0,.12,0,.2.2,0,0,0,0-.11v-.71a.27.27,0,0,0,0-.11l-.12,0v0h.85v.23h0a.2.2,0,0,0-.06-.14.36.36,0,0,0-.18,0h-.26a.43.43,0,0,0,0,.05v.35h.25a.19.19,0,0,0,.13,0,.24.24,0,0,0,0-.12h0v.36h0a.4.4,0,0,0,0-.12.21.21,0,0,0-.13,0h-.25v.39s0,.05,0,.06h.18a.49.49,0,0,0,.24,0,.31.31,0,0,0,.14-.17h0l-.07.27h-.86Zm1.07,0a.24.24,0,0,0,.12,0,.3.3,0,0,0,0-.16v-.65a.16.16,0,0,0,0-.11.17.17,0,0,0-.12,0v0h.31L34,35l.35-.8h.32v0l-.12,0a.27.27,0,0,0,0,.11V35a.23.23,0,0,0,0,.11.17.17,0,0,0,.12,0v0h-.45v0q.1,0,.12,0a.19.19,0,0,0,0-.13v-.71l-.41.9h0l-.4-.86V35a.25.25,0,0,0,0,.17.18.18,0,0,0,.11,0v0h-.37Zm-17.11,0a.16.16,0,0,0,.11,0,.2.2,0,0,0,0-.11v-.7a.2.2,0,0,0,0-.11.23.23,0,0,0-.11,0v0H17v.23h0a.16.16,0,0,0-.22-.17h-.21l0,0a.1.1,0,0,0,0,0v.35h.24a.17.17,0,0,0,.12,0,.24.24,0,0,0,0-.12h0v.37h0a.24.24,0,0,0,0-.13.17.17,0,0,0-.12,0h-.24v.4s0,0,0,0h.17a.67.67,0,0,0,.23,0A.38.38,0,0,0,17,35h0l-.07.27H16.2Z"/></g></svg>