<svg id="Capa_1" data-name="Capa 1" xmlns="http://www.w3.org/2000/svg" viewBox="0 0 1200 1200"><defs><style>.cls-1{fill:#ef7f2d;}.cls-2{fill:#fff;}</style></defs><circle class="cls-1" cx="600.5" cy="599.5" r="569.01"/><circle class="cls-2" cx="600.5" cy="600" r="64.77"/><path class="cls-2" d="M600.5,708.26,410.58,898.18h55.8v123.35H734.31V898.18H790Zm37.84,227.56H562.58V860h75.76Z"/><path class="cls-2" d="M600.06,491.74,790,301.82h-55.8V178.47H466.25V301.82H410.58ZM562.22,264.18H638V340H562.22Z"/><path class="cls-2" d="M709.2,599.69,899.13,789.61v-55.8h123.35V465.89H899.12V410.22Zm227.57-37.83v75.76H860.93V561.86Z"/><path class="cls-2" d="M491.42,600.14,301.5,410.22V466H178.14V733.94H301.5v55.67ZM263.85,638V562.21h75.84V638Z"/></svg>