<svg width="15" height="6" viewBox="0 0 15 6" fill="none" xmlns="http://www.w3.org/2000/svg">
<g clip-path="url(#clip0_11_624)">
<path d="M12 0.170004C11.8126 -0.016247 11.5592 -0.120789 11.295 -0.120789C11.0308 -0.120789 10.7774 -0.016247 10.59 0.170004L7.00001 3.71L3.46001 0.170004C3.27265 -0.016247 3.0192 -0.120789 2.75501 -0.120789C2.49082 -0.120789 2.23737 -0.016247 2.05001 0.170004C1.95628 0.262967 1.88189 0.373568 1.83112 0.495427C1.78035 0.617286 1.75421 0.747992 1.75421 0.880004C1.75421 1.01202 1.78035 1.14272 1.83112 1.26458C1.88189 1.38644 1.95628 1.49704 2.05001 1.59L6.29001 5.83C6.38297 5.92373 6.49357 5.99813 6.61543 6.04889C6.73729 6.09966 6.868 6.1258 7.00001 6.1258C7.13202 6.1258 7.26273 6.09966 7.38459 6.04889C7.50645 5.99813 7.61705 5.92373 7.71001 5.83L12 1.59C12.0937 1.49704 12.1681 1.38644 12.2189 1.26458C12.2697 1.14272 12.2958 1.01202 12.2958 0.880004C12.2958 0.747992 12.2697 0.617286 12.2189 0.495427C12.1681 0.373568 12.0937 0.262967 12 0.170004Z" fill="white"/>
</g>
<defs>
<clipPath id="clip0_11_624">
<rect width="15" height="6" fill="white"/>
</clipPath>
</defs>
</svg>
