<?xml version="1.0" encoding="utf-8"?>
<!-- Generator: Adobe Illustrator 26.0.0, SVG Export Plug-In . SVG Version: 6.00 Build 0)  -->
<svg version="1.1" id="Capa_1" xmlns="http://www.w3.org/2000/svg" xmlns:xlink="http://www.w3.org/1999/xlink" x="0px" y="0px"
	 viewBox="0 0 15 6" style="enable-background:new 0 0 15 6;" xml:space="preserve">
<style type="text/css">
	.st0{clip-path:url(#SVGID_00000073699260740643367980000006681043929819956138_);}
	.st1{fill:#0C0C0C;}
</style>
<g>
	<defs>
		<rect id="SVGID_1_" width="15" height="6"/>
	</defs>
	<clipPath id="SVGID_00000027564647576389969060000002977765796946364331_">
		<use xlink:href="#SVGID_1_"  style="overflow:visible;"/>
	</clipPath>
	<g style="clip-path:url(#SVGID_00000027564647576389969060000002977765796946364331_);">
		<path class="st1" d="M11.7,0.3c-0.2-0.2-0.4-0.3-0.7-0.3c-0.2,0-0.5,0.1-0.7,0.3L7,3.7L3.7,0.3C3.5,0.2,3.3,0.1,3,0.1
			S2.5,0.2,2.3,0.3C2.3,0.4,2.2,0.5,2.1,0.6c0,0.1-0.1,0.2-0.1,0.4c0,0.1,0,0.2,0.1,0.4c0,0.1,0.1,0.2,0.2,0.3l4,4
			c0.1,0.1,0.2,0.2,0.3,0.2c0.1,0,0.2,0.1,0.4,0.1c0.1,0,0.2,0,0.4-0.1c0.1,0,0.2-0.1,0.3-0.2l4-4c0.1-0.1,0.2-0.2,0.2-0.3
			C12,1.3,12,1.1,12,1c0-0.1,0-0.2-0.1-0.4C11.9,0.5,11.8,0.4,11.7,0.3z"/>
	</g>
</g>
</svg>
