<svg id="Capa_1" data-name="Capa 1" xmlns="http://www.w3.org/2000/svg" viewBox="0 0 24 24"><defs><style>.cls-1{fill:#fff;}</style></defs><path class="cls-1" d="M13.4,12l6.3-6.3A.91.91,0,0,0,20,5a.91.91,0,0,0-.3-.7,1,1,0,0,0-1.4,0L12,10.6,5.7,4.3A.91.91,0,0,0,5,4a.91.91,0,0,0-.7.3A.91.91,0,0,0,4,5a.91.91,0,0,0,.3.7L10.6,12,4.3,18.3c-.1.1-.2.2-.2.3a.85.85,0,0,0,0,.8c.1.1.1.2.2.3s.2.2.3.2.3.1.4.1a.6.6,0,0,0,.4-.1c.1-.1.2-.1.3-.2L12,13.4l6.3,6.3c.1.1.2.2.3.2a.85.85,0,0,0,.8,0c.1-.1.2-.1.3-.2s.2-.2.2-.3a.85.85,0,0,0,0-.8c-.1-.1-.1-.2-.2-.3Z"/></svg>