<?xml version="1.0" encoding="utf-8"?>
<!-- Generator: Adobe Illustrator 26.0.0, SVG Export Plug-In . SVG Version: 6.00 Build 0)  -->
<svg version="1.1" id="Capa_1" xmlns="http://www.w3.org/2000/svg" xmlns:xlink="http://www.w3.org/1999/xlink" x="0px" y="0px"
	 viewBox="0 0 24 24" style="enable-background:new 0 0 24 24;" xml:space="preserve">
<style type="text/css">
	.st0{fill:#0C0C0C;}
</style>
<path class="st0" d="M13.4,12l6.3-6.3C19.9,5.5,20,5.3,20,5s-0.1-0.5-0.3-0.7C19.5,4.1,19.3,4,19,4s-0.5,0.1-0.7,0.3L12,10.6
	L5.7,4.3C5.5,4.1,5.3,4,5,4S4.5,4.1,4.3,4.3C4.1,4.5,4,4.7,4,5s0.1,0.5,0.3,0.7l6.3,6.3l-6.3,6.3c-0.1,0.1-0.2,0.2-0.2,0.3
	C4,18.7,4,18.9,4,19s0,0.3,0.1,0.4c0.1,0.1,0.1,0.2,0.2,0.3c0.1,0.1,0.2,0.2,0.3,0.2S4.9,20,5,20s0.3,0,0.4-0.1s0.2-0.1,0.3-0.2
	l6.3-6.3l6.3,6.3c0.1,0.1,0.2,0.2,0.3,0.2C18.7,20,18.9,20,19,20s0.3,0,0.4-0.1c0.1-0.1,0.2-0.1,0.3-0.2c0.1-0.1,0.2-0.2,0.2-0.3
	C20,19.3,20,19.1,20,19s0-0.3-0.1-0.4c-0.1-0.1-0.1-0.2-0.2-0.3L13.4,12z"/>
</svg>
