<svg id="Capa_1" data-name="Capa 1" xmlns="http://www.w3.org/2000/svg" viewBox="0 0 24 24"><defs><style>.cls-1{fill:#eb6f00;}</style></defs><path class="cls-1" d="M10.57,4.18a.85.85,0,0,0,0,1.69h2l.58,1.07L9.73,9.82,8.13,8.23a2.19,2.19,0,0,0-1.6-.66H3A1.13,1.13,0,0,0,1.82,8.69V9.82H5.21a5.67,5.67,0,0,1,5.65,5.66,5.26,5.26,0,0,1-.12,1.12h2.49A5.67,5.67,0,0,1,15.36,11l.55,1a4.5,4.5,0,1,0,1.49-.81L15.45,7.57h2.18a1.13,1.13,0,0,0,1.13-1.13V5.31a1.12,1.12,0,0,0-1.13-1.13h-.72a1.12,1.12,0,0,0-.72.26L14.52,5.83,14,4.92a1.4,1.4,0,0,0-1.24-.75ZM17,14l1,1.84a.85.85,0,0,0,1.13.39.86.86,0,0,0,.39-1.14l0,0-1-1.84.25,0A2.26,2.26,0,1,1,17,14ZM7.3,16.32a2.26,2.26,0,1,1-1.24-2.94A2.28,2.28,0,0,1,7.3,14.62H9.65a4.51,4.51,0,1,0,0,1.7Zm-2.09.28a1.13,1.13,0,1,0-1.13-1.13A1.14,1.14,0,0,0,5.21,16.6Z"/></svg>