<?xml version="1.0" encoding="utf-8"?>
<!-- Generator: Adobe Illustrator 26.0.0, SVG Export Plug-In . SVG Version: 6.00 Build 0)  -->
<svg version="1.1" id="Capa_1" xmlns="http://www.w3.org/2000/svg" xmlns:xlink="http://www.w3.org/1999/xlink" x="0px" y="0px"
	 viewBox="0 0 640 512" style="enable-background:new 0 0 640 512;" xml:space="preserve">
<style type="text/css">
	.st0{fill:#FFFFFF;}
</style>
<path class="st0" d="M280,32c-13.3,0-24,10.7-24,24s10.7,24,24,24h57.7l16.4,30.3L256,192l-45.3-45.3c-12-12-28.3-18.7-45.3-18.7H64
	c-17.7,0-32,14.3-32,32v32h96c88.4,0,160,71.6,160,160c0,11-1.1,21.7-3.2,32h70.4c-2.1-10.3-3.2-21-3.2-32
	c0-52.2,25-98.6,63.7-127.8l15.4,28.6C402.4,276.3,384,312,384,352c0,70.7,57.3,128,128,128s128-57.3,128-128s-57.3-128-128-128
	c-13.5,0-26.5,2.1-38.7,6l-55.1-102H480c17.7,0,32-14.3,32-32V64c0-17.7-14.3-32-32-32h-20.4c-7.5,0-14.7,2.6-20.5,7.4l-47.4,39.5
	l-14-26c-7-12.9-20.5-21-35.2-21L280,32L280,32z M462.7,311.2l28.2,52.2c6.3,11.7,20.9,16,32.5,9.7c11.6-6.3,16-20.9,9.7-32.5
	l-28.2-52.2c2.3-0.3,4.7-0.4,7.1-0.4c35.3,0,64,28.7,64,64s-28.7,64-64,64s-64-28.7-64-64C448,336.5,453.5,322.3,462.7,311.2
	L462.7,311.2z M187.3,376c-9.5,23.5-32.5,40-59.3,40c-35.3,0-64-28.7-64-64s28.7-64,64-64c26.9,0,49.9,16.5,59.3,40h66.4
	c-11.2-59.2-63.2-104-125.7-104C57.3,224,0,281.3,0,352s57.3,128,128,128c62.5,0,114.5-44.8,125.8-104H187.3z M128,384
	c17.7,0,32-14.3,32-32s-14.3-32-32-32s-32,14.3-32,32S110.3,384,128,384z"/>
</svg>
