<svg id="Capa_1" data-name="Capa 1" xmlns="http://www.w3.org/2000/svg" viewBox="0 0 24 24"><defs><style>.cls-1{fill:#191919;}</style></defs><path class="cls-1" d="M22,9.67A1,1,0,0,0,21.14,9l-4.76-.69a1.83,1.83,0,0,1-1.35-1L12.9,3a1,1,0,0,0-1.34-.46A1,1,0,0,0,11.1,3L9,7.32a1.81,1.81,0,0,1-1.35,1L2.86,9a1,1,0,0,0-.56,1.68L5.75,14a1.82,1.82,0,0,1,.52,1.6l-.84,4.74a1,1,0,0,0,1.45,1.07l4.29-2.24a1.77,1.77,0,0,1,1.66,0l4.27,2.24a.93.93,0,0,0,.46.12,1,1,0,0,0,.59-.19,1,1,0,0,0,.4-1l-.84-4.74a1.82,1.82,0,0,1,.52-1.6l3.45-3.34A1,1,0,0,0,22,9.67Z"/></svg>