<svg width="21" height="21" viewBox="0 0 21 21" fill="none" xmlns="http://www.w3.org/2000/svg">
<path d="M15.73 3.91335C15.4927 3.91335 15.2607 3.98351 15.0633 4.11494C14.866 4.24638 14.7122 4.4332 14.6214 4.65177C14.5305 4.87035 14.5068 5.11086 14.5531 5.3429C14.5994 5.57493 14.7137 5.78807 14.8815 5.95536C15.0493 6.12265 15.2631 6.23658 15.4959 6.28273C15.7287 6.32889 15.97 6.3052 16.1892 6.21466C16.4085 6.12413 16.5959 5.97081 16.7278 5.7741C16.8596 5.57739 16.93 5.34612 16.93 5.10953C16.93 4.79229 16.8036 4.48803 16.5785 4.2637C16.3535 4.03938 16.0483 3.91335 15.73 3.91335ZM20.33 6.32565C20.3106 5.49859 20.1552 4.68031 19.87 3.90338C19.6157 3.23864 19.22 2.6367 18.71 2.13901C18.2148 1.62807 17.6096 1.23607 16.94 0.99267C16.1627 0.699765 15.3409 0.54132 14.51 0.524165C13.45 0.464355 13.11 0.464355 10.39 0.464355C7.67001 0.464355 7.33001 0.464355 6.27001 0.524165C5.43917 0.54132 4.61736 0.699765 3.84001 0.99267C3.17169 1.23853 2.56695 1.6302 2.07001 2.13901C1.55744 2.63261 1.16419 3.23595 0.920015 3.90338C0.626175 4.67825 0.467225 5.49745 0.450015 6.32565C0.390015 7.38228 0.390015 7.7212 0.390015 10.4325C0.390015 13.1439 0.390015 13.4828 0.450015 14.5394C0.467225 15.3677 0.626175 16.1868 0.920015 16.9617C1.16419 17.6291 1.55744 18.2325 2.07001 18.7261C2.56695 19.2349 3.17169 19.6266 3.84001 19.8724C4.61736 20.1653 5.43917 20.3238 6.27001 20.3409C7.33001 20.4007 7.67001 20.4007 10.39 20.4007C13.11 20.4007 13.45 20.4007 14.51 20.3409C15.3409 20.3238 16.1627 20.1653 16.94 19.8724C17.6096 19.629 18.2148 19.237 18.71 18.7261C19.2223 18.2302 19.6184 17.6278 19.87 16.9617C20.1552 16.1848 20.3106 15.3665 20.33 14.5394C20.33 13.4828 20.39 13.1439 20.39 10.4325C20.39 7.7212 20.39 7.38228 20.33 6.32565ZM18.53 14.4198C18.5227 15.0526 18.4078 15.6795 18.19 16.2739C18.0303 16.7077 17.7739 17.0997 17.44 17.4203C17.1157 17.7497 16.7232 18.0048 16.29 18.1679C15.6937 18.3849 15.0648 18.4995 14.43 18.5068C13.43 18.5566 13.06 18.5666 10.43 18.5666C7.80001 18.5666 7.43001 18.5666 6.43001 18.5068C5.77091 18.5191 5.11461 18.4179 4.49001 18.2077C4.0758 18.0364 3.70137 17.7819 3.39001 17.4601C3.0581 17.1399 2.80486 16.7476 2.65001 16.3138C2.40587 15.7109 2.27046 15.0697 2.25001 14.4198C2.25001 13.423 2.19001 13.0542 2.19001 10.4325C2.19001 7.81091 2.19001 7.44209 2.25001 6.44527C2.2545 5.79839 2.37296 5.15733 2.60001 4.55131C2.77606 4.13057 3.04628 3.75551 3.39001 3.45481C3.69383 3.11208 4.0693 2.83987 4.49001 2.65736C5.09957 2.4381 5.74201 2.3235 6.39001 2.31844C7.39001 2.31844 7.76001 2.25863 10.39 2.25863C13.02 2.25863 13.39 2.25863 14.39 2.31844C15.0248 2.3257 15.6537 2.4403 16.25 2.65736C16.7044 2.82547 17.1123 3.0988 17.44 3.45481C17.7677 3.76101 18.0238 4.13537 18.19 4.55131C18.4123 5.15831 18.5273 5.79911 18.53 6.44527C18.58 7.44209 18.59 7.81091 18.59 10.4325C18.59 13.0542 18.58 13.423 18.53 14.4198ZM10.39 5.31887C9.37582 5.32084 8.38498 5.62242 7.54267 6.18552C6.70036 6.74861 6.04439 7.54795 5.65765 8.48252C5.2709 9.4171 5.17074 10.445 5.36981 11.4363C5.56888 12.4276 6.05825 13.3378 6.77609 14.052C7.49393 14.7661 8.40803 15.2522 9.40287 15.4487C10.3977 15.6452 11.4287 15.5433 12.3655 15.156C13.3023 14.7687 14.1029 14.1132 14.6661 13.2725C15.2294 12.4318 15.53 11.4435 15.53 10.4325C15.5313 9.7598 15.3992 9.09343 15.1413 8.47176C14.8833 7.85009 14.5046 7.2854 14.0269 6.81016C13.5492 6.33492 12.982 5.9585 12.3578 5.70257C11.7337 5.44664 11.0649 5.31624 10.39 5.31887ZM10.39 13.752C9.7314 13.752 9.08758 13.5573 8.53997 13.1925C7.99235 12.8278 7.56554 12.3094 7.3135 11.7028C7.06146 11.0963 6.99551 10.4289 7.124 9.78496C7.25249 9.14106 7.56964 8.5496 8.03535 8.08537C8.50106 7.62114 9.09441 7.305 9.74036 7.17692C10.3863 7.04884 11.0559 7.11458 11.6644 7.36582C12.2728 7.61705 12.7929 8.04251 13.1588 8.58838C13.5247 9.13426 13.72 9.77603 13.72 10.4325C13.72 10.8685 13.6339 11.3001 13.4665 11.7028C13.2992 12.1056 13.0539 12.4715 12.7447 12.7797C12.4355 13.088 12.0684 13.3325 11.6644 13.4993C11.2603 13.6661 10.8273 13.752 10.39 13.752Z" fill="white"/>
</svg>
