<svg width="19" height="19" viewBox="0 0 19 19" fill="none" xmlns="http://www.w3.org/2000/svg">
<path d="M2.57801 4.82326C3.78641 4.82326 4.76601 3.84678 4.76601 2.64222C4.76601 1.43767 3.78641 0.461182 2.57801 0.461182C1.36962 0.461182 0.390015 1.43767 0.390015 2.64222C0.390015 3.84678 1.36962 4.82326 2.57801 4.82326Z" fill="white"/>
<path d="M6.83194 6.4758V18.5762H10.6009V12.5923C10.6009 11.0133 10.8989 9.4842 12.8629 9.4842C14.7999 9.4842 14.8239 11.2894 14.8239 12.692V18.5772H18.5949V11.9414C18.5949 8.68176 17.8909 6.17676 14.0689 6.17676C12.2339 6.17676 11.0039 7.18055 10.5009 8.13052H10.4499V6.4758H6.83194ZM0.689941 6.4758H4.46494V18.5762H0.689941V6.4758Z" fill="white"/>
</svg>
