<svg width="98" height="28" viewBox="0 0 98 28" fill="none" xmlns="http://www.w3.org/2000/svg">
<path d="M14 0C6.26777 0 0 6.26801 0 14C0 21.732 6.26801 28 14 28C21.732 28 28 21.732 28 14C28 6.26801 21.7322 0 14 0ZM10.6968 6.67596V3.64098H17.2891V6.67596H18.6626L13.9892 11.3489L9.3271 6.67596H10.6968ZM15.5936 14.0125C15.5936 14.3277 15.5002 14.6359 15.3251 14.8979C15.15 15.16 14.9011 15.3643 14.6099 15.4849C14.3187 15.6055 13.9982 15.6371 13.6891 15.5756C13.38 15.5141 13.096 15.3623 12.8731 15.1394C12.6503 14.9165 12.4985 14.6326 12.437 14.3235C12.3755 14.0143 12.4071 13.6939 12.5277 13.4027C12.6483 13.1115 12.8525 12.8626 13.1146 12.6875C13.3767 12.5124 13.6848 12.4189 14 12.4189C14.4227 12.4189 14.828 12.5868 15.1269 12.8857C15.4257 13.1845 15.5936 13.5899 15.5936 14.0125ZM3.60801 17.298V10.7057H6.64323V9.33276L11.3161 14.0057L6.64323 18.6677V17.298H3.60801ZM17.2923 21.3491V24.3841H10.7V21.3491H9.3271L14 16.6762L18.6626 21.3491H17.2923ZM21.3477 17.3049V18.6778L16.6745 14.0049L21.3474 9.34309V10.7128H24.3826V17.3049H21.3477Z" fill="#EB6F00"/>
<path d="M34.8013 20C34.6253 20 34.4773 19.94 34.3573 19.82C34.2453 19.7 34.1893 19.552 34.1893 19.376V11.252C34.1893 11.076 34.2493 10.928 34.3693 10.808C34.4893 10.688 34.6333 10.628 34.8013 10.628C34.9773 10.628 35.1253 10.688 35.2453 10.808C35.3653 10.928 35.4253 11.076 35.4253 11.252V18.752H39.7693C39.9453 18.752 40.0933 18.812 40.2133 18.932C40.3333 19.052 40.3933 19.2 40.3933 19.376C40.3933 19.552 40.3333 19.7 40.2133 19.82C40.0933 19.94 39.9453 20 39.7693 20H34.8013ZM44.5045 20.048C43.8645 20.048 43.2925 19.908 42.7885 19.628C42.2845 19.34 41.8925 18.944 41.6125 18.44C41.3325 17.936 41.1925 17.364 41.1925 16.724C41.1925 16.076 41.3325 15.5 41.6125 14.996C41.8925 14.492 42.2845 14.1 42.7885 13.82C43.2925 13.532 43.8645 13.388 44.5045 13.388C45.1365 13.388 45.7005 13.532 46.1965 13.82C46.7005 14.1 47.0925 14.492 47.3725 14.996C47.6605 15.5 47.8045 16.076 47.8045 16.724C47.8045 17.364 47.6645 17.936 47.3845 18.44C47.1045 18.944 46.7125 19.34 46.2085 19.628C45.7125 19.908 45.1445 20.048 44.5045 20.048ZM44.5045 18.968C44.9125 18.968 45.2765 18.872 45.5965 18.68C45.9245 18.488 46.1765 18.224 46.3525 17.888C46.5365 17.544 46.6285 17.156 46.6285 16.724C46.6285 16.292 46.5365 15.904 46.3525 15.56C46.1765 15.216 45.9245 14.948 45.5965 14.756C45.2765 14.564 44.9125 14.468 44.5045 14.468C44.0965 14.468 43.7285 14.564 43.4005 14.756C43.0805 14.948 42.8285 15.216 42.6445 15.56C42.4605 15.904 42.3685 16.292 42.3685 16.724C42.3685 17.156 42.4605 17.544 42.6445 17.888C42.8285 18.224 43.0805 18.488 43.4005 18.68C43.7285 18.872 44.0965 18.968 44.5045 18.968ZM52.3622 20.048C51.7302 20.048 51.1622 19.904 50.6582 19.616C50.1542 19.328 49.7582 18.932 49.4702 18.428C49.1902 17.916 49.0502 17.348 49.0502 16.724C49.0502 16.084 49.1862 15.512 49.4582 15.008C49.7382 14.496 50.1262 14.1 50.6222 13.82C51.1182 13.532 51.6782 13.388 52.3022 13.388C53.2462 13.388 54.0302 13.748 54.6542 14.468C54.7342 14.556 54.7742 14.66 54.7742 14.78C54.7742 14.956 54.6862 15.104 54.5102 15.224C54.4302 15.28 54.3382 15.308 54.2342 15.308C54.0502 15.308 53.8942 15.236 53.7662 15.092C53.5662 14.876 53.3462 14.72 53.1062 14.624C52.8742 14.52 52.6062 14.468 52.3022 14.468C51.6862 14.468 51.1862 14.676 50.8022 15.092C50.4182 15.5 50.2262 16.044 50.2262 16.724C50.2262 17.156 50.3142 17.544 50.4902 17.888C50.6742 18.224 50.9262 18.488 51.2462 18.68C51.5742 18.872 51.9462 18.968 52.3622 18.968C52.9062 18.968 53.3462 18.828 53.6822 18.548C53.8342 18.436 53.9822 18.38 54.1262 18.38C54.2382 18.38 54.3422 18.416 54.4382 18.488C54.5902 18.616 54.6662 18.76 54.6662 18.92C54.6662 19.04 54.6182 19.148 54.5222 19.244C53.9462 19.78 53.2262 20.048 52.3622 20.048ZM59.3292 13.388C59.9452 13.388 60.5012 13.536 60.9972 13.832C61.5012 14.12 61.8972 14.52 62.1852 15.032C62.4812 15.536 62.6292 16.1 62.6292 16.724V19.4C62.6292 19.576 62.5692 19.724 62.4492 19.844C62.3372 19.956 62.1932 20.012 62.0172 20.012C61.8412 20.012 61.6932 19.956 61.5732 19.844C61.4612 19.724 61.4052 19.576 61.4052 19.4V18.956C61.1252 19.3 60.7852 19.568 60.3852 19.76C59.9852 19.952 59.5532 20.048 59.0892 20.048C58.5132 20.048 57.9892 19.904 57.5172 19.616C57.0532 19.328 56.6852 18.932 56.4132 18.428C56.1492 17.916 56.0172 17.348 56.0172 16.724C56.0172 16.1 56.1612 15.536 56.4492 15.032C56.7372 14.52 57.1332 14.12 57.6372 13.832C58.1492 13.536 58.7132 13.388 59.3292 13.388ZM59.3292 18.968C59.7292 18.968 60.0892 18.872 60.4092 18.68C60.7372 18.48 60.9932 18.212 61.1772 17.876C61.3612 17.532 61.4532 17.148 61.4532 16.724C61.4532 16.3 61.3612 15.916 61.1772 15.572C60.9932 15.228 60.7372 14.96 60.4092 14.768C60.0892 14.568 59.7292 14.468 59.3292 14.468C58.9292 14.468 58.5652 14.568 58.2372 14.768C57.9172 14.96 57.6612 15.228 57.4692 15.572C57.2852 15.916 57.1932 16.3 57.1932 16.724C57.1932 17.148 57.2852 17.532 57.4692 17.876C57.6612 18.212 57.9172 18.48 58.2372 18.68C58.5652 18.872 58.9292 18.968 59.3292 18.968ZM65.7709 20C65.4269 20 65.1149 19.908 64.8349 19.724C64.5629 19.532 64.3509 19.268 64.1989 18.932C64.0469 18.588 63.9709 18.204 63.9709 17.78V11.228C63.9709 11.052 64.0269 10.908 64.1389 10.796C64.2509 10.684 64.3949 10.628 64.5709 10.628C64.7469 10.628 64.8909 10.684 65.0029 10.796C65.1149 10.908 65.1709 11.052 65.1709 11.228V17.78C65.1709 18.076 65.2269 18.32 65.3389 18.512C65.4509 18.704 65.5949 18.8 65.7709 18.8H66.0709C66.2309 18.8 66.3589 18.856 66.4549 18.968C66.5589 19.08 66.6109 19.224 66.6109 19.4C66.6109 19.576 66.5349 19.72 66.3829 19.832C66.2309 19.944 66.0349 20 65.7949 20H65.7709ZM69.9565 20.048C69.4125 20.048 68.9005 19.964 68.4205 19.796C67.9405 19.628 67.5645 19.408 67.2925 19.136C67.1885 19.032 67.1365 18.908 67.1365 18.764C67.1365 18.572 67.2165 18.416 67.3765 18.296C67.5285 18.184 67.6685 18.128 67.7965 18.128C67.9565 18.128 68.1085 18.2 68.2525 18.344C68.4045 18.512 68.6325 18.66 68.9365 18.788C69.2405 18.908 69.5645 18.968 69.9085 18.968C70.3645 18.968 70.7165 18.892 70.9645 18.74C71.2205 18.588 71.3485 18.384 71.3485 18.128C71.3485 17.88 71.2245 17.676 70.9765 17.516C70.7285 17.348 70.3085 17.208 69.7165 17.096C68.1805 16.8 67.4125 16.168 67.4125 15.2C67.4125 14.808 67.5285 14.476 67.7605 14.204C67.9925 13.932 68.2965 13.728 68.6725 13.592C69.0485 13.456 69.4485 13.388 69.8725 13.388C70.3925 13.388 70.8565 13.472 71.2645 13.64C71.6805 13.808 72.0085 14.04 72.2485 14.336C72.3525 14.464 72.4045 14.592 72.4045 14.72C72.4045 14.856 72.3365 14.98 72.2005 15.092C72.1125 15.156 72.0005 15.188 71.8645 15.188C71.6565 15.188 71.4685 15.112 71.3005 14.96C71.1005 14.776 70.8885 14.648 70.6645 14.576C70.4405 14.496 70.1685 14.456 69.8485 14.456C69.4805 14.456 69.1765 14.52 68.9365 14.648C68.7045 14.768 68.5885 14.94 68.5885 15.164C68.5885 15.324 68.6285 15.46 68.7085 15.572C68.7885 15.676 68.9405 15.776 69.1645 15.872C69.3885 15.96 69.7125 16.048 70.1365 16.136C71.0085 16.312 71.6245 16.556 71.9845 16.868C72.3525 17.18 72.5365 17.584 72.5365 18.08C72.5365 18.448 72.4365 18.784 72.2365 19.088C72.0365 19.384 71.7405 19.62 71.3485 19.796C70.9645 19.964 70.5005 20.048 69.9565 20.048ZM77.1081 13.376C77.6601 13.376 78.1561 13.496 78.5961 13.736C79.0361 13.976 79.3801 14.328 79.6281 14.792C79.8761 15.248 80.0001 15.8 80.0001 16.448V19.4C80.0001 19.576 79.9401 19.724 79.8201 19.844C79.7081 19.956 79.5641 20.012 79.3881 20.012C79.2121 20.012 79.0641 19.956 78.9441 19.844C78.8321 19.724 78.7761 19.576 78.7761 19.4V16.448C78.7761 15.8 78.6001 15.312 78.2481 14.984C77.9041 14.648 77.4441 14.48 76.8681 14.48C76.5321 14.48 76.2241 14.548 75.9441 14.684C75.6721 14.82 75.4561 15.004 75.2961 15.236C75.1441 15.468 75.0681 15.728 75.0681 16.016V19.4C75.0681 19.576 75.0121 19.724 74.9001 19.844C74.7881 19.956 74.6401 20.012 74.4561 20.012C74.2801 20.012 74.1321 19.956 74.0121 19.844C73.9001 19.724 73.8441 19.576 73.8441 19.4V11.24C73.8441 11.056 73.9001 10.908 74.0121 10.796C74.1321 10.684 74.2801 10.628 74.4561 10.628C74.6401 10.628 74.7881 10.684 74.9001 10.796C75.0121 10.908 75.0681 11.056 75.0681 11.24V14.18C75.3241 13.924 75.6281 13.728 75.9801 13.592C76.3321 13.448 76.7081 13.376 77.1081 13.376ZM84.7715 20.048C84.1315 20.048 83.5595 19.908 83.0555 19.628C82.5515 19.34 82.1595 18.944 81.8795 18.44C81.5995 17.936 81.4595 17.364 81.4595 16.724C81.4595 16.076 81.5995 15.5 81.8795 14.996C82.1595 14.492 82.5515 14.1 83.0555 13.82C83.5595 13.532 84.1315 13.388 84.7715 13.388C85.4035 13.388 85.9675 13.532 86.4635 13.82C86.9675 14.1 87.3595 14.492 87.6395 14.996C87.9275 15.5 88.0715 16.076 88.0715 16.724C88.0715 17.364 87.9315 17.936 87.6515 18.44C87.3715 18.944 86.9795 19.34 86.4755 19.628C85.9795 19.908 85.4115 20.048 84.7715 20.048ZM84.7715 18.968C85.1795 18.968 85.5435 18.872 85.8635 18.68C86.1915 18.488 86.4435 18.224 86.6195 17.888C86.8035 17.544 86.8955 17.156 86.8955 16.724C86.8955 16.292 86.8035 15.904 86.6195 15.56C86.4435 15.216 86.1915 14.948 85.8635 14.756C85.5435 14.564 85.1795 14.468 84.7715 14.468C84.3635 14.468 83.9955 14.564 83.6675 14.756C83.3475 14.948 83.0955 15.216 82.9115 15.56C82.7275 15.904 82.6355 16.292 82.6355 16.724C82.6355 17.156 82.7275 17.544 82.9115 17.888C83.0955 18.224 83.3475 18.488 83.6675 18.68C83.9955 18.872 84.3635 18.968 84.7715 18.968ZM92.9532 13.388C93.5692 13.388 94.1292 13.536 94.6332 13.832C95.1452 14.12 95.5452 14.52 95.8332 15.032C96.1212 15.536 96.2652 16.1 96.2652 16.724C96.2652 17.348 96.1292 17.916 95.8572 18.428C95.5932 18.932 95.2252 19.328 94.7532 19.616C94.2892 19.904 93.7692 20.048 93.1932 20.048C92.7292 20.048 92.2972 19.952 91.8972 19.76C91.4972 19.568 91.1572 19.3 90.8772 18.956V22.196C90.8772 22.38 90.8212 22.528 90.7092 22.64C90.5972 22.752 90.4492 22.808 90.2652 22.808C90.0892 22.808 89.9412 22.752 89.8212 22.64C89.7092 22.528 89.6532 22.38 89.6532 22.196V16.724C89.6532 16.1 89.7972 15.536 90.0852 15.032C90.3812 14.52 90.7772 14.12 91.2732 13.832C91.7772 13.536 92.3372 13.388 92.9532 13.388ZM92.9532 18.968C93.3532 18.968 93.7132 18.872 94.0332 18.68C94.3612 18.48 94.6172 18.212 94.8012 17.876C94.9932 17.532 95.0892 17.148 95.0892 16.724C95.0892 16.3 94.9932 15.916 94.8012 15.572C94.6172 15.228 94.3612 14.96 94.0332 14.768C93.7132 14.568 93.3532 14.468 92.9532 14.468C92.5532 14.468 92.1892 14.568 91.8612 14.768C91.5412 14.96 91.2892 15.228 91.1052 15.572C90.9212 15.916 90.8292 16.3 90.8292 16.724C90.8292 17.148 90.9212 17.532 91.1052 17.876C91.2892 18.212 91.5412 18.48 91.8612 18.68C92.1892 18.872 92.5532 18.968 92.9532 18.968Z" fill="#EB6F00"/>
</svg>
