<svg width="222" height="50" viewBox="0 0 222 50" fill="none" xmlns="http://www.w3.org/2000/svg">
<path d="M25 0C11.1924 0 0 11.1929 0 25C0 38.8071 11.1929 50 25 50C38.8071 50 50 38.8071 50 25C50 11.1929 38.8076 0 25 0ZM19.1015 11.9214V6.50176H30.8735V11.9214H33.326L24.9807 20.2658L16.6555 11.9214H19.1015ZM27.8458 25.0224C27.8458 25.5853 27.6789 26.1355 27.3662 26.6034C27.0535 27.0714 26.609 27.4362 26.089 27.6516C25.569 27.867 24.9968 27.9233 24.4448 27.8135C23.8928 27.7037 23.3857 27.4327 22.9877 27.0347C22.5897 26.6367 22.3187 26.1296 22.2089 25.5776C22.0991 25.0256 22.1555 24.4534 22.3708 23.9334C22.5862 23.4134 22.951 22.9689 23.419 22.6562C23.887 22.3435 24.4372 22.1766 25 22.1766C25.7547 22.1766 26.4786 22.4764 27.0123 23.0101C27.546 23.5438 27.8458 24.2677 27.8458 25.0224ZM6.44288 30.8893V19.1173H11.8629V16.6656L20.2074 25.0101L11.8629 33.3352V30.8893H6.44288ZM30.8792 38.1235V43.5431H19.1072V38.1235H16.6555L25 29.779L33.326 38.1235H30.8792ZM38.1208 30.9016V33.3533L29.7759 25.0088L38.1204 16.6841V19.1301H43.5404V30.9016H38.1208Z" fill="white"/>
<path d="M63.53 36C63.09 36 62.72 35.85 62.42 35.55C62.14 35.25 62 34.88 62 34.44V14.13C62 13.69 62.15 13.32 62.45 13.02C62.75 12.72 63.11 12.57 63.53 12.57C63.97 12.57 64.34 12.72 64.64 13.02C64.94 13.32 65.09 13.69 65.09 14.13V32.88H75.95C76.39 32.88 76.76 33.03 77.06 33.33C77.36 33.63 77.51 34 77.51 34.44C77.51 34.88 77.36 35.25 77.06 35.55C76.76 35.85 76.39 36 75.95 36H63.53ZM87.788 36.12C86.188 36.12 84.758 35.77 83.498 35.07C82.238 34.35 81.258 33.36 80.558 32.1C79.858 30.84 79.508 29.41 79.508 27.81C79.508 26.19 79.858 24.75 80.558 23.49C81.258 22.23 82.238 21.25 83.498 20.55C84.758 19.83 86.188 19.47 87.788 19.47C89.368 19.47 90.778 19.83 92.018 20.55C93.278 21.25 94.258 22.23 94.958 23.49C95.678 24.75 96.038 26.19 96.038 27.81C96.038 29.41 95.688 30.84 94.988 32.1C94.288 33.36 93.308 34.35 92.048 35.07C90.808 35.77 89.388 36.12 87.788 36.12ZM87.788 33.42C88.808 33.42 89.718 33.18 90.518 32.7C91.338 32.22 91.968 31.56 92.408 30.72C92.868 29.86 93.098 28.89 93.098 27.81C93.098 26.73 92.868 25.76 92.408 24.9C91.968 24.04 91.338 23.37 90.518 22.89C89.718 22.41 88.808 22.17 87.788 22.17C86.768 22.17 85.848 22.41 85.028 22.89C84.228 23.37 83.598 24.04 83.138 24.9C82.678 25.76 82.448 26.73 82.448 27.81C82.448 28.89 82.678 29.86 83.138 30.72C83.598 31.56 84.228 32.22 85.028 32.7C85.848 33.18 86.768 33.42 87.788 33.42ZM107.432 36.12C105.852 36.12 104.432 35.76 103.172 35.04C101.912 34.32 100.922 33.33 100.202 32.07C99.5022 30.79 99.1522 29.37 99.1522 27.81C99.1522 26.21 99.4922 24.78 100.172 23.52C100.872 22.24 101.842 21.25 103.082 20.55C104.322 19.83 105.722 19.47 107.282 19.47C109.642 19.47 111.602 20.37 113.162 22.17C113.362 22.39 113.462 22.65 113.462 22.95C113.462 23.39 113.242 23.76 112.802 24.06C112.602 24.2 112.372 24.27 112.112 24.27C111.652 24.27 111.262 24.09 110.942 23.73C110.442 23.19 109.892 22.8 109.292 22.56C108.712 22.3 108.042 22.17 107.282 22.17C105.742 22.17 104.492 22.69 103.532 23.73C102.572 24.75 102.092 26.11 102.092 27.81C102.092 28.89 102.312 29.86 102.752 30.72C103.212 31.56 103.842 32.22 104.642 32.7C105.462 33.18 106.392 33.42 107.432 33.42C108.792 33.42 109.892 33.07 110.732 32.37C111.112 32.09 111.482 31.95 111.842 31.95C112.122 31.95 112.382 32.04 112.622 32.22C113.002 32.54 113.192 32.9 113.192 33.3C113.192 33.6 113.072 33.87 112.832 34.11C111.392 35.45 109.592 36.12 107.432 36.12ZM124.85 19.47C126.39 19.47 127.78 19.84 129.02 20.58C130.28 21.3 131.27 22.3 131.99 23.58C132.73 24.84 133.1 26.25 133.1 27.81V34.5C133.1 34.94 132.95 35.31 132.65 35.61C132.37 35.89 132.01 36.03 131.57 36.03C131.13 36.03 130.76 35.89 130.46 35.61C130.18 35.31 130.04 34.94 130.04 34.5V33.39C129.34 34.25 128.49 34.92 127.49 35.4C126.49 35.88 125.41 36.12 124.25 36.12C122.81 36.12 121.5 35.76 120.32 35.04C119.16 34.32 118.24 33.33 117.56 32.07C116.9 30.79 116.57 29.37 116.57 27.81C116.57 26.25 116.93 24.84 117.65 23.58C118.37 22.3 119.36 21.3 120.62 20.58C121.9 19.84 123.31 19.47 124.85 19.47ZM124.85 33.42C125.85 33.42 126.75 33.18 127.55 32.7C128.37 32.2 129.01 31.53 129.47 30.69C129.93 29.83 130.16 28.87 130.16 27.81C130.16 26.75 129.93 25.79 129.47 24.93C129.01 24.07 128.37 23.4 127.55 22.92C126.75 22.42 125.85 22.17 124.85 22.17C123.85 22.17 122.94 22.42 122.12 22.92C121.32 23.4 120.68 24.07 120.2 24.93C119.74 25.79 119.51 26.75 119.51 27.81C119.51 28.87 119.74 29.83 120.2 30.69C120.68 31.53 121.32 32.2 122.12 32.7C122.94 33.18 123.85 33.42 124.85 33.42ZM140.954 36C140.094 36 139.314 35.77 138.614 35.31C137.934 34.83 137.404 34.17 137.024 33.33C136.644 32.47 136.454 31.51 136.454 30.45V14.07C136.454 13.63 136.594 13.27 136.874 12.99C137.154 12.71 137.514 12.57 137.954 12.57C138.394 12.57 138.754 12.71 139.034 12.99C139.314 13.27 139.454 13.63 139.454 14.07V30.45C139.454 31.19 139.594 31.8 139.874 32.28C140.154 32.76 140.514 33 140.954 33H141.704C142.104 33 142.424 33.14 142.664 33.42C142.924 33.7 143.054 34.06 143.054 34.5C143.054 34.94 142.864 35.3 142.484 35.58C142.104 35.86 141.614 36 141.014 36H140.954ZM151.418 36.12C150.058 36.12 148.778 35.91 147.578 35.49C146.378 35.07 145.438 34.52 144.758 33.84C144.498 33.58 144.368 33.27 144.368 32.91C144.368 32.43 144.568 32.04 144.968 31.74C145.348 31.46 145.698 31.32 146.018 31.32C146.418 31.32 146.798 31.5 147.158 31.86C147.538 32.28 148.108 32.65 148.868 32.97C149.628 33.27 150.438 33.42 151.298 33.42C152.438 33.42 153.318 33.23 153.938 32.85C154.578 32.47 154.898 31.96 154.898 31.32C154.898 30.7 154.588 30.19 153.968 29.79C153.348 29.37 152.298 29.02 150.818 28.74C146.978 28 145.058 26.42 145.058 24C145.058 23.02 145.348 22.19 145.928 21.51C146.508 20.83 147.268 20.32 148.208 19.98C149.148 19.64 150.148 19.47 151.208 19.47C152.508 19.47 153.668 19.68 154.688 20.1C155.728 20.52 156.548 21.1 157.148 21.84C157.408 22.16 157.538 22.48 157.538 22.8C157.538 23.14 157.368 23.45 157.028 23.73C156.808 23.89 156.528 23.97 156.188 23.97C155.668 23.97 155.198 23.78 154.778 23.4C154.278 22.94 153.748 22.62 153.188 22.44C152.628 22.24 151.948 22.14 151.148 22.14C150.228 22.14 149.468 22.3 148.868 22.62C148.288 22.92 147.998 23.35 147.998 23.91C147.998 24.31 148.098 24.65 148.298 24.93C148.498 25.19 148.878 25.44 149.438 25.68C149.998 25.9 150.808 26.12 151.868 26.34C154.048 26.78 155.588 27.39 156.488 28.17C157.408 28.95 157.868 29.96 157.868 31.2C157.868 32.12 157.618 32.96 157.118 33.72C156.618 34.46 155.878 35.05 154.898 35.49C153.938 35.91 152.778 36.12 151.418 36.12ZM169.297 19.44C170.677 19.44 171.917 19.74 173.017 20.34C174.117 20.94 174.977 21.82 175.597 22.98C176.217 24.12 176.527 25.5 176.527 27.12V34.5C176.527 34.94 176.377 35.31 176.077 35.61C175.797 35.89 175.437 36.03 174.997 36.03C174.557 36.03 174.187 35.89 173.887 35.61C173.607 35.31 173.467 34.94 173.467 34.5V27.12C173.467 25.5 173.027 24.28 172.147 23.46C171.287 22.62 170.137 22.2 168.697 22.2C167.857 22.2 167.087 22.37 166.387 22.71C165.707 23.05 165.167 23.51 164.767 24.09C164.387 24.67 164.197 25.32 164.197 26.04V34.5C164.197 34.94 164.057 35.31 163.777 35.61C163.497 35.89 163.127 36.03 162.667 36.03C162.227 36.03 161.857 35.89 161.557 35.61C161.277 35.31 161.137 34.94 161.137 34.5V14.1C161.137 13.64 161.277 13.27 161.557 12.99C161.857 12.71 162.227 12.57 162.667 12.57C163.127 12.57 163.497 12.71 163.777 12.99C164.057 13.27 164.197 13.64 164.197 14.1V21.45C164.837 20.81 165.597 20.32 166.477 19.98C167.357 19.62 168.297 19.44 169.297 19.44ZM188.456 36.12C186.856 36.12 185.426 35.77 184.166 35.07C182.906 34.35 181.926 33.36 181.226 32.1C180.526 30.84 180.176 29.41 180.176 27.81C180.176 26.19 180.526 24.75 181.226 23.49C181.926 22.23 182.906 21.25 184.166 20.55C185.426 19.83 186.856 19.47 188.456 19.47C190.036 19.47 191.446 19.83 192.686 20.55C193.946 21.25 194.926 22.23 195.626 23.49C196.346 24.75 196.706 26.19 196.706 27.81C196.706 29.41 196.356 30.84 195.656 32.1C194.956 33.36 193.976 34.35 192.716 35.07C191.476 35.77 190.056 36.12 188.456 36.12ZM188.456 33.42C189.476 33.42 190.386 33.18 191.186 32.7C192.006 32.22 192.636 31.56 193.076 30.72C193.536 29.86 193.766 28.89 193.766 27.81C193.766 26.73 193.536 25.76 193.076 24.9C192.636 24.04 192.006 23.37 191.186 22.89C190.386 22.41 189.476 22.17 188.456 22.17C187.436 22.17 186.516 22.41 185.696 22.89C184.896 23.37 184.266 24.04 183.806 24.9C183.346 25.76 183.116 26.73 183.116 27.81C183.116 28.89 183.346 29.86 183.806 30.72C184.266 31.56 184.896 32.22 185.696 32.7C186.516 33.18 187.436 33.42 188.456 33.42ZM208.91 19.47C210.45 19.47 211.85 19.84 213.11 20.58C214.39 21.3 215.39 22.3 216.11 23.58C216.83 24.84 217.19 26.25 217.19 27.81C217.19 29.37 216.85 30.79 216.17 32.07C215.51 33.33 214.59 34.32 213.41 35.04C212.25 35.76 210.95 36.12 209.51 36.12C208.35 36.12 207.27 35.88 206.27 35.4C205.27 34.92 204.42 34.25 203.72 33.39V41.49C203.72 41.95 203.58 42.32 203.3 42.6C203.02 42.88 202.65 43.02 202.19 43.02C201.75 43.02 201.38 42.88 201.08 42.6C200.8 42.32 200.66 41.95 200.66 41.49V27.81C200.66 26.25 201.02 24.84 201.74 23.58C202.48 22.3 203.47 21.3 204.71 20.58C205.97 19.84 207.37 19.47 208.91 19.47ZM208.91 33.42C209.91 33.42 210.81 33.18 211.61 32.7C212.43 32.2 213.07 31.53 213.53 30.69C214.01 29.83 214.25 28.87 214.25 27.81C214.25 26.75 214.01 25.79 213.53 24.93C213.07 24.07 212.43 23.4 211.61 22.92C210.81 22.42 209.91 22.17 208.91 22.17C207.91 22.17 207 22.42 206.18 22.92C205.38 23.4 204.75 24.07 204.29 24.93C203.83 25.79 203.6 26.75 203.6 27.81C203.6 28.87 203.83 29.83 204.29 30.69C204.75 31.53 205.38 32.2 206.18 32.7C207 33.18 207.91 33.42 208.91 33.42Z" fill="white"/>
</svg>
