<svg width="28" height="28" viewBox="0 0 28 28" fill="none" xmlns="http://www.w3.org/2000/svg">
<path d="M4.36472 9.05882H23.6353C23.9192 9.05882 24.1916 8.92868 24.3923 8.69701C24.5931 8.46535 24.7059 8.15115 24.7059 7.82353C24.7059 7.49591 24.5931 7.18171 24.3923 6.95005C24.1916 6.71838 23.9192 6.58824 23.6353 6.58824H4.36472C4.08078 6.58824 3.80847 6.71838 3.6077 6.95005C3.40692 7.18171 3.29413 7.49591 3.29413 7.82353C3.29413 8.15115 3.40692 8.46535 3.6077 8.69701C3.80847 8.92868 4.08078 9.05882 4.36472 9.05882ZM23.6353 18.9412H4.36472C4.08078 18.9412 3.80847 19.0713 3.6077 19.303C3.40692 19.5346 3.29413 19.8489 3.29413 20.1765C3.29413 20.5041 3.40692 20.8183 3.6077 21.05C3.80847 21.2816 4.08078 21.4118 4.36472 21.4118H23.6353C23.9192 21.4118 24.1916 21.2816 24.3923 21.05C24.5931 20.8183 24.7059 20.5041 24.7059 20.1765C24.7059 19.8489 24.5931 19.5346 24.3923 19.303C24.1916 19.0713 23.9192 18.9412 23.6353 18.9412ZM23.6353 12.7647H4.36472C4.08078 12.7647 3.80847 12.8949 3.6077 13.1265C3.40692 13.3582 3.29413 13.6724 3.29413 14C3.29413 14.3276 3.40692 14.6418 3.6077 14.8735C3.80847 15.1051 4.08078 15.2353 4.36472 15.2353H23.6353C23.9192 15.2353 24.1916 15.1051 24.3923 14.8735C24.5931 14.6418 24.7059 14.3276 24.7059 14C24.7059 13.6724 24.5931 13.3582 24.3923 13.1265C24.1916 12.8949 23.9192 12.7647 23.6353 12.7647Z" fill="white"/>
</svg>
