<?xml version="1.0" encoding="utf-8"?>
<!-- Generator: Adobe Illustrator 26.0.0, SVG Export Plug-In . SVG Version: 6.00 Build 0)  -->
<svg version="1.1" id="Capa_1" xmlns="http://www.w3.org/2000/svg" xmlns:xlink="http://www.w3.org/1999/xlink" x="0px" y="0px"
	 viewBox="0 0 24 24" style="enable-background:new 0 0 24 24;" xml:space="preserve">
<style type="text/css">
	.st0{fill:#FFFFFF;}
</style>
<path class="st0" d="M22,7.8c0-0.1,0-0.1,0-0.2l0,0l0,0l-2-5C19.8,2.2,19.4,2,19,2H5C4.6,2,4.2,2.2,4.1,2.6l-2,5l0,0l0,0
	c0,0.1,0,0.1,0,0.2C2,7.9,2,7.9,2,8l0,0l0,0c0,1.4,0.8,2.7,2,3.4V21c0,0.6,0.4,1,1,1h14c0.6,0,1-0.4,1-1v-9.6c1.2-0.7,2-2,2-3.4l0,0
	l0,0C22,7.9,22,7.9,22,7.8z M13,20h-2v-4h2V20z M18,20h-3v-5c0-0.6-0.4-1-1-1h-4c-0.6,0-1,0.4-1,1v5H6v-8c1.2,0,2.2-0.5,3-1.4
	c1.5,1.7,4,1.8,5.6,0.4c0.1-0.1,0.2-0.2,0.4-0.4c0.8,0.9,1.8,1.4,3,1.4V20z M18,10c-1.1,0-2-0.9-2-2c0-0.6-0.4-1-1-1s-1,0.4-1,1
	c0,1.1-0.9,2-2,2s-2-0.9-2-2c0-0.6-0.4-1-1-1S8,7.4,8,8c0,1.1-0.8,2-1.9,2.1S4,9.3,4,8.1L5.7,4h12.6L20,8.1C19.9,9.2,19,10,18,10z"
	/>
</svg>
