<svg width="21" height="17" viewBox="0 0 21 17" fill="none" xmlns="http://www.w3.org/2000/svg">
<path d="M20.39 2.4024C19.6384 2.72746 18.8434 2.94234 18.03 3.04037C18.8882 2.52932 19.5313 1.72535 19.84 0.777588C19.0336 1.25612 18.1508 1.59328 17.23 1.77441C16.6146 1.1091 15.795 0.66624 14.8998 0.515277C14.0047 0.364314 13.0846 0.513789 12.2838 0.940259C11.4831 1.36673 10.8469 2.04607 10.4753 2.87174C10.1036 3.69741 10.0173 4.62271 10.23 5.50251C8.59944 5.4203 7.00446 4.99708 5.54867 4.26034C4.09288 3.5236 2.80886 2.48982 1.78001 1.22616C1.41915 1.85432 1.22953 2.56571 1.23001 3.28957C1.22873 3.96181 1.39423 4.62393 1.71177 5.21699C2.02931 5.81004 2.48903 6.31563 3.05001 6.68873C2.39799 6.67104 1.7599 6.49664 1.19001 6.18035V6.23019C1.1949 7.17208 1.52601 8.08337 2.12733 8.80992C2.72865 9.53648 3.56327 10.0337 4.49001 10.2175C4.13327 10.3257 3.76289 10.3827 3.39001 10.3869C3.1319 10.3839 2.87444 10.3606 2.62001 10.3172C2.88392 11.1274 3.39464 11.8355 4.08109 12.3428C4.76754 12.8502 5.59559 13.1317 6.45002 13.1481C5.00722 14.2798 3.2259 14.8974 1.39001 14.9025C1.05575 14.9036 0.72175 14.8836 0.390015 14.8427C2.26444 16.0491 4.44883 16.6895 6.68001 16.6868C8.21971 16.7028 9.74715 16.4127 11.1731 15.8336C12.5991 15.2545 13.895 14.398 14.9852 13.3141C16.0754 12.2302 16.938 10.9406 17.5226 9.5206C18.1072 8.10064 18.4021 6.57881 18.39 5.04397C18.39 4.87452 18.39 4.69509 18.39 4.51566C19.1747 3.93233 19.8515 3.21723 20.39 2.4024Z" fill="white"/>
</svg>
